<svg width="150.59mm" height="150.59mm" version="1.1" viewBox="0 0 150.59 150.59" xmlns="http://www.w3.org/2000/svg">
 <g transform="translate(4.9904 -82.611)">
  <path d="m9.4772 98.843c-1.3626 2.2121-2.6001 7.3501-3.2717 12.462-0.67158 5.112-0.8563 10.505-0.90343 16.846-0.04713 6.3416 0.046992 13.626 0.18575 21.677 0.13876 8.0503 0.32669 17.134 0.37324 24.275 0.046549 7.1412-0.051635 12.735-0.56089 17.65-0.50926 4.9142-1.4526 9.7826-1.5574 14.329-0.10481 4.5466 0.077538 5.6525 2.5629 8.5496s7.1756 4.0734 11.634 3.9702c4.4582-0.10316 9.1945-1.4803 12.326-2.1115 3.1315-0.63122 8.6959-1.1333 13.538-1.1875 4.8425-0.0542 10.421 0.18782 16.05 0.37437 5.6291 0.18655 11.117 0.30963 16.298 0.83421 5.1817 0.52457 10.03 1.4491 15.881 2.0032 5.8509 0.55413 12.897 0.7439 18.867 0.5875s11.072-0.64733 15.129-1.496c4.057-0.84865 6.8569-1.9783 8.3315-3.7076 1.4746-1.7293 1.9011-5.327 1.8669-9.5663-0.0342-4.2393-0.45462-9.7612-1.2394-15.734-0.78477-5.9729-1.9711-12.629-2.5034-21.334-0.53231-8.705-0.4385-19.705-0.19938-27.329 0.23912-7.6233 0.58027-11.52-0.24992-17.33-0.83018-5.8091-3.4509-14.952-4.6671-18.516-1.2162-3.5642-1.9076-4.9895-2.4501-6.1077-0.54247-1.1182-2.072-0.58641-3.4938 2.8109-1.4219 3.3973-3.4966 15.73-3.6409 11.895-0.14437-3.8354-0.53922-14.326-2.0432-17.134-1.504-2.8085-4.7111-3.6777-5.1492 0.60159-0.43806 4.2793-2.1903 21.397-2.2881 17.446-0.0978-3.9506-0.39336-15.897-1.8327-17.871-1.4394-1.9739-4.3763-2.0711-5.1998 2.0199-0.82356 4.091-2.9648 20.493-2.9558 16.451 9e-3 -4.0417 0.03756-16.884-1.3688-18.558-1.4063-1.6738-4.4912-1.6988-5.268 2.3733-0.77671 4.0721-2.6287 20.371-2.6783 16.506-0.04963-3.8648-0.20674-16.099-1.5988-17.951-1.3921-1.8522-5.3918-2.5503-5.6469 1.2132s-1.2754 18.817-1.2815 15.132c-6e-3 -3.6852-0.02622-16.012-1.4963-17.284-1.4701-1.2714-5.4804-1.4475-6.0174 2.5171-0.53701 3.9646-2.0522 19.851-2.3584 15.833-0.3062-4.0179-1.3106-17.197-2.934-18.674-1.6234-1.4762-5.9878-1.563-6.2011 2.5294-0.21332 4.0925-0.83473 20.467-1.361 16.516-0.52627-3.9506-2.1949-16.477-3.9221-18.12-1.7272-1.643-5.7788-1.6566-6.2514 2.4308-0.47266 4.0874-1.5633 20.44-2.0993 16.612s-2.2043-15.741-3.8788-17.476c-1.6746-1.7346-5.7089-1.8348-5.9214 2.1097-0.21249 3.9445-0.86231 19.728-1.5022 15.649-0.63994-4.0787-2.8784-18.345-4.3726-19.031-1.4943-0.68554-4.1994 1e-3 -4.9182 3.9506-0.71882 3.9495-0.90115 19.064-1.5197 15.088-0.61852-3.976-2.6926-17.309-4.2232-17.982-1.5306-0.67348-3.1609 0.07643-4.3422 4.2076-1.1813 4.1312-1.499 18.629-1.7918 14.845-0.29285-3.7839-1.2257-15.837-2.1092-17.651-0.88351-1.8133-2.4121-2.3575-3.7746-0.14534z" fill="#9af28c" stroke="#000" stroke-width=".8"/>
  <path d="m56.064 167.63c-0.0487 5.3e-4 -0.0974 4e-3 -0.14552 0.01-0.0489 6e-3 -0.0976 0.0138-0.1458 0.0241-0.25035-5e-5 -0.49974 0.10202-0.6886 0.28177-0.20839 0.19836-0.33979 0.48759-0.36966 0.78799-0.0264 0.26605 0.0263 0.54352 0.16142 0.76665 0.16599 0.27425 0.44872 0.45191 0.74546 0.505 0.30314 0.0542 0.62473-0.0173 0.88122-0.20219 0.25519-0.18394 0.44232-0.47912 0.50516-0.80628 0.0573-0.29814 0.0104-0.61951-0.13243-0.88101-0.092-0.1684-0.22489-0.31333-0.3875-0.39613-0.13176-0.0671-0.27769-0.0913-0.42375-0.0896zm-9.7398 0.36961c-0.0487 5.3e-4 -0.0974 4e-3 -0.14552 0.01-0.0489 6e-3 -0.0973 0.0138-0.14553 0.0241-0.25034-4e-5 -0.49973 0.10202-0.68859 0.28177-0.20839 0.19836-0.33979 0.48759-0.36966 0.78799-0.0264 0.26604 0.0264 0.54352 0.16141 0.76666 0.16599 0.27424 0.44845 0.45189 0.74519 0.505 0.30314 0.0542 0.62473-0.0173 0.88122-0.2022 0.25519-0.18394 0.4426-0.47913 0.50543-0.80627 0.0573-0.29815 0.0102-0.61952-0.1327-0.88101-0.092-0.16841-0.22461-0.31304-0.38722-0.39584-0.13176-0.0671-0.27796-0.0917-0.42403-0.09zm2.2372 2.7912c-0.44962 0-1.2202 0.51318-1.4268 0.95023-0.35628 0.75364-0.25534 1.3879 0.4204 2.6442 0.79252 1.4735 2.6265 3.8772 3.8134 4.9982 1.2712 1.1961 3.0083 2.4604 4.4795 3.914 0.52043 0.59865 0.60267 0.74537 0.30387 0.54251-0.22537-0.153-0.77134-0.52122-1.2133-0.81849-0.44193-0.29726-1.221-0.85356-1.7312-1.2363-2.0936-1.5702-5.7196-3.34-9.2603-4.52-2.0845-0.69469-2.9544-0.71837-3.5628-0.0967-0.75582 0.7723-0.77033 1.7287-0.0385 2.5293 0.48544 0.53103 0.99929 0.68919 3.2977 1.0149 0.98105 0.13902 2.3941 0.46655 3.1402 0.72792 1.312 0.45965 4.2056 1.7438 4.4967 1.9956 0.0785 0.0679 0.62274 0.38993 1.2093 0.71542 1.0936 0.6068 3.8469 2.8509 5.6643 4.617 1.1256 1.0938 1.879 1.9972 3.0423 3.6469 2.6208 3.7167 5.8928 7.5447 6.8778 8.0468 3.7943 2.9348 6.4153 2.3545 5.5048 0.29704-0.45085-1.0188-6.4224-7.0107-10.023-10.345-1.7271-1.599-3.4614-3.2305-3.8539-3.6253l-0.71368-0.71755 0.92778 0.66328c0.51028 0.3649 1.93 1.4502 3.155 2.4118 3.918 3.0757 11.172 8.503 12.301 8.1809 0.63616-0.18149 0.74474-1.4081-0.6345-2.9483-8.423-7.4421-16.598-8.7367-22.467-18.983-1.9683-3.4594-2.8914-4.606-3.7084-4.606zm8.3431 0.32234c-0.71627 0.0401-1.4237 1.2006-0.97043 2.0148 0.81188 1.4586 2.7001 4.2048 4.565 5.6904 1.2559 1.0005 3.8626 2.0123 4.2776 2.0246 1.3333 0.0395 1.7836-0.45429 1.8957-1.025 0.26336-1.3401-0.6639-1.9683-2.388-2.0212-1.7241-0.0529-5.8234-3.4063-6.4125-5.6139-0.21466-0.80435-0.59218-1.0908-0.96738-1.0698zm-3.0772 1.801c-0.61393 0-1.1911 0.62072-1.191 1.2811 2.6e-4 0.9801 1.1788 3.0653 2.7337 4.8368 2.9437 3.3538 6.2756 5.7167 9.5368 6.7626 1.67 0.5356 2.4022 0.5682 2.9116 0.12991 0.28818-0.24797 0.37607-0.46202 0.37607-0.91577 0-1.1446-0.91019-1.8834-2.3206-1.8834-2.1647 0-5.6814-1.9619-8.1909-4.5694-1.1248-1.1688-1.637-2.0319-2.2648-3.8164-0.47864-1.3607-0.88362-1.8254-1.591-1.8254zm-17.968 7.1752c-0.12891-4e-3 -0.25803 7e-3 -0.38527 0.029-0.4982 0.0892-0.97277 0.38764-1.2514 0.84809-0.22675 0.37462-0.31539 0.84053-0.27097 1.2872 0.0502 0.50435 0.27095 0.98984 0.62084 1.3229 0.31707 0.3018 0.73552 0.47305 1.1558 0.473 0.081 0.0173 0.16275 0.0308 0.24476 0.0406 0.32343 0.0385 0.661 0.0157 0.95594-0.13452 0.27302-0.13902 0.49589-0.38173 0.6504-0.66447 0.2399-0.43903 0.3186-0.97878 0.22247-1.4793-0.1055-0.54928-0.41988-1.0451-0.84834-1.354-0.32297-0.23281-0.70746-0.3585-1.0942-0.36839zm5.4967 0.99993c-0.41182 7e-3 -0.7498 0.0857-1.0599 0.22749-0.70381 0.32169-1.0129 0.90694-0.85001 1.6092 0.25305 1.0911 0.53031 1.1826 3.9476 1.304 2.4614 0.0875 3.2284 0.17 4.0655 0.4379 5.8554 1.8741 10.639 6.8129 13.55 13.99 0.349 0.86037 0.79537 1.7225 0.99191 1.9157 0.78313 0.76988 2.1971 0.10422 2.1971-1.0344 0-1.0422-2.0397-4.5676-4.1614-7.192-1.7987-2.2249-5.5502-5.5368-7.3041-6.4485-0.32773-0.17034-0.72582-0.43981-0.88486-0.59892-0.64271-0.64294-4.1975-2.452-6.2054-3.1578-2.1161-0.74384-3.3803-1.0693-4.2862-1.0527zm4.5703 4.7655c-1.1378-0.02-2.0035 0.2429-2.6649 0.79468-0.93944 0.78381-1.0836 1.8754-0.34318 2.5991 0.66888 0.65373 1.3257 0.59152 2.9503-0.27872 1.5828-0.84783 2.4695-1.0017 3.6275-0.62943 1.0694 0.34383 2.0083 0.96255 3.3077 2.1795 1.617 1.5144 2.8176 3.5178 3.4103 5.691 0.10176 0.37313 0.36782 0.84257 0.59743 1.0539 0.5511 0.50727 1.034 0.48369 1.545-0.0753 0.55205-0.60388 0.5362-1.1151-0.0761-2.454-1.5199-3.3232-6.7016-7.7499-9.9976-8.5408-0.89322-0.2143-1.6738-0.32799-2.3565-0.34zm27.069 0.88679c-0.26512-6e-3 -0.54115 0.0606-0.80874 0.21195-1.0875 0.61513-1.1048 2.4565-0.0293 3.1181h2.6e-4c0.88098 0.54195 2.2102-0.15038 2.3986-1.2494 0.19554-1.1401-0.61401-2.062-1.5609-2.0807zm-33.114 0.0214c-0.21011 5.3e-4 -0.42774 0.0554-0.64036 0.17565-0.53342 0.30174-0.73515 0.67835-0.73515 1.3723 0 0.5974 0.31905 1.1735 0.7647 1.3808 0.38306 0.1782 1.1871 0.0719 1.4826-0.19609 0.12292-0.11149 0.30947-0.42791 0.41455-0.7029 0.39336-1.0294-0.37582-2.0334-1.2863-2.0298zm10.211 2.9754c-1.3071-0.0333-4.0425 0.96254-4.5073 1.6885-0.38206 0.59669-0.29221 1.2919 0.22916 1.7718 0.61752 0.5684 1.1717 0.47106 2.6445-0.46504 1.4412-0.91599 2.0261-1.0198 2.8935-0.51323 1.736 1.0139 2.59 3.9103 1.9233 6.5235-0.42373 1.6608-0.42618 1.9591-0.0201 2.4033 0.48329 0.52882 1.0793 0.52826 1.5333-1e-3 0.33593-0.39148 0.34586-0.47431 0.33761-2.7714-8e-3 -2.2413-0.0328-2.4456-0.46306-3.8183-0.92754-2.9596-2.2916-4.4706-4.3298-4.7972-0.0734-0.0117-0.154-0.0185-0.24114-0.0207zm8.0322 9.0092c-0.28967-0.0139-0.58524 0.035-0.78533 0.15217-0.31886 0.18667-0.70587 0.93857-0.70587 1.3717 0 0.37679 0.5152 1.1041 0.91189 1.2872 0.66424 0.30659 1.5461-0.14374 1.8207-0.92949 0.16965-0.4854-0.0853-1.3441-0.49149-1.6553-0.17655-0.13528-0.46025-0.21233-0.74992-0.22627zm17.473 4.7344c-0.0487 5.3e-4 -0.0974 4e-3 -0.14553 0.01-0.0489 6e-3 -0.0976 0.0138-0.1458 0.024-0.25035-4e-5 -0.49974 0.10202-0.68859 0.28177-0.20839 0.19837-0.33979 0.48759-0.36967 0.78799-0.0264 0.26606 0.0264 0.54352 0.16142 0.76666 0.16599 0.27423 0.44872 0.4519 0.74546 0.50501 0.30315 0.0542 0.62473-0.0173 0.88123-0.2022 0.25518-0.18394 0.44231-0.47914 0.50514-0.80628 0.0573-0.29814 0.0104-0.61952-0.13241-0.88101-0.092-0.16841-0.2249-0.31333-0.38751-0.39614-0.13176-0.067-0.27768-0.0913-0.42374-0.0896z" fill="#ff9243" stroke="#000" stroke-width=".4"/>
  <g stroke="#000">
   <path d="m-77.29 260.09c-0.18441 3.3e-4 -0.36815-0.0682-0.50734-0.18916-0.15366-0.13356-0.25046-0.32844-0.27246-0.53084-0.01948-0.17924 0.01941-0.36627 0.11896-0.51659 0.12234-0.18472 0.33058-0.30434 0.54923-0.34016 0.22339-0.0366 0.46047 0.0114 0.64932 0.13623 0.18782 0.12413 0.325 0.3232 0.37226 0.54331 0.04314 0.20092 0.01053 0.41885-0.09773 0.59353-0.06941 0.112-0.16882 0.20537-0.28544 0.26671-0.06372 0.0335-0.13306 0.0571-0.2046 0.0652-0.07154 8e-3 -0.14382-5e-4 -0.21496-0.0115z" stroke-width=".10518px"/>
   <path d="m125.84 175.14c-0.11603 1.5e-4 -0.23171-0.0408-0.32175-0.11402-0.10191-0.0828-0.1701-0.20816-0.17653-0.33933-5e-3 -0.10914 0.0319-0.21919 0.0995-0.30502 0.0771-0.0979 0.19177-0.16335 0.31359-0.18964 0.13683-0.0295 0.28476-0.0102 0.40641 0.0591 0.12314 0.0701 0.2166 0.19075 0.25308 0.32767 0.0324 0.12149 0.0191 0.25657-0.0458 0.36425-0.0456 0.0757-0.1151 0.13594-0.19437 0.175-0.0407 0.02-0.0845 0.0344-0.12955 0.0394-0.0451 5e-3 -0.0906-2.2e-4 -0.1355-7e-3z" stroke-width=".065139px"/>
   <path d="m231.92 201.38c-0.11603 1.5e-4 -0.23171-0.0408-0.32175-0.11402-0.10191-0.0828-0.1701-0.20816-0.17653-0.33933-5e-3 -0.10914 0.0319-0.21919 0.0995-0.30502 0.0771-0.0979 0.19177-0.16335 0.31359-0.18964 0.13683-0.0295 0.28476-0.0102 0.40641 0.0591 0.12314 0.0701 0.2166 0.19075 0.25308 0.32767 0.0324 0.12149 0.0191 0.25657-0.0458 0.36425-0.0456 0.0757-0.1151 0.13594-0.19437 0.175-0.0407 0.02-0.0845 0.0344-0.12955 0.0394-0.0451 5e-3 -0.0906-2.2e-4 -0.1355-7e-3z" stroke-width=".065139px"/>
  </g>
  <g stroke="#000" stroke-width=".4">
   <path d="m43.576 200.98c-0.43228-0.0742-0.8763-0.0796-1.3102-0.0159-0.70516 0.1035-1.3926 0.39864-1.9022 0.89694-0.47774 0.46718-0.78556 1.1106-0.82352 1.7777-0.03489 0.61319 0.16027 1.2377 0.54239 1.7185 0.45694 0.57497 1.1593 0.92597 1.8847 1.0408 0.79187 0.1253 1.6254-0.0196 2.3242-0.41271 0.3216-0.18091 0.61603-0.41408 0.84884-0.70035s0.40271-0.62677 0.46986-0.9896c0.11-0.59437-0.06103-1.2137-0.35765-1.7404-0.38207-0.6784-0.97534-1.2358-1.6762-1.575z" fill="#f61c2d"/>
   <path d="m31.612 167.2c-0.40924-0.0937-0.83814-0.10057-1.2502-0.0201-0.51846 0.10128-1.0178 0.34868-1.3653 0.74657-0.30929 0.35416-0.48853 0.83398-0.4273 1.3002 0.03283 0.24998 0.13284 0.48965 0.27964 0.69463 0.1468 0.20498 0.33962 0.37558 0.55608 0.50485 0.47281 0.28235 1.0449 0.36216 1.5941 0.32152 0.51831-0.0384 1.0365-0.18285 1.4664-0.47494 0.19386-0.13172 0.36944-0.29384 0.49852-0.48947 0.12908-0.19563 0.21006-0.42615 0.21046-0.66053 4.27e-4 -0.25169-0.0915-0.49735-0.2274-0.70919-0.1359-0.21185-0.31439-0.39297-0.50058-0.56232-0.26126-0.23764-0.54048-0.45553-0.83449-0.65121z" fill="#fd6572"/>
   <path d="m21.296 151.65c-0.55202 0.0948-1.119 0.10164-1.6732 0.0203-0.90049-0.13217-1.7784-0.50906-2.4291-1.1454-0.61007-0.59659-1.0032-1.4182-1.0516-2.2701-0.04456-0.78304 0.20465-1.5805 0.69262-2.1946 0.58352-0.73425 1.4804-1.1825 2.4067-1.329 1.0112-0.16001 2.0757 0.0251 2.968 0.52705 0.41068 0.23102 0.78666 0.52878 1.084 0.89435s0.51426 0.80039 0.6 1.2637c0.14046 0.75899-0.07793 1.5499-0.4567 2.2224-0.48789 0.86632-1.2455 1.5782-2.1405 2.0113z" fill="#ffc295"/>
   <path d="m54.986 138.36c-0.40924-0.0937-0.83814-0.10057-1.2502-0.0201-0.51846 0.10128-1.0178 0.34868-1.3653 0.74657-0.30929 0.35416-0.48853 0.83398-0.4273 1.3002 0.03283 0.24998 0.13284 0.48965 0.27964 0.69463 0.1468 0.20498 0.33962 0.37558 0.55608 0.50485 0.47281 0.28235 1.0449 0.36216 1.5941 0.32152 0.51831-0.0384 1.0365-0.18285 1.4664-0.47494 0.19386-0.13172 0.36944-0.29384 0.49852-0.48947 0.12908-0.19563 0.21006-0.42615 0.21046-0.66053 4.27e-4 -0.25169-0.0915-0.49735-0.2274-0.70919-0.1359-0.21185-0.31439-0.39297-0.50058-0.56232-0.26126-0.23764-0.54048-0.45553-0.83449-0.65121z" fill="#fd6572"/>
  </g>
  <g stroke-opacity="0">
   <path d="m114.64 206.21c-0.0269-0.2422-0.0407-0.4863-0.0554-0.72994-0.0322-0.3841-0.0403-0.76067 0.0247-1.1394 0.1666-0.58851 0.58973-0.8921 1.0278-1.141 0.5125-0.2683 1.0549-0.37061 1.6088-0.35573 0.56828 0.0396 1.0082 0.28505 1.4293 0.73978 0.37829 0.46819 0.5493 1.0738 0.6648 1.7004 0.1214 0.74748-0.0233 1.3914-0.28346 2.0641-0.30495 0.70291-0.76166 1.2709-1.2296 1.8133-0.49322 0.56032-1.0414 1.039-1.6061 1.4848-0.46807 0.35816-0.96832 0.64609-1.4766 0.9073-0.29535 0.15305-0.60053 0.2726-0.91095 0.37006-0.22702 0.0712-0.17166 0.11105-0.1014-0.63688 8e-5 0 0.23127-0.0276 0.35002-0.0417 0.37652-0.0449 0.754-0.0757 1.1316-0.1036 0.41353-0.03 0.82751-0.0492 1.2416-0.0641 0.32443-0.0114 0.64899-0.0163 0.97355-0.0178 0.21977 0 0.43953 3e-3 0.65928 6e-3 0.14592 3e-3 0.29184 6e-3 0.43775 0.01 0.0652 3e-3 0.0334 0 0.0954 3e-3 1.9386 0.0501 1.927 0.71919-0.0116 0.66906-0.0621-3e-3 -0.0305 0-0.0952-3e-3 -0.14472-4e-3 -0.28944-7e-3 -0.43418-0.01-0.21641-4e-3 -0.43282-7e-3 -0.64925-6e-3 -0.3199 3e-3 -0.63978 7e-3 -0.95953 0.0175-0.40841 0.0147-0.81672 0.0335-1.2246 0.0632-0.37095 0.0273-0.74183 0.0576-1.1117 0.10173-0.10081 0.012-0.35284 0.0495-0.35601 0.0424-0.28083-0.63039-0.33662-0.59709-0.0822-0.67796 0.2845-0.0892 0.56419-0.1983 0.83481-0.33877 0.47886-0.24564 0.95028-0.51612 1.3916-0.85244 0.53642-0.42294 1.0575-0.8768 1.5264-1.4082 0.41971-0.48537 0.83319-0.99052 1.1122-1.6163 0.20551-0.51761 0.33883-1.0508 0.24295-1.6307-0.0878-0.49033-0.20963-0.97325-0.49703-1.3489-0.3031-0.34398-0.65814-0.53922-1.0762-0.56739-0.46958-0.0184-0.92924 0.072-1.3649 0.29466-0.27822 0.15404-0.58175 0.32696-0.72195 0.6796-0.0636 0.31097-0.0306 0.62729-0.0129 0.94374 0.0134 0.2233 0.0263 0.44691 0.0494 0.66907 0.31878 2.3338-0.2222 2.4438-0.54097 0.11004z" style="paint-order:markers fill stroke"/>
   <path d="m98.224 148.68c-0.0826-0.18811-0.1349-0.39156-0.18123-0.59597-0.0853-0.35265-0.10246-0.71225-0.0786-1.0763 0.035-0.42212 0.17981-0.77598 0.41963-1.0804 0.28186-0.30208 0.64066-0.41306 1.0028-0.48943 0.39483-0.0707 0.77996 0.0107 1.1531 0.16469 0.3412 0.1531 0.61336 0.42551 0.84388 0.75751 0.18989 0.29391 0.29502 0.63774 0.35949 0.99762 0.0464 0.29707 0.0413 0.59915 0.0212 0.89887-0.0155 0.20523-0.0471 0.40791-0.0859 0.60845-0.0121 0.0368-0.0147 0.0771-0.0252 0.11457-4e-3 0.0117 9e-3 -0.0239 7e-3 -0.0361-7e-3 -0.0574-1e-3 -0.12332-0.0308-0.16967-0.0905-0.14553-0.11797-0.14176-0.21195-0.158 0.18887-0.0572 0.3793-0.10635 0.57025-0.15233 0.31224-0.0732 0.6273-0.12685 0.9429-0.17388 0.2824-0.049 0.56568-0.0678 0.84987-0.0373 0.36548 0.0545 0.54262 0.25818 0.68842 0.65404 0.12863 0.49967 0.14102 1.0283 0.13873 1.5474-8e-3 0.60781-0.12049 1.1982-0.2892 1.768-0.17414 0.54599-0.45006 1.0199-0.78162 1.442-0.30727 0.3789-0.69094 0.61989-1.0976 0.80436-0.32663 0.13967-0.66885 0.19581-1.0135 0.21047-0.2679 5e-3 -0.53435-0.0325-0.79916-0.0769-0.23912-0.0301-0.46612-0.11152-0.68368-0.23196-0.20955-0.12068-0.36807-0.30662-0.49212-0.53939-0.0816-0.16851-0.12136-0.35512-0.14551-0.54602-0.27651-2.3099 0.26634-2.404 0.54283-0.0941 0.0108 0.10071 0.0293 0.19995 0.0681 0.29103 0.0624 0.12802 0.14653 0.22364 0.25828 0.29018 0.16739 0.0956 0.34316 0.15391 0.52808 0.17657 0.2336 0.0394 0.46856 0.0739 0.70492 0.0709 0.28531-0.0104 0.56877-0.0555 0.83968-0.16902 0.32961-0.14679 0.6422-0.3362 0.89235-0.64112 0.2813-0.35289 0.51345-0.75196 0.66275-1.21 0.15008-0.49863 0.24783-1.0167 0.25693-1.5493 3e-3 -0.43204-6e-3 -0.87092-0.0974-1.2914-0.0449-0.15697-0.0815-0.23084-0.23254-0.24843-0.24452-0.0294-0.48833-5e-3 -0.73135 0.0352-0.30216 0.0449-0.6038 0.0962-0.90277 0.16612-0.20202 0.0485-0.40257 0.10448-0.60346 0.15906-0.32344 0.0132-0.43387-0.22203-0.34786-0.55483 0.0329-0.16899 0.0599-0.33984 0.0734-0.51283 0.0165-0.23599 0.023-0.47402-0.0112-0.70852-0.0433-0.25611-0.11439-0.50215-0.24603-0.71376-0.16261-0.24219-0.35697-0.44016-0.60121-0.55403-0.28377-0.12166-0.57745-0.18722-0.87943-0.1375-0.24777 0.0503-0.50171 0.11121-0.70473 0.30163-0.15897 0.18198-0.23841 0.41057-0.26429 0.67299-0.0218 0.28751-6e-3 0.56992 0.0615 0.84859 0.0344 0.15467 0.0726 0.30904 0.13329 0.45228 0.92851 2.0488 0.44704 2.3649-0.48147 0.31606z" style="paint-order:markers fill stroke"/>
   <path d="m63.836 208.17c0.21985-0.22403 0.43649-0.45134 0.65266-0.67908 0.40674-0.42803 0.78978-0.87855 1.166-1.3347 0.34707-0.41659 0.67367-0.84977 0.98355-1.2959 0.1701-0.25003 0.32938-0.50809 0.46453-0.77982 0.12633-0.27505 0.0487-0.34514 0.59759 0.0619 0.0428 0.0318-9e-3 0.10814-0.0151 0.16205-8e-3 0.0681-0.0169 0.13609-0.0255 0.20414-0.09 0.63696-0.18794 1.2726-0.27429 1.9102-0.10567 0.78387-0.18644 1.5708-0.25698 2.3588-0.0516 0.58587-0.0889 1.1729-0.1144 1.7606-0.0875 2.0166-0.64364 1.9913-0.55611-0.0253 0.026-0.59662 0.0637-1.1926 0.11618-1.7874 0.0713-0.79671 0.15305-1.5925 0.25994-2.3851 0.0861-0.63555 0.18358-1.2693 0.2735-1.9043 8e-3 -0.0624 0.0163-0.12489 0.0235-0.18748 5e-3 -0.0443-0.0296-0.12484 0.0131-0.13333 0.68173-0.13531 0.57957-0.0605 0.45397 0.22555-0.14819 0.29613-0.32041 0.57858-0.50673 0.85101-0.31893 0.45897-0.65487 0.90478-1.0119 1.3334-0.38466 0.46622-0.77628 0.92668-1.1921 1.3642-0.21793 0.22957-0.43631 0.4587-0.65789 0.68455-1.3917 1.4274-1.7853 1.0237-0.39364-0.40374z" style="paint-order:markers fill stroke"/>
   <path d="m26.596 142.81c-0.1371 0-0.27422 0.58345-0.27422 1.7504v0.99231c-1e-3 0.52682 3e-3 1.0536-3e-3 1.5804-5e-3 0.36972-0.0148 0.74048-0.0643 1.1059h-0.37999c-2e-3 9e-3 -4e-3 0.0142-5e-3 0.0224-0.0102 9e-3 -0.0131 0.0285-0.0122 0.0578-0.12983 0.63527-0.24216 0.52624 0.0461 0.61201 0.0552 0.0184 0.11023 0.0364 0.15624 0.0794 0.16225 0.11129 0.33312 0.13267 0.49061-0.0102 0.0262-0.0316 0.049-0.0651 0.0701-0.0994h0.0418c0.36495 4e-3 0.7299 8e-3 1.0949 0.012 0.30791 4e-3 0.61582 6e-3 0.92373 9e-3 0.23736 0 0.47467 3e-3 0.71204 3e-3 -5.8e-4 0.34263-5e-5 0.68503 0.0144 1.0273 0.01 0.21793 0.0281 0.43523 0.055 0.65105 0.012 0.093 0.0254 0.18562 0.0449 0.27672 5e-3 0.0205 2e-3 0.011 6e-3 0.0294 0.46475 2.2657 0.99713 2.1075 0.53239-0.15826-5e-3 -0.0252-3e-3 -0.0123-8e-3 -0.0392-0.0142-0.0682-0.0242-0.13747-0.0331-0.20695-0.0245-0.19437-0.0404-0.39018-0.0494-0.58645-0.0141-0.33104-0.0148-0.6622-0.0139-0.99352h0.24229 0.58637 0.43279c0.0773 6e-5 0.0392 0 0.11397 0 1.9391-3e-3 1.9387-0.66201-2.5e-4 -0.66008-0.0748-3e-5 -0.0368 0-0.11413 0h-0.43313-0.5862c-0.0806-3e-5 -0.16107 0-0.24162 0v-1.8606c0-2.3337-0.54844-2.3337-0.54844 0v1.8604c-0.23623 0-0.47246 0-0.70868-3e-3 -0.30733-3e-3 -0.61474-5e-3 -0.92208-9e-3 -0.31835-4e-3 -0.63663-7e-3 -0.95498-0.0104 0.0422-0.36542 0.0566-0.73435 0.0602-1.1033 6e-3 -0.52955 2e-3 -1.0591 3e-3 -1.5886v-0.99213c0-1.1669-0.13711-1.7503-0.27421-1.7503z" enable-background="new" style="paint-order:markers fill stroke"/>
  </g>
  <g fill="none" stroke="#00887a" stroke-linecap="round" stroke-width="1.2474">
   <path d="m85.162 166.18c-2.0608-1.7357-3.7172-3.9307-4.7892-6.4482-0.43795-1.0284 0.30999 1.1533 0 0"/>
   <path d="m97.096 170.41c-1.1259-0.0125-2.2355-0.074-2.9477-0.1808-2.2714-0.34059-4.4184-1.0992-6.3429-2.2012"/>
   <path d="m110.47 166.28c-2.7985 2.0647-6.444 3.5193-10.152 3.9909"/>
   <path d="m116.96 154.14c-0.0867 2.0582-0.53773 3.9908-1.3528 5.8229-0.73393 1.6498-1.6061 2.9564-2.8948 4.3332"/>
   <path d="m112.52 139.12c1.1431 1.7406 1.966 3.542 2.9918 6.4862 0.62073 1.7817 1.0438 3.478 1.2692 5.0989"/>
   <path d="m101.01 131.38c3.8136 0.92455 7.1809 2.7955 9.5858 5.2882"/>
   <path d="m88.142 133.41c0.38155-0.20319 0.7731-0.40028 1.1746-0.59128 1.499-0.71307 2.8635-1.1862 4.5096-1.5639 0.72639-0.16666 1.8027-0.25331 2.935-0.26292l5e-5 -6e-5c0.33414-3e-3 0.67312 9.2e-4 1.0094 0.0119"/>
   <path d="m79.366 141.97c1.3884-2.7644 3.4873-5.1181 6.2865-7.05"/>
   <path d="m78.754 154.95c-0.54106-3.0212-1.0623-7.8148-0.57608-9.9246"/>
  </g>
  <g fill="#00887a" stroke="#000">
   <g stroke-width=".4">
    <path d="m90.992 151.55c-1.3634-0.12049-2.7851 0.36006-3.7393 1.3413-0.64014 0.65831-1.0633 1.5358-1.1272 2.4518-0.04196 0.60088 0.06886 1.2095 0.30128 1.7652 0.23242 0.5557 0.58487 1.0586 1.0137 1.4817 0.84802 0.83655 2.0107 1.356 3.2014 1.3913 0.83736 0.0249 1.6822-0.18743 2.4017-0.61651 0.7195-0.42909 1.31-1.0749 1.6614-1.8354 0.34359-0.74368 0.45569-1.5917 0.32139-2.3998-0.1343-0.80813-0.51386-1.5732-1.0729-2.172-0.76277-0.81702-1.848-1.3091-2.9614-1.4075z"/>
    <path d="m74.077 144.54c-0.09699-0.59844-0.0011-1.2136-0.07562-1.8152-0.10935-0.88233-0.58696-1.6928-1.2253-2.3117-0.38484-0.37305-0.82682-0.68297-1.2148-1.0527-0.388-0.36977-0.72956-0.81871-0.83569-1.3441-0.06586-0.32599-0.03743-0.6645 0.02642-0.99088 0.06385-0.32639 0.16248-0.64488 0.23824-0.96871 0.22422-0.95848 0.24887-1.9661 0.593-2.8884 0.14921-0.39986 0.3695-0.79173 0.72145-1.0332 0.17598-0.12071 0.38269-0.2 0.59577-0.21164 0.21308-0.0116 0.43199 0.047 0.60157 0.17653 0.11342 0.0867 0.20288 0.20283 0.26521 0.33124 0.06233 0.12841 0.09807 0.26884 0.11309 0.41078 0.03004 0.28389-0.02168 0.56986-0.08613 0.84796-0.13535 0.58403-0.32742 1.1531-0.51299 1.7232-0.25576 0.78571-0.5027 1.605-0.40082 2.425 0.10819 0.87075 0.60043 1.6474 1.164 2.32 0.26971 0.32186 0.57665 0.63951 0.97599 0.76939 0.19967 0.0649 0.41902 0.0785 0.61992 0.0175 0.2009-0.061 0.3809-0.20065 0.47159-0.39002 0.07393-0.15438 0.08602-0.33448 0.04979-0.50177-0.03623-0.1673-0.11868-0.32232-0.22384-0.45738-0.21032-0.27013-0.5047-0.45897-0.77774-0.66549-0.39401-0.29801-0.75803-0.64842-1.0019-1.0781s-0.35878-0.9466-0.242-1.4266c0.06591-0.27092 0.20151-0.51972 0.35128-0.7549 0.14977-0.23519 0.3153-0.46072 0.44993-0.70489 0.27227-0.4938 0.41197-1.0523 0.68857-1.5437 0.33605-0.59697 0.86004-1.0683 1.425-1.4557 0.77942-0.53443 1.646-0.92623 2.467-1.3943 0.90526-0.51605 1.7768-1.1466 2.3498-2.017 0.18664-0.28349 0.33882-0.58833 0.52124-0.87455 0.18242-0.28623 0.40033-0.55828 0.68609-0.74144 0.14288-0.0916 0.30177-0.15969 0.46858-0.19095 0.16681-0.0312 0.34164-0.0249 0.50317 0.0271s0.3091 0.15072 0.41185 0.28579c0.10275 0.13507 0.15885 0.30674 0.14688 0.47603-0.01242 0.17566-0.09645 0.34141-0.21411 0.47243-0.11766 0.13102-0.26745 0.22971-0.4246 0.30916-0.30566 0.15453-0.64467 0.24169-0.93472 0.42384-0.14503 0.0911-0.27724 0.20677-0.36888 0.35143-0.09164 0.14467-0.14035 0.32016-0.1153 0.48957 0.02939 0.19879 0.16067 0.3762 0.33411 0.47769 0.17344 0.10149 0.38481 0.1299 0.58278 0.0954 0.19797-0.0345 0.38269-0.12909 0.53874-0.2557s0.28463-0.28447 0.39353-0.45335c0.21176-0.3284 0.35463-0.70384 0.61467-0.9955 0.13002-0.14584 0.29028-0.26897 0.47528-0.3318 0.185-0.0628 0.39623-0.0608 0.56957 0.0294 0.10654 0.0554 0.19571 0.1421 0.25917 0.24405 0.06347 0.10194 0.10165 0.21876 0.1166 0.33791 0.0299 0.23831-0.03227 0.48055-0.13278 0.69868-0.25507 0.55352-0.75158 0.97103-1.3061 1.224s-1.1662 0.35482-1.7737 0.40364c-0.44012 0.0354-0.88243 0.0443-1.3211 0.0949s-0.8775 0.14472-1.2732 0.34066c-0.70406 0.34865-1.2152 0.98831-1.6602 1.6358-0.44497 0.64751-0.85704 1.3335-1.4498 1.8492-0.4054 0.35269-0.89306 0.6238-1.208 1.0592-0.15745 0.2177-0.26685 0.47714-0.27097 0.74578-0.0021 0.13432 0.02245 0.26955 0.07651 0.39253s0.13806 0.23339 0.24546 0.31408c0.19389 0.14568 0.45468 0.18571 0.6926 0.13864 0.23791-0.0471 0.45429-0.17445 0.63736-0.33352 0.32213-0.2799 0.54732-0.65432 0.73488-1.0376 0.18756-0.38332 0.34336-0.78273 0.556-1.1527 0.48082-0.83662 1.2337-1.4882 2.0494-2.0038 0.57593-0.36407 1.1887-0.66808 1.8199-0.9248 1.2074-0.49111 2.4814-0.80984 3.6726-1.3389 1.1421-0.50729 2.2263-1.213 3.462-1.3995 0.69068-0.10424 1.3982-0.0391 2.0816 0.10537 0.16875 0.0357 0.3368 0.0762 0.50792 0.0978 0.17112 0.0216 0.34662 0.024 0.51433-0.0163s0.32776-0.12573 0.43816-0.25825c0.0552-0.0663 0.09741-0.14368 0.12039-0.2268 0.02298-0.0831 0.02648-0.17191 0.0073-0.25598-0.02015-0.0881-0.06496-0.1699-0.12514-0.23735-0.06018-0.0674-0.13542-0.12077-0.21716-0.15934-0.1635-0.0772-0.34949-0.0948-0.53-0.0849-0.18051 0.01-0.35841 0.046-0.53739 0.0714-0.17898 0.0255-0.36207 0.0402-0.53988 8e-3 -0.2758-0.0507-0.51701-0.2104-0.75487-0.35893-0.23786-0.14853-0.49292-0.29311-0.77298-0.30726-0.28989-0.0147-0.56554 0.11195-0.83323 0.22417-0.13385 0.0561-0.26963 0.10948-0.4113 0.141-0.14167 0.0315-0.29029 0.0406-0.4317 8e-3 -0.14397-0.0333-0.27909-0.11147-0.37075-0.22736-0.07213-0.0912-0.11599-0.20382-0.1282-0.31945-0.01222-0.11563 0.0068-0.23396 0.05123-0.34142 0.08885-0.2149 0.27731-0.38041 0.4929-0.46758 0.21559-0.0872 0.45608-0.10074 0.68623-0.0675 0.23015 0.0333 0.45153 0.11164 0.66528 0.20324 0.4275 0.18319 0.8417 0.42411 1.303 0.48313 0.23067 0.0295 0.47113 0.0106 0.68426-0.0824s0.3964-0.26498 0.47696-0.48313c0.07858-0.21277 0.05464-0.45551-0.03856-0.6623-0.0932-0.20678-0.25115-0.37966-0.43212-0.51639-0.28834-0.21785-0.63852-0.34953-0.99752-0.39101-0.359-0.0415-0.72622 6e-3 -1.0684 0.12218-0.41093 0.13977-0.78981 0.37807-1.2166 0.45685-0.21342 0.0394-0.43865 0.0364-0.64191-0.0396-0.10163-0.038-0.19687-0.0942-0.27662-0.16774-0.07975-0.0736-0.14376-0.16482-0.18202-0.26636-0.05661-0.15023-0.0548-0.3201-0.0035-0.47223 0.05129-0.15213 0.15049-0.28638 0.27523-0.38744s0.2743-0.16959 0.43035-0.20729c0.15605-0.0377 0.31855-0.0452 0.4785-0.0314 0.3199 0.0276 0.62617 0.1383 0.92558 0.25428 0.2994 0.11597 0.5992 0.23904 0.91566 0.2933 0.59064 0.10127 1.1974-0.0433 1.7945 8e-3 0.90419 0.0775 1.7114 0.59333 2.5972 0.79075 0.44288 0.0987 0.9165 0.11429 1.3415-0.0445 0.21252-0.0794 0.41006-0.20226 0.56698-0.36612s0.27215-0.36939 0.31878-0.59142c0.04615-0.21973 0.02406-0.45271-0.05868-0.66143-0.08274-0.20873-0.22535-0.39273-0.40432-0.52831-0.17373-0.13161-0.37968-0.21732-0.59248-0.26446-0.2128-0.0471-0.43264-0.0566-0.6503-0.0451-0.4353 0.023-0.86183 0.12876-1.2948 0.17911-0.86371 0.10044-1.736-0.0207-2.6055-0.0342-1.2736-0.0198-2.5376 0.19157-3.8006 0.35659-0.61578 0.0804-1.2333 0.15004-1.8533 0.18601-0.36185 0.021-0.72519 0.0306-1.0837 0.0841-0.35848 0.0535-0.71506 0.15303-1.0249 0.34119-0.12273 0.0745-0.23801 0.16322-0.33183 0.27193-0.09383 0.1087-0.16573 0.23826-0.19569 0.37869-0.03729 0.17479-0.0087 0.35602 0.01751 0.5328 0.02625 0.17678 0.04979 0.35964 0.0031 0.53215-0.03934 0.14534-0.12758 0.275-0.2397 0.3755s-0.24739 0.17293-0.38906 0.22395c-0.28332 0.10203-0.58865 0.11977-0.88654 0.16391-1.5577 0.23082-2.958 1.2305-3.789 2.5682-0.30347 0.48849-0.54828 1.0337-0.99049 1.4014-0.22111 0.18382-0.49156 0.31697-0.77822 0.33938-0.14333 0.0112-0.28933-6e-3 -0.4247-0.054-0.13537-0.0484-0.25983-0.12887-0.3557-0.236-0.16604-0.18554-0.23826-0.44419-0.22216-0.69265 0.0161-0.24846 0.11494-0.48674 0.25448-0.69294 0.24811-0.36663 0.61815-0.63421 1.0057-0.84826 0.3875-0.21406 0.79907-0.3821 1.1862-0.59688 0.92022-0.51058 1.6958-1.2958 2.1417-2.249 0.12726-0.27203 0.22906-0.56372 0.22748-0.86404-7.91e-4 -0.15016-0.028-0.30102-0.08811-0.43863s-0.15384-0.2616-0.27527-0.34994c-0.14181-0.10316-0.31788-0.15485-0.49321-0.15818-0.17533-3e-3 -0.3498 0.0402-0.50928 0.11308-0.31896 0.14584-0.57255 0.40228-0.80716 0.66298-0.96152 1.0685-1.7426 2.3094-2.8445 3.2325-0.75363 0.63132-1.6318 1.0918-2.4758 1.596-0.844 0.50418-1.6757 1.071-2.2689 1.8549-0.5413 0.71524-0.85478 1.5715-1.2322 2.3852-0.13032 0.28098-0.27105 0.56514-0.30489 0.87301-0.01692 0.15394-0.0059 0.31243 0.04583 0.45838 0.05177 0.14595 0.14598 0.27879 0.27488 0.36463 0.08684 0.0578 0.18714 0.0935 0.27257 0.1534 0.13549 0.095 0.2249 0.24696 0.26392 0.40778 0.03902 0.16082 0.0308 0.33021-0.0013 0.49256-0.06413 0.3247-0.22078 0.62545-0.28545 0.95004-0.08209 0.41208-0.0097 0.84656 0.16287 1.2297 0.17256 0.3831 0.44126 0.71743 0.74954 1.0029 0.41698 0.38618 0.90736 0.68811 1.3135 1.0856 0.23554 0.23054 0.44124 0.49236 0.60226 0.77994 0.40654 0.72607 0.51267 1.5857 0.48304 2.4173-0.02381 0.66846-0.12985 1.3353-0.09345 2.0032 0.0182 0.33395 0.07262 0.66784 0.1878 0.98183 0.11518 0.31398 0.29287 0.60807 0.53666 0.83702 0.20007 0.18788 0.44801 0.33156 0.7187 0.37689 0.13534 0.0227 0.27526 0.0204 0.40884-0.011s0.26065-0.0924 0.36588-0.18049c0.1106-0.0926 0.19575-0.21387 0.25252-0.34646 0.05677-0.13258 0.08568-0.27625 0.09255-0.42031 0.01374-0.28813-0.05928-0.57353-0.15244-0.84653-0.20535-0.60174-0.51261-1.1744-0.61434-1.802z"/>
    <path d="m120.35 145.25c0.10431-0.65072-0.0169-1.3216 0.0849-1.9727 0.12956-0.829 0.61525-1.5685 1.216-2.1542 0.38228-0.3727 0.81305-0.69298 1.1947-1.0663 0.38168-0.37332 0.72033-0.8141 0.85579-1.3305 0.11216-0.42762 0.078-0.88151-0.0124-1.3142s-0.23562-0.85194-0.34658-1.2799c-0.20041-0.77287-0.28983-1.5761-0.56405-2.326-0.0765-0.20928-0.16769-0.41436-0.28958-0.60091-0.12188-0.18654-0.27559-0.35461-0.46238-0.47612s-0.40795-0.19476-0.63071-0.18904c-0.22276 6e-3 -0.44585 0.0943-0.59864 0.25646-0.10619 0.11273-0.17593 0.25696-0.21163 0.40766s-0.0384 0.30789-0.0216 0.46184c0.0336 0.30792 0.14325 0.6016 0.21859 0.90204 0.15743 0.62783 0.16439 1.2834 0.2794 1.9203 0.1637 0.90665 0.54698 1.7864 0.51074 2.7069-0.0242 0.61596-0.25212 1.236-0.69231 1.6675-0.2201 0.21577-0.49044 0.38172-0.78567 0.47027-0.29522 0.0886-0.61507 0.0984-0.91266 0.0182-0.16835-0.0454-0.33007-0.11981-0.46672-0.2281s-0.24754-0.25138-0.30704-0.41527c-0.0567-0.15623-0.0656-0.32801-0.0358-0.49153 0.0298-0.16351 0.0973-0.31893 0.18751-0.45854 0.18038-0.27921 0.44604-0.49169 0.7174-0.68367 0.27136-0.19199 0.55524-0.37036 0.7928-0.60286 0.23757-0.23251 0.42924-0.53016 0.4614-0.86101 0.0313-0.32164-0.0904-0.64001-0.25221-0.91974-0.16182-0.27972-0.36504-0.5342-0.52099-0.81724-0.27666-0.50214-0.39551-1.077-0.65154-1.59-0.3031-0.60728-0.79015-1.1081-1.3363-1.5111-0.81431-0.60087-1.7583-0.99635-2.6416-1.4901-0.90995-0.50865-1.779-1.1447-2.3498-2.017-0.18616-0.28447-0.33797-0.5901-0.52035-0.87701s-0.40057-0.55951-0.68688-0.74283c-0.14316-0.0917-0.30238-0.15975-0.4695-0.19084-0.16711-0.0311-0.34224-0.0244-0.50392 0.028-0.16168 0.0525-0.30924 0.15172-0.41174 0.28732-0.1025 0.13561-0.15809 0.30778-0.14543 0.47729 0.0148 0.19753 0.1198 0.38062 0.2607 0.51984 0.1409 0.13923 0.31593 0.23889 0.49499 0.3236 0.28633 0.13547 0.59263 0.23939 0.84284 0.43364 0.12511 0.0971 0.23478 0.21705 0.30516 0.35893 0.0704 0.14188 0.0995 0.3068 0.0654 0.46147-0.0217 0.0986-0.0686 0.19119-0.13329 0.26868-0.0647 0.0775-0.14691 0.1399-0.23788 0.18363-0.18194 0.0875-0.39588 0.0982-0.59136 0.0478s-0.37302-0.15908-0.52108-0.2963c-0.14807-0.13722-0.26798-0.30243-0.37067-0.47623-0.17929-0.30345-0.31147-0.63963-0.54651-0.90227-0.11753-0.13132-0.26122-0.24252-0.42675-0.30301-0.16552-0.0605-0.35408-0.067-0.51629 2e-3 -0.12371 0.0525-0.22789 0.14699-0.29911 0.26097-0.0712 0.11397-0.11018 0.24675-0.11994 0.38079-0.0195 0.26809 0.0756 0.53335 0.21021 0.766 0.34646 0.59877 0.94957 1.0168 1.5968 1.2611 0.64719 0.24434 1.342 0.33106 2.0307 0.39589 0.73175 0.0689 1.4898 0.12192 2.1395 0.46553 0.65205 0.34484 1.1255 0.94688 1.543 1.555 0.41748 0.60811 0.80767 1.2495 1.3634 1.7344 0.40635 0.35457 0.89841 0.62309 1.216 1.059 0.15879 0.21793 0.26899 0.47852 0.27189 0.74815 1e-3 0.13481-0.0242 0.27044-0.0798 0.39324s-0.14172 0.23243-0.25109 0.31126c-0.10251 0.0739-0.22412 0.11986-0.34918 0.13789-0.12507 0.018-0.25347 9e-3 -0.37605-0.0221-0.24515-0.0614-0.46299-0.20537-0.6489-0.37655-0.3327-0.30634-0.57281-0.69942-0.7802-1.1013-0.20738-0.4019-0.387-0.8189-0.62221-1.2052-0.48475-0.79606-1.1991-1.4424-2.0144-1.8939-0.71445-0.39561-1.4991-0.64366-2.2546-0.95371-2.1448-0.88016-4.1228-2.284-6.4193-2.6015-0.66832-0.0924-1.3463-0.089-2.0172-0.16014-2.0746-0.21992-4.0114-1.1412-6.0627-1.5216-0.23261-0.0431-0.47122-0.0808-0.6803-0.1915-0.10454-0.0553-0.20051-0.12905-0.27298-0.22254-0.07246-0.0935-0.12056-0.2075-0.12681-0.32562-0.0063-0.11845 0.03003-0.23783 0.09647-0.33609 0.06644-0.0983 0.16212-0.17553 0.26982-0.22523 0.21541-0.0994 0.47054-0.0863 0.6938-6e-3 0.22326 0.0802 0.41901 0.22223 0.59927 0.37646 0.18025 0.15423 0.3486 0.32256 0.53654 0.46732 0.72169 0.55587 1.6684 0.71931 2.5778 0.77317 0.90936 0.0539 1.8344 0.0175 2.7163 0.24589 0.20639 0.0534 0.40948 0.12122 0.61942 0.15834 0.20993 0.0371 0.43068 0.0423 0.63193-0.0281 0.18699-0.0654 0.34547-0.19112 0.50564-0.30765 0.16018-0.11653 0.33259-0.22862 0.5283-0.25919 0.11522-0.018 0.23345-7e-3 0.3473 0.0186 0.11384 0.0253 0.22413 0.0642 0.3345 0.1018s0.22161 0.0742 0.33642 0.0947c0.11481 0.0204 0.23401 0.0243 0.3473-3e-3 0.10479-0.0256 0.20267-0.078 0.28331-0.14968 0.0806-0.0716 0.14403-0.16223 0.18556-0.26179 0.083-0.19911 0.0756-0.43113-6e-3 -0.63066-0.082-0.19953-0.23524-0.3664-0.41954-0.47855-0.18429-0.11214-0.3984-0.17108-0.6137-0.1848-0.43059-0.0274-0.85356 0.12104-1.2423 0.30835-0.38869 0.18732-0.7586 0.41594-1.1628 0.56687-0.3487 0.13021-0.73593 0.19995-1.0931 0.0952-0.17859-0.0524-0.34587-0.14885-0.47098-0.28663s-0.20607-0.31782-0.21304-0.5038c-5e-3 -0.14017 0.0311-0.28059 0.0966-0.40463 0.0655-0.12405 0.15938-0.23202 0.26803-0.32072 0.21731-0.17741 0.48819-0.27602 0.75988-0.34586 0.72784-0.1871 1.5154-0.18475 2.2172 0.0838 0.30422 0.11639 0.59166 0.28148 0.909 0.35491 0.15867 0.0367 0.32459 0.0496 0.48473 0.02 0.16015-0.0296 0.31444-0.10375 0.4255-0.22287 0.12693-0.13614 0.19075-0.32616 0.18337-0.51214-7e-3 -0.18599-0.0834-0.36663-0.20222-0.5099-0.11882-0.14326-0.27889-0.24988-0.4529-0.31595-0.17402-0.0661-0.36167-0.0925-0.54778-0.0897-0.37222 6e-3 -0.73248 0.12601-1.0809 0.25718-0.34839 0.13118-0.69585 0.2756-1.0636 0.33334-0.65457 0.10277-1.3206-0.076-1.9828-0.0543-0.80682 0.0265-1.5736 0.34794-2.3713 0.47155-0.39887 0.0618-0.81118 0.0732-1.2023-0.0264-0.39115-0.0996-0.76091-0.31801-0.99197-0.64896-0.17522-0.25098-0.26396-0.55559-0.28665-0.86084-0.02269-0.30524 0.01798-0.61223 0.084-0.91111 0.07777-0.35205 0.19191-0.69868 0.37113-1.0115 0.17921-0.31285 0.42613-0.59157 0.73498-0.7776 0.31096-0.1873 0.69384-0.27524 1.0442-0.18019 0.17517 0.0475 0.33896 0.14037 0.46382 0.27211 0.12486 0.13173 0.2095 0.30273 0.23043 0.48303 0.018 0.15478-0.0104 0.31195-0.0589 0.46005s-0.11659 0.28882-0.18082 0.43079c-0.06423 0.14197-0.12506 0.28672-0.15763 0.4391-0.03257 0.15237-0.0357 0.31402 0.01429 0.4616 0.03656 0.10793 0.10089 0.20581 0.18265 0.28518 0.08176 0.0794 0.18066 0.1404 0.28683 0.18177 0.21235 0.0828 0.44987 0.086 0.67311 0.0401 0.44649-0.0917 0.82987-0.36567 1.2393-0.56604 0.69694-0.34111 1.5008-0.47142 2.2646-0.33507 0.47955 0.0856 0.9343 0.27166 1.3885 0.44773 0.4542 0.17606 0.91798 0.34476 1.4027 0.39285 0.8118 0.0805 1.6203-0.18183 2.436-0.17946 0.39591 1e-3 0.80349 0.0697 1.1371 0.28293 0.1668 0.1066 0.31235 0.24876 0.41272 0.41939 0.10037 0.17062 0.15424 0.37017 0.14163 0.56773-0.0102 0.15994-0.0626 0.31363-0.10489 0.46821-0.0423 0.15458-0.075 0.31693-0.0451 0.47437 0.0292 0.15336 0.11746 0.29214 0.23396 0.39605s0.25998 0.17453 0.40943 0.21961c0.29892 0.0902 0.61717 0.0807 0.9284 0.10544 0.81898 0.0652 1.6109 0.37581 2.2832 0.84806 0.67228 0.47225 1.227 1.1024 1.6506 1.8063 0.29666 0.49283 0.54331 1.0375 0.98736 1.4032 0.22202 0.18283 0.49314 0.31452 0.77993 0.33627 0.1434 0.0109 0.28937-6e-3 0.42486-0.0542s0.26024-0.12808 0.35697-0.23449c0.097-0.10666 0.16466-0.23871 0.20043-0.37834 0.0358-0.13963 0.04-0.28662 0.0183-0.42911-0.0435-0.28498-0.18914-0.54686-0.37518-0.76706-0.27482-0.32528-0.63573-0.56711-1.0112-0.76801s-0.76959-0.36496-1.147-0.5621c-0.45364-0.23693-0.88503-0.52362-1.2474-0.88506-0.36234-0.36145-0.65431-0.80062-0.80379-1.2901-0.0894-0.29287-0.12678-0.6085-0.0543-0.90603 0.0362-0.14876 0.0999-0.29148 0.19209-0.41375 0.0922-0.12226 0.21321-0.22363 0.35271-0.28674 0.17987-0.0814 0.38602-0.0968 0.5799-0.0597 0.19389 0.0372 0.3759 0.12509 0.53626 0.24023 0.32072 0.23028 0.55163 0.56147 0.7823 0.88191 0.72958 1.0135 1.5254 1.9897 2.4782 2.7969 1.501 1.2717 3.36 2.0981 4.7414 3.4987 0.30702 0.31129 0.58932 0.65099 0.80053 1.0338s0.34965 0.81135 0.35802 1.2485c0.011 0.57338-0.19947 1.1348-0.18047 1.708 9e-3 0.27344 0.0702 0.54211 0.1073 0.81318 0.0731 0.5346 0.0515 1.084-0.0843 1.6062-0.13582 0.5222-0.38737 1.0164-0.74588 1.4197-0.42953 0.48314-0.99651 0.82302-1.4588 1.2749-0.2919 0.28536-0.54084 0.61506-0.73156 0.97598-0.41083 0.77746-0.54112 1.6802-0.4971 2.5585 0.0333 0.66462 0.1622 1.3258 0.1303 1.9905-0.016 0.33234-0.073 0.66519-0.19835 0.97339-0.12535 0.30821-0.32152 0.5915-0.58574 0.79373-0.23805 0.1822-0.53413 0.29593-0.83378 0.28761-0.14983-4e-3 -0.29918-0.0387-0.43382-0.10457-0.13464-0.0659-0.25426-0.16328-0.34267-0.28431-0.14841-0.20317-0.20281-0.46389-0.19172-0.71525 0.0111-0.25137 0.0832-0.49605 0.16804-0.73291 0.20913-0.58373 0.50082-1.1449 0.59896-1.7572z"/>
   </g>
   <path d="m120.97 160.57c0.48632-1.2354 0.81331-2.5334 0.97031-3.8518 0.0942-0.7911 0.12744-1.5885 0.21986-2.3798 0.0852-0.72973 0.22008-1.4753 0.055-2.1912-0.0825-0.35796-0.24285-0.70313-0.4955-0.96979-0.25264-0.26667-0.60237-0.44939-0.96942-0.46417-0.40345-0.0163-0.80717 0.17787-1.0558 0.49603-0.14389 0.18414-0.23733 0.40546-0.28151 0.63493-0.0442 0.22947-0.04 0.46696-3.5e-4 0.69727 0.0793 0.46061 0.29643 0.88601 0.54226 1.2835 0.24584 0.3975 0.52344 0.77602 0.74224 1.189s0.3789 0.87029 0.36503 1.3375c-0.0149 0.50318-0.23087 0.98193-0.51295 1.3989-0.28207 0.41694-0.63068 0.78377-0.95184 1.1714-0.89356 1.0785-1.5743 2.3189-2.1433 3.5987-0.53156 1.1956-1.0013 2.4782-1.9674 3.3608-0.42336 0.38676-0.94185 0.68499-1.5079 0.77685-0.57698 0.0936-1.1643-0.0292-1.7483-0.0549-0.49783-0.0219-1.0136 0.0318-1.452 0.26871-0.2192 0.11845-0.41567 0.28227-0.5593 0.48586-0.14364 0.20359-0.23288 0.44769-0.23936 0.69676-7e-3 0.2786 0.0883 0.553 0.23367 0.79077 0.14538 0.23778 0.33898 0.44232 0.54163 0.63364 0.35505 0.33521 0.7501 0.64013 1.2064 0.81397 0.45629 0.17384 0.98228 0.20527 1.4269 3e-3 0.3139-0.14253 0.56844-0.39004 0.78792-0.65589s0.41076-0.55456 0.63895-0.81298c0.46686-0.52872 1.0736-0.9149 1.5697-1.4163 0.67361-0.68089 1.1235-1.5535 1.7718-2.2585 0.4051-0.44057 0.8951-0.82678 1.1458-1.3702 0.0968-0.20985 0.15466-0.4375 0.26894-0.63838 0.0571-0.10044 0.12878-0.19394 0.21943-0.2656 0.0906-0.0717 0.20133-0.12062 0.3167-0.12711 0.13758-8e-3 0.27582 0.0465 0.37776 0.13923 0.10194 0.0927 0.16814 0.22173 0.19328 0.35721 0.0251 0.13548 0.0105 0.27691-0.033 0.40768-0.0435 0.13076-0.11499 0.25118-0.20166 0.3583-0.17334 0.21425-0.40355 0.37373-0.62998 0.53082-0.22642 0.1571-0.45586 0.31808-0.62668 0.53435-0.23707 0.30015-0.34164 0.68059-0.44823 1.0479-0.10658 0.36733-0.2282 0.746-0.48877 1.026-0.1812 0.1947-0.41736 0.32785-0.65036 0.4561-0.23301 0.12826-0.47065 0.25752-0.65753 0.44678-0.20368 0.20627-0.3356 0.47278-0.4364 0.74458-0.10079 0.27179-0.17389 0.55342-0.27964 0.82333-0.29253 0.74661-0.85911 1.404-1.6022 1.7052-0.69363 0.2812-1.4711 0.23789-2.2168 0.1738-0.61061-0.0525-1.2216-0.11594-1.8344-0.11225-0.40144 2e-3 -0.81723 0.0378-1.1688 0.2316-0.17579 0.0969-0.33196 0.23339-0.43735 0.40423-0.10538 0.17083-0.15765 0.37696-0.12992 0.57576 0.0252 0.18076 0.11442 0.34814 0.23039 0.48907 0.20725 0.25186 0.49964 0.42551 0.81104 0.52256 0.3114 0.097 0.64183 0.12096 0.96772 0.10743 0.76422-0.0317 1.5035-0.26374 2.2429-0.45973 0.82854-0.21964 1.6759-0.39854 2.4504-0.76576 0.38726-0.1836 0.75453-0.41447 1.0679-0.70679 0.31341-0.29233 0.5721-0.64777 0.72637-1.0476 0.22204-0.57549 0.22504-1.2275 0.5139-1.7725 0.14443-0.27252 0.36693-0.51455 0.6546-0.62577 0.14384-0.0556 0.30183-0.077 0.45426-0.0537 0.15243 0.0234 0.29873 0.0925 0.40812 0.20118 0.0905 0.0899 0.15435 0.20504 0.18963 0.32761 0.0353 0.12257 0.0425 0.25239 0.0282 0.37914-0.0286 0.25349-0.141 0.49028-0.2742 0.70784-0.34287 0.56002-0.82673 1.0192-1.2116 1.5512-0.46794 0.64693-0.7872 1.3984-1.3086 2.003-0.77812 0.90229-1.9528 1.3977-3.136 1.5378-1.1832 0.14006-2.3821-0.0461-3.5405-0.32491-0.49755-0.11974-0.99632-0.25874-1.4447-0.50547-0.5208-0.2866-0.95651-0.71038-1.318-1.1823-0.30824-0.40236-0.56711-0.84251-0.89907-1.2256-0.33195-0.38303-0.75598-0.71451-1.2542-0.80762-0.30345-0.0567-0.6195-0.0214-0.91428 0.0702-0.29477 0.0917-0.5699 0.23824-0.8299 0.40466-0.47879 0.30646-0.92832 0.70523-1.1335 1.2354-0.10261 0.26507-0.13929 0.55863-0.0823 0.8371 0.057 0.27847 0.2112 0.53992 0.44121 0.70691 0.2311 0.16778 0.52183 0.23261 0.80657 0.25451 0.28475 0.0219 0.5715 5e-3 0.8561 0.0287 0.66635 0.0556 1.2989 0.33354 1.8558 0.70362 0.47336 0.31456 0.89917 0.69567 1.3666 1.0189 0.67787 0.46876 1.4463 0.81407 2.2564 0.96555 0.81012 0.15147 1.6622 0.10495 2.437-0.17604 0.85395-0.30971 1.591-0.88986 2.4498-1.1859 0.82761-0.28529 1.7343-0.29468 2.55-0.61257 0.9831-0.38315 1.7456-1.1795 2.3869-2.0174 1.3108-1.7128 2.2805-3.7192 3.908-5.1345 0.39681-0.34506 0.84058-0.66497 1.0856-1.1303 0.12249-0.23265 0.18945-0.49991 0.15569-0.76066-0.0169-0.13038-0.0589-0.25791-0.12677-0.3705-0.0679-0.11259-0.16187-0.20993-0.27441-0.27788-0.17749-0.10715-0.39564-0.13713-0.60026-0.10374-0.20462 0.0334-0.39628 0.12691-0.56335 0.24967-0.33416 0.24551-0.56873 0.59912-0.83335 0.91836-0.19861 0.2396-0.41685 0.46246-0.61357 0.70362s-0.37344 0.50407-0.47402 0.79858c-0.0642 0.18805-0.0965 0.38639-0.16957 0.57119-0.0365 0.0924-0.0834 0.18141-0.1466 0.25812-0.0631 0.0767-0.14315 0.14087-0.23552 0.17747-0.11182 0.0443-0.23896 0.0462-0.35375 0.0103-0.11478-0.0359-0.21694-0.10864-0.29271-0.20205-0.0758-0.0934-0.12547-0.2069-0.14814-0.32502-0.0227-0.11812-0.0187-0.24071 6e-3 -0.3584 0.0496-0.23537 0.18071-0.44703 0.3393-0.6279 0.15859-0.18086 0.34507-0.33467 0.52652-0.49259 0.44572-0.38794 0.86617-0.8059 1.2438-1.2604 1.4827-1.7841 2.2424-4.0387 3.1654-6.167 0.46785-1.0789 0.9848-2.138 1.3842-3.244s0.68086-2.2702 0.65553-3.4459c-0.0152-0.70585-0.14053-1.4141-0.0496-2.1142 0.0816-0.62885 0.33397-1.2208 0.57795-1.8061 0.24397-0.58532 0.48486-1.1839 0.54148-1.8155 0.0283-0.3158 9e-3 -0.63773-0.0777-0.94265-0.0869-0.30493-0.24334-0.59254-0.468-0.81627s-0.51914-0.38101-0.8335-0.42232c-0.31436-0.0413-0.64679 0.0381-0.89632 0.23373-0.1446 0.11336-0.25892 0.26188-0.34898 0.42203-0.0901 0.16015-0.15684 0.33226-0.21744 0.50571-0.56244 1.6099-0.60781 3.3562-0.47874 5.0566 0.12906 1.7004 0.42607 3.3856 0.52744 5.0879 0.0101 0.17015 0.0183 0.34111 3e-3 0.51084-0.0157 0.16972-0.0562 0.33916-0.13834 0.48855-0.0821 0.14938-0.20818 0.27786-0.36515 0.3443-0.0785 0.0332-0.16393 0.0506-0.24912 0.048-0.0852-3e-3 -0.17001-0.0254-0.24374-0.0681-0.0772-0.0448-0.14114-0.11065-0.18878-0.18609-0.0476-0.0754-0.0794-0.16027-0.0989-0.24732-0.0656-0.29178 5e-3 -0.59867 0.12069-0.87448 0.11563-0.2758 0.27522-0.53104 0.39939-0.80311 0.12416-0.27207 0.21346-0.57131 0.17534-0.86794-0.0191-0.14831-0.0707-0.2936-0.15829-0.41478-0.0876-0.12119-0.21213-0.21724-0.35498-0.26143-0.18081-0.0559-0.38254-0.0256-0.54936 0.0639-0.16682 0.0894-0.30005 0.23418-0.39423 0.39835-0.18837 0.32835-0.22274 0.71931-0.26331 1.0957-0.0905 0.83971-0.23373 1.6788-0.51738 2.4743-0.28365 0.79552-0.71342 1.5492-1.3212 2.1356-0.13887 0.134-0.28653 0.25888-0.44172 0.37358z" stroke-opacity=".93333" stroke-width=".4"/>
   <path d="m82.491 168.86c1.6213 0.70101 3.3657 1.116 5.1289 1.2203 0.74898 0.0443 1.5008 0.033 2.2488 0.0913s1.5001 0.1893 2.1819 0.50261c0.43045 0.19782 0.82487 0.46451 1.2308 0.70874 0.40592 0.24422 0.83162 0.46934 1.2942 0.57157 0.46256 0.10223 0.97029 0.0707 1.3762-0.17353 0.20297-0.12211 0.37634-0.296 0.4871-0.50537 0.11075-0.20938 0.15696-0.45438 0.11808-0.68803-0.03759-0.22597-0.15233-0.4344-0.30242-0.60745s-0.33468-0.31304-0.52721-0.43717c-0.66822-0.43082-1.4412-0.68058-2.2256-0.8103s-1.5833-0.14327-2.3783-0.13036c-1.5899 0.0258-3.2202 0.1511-4.7348-0.33311-1.2057-0.38544-2.2556-1.1324-3.3409-1.7837-0.8879-0.53289-1.8109-1.0073-2.6809-1.5689-0.87-0.56163-1.6942-1.2193-2.3093-2.0524-0.3994-0.54096-0.7097-1.1649-0.78517-1.8331-0.07821-0.69236 0.09752-1.3845 0.1806-2.0763 0.07197-0.5993 0.06794-1.2352-0.21066-1.7707-0.1393-0.26774-0.34746-0.5033-0.61006-0.65207-0.26259-0.14876-0.58086-0.20601-0.87371-0.13306-0.17408 0.0434-0.33576 0.13092-0.47425 0.24496-0.13849 0.11404-0.25431 0.25414-0.34963 0.40612-0.19065 0.30396-0.2987 0.65132-0.39979 0.99559-0.22411 0.76325-0.42562 1.5627-0.29189 2.3468 0.1035 0.60689 0.40406 1.1661 0.77871 1.6547 0.37465 0.48853 0.82355 0.9142 1.2658 1.3426 0.72059 0.69801 1.4292 1.4095 2.0933 2.1614 0.41661 0.47166 0.81728 0.96078 1.288 1.3784 0.1123 0.0996 0.22916 0.19581 0.32297 0.31302 0.09382 0.11721 0.16422 0.2596 0.16618 0.40972 0.0017 0.13216-0.0512 0.26298-0.13908 0.3617-0.08789 0.0987-0.20918 0.16565-0.33815 0.19459-0.12897 0.0289-0.2651 0.0208-0.39198-0.0163-0.12688-0.0371-0.24464-0.10237-0.34815-0.18456-0.20702-0.16439-0.35447-0.39201-0.47632-0.6266-0.12184-0.23459-0.22202-0.4805-0.35556-0.70863-0.38505-0.65775-1.0191-1.1249-1.6359-1.5726-0.59209-0.42974-1.1847-0.85922-1.7564-1.3158-0.40722-0.32523-0.8055-0.66595-1.1434-1.0628-0.33786-0.3968-0.61502-0.85363-0.7511-1.3567-0.21323-0.78831-0.06876-1.6223 0.0315-2.4328 0.0864-0.69841 0.13898-1.4015 0.1407-2.1052 8.81e-4 -0.36026-0.01444-0.73297-0.17092-1.0575-0.07824-0.16226-0.19207-0.3094-0.33948-0.41293-0.14741-0.10354-0.32952-0.16132-0.50899-0.14588-0.1609 0.0138-0.31359 0.0854-0.43953 0.18644-0.12594 0.10108-0.22662 0.23071-0.3102 0.36889-0.26536 0.43871-0.36179 0.96156-0.37246 1.4742-0.01067 0.5126 0.05922 1.0229 0.10284 1.5338 0.07912 0.92661 0.07293 1.8668 0.28785 2.7716 0.10746 0.4524 0.27103 0.89445 0.51716 1.289 0.24613 0.39451 0.5774 0.74073 0.98062 0.97231 0.33703 0.19357 0.71447 0.30302 1.0863 0.41616 0.37183 0.11313 0.74724 0.23405 1.0726 0.4467 0.16266 0.10633 0.31158 0.2354 0.43057 0.38904s0.20749 0.33243 0.24585 0.52294c0.03835 0.1905 0.02521 0.39277-0.04849 0.57258s-0.20947 0.33556-0.38301 0.423c-0.12959 0.0653-0.27705 0.0917-0.42204 0.0858-0.14499-6e-3 -0.28765-0.0435-0.42123-0.10019-0.26716-0.11337-0.49539-0.30009-0.72116-0.48246-1.0152-0.82004-2.0688-1.6084-2.9275-2.5912-1.0006-1.1452-1.721-2.5682-1.8681-4.0818-0.07357-0.7568-3e-3 -1.5297 0.22946-2.2537 0.23242-0.72398 0.62823-1.3978 1.1645-1.9368 0.47756-0.48003 1.0648-0.85522 1.4653-1.4012 0.43104-0.58774 0.60831-1.3272 0.65936-2.0543 0.07179-1.0224-0.10025-2.0888-0.65746-2.949-0.46164-0.71267-1.1525-1.2392-1.8124-1.7736-0.6599-0.53436-1.3205-1.1143-1.6836-1.8819-0.22106-0.46734-0.32694-0.9952-0.63699-1.4089-0.15503-0.20685-0.36364-0.38098-0.61082-0.45661-0.12359-0.0378-0.25549-0.0503-0.38327-0.0309s-0.25119 0.0713-0.35111 0.15329c-0.15704 0.12886-0.2489 0.32782-0.26655 0.53019-0.01765 0.20238 0.03482 0.40714 0.12836 0.58747 0.18707 0.36067 0.52292 0.61632 0.84516 0.86377 0.86525 0.66444 1.7185 1.3685 2.3586 2.2519 0.64013 0.8834 1.0545 1.9738 0.9392 3.0587-0.07691 0.72356-0.38142 1.403-0.72642 2.0436-0.537 0.99717-1.1874 1.9484-1.519 3.0313-0.36775 1.201-0.31805 2.5009-0.03525 3.7246 0.22808 0.98698 0.60248 1.9337 0.87773 2.9086 0.21117 0.74792 0.36565 1.5172 0.68546 2.2256 0.53774 1.191 1.5021 2.1261 2.2741 3.1804 0.6732 0.9193 1.2099 1.9439 1.9888 2.7756 0.38942 0.41586 0.84026 0.78123 1.3556 1.0241 0.51538 0.24283 1.0987 0.35852 1.6621 0.27376 0.29534-0.0444 0.59098-0.1484 0.80851-0.35305 0.20457-0.19246 0.32679-0.46607 0.34916-0.74605 0.02237-0.27998-0.05233-0.56446-0.1959-0.80586-0.14358-0.2414-0.35401-0.44026-0.59524-0.58414-0.24122-0.14388-0.51259-0.23387-0.78982-0.27897-0.41811-0.068-0.8553-0.037-1.2555-0.17596-0.20009-0.0695-0.38905-0.18374-0.51931-0.35076-0.06513-0.0835-0.11483-0.17952-0.14137-0.28205-0.02654-0.10252-0.02956-0.21155-0.0047-0.31449 0.025-0.10344 0.07793-0.19957 0.14956-0.27827 0.07163-0.0787 0.16166-0.14005 0.25986-0.18104 0.1964-0.082 0.42161-0.0809 0.62587-0.0211 0.20426 0.0598 0.38894 0.17525 0.55075 0.31351 0.16181 0.13825 0.30237 0.29937 0.43939 0.46223 0.45249 0.53785 0.87417 1.1027 1.3592 1.6114 1.4842 1.5566 3.474 2.5056 5.3393 3.5764 1.0102 0.57996 1.9967 1.2049 3.0456 1.7116 1.0489 0.50675 2.1722 0.89591 3.3348 0.96831 0.93072 0.058 1.8644-0.0879 2.7958-0.0422 1.5267 0.0749 2.9881 0.66003 4.5106 0.79581 0.76125 0.0679 1.5451 0.0193 2.2586-0.25456 0.71354-0.27382 1.3524-0.79029 1.6724-1.4843 0.0812-0.17613 0.14186-0.3633 0.16132-0.55628 0.032-0.31685-0.0503-0.64128-0.21416-0.91433-0.16387-0.27306-0.40679-0.49531-0.68482-0.6506-0.55605-0.31058-1.2308-0.34879-1.8583-0.23976-0.62751 0.10904-1.2217 0.3544-1.8148 0.58644-0.59313 0.23205-1.1994 0.45446-1.8336 0.51378-1.1462 0.10722-2.2746-0.32469-3.4249-0.36942-0.94765-0.0369-1.8843 0.18959-2.83 0.26134-0.47282 0.0359-0.95186 0.0327-1.4168-0.0608-0.46489-0.0934-0.9167-0.28049-1.2814-0.58352-0.11226-0.0933-0.21743-0.19921-0.28481-0.32866-0.03369-0.0647-0.05753-0.13494-0.06646-0.20737-0.0089-0.0724-0.0027-0.14709 0.02163-0.21588 0.04627-0.13077 0.15748-0.23364 0.28697-0.28339 0.12949-0.0497 0.27516-0.0492 0.40905-0.013s0.25675 0.10664 0.36609 0.192c0.10934 0.0854 0.20606 0.18565 0.29982 0.28788 0.18753 0.20445 0.37186 0.42362 0.62022 0.54727 0.12418 0.0618 0.26338 0.0976 0.40175 0.0878 0.13837-0.01 0.27546-0.0676 0.36851-0.17053 0.09156-0.10123 0.13563-0.24085 0.1315-0.37728-0.0041-0.13643-0.05412-0.26926-0.13032-0.3825-0.15242-0.22647-0.3988-0.36983-0.64283-0.49216-0.79103-0.39653-1.6441-0.6531-2.4552-1.0068-0.81108-0.35372-1.6024-0.82519-2.1219-1.5415-0.09269-0.12781-0.17596-0.26244-0.24891-0.40246z" stroke-width=".4"/>
  </g>
  <path d="m125.22 186.2c-0.36341-0.0793-0.74217-0.0875-1.1087-0.0241-0.50009 0.0865-0.98317 0.31262-1.3336 0.6797-0.15971 0.16729-0.29102 0.36282-0.37679 0.57762-0.0858 0.2148-0.12534 0.44902-0.10562 0.67947 0.0205 0.23973 0.10507 0.47263 0.23576 0.67465s0.30679 0.37339 0.50748 0.50612c0.43421 0.28716 0.97152 0.3877 1.4918 0.36864 0.51442-0.0189 1.0309-0.15223 1.464-0.43041 0.19815-0.12726 0.37894-0.2854 0.51317-0.4789 0.13423-0.19349 0.22021-0.4239 0.22318-0.65938 3e-3 -0.24819-0.0855-0.49135-0.21797-0.70123-0.1325-0.20988-0.30749-0.38956-0.49019-0.55757-0.25124-0.23105-0.51971-0.44335-0.80244-0.63456z" fill="#fd6572" stroke="#000" stroke-width=".4"/>
  <g stroke="#000">
   <g stroke-width=".093718px">
    <path d="m68.816 150.82c-0.16089-2e-3 -0.32028-0.0648-0.43948-0.17285-0.13657-0.12383-0.21737-0.30313-0.23594-0.48654-0.01657-0.16365 0.01559-0.33409 0.10301-0.47343 0.10751-0.17137 0.29529-0.28673 0.49509-0.31849 0.20917-0.0332 0.43287 0.0245 0.59443 0.16141 0.15462 0.13107 0.24649 0.32645 0.27647 0.52692 0.01371 0.0916 0.01528 0.18594-0.0051 0.27634-0.02033 0.0904-0.06352 0.1769-0.1305 0.24092-0.08517 0.0814-0.20068 0.12077-0.30854 0.16818-0.04807 0.0211-0.09536 0.0443-0.14498 0.0615s-0.10215 0.0284-0.15452 0.0245c-0.01688-1e-3 -0.03364-4e-3 -0.05-8e-3z"/>
    <path d="m68 163.36c-0.16088-2e-3 -0.32026-0.0648-0.43947-0.17284-0.13659-0.1238-0.21744-0.30306-0.23605-0.48646-0.0166-0.16365 0.01555-0.33411 0.10301-0.47342 0.10756-0.17133 0.29534-0.28653 0.49509-0.3185 0.20921-0.0335 0.43333 0.0238 0.59442 0.1614 0.15397 0.13153 0.24384 0.32707 0.27647 0.52692 0.01501 0.0919 0.01877 0.18676-9.46e-4 0.27779-0.01971 0.091-0.06422 0.17835-0.13452 0.23947-0.08866 0.0771-0.20871 0.10628-0.30856 0.16818-0.04584 0.0284-0.08881 0.0629-0.13978 0.0805-0.02548 9e-3 -0.0524 0.0134-0.07937 0.0137-0.02696 2.6e-4 -0.05376-4e-3 -0.08035-8e-3z"/>
    <path d="m70.392 154.43c-0.1609-2e-3 -0.32029-0.0648-0.43949-0.17285-0.13657-0.12383-0.21736-0.30313-0.23595-0.48655-0.01658-0.16365 0.01556-0.33411 0.10301-0.47343 0.10754-0.17133 0.29533-0.28652 0.49508-0.31849 0.20921-0.0335 0.43333 0.0238 0.59443 0.16141 0.15397 0.13152 0.24386 0.32706 0.27647 0.52691 0.015 0.0919 0.01874 0.18677-9.98e-4 0.27781-0.01973 0.091-0.06426 0.17834-0.13456 0.23946-0.08866 0.0771-0.20869 0.10629-0.30854 0.16818-0.04584 0.0284-0.08882 0.0629-0.13978 0.0805-0.02548 9e-3 -0.0524 0.0134-0.07936 0.0137-0.02696 2.7e-4 -0.05376-4e-3 -0.08035-8e-3z"/>
    <path d="m68.703 158c-0.16089-2e-3 -0.32026-0.0648-0.43948-0.17285-0.1366-0.12382-0.21745-0.30311-0.23603-0.48653-0.01658-0.16365 0.01559-0.3341 0.10301-0.47343 0.10752-0.17137 0.29529-0.28672 0.49509-0.3185 0.20919-0.0333 0.43292 0.0244 0.5945 0.1614 0.15462 0.13107 0.24648 0.32645 0.27647 0.52692 0.01372 0.0917 0.0153 0.18598-5e-3 0.27639-0.02033 0.0904-0.06353 0.17694-0.13053 0.24097-0.08518 0.0814-0.2007 0.12074-0.30856 0.16818-0.04807 0.0211-0.09535 0.0443-0.14496 0.0615-0.04962 0.0172-0.10215 0.0284-0.15452 0.0244-0.01687-1e-3 -0.03362-4e-3 -0.04997-8e-3z"/>
    <path d="m77.225 173.1c-0.16089-2e-3 -0.32029-0.0648-0.43949-0.17286-0.13657-0.12383-0.21736-0.30312-0.23592-0.48653-0.01656-0.16365 0.01561-0.33409 0.10302-0.47342 0.10749-0.17135 0.29521-0.28671 0.49497-0.31849 0.20916-0.0333 0.43285 0.0245 0.5944 0.1614 0.1546 0.13105 0.24647 0.32639 0.27645 0.52683 0.01371 0.0916 0.01528 0.18591-0.0051 0.27629-0.02033 0.0904-0.06351 0.17687-0.13049 0.24088-0.08518 0.0814-0.20069 0.12076-0.30855 0.16818-0.04808 0.0211-0.09537 0.0443-0.14499 0.0615-0.04962 0.0172-0.10215 0.0284-0.15452 0.0245-0.01682-1e-3 -0.03353-4e-3 -0.04985-8e-3z"/>
    <path d="m74.472 163.21c-0.16089-2e-3 -0.32028-0.0648-0.43948-0.17285-0.13655-0.12381-0.21735-0.30307-0.23592-0.48645-0.01658-0.16366 0.01558-0.33411 0.10301-0.47345 0.10752-0.17136 0.29529-0.28669 0.49507-0.31846 0.2092-0.0333 0.43294 0.0244 0.59452 0.16141 0.15461 0.13107 0.24646 0.32645 0.27646 0.52691 0.01372 0.0916 0.01531 0.18593-5e-3 0.27633-0.02032 0.0904-0.06348 0.1769-0.13046 0.24093-0.08517 0.0814-0.20068 0.12077-0.30854 0.16817-0.04807 0.0211-0.09537 0.0443-0.14499 0.0615-0.04962 0.0172-0.10215 0.0283-0.15451 0.0244-0.01693-1e-3 -0.03374-4e-3 -0.05015-8e-3z"/>
    <path d="m74.331 148.62c-0.16089-2e-3 -0.32027-0.0648-0.43949-0.17284-0.13659-0.1238-0.21744-0.30306-0.23603-0.48646-0.01659-0.16365 0.01559-0.3341 0.10301-0.47343 0.10752-0.17136 0.29528-0.28671 0.49507-0.31849 0.2092-0.0333 0.43293 0.0244 0.59451 0.1614 0.15462 0.13108 0.24647 0.32645 0.27647 0.52692 0.01372 0.0916 0.01532 0.18591-5e-3 0.27631-0.02031 0.0904-0.06346 0.17689-0.13043 0.24092-0.08517 0.0814-0.20071 0.12081-0.3086 0.16822-0.04807 0.0211-0.09536 0.0443-0.14498 0.0615-0.04962 0.0172-0.10215 0.0283-0.15451 0.0244-0.01689-1e-3 -0.03367-4e-3 -0.05004-8e-3z"/>
    <path d="m75.878 141.63c-0.16089-2e-3 -0.32026-0.0648-0.43948-0.17285-0.13658-0.1238-0.21744-0.30305-0.23604-0.48645-0.01659-0.16365 0.01559-0.3341 0.10301-0.47343 0.10752-0.17137 0.2953-0.28673 0.4951-0.3185 0.20917-0.0333 0.43286 0.0245 0.59441 0.16141 0.15461 0.13107 0.24647 0.32644 0.27647 0.5269 0.01372 0.0916 0.01532 0.18593-5e-3 0.27633-0.02031 0.0904-0.06348 0.17691-0.13046 0.24094-0.08517 0.0814-0.20068 0.12078-0.30855 0.16819-0.04806 0.0211-0.09533 0.0443-0.14493 0.0615-0.0496 0.0172-0.10212 0.0283-0.15446 0.0244-0.0169-1e-3 -0.03369-4e-3 -0.05007-8e-3z"/>
    <path d="m82.772 128.97c-0.16088-2e-3 -0.32026-0.0648-0.43947-0.17285-0.13658-0.1238-0.21744-0.30305-0.23604-0.48645-0.01659-0.16364 0.01559-0.33408 0.10301-0.47341 0.10752-0.17137 0.2953-0.28673 0.4951-0.31849 0.20917-0.0332 0.43286 0.0245 0.59442 0.16141 0.15462 0.13108 0.24647 0.32645 0.27647 0.52692 0.01371 0.0916 0.01531 0.18593-5e-3 0.27632-0.02032 0.0904-0.06348 0.1769-0.13045 0.24093-0.08517 0.0814-0.20068 0.12078-0.30855 0.16819-0.04807 0.0211-0.09536 0.0443-0.14498 0.0615-0.04962 0.0172-0.10215 0.0283-0.15451 0.0244-0.01687-1e-3 -0.03363-4e-3 -0.04998-8e-3z"/>
    <path d="m84.461 123.91c-0.16089-2e-3 -0.32027-0.0648-0.43949-0.17284-0.1366-0.12383-0.21744-0.30313-0.23603-0.48656-0.01659-0.16365 0.01556-0.33411 0.10301-0.47342 0.10756-0.17133 0.29536-0.28653 0.49511-0.31849 0.2092-0.0335 0.43331 0.0238 0.5944 0.16141 0.15397 0.13153 0.24385 0.32707 0.27646 0.52692 0.015 0.0919 0.01874 0.18677-9.93e-4 0.27781-0.01973 0.091-0.06426 0.17834-0.13456 0.23946-0.08866 0.0771-0.20869 0.10629-0.30854 0.16818-0.04584 0.0284-0.08881 0.0629-0.13978 0.0805-0.02548 9e-3 -0.0524 0.0134-0.07937 0.0137-0.02696 2.8e-4 -0.05376-4e-3 -0.08035-8e-3z"/>
    <path d="m68.525 136.13c-0.16089-2e-3 -0.32026-0.0648-0.43948-0.17285-0.13658-0.1238-0.21743-0.30306-0.23603-0.48646-0.0166-0.16365 0.01555-0.33412 0.10301-0.47343 0.10755-0.17133 0.29534-0.28653 0.49509-0.3185 0.2092-0.0335 0.43332 0.0238 0.5944 0.16142 0.15396 0.13153 0.24383 0.32707 0.27647 0.52692 0.01502 0.092 0.01877 0.18681-9.56e-4 0.27787-0.01973 0.0911-0.06427 0.17839-0.1346 0.2395-0.08868 0.0771-0.20874 0.10621-0.30855 0.16817-0.04583 0.0284-0.08878 0.063-0.13975 0.0806-0.02549 9e-3 -0.05241 0.0134-0.07938 0.0137-0.02697 2.4e-4 -0.05376-4e-3 -0.08035-8e-3z"/>
    <path d="m74.331 128.08c-0.16089-2e-3 -0.32028-0.0648-0.43949-0.17284-0.1366-0.12382-0.21744-0.30312-0.23603-0.48655-0.01659-0.16365 0.01555-0.33411 0.10301-0.47342 0.10755-0.17132 0.29533-0.2865 0.49507-0.31848 0.20924-0.0335 0.4334 0.0238 0.59451 0.16142 0.15396 0.13154 0.2438 0.32708 0.27647 0.52692 0.01503 0.0919 0.01882 0.18679-8.86e-4 0.27785-0.0197 0.0911-0.06421 0.1784-0.13453 0.23951-0.08868 0.0771-0.20876 0.10622-0.3086 0.16817-0.04583 0.0284-0.08878 0.063-0.13975 0.0806-0.02549 9e-3 -0.05241 0.0134-0.07938 0.0137-0.02697 2.6e-4 -0.05376-4e-3 -0.08035-8e-3z"/>
    <path d="m70.251 131.06c-0.16089-2e-3 -0.32027-0.0648-0.43948-0.17284-0.13658-0.1238-0.21744-0.30305-0.23604-0.48645-0.0166-0.16365 0.01556-0.33411 0.10302-0.47342 0.10756-0.17132 0.29534-0.28652 0.49509-0.31849 0.20921-0.0335 0.43333 0.0238 0.59443 0.1614 0.15397 0.13153 0.24385 0.32707 0.27646 0.52692 0.015 0.0919 0.01874 0.18677-9.93e-4 0.27781-0.01973 0.091-0.06426 0.17834-0.13456 0.23945-0.08866 0.0771-0.2087 0.10627-0.30854 0.16817-0.04584 0.0284-0.08881 0.0629-0.13978 0.0805-0.02548 9e-3 -0.0524 0.0134-0.07937 0.0137-0.02697 2.6e-4 -0.05376-4e-3 -0.08035-8e-3z"/>
    <path d="m90.51 123.77c-0.1609-2e-3 -0.32029-0.0648-0.43949-0.17285-0.13657-0.12384-0.21735-0.30314-0.23592-0.48656-0.01657-0.16364 0.01556-0.3341 0.10301-0.47341 0.10754-0.17133 0.29533-0.28653 0.49507-0.31849 0.2092-0.0335 0.43332 0.0238 0.59441 0.16141 0.15396 0.13151 0.24386 0.32701 0.27647 0.52684 0.01501 0.0919 0.01874 0.18677-9.98e-4 0.2778-0.01974 0.091-0.06426 0.17834-0.13456 0.23946-0.08866 0.0771-0.20868 0.1063-0.30854 0.16817-0.04585 0.0284-0.08883 0.0629-0.13979 0.0805-0.02548 9e-3 -0.0524 0.0134-0.07936 0.0137-0.02697 2.8e-4 -0.05376-4e-3 -0.08036-8e-3z"/>
    <path d="m98.53 122.13c-0.16089-2e-3 -0.32026-0.0648-0.43948-0.17286-0.13658-0.1238-0.21743-0.30305-0.23604-0.48644-0.01661-0.16365 0.01554-0.33412 0.10301-0.47343 0.10756-0.17131 0.29535-0.28649 0.49508-0.31846 0.20924-0.0335 0.4334 0.0238 0.59451 0.16141 0.15396 0.13153 0.24383 0.32708 0.27646 0.52693 0.01501 0.0919 0.01877 0.18674-9.45e-4 0.27778-0.01971 0.091-0.06422 0.17833-0.13452 0.23944-0.08866 0.0771-0.20872 0.10626-0.30854 0.16821-0.04583 0.0284-0.08878 0.063-0.13975 0.0806-0.02548 9e-3 -0.05241 0.0134-0.07937 0.0137-0.02697 2.6e-4 -0.05376-4e-3 -0.08035-8e-3z"/>
    <path d="m93.605 128.83c-0.16089-2e-3 -0.32027-0.0648-0.43949-0.17285-0.13658-0.1238-0.21743-0.30305-0.23602-0.48645-0.01659-0.16364 0.01559-0.33408 0.10301-0.47341 0.10752-0.17137 0.29529-0.28672 0.49509-0.3185 0.2092-0.0333 0.43293 0.0244 0.5945 0.16141 0.15462 0.13108 0.24647 0.32645 0.27648 0.52692 0.01372 0.0916 0.01532 0.18593-5e-3 0.27634-0.02031 0.0904-0.06349 0.17691-0.13046 0.24093-0.08518 0.0814-0.2007 0.12076-0.30855 0.16819-0.04805 0.0211-0.09532 0.0443-0.14492 0.0615-0.0496 0.0172-0.10212 0.0283-0.15447 0.0244-0.01694-1e-3 -0.03376-4e-3 -0.05017-8e-3z"/>
    <path d="m97.967 175.56c-0.16089-2e-3 -0.32028-0.0648-0.43949-0.17285-0.1366-0.12382-0.21744-0.30311-0.23604-0.48654-0.01659-0.16365 0.01556-0.33412 0.10302-0.47343 0.10755-0.17132 0.29533-0.28651 0.49507-0.31849 0.20924-0.0335 0.4334 0.0238 0.59452 0.1614 0.15397 0.13153 0.24384 0.32706 0.27647 0.52691 0.01501 0.0919 0.01876 0.18675-9.58e-4 0.27779-0.01972 0.091-0.06422 0.17834-0.1345 0.23947-0.08864 0.0771-0.20866 0.10634-0.30855 0.16817-0.04585 0.0284-0.08885 0.0628-0.13981 0.0805-0.02548 9e-3 -0.05239 0.0134-0.07935 0.0137-0.02696 2.9e-4 -0.05376-4e-3 -0.08035-8e-3z"/>
    <path d="m111.02 178.26c-0.16089-2e-3 -0.32028-0.0648-0.43948-0.17285-0.13657-0.12383-0.21736-0.30313-0.23594-0.48655-0.0166-0.16365 0.0156-0.33411 0.10301-0.47342 0.10755-0.17133 0.29535-0.28652 0.49509-0.31848 0.20921-0.0335 0.43333 0.0238 0.59443 0.1614 0.15397 0.13152 0.24386 0.32706 0.27648 0.52691 0.015 0.0919 0.0187 0.18677-9.9e-4 0.27781-0.0197 0.091-0.0643 0.17834-0.13457 0.23945-0.0887 0.0771-0.20872 0.10625-0.30855 0.16817-0.0458 0.0284-0.0888 0.063-0.13976 0.0806-0.0255 9e-3 -0.0524 0.0134-0.0794 0.0137-0.027 2.8e-4 -0.0538-4e-3 -0.0804-8e-3z"/>
    <path d="m116.82 176.01c-0.16089-2e-3 -0.32026-0.0648-0.43949-0.17285-0.13663-0.12381-0.21753-0.3031-0.23613-0.48654-0.0166-0.16365 0.0156-0.33409 0.10301-0.47342 0.10752-0.17137 0.29529-0.28672 0.49509-0.31849 0.20917-0.0333 0.43287 0.0245 0.59443 0.1614 0.15462 0.13107 0.24649 0.32645 0.27648 0.52692 0.0137 0.0916 0.0153 0.18594-5e-3 0.27634s-0.0635 0.1769-0.1305 0.24092c-0.0852 0.0814-0.20068 0.12076-0.30854 0.16818-0.0481 0.0211-0.0953 0.0443-0.14497 0.0615-0.0496 0.0172-0.10215 0.0283-0.15451 0.0244-0.0168-1e-3 -0.0335-4e-3 -0.0498-8e-3z"/>
    <path d="m108.8 172.73c-0.16088-2e-3 -0.32025-0.0648-0.43948-0.17284-0.13662-0.12379-0.21753-0.30305-0.23615-0.48647-0.0166-0.16365 0.0155-0.33413 0.10302-0.47344 0.10754-0.17129 0.29526-0.28649 0.49496-0.31847 0.20921-0.0335 0.43333 0.0238 0.59442 0.1614 0.15396 0.13153 0.24384 0.32707 0.27648 0.52692 0.015 0.0919 0.0188 0.18681-9.6e-4 0.27787-0.0197 0.091-0.0643 0.17838-0.1346 0.23949-0.0887 0.0771-0.20874 0.10621-0.30855 0.16817-0.0458 0.0284-0.0888 0.063-0.13974 0.0806-0.0255 9e-3 -0.0524 0.0134-0.0794 0.0136-0.027 2.4e-4 -0.0538-4e-3 -0.0803-8e-3z"/>
    <path d="m124.7 167.67c-0.16089-2e-3 -0.32026-0.0648-0.43948-0.17285-0.1366-0.12381-0.21745-0.3031-0.23604-0.48652-0.0166-0.16365 0.0156-0.3341 0.10301-0.47344 0.10752-0.17136 0.29528-0.28671 0.49507-0.31848 0.20917-0.0333 0.43287 0.0244 0.59443 0.16139 0.15462 0.13107 0.24649 0.32644 0.27646 0.52691 0.0137 0.0917 0.0153 0.18598-5e-3 0.2764-0.0204 0.0904-0.0636 0.17693-0.13057 0.24095-0.0852 0.0814-0.20071 0.12073-0.30856 0.16818-0.0481 0.0211-0.0953 0.0443-0.14495 0.0615-0.0496 0.0172-0.10215 0.0283-0.15451 0.0244-0.0168-1e-3 -0.0335-4e-3 -0.0498-8e-3z"/>
    <path d="m125.68 160.82c-0.16089-2e-3 -0.32027-0.0648-0.43949-0.17284-0.13659-0.1238-0.21744-0.30306-0.23603-0.48646-0.0166-0.16365 0.0156-0.3341 0.10302-0.47343 0.10752-0.17136 0.29528-0.28672 0.49507-0.31849 0.20917-0.0333 0.43286 0.0245 0.59443 0.1614 0.15462 0.13106 0.24651 0.32644 0.27646 0.52691 0.0137 0.0916 0.0152 0.18594-5e-3 0.27633-0.0204 0.0904-0.0636 0.17688-0.13054 0.2409-0.0852 0.0814-0.20068 0.12078-0.30854 0.16821-0.0481 0.0211-0.0953 0.0443-0.14497 0.0615-0.0496 0.0172-0.10215 0.0283-0.15451 0.0244-0.0168-1e-3 -0.0335-4e-3 -0.0498-8e-3z"/>
    <path d="m127.65 152.49c-0.16089-2e-3 -0.32026-0.0648-0.43948-0.17284-0.13659-0.1238-0.21744-0.30306-0.23603-0.48646-0.0166-0.16365 0.0156-0.33409 0.10302-0.47342 0.10752-0.17136 0.29528-0.28673 0.49507-0.3185 0.20917-0.0333 0.43288 0.0244 0.59444 0.1614 0.15462 0.13107 0.24648 0.32645 0.27645 0.52692 0.0137 0.0916 0.0153 0.18592-5e-3 0.27631-0.0203 0.0904-0.0635 0.17689-0.13048 0.24091-0.0852 0.0814-0.20068 0.12079-0.30854 0.16821-0.0481 0.0211-0.0953 0.0443-0.14497 0.0615-0.0496 0.0172-0.10215 0.0283-0.15451 0.0244-0.0168-1e-3 -0.0336-4e-3 -0.0499-8e-3z"/>
    <path d="m123.01 147.28c-0.16089-2e-3 -0.32027-0.0648-0.43949-0.17285-0.13658-0.1238-0.21742-0.30305-0.23603-0.48644-0.0166-0.16365 0.0156-0.33413 0.10301-0.47344 0.10755-0.17131 0.29533-0.28649 0.49506-0.31846 0.20922-0.0335 0.43335 0.0238 0.59445 0.1614 0.15397 0.13152 0.24386 0.32706 0.27648 0.52691 0.015 0.0919 0.0187 0.18676-9.9e-4 0.27779-0.0197 0.091-0.0643 0.17834-0.13457 0.23944-0.0887 0.0771-0.20873 0.10626-0.30855 0.16821-0.0458 0.0284-0.0888 0.063-0.13975 0.0806-0.0255 9e-3 -0.0524 0.0134-0.0794 0.0137-0.027 2.5e-4 -0.0538-4e-3 -0.0803-8e-3z"/>
    <path d="m118.09 140.13c-0.16089-2e-3 -0.32027-0.0648-0.43949-0.17285-0.13658-0.1238-0.21743-0.30306-0.23603-0.48646-0.0166-0.16364 0.0156-0.3341 0.10301-0.47341 0.10755-0.17132 0.29532-0.28652 0.49505-0.31849 0.20921-0.0335 0.43334 0.0238 0.59443 0.16141 0.15396 0.13153 0.24384 0.32707 0.27645 0.52692 0.015 0.0919 0.0187 0.18675-1e-3 0.27779-0.0197 0.091-0.0643 0.17833-0.13454 0.23944-0.0887 0.0771-0.20871 0.1063-0.30856 0.16822-0.0458 0.0284-0.0888 0.0629-0.13977 0.0805-0.0255 9e-3 -0.0524 0.0134-0.0794 0.0137-0.027 2.6e-4 -0.0538-4e-3 -0.0803-8e-3z"/>
    <path d="m125.68 137.31c-0.16089-2e-3 -0.32027-0.0648-0.43948-0.17285-0.1366-0.12382-0.21745-0.30313-0.23603-0.48656-0.0166-0.16365 0.0156-0.33409 0.10301-0.47342 0.10751-0.17137 0.29529-0.28673 0.49508-0.31849 0.20917-0.0333 0.43286 0.0245 0.59442 0.1614 0.15461 0.13105 0.24649 0.32638 0.27647 0.52683 0.0137 0.0916 0.0153 0.18591-5e-3 0.27629-0.0203 0.0904-0.0635 0.17686-0.1305 0.24087-0.0852 0.0814-0.20068 0.12076-0.30854 0.16818-0.0481 0.0211-0.0954 0.0443-0.14499 0.0615-0.0496 0.0172-0.10214 0.0284-0.15452 0.0245-0.0168-1e-3 -0.0335-4e-3 -0.0499-8e-3z"/>
    <path d="m122.02 130.31c-0.16089-2e-3 -0.32027-0.0648-0.43949-0.17285-0.13658-0.1238-0.21744-0.30306-0.23603-0.48646-0.0166-0.16365 0.0156-0.3341 0.10302-0.47343 0.10752-0.17135 0.29527-0.28669 0.49505-0.31846 0.20918-0.0333 0.43289 0.0245 0.59445 0.16142 0.15462 0.13108 0.24649 0.32646 0.27647 0.52693 0.0137 0.0916 0.0153 0.18596-5e-3 0.27637-0.0203 0.0904-0.0635 0.17691-0.13051 0.24095-0.0852 0.0814-0.20067 0.1208-0.30853 0.16822-0.0481 0.0211-0.0953 0.0443-0.14497 0.0615-0.0496 0.0172-0.10215 0.0283-0.1545 0.0243-0.0169-1e-3 -0.0336-4e-3 -0.0499-8e-3z"/>
    <path d="m111.89 131.2c-0.16089-2e-3 -0.32026-0.0648-0.43948-0.17285-0.13658-0.1238-0.21744-0.30306-0.23603-0.48646-0.0166-0.16365 0.0156-0.3341 0.10301-0.47343 0.10752-0.17137 0.29529-0.28673 0.49509-0.31849 0.20917-0.0333 0.43286 0.0245 0.59442 0.1614 0.15462 0.13106 0.2465 0.32643 0.27647 0.5269 0.0137 0.0916 0.0153 0.18591-5e-3 0.2763-0.0203 0.0904-0.0635 0.17686-0.13049 0.24088-0.0852 0.0814-0.20067 0.12079-0.30854 0.16818-0.0481 0.0211-0.0954 0.0443-0.14499 0.0615-0.0496 0.0172-0.10214 0.0284-0.15451 0.0245-0.0168-1e-3 -0.0336-4e-3 -0.0499-8e-3z"/>
    <path d="m107.25 124.95c-0.16089-2e-3 -0.32027-0.0648-0.43948-0.17286-0.1366-0.12382-0.21744-0.30312-0.23603-0.48654-0.0166-0.16365 0.0156-0.33411 0.10302-0.47342 0.10755-0.17131 0.29532-0.28651 0.49505-0.31848 0.20921-0.0335 0.43333 0.0238 0.59443 0.16141 0.15397 0.13153 0.24385 0.32707 0.27646 0.52693 0.015 0.0919 0.0187 0.18676-1e-3 0.2778-0.0197 0.091-0.0643 0.17834-0.13455 0.23945-0.0887 0.0771-0.20869 0.10629-0.30854 0.16818-0.0458 0.0284-0.0888 0.0629-0.13977 0.0805-0.0255 9e-3 -0.0524 0.0134-0.0794 0.0137-0.027 2.7e-4 -0.0538-4e-3 -0.0803-8e-3z"/>
    <path d="m115.83 125.25c-0.16089-2e-3 -0.32027-0.0648-0.43949-0.17285-0.13659-0.1238-0.21745-0.30306-0.23605-0.48646-0.0166-0.16365 0.0156-0.3341 0.10301-0.47343 0.10752-0.17136 0.29529-0.2867 0.49508-0.31846 0.20917-0.0332 0.43286 0.0245 0.59442 0.16142 0.1546 0.13105 0.24648 0.32639 0.27647 0.52683 0.0137 0.0916 0.0153 0.18594-5e-3 0.27634s-0.0635 0.1769-0.13051 0.24092c-0.0852 0.0814-0.20068 0.12075-0.30854 0.16817-0.0481 0.0211-0.0954 0.0443-0.14498 0.0615-0.0496 0.0172-0.10215 0.0284-0.15451 0.0244-0.0168-1e-3 -0.0335-4e-3 -0.0499-8e-3z"/>
    <path d="m82.491 168.86c-0.16088-2e-3 -0.32025-0.0648-0.43948-0.17285-0.13661-0.12379-0.21752-0.30303-0.23614-0.48644-0.01661-0.16365 0.01556-0.33411 0.10302-0.47342 0.10756-0.17131 0.29532-0.28651 0.49505-0.31848 0.20921-0.0335 0.43332 0.0238 0.59442 0.1614 0.15398 0.13152 0.2439 0.32705 0.27647 0.52691 0.01498 0.0919 0.01869 0.18675-0.0011 0.27777-0.01976 0.091-0.0643 0.1783-0.13459 0.2394-0.08867 0.0771-0.20869 0.10629-0.30854 0.16818-0.04584 0.0284-0.08881 0.0629-0.13978 0.0805-0.02548 9e-3 -0.0524 0.0134-0.07936 0.0137-0.02696 2.7e-4 -0.05376-4e-3 -0.08035-8e-3z"/>
   </g>
   <path d="m47.197 129.43c-0.17762-2.5e-4 -0.35437-0.067-0.48784-0.18417-0.14865-0.13052-0.24094-0.32061-0.26201-0.5173-0.01869-0.1745 0.01826-0.35655 0.11437-0.50339 0.11714-0.17898 0.31719-0.29639 0.52821-0.33144 0.21496-0.0357 0.44327 0.0116 0.62435 0.13279 0.18149 0.12149 0.31261 0.31576 0.35793 0.5294 0.04152 0.19572 0.01049 0.40771-0.09394 0.57837-0.06655 0.10875-0.16196 0.19992-0.27448 0.25988-0.06121 0.0326-0.12794 0.0556-0.19685 0.0635-0.06891 8e-3 -0.13854-5.6e-4 -0.20705-0.0114z" stroke-width=".10182px"/>
  </g>
  <g fill="#00887a" stroke="#000" stroke-width=".1782">
   <path d="m99.878 171.51c-0.1969-0.0565-0.37258-0.18404-0.48727-0.35376-0.13394-0.19822-0.18156-0.44137-0.21132-0.67874-0.02975-0.2373-0.04426-0.48128 0.01494-0.71299 0.03242-0.12688 0.08721-0.24889 0.16755-0.35231 0.08034-0.10343 0.18684-0.18776 0.30922-0.23438 0.11643-0.0443 0.24562-0.0537 0.36768-0.0287 0.12207 0.0249 0.23672 0.0838 0.32963 0.16683 0.10781 0.0963 0.18538 0.22321 0.23742 0.35808 0.052 0.13488 0.0796 0.278 0.098 0.42138 0.0411 0.31949 0.0361 0.65337-0.0851 0.95181-0.0619 0.15234-0.15521 0.29469-0.28487 0.3958-0.0594 0.0463-0.12775 0.083-0.20196 0.0956-0.0742 0.0126-0.15008-2e-3 -0.22297-0.0206z"/>
   <path d="m97.029 171.66c-0.19689-0.0565-0.37257-0.18404-0.48726-0.35376-0.13394-0.19821-0.18158-0.44135-0.21131-0.67872-0.02972-0.2373-0.04415-0.48128 0.01505-0.71299 0.03242-0.12689 0.08719-0.24892 0.16753-0.35236 0.08034-0.10343 0.18686-0.18777 0.30928-0.23432 0.11644-0.0443 0.24562-0.0535 0.36766-0.0285s0.23667 0.0838 0.32973 0.16663c0.10805 0.0961 0.1861 0.22284 0.23835 0.35771 0.05225 0.13487 0.07971 0.27815 0.09712 0.42174 0.03872 0.31929 0.02748 0.65055-0.08511 0.95183-0.05788 0.15487-0.14672 0.30499-0.28488 0.3958-0.12348 0.0812-0.28076 0.10784-0.42483 0.075-0.01051-2e-3 -0.02096-5e-3 -0.03132-8e-3z"/>
   <path d="m113.05 165.53c-0.1942 0.052-0.40609 0.0353-0.58972-0.0466-0.22386-0.0998-0.39743-0.28901-0.52684-0.49716-0.15113-0.2431-0.25035-0.51829-0.28922-0.80189-0.0191-0.13964-0.0236-0.28338 0.0107-0.42009 0.0343-0.13672 0.11045-0.26654 0.22732-0.34531 0.11117-0.0749 0.25185-0.0986 0.38495-0.0826 0.1331 0.0161 0.25941 0.0694 0.37484 0.13763 0.33459 0.19765 0.58485 0.52096 0.73394 0.87982 0.0494 0.11891 0.0887 0.24297 0.10326 0.3709 0.0146 0.12793 4e-3 0.26025-0.0441 0.3798-0.0412 0.10312-0.10887 0.19428-0.18806 0.27214-0.0595 0.0585-0.12576 0.11003-0.19708 0.15329z"/>
   <path d="m110.66 167.19c-0.1942 0.052-0.40609 0.0353-0.58971-0.0466-0.22386-0.0998-0.39744-0.28899-0.52685-0.49714-0.15114-0.2431-0.25036-0.51829-0.28922-0.80189-0.0191-0.13963-0.0236-0.28337 0.0107-0.42008s0.11044-0.26652 0.22731-0.3453c0.11118-0.075 0.25188-0.0987 0.385-0.0826 0.13311 0.0161 0.25945 0.0695 0.37489 0.13766 0.33455 0.19764 0.58479 0.5209 0.73394 0.8797 0.0494 0.1189 0.0887 0.24296 0.10334 0.37089 0.0146 0.12793 4e-3 0.26025-0.044 0.37981-0.0412 0.10311-0.10888 0.19426-0.18807 0.27211-0.0595 0.0585-0.12589 0.11012-0.19728 0.1534z"/>
   <path d="m116 153.9c0.0349-0.19747 0.14869-0.37986 0.31076-0.49793 0.18562-0.13523 0.41965-0.18228 0.6466-0.21741 0.22373-0.0346 0.4562-0.0605 0.67352 3e-3 0.2423 0.0708 0.44821 0.25528 0.5472 0.48748 0.0513 0.1203 0.0749 0.2528 0.0644 0.38316-0.0105 0.13035-0.0556 0.25826-0.13232 0.36418-0.0876 0.12094-0.21393 0.21053-0.35124 0.26923-0.1373 0.0587-0.28563 0.0879-0.43417 0.10323-0.30267 0.0312-0.61449 5e-3 -0.89821-0.10504-0.0748-0.029-0.14783-0.0639-0.21367-0.1098-0.0658-0.0459-0.12452-0.10326-0.16624-0.17183-0.081-0.13317-0.0923-0.30006-0.0602-0.45261 4e-3 -0.0187 8e-3 -0.0372 0.0136-0.0556z"/>
   <path d="m115.89 150.88c0.0349-0.19746 0.14868-0.37985 0.31076-0.49791 0.18565-0.13523 0.41972-0.18226 0.6467-0.21739 0.22372-0.0346 0.45617-0.0606 0.67348 3e-3 0.24231 0.0707 0.4482 0.25529 0.54726 0.48746 0.0513 0.12029 0.075 0.25278 0.0645 0.38314-0.0105 0.13035-0.0557 0.25827-0.13254 0.36407-0.0877 0.12076-0.21426 0.20997-0.35156 0.26852-0.1373 0.0586-0.28547 0.0879-0.43386 0.10406-0.30283 0.033-0.61658 0.011-0.89823-0.10504-0.14777-0.0609-0.2886-0.15043-0.37989-0.28162-0.0451-0.0648-0.0765-0.1399-0.0854-0.21839-9e-3 -0.0785 7e-3 -0.15749 0.0253-0.23422z"/>
   <path d="m111.44 139.8c-0.0796-0.18712-0.0887-0.40325-0.0251-0.59639 0.0741-0.225 0.23782-0.40771 0.40219-0.57829 0.16021-0.16626 0.33153-0.33216 0.5465-0.41642 0.23008-0.0902 0.50208-0.0739 0.71367 0.0537 0.11068 0.0668 0.20396 0.16237 0.26715 0.27514 0.0632 0.11276 0.096 0.2425 0.0931 0.37173-3e-3 0.15363-0.0568 0.30333-0.13557 0.43526-0.0788 0.13192-0.18245 0.24735-0.29251 0.35459-0.22173 0.21605-0.48229 0.40709-0.78449 0.4743-0.15502 0.0345-0.3202 0.0345-0.4698-0.0188-0.0717-0.0255-0.13961-0.0647-0.19128-0.1206-0.0517-0.0559-0.0833-0.127-0.11026-0.19821z"/>
   <path d="m109.68 137.42c-0.0796-0.18713-0.0887-0.40326-0.0251-0.5964 0.0741-0.225 0.23783-0.40771 0.40221-0.57828 0.16022-0.16625 0.33154-0.33213 0.54649-0.41643 0.23007-0.0902 0.50212-0.0741 0.71366 0.0536 0.11063 0.0668 0.20381 0.16245 0.26696 0.27522 0.0631 0.11277 0.096 0.24244 0.0933 0.37165-3e-3 0.15371-0.0561 0.30366-0.13474 0.43575-0.0787 0.13209-0.18253 0.24754-0.29335 0.35411-0.22282 0.21428-0.48447 0.39985-0.78449 0.47439-0.15488 0.0385-0.32357 0.0452-0.46976-0.0188-0.13733-0.0601-0.2445-0.18009-0.30155-0.31873-5e-3 -0.0119-9e-3 -0.024-0.0137-0.0361z"/>
   <path d="m100.53 132.48c-0.18174-0.0766-0.33407-0.22076-0.42054-0.39801-0.10577-0.21682-0.11138-0.46733-0.10954-0.70857 2e-3 -0.23879 0.0102-0.48376 0.10094-0.70463 0.0481-0.117 0.11906-0.22503 0.21043-0.31252 0.0914-0.0875 0.20329-0.15411 0.32501-0.18856 0.11993-0.0339 0.24885-0.0362 0.36955-5e-3 0.12071 0.031 0.23283 0.0955 0.31937 0.18522 0.10247 0.10621 0.16714 0.24484 0.20138 0.38839 0.0342 0.14356 0.0395 0.29254 0.0349 0.44005-0.01 0.30872-0.0626 0.61871-0.18451 0.90251-0.0378 0.088-0.0825 0.17381-0.14177 0.24902-0.0593 0.0752-0.13406 0.13978-0.22188 0.17804-0.13747 0.0599-0.29901 0.0506-0.43804-6e-3 -0.0153-6e-3 -0.0305-0.0129-0.0453-0.0202z"/>
   <path d="m97.697 132.15c-0.18174-0.0766-0.33408-0.22082-0.42055-0.39809-0.10576-0.21681-0.11141-0.4673-0.10958-0.70853 0.0018-0.23879 0.01014-0.48376 0.10094-0.70462 0.0481-0.117 0.11908-0.22502 0.21046-0.3125 0.09138-0.0875 0.20331-0.15409 0.32503-0.18854 0.11995-0.034 0.24889-0.0363 0.36963-5e-3 0.12073 0.031 0.23288 0.0955 0.31944 0.18523 0.10248 0.10621 0.16717 0.24483 0.20143 0.38839 0.03425 0.14356 0.03952 0.29255 0.03493 0.44007-0.0096 0.30872-0.06265 0.61869-0.18454 0.90249-0.0378 0.088-0.08245 0.1738-0.14177 0.24902-0.05932 0.0752-0.13406 0.13977-0.22188 0.17803-0.13748 0.0599-0.29901 0.0506-0.43807-6e-3 -0.01538-6e-3 -0.03055-0.013-0.04546-0.0202z"/>
   <path d="m88.421 134.84c-0.20109 0.0141-0.4064-0.0415-0.57288-0.15519-0.20436-0.13952-0.34345-0.35789-0.4364-0.58721-0.10805-0.26655-0.16076-0.5556-0.15186-0.84308 0.0043-0.14002 0.02371-0.28168 0.08011-0.40991 0.0564-0.12824 0.15308-0.24263 0.28111-0.29949 0.12316-0.0547 0.26684-0.0523 0.39526-0.0114 0.12842 0.0408 0.24291 0.11766 0.34395 0.20682 0.30743 0.27127 0.49728 0.65706 0.59231 1.0559 0.02946 0.12363 0.0506 0.25051 0.04368 0.37741-0.0069 0.12691-0.04348 0.25462-0.12023 0.35592-0.06206 0.0819-0.14733 0.14319-0.23537 0.19621-0.07073 0.0426-0.14415 0.0807-0.21968 0.11406z"/>
   <path d="m85.797 136.02c-0.20109 0.0141-0.40641-0.0415-0.57289-0.15517-0.20435-0.13952-0.34342-0.3579-0.43638-0.58721-0.10805-0.26655-0.16079-0.55559-0.1519-0.84307 0.0043-0.14004 0.02371-0.28171 0.08013-0.40995s0.15312-0.24264 0.28118-0.29948c0.12312-0.0546 0.26673-0.0522 0.3951-0.0114 0.12837 0.0408 0.24282 0.11759 0.34383 0.2067 0.30746 0.27124 0.49727 0.65707 0.5923 1.0559 0.02946 0.12364 0.05061 0.25052 0.0437 0.37743-0.0069 0.12691-0.04348 0.25463-0.12025 0.35593-0.06207 0.0819-0.14734 0.14316-0.23537 0.1962-0.07067 0.0426-0.14402 0.0807-0.21946 0.11413z"/>
   <path d="m80.419 142.46c-0.12147 0.16509-0.30726 0.28153-0.5088 0.31887-0.22394 0.0415-0.45434-0.0121-0.67101-0.0822-0.21787-0.0705-0.43486-0.161-0.60531-0.31393-0.09845-0.0883-0.1795-0.19657-0.23296-0.31755-0.05346-0.12098-0.07896-0.2547-0.06985-0.38665 0.0089-0.1286 0.05085-0.25502 0.1223-0.36231 0.07146-0.10728 0.17241-0.19502 0.28945-0.24904 0.13205-0.0609 0.28124-0.0782 0.42631-0.068 0.14507 0.0103 0.28699 0.047 0.42591 0.09 0.14738 0.0457 0.29354 0.0991 0.42592 0.17835 0.13238 0.0793 0.25118 0.18593 0.32681 0.32041 0.07881 0.14012 0.10727 0.30343 0.11336 0.46408 0.0049 0.12931-0.0039 0.25913-0.02619 0.38659-0.0029 4e-3 -0.0058 8e-3 -0.0087 0.0117-0.0024 3e-3 -0.0048 6e-3 -0.0073 0.01z"/>
   <path d="m79.354 145.26c-0.12146 0.1651-0.30726 0.28155-0.5088 0.31889-0.22393 0.0415-0.45433-0.0121-0.671-0.0823-0.21788-0.0706-0.43487-0.16104-0.60532-0.31399-0.09844-0.0883-0.17948-0.19657-0.23293-0.31755-0.05345-0.12098-0.07895-0.25469-0.06985-0.38664 0.0089-0.1286 0.05083-0.25503 0.12228-0.36233 0.07145-0.10729 0.1724-0.19504 0.28945-0.24906 0.13206-0.061 0.28128-0.0782 0.42636-0.0679 0.14509 0.0103 0.28702 0.047 0.42594 0.0901 0.14735 0.0457 0.29347 0.0992 0.42583 0.17841 0.13235 0.0793 0.25112 0.18593 0.32674 0.32039 0.0788 0.14012 0.10728 0.30342 0.11338 0.46406 0.0049 0.12931-0.0039 0.25914-0.02616 0.38661-0.0029 4e-3 -0.0058 8e-3 -0.0087 0.0117-0.0024 3e-3 -0.0048 6e-3 -0.0072 0.01z"/>
   <path d="m80.177 155.46c3.74e-4 0.21095-0.06935 0.42143-0.19559 0.59043-0.15191 0.20337-0.37882 0.34148-0.61895 0.42379-0.2491 0.0854-0.51872 0.11502-0.77866 0.0729-0.1266-0.0205-0.25173-0.0584-0.36138-0.12489-0.10965-0.0665-0.2033-0.16317-0.25318-0.28131-0.05322-0.12603-0.05397-0.27066-0.01673-0.4023s0.11059-0.25103 0.19958-0.35494c0.19226-0.22449 0.45701-0.37931 0.73758-0.47226 0.12749-0.0422 0.25976-0.0726 0.39395-0.0778 0.1342-5e-3 0.27068 0.0153 0.39287 0.071 0.10871 0.0496 0.20386 0.12595 0.28436 0.21425 0.09116 0.1 0.16468 0.216 0.21615 0.34112z"/>
   <path d="m81.065 158.33c3.7e-4 0.21095-0.06936 0.42143-0.19559 0.59043-0.15189 0.20335-0.37877 0.34145-0.61887 0.42375-0.24909 0.0854-0.51871 0.115-0.77865 0.0729-0.12661-0.0205-0.25176-0.0583-0.36143-0.12483-0.10967-0.0665-0.20334-0.16313-0.25325-0.28128-0.05323-0.12603-0.05398-0.27066-0.01674-0.4023 0.03724-0.13165 0.1106-0.25104 0.19959-0.35495 0.19226-0.2245 0.457-0.37936 0.73759-0.47227 0.1275-0.0422 0.25978-0.0725 0.39398-0.0777 0.1342-5e-3 0.27068 0.0154 0.39286 0.0711 0.10871 0.0496 0.20386 0.12596 0.28439 0.21425 0.09112 0.0999 0.16462 0.21584 0.21612 0.34087z"/>
   <path d="m87.243 168.87c-0.13835-0.14632-0.22224-0.343-0.2321-0.54413-0.01178-0.24034 0.07776-0.47302 0.17115-0.69478 0.09141-0.21706 0.19198-0.43775 0.36175-0.601 0.08957-0.0861 0.19704-0.15404 0.31444-0.19477 0.11739-0.0407 0.24465-0.0539 0.36742-0.0348 0.1253 0.0195 0.24523 0.0728 0.34344 0.153 0.09821 0.0802 0.1744 0.1872 0.21773 0.30638 0.05049 0.1389 0.05599 0.29144 0.03285 0.4374-0.02314 0.14597-0.07393 0.28624-0.13349 0.42149-0.12268 0.27858-0.28688 0.54374-0.51433 0.74604-0.13935 0.12395-0.30973 0.2255-0.49601 0.23455-0.07637 4e-3 -0.15419-0.01-0.22249-0.044-0.06831-0.0344-0.12353-0.0895-0.17485-0.14618z"/>
   <path d="m84.776 167.35c-0.13838-0.14631-0.22229-0.34301-0.23212-0.54415-0.01175-0.24034 0.07785-0.47301 0.17127-0.69476 0.09144-0.21705 0.192-0.43773 0.36174-0.60101 0.08955-0.0862 0.19703-0.1541 0.31442-0.19484 0.1174-0.0407 0.24468-0.0539 0.36745-0.0347 0.12527 0.0196 0.24512 0.073 0.34327 0.15324 0.09815 0.0803 0.17431 0.18721 0.2178 0.30631 0.05071 0.13889 0.05665 0.29148 0.03367 0.43754-0.02299 0.14605-0.07393 0.2864-0.13435 0.42135-0.12427 0.27756-0.29189 0.53882-0.51446 0.74606-0.06865 0.0639-0.14284 0.12287-0.22607 0.16613-0.08323 0.0433-0.17615 0.0704-0.26993 0.0685-0.1506-3e-3 -0.29256-0.082-0.39721-0.1903-0.01226-0.0127-0.0241-0.0258-0.03548-0.0393z"/>
  </g>
  <g stroke="#000" stroke-width=".10182px">
   <path d="m14.342 181.74c0.02124-0.17634 0.1083-0.34397 0.24034-0.46276 0.14709-0.13233 0.34671-0.20177 0.54456-0.19959 0.17549 2e-3 0.35192 0.0601 0.48642 0.17283 0.16392 0.13742 0.25694 0.3499 0.26689 0.56357 0.01014 0.21767-0.06367 0.43884-0.20538 0.60438-0.14202 0.1659-0.35039 0.27317-0.56787 0.29303-0.19925 0.0182-0.40613-0.0376-0.56328-0.16137-0.10014-0.0789-0.1794-0.1844-0.22575-0.30316-0.02519-0.0645-0.04021-0.13341-0.03995-0.20269 2.56e-4 -0.0693 0.01685-0.13734 0.03569-0.20401z"/>
   <path d="m43.153 145.47c-0.17762-2.5e-4 -0.35437-0.067-0.48784-0.18417-0.14865-0.13052-0.24094-0.32061-0.26201-0.5173-0.01869-0.1745 0.01826-0.35655 0.11437-0.50339 0.11714-0.17898 0.31719-0.29639 0.52821-0.33144 0.21496-0.0357 0.44327 0.0116 0.62435 0.13279 0.18149 0.12149 0.31261 0.31576 0.35793 0.5294 0.04152 0.19572 0.01049 0.40771-0.09394 0.57837-0.06655 0.10875-0.16196 0.19992-0.27448 0.25988-0.06121 0.0326-0.12794 0.0556-0.19685 0.0635-0.06891 8e-3 -0.13854-5.6e-4 -0.20705-0.0114z"/>
   <path d="m19.341 173.99c-0.17762-2.5e-4 -0.35437-0.067-0.48784-0.18417-0.14865-0.13052-0.24094-0.32061-0.26201-0.5173-0.01869-0.1745 0.01826-0.35655 0.11437-0.50339 0.11714-0.17898 0.31719-0.29639 0.52821-0.33144 0.21496-0.0357 0.44327 0.0116 0.62435 0.13279 0.18149 0.12149 0.31261 0.31576 0.35793 0.5294 0.04152 0.19572 0.01049 0.40771-0.09394 0.57837-0.06655 0.10875-0.16196 0.19992-0.27448 0.25988-0.06121 0.0326-0.12794 0.0556-0.19685 0.0635-0.06891 8e-3 -0.13854-5.6e-4 -0.20705-0.0114z"/>
   <path d="m30.806 206.62c-0.17762-2.5e-4 -0.35437-0.067-0.48784-0.18417-0.14865-0.13052-0.24094-0.32061-0.26201-0.5173-0.01869-0.1745 0.01826-0.35655 0.11437-0.50339 0.11714-0.17898 0.31719-0.29639 0.52821-0.33144 0.21496-0.0357 0.44327 0.0116 0.62435 0.13279 0.18149 0.12149 0.31261 0.31576 0.35793 0.5294 0.04152 0.19572 0.01049 0.40771-0.09394 0.57837-0.06655 0.10875-0.16196 0.19992-0.27448 0.25988-0.06121 0.0326-0.12794 0.0556-0.19685 0.0635-0.06891 8e-3 -0.13854-5.6e-4 -0.20705-0.0114z"/>
   <path d="m90.234 208.49c-0.1235-0.12764-0.19871-0.30093-0.20761-0.47831-0.0099-0.19757 0.06215-0.39621 0.1886-0.54833 0.11218-0.13495 0.26855-0.23521 0.44085-0.26852 0.21004-0.0406 0.43364 0.0212 0.60584 0.14811 0.17546 0.12934 0.30077 0.32608 0.33988 0.54052 0.03918 0.21489-0.0092 0.44426-0.13098 0.62558-0.11157 0.16609-0.28521 0.29159-0.48041 0.33553-0.12438 0.028-0.25624 0.023-0.37764-0.0159-0.06603-0.0212-0.12899-0.053-0.18264-0.0969-0.05364-0.0439-0.09604-0.0998-0.13593-0.15649z"/>
   <path d="m109.3 188.1c-0.17762-2.5e-4 -0.35437-0.067-0.48784-0.18417-0.14865-0.13052-0.24094-0.32061-0.26201-0.5173-0.0187-0.1745 0.0183-0.35655 0.11437-0.50339 0.11714-0.17898 0.31719-0.29639 0.52821-0.33144 0.21496-0.0357 0.44327 0.0116 0.62435 0.13279 0.18149 0.12149 0.3126 0.31576 0.35793 0.5294 0.0415 0.19572 0.0105 0.40771-0.0939 0.57837-0.0665 0.10875-0.16196 0.19992-0.27448 0.25988-0.0612 0.0326-0.12794 0.0556-0.19685 0.0635-0.0689 8e-3 -0.13854-5.6e-4 -0.20705-0.0114z"/>
  </g>
  <g stroke="#000">
   <path d="m102.99 206.03c-1.2369-0.94024-2.3426-2.0528-3.2752-3.2955-1.1096-1.4786-1.991-3.2054-2.08-5.0519-0.03357-0.69644 0.04853-1.4043 0.29868-2.0551 0.25016-0.65083 0.67438-1.2427 1.2465-1.6412 0.72633-0.50595 1.653-0.67357 2.5336-0.58345 0.88057 0.0901 1.7213 0.42138 2.5012 0.83997 2.3944 1.285 4.2621 3.3797 5.7801 5.6336 0.59548 0.88413 1.1517 1.8133 1.4414 2.8391 0.28978 1.0258 0.29096 2.1679-0.1925 3.1179-0.34041 0.66892-0.91104 1.2144-1.5859 1.5429-0.67482 0.32854-1.4494 0.44157-2.1931 0.34018-0.68199-0.093-1.3279-0.3588-1.9502-0.65304-0.62224-0.29425-1.232-0.62035-1.8822-0.84625-0.21079-0.0732-0.42532-0.13574-0.64246-0.18717z" fill="#f61c2d" stroke-width=".4"/>
   <path d="m104.72 202.62c-0.39318 0.56506-1.08 0.91309-1.7682 0.89598-0.68818-0.0171-1.3569-0.39886-1.7215-0.98277-0.2369-0.37939-0.34719-0.83309-0.33088-1.2801 0.0163-0.44698 0.15676-0.88632 0.38553-1.2707 0.28234-0.47435 0.6988-0.87333 0.8882-1.3918 0.0947-0.25925 0.12705-0.54862 0.0448-0.81208-0.0411-0.13173-0.11074-0.25522-0.20672-0.35438-0.096-0.0992-0.21864-0.1734-0.35262-0.20649-0.17496-0.0432-0.36357-0.0147-0.52649 0.0624-0.16292 0.077-0.30122 0.20032-0.41184 0.3426-0.22123 0.28456-0.33195 0.63664-0.46278 0.9725-0.0654 0.16793-0.13714 0.33421-0.23138 0.48783s-0.21196 0.29485-0.358 0.40045-0.32179 0.17418-0.50199 0.17704c-0.1802 3e-3 -0.36389-0.0638-0.48816-0.19431-0.09091-0.0955-0.14735-0.22144-0.16668-0.35186-0.01933-0.13042-0.0026-0.26496 0.03992-0.38977 0.08496-0.24962 0.26755-0.4545 0.46786-0.62598 0.20031-0.17147 0.42221-0.31672 0.61915-0.49206 0.19694-0.17534 0.37212-0.38838 0.44237-0.64253 0.0486-0.17596 0.0444-0.36307 0.0143-0.54313-0.0301-0.18007-0.0852-0.35482-0.13793-0.5296-0.05269-0.17479-0.10328-0.3513-0.12376-0.53271-0.02048-0.1814-0.0097-0.36935 0.05732-0.53917 0.061-0.15464 0.16754-0.28993 0.29908-0.39157 0.13154-0.10165 0.28747-0.17012 0.44985-0.2057 0.32476-0.0712 0.66757-0.0109 0.97584 0.11362 0.61656 0.24901 1.1071 0.739 1.7077 1.0243 0.41139 0.19545 0.86582 0.29062 1.2711 0.49842 0.20265 0.1039 0.39316 0.23712 0.5398 0.41135 0.14665 0.17423 0.24741 0.39199 0.2582 0.61946 9e-3 0.20007-0.0509 0.40022-0.15438 0.57172-0.10347 0.1715-0.24855 0.3155-0.41057 0.43327-0.32404 0.23554-0.70988 0.36647-1.0785 0.52341-0.36857 0.15694-0.73838 0.35387-0.97458 0.67743-0.11811 0.16178-0.19887 0.35354-0.21395 0.55327-0.0151 0.19973 0.0386 0.40701 0.16313 0.56392 0.12332 0.15543 0.31049 0.25453 0.50627 0.28675 0.19577 0.0322 0.39911 4.8e-4 0.58334-0.0732 0.36845-0.14732 0.65091-0.44944 0.90153-0.7571 0.25062-0.30767 0.48795-0.63544 0.81081-0.86616 0.16143-0.11536 0.34367-0.2047 0.53824-0.24353 0.19458-0.0388 0.402-0.0252 0.58317 0.0557 0.13711 0.0612 0.25663 0.1597 0.34741 0.2793 0.0908 0.11961 0.15314 0.25992 0.18655 0.40631 0.0668 0.29279 0.0173 0.6039-0.0982 0.88111-0.23106 0.55441-0.70089 0.96573-1.0932 1.4205-0.14774 0.17125-0.2881 0.35472-0.36466 0.56754-0.0383 0.10641-0.0599 0.21944-0.0567 0.33247 3e-3 0.11304 0.032 0.22609 0.0892 0.32365 0.0527 0.0899 0.12889 0.16541 0.2174 0.22044 0.0885 0.055 0.18908 0.0898 0.2922 0.10487 0.20625 0.0301 0.41883-0.0188 0.60571-0.11108 0.37376-0.18462 0.63994-0.52587 0.933-0.82235 0.14653-0.14824 0.30386-0.28835 0.48477-0.39187s0.38764-0.16923 0.59588-0.16018c0.10412 5e-3 0.20774 0.0278 0.30228 0.0717 0.0945 0.0439 0.17981 0.10852 0.24473 0.19005 0.0649 0.0815 0.10907 0.18003 0.12316 0.28329 0.0141 0.10327-2e-3 0.21103-0.05 0.30374-0.0691 0.13457-0.19819 0.22993-0.33638 0.29148-0.13818 0.0615-0.28729 0.0935-0.43337 0.13278-0.14609 0.0393-0.29288 0.0875-0.41536 0.17626-0.0613 0.0444-0.11576 0.0988-0.15632 0.16261-0.0406 0.0638-0.0668 0.13736-0.0712 0.21287-6e-3 0.1069 0.0319 0.21346 0.0935 0.30106s0.14552 0.15753 0.23575 0.21519c0.18046 0.11533 0.38837 0.18505 0.56093 0.31188 0.12286 0.0903 0.22531 0.20872 0.29442 0.34463 0.0691 0.1359 0.10452 0.28917 0.0991 0.44155-5e-3 0.15237-0.0518 0.30347-0.13539 0.431-0.0836 0.12753-0.20427 0.23088-0.3443 0.2912-0.18763 0.0808-0.39932 0.0826-0.60308 0.0678-0.20376-0.0149-0.4083-0.0451-0.61146-0.0234-0.20633 0.022-0.40384 0.0968-0.58902 0.19041-0.18519 0.0936-0.36005 0.2061-0.53991 0.30955-0.17987 0.10344-0.36656 0.19855-0.56664 0.25351-0.20008 0.0549-0.41562 0.068-0.61422 8e-3 -0.20975-0.0634-0.39142-0.20711-0.51524-0.38791-0.13497-0.19709-0.20273-0.43498-0.22027-0.67321-0.0175-0.23823 0.0131-0.47774 0.0618-0.71159 0.0975-0.4677 0.26802-0.92543 0.27712-1.4031 5e-3 -0.28568-0.0482-0.57236-0.15663-0.83673z" fill="#fd939d" stroke-width=".4"/>
   <path d="m41.72 139.39c-0.1235-0.12764-0.19871-0.30093-0.20761-0.47831-0.0099-0.19757 0.06214-0.39621 0.1886-0.54833 0.11218-0.13495 0.26855-0.2352 0.44085-0.26851 0.21004-0.0406 0.43364 0.0212 0.60584 0.1481 0.17546 0.12934 0.30077 0.32608 0.33988 0.54052 0.03918 0.21489-0.0092 0.44426-0.13098 0.62558-0.11157 0.16609-0.28521 0.29159-0.48041 0.33553-0.12438 0.028-0.25624 0.023-0.37764-0.0159-0.06603-0.0212-0.12899-0.053-0.18264-0.0969-0.05364-0.0439-0.09604-0.0998-0.13593-0.15649z" stroke-width=".10182px"/>
   <path d="m16.119 194.91c1.0795-1.1175 2.3145-2.0845 3.6583-2.8644 1.5989-0.92796 3.4175-1.6002 5.2617-1.4707 0.69547 0.0489 1.3886 0.21402 2.0053 0.53914 0.61674 0.32511 1.1545 0.81588 1.4834 1.4306 0.41773 0.78077 0.47653 1.721 0.28377 2.5852s-0.62137 1.6604-1.1314 2.3843c-1.5642 2.2199-3.8781 3.8-6.2751 5.0765-0.94716 0.50438-1.9322 0.9748-2.9907 1.1514-0.52923 0.0883-1.0736 0.10115-1.6017 7e-3 -0.52814-0.0946-1.0399-0.29869-1.4702-0.61914-0.59081-0.43995-1.0102-1.088-1.2365-1.789-0.22631-0.701-0.26708-1.4531-0.18846-2.1856 0.12905-1.2022 0.58276-2.3724 1.3247-3.3272 0.26009-0.33471 0.55448-0.64275 0.87706-0.91774z" fill="#f61c2d" stroke-width=".4"/>
   <path d="m19.298 197.03c-0.51483-0.45698-0.77956-1.18-0.68152-1.8614 0.09804-0.68138 0.55587-1.3004 1.1787-1.5938 0.40465-0.19057 0.86818-0.24667 1.3101-0.17783 0.44195 0.0688 0.8617 0.26004 1.2164 0.53248 0.4378 0.33624 0.78496 0.79679 1.2776 1.0459 0.2463 0.12457 0.52985 0.19077 0.80116 0.14009 0.13566-0.0253 0.26648-0.0799 0.37626-0.16355 0.10978-0.0836 0.19794-0.1967 0.24658-0.32585 0.06351-0.16866 0.05738-0.35931 5.9e-5 -0.53017-0.05733-0.17086-0.16346-0.32272-0.29172-0.44932-0.25652-0.25321-0.59312-0.40462-0.91123-0.57409-0.15906-0.0847-0.31574-0.17554-0.45719-0.28722-0.14145-0.11167-0.26784-0.2452-0.3555-0.40266-0.08767-0.15747-0.13507-0.34007-0.1167-0.51935 0.01837-0.17928 0.1062-0.35384 0.25045-0.46188 0.10553-0.079 0.23726-0.12025 0.36904-0.12408 0.13179-4e-3 0.26342 0.0287 0.38236 0.0855 0.23788 0.11377 0.41983 0.31921 0.56652 0.53832 0.14669 0.21912 0.2648 0.45657 0.41573 0.67279 0.15093 0.21622 0.34185 0.41527 0.58596 0.51496 0.16901 0.069 0.35532 0.0868 0.53767 0.0782 0.18235-9e-3 0.36238-0.0429 0.54215-0.0746 0.17978-0.0317 0.36102-0.0612 0.54357-0.0602 0.18255 1e-3 0.36792 0.0339 0.52867 0.12041 0.14638 0.0788 0.26818 0.20052 0.35363 0.34311 0.08545 0.14259 0.13508 0.3055 0.15129 0.47094 0.03242 0.33089-0.0678 0.66421-0.22775 0.95567-0.31988 0.58294-0.86423 1.0123-1.2183 1.5752-0.24253 0.38552-0.39056 0.82558-0.64464 1.2036-0.12704 0.189-0.28177 0.3625-0.47206 0.48761-0.19029 0.1251-0.41839 0.19952-0.64555 0.18345-0.1998-0.0141-0.39144-0.0977-0.54956-0.22063-0.15812-0.12295-0.28403-0.28398-0.3819-0.45874-0.19574-0.34952-0.28033-0.74809-0.39278-1.1326-0.11244-0.38449-0.26446-0.77491-0.55795-1.0476-0.14674-0.13633-0.32766-0.23911-0.52423-0.27761-0.19656-0.0385-0.40873-0.01-0.57921 0.0956-0.16887 0.10416-0.28932 0.27836-0.34438 0.46898-0.05506 0.19061-0.04747 0.39627 4e-3 0.58789 0.10291 0.38325 0.36966 0.69931 0.64567 0.98442 0.27601 0.2851 0.57355 0.55939 0.76465 0.90716 0.09555 0.17389 0.1628 0.36539 0.17845 0.56318 0.01565 0.19779-0.02233 0.40216-0.12399 0.57255-0.07693 0.12895-0.1888 0.23604-0.31827 0.31211-0.12946 0.0761-0.27614 0.12146-0.42546 0.1374-0.29862 0.0319-0.60174-0.0539-0.86341-0.20127-0.52335-0.29473-0.87647-0.80974-1.2819-1.2529-0.15266-0.16688-0.31833-0.32787-0.52065-0.42896-0.10116-0.0505-0.21085-0.0854-0.32349-0.0954-0.11264-0.0101-0.22828 5e-3 -0.3319 0.0505-0.09548 0.0417-0.17942 0.10852-0.24449 0.18992-0.06507 0.0814-0.11144 0.17718-0.13854 0.2778-0.05419 0.20126-0.03069 0.41811 0.03897 0.61455 0.13932 0.39287 0.44682 0.69738 0.7067 1.0233 0.12994 0.16296 0.25054 0.33569 0.33203 0.52752 0.08149 0.19183 0.1224 0.40485 0.08889 0.61056-0.01675 0.10286-0.05208 0.20301-0.10677 0.29172-0.05469 0.0887-0.12893 0.16577-0.21753 0.22063-0.0886 0.0549-0.19161 0.0871-0.29581 0.0889-0.1042 2e-3 -0.20926-0.0273-0.29572-0.0854-0.12549-0.0844-0.20499-0.22386-0.24984-0.36831s-0.05907-0.29626-0.08086-0.44594-0.05241-0.30111-0.12613-0.43318c-0.03686-0.066-0.08444-0.12657-0.14305-0.17436-0.05861-0.0478-0.12852-0.0825-0.20298-0.0958-0.10541-0.0188-0.21571 6e-3 -0.30994 0.0573-0.09424 0.0508-0.17357 0.12591-0.24146 0.2087-0.13578 0.16558-0.22952 0.36379-0.37578 0.5202-0.10413 0.11136-0.23379 0.19916-0.37688 0.25179-0.14309 0.0526-0.29945 0.0698-0.45013 0.0465-0.15068-0.0233-0.29526-0.0872-0.41207-0.18513-0.11681-0.098-0.20524-0.23-0.24866-0.37615-0.05819-0.19584-0.03505-0.40627 0.0037-0.60686 0.03876-0.2006 0.09283-0.40016 0.0953-0.60445 0.0025-0.20747-0.04859-0.41243-0.11971-0.60735-0.07112-0.19492-0.16227-0.38181-0.24381-0.57261-0.08155-0.19079-0.15401-0.38738-0.18502-0.59254-0.03101-0.20516-0.01862-0.42074 0.06442-0.61089 0.0877-0.20082 0.25176-0.3643 0.44588-0.46597 0.21161-0.11083 0.45583-0.1501 0.69447-0.13946 0.23864 0.0106 0.47287 0.0693 0.69936 0.14521 0.45297 0.15186 0.88743 0.37514 1.3607 0.44043 0.28305 0.0391 0.57405 0.0195 0.84935-0.057z" fill="#fd939d" stroke-width=".4"/>
  </g>
  <g fill="none" stroke="#d5010f" stroke-linecap="round" stroke-width=".9">
   <path d="m44.946 153.97c0.1905 1.2947 0.25873 2.5454 0.20475 3.7562"/>
   <path d="m19.958 131.11c1.1069-0.69818 2.1007-1.4605 2.9847-2.2896"/>
   <path d="m87.966 189.85c-0.88762 0.96164-1.8177 1.8004-2.7937 2.5192"/>
   <path d="m126.84 121.75c-1.3049 0.099-2.5572 0.0791-3.7613-0.0599"/>
  </g>
 </g>
</svg>
