<?xml version="1.0" encoding="UTF-8" standalone="no"?>
<!-- Created with Inkscape (http://www.inkscape.org/) -->

<svg
   xmlns:dc="http://purl.org/dc/elements/1.1/"
   xmlns:cc="http://creativecommons.org/ns#"
   xmlns:rdf="http://www.w3.org/1999/02/22-rdf-syntax-ns#"
   xmlns:svg="http://www.w3.org/2000/svg"
   xmlns="http://www.w3.org/2000/svg"
   xmlns:sodipodi="http://sodipodi.sourceforge.net/DTD/sodipodi-0.dtd"
   xmlns:inkscape="http://www.inkscape.org/namespaces/inkscape"
   width="150.588mm"
   height="150.588mm"
   viewBox="0 0 150.588 150.588"
   version="1.1"
   id="svg8"
   inkscape:version="0.92.3 (2405546, 2018-03-11)"
   sodipodi:docname="bondtype.svg">
  <defs
     id="defs2" />
  <sodipodi:namedview
     id="base"
     pagecolor="#ffffff"
     bordercolor="#666666"
     borderopacity="1.0"
     inkscape:pageopacity="0.0"
     inkscape:pageshadow="2"
     inkscape:zoom="0.41894376"
     inkscape:cx="288.44926"
     inkscape:cy="386.52838"
     inkscape:document-units="mm"
     inkscape:current-layer="layer1"
     showgrid="false"
     showguides="true"
     inkscape:guide-bbox="true"
     inkscape:window-width="1366"
     inkscape:window-height="719"
     inkscape:window-x="0"
     inkscape:window-y="25"
     inkscape:window-maximized="1" />
  <metadata
     id="metadata5">
    <rdf:RDF>
      <cc:Work
         rdf:about="">
        <dc:format>image/svg+xml</dc:format>
        <dc:type
           rdf:resource="http://purl.org/dc/dcmitype/StillImage" />
        <dc:title></dc:title>
      </cc:Work>
    </rdf:RDF>
  </metadata>
  <g
     inkscape:label="Layer 1"
     inkscape:groupmode="layer"
     id="layer1"
     transform="translate(134.96853,-128.83985)">
    <circle
       style="display:inline;opacity:1;fill:#fc6671;fill-opacity:1;stroke:none;stroke-width:0.09486723;stroke-miterlimit:4;stroke-dasharray:none;stroke-opacity:1"
       id="path11050-7-0-93-4-9-9"
       cx="-65.466911"
       cy="183.59674"
       r="9.8079872" />
    <path
       style="opacity:1;fill:#33d917;fill-opacity:1;fill-rule:nonzero;stroke:#33d917;stroke-width:1.26552677;stroke-linecap:square;stroke-miterlimit:4;stroke-dasharray:none;stroke-dashoffset:0;stroke-opacity:1;paint-order:markers fill stroke"
       id="path35367"
       d="m -113.55029,161.68534 c -0.0826,-0.46136 0.1039,-0.89788 0.27459,-1.31468 0.28434,-0.69448 0.006,-0.14431 0.36927,-0.80528 0.31936,-0.61286 0.6853,-1.22718 1.21816,-1.67841 0.22471,-0.24756 0.0954,-0.14251 0.38959,-0.3131 0.58279,-0.44889 1.21762,0.37528 0.63483,0.82417 v 0 c -0.24964,0.0715 -0.14545,3.3e-4 -0.30368,0.22538 -0.29647,0.16814 -0.29184,0.27636 -0.50104,0.52994 -0.065,0.0788 -0.14826,0.14265 -0.20758,0.22599 -0.11529,0.16197 -0.2429,0.4581 -0.32571,0.63621 -0.20595,0.39098 -0.47083,0.82595 -0.53997,1.27044 -0.0127,0.0778 0.0128,0.15761 0.006,0.23606 -0.005,0.0558 -0.0262,0.10884 -0.0392,0.16328 0,0.68984 -0.97559,0.68984 -0.97559,0 z"
       inkscape:connector-curvature="0" />
    <path
       style="opacity:1;fill:#33d917;fill-opacity:1;fill-rule:nonzero;stroke:#33d917;stroke-width:1.26552677;stroke-linecap:square;stroke-miterlimit:4;stroke-dasharray:none;stroke-dashoffset:0;stroke-opacity:1;paint-order:markers fill stroke"
       id="path35367-7"
       d="m -98.212029,161.83858 c 0.08264,-0.46136 -0.1039,-0.89788 -0.274607,-1.31468 -0.284326,-0.69448 -0.0063,-0.14431 -0.369255,-0.80528 -0.319356,-0.61286 -0.685296,-1.22718 -1.218169,-1.6784 -0.2247,-0.24757 -0.0954,-0.14251 -0.38959,-0.31311 -0.58278,-0.44889 -1.21761,0.37528 -0.63483,0.82418 v 0 c 0.24965,0.0715 0.14546,3.3e-4 0.30369,0.22537 0.29647,0.16814 0.29184,0.27636 0.50105,0.52994 0.065,0.0788 0.14825,0.14265 0.20757,0.22599 0.115286,0.16197 0.242902,0.45811 0.325705,0.63622 0.205952,0.39097 0.47084,0.82594 0.539975,1.27043 0.01266,0.0778 -0.01291,0.15761 -0.0063,0.23606 0.0051,0.0558 0.0262,0.10884 0.03923,0.16328 0,0.68984 0.975582,0.68984 0.975582,0 z"
       inkscape:connector-curvature="0" />
    <path
       style="opacity:1;fill:#33d917;fill-opacity:1;fill-rule:nonzero;stroke:#33d917;stroke-width:1;stroke-linecap:square;stroke-miterlimit:4;stroke-dasharray:none;stroke-dashoffset:0;stroke-opacity:1;paint-order:markers fill stroke"
       id="path39087"
       d="m -55.814547,187.89765 c 0.23202,0.12507 0.32055,0.27315 0.48333,0.46053 0.059,0.0679 0.1317,0.12297 0.19203,0.18974 0.22157,0.24523 0.18589,0.22386 0.34195,0.52212 0.24859,0.45104 0.0958,0.12823 0.26877,0.63473 0.0383,0.11217 0.0968,0.21801 0.12319,0.33356 0.0274,0.11978 0.0174,0.24543 0.0367,0.36677 0.13924,0.87422 0.0401,-0.13162 0.11295,0.76282 -0.0411,0.26312 0.0787,0.51127 0.0851,0.76913 0.003,0.12676 -0.0365,0.25144 -0.0412,0.37814 -0.0132,0.34925 0.021,0.70992 0.0267,1.05993 -0.0987,0.84326 0.004,-0.19578 -0.0165,0.58578 -0.0236,0.91329 -0.0529,-0.36215 -0.0259,0.46891 -0.018,0.57142 -0.82612,0.54595 -0.80811,-0.0255 v 0 c 0.0439,-0.34588 0.0165,-0.6956 0.0345,-1.04423 0.0217,-0.46199 -0.0177,-0.92234 -0.009,-1.38472 0.002,-0.12136 0.0289,-0.24168 0.0282,-0.36306 -7.4e-4,-0.12024 -0.0217,-0.2395 -0.0326,-0.35925 -0.0442,-0.2272 -0.0776,-0.4564 -0.12248,-0.68347 -0.17949,-0.90863 0.0373,0.26424 -0.16306,-0.60739 -0.0205,-0.089 -0.0141,-0.18349 -0.0402,-0.27102 -0.024,-0.0805 -0.0722,-0.15171 -0.10825,-0.22756 -0.11131,-0.22744 -0.23303,-0.41675 -0.42217,-0.58978 -0.0148,-0.0136 -0.25882,-0.19423 -0.28732,-0.22529 -0.0238,-0.026 -0.0347,-0.0614 -0.052,-0.092 -0.46591,-0.27955 -0.0706,-0.93845 0.39534,-0.65891 z"
       inkscape:connector-curvature="0" />
    <rect
       style="opacity:0.82599996;fill:none;fill-opacity:1;stroke:#000000;stroke-width:0.588;stroke-linecap:square;stroke-miterlimit:4;stroke-dasharray:none;stroke-dashoffset:0;stroke-opacity:0.82745098;paint-order:markers fill stroke;enable-background:new"
       id="rect1637-6"
       width="150"
       height="150"
       x="-134.67453"
       y="129.13385"
       ry="0"
       rx="0" />
    <path
       style="opacity:1;fill:#33d917;fill-opacity:1;fill-rule:nonzero;stroke:#33d917;stroke-width:0.29475695;stroke-linecap:square;stroke-miterlimit:4;stroke-dasharray:none;stroke-dashoffset:0;stroke-opacity:1;paint-order:markers fill stroke"
       id="path39116"
       d="m -116.64807,170.82404 c -0.0333,0.094 -0.0995,0.18147 -0.0998,0.28187 -6.2e-4,0.144 0.0867,0.27597 0.0968,0.41957 0.0127,0.17266 -0.0261,0.34529 -0.031,0.51835 -0.0187,0.65124 -0.009,1.28881 -0.0577,1.93967 0.0258,0.23934 0.0666,0.47738 0.0773,0.71801 0.0127,0.27903 -0.0356,1.14225 -0.0346,1.42527 10e-4,0.60803 0.0248,1.22296 0.0632,1.82961 0,0.90034 -1.19802,0.90034 -1.19802,0 v 0 c -0.0305,-0.61501 -0.0101,-1.2149 -0.008,-1.82961 0.003,-0.47532 -0.0554,-0.95013 -0.0425,-1.42527 0.006,-0.24034 0.0435,-0.47867 0.0652,-0.71801 -0.008,-0.44593 0.0166,-0.89234 5e-4,-1.33803 -0.008,-0.20143 -0.06,-0.40007 -0.0577,-0.60164 0.003,-0.17458 0.0668,-0.34381 0.0707,-0.51835 0.003,-0.14094 -0.0333,-0.27971 -0.05,-0.41957 0.004,-0.094 0.008,-0.18793 0.0114,-0.28187 0,-0.89634 1.1927,-0.89634 1.1927,0 z"
       inkscape:connector-curvature="0" />
    <path
       style="opacity:1;fill:#33d917;fill-opacity:1;fill-rule:nonzero;stroke:#33d917;stroke-width:0.29475695;stroke-linecap:square;stroke-miterlimit:4;stroke-dasharray:none;stroke-dashoffset:0;stroke-opacity:1;paint-order:markers fill stroke"
       id="path39116-7"
       d="m -112.78167,171.02491 c -0.0333,0.094 -0.0995,0.18149 -0.0998,0.2819 -6.4e-4,0.144 0.0867,0.27596 0.0968,0.41956 0.0127,0.17264 -0.0261,0.34529 -0.031,0.51833 -0.0187,0.65126 -0.009,1.28883 -0.0577,1.93969 0.0258,0.23935 0.0666,0.47738 0.0773,0.71801 0.0127,0.27905 -0.0356,1.14225 -0.0346,1.42527 0.003,0.60801 0.0248,1.22294 0.0632,1.82961 0,0.90032 -1.19802,0.90032 -1.19802,0 v 0 c -0.0305,-0.61501 -0.0101,-1.2149 -0.008,-1.82961 0.003,-0.47532 -0.0554,-0.95014 -0.0425,-1.42527 0.006,-0.24035 0.0435,-0.47866 0.0652,-0.71801 -0.008,-0.44593 0.0166,-0.89234 5e-4,-1.33803 -0.008,-0.20143 -0.06,-0.40007 -0.0577,-0.60166 0.003,-0.17456 0.0668,-0.34379 0.0707,-0.51833 0.003,-0.14093 -0.0333,-0.27972 -0.05,-0.41956 0.004,-0.094 0.008,-0.18793 0.0127,-0.2819 0,-0.89633 1.19269,-0.89633 1.19269,0 z"
       inkscape:connector-curvature="0" />
    <path
       style="opacity:1;fill:#33d917;fill-opacity:1;fill-rule:nonzero;stroke:#33d917;stroke-width:0.24474168;stroke-linecap:square;stroke-miterlimit:4;stroke-dasharray:none;stroke-dashoffset:0;stroke-opacity:1;paint-order:markers fill stroke"
       id="path39116-3"
       d="m -113.14108,175.09654 c -0.061,-0.0353 -0.1177,-0.10567 -0.18287,-0.10617 -0.0934,-6.8e-4 -0.17902,0.0922 -0.27216,0.10288 -0.112,0.0128 -0.22399,-0.0277 -0.33624,-0.0332 -0.42246,-0.0199 -0.83605,-0.009 -1.25825,-0.0613 -0.15526,0.0275 -0.30966,0.0708 -0.46577,0.0821 -0.18101,0.0132 -0.74096,-0.0377 -0.92454,-0.0367 -0.39441,0.001 -0.79332,0.0264 -1.18685,0.0672 -0.58404,0 -0.58404,-1.27328 0,-1.27328 v 0 c 0.39895,-0.0324 0.78809,-0.0114 1.18685,-0.008 0.30832,0.004 0.61634,-0.059 0.92454,-0.0452 0.15592,0.008 0.31051,0.0462 0.46577,0.0692 0.28927,-0.008 0.57885,0.0176 0.86796,5.4e-4 0.13068,-0.008 0.25952,-0.0638 0.39029,-0.0613 0.11326,0.001 0.22302,0.0711 0.33624,0.0752 0.0914,0.004 0.18145,-0.0353 0.27216,-0.053 0.061,0.005 0.12187,0.008 0.18287,0.0127 0.58143,0 0.58143,1.2676 0,1.2676 z"
       inkscape:connector-curvature="0" />
    <path
       style="opacity:1;fill:#33d917;fill-opacity:1;fill-rule:nonzero;stroke:#33d917;stroke-width:0.29475695;stroke-linecap:square;stroke-miterlimit:4;stroke-dasharray:none;stroke-dashoffset:0;stroke-opacity:1;paint-order:markers fill stroke"
       id="path39116-71"
       d="m -98.352351,170.94954 c -0.03328,0.094 -0.09947,0.18147 -0.09985,0.28187 -6.33e-4,0.144 0.08669,0.27597 0.09681,0.41957 0.01266,0.17266 -0.02607,0.34529 -0.03101,0.51835 -0.01873,0.65124 -0.0089,1.28881 -0.05771,1.93967 0.02582,0.23934 0.06657,0.47738 0.07732,0.71801 0.01265,0.27904 -0.03556,1.14225 -0.03455,1.42528 0.0025,0.60802 0.0248,1.22295 0.06315,1.82961 0,0.90033 -1.198024,0.90033 -1.198024,0 v 0 c -0.0305,-0.61501 -0.01012,-1.21491 -0.0076,-1.82961 0.0025,-0.47532 -0.05543,-0.95014 -0.04252,-1.42528 0.0063,-0.24034 0.04353,-0.47867 0.0653,-0.71801 -0.0076,-0.44593 0.01658,-0.89233 4.93e-4,-1.33803 -0.0076,-0.20143 -0.05999,-0.40007 -0.05771,-0.60164 0.0013,-0.17458 0.06682,-0.34381 0.07074,-0.51835 0.0025,-0.14094 -0.03328,-0.2797 -0.04999,-0.41957 0.0038,-0.094 0.0076,-0.18793 0.01265,-0.28187 0,-0.89634 1.192696,-0.89634 1.192696,0 z"
       inkscape:connector-curvature="0" />
    <path
       style="opacity:1;fill:#33d917;fill-opacity:1;fill-rule:nonzero;stroke:#33d917;stroke-width:0.29475695;stroke-linecap:square;stroke-miterlimit:4;stroke-dasharray:none;stroke-dashoffset:0;stroke-opacity:1;paint-order:markers fill stroke"
       id="path39116-7-2"
       d="m -94.485958,171.15042 c -0.03328,0.094 -0.09943,0.18148 -0.09986,0.28189 -6.36e-4,0.14401 0.08671,0.27596 0.09679,0.41956 0.01215,0.17264 -0.02607,0.34529 -0.03102,0.51834 -0.01868,0.65125 -0.0087,1.28882 -0.05766,1.93968 0.02578,0.23935 0.06663,0.47738 0.07734,0.71801 0.0124,0.27905 -0.03551,1.14225 -0.03458,1.42527 0.0019,0.60801 0.02487,1.22295 0.06319,1.82961 0,0.90033 -1.198025,0.90033 -1.198025,0 v 0 c -0.03049,-0.615 -0.01076,-1.2149 -0.0071,-1.82961 0.0028,-0.47531 -0.05543,-0.95014 -0.04252,-1.42527 0.0066,-0.24035 0.04348,-0.47866 0.06522,-0.71801 -0.0078,-0.44593 0.01657,-0.89233 5.01e-4,-1.33803 -0.0072,-0.20143 -0.06004,-0.40007 -0.05768,-0.60165 0.0019,-0.17457 0.06687,-0.3438 0.07073,-0.51834 0.003,-0.14093 -0.0333,-0.27972 -0.04995,-0.41956 0.004,-0.094 0.008,-0.18793 0.01202,-0.28189 0,-0.89634 1.192693,-0.89634 1.192693,0 z"
       inkscape:connector-curvature="0" />
    <path
       style="opacity:1;fill:#33d917;fill-opacity:1;fill-rule:nonzero;stroke:#33d917;stroke-width:0.24474168;stroke-linecap:square;stroke-miterlimit:4;stroke-dasharray:none;stroke-dashoffset:0;stroke-opacity:1;paint-order:markers fill stroke"
       id="path39116-3-2"
       d="m -94.845374,175.22205 c -0.061,-0.0353 -0.117732,-0.10568 -0.182861,-0.10618 -0.0934,-6.7e-4 -0.179021,0.0923 -0.272172,0.10288 -0.111999,0.0128 -0.223978,-0.0277 -0.336238,-0.0332 -0.422449,-0.0199 -0.836036,-0.009 -1.258247,-0.0613 -0.155257,0.0275 -0.309664,0.0707 -0.465754,0.0821 -0.181021,0.0132 -0.740966,-0.0377 -0.924556,-0.0367 -0.394414,0.001 -0.793308,0.0265 -1.186849,0.0672 -0.584039,0 -0.584039,-1.27327 0,-1.27327 v 0 c 0.398945,-0.0324 0.788094,-0.0114 1.186849,-0.008 0.308333,0.004 0.616337,-0.059 0.924556,-0.0452 0.1559,0.008 0.310497,0.0462 0.465754,0.0692 0.28927,-0.008 0.578856,0.0176 0.867964,5.3e-4 0.130672,-0.008 0.259525,-0.0638 0.390283,-0.0613 0.113252,0.001 0.223024,0.0711 0.336238,0.0752 0.0914,0.004 0.18145,-0.0353 0.272172,-0.053 0.061,0.005 0.121908,0.008 0.182861,0.0127 0.581439,0 0.581439,1.2676 0,1.2676 z"
       inkscape:connector-curvature="0" />
    <circle
       style="display:inline;opacity:1;fill:#82e2d7;fill-opacity:1;stroke:none;stroke-width:0.072257;stroke-miterlimit:4;stroke-dasharray:none;stroke-opacity:1"
       id="path11050-7-0-93-4-9-9-6-1"
       cx="-269.164"
       cy="-43.978558"
       transform="rotate(-75.167801)"
       r="7.4703946" />
    <path
       style="opacity:1;fill:#33d917;fill-opacity:1;fill-rule:nonzero;stroke:#33d917;stroke-width:1.26552677;stroke-linecap:square;stroke-miterlimit:4;stroke-dasharray:none;stroke-dashoffset:0;stroke-opacity:1;paint-order:markers fill stroke"
       id="path35367-7-9"
       d="m -110.52349,240.7093 c 0.0382,-0.46714 0.33029,-0.84137 0.602,-1.20058 0.45263,-0.59856 0.0431,-0.13788 0.5631,-0.68393 0.4656,-0.51068 0.9766,-1.01086 1.60723,-1.31064 0.28058,-0.18179 0.12872,-0.11339 0.45676,-0.20294 0.67827,-0.28474 1.08097,0.67447 0.4027,0.95923 v 0 c -0.25964,0.005 -0.1407,-0.0369 -0.35127,0.14012 -0.32963,0.0867 -0.35286,0.19244 -0.62001,0.38402 -0.0831,0.0596 -0.17983,0.1 -0.2585,0.16532 -0.15292,0.12707 -0.35208,0.38066 -0.47772,0.53165 -0.29918,0.32521 -0.66659,0.67789 -0.8472,1.08987 -0.0322,0.072 -0.0279,0.15566 -0.0543,0.22982 -0.0192,0.0526 -0.0532,0.0985 -0.0797,0.14779 -0.1766,0.66685 -1.11967,0.41711 -0.94308,-0.24974 z"
       inkscape:connector-curvature="0" />
    <path
       style="opacity:1;fill:#33d917;fill-opacity:1;fill-rule:nonzero;stroke:#33d917;stroke-width:1.26552677;stroke-linecap:square;stroke-miterlimit:4;stroke-dasharray:none;stroke-dashoffset:0;stroke-opacity:1;paint-order:markers fill stroke"
       id="path35367-7-0"
       d="m -95.016372,229.95163 c -0.424832,-0.19799 -0.894558,-0.12942 -1.34117,-0.0711 -0.744127,0.0971 -0.14112,-0.0308 -0.872973,0.15082 -0.674188,0.15183 -1.361719,0.34832 -1.934318,0.74792 -0.296833,0.15384 -0.16219,0.0558 -0.402404,0.29647 -0.583123,0.44844 0.05109,1.27309 0.634205,0.82465 v 0 c 0.133027,-0.22302 0.03755,-0.14052 0.295608,-0.23588 0.238431,-0.24355 0.341854,-0.21137 0.640545,-0.34869 0.09287,-0.0427 0.175849,-0.10681 0.271591,-0.1428 0.186091,-0.07 0.505025,-0.11757 0.698398,-0.15199 0.430666,-0.099 0.918954,-0.24372 1.366333,-0.19677 0.07848,0.008 0.149053,0.0528 0.226572,0.0666 0.05525,0.009 0.111911,0.003 0.167881,0.004 0.666853,0.17659 0.916592,-0.76648 0.249739,-0.94307 z"
       inkscape:connector-curvature="0" />
    <path
       style="opacity:1;fill:#33d917;fill-opacity:1;fill-rule:nonzero;stroke:#33d917;stroke-width:1.26552677;stroke-linecap:square;stroke-miterlimit:4;stroke-dasharray:none;stroke-dashoffset:0;stroke-opacity:1;paint-order:markers fill stroke"
       id="path35367-7-4"
       d="m -86.140741,230.28942 c -0.324036,-0.33865 -0.78662,-0.44521 -1.223953,-0.55293 -0.728624,-0.17958 -0.120313,-0.08 -0.868195,-0.17627 -0.683323,-0.10314 -1.395288,-0.16956 -2.073874,-0.005 -0.332428,0.0357 -0.171375,-0.006 -0.482554,0.13023 -0.706107,0.20626 -0.414367,1.20485 0.291714,0.99857 v 0 c 0.2049,-0.15954 0.08604,-0.11731 0.361053,-0.1125 0.310562,-0.14044 0.395255,-0.0729 0.723416,-0.0925 0.102027,-0.006 0.202621,-0.0357 0.304904,-0.0345 0.198806,0.003 0.513254,0.0738 0.705949,0.11187 0.437229,0.064 0.944751,0.1063 1.344591,0.31247 0.07029,0.0357 0.119719,0.10327 0.186979,0.14423 0.04814,0.0289 0.103305,0.043 0.155039,0.0646 0.55731,0.40655 1.132259,-0.38162 0.574936,-0.78817 z"
       inkscape:connector-curvature="0" />
    <path
       style="opacity:1;fill:#33d917;fill-opacity:1;fill-rule:nonzero;stroke:#33d917;stroke-width:1.26552677;stroke-linecap:square;stroke-miterlimit:4;stroke-dasharray:none;stroke-dashoffset:0;stroke-opacity:1;paint-order:markers fill stroke"
       id="path35367-7-01"
       d="m -77.722195,233.15417 c -0.261309,-0.38911 -0.698844,-0.57325 -1.111311,-0.7542 -0.687149,-0.3016 -0.104836,-0.0993 -0.825225,-0.32222 -0.655593,-0.21857 -1.345689,-0.40582 -2.042437,-0.35976 -0.333617,-0.0218 -0.167648,-0.0362 -0.497715,0.0457 -0.730989,0.0824 -0.614435,1.11618 0.116555,1.03377 v 0 c 0.229174,-0.12212 0.104735,-0.10086 0.374979,-0.0491 0.330008,-0.0852 0.401897,-0.004 0.728584,0.0326 0.101445,0.0114 0.205725,-5.2e-4 0.306307,0.0182 0.195474,0.0363 0.493065,0.16047 0.676391,0.23095 0.419838,0.13789 0.912622,0.26646 1.271311,0.53792 0.06318,0.0472 0.100319,0.12225 0.159552,0.1741 0.04241,0.0366 0.09447,0.06 0.141707,0.0901 0.479526,0.49591 1.180848,-0.18226 0.701322,-0.67817 z"
       inkscape:connector-curvature="0" />
    <ellipse
       style="opacity:1;fill:#10ab9b;fill-opacity:1;stroke:none;stroke-width:0.05535198;stroke-miterlimit:4;stroke-dasharray:none;stroke-opacity:1"
       id="path15205-8-50"
       cx="-254.55293"
       cy="-40.325802"
       rx="3.1914501"
       ry="3.1027985"
       transform="rotate(-75.167801)" />
    <ellipse
       style="opacity:1;fill:#10ab9b;fill-opacity:1;stroke:none;stroke-width:0.05535198;stroke-miterlimit:4;stroke-dasharray:none;stroke-opacity:1"
       id="path15205-8"
       cx="-97.761864"
       cy="165.24074"
       rx="3.1914501"
       ry="3.1027985" />
    <ellipse
       style="opacity:1;fill:#10ab9b;fill-opacity:1;stroke:none;stroke-width:0.05535198;stroke-miterlimit:4;stroke-dasharray:none;stroke-opacity:1"
       id="path15205-8-8"
       cx="-114.30203"
       cy="165.03905"
       rx="3.1914501"
       ry="3.1027985" />
    <circle
       style="display:inline;opacity:1;fill:#82e2d7;fill-opacity:1;stroke:none;stroke-width:0.072257;stroke-miterlimit:4;stroke-dasharray:none;stroke-opacity:1"
       id="path11050-7-0-93-4-9-9-6-1-3"
       cx="-248.16631"
       cy="-5.8120799"
       transform="rotate(-75.167801)"
       r="7.4703946" />
    <path
       style="opacity:1;fill:#33d917;fill-opacity:1;fill-rule:nonzero;stroke:#33d917;stroke-width:1.26552677;stroke-linecap:square;stroke-miterlimit:4;stroke-dasharray:none;stroke-dashoffset:0;stroke-opacity:1;paint-order:markers fill stroke"
       id="path35367-7-9-7"
       d="m -68.253556,230.18147 c 0.03822,-0.46714 0.330286,-0.84137 0.602001,-1.20058 0.452632,-0.59855 0.04305,-0.13788 0.563095,-0.68393 0.465599,-0.51067 0.976606,-1.01086 1.607234,-1.31064 0.28058,-0.18179 0.128722,-0.11339 0.456762,-0.20294 0.678269,-0.28474 1.080963,0.67448 0.402694,0.95923 v 0 c -0.259636,0.005 -0.140698,-0.0369 -0.351263,0.14012 -0.329639,0.0867 -0.352863,0.19244 -0.620011,0.38403 -0.08307,0.0596 -0.179834,0.1 -0.258505,0.16531 -0.152913,0.12707 -0.352083,0.38066 -0.477722,0.53165 -0.299174,0.32521 -0.666583,0.67789 -0.8472,1.08987 -0.03216,0.072 -0.02787,0.15566 -0.05432,0.22982 -0.01919,0.0526 -0.05319,0.0985 -0.07973,0.14779 -0.176591,0.66685 -1.119667,0.41712 -0.943075,-0.24974 z"
       inkscape:connector-curvature="0" />
    <ellipse
       style="opacity:1;fill:#10ab9b;fill-opacity:1;stroke:none;stroke-width:0.05535198;stroke-miterlimit:4;stroke-dasharray:none;stroke-opacity:1"
       id="path15205-8-50-4"
       cx="-233.55524"
       cy="-2.1593232"
       rx="3.1914501"
       ry="3.1027985"
       transform="rotate(-75.167801)" />
    <circle
       style="display:inline;opacity:1;fill:#82e2d7;fill-opacity:1;stroke:none;stroke-width:0.072257;stroke-miterlimit:4;stroke-dasharray:none;stroke-opacity:1"
       id="path11050-7-0-93-4-9-9-6"
       cx="-106.11374"
       cy="151.80801"
       r="7.4703946" />
  </g>
</svg>
