<svg width="150.59mm" height="150.59mm" enable-background="new" version="1.1" viewBox="0 0 150.59 150.59" xmlns="http://www.w3.org/2000/svg">
 <g transform="translate(-274.66 6.0675)">
  <path d="m326.55 140.02c-0.20341-0.38635-0.34174-1.3551-0.34933-2.4466-9e-3 -1.2896 0.10837-3.3141 3e-3 -3.4728-0.0446-0.0673-0.72347 6e-3 -1.0602-0.0555-0.33124-0.0604-0.64396-0.0177-0.74831-0.0831-0.17791-0.11152-0.11334-0.44891 0.16032-0.59646 0.64593-0.34827 3.9447-0.48707 4.2391-0.19341 0.10061 0.10029 0.21215 0.45252-0.18087 0.70356-0.26276 0.16783-1.1099 0.10885-1.1711 0.24249-0.0612 0.13363-0.11247 1.0848-0.11407 2.1137-3e-3 1.8777-0.10896 2.9934-0.34387 3.6178-0.15945 0.42377-0.27744 0.46993-0.43523 0.17026z" stroke="#000" stroke-linecap="square" stroke-width=".58601" style="paint-order:markers fill stroke"/>
  <path d="m345.11 105.64c-30.934-12.216-41.637-36.081-26.358-58.772 7.6731-11.395 16.684-20.136 27.095-20.154 6.8074-0.0105 17.497-1.3147 31.069 8.8148 21.476 16.027 18.921 27.25 15.951 38.107-10.89 24.242-26.048 40.498-47.756 32.005z" fill="none" stroke="#fa424e" stroke-linecap="square" stroke-width="6.5776" style="paint-order:markers fill stroke"/>
  <g>
   <g stroke="#000">
    <path d="m411.53 7.9754c0.21985-0.22403 0.43649-0.45134 0.65266-0.67908 0.40674-0.42803 0.78978-0.87855 1.166-1.3347 0.34707-0.41659 0.67367-0.84977 0.98355-1.2959 0.1701-0.25003 0.32938-0.50809 0.46453-0.77982 0.12633-0.27505 0.0487-0.34514 0.59759 0.0619 0.0428 0.0318-9e-3 0.10814-0.0151 0.16205-8e-3 0.0681-0.0169 0.13609-0.0255 0.20414-0.09 0.63696-0.18794 1.2726-0.27429 1.9102-0.10567 0.78387-0.18644 1.5708-0.25698 2.3588-0.0516 0.58587-0.0889 1.1729-0.1144 1.7606-0.0875 2.0166-0.64364 1.9913-0.55611-0.0253v0c0.026-0.59662 0.0637-1.1926 0.11618-1.7874 0.0713-0.79671 0.15305-1.5925 0.25994-2.3851 0.0861-0.63555 0.18358-1.2693 0.2735-1.9043 8e-3 -0.0624 0.0163-0.12489 0.0235-0.18748 5e-3 -0.0443-0.0296-0.12484 0.0131-0.13333 0.68173-0.13531 0.57957-0.0605 0.45397 0.22555-0.14819 0.29613-0.32041 0.57858-0.50673 0.85101-0.31893 0.45897-0.65487 0.90478-1.0119 1.3334-0.38466 0.46622-0.77628 0.92668-1.1921 1.3642-0.21793 0.22957-0.43631 0.4587-0.65789 0.68455-1.3917 1.4274-1.7853 1.0237-0.39364-0.40374z" enable-background="new" stroke-linecap="square" stroke-width=".3" style="paint-order:markers fill stroke"/>
    <path d="m417.46 68.358c-0.0269-0.2422-0.0407-0.4863-0.0554-0.72994-0.0322-0.3841-0.0403-0.76067 0.0247-1.1394 0.1666-0.58851 0.58973-0.8921 1.0278-1.141 0.5125-0.2683 1.0549-0.37061 1.6088-0.35573 0.56828 0.0396 1.0082 0.28505 1.4293 0.73978 0.37829 0.46819 0.5493 1.0738 0.6648 1.7004 0.1214 0.74748-0.0233 1.3914-0.28346 2.0641-0.30495 0.70291-0.76166 1.2709-1.2296 1.8133-0.49322 0.56032-1.0414 1.039-1.6061 1.4848-0.46807 0.35816-0.96832 0.64609-1.4766 0.9073-0.29535 0.15305-0.60053 0.2726-0.91095 0.37006-0.22702 0.0712-0.17166 0.11105-0.1014-0.63688 8e-5 0 0.23127-0.0276 0.35002-0.0417 0.37652-0.0449 0.754-0.0757 1.1316-0.1036 0.41353-0.03 0.82751-0.0492 1.2416-0.0641 0.32443-0.0114 0.64899-0.0163 0.97355-0.0178 0.21977 0 0.43953 3e-3 0.65928 6e-3 0.14592 3e-3 0.29184 6e-3 0.43775 0.01 0.0652 3e-3 0.0334 0 0.0954 3e-3 1.9386 0.0501 1.927 0.71919-0.0116 0.66906v0c-0.0621-3e-3 -0.0305 0-0.0952-3e-3 -0.14472-4e-3 -0.28944-7e-3 -0.43418-0.01-0.21641-4e-3 -0.43283-7e-3 -0.64926-6e-3 -0.31989 3e-3 -0.63977 7e-3 -0.95953 0.0175-0.40841 0.0147-0.81672 0.0335-1.2246 0.0632-0.37096 0.0273-0.74184 0.0576-1.1117 0.10173-0.10081 0.012-0.35285 0.0495-0.35601 0.0424-0.28084-0.63039-0.33662-0.59709-0.0822-0.67796 0.2845-0.0892 0.56419-0.1983 0.8348-0.33877 0.47887-0.24563 0.95029-0.51612 1.3916-0.85243 0.53643-0.42294 1.0575-0.87681 1.5264-1.4082 0.41971-0.48537 0.83318-0.99053 1.1122-1.6163 0.20551-0.51762 0.33883-1.0508 0.24295-1.6307-0.0878-0.49032-0.20963-0.97324-0.49703-1.3489-0.3031-0.34398-0.65814-0.53921-1.0762-0.56738-0.46958-0.0184-0.92924 0.072-1.3649 0.29465-0.27822 0.15404-0.58175 0.32697-0.72195 0.6796-0.0636 0.31097-0.0306 0.62729-0.0129 0.94374 0.0134 0.22331 0.0263 0.44691 0.0494 0.66908 0.31878 2.3338-0.2222 2.4438-0.54097 0.11004z" stroke-linecap="square" stroke-width=".3" style="paint-order:markers fill stroke"/>
    <path d="m376.27 75.203c-1.4484 0.51254-2.731 1.483-3.6178 2.7377s-1.374 2.7874-1.374 4.3239c0 1.5364 0.48707 3.0692 1.374 4.3239s2.1694 2.2251 3.6178 2.7377c1.4569 0.51555 3.0454 0.56819 4.5791 0.37776 1.5337-0.19043 3.0271-0.6156 4.5138-1.0376 2.8086-0.79721 5.7089-1.5963 8.6078-1.2496 1.2787 0.15291 2.5253 0.52692 3.8079 0.64253 0.64129 0.0578 1.2926 0.04994 1.9228-0.08229 0.63016-0.13223 1.2399-0.39279 1.7358-0.80347 0.62227-0.51532 1.043-1.2526 1.2369-2.0369s0.16935-1.6133-3e-3 -2.4027c-0.34454-1.5787-1.251-2.9686-2.1518-4.3101-1.007-1.4996-2.0706-3.0305-3.5932-4.0024-1.3008-0.83037-2.8568-1.1923-4.3981-1.2701-1.5413-0.0778-3.0822 0.11402-4.6122 0.31566-3.8914 0.51282-7.7741 1.0917-11.646 1.7362z" enable-background="new" fill="#54cec1" stroke-width=".8"/>
    <path d="m318.47 91.119c-1.4484 0.51254-2.7309 1.483-3.6178 2.7377-0.88688 1.2546-1.374 2.7874-1.374 4.3238s0.48707 3.0692 1.374 4.3238c0.88689 1.2546 2.1694 2.2251 3.6178 2.7377 1.4569 0.51555 3.0454 0.56819 4.5791 0.37776 1.5337-0.19043 3.0271-0.6156 4.5138-1.0376 2.8086-0.79721 5.7089-1.5963 8.6078-1.2496 1.2787 0.15291 2.5253 0.52693 3.8079 0.64253 0.64129 0.0578 1.2926 0.0499 1.9228-0.0823 0.63016-0.13223 1.2399-0.39278 1.7358-0.80347 0.62227-0.51532 1.043-1.2526 1.2369-2.0369 0.19397-0.78432 0.16936-1.6133-3e-3 -2.4027-0.34454-1.5787-1.251-2.9686-2.1518-4.3101-1.007-1.4996-2.0706-3.0305-3.5932-4.0024-1.3008-0.83037-2.8568-1.1923-4.3981-1.2701-1.5413-0.0778-3.0822 0.11403-4.6122 0.31566-3.8914 0.51282-7.7741 1.0917-11.646 1.7362z" enable-background="new" fill="#54cec1" stroke-width=".8"/>
    <path transform="matrix(.82433 0 0 .7077 70.43 -2.921)" d="m415.97 29.282c-0.20383 0.81719-0.56757 1.5828-0.92471 2.3416-0.60014 1.2646-1.3491 2.4488-2.176 3.5755-0.89153 1.211-1.9954 2.2229-3.1692 3.1512-1.0878 0.83703-2.3265 1.4278-3.5645 2.0027-0.94964 0.41709-1.8977 0.83734-2.844 1.2619-0.57575 0.27041-1.1407 0.56336-1.7026 0.86149-0.0584 0.0315-0.11672 0.063-0.17509 0.0945-5.3478 2.8848-6.1637 1.3722-0.81594-1.5126v0c0.0618-0.0334 0.12369-0.0667 0.18555-0.10007 0.59528-0.31579 1.194-0.62602 1.8046-0.91137 0.93955-0.4215 1.8807-0.83914 2.8238-1.2527 1.1166-0.51831 2.2386-1.0426 3.2234-1.7929 1.0549-0.83092 2.0487-1.7348 2.8499-2.8209 0.76405-1.0348 1.4508-2.1267 2.0054-3.2892 0.29464-0.62478 0.59246-1.2523 0.78855-1.9166 1.087-5.9782 2.7779-5.6708 1.6909 0.30744z" enable-background="new" fill="#00887a" stroke-linecap="square" stroke-width=".78555" style="paint-order:markers fill stroke"/>
    <path d="m370.02 31.782c-1.4484 0.51254-2.731 1.483-3.6178 2.7377s-1.374 2.7874-1.374 4.3239c0 1.5364 0.48707 3.0692 1.374 4.3239s2.1694 2.2251 3.6178 2.7377c1.4569 0.51555 3.0454 0.56819 4.5791 0.37776 1.5337-0.19043 3.0271-0.6156 4.5138-1.0376 2.8086-0.79721 5.7089-1.5963 8.6078-1.2496 1.2787 0.15291 2.5253 0.52692 3.8079 0.64253 0.64129 0.0578 1.2926 0.04994 1.9228-0.08229 0.63016-0.13223 1.2399-0.39279 1.7358-0.80347 0.62227-0.51532 1.043-1.2526 1.2369-2.0369s0.16935-1.6133-3e-3 -2.4027c-0.34454-1.5787-1.251-2.9686-2.1518-4.3101-1.007-1.4996-2.0706-3.0305-3.5932-4.0024-1.3008-0.83037-2.8568-1.1923-4.3981-1.2701-1.5413-0.0778-3.0822 0.11402-4.6122 0.31566-3.8914 0.51282-7.7741 1.0917-11.646 1.7362z" enable-background="new" fill="#54cec1" stroke-width=".8"/>
   </g>
   <path d="m322.8 92.165c-0.13711 0-0.27422 0.58345-0.27422 1.7504v0.99231c-1e-3 0.52682 3e-3 1.0536-3e-3 1.5804-5e-3 0.36972-0.0148 0.74048-0.0643 1.1059h-0.37999c-2e-3 9e-3 -4e-3 0.0142-5e-3 0.0224-0.0102 9e-3 -0.0131 0.0285-0.0122 0.0578-0.12983 0.63527-0.24216 0.52624 0.0461 0.61201 0.0552 0.0184 0.11023 0.0364 0.15624 0.0794 0.16225 0.11129 0.33312 0.13267 0.49061-0.0102 0.0262-0.0316 0.049-0.0651 0.0701-0.0994h0.0418c0.36495 4e-3 0.7299 8e-3 1.0949 0.012 0.30791 4e-3 0.61582 6e-3 0.92373 9e-3 0.23736 0 0.47467 3e-3 0.71204 3e-3 -5.9e-4 0.34264-5e-5 0.68503 0.0144 1.0273 0.01 0.21793 0.0281 0.43522 0.055 0.65104 0.012 0.093 0.0254 0.18562 0.0449 0.27673 5e-3 0.0205 2e-3 0.011 6e-3 0.0294 0.46475 2.2657 0.99713 2.1075 0.53239-0.15826-5e-3 -0.0252-3e-3 -0.0123-8e-3 -0.0392-0.0142-0.0682-0.0242-0.13747-0.0331-0.20695-0.0245-0.19437-0.0404-0.39018-0.0494-0.58645-0.0141-0.33104-0.0148-0.6622-0.0139-0.99352h0.24229 0.58637 0.43279c0.0773 6e-5 0.0392 0 0.11397 0 1.9391-3e-3 1.9387-0.66201-2.5e-4 -0.66008-0.0748-3e-5 -0.0368 0-0.11413 0h-0.43313-0.5862c-0.0806-3e-5 -0.16107 0-0.24162 0v-1.8606c0-2.3337-0.54844-2.3337-0.54844 0v1.8604c-0.23623 0-0.47246 0-0.70868-3e-3 -0.30733-3e-3 -0.61474-5e-3 -0.92208-9e-3 -0.31835-4e-3 -0.63663-7e-3 -0.95498-0.0104 0.0422-0.36542 0.0566-0.73435 0.0602-1.1033 6e-3 -0.52955 2e-3 -1.0591 3e-3 -1.5886v-0.99213c0-1.1669-0.13711-1.7504-0.27421-1.7504z" enable-background="new" fill="#f61c2d" stroke-opacity="0" style="paint-order:markers fill stroke"/>
   <path d="m310.8 31.782c-1.4484 0.51254-2.731 1.483-3.6178 2.7377s-1.374 2.7874-1.374 4.3239c0 1.5364 0.48707 3.0692 1.374 4.3239s2.1694 2.2251 3.6178 2.7377c1.4569 0.51555 3.0454 0.56819 4.5791 0.37776 1.5337-0.19043 3.0271-0.6156 4.5138-1.0376 2.8086-0.79721 5.7089-1.5963 8.6078-1.2496 1.2787 0.15291 2.5253 0.52692 3.8079 0.64253 0.64129 0.0578 1.2926 0.04994 1.9228-0.08229 0.63016-0.13223 1.2399-0.39279 1.7358-0.80347 0.62227-0.51532 1.043-1.2526 1.2369-2.0369s0.16935-1.6133-3e-3 -2.4027c-0.34454-1.5787-1.251-2.9686-2.1518-4.3101-1.007-1.4996-2.0706-3.0305-3.5932-4.0024-1.3008-0.83037-2.8568-1.1923-4.3981-1.2701-1.5413-0.0778-3.0822 0.11402-4.6122 0.31566-3.8914 0.51282-7.7741 1.0917-11.646 1.7362z" enable-background="new" fill="#54cec1" stroke="#000" stroke-width=".8"/>
  </g>
  <g fill="#f61c2d" stroke-opacity="0">
   <path d="m392.97 78.767c-0.035-0.42212-0.17981-0.77598-0.41963-1.0804-0.28186-0.30208-0.64066-0.41306-1.0028-0.48943-4.1247-0.45245-3.8186 1.2447-4.4061 2.8457-0.12864 0.49967-0.14103 1.0283-0.13874 1.5474 8e-3 0.60781 0.12049 1.1982 0.2892 1.768 0.17414 0.54599 0.45006 1.0199 0.78162 1.442 0.30727 0.3789 0.69094 0.61989 1.0976 0.80436 0.32663 0.13967 0.66885 0.19581 1.0135 0.21047 0.26791 5e-3 0.53435-0.0325 0.79916-0.0769 0.23912-0.0301 0.46612-0.11152 0.68368-0.23196 0.41297-0.2785 0.55949-0.64677 0.63764-1.0854-0.48779-0.28443-0.60974 0.45498-1.3973 0.66368-0.2336 0.0394-0.46856 0.0739-0.70492 0.0709-0.28531-0.0104-0.56877-0.0555-0.83968-0.16902-0.32961-0.14679-0.6422-0.3362-0.89235-0.64112-0.2813-0.35289-0.51345-0.75196-0.66275-1.21-0.15008-0.49863-0.24782-1.0167-0.25693-1.5493-3e-3 -0.43204 6e-3 -0.87092 0.0974-1.2914 0.63178-2.0785 0.8506-2.9149 3.8063-2.4467 0.24777 0.0503 0.50171 0.11121 0.70473 0.30163 0.15897 0.18198 0.23841 0.41057 0.26429 0.67299 0.0249 1.0699 0.52303 0.97053 0.54606-0.05542z" enable-background="new" style="paint-order:markers fill stroke"/>
   <path d="m378.9 76.594c-0.99396-6e-3 -0.75268 0.46399 0.80694 0.72536 0.18927 0.0282 0.37976 0.0431 0.57016 0.0569-0.0456 0.28302-0.0762 0.68418-0.0762 1.2141v2.0475c-2e-3 0.34128-0.0132 0.68303 0.0598 1.0156 0.17003 0.47653 0.49499 0.40358 0.83199 0.24447 0.33772-0.18805 0.66938-0.39013 1.009-0.57367 0.34696-0.18882 0.70788-0.33622 1.0758-0.45679 0.30699-0.0976 0.62031-0.15626 0.93845-0.15077 0.20894 0.01 0.39693 0.0845 0.54041 0.26486 0.14468 0.21919 0.17854 0.4966 0.20837 0.76362 0.0339 0.39061 0.0179 0.78343-2e-3 1.1744-0.0105 0.38141-0.0736 0.75231-0.18716 1.1089-0.10644 0.33247-0.29278 0.59251-0.52085 0.81848-0.30008 0.26772-0.653 0.42887-1.0068 0.56992-0.3634 0.13793-0.74057 0.2092-1.1192 0.25684-0.26066 0.0307-0.52268 0.0347-0.78405 0.0175-9e-3 0.0292-0.19103-0.047-0.15473-0.0575 0.0136 3e-3 0.0109 6e-3 0.0127-0.0162-0.22846-2.2591-0.77305-2.1834-0.54459 0.0757 0.0149 0.11728 0.0338 0.22717 0.0934 0.32702 0.14681 0.20581 0.33373 0.30186 0.56297 0.31349 0.29107 0.0184 0.58304 0.0144 0.87328-0.0202 0.41887-0.0534 0.83575-0.13367 1.2374-0.28762 0.41944-0.16859 0.83512-0.36542 1.1866-0.69047 0.29603-0.30146 0.54042-0.64763 0.6786-1.0846 0.12941-0.41668 0.20777-0.84774 0.21991-1.2926 0.022-0.43245 0.0382-0.86714-2e-3 -1.299-0.0485-0.41148-0.12378-0.81965-0.36845-1.1379-0.25819-0.28325-0.56064-0.43884-0.91857-0.44797-0.36992-3e-3 -0.73481 0.0585-1.0917 0.17467-0.39574 0.13037-0.78408 0.28873-1.1574 0.49208-0.3329 0.18019-0.65887 0.37621-0.98892 0.56329-0.0632 0.0319-0.0985 0.0415-0.12098 0.0488-0.0344-0.2326 3e-3 -0.4821-0.0129-0.7142v-2.0476c0-0.5161-0.0289-0.90887-0.0726-1.1908 0.29778 0.0153 0.59569 0.027 0.89366 0.0356 0.41832 0.0117 0.83669 0.0169 1.2551 0.0209 0.28196 3e-3 0.5639 3e-3 0.84587 0 0.12949 0 0.25904-4e-3 0.38852-6e-3 0.0296 0 0.0592 0 0.0889-3e-3 1.9381-0.0711 1.921-0.71426-0.017-0.64324-0.0278 0-0.0558 0-0.0837 3e-3 -0.1266 4e-3 -0.2532 5e-3 -0.37982 6e-3 -0.27959 3e-3 -0.55912 3e-3 -0.83869 0-0.41524-4e-3 -0.83044-0.01-1.2456-0.0205-0.39385-0.0114-0.78781-0.0245-1.1812-0.0507-0.20635-0.0147-0.41303-0.0289-0.61827-0.0588v-2.1e-4c-0.35993-0.0603-0.65512-0.0871-0.88449-0.0884zm1.8784 4.841c2e-3 3e-3 2e-3 3e-3 3e-3 4e-3 0.0578 0.0844 0.0213 0.0514 8e-3 0.0402-4e-3 -0.0144-7e-3 -0.0294-0.0102-0.0441z" enable-background="new" style="paint-order:markers fill stroke"/>
   <path d="m336.88 94.184c-0.035-0.42212-0.17981-0.77598-0.41963-1.0804-0.28186-0.30208-0.64066-0.41306-1.0028-0.48943-4.1247-0.45246-3.8186 1.2447-4.4061 2.8457-0.12864 0.49967-0.14103 1.0283-0.13874 1.5474 8e-3 0.60781 0.12049 1.1982 0.2892 1.768 0.17414 0.54599 0.45006 1.0199 0.78162 1.442 0.30727 0.3789 0.69094 0.61989 1.0976 0.80436 0.32663 0.13967 0.66885 0.19581 1.0135 0.21047 0.26791 5e-3 0.53435-0.0325 0.79916-0.0769 0.23912-0.0301 0.46612-0.11152 0.68368-0.23196 0.41297-0.27849 0.55949-0.64676 0.63764-1.0854-0.48779-0.28443-0.60974 0.45499-1.3973 0.66368-0.2336 0.0394-0.46856 0.0739-0.70492 0.0709-0.28531-0.0104-0.56877-0.0555-0.83968-0.16902-0.32961-0.14679-0.6422-0.3362-0.89235-0.64112-0.2813-0.35289-0.51345-0.75196-0.66275-1.21-0.15008-0.49863-0.24782-1.0167-0.25693-1.5493-3e-3 -0.43204 6e-3 -0.87092 0.0974-1.2914 0.63178-2.0784 0.8506-2.9149 3.8063-2.4467 0.24777 0.0503 0.50171 0.11121 0.70473 0.30163 0.15897 0.18198 0.23841 0.41057 0.26429 0.67299 0.0249 1.0699 0.52303 0.97052 0.54606-0.0554z" enable-background="new" style="paint-order:markers fill stroke"/>
  </g>
  <g stroke="#000" stroke-linecap="square">
   <path transform="matrix(.74211 0 0 .74701 100.92 7.3651)" d="m402.75 73.374c-0.24408-0.94088-0.23694-1.9198-0.2322-2.8844 0.0167-1.6757 0.289-3.3277 0.67656-4.9532 0.36194-1.517 0.98429-2.9313 1.8199-4.2422 0.66705-1.0142 1.5282-1.8423 2.5333-2.5116 0.95193-0.59115 2.0253-0.8704 3.1249-1.013 1.4878-0.0968 2.8956 0.37332 4.2506 0.93138 1.4679 0.63438 2.7881 1.5357 4.0725 2.476 1.0291 0.74726 1.972 1.6011 2.9074 2.46 0.36766 0.33858 0.71378 0.6988 1.0472 1.0708 4.0503 4.5295 2.7691 5.6751-1.2811 1.1456-0.29493-0.33076-0.60272-0.6496-0.92841-0.95045-0.88869-0.81607-1.783-1.6293-2.7606-2.3394-1.1731-0.85978-2.3751-1.69-3.7144-2.2745-1.0772-0.44877-2.1967-0.85334-3.382-0.81365-0.83819 0.0971-1.6596 0.30647-2.3908 0.74279-0.81145 0.52647-1.493 1.1971-2.0322 2.0045-0.74 1.1435-1.2741 2.387-1.5949 3.7141-0.36019 1.4969-0.61146 3.019-0.62933 4.5627-5e-3 0.82921-0.0228 1.6734 0.1869 2.4826 1.3862 5.916-0.28715 6.3081-1.6733 0.39206z" enable-background="new" fill="#00887a" stroke-width=".80585" style="paint-order:markers fill stroke"/>
   <path d="m297.07 60.482c-0.0826-0.18811-0.1349-0.39156-0.18123-0.59597-0.0853-0.35265-0.10246-0.71225-0.0786-1.0763 0.035-0.42212 0.17981-0.77598 0.41963-1.0804 0.28186-0.30208 0.64066-0.41306 1.0028-0.48943 0.39483-0.0707 0.77996 0.0107 1.1531 0.16469 0.3412 0.1531 0.61336 0.42551 0.84388 0.75751 0.18989 0.29391 0.29502 0.63774 0.35949 0.99762 0.0464 0.29707 0.0413 0.59915 0.0212 0.89887-0.0155 0.20523-0.0471 0.40791-0.0859 0.60845-0.0121 0.0368-0.0147 0.0771-0.0252 0.11457-4e-3 0.0117 9e-3 -0.0239 7e-3 -0.0361-7e-3 -0.0574-1e-3 -0.12332-0.0308-0.16967-0.0905-0.14553-0.11797-0.14176-0.21195-0.158 0.18887-0.0572 0.3793-0.10635 0.57025-0.15233 0.31224-0.0732 0.6273-0.12685 0.9429-0.17388 0.2824-0.049 0.56568-0.0678 0.84987-0.0373 0.36548 0.0545 0.54262 0.25818 0.68841 0.65404 0.12864 0.49967 0.14103 1.0283 0.13874 1.5474-8e-3 0.60781-0.12049 1.1982-0.2892 1.768-0.17414 0.54599-0.45006 1.0199-0.78162 1.442-0.30727 0.3789-0.69094 0.61989-1.0976 0.80436-0.32663 0.13967-0.66885 0.19581-1.0135 0.21047-0.26791 5e-3 -0.53435-0.0325-0.79916-0.0769-0.23912-0.0301-0.46612-0.11152-0.68368-0.23196-0.20956-0.12068-0.36807-0.30662-0.49212-0.53939-0.0816-0.16851-0.12136-0.35512-0.14552-0.54602-0.2765-2.3099 0.26634-2.404 0.54284-0.0941 0.0108 0.10071 0.0293 0.19995 0.0681 0.29103 0.0624 0.12802 0.14653 0.22364 0.25828 0.29018 0.16739 0.0956 0.34316 0.15391 0.52808 0.17657 0.2336 0.0394 0.46856 0.0739 0.70492 0.0709 0.28531-0.0104 0.56877-0.0555 0.83968-0.16902 0.32961-0.14679 0.6422-0.3362 0.89235-0.64112 0.2813-0.35289 0.51345-0.75196 0.66275-1.21 0.15008-0.49863 0.24782-1.0167 0.25693-1.5493 3e-3 -0.43204-6e-3 -0.87092-0.0974-1.2914-0.0449-0.15697-0.0815-0.23084-0.23254-0.24843-0.24452-0.0294-0.48833-5e-3 -0.73135 0.0352-0.30216 0.0449-0.60381 0.0962-0.90277 0.16612-0.20202 0.0485-0.40257 0.10448-0.60346 0.15906-0.32345 0.0132-0.43387-0.22203-0.34786-0.55483 0.0329-0.16899 0.0599-0.33984 0.0734-0.51283 0.0165-0.23599 0.023-0.47402-0.0112-0.70852-0.0433-0.25611-0.1144-0.50215-0.24604-0.71376-0.16261-0.24219-0.35697-0.44016-0.60121-0.55403-0.28377-0.12166-0.57745-0.18722-0.87943-0.1375-0.24777 0.0503-0.50171 0.11121-0.70473 0.30163-0.15897 0.18198-0.23841 0.41057-0.26429 0.67299-0.0218 0.28751-6e-3 0.56992 0.0615 0.84859 0.0344 0.15467 0.0726 0.30904 0.13329 0.45228 0.92851 2.0488 0.44704 2.3649-0.48147 0.31606z" enable-background="new" stroke-width=".3" style="paint-order:markers fill stroke"/>
   <path d="m396.41 122.86c-0.0269-0.2422-0.0407-0.4863-0.0554-0.72994-0.0322-0.3841-0.0403-0.76067 0.0247-1.1394 0.1666-0.58851 0.58973-0.8921 1.0278-1.141 0.5125-0.2683 1.0549-0.37061 1.6088-0.35573 0.56828 0.0396 1.0082 0.28505 1.4293 0.73978 0.37829 0.46819 0.5493 1.0738 0.6648 1.7004 0.1214 0.74748-0.0233 1.3914-0.28346 2.0641-0.30495 0.70291-0.76166 1.2709-1.2296 1.8133-0.49322 0.56032-1.0414 1.039-1.6061 1.4848-0.46807 0.35816-0.96832 0.64609-1.4766 0.9073-0.29535 0.15305-0.60053 0.2726-0.91095 0.37006-0.22702 0.0712-0.17166 0.11105-0.1014-0.63688 8e-5 0 0.23127-0.0276 0.35002-0.0417 0.37652-0.0449 0.754-0.0757 1.1316-0.1036 0.41353-0.03 0.82751-0.0492 1.2416-0.0641 0.32443-0.0114 0.64899-0.0163 0.97355-0.0178 0.21977 0 0.43953 3e-3 0.65928 6e-3 0.14592 3e-3 0.29184 6e-3 0.43775 0.01 0.0652 3e-3 0.0334 0 0.0954 3e-3 1.9386 0.0501 1.927 0.71919-0.0116 0.66906-0.0621-3e-3 -0.0305 0-0.0952-3e-3 -0.14472-4e-3 -0.28944-7e-3 -0.43418-0.01-0.21641-4e-3 -0.43283-7e-3 -0.64926-6e-3 -0.31989 3e-3 -0.63977 7e-3 -0.95953 0.0175-0.40841 0.0147-0.81672 0.0335-1.2246 0.0632-0.37096 0.0273-0.74184 0.0576-1.1117 0.10172-0.10081 0.012-0.35285 0.0495-0.35601 0.0424-0.28084-0.63039-0.33662-0.59709-0.0822-0.67796 0.2845-0.0892 0.56419-0.1983 0.8348-0.33877 0.47887-0.24563 0.95029-0.51612 1.3916-0.85243 0.53643-0.42294 1.0575-0.87681 1.5264-1.4082 0.41971-0.48537 0.83318-0.99053 1.1122-1.6163 0.20551-0.51762 0.33883-1.0508 0.24295-1.6307-0.0878-0.49032-0.20963-0.97324-0.49703-1.3489-0.3031-0.34398-0.65814-0.53921-1.0762-0.56738-0.46958-0.0184-0.92924 0.072-1.3649 0.29465-0.27822 0.15404-0.58175 0.32697-0.72195 0.6796-0.0636 0.31097-0.0306 0.62729-0.0129 0.94374 0.0134 0.22331 0.0263 0.44691 0.0494 0.66908 0.31878 2.3338-0.2222 2.4438-0.54097 0.11004z" enable-background="new" stroke-width=".3" style="paint-order:markers fill stroke"/>
  </g>
  <g fill="#00887a" stroke="#000" stroke-linecap="square" stroke-width=".80585">
   <path transform="matrix(.74211 0 0 .74701 78.14 61.408)" d="m402.75 73.374c-0.24408-0.94088-0.23694-1.9198-0.2322-2.8844 0.0167-1.6757 0.289-3.3277 0.67656-4.9532 0.36194-1.517 0.98429-2.9313 1.8199-4.2422 0.66705-1.0142 1.5282-1.8423 2.5333-2.5116 0.95193-0.59115 2.0253-0.8704 3.1249-1.013 1.4878-0.0968 2.8956 0.37332 4.2506 0.93138 1.4679 0.63438 2.7881 1.5357 4.0725 2.476 1.0291 0.74726 1.972 1.6011 2.9074 2.46 0.36766 0.33858 0.71378 0.6988 1.0472 1.0708 4.0503 4.5295 2.7691 5.6751-1.2811 1.1456-0.29493-0.33076-0.60272-0.6496-0.92841-0.95045-0.88869-0.81607-1.783-1.6293-2.7606-2.3394-1.1731-0.85978-2.3751-1.69-3.7144-2.2745-1.0772-0.44877-2.1967-0.85334-3.382-0.81365-0.83819 0.0971-1.6596 0.30647-2.3908 0.74279-0.81145 0.52647-1.493 1.1971-2.0322 2.0045-0.74 1.1435-1.2741 2.387-1.5949 3.7141-0.36019 1.4969-0.61146 3.019-0.62933 4.5627-5e-3 0.82921-0.0228 1.6734 0.1869 2.4826 1.3862 5.916-0.28715 6.3081-1.6733 0.39206z" enable-background="new" style="paint-order:markers fill stroke"/>
   <path transform="matrix(.74211 0 0 .74701 100.92 7.9402)" d="m419.83 70.494c0.25252 0.071 0.51111 0.10318 0.76729 0.14373 0.53673 0.0789 1.0737 0.15549 1.6109 0.22602 0.59499 0.0756 1.1884 0.1756 1.7814 0.27783 0.51775 0.092 1.0331 0.20464 1.5496 0.30811 0.35539 0.0702 0.71326 0.14728 1.071 0.13939 0.2135-9e-3 0.37561-0.0952 0.51823-0.24165 0.18784-0.21757 0.29644-0.49045 0.39412-0.76334 0.12419-0.38098 0.19355-0.78074 0.25247-1.1814 0.0657-0.46828 0.10474-0.94188 0.13867-1.4159 0.0304-0.47268 0.0472-0.94697 0.0523-1.4226 7e-3 -0.4368 0.0114-0.87377 0.0138-1.311-1.2e-4 -0.38362 3.7e-4 -0.76726-5e-3 -1.1513-5e-3 -0.22605-2e-3 -0.11426-8e-3 -0.3354-0.10299-4.1494 1.0442-4.09 1.1472 0.0594 6e-3 0.22871 3e-3 0.11288 8e-3 0.34729 6e-3 0.39226 5e-3 0.78412 6e-3 1.176-3e-3 0.43924-7e-3 0.87828-0.0139 1.3171-6e-3 0.49951-0.0231 0.99775-0.0553 1.4942-0.036 0.50334-0.0781 1.0061-0.14816 1.5033-0.0708 0.47589-0.15582 0.95015-0.30777 1.401-0.158 0.43173-0.34695 0.85248-0.6664 1.178-0.34741 0.31201-0.74389 0.51035-1.2308 0.52137-0.43587-7.7e-4 -0.87-0.0672-1.3027-0.16187-0.50614-0.1015-1.0113-0.21171-1.5187-0.30236-0.57777-0.0997-1.156-0.19709-1.7357-0.27089-0.54714-0.0723-1.0941-0.14955-1.6407-0.23032-0.31869-0.0507-0.64041-0.0918-0.95307-0.18888-3.9384-1.3018-3.6626-2.4178 0.27585-1.116z" enable-background="new" style="paint-order:markers fill stroke"/>
   <path transform="matrix(.74211 0 0 .74701 78.14 61.408)" d="m419.83 70.494c0.25252 0.071 0.51111 0.10318 0.76729 0.14373 0.53673 0.0789 1.0737 0.15549 1.6109 0.22602 0.59499 0.0756 1.1884 0.1756 1.7814 0.27783 0.51775 0.092 1.0331 0.20464 1.5496 0.30811 0.35539 0.0702 0.71326 0.14728 1.071 0.13939 0.2135-9e-3 0.37561-0.0952 0.51823-0.24165 0.18784-0.21757 0.29644-0.49045 0.39412-0.76334 0.12419-0.38098 0.19355-0.78074 0.25247-1.1814 0.0657-0.46828 0.10474-0.94188 0.13867-1.4159 0.0304-0.47268 0.0472-0.94697 0.0523-1.4226 7e-3 -0.4368 0.0114-0.87377 0.0138-1.311-1.2e-4 -0.38362 3.7e-4 -0.76726-5e-3 -1.1513-5e-3 -0.22605-2e-3 -0.11426-8e-3 -0.3354-0.10299-4.1494 1.0442-4.09 1.1472 0.0594 6e-3 0.22871 3e-3 0.11288 8e-3 0.34729 6e-3 0.39226 5e-3 0.78412 6e-3 1.176-3e-3 0.43924-7e-3 0.87828-0.0139 1.3171-6e-3 0.49951-0.0231 0.99775-0.0553 1.4942-0.036 0.50334-0.0781 1.0061-0.14816 1.5033-0.0708 0.47589-0.15582 0.95015-0.30777 1.401-0.158 0.43173-0.34695 0.85248-0.6664 1.178-0.34741 0.31201-0.74389 0.51035-1.2308 0.52137-0.43587-7.7e-4 -0.87-0.0672-1.3027-0.16187-0.50614-0.1015-1.0113-0.21171-1.5187-0.30236-0.57777-0.0997-1.156-0.19709-1.7357-0.27089-0.54714-0.0723-1.0941-0.14955-1.6407-0.23032-0.31869-0.0507-0.64041-0.0918-0.95307-0.18888-3.9384-1.3018-3.6626-2.4178 0.27585-1.116z" enable-background="new" style="paint-order:markers fill stroke"/>
  </g>
  <g fill="#f61c2d" stroke-opacity="0">
   <path d="m312.7 33.189c-0.13711 0-0.27422 0.58345-0.27422 1.7504v0.99231c-1e-3 0.52682 3e-3 1.0536-3e-3 1.5804-5e-3 0.36972-0.0148 0.74048-0.0643 1.1059h-0.37999c-2e-3 9e-3 -4e-3 0.0142-5e-3 0.0224-0.0102 9e-3 -0.0131 0.0285-0.0122 0.0578-0.12983 0.63527-0.24216 0.52624 0.0461 0.61201 0.0552 0.0184 0.11023 0.0364 0.15624 0.0794 0.16225 0.11129 0.33312 0.13267 0.49061-0.0102 0.0262-0.0316 0.049-0.0651 0.0701-0.0994h0.0418c0.36495 4e-3 0.7299 8e-3 1.0949 0.012 0.30791 4e-3 0.61582 6e-3 0.92373 9e-3 0.23736 0 0.47467 3e-3 0.71204 3e-3 -5.9e-4 0.34264-5e-5 0.68503 0.0144 1.0273 0.01 0.21793 0.0281 0.43522 0.055 0.65104 0.012 0.093 0.0254 0.18562 0.0449 0.27673 5e-3 0.0205 2e-3 0.011 6e-3 0.0294 0.46475 2.2657 0.99713 2.1075 0.53239-0.15826-5e-3 -0.0252-3e-3 -0.0123-8e-3 -0.0392-0.0142-0.0682-0.0242-0.13747-0.0331-0.20695-0.0245-0.19437-0.0404-0.39018-0.0494-0.58645-0.0141-0.33104-0.0148-0.6622-0.0139-0.99352h0.24229 0.58637 0.43279c0.0773 6e-5 0.0392 0 0.11397 0 1.9391-3e-3 1.9387-0.66201-2.5e-4 -0.66008-0.0748-3e-5 -0.0368 0-0.11413 0h-0.43313-0.5862c-0.0806-3e-5 -0.16107 0-0.24162 0v-1.8606c0-2.3337-0.54844-2.3337-0.54844 0v1.8604c-0.23623 0-0.47246 0-0.70868-3e-3 -0.30733-3e-3 -0.61474-5e-3 -0.92208-9e-3 -0.31835-4e-3 -0.63663-7e-3 -0.95498-0.0104 0.0422-0.36542 0.0566-0.73435 0.0602-1.1033 6e-3 -0.52955 2e-3 -1.0591 3e-3 -1.5886v-0.99213c0-1.1669-0.13711-1.7504-0.27421-1.7504z" enable-background="new" style="paint-order:markers fill stroke"/>
   <path d="m326.78 35.346c-0.035-0.42212-0.17981-0.77598-0.41963-1.0804-0.28186-0.30208-0.64066-0.41306-1.0028-0.48943-4.1247-0.45246-3.8186 1.2447-4.4061 2.8457-0.12864 0.49967-0.14103 1.0283-0.13874 1.5474 8e-3 0.60781 0.12049 1.1982 0.2892 1.768 0.17414 0.54599 0.45006 1.0199 0.78162 1.442 0.30727 0.3789 0.69094 0.61989 1.0976 0.80436 0.32663 0.13967 0.66885 0.19581 1.0135 0.21047 0.26791 5e-3 0.53435-0.0325 0.79916-0.0769 0.23912-0.0301 0.46612-0.11152 0.68368-0.23196 0.41297-0.27849 0.55949-0.64676 0.63764-1.0854-0.48779-0.28443-0.60974 0.45499-1.3973 0.66368-0.2336 0.0394-0.46856 0.0739-0.70492 0.0709-0.28531-0.0104-0.56877-0.0555-0.83968-0.16902-0.32961-0.14679-0.6422-0.3362-0.89235-0.64112-0.2813-0.35289-0.51345-0.75196-0.66275-1.21-0.15008-0.49863-0.24782-1.0167-0.25693-1.5493-3e-3 -0.43204 6e-3 -0.87092 0.0974-1.2914 0.63178-2.0784 0.8506-2.9149 3.8063-2.4467 0.24777 0.0503 0.50171 0.11121 0.70473 0.30163 0.15897 0.18198 0.23841 0.41057 0.26429 0.67299 0.0249 1.0699 0.52303 0.97052 0.54606-0.0554z" enable-background="new" style="paint-order:markers fill stroke"/>
   <path d="m374.08 40.424c5e-3 0.10506 0.57437 1.1106 0.63017 1.2004 0.12895 0.17775 0.33432 0.28577 0.53599 0.38553 0.2753 0.13168 0.57794 0.19314 0.88228 0.24066 0.28963 0.0393 0.58163 0.0679 0.87118 0.0187 0.24897-0.0484 0.46571-0.16133 0.65381-0.31303 0.20209-0.18099 0.32607-0.41122 0.4303-0.64667 0.11419-0.27161 0.15992-0.55901 0.19003-0.84654 0.0268-0.29971 0.0174-0.60057 5e-3 -0.90058-5e-3 -0.27024-0.0326-0.53579-0.12027-0.79458-0.0847-0.21115-0.23563-0.37401-0.43865-0.49908-0.30141-0.15145-0.64562-0.19983-0.98283-0.24057-1.6465-0.0855-2.8783 0.80239-2.894 1.4538-0.0117 0.50342-0.0768 0.56918-0.18391-1.3464-0.89326-0.72516 0.37453-2.9722 1.3364-3.7444 0.67139-0.53949 1.7728-1.2025 2.4701-1.1831 1.2339 0.0584 2.6746 0.71915-0.0202 0.59508-2.9718 1.0275-3.5072 2.8174-3.4344 4.8279-1.1788 0.0806 1.1268-0.95284 1.5178-1.0939 0.42281-0.12979 0.85367-0.15909 1.2969-0.0989 0.44384 0.0549 0.89177 0.12922 1.2782 0.34647 0.31669 0.21041 0.56029 0.47104 0.68669 0.81285 0.0997 0.3073 0.1435 0.62063 0.14738 0.94102 0.0145 0.32693 0.0237 0.65478-6e-3 0.9813-0.0372 0.34455-0.0957 0.68822-0.23511 1.0128-0.1456 0.32206-0.32431 0.63198-0.60932 0.87305-0.2841 0.21863-0.60387 0.38468-0.97465 0.45027-0.36584 0.0532-0.73105 0.0375-1.0963-0.019-0.3765-0.0598-0.74942-0.14121-1.0887-0.3065-0.31165-0.15744-0.61125-0.33833-0.79628-0.62299-0.83733-0.96358-1.0375-2.2564-0.94589-2.652 0.10358-0.4473 0.10254-1.6436 0.18554-1.9199 0.46687-1.5544 0.81429 0.25138 0.55178 1.8868z" style="paint-order:markers fill stroke"/>
   <path d="m386.88 35.346c-0.035-0.42212-0.17981-0.77598-0.41963-1.0804-0.28186-0.30208-0.64066-0.41306-1.0028-0.48943-4.1247-0.45245-3.8186 1.2447-4.4061 2.8457-0.12864 0.49967-0.14103 1.0283-0.13874 1.5474 8e-3 0.60781 0.12049 1.1982 0.2892 1.768 0.17414 0.54599 0.45006 1.0199 0.78162 1.442 0.30727 0.3789 0.69094 0.61989 1.0976 0.80436 0.32663 0.13967 0.66885 0.19581 1.0135 0.21047 0.26791 5e-3 0.53435-0.0325 0.79916-0.0769 0.23912-0.0301 0.46612-0.11152 0.68368-0.23196 0.41297-0.2785 0.55949-0.64677 0.63764-1.0854-0.48779-0.28443-0.60974 0.45498-1.3973 0.66368-0.2336 0.0394-0.46856 0.0739-0.70492 0.0709-0.28531-0.0104-0.56877-0.0555-0.83968-0.16902-0.32961-0.14679-0.6422-0.3362-0.89235-0.64112-0.2813-0.35289-0.51345-0.75196-0.66275-1.21-0.15008-0.49863-0.24782-1.0167-0.25693-1.5493-3e-3 -0.43204 6e-3 -0.87092 0.0974-1.2914 0.63178-2.0785 0.8506-2.9149 3.8063-2.4467 0.24777 0.0503 0.50171 0.11121 0.70473 0.30163 0.15897 0.18198 0.23841 0.41057 0.26429 0.67299 0.0249 1.0699 0.52303 0.97053 0.54606-0.05542z" enable-background="new" style="paint-order:markers fill stroke"/>
  </g>
  <path transform="matrix(-.74211 0 0 .74701 605.65 25.07)" d="m402.75 73.374c-0.24408-0.94088-0.23694-1.9198-0.2322-2.8844 0.0167-1.6757 0.289-3.3277 0.67656-4.9532 0.36194-1.517 0.98429-2.9313 1.8199-4.2422 0.66705-1.0142 1.5282-1.8423 2.5333-2.5116 0.95193-0.59115 2.0253-0.8704 3.1249-1.013 1.4878-0.0968 2.8956 0.37332 4.2506 0.93138 1.4679 0.63438 2.7881 1.5357 4.0725 2.476 1.0291 0.74726 1.972 1.6011 2.9074 2.46 0.36766 0.33858 0.71378 0.6988 1.0472 1.0708 4.0503 4.5295 2.7691 5.6751-1.2811 1.1456v0c-0.29493-0.33076-0.60272-0.6496-0.92841-0.95045-0.88869-0.81607-1.783-1.6293-2.7606-2.3394-1.1731-0.85978-2.3751-1.69-3.7144-2.2745-1.0772-0.44877-2.1967-0.85334-3.382-0.81365-0.83819 0.0971-1.6596 0.30647-2.3908 0.74279-0.81145 0.52647-1.493 1.1971-2.0322 2.0045-0.74 1.1435-1.2741 2.387-1.5949 3.7141-0.36019 1.4969-0.61146 3.019-0.62933 4.5627-5e-3 0.82921-0.0228 1.6734 0.1869 2.4826 1.3862 5.916-0.28715 6.3081-1.6733 0.39206z" enable-background="new" fill="#00887a" stroke="#000" stroke-linecap="square" stroke-width=".80585" style="paint-order:markers fill stroke"/>
  <path transform="matrix(-.74211 0 0 .74701 605.36 25.645)" d="m419.83 70.494c0.25252 0.071 0.51111 0.10318 0.76729 0.14373 0.53673 0.0789 1.0737 0.15549 1.6109 0.22602 0.59499 0.0756 1.1884 0.1756 1.7814 0.27783 0.51775 0.092 1.0331 0.20464 1.5496 0.30811 0.35539 0.0702 0.71326 0.14728 1.071 0.13939 0.2135-9e-3 0.37561-0.0952 0.51823-0.24165 0.18784-0.21757 0.29644-0.49045 0.39412-0.76334 0.12419-0.38098 0.19355-0.78074 0.25247-1.1814 0.0657-0.46828 0.10474-0.94188 0.13867-1.4159 0.0304-0.47268 0.0472-0.94697 0.0523-1.4226 7e-3 -0.4368 0.0114-0.87377 0.0138-1.311-1.2e-4 -0.38362 3.7e-4 -0.76726-5e-3 -1.1513-5e-3 -0.22605-2e-3 -0.11426-8e-3 -0.3354-0.10299-4.1494 1.0442-4.09 1.1472 0.0594v0c6e-3 0.22871 3e-3 0.11288 8e-3 0.34729 6e-3 0.39226 5e-3 0.78412 6e-3 1.176-3e-3 0.43924-7e-3 0.87828-0.0139 1.3171-6e-3 0.49951-0.0231 0.99775-0.0553 1.4942-0.036 0.50334-0.0781 1.0061-0.14816 1.5033-0.0708 0.47589-0.15582 0.95015-0.30777 1.401-0.158 0.43173-0.34695 0.85248-0.6664 1.178-0.34741 0.31201-0.74389 0.51035-1.2308 0.52137-0.43587-7.7e-4 -0.87-0.0672-1.3027-0.16187-0.50614-0.1015-1.0113-0.21171-1.5187-0.30236-0.57777-0.0997-1.156-0.19709-1.7357-0.27089-0.54714-0.0723-1.0941-0.14955-1.6407-0.23032-0.31869-0.0507-0.64041-0.0918-0.95307-0.18888-3.9384-1.3018-3.6626-2.4178 0.27585-1.116z" enable-background="new" fill="#00887a" stroke="#000" stroke-linecap="square" stroke-width=".80585" style="paint-order:markers fill stroke"/>
  <g stroke="#000" stroke-linecap="square">
   <path d="m277.82 93.095c-0.10225-0.0809-0.11627-0.18823-0.13505-1.0339-0.0217-0.97796 0.0878-5.3007 0.14744-5.8202 0.0266-0.23187 0.0646-0.3105 0.17688-0.36586 0.32335-0.1595 0.64627-0.0385 0.80953 0.30327 0.046 0.0964 0.22004 0.6601 0.3867 1.2528 0.32223 1.1459 0.51111 1.6821 0.59261 1.6821 0.0744 0 0.20454-0.30797 0.28222-0.66809 0.0378-0.17497 0.10496-0.76194 0.14936-1.3044 0.0444-0.54242 0.10002-1.0385 0.1236-1.1024 0.0456-0.12353 0.25398-0.23372 0.44207-0.23372 0.11016 0 0.11369 0.0654 0.1126 2.0838-1e-3 2.3318-0.0791 4.2089-0.18983 4.576-0.0698 0.23144-0.0874 0.24477-0.34609 0.2629-0.25329 0.0177-0.28087 4e-3 -0.39021-0.19088-0.0647-0.11549-0.28214-0.71072-0.48319-1.3227-0.3649-1.1108-0.77782-2.1005-0.87637-2.1005-0.0287 0-0.0691 0.3937-0.0899 0.87488-0.0907 2.0974-0.182 2.8569-0.37081 3.086-0.11125 0.13494-0.19135 0.13989-0.34152 0.0211z" enable-background="new" stroke-width=".6" style="paint-order:markers fill stroke"/>
   <path d="m282.27 91.082c9.3e-4 -2.5533 0.11064-4.0083 0.33884-4.4925 0.21698-0.46044 0.60393-0.75306 1.0712-0.81008 0.33781-0.0412 0.40093-0.0155 0.66594 0.2714 0.16375 0.17727 0.33495 0.48654 0.38849 0.7018 0.1019 0.40967 0.21411 1.9418 0.3102 4.2354 0.0636 1.5171 0.0282 1.6845-0.35551 1.6845-0.26887 0-0.34435-0.19477-0.4-1.0321-0.0259-0.39018-0.0987-0.82584-0.16168-0.96813-0.097-0.219-0.16627-0.25871-0.45155-0.25871-0.48153 0-0.55217 0.20291-0.55372 1.5905 0.0523 0.7537-0.23379 0.9124-0.53113 0.90645-0.29734-6e-3 -0.32132-1.1044-0.32109-1.8285zm1.4674-1.4568c0.17512-0.0526 0.35717-0.17416 0.40456-0.27003 0.1213-0.24537 0.10477-1.2412-0.031-1.8656-0.1579-0.72637-0.34382-1.0135-0.6328-0.97725-0.38002 0.0477-0.47969 0.41219-0.48253 1.7649-2e-3 1.0664 0.0138 1.1959 0.16284 1.3139 0.19674 0.15575 0.17804 0.15464 0.5789 0.0341z" enable-background="new" stroke-width=".6" style="paint-order:markers fill stroke"/>
   <path d="m286.59 85.784c0.33592-0.41944 2.3721-0.27909 3.0916 0.92616 0.6928 1.1605-0.14183 4.8429-1.0451 5.6253-0.50143 0.43434-1.5822 0.81748-1.8544 0.16414-0.27226-0.65334-0.52805-6.2962-0.19214-6.7156zm1.2954 6.307c0.36134-0.0926 1.5372-1.7503 1.4423-3.6252-0.0949-1.875-1.119-2.7715-1.9635-2.5046-0.6705 0.21186-0.22403 1.3596-0.23706 3.4221 0.0238 2.9086 0.43258 2.7912 0.75825 2.7077z" enable-background="new" stroke-width=".6" style="paint-order:markers fill stroke"/>
  </g>
  <g stroke="#000">
   <path transform="matrix(-.72765 -.14577 -.14674 .73245 716.49 40.465)" d="m419.83 70.494c0.25252 0.071 0.51111 0.10318 0.76729 0.14373 0.53673 0.0789 1.0737 0.15549 1.6109 0.22602 0.59499 0.0756 1.1884 0.1756 1.7814 0.27783 0.51775 0.092 1.0331 0.20464 1.5496 0.30811 0.35539 0.0702 0.71326 0.14728 1.071 0.13939 0.2135-9e-3 0.37561-0.0952 0.51823-0.24165 0.18784-0.21757 0.29644-0.49045 0.39412-0.76334 0.12419-0.38098 0.19355-0.78074 0.25247-1.1814 0.0657-0.46828 0.10474-0.94188 0.13867-1.4159 0.0304-0.47268 0.0472-0.94697 0.0523-1.4226 7e-3 -0.4368 0.0114-0.87377 0.0138-1.311-1.2e-4 -0.38362 3.7e-4 -0.76726-5e-3 -1.1513-5e-3 -0.22605-2e-3 -0.11426-8e-3 -0.3354-0.10299-4.1494 1.0442-4.09 1.1472 0.0594v0c6e-3 0.22871 3e-3 0.11288 8e-3 0.34729 6e-3 0.39226 5e-3 0.78412 6e-3 1.176-3e-3 0.43924-7e-3 0.87828-0.0139 1.3171-6e-3 0.49951-0.0231 0.99775-0.0553 1.4942-0.036 0.50334-0.0781 1.0061-0.14816 1.5033-0.0708 0.47589-0.15582 0.95015-0.30777 1.401-0.158 0.43173-0.34695 0.85248-0.6664 1.178-0.34741 0.31201-0.74389 0.51035-1.2308 0.52137-0.43587-7.7e-4 -0.87-0.0672-1.3027-0.16187-0.50614-0.1015-1.0113-0.21171-1.5187-0.30236-0.57777-0.0997-1.156-0.19709-1.7357-0.27089-0.54714-0.0723-1.0941-0.14955-1.6407-0.23032-0.31869-0.0507-0.64041-0.0918-0.95307-0.18888-3.9384-1.3018-3.6626-2.4178 0.27585-1.116z" enable-background="new" fill="#00887a" stroke-linecap="square" stroke-width=".80585" style="paint-order:markers fill stroke"/>
   <path transform="matrix(.50139 -.54711 .55073 .5047 99.481 225.19)" d="m419.83 70.494c0.25252 0.071 0.51111 0.10318 0.76729 0.14373 0.53673 0.0789 1.0737 0.15549 1.6109 0.22602 0.59499 0.0756 1.1884 0.1756 1.7814 0.27783 0.51775 0.092 1.0331 0.20464 1.5496 0.30811 0.35539 0.0702 0.71326 0.14728 1.071 0.13939 0.2135-9e-3 0.37561-0.0952 0.51823-0.24165 0.18784-0.21757 0.29644-0.49045 0.39412-0.76334 0.12419-0.38098 0.19355-0.78074 0.25247-1.1814 0.0657-0.46828 0.10474-0.94188 0.13867-1.4159 0.0304-0.47268 0.0472-0.94697 0.0523-1.4226 7e-3 -0.4368 0.0114-0.87377 0.0138-1.311-1.2e-4 -0.38362 3.7e-4 -0.76726-5e-3 -1.1513-5e-3 -0.22605-2e-3 -0.11426-8e-3 -0.3354-0.10299-4.1494 1.0442-4.09 1.1472 0.0594v0c6e-3 0.22871 3e-3 0.11288 8e-3 0.34729 6e-3 0.39226 5e-3 0.78412 6e-3 1.176-3e-3 0.43924-7e-3 0.87828-0.0139 1.3171-6e-3 0.49951-0.0231 0.99775-0.0553 1.4942-0.036 0.50334-0.0781 1.0061-0.14816 1.5033-0.0708 0.47589-0.15582 0.95015-0.30777 1.401-0.158 0.43173-0.34695 0.85248-0.6664 1.178-0.34741 0.31201-0.74389 0.51035-1.2308 0.52137-0.43587-7.7e-4 -0.87-0.0672-1.3027-0.16187-0.50614-0.1015-1.0113-0.21171-1.5187-0.30236-0.57777-0.0997-1.156-0.19709-1.7357-0.27089-0.54714-0.0723-1.0941-0.14955-1.6407-0.23032-0.31869-0.0507-0.64041-0.0918-0.95307-0.18888-3.9384-1.3018-3.6626-2.4178 0.27585-1.116z" enable-background="new" fill="#00887a" stroke-linecap="square" stroke-width=".80585" style="paint-order:markers fill stroke"/>
   <path d="m290.97 83.239c0.0146 0.33019 0.0435 0.65975 0.0867 0.98742 0.0141 0.1072 0.0298 0.21421 0.0415 0.32171 0.0352 0.32464 0.0337 0.65325-4e-3 0.97756" enable-background="new" fill="none" stroke-linecap="round" stroke-width=".39271"/>
   <path d="m289.91 84.459c0.33019-0.01456 0.65975-0.04349 0.98743-0.0867 0.1072-0.01413 0.21421-0.0298 0.3217-0.04146 0.32464-0.03522 0.65325-0.03372 0.97756 0.0045" enable-background="new" fill="none" stroke-linecap="round" stroke-width=".39271"/>
  </g>
  <g stroke="#000" stroke-linecap="square">
   <path transform="matrix(.82433 0 0 .7077 9.7036 97.926)" d="m415.97 29.282c-0.20383 0.81719-0.56757 1.5828-0.92471 2.3416-0.60014 1.2646-1.3491 2.4488-2.176 3.5755-0.89153 1.211-1.9954 2.2229-3.1692 3.1512-1.0878 0.83703-2.3265 1.4278-3.5645 2.0027-0.94964 0.41709-1.8977 0.83734-2.844 1.2619-0.57575 0.27041-1.1407 0.56336-1.7026 0.86149-0.0584 0.0315-0.11672 0.063-0.17509 0.0945-5.3478 2.8848-6.1637 1.3722-0.81594-1.5126 0.0618-0.0334 0.12369-0.0667 0.18555-0.10007 0.59528-0.31579 1.194-0.62602 1.8046-0.91137 0.93955-0.4215 1.8807-0.83914 2.8238-1.2527 1.1166-0.51831 2.2386-1.0426 3.2234-1.7929 1.0549-0.83092 2.0487-1.7348 2.8499-2.8209 0.76405-1.0348 1.4508-2.1267 2.0054-3.2892 0.29464-0.62478 0.59246-1.2523 0.78855-1.9166 1.087-5.9782 2.7779-5.6708 1.6909 0.30744z" enable-background="new" fill="#00887a" stroke-width=".78555" style="paint-order:markers fill stroke"/>
   <path transform="matrix(-.72765 -.14577 -.14674 .73245 655.76 141.31)" d="m419.83 70.494c0.25252 0.071 0.51111 0.10318 0.76729 0.14373 0.53673 0.0789 1.0737 0.15549 1.6109 0.22602 0.59499 0.0756 1.1884 0.1756 1.7814 0.27783 0.51775 0.092 1.0331 0.20464 1.5496 0.30811 0.35539 0.0702 0.71326 0.14728 1.071 0.13939 0.2135-9e-3 0.37561-0.0952 0.51823-0.24165 0.18784-0.21757 0.29644-0.49045 0.39412-0.76334 0.12419-0.38098 0.19355-0.78074 0.25247-1.1814 0.0657-0.46828 0.10474-0.94188 0.13867-1.4159 0.0304-0.47268 0.0472-0.94697 0.0523-1.4226 7e-3 -0.4368 0.0114-0.87377 0.0138-1.311-1.2e-4 -0.38362 3.7e-4 -0.76726-5e-3 -1.1513-5e-3 -0.22605-2e-3 -0.11426-8e-3 -0.3354-0.10299-4.1494 1.0442-4.09 1.1472 0.0594 6e-3 0.22871 3e-3 0.11288 8e-3 0.34729 6e-3 0.39226 5e-3 0.78412 6e-3 1.176-3e-3 0.43924-7e-3 0.87828-0.0139 1.3171-6e-3 0.49951-0.0231 0.99775-0.0553 1.4942-0.036 0.50334-0.0781 1.0061-0.14816 1.5033-0.0708 0.47589-0.15582 0.95015-0.30777 1.401-0.158 0.43173-0.34695 0.85248-0.6664 1.178-0.34741 0.31201-0.74389 0.51035-1.2308 0.52137-0.43587-7.7e-4 -0.87-0.0672-1.3027-0.16187-0.50614-0.1015-1.0113-0.21171-1.5187-0.30236-0.57777-0.0997-1.156-0.19709-1.7357-0.27089-0.54714-0.0723-1.0941-0.14955-1.6407-0.23032-0.31869-0.0507-0.64041-0.0918-0.95307-0.18888-3.9384-1.3018-3.6626-2.4178 0.27585-1.116z" enable-background="new" fill="#00887a" stroke-width=".80585" style="paint-order:markers fill stroke"/>
   <path d="m329.96 139.96c-0.13115-0.24506-0.15291-1.0738-0.10381-3.9541 0 0-0.0779-2.4445 0.0496-2.7337 0.28662-0.28419 1.1121-0.19134 1.451-0.0237 0.42685 0.21525 0.53206 0.47086 0.57804 1.4043 0.0689 1.3992-0.16254 2.0067-0.89805 2.3572-0.47993 0.22873-0.54303 0.39379-0.59104 1.5461-0.051 1.2244-0.25942 1.8268-0.48571 1.404zm1.2259-3.7586c0.3735-0.3735 0.49843-1.6178 0.21821-2.1734-0.16424-0.32562-0.38202-0.44485-0.67721-0.37077-0.29845 0.0749-0.38168 0.38979-0.39375 1.4897-0.0102 0.93296-7e-3 0.96177 0.14659 1.0856 0.21643 0.17525 0.51281 0.16217 0.70616-0.0312z" stroke-width=".75462" style="paint-order:markers fill stroke"/>
   <path d="m320.74 138.34c9.2e-4 -2.5533 0.11064-4.0083 0.33884-4.4925 0.21698-0.46044 0.60393-0.75306 1.0712-0.81008 0.33781-0.0412 0.40093-0.0155 0.66594 0.27141 0.16375 0.17726 0.33495 0.48654 0.38849 0.7018 0.1019 0.40967 0.21411 1.9418 0.3102 4.2354 0.0636 1.5171 0.0282 1.6845-0.35551 1.6845-0.26887 0-0.34435-0.19477-0.4-1.0321-0.0259-0.39019-0.0987-0.82585-0.16168-0.96814-0.097-0.219-0.16627-0.25871-0.45155-0.25871-0.48153 0-0.55217 0.20291-0.55372 1.5905 0.0523 0.7537-0.23379 0.9124-0.53113 0.90645-0.29734-6e-3 -0.32132-1.1044-0.32109-1.8285zm1.4674-1.4568c0.17512-0.0526 0.35717-0.17416 0.40456-0.27003 0.1213-0.24537 0.10477-1.2412-0.031-1.8656-0.1579-0.72636-0.34382-1.0135-0.6328-0.97724-0.38002 0.0477-0.47969 0.41219-0.48253 1.7648-2e-3 1.0664 0.0138 1.1959 0.16284 1.3139 0.19674 0.15574 0.17804 0.15464 0.5789 0.0341z" stroke-width=".6" style="paint-order:markers fill stroke"/>
  </g>
 </g>
</svg>
