<svg width="150.6mm" height="150.6mm" version="1.1" viewBox="0 0 150.6 150.6" xmlns="http://www.w3.org/2000/svg">
 <g transform="translate(-36.718 -276.06)">
  <path d="m57.275 333.67c-1.7478-4.7745-2.7808-9.81-3.0538-14.887-0.15348-2.8544-0.06602-5.7378 0.52316-8.535 0.58918-2.7972 1.6952-5.5128 3.4419-7.7756 1.8675-2.4194 4.4161-4.2562 7.1709-5.58 2.7547-1.3239 5.7201-2.1569 8.7061-2.8086 4.1309-0.90167 8.3897-1.4694 12.587-0.96259s8.3568 2.1683 11.297 5.2068c2.1111 2.1817 3.5091 4.9727 4.4242 7.8673 0.91508 2.8947 1.3733 5.9108 1.8144 8.9145 0.62764 4.2741 1.2289 8.5917 0.91413 12.9-0.31474 4.3085-1.6186 8.6615-4.4112 11.957-2.7938 3.2972-6.9141 5.3111-11.173 6.044-4.2591 0.73288-8.6562 0.25962-12.844-0.80951-7.0825-1.8083-13.72-5.3346-19.183-10.191z" fill="none" stroke="#000" stroke-width="2"/>
  <g fill="#ff9243" stroke="#000" stroke-width=".6">
   <path d="m61.376 287.44c-0.16693-0.0117-0.33426-0.0155-0.5007-0.0112-0.66577 0.0182-1.3224 0.14857-1.9806 0.2507-0.59583 0.0925-1.2014 0.16371-1.7663 0.37468-0.28243 0.10549-0.55321 0.24604-0.7896 0.43313-0.23639 0.18712-0.43804 0.42182-0.56889 0.69339-0.23019 0.47814-0.22748 1.0484-0.0605 1.5522 0.16704 0.50378 0.48742 0.94581 0.86381 1.32 0.75279 0.74839 1.7253 1.2414 2.5027 1.9642 1.1132 1.035 1.7549 2.4676 2.648 3.6975 0.81526 1.1226 1.8837 2.1038 3.1858 2.5828 0.0746 0.0275 0.15009 0.0533 0.22599 0.0774 0.23518-0.18617 0.42104-0.43331 0.53495-0.71078 0.14747-0.3592 0.17223-0.75947 0.1304-1.1455-0.0419-0.38602-0.1475-0.76199-0.25319-1.1356-0.3324-1.175-0.67136-2.3554-0.8027-3.5693-0.11757-1.0866-0.0678-2.1921-0.27292-3.2656-0.10253-0.5368-0.26996-1.0648-0.5421-1.5387-0.27214-0.4739-0.65294-0.89245-1.1266-1.1651-0.43293-0.24916-0.92694-0.36817-1.4277-0.40452z"/>
   <path d="m74.142 296.69c-1.2876-2.3164-2.6791-4.5751-4.1689-6.7669-0.83423-1.2274-1.7134-2.4627-2.1298-3.8872-0.17351-0.59358-0.26304-1.2147-0.22763-1.8321 0.03541-0.61741 0.19814-1.2312 0.50513-1.768 0.29274-0.51195 0.71579-0.94937 1.2202-1.2549 0.50443-0.30553 1.0893-0.478 1.679-0.49019 0.58961-0.0122 1.1824 0.13651 1.694 0.42977 0.51166 0.29325 0.94038 0.7307 1.219 1.2505 0.33828 0.63103 0.44997 1.3626 0.44315 2.0786-0.0068 0.71596-0.12618 1.4253-0.22468 2.1345-0.46488 3.3471-0.46795 6.7581-0.0091 10.106"/>
   <path d="m80.833 278.85c-0.67677 0.0111-1.3517 0.20261-1.942 0.53691-0.33921 0.19209-0.65391 0.43143-0.90796 0.72708-0.25405 0.29567-0.44577 0.64907-0.52658 1.0304-0.0915 0.43198-0.0386 0.88632 0.10077 1.3053 0.13939 0.419 0.36203 0.80598 0.61133 1.1705 0.49861 0.72895 1.1144 1.3908 1.4614 2.203 0.44615 1.044 0.40268 2.2281 0.26768 3.3553s-0.35424 2.2606-0.23254 3.3895c0.13325 1.236 0.68754 2.4227 1.5493 3.3186 0.0665-1.2946 0.22524-2.5841 0.4749-3.8561 0.37692-1.9204 0.95988-3.7963 1.65-5.6276 0.37434-0.9933 0.78334-1.9849 0.94568-3.0339 0.0812-0.52451 0.099-1.0614 0.0181-1.586-0.0809-0.52451-0.26311-1.0369-0.56069-1.4764-0.50717-0.74903-1.3432-1.2545-2.235-1.4061-0.22294-0.0379-0.44878-0.0543-0.67437-0.0506z"/>
   <path d="m92.773 280.94c-0.24198 0.0114-0.48231 0.0604-0.7121 0.13798-0.61278 0.20677-1.1413 0.60751-1.62 1.0423-0.93548 0.84966-1.7405 1.8786-2.1466 3.0753-0.49797 1.4671-0.3652 3.0606-0.3328 4.6095 0.0361 1.7215-0.0591 3.4457-0.28525 5.1527 0.26163 0.22534 0.62619 0.32594 0.96634 0.26665 0.3198-0.0558 0.60649-0.24493 0.82011-0.48938s0.35935-0.542 0.46767-0.84801c0.21665-0.61206 0.2955-1.2756 0.601-1.8485 0.27174-0.50962 0.70466-0.91279 1.1482-1.2826 0.44359-0.36981 0.90993-0.72057 1.279-1.1648 0.45323-0.54554 0.74095-1.2104 0.94775-1.8888s0.33787-1.3774 0.51366-2.0645c0.19694-0.76978 0.45195-1.5377 0.46096-2.3322 4e-3 -0.39728-0.0551-0.79862-0.2093-1.1648-0.15414-0.36618-0.4066-0.69561-0.74104-0.91003-0.27221-0.17452-0.59243-0.2694-0.91519-0.28938-0.0807-5e-3 -0.1617-5e-3 -0.24236-3e-3z"/>
   <path d="m101.09 287.91c-0.84832 4e-3 -1.7086 0.34649-2.2588 0.99218-0.42021 0.49316-0.63955 1.124-0.81132 1.7487s-0.30741 1.2662-0.59583 1.8464c-0.36757 0.73938-0.9615 1.337-1.5338 1.9322-0.57225 0.59524-1.1448 1.2202-1.4536 1.9859-0.28093 0.69652-0.32298 1.4872-0.11783 2.2097 0.72778 0.43783 1.6498 0.53686 2.4541 0.26405 0.6762-0.22934 1.2462-0.69747 1.742-1.2113s0.93404-1.0819 1.4459-1.5798c1.0952-1.0651 2.492-1.7746 3.6132-2.8122 0.36394-0.33682 0.69991-0.71094 0.93845-1.1457 0.23853-0.43473 0.37566-0.93493 0.32607-1.4283-0.0419-0.41664-0.21535-0.81399-0.46198-1.1524-0.24663-0.3384-0.56457-0.62071-0.90899-0.85886-0.69777-0.48247-1.5293-0.79478-2.3776-0.79065z"/>
   <path d="m111.28 301.79c5e-3 -0.16726 4e-3 -0.33461-8e-3 -0.50075-0.0439-0.66457-0.19949-1.3157-0.32694-1.9694-0.11539-0.59183-0.20995-1.1942-0.44255-1.7505-0.1163-0.27814-0.26721-0.5433-0.46328-0.7723-0.1961-0.22899-0.43841-0.42143-0.71483-0.54171-0.48667-0.21157-1.0564-0.18686-1.5534-5.8e-4 -0.49696 0.18636-0.9263 0.52355-1.2857 0.9141-0.7188 0.78111-1.1739 1.7719-1.8662 2.5766-0.99124 1.1523-2.398 1.8488-3.5925 2.7887-1.0903 0.85797-2.0295 1.9634-2.458 3.2831-0.0247 0.0756-0.0474 0.15205-0.0686 0.22881 0.1951 0.22783 0.44923 0.40402 0.73089 0.50712 0.36462 0.13351 0.76555 0.1428 1.1497 0.0861 0.38411-0.0568 0.75573-0.17679 1.125-0.29682 1.1613-0.37748 2.3277-0.76173 3.5357-0.93982 1.0813-0.15942 2.1878-0.15239 3.2526-0.39873 0.53245-0.12317 1.0536-0.31085 1.5167-0.60107 0.46305-0.29023 0.86658-0.6869 1.1208-1.1707 0.23226-0.44222 0.33212-0.94045 0.34911-1.4422z"/>
   <path d="m101.7 313.54c2.3185-1.2838 4.5795-2.6716 6.7738-4.1577 1.2288-0.83218 2.4656-1.7093 3.8907-2.1234 0.59386-0.17255 1.2152-0.26109 1.8325-0.22471 0.61734 0.0364 1.2309 0.20009 1.7672 0.50791 0.51149 0.29355 0.94825 0.7173 1.253 1.2222 0.30472 0.50492 0.47626 1.0901 0.4875 1.6798 0.0112 0.58964-0.13843 1.1822-0.43252 1.6934-0.29409 0.51119-0.73225 0.9392-1.2525 1.217-0.63158 0.33723-1.3634 0.44772-2.0793 0.43971-0.71593-8e-3 -1.4251-0.12854-2.1341-0.22821-3.3464-0.47043-6.7573-0.47916-10.106-0.0259"/>
   <path d="m119.53 320.26c-0.01-0.67679-0.20038-1.352-0.5337-1.9429-0.19153-0.33951-0.43035-0.6546-0.72557-0.90915-0.29526-0.25454-0.64834-0.44685-1.0296-0.52829-0.43184-0.0923-0.88626-0.0401-1.3055 0.0986-0.41922 0.13869-0.80657 0.3607-1.1715 0.6094-0.72979 0.49739-1.3927 1.112-2.2054 1.4578-1.0447 0.44443-2.2287 0.399-3.3558 0.26214-1.127-0.13687-2.2601-0.35799-3.3891-0.23816-1.2362 0.13122-2.4238 0.68354-3.3212 1.5438 1.2944 0.0687 2.5837 0.22951 3.8553 0.48128 1.9198 0.3801 3.7947 0.96616 5.6248 1.6593 0.99267 0.37598 1.9836 0.78663 3.0324 0.9507 0.52437 0.082 1.0613 0.10078 1.5859 0.0207 0.52465-0.0801 1.0374-0.2614 1.4773-0.55824 0.74988-0.50594 1.2567-1.3412 1.4098-2.2327 0.0383-0.22288 0.055-0.4487 0.0517-0.67429z"/>
   <path d="m117.42 332.19c-0.011-0.24199-0.0596-0.48241-0.13681-0.71233-0.20575-0.61311-0.60561-1.1423-1.0396-1.6218-0.8481-0.93688-1.8757-1.7436-3.0717-2.1517-1.4663-0.50039-3.06-0.37025-4.609-0.34042-1.7215 0.0332-3.4456-0.0648-5.1522-0.29379-0.22578 0.26127-0.32698 0.62567-0.26825 0.96591 0.0553 0.3199 0.24392 0.60689 0.48801 0.82092 0.2441 0.21403 0.54141 0.36024 0.84725 0.46908 0.6117 0.21766 1.2751 0.2976 1.8475 0.60404 0.50916 0.27259 0.91162 0.70618 1.2807 1.1504 0.36907 0.44421 0.71905 0.91113 1.1626 1.2809 0.5448 0.45412 1.2091 0.74295 1.8872 0.95087 0.67808 0.20792 1.3768 0.34015 2.0636 0.51708 0.76945 0.19821 1.5369 0.45449 2.3314 0.46481 0.39726 5e-3 0.79871-0.0538 1.1651-0.20737 0.36644-0.15353 0.69629-0.40544 0.91126-0.73953 0.17497-0.27192 0.27038-0.59198 0.29089-0.9147 5e-3 -0.0807 5e-3 -0.16169 3e-3 -0.24237z"/>
   <path d="m110.43 340.49c-3e-3 -0.84834-0.34367-1.7092-0.98845-2.2604-0.49245-0.42103-1.123-0.64142-1.7474-0.81421-0.62443-0.1728-1.2657-0.30951-1.8454-0.59889-0.73877-0.3688-1.3354-0.96371-1.9297-1.537-0.59428-0.57323-1.2182-1.1468-1.9835-1.4569-0.69604-0.28207-1.4867-0.32544-2.2095-0.12148-0.43902 0.72705-0.5396 1.6489-0.26811 2.4537 0.22821 0.67658 0.69541 1.2474 1.2084 1.744 0.51299 0.49666 1.0804 0.93582 1.5774 1.4485 1.0633 1.0969 1.7704 2.495 2.8062 3.6179 0.33621 0.36449 0.70978 0.70108 1.1441 0.94033 0.43435 0.23924 0.93431 0.3772 1.4278 0.32844 0.41671-0.0412 0.81435-0.21402 1.1532-0.46007 0.3388-0.24608 0.62164-0.56355 0.86037-0.90758 0.48361-0.69697 0.79731-1.528 0.79458-2.3763z"/>
  </g>
  <g fill="#00887a" stroke="#000" stroke-width=".6">
   <path d="m102.8 316.11c0.38646-0.20143 0.8336-0.25138 1.2693-0.25883 0.43574-7e-3 0.87368 0.0239 1.3062-0.0297 0.58876-0.073 1.146-0.30057 1.6907-0.53563 0.54471-0.23505 1.0909-0.48168 1.673-0.59653 0.58204-0.11485 1.2138-0.0867 1.7303 0.20517 0.25826 0.14594 0.48217 0.35665 0.62844 0.61471s0.21219 0.56394 0.16806 0.85727c-0.0562 0.37376-0.28815 0.70813-0.59174 0.93328-0.30358 0.22515-0.67381 0.34808-1.048 0.40113-0.74844 0.10611-1.5075-0.0549-2.2634-0.0516-1.2979 6e-3 -2.5524 0.49428-3.8492 0.54899-0.24137 0.0102-0.48658 4e-3 -0.7189-0.062-0.23231-0.0663-0.45024-0.19726-0.5954-0.39036-0.14516-0.19311-0.20982-0.44489-0.17425-0.68384 0.0356-0.23895 0.16735-0.45567 0.33676-0.6279 0.12792-0.13005 0.27635-0.23989 0.43812-0.32421z"/>
   <path d="m102.83 325.51c-0.1853-0.0835-0.34813-0.21628-0.4672-0.381s-0.19409-0.36097-0.21527-0.56312c-0.0212-0.20214 0.0115-0.40968 0.0939-0.5955s0.21412-0.34946 0.3781-0.46955c0.28086-0.20569 0.6427-0.27627 0.99055-0.26232 0.34784 0.0139 0.68729 0.1059 1.0228 0.19877 1.0472 0.28988 2.1017 0.59616 3.1869 0.65156 0.51235 0.0261 1.0438-8.6e-4 1.5176 0.19608 0.23685 0.0985 0.45437 0.25509 0.59562 0.4692 0.0706 0.10706 0.12148 0.22763 0.14454 0.35379 0.0231 0.12616 0.018 0.25789-0.0189 0.38072-0.0515 0.17131-0.16398 0.32125-0.30534 0.43085-0.14137 0.10959-0.31052 0.18023-0.48515 0.21893-0.34928 0.0774-0.71261 0.0298-1.0673-0.0169-1.7865-0.23517-3.5771-0.43905-5.3708-0.61149z"/>
   <path d="m101.87 331.81c1.0312 1.3677 2.4938 2.4052 4.1254 2.9265 0.22882 0.0731 0.46334 0.13675 0.70337 0.14615 0.24003 9e-3 0.48815-0.0391 0.68661-0.17449 0.14206-0.0969 0.25408-0.23567 0.32495-0.39235 0.0709-0.15667 0.10108-0.33068 0.0939-0.50249-0.0143-0.3436-0.17682-0.67003-0.40641-0.92608-0.22958-0.25605-0.52295-0.4474-0.82879-0.60467s-0.6267-0.28311-0.93864-0.4279c-0.74656-0.34653-1.4387-0.80009-2.104-1.2846-0.21179-0.15425-0.42285-0.31283-0.65922-0.42586-0.23638-0.11302-0.50342-0.17866-0.76178-0.13513-0.19884 0.0335-0.38613 0.13229-0.52605 0.27748s-0.23173 0.336-0.25786 0.53594c-0.0261 0.19994 0.0135 0.40793 0.11145 0.58421 0.0979 0.17627 0.25351 0.31988 0.43706 0.40336z"/>
  </g>
  <g fill="#ff9243" stroke="#000" stroke-width=".6">
   <path d="m50.027 338.86c8e-3 0.16718 0.0227 0.33386 0.0474 0.49857 0.0958 0.65909 0.30198 1.296 0.48026 1.9378 0.16142 0.58094 0.3029 1.1741 0.57839 1.7104 0.13774 0.26818 0.30896 0.52069 0.52237 0.73362 0.21344 0.21292 0.47008 0.38579 0.75509 0.48402 0.5017 0.17291 1.0678 0.10355 1.5487-0.12116 0.48083-0.22472 0.88241-0.59453 1.2101-1.012 0.65536-0.83503 1.0315-1.8584 1.6585-2.7149 0.8979-1.2264 2.2458-2.031 3.3629-3.0617 1.0197-0.94079 1.8694-2.1165 2.1931-3.4656 0.0185-0.0774 0.0355-0.15528 0.0504-0.23348-0.21235-0.21185-0.47951-0.36759-0.76838-0.44829-0.37397-0.10454-0.7744-0.0823-1.1529 4e-3 -0.37849 0.0867-0.73956 0.23547-1.0983 0.38407-1.1281 0.46733-2.2608 0.9418-3.4512 1.214-1.0655 0.24365-2.1692 0.32336-3.2114 0.6524-0.52116 0.16452-1.026 0.39246-1.4649 0.71807-0.43889 0.32563-0.81009 0.7527-1.0256 1.2549-0.19689 0.45906-0.25736 0.9636-0.23502 1.4652z"/>
   <path d="m58.663 326.4c-2.2726 1.4632-4.4679 3.0466-6.5734 4.7414-1.1147 0.89723-2.2308 1.8415-3.566 2.3561-0.5774 0.22253-1.1904 0.36041-1.8091 0.37185-0.61869 0.0114-1.2432-0.10587-1.8017-0.37234-0.53193-0.2538-0.99955-0.64242-1.3423-1.1219-0.34274-0.47947-0.5594-1.049-0.61696-1.6356-0.05756-0.58656 0.0447-1.1887 0.29723-1.7212 0.25253-0.53253 0.65514-0.99365 1.1515-1.3115 0.60299-0.38612 1.324-0.55375 2.0384-0.6018 0.71441-0.048 1.4308 0.0168 2.1455 0.0608 3.3729 0.20766 6.7742-0.051 10.077-0.76623"/>
   <path d="m40.36 321.09c0.063 0.67392 0.30573 1.3321 0.68433 1.8951 0.21755 0.32348 0.48032 0.61888 0.7946 0.84951 0.31428 0.23061 0.68135 0.39467 1.0678 0.44601 0.43772 0.0582 0.88668-0.0295 1.2938-0.20061 0.40706-0.17113 0.77582-0.42279 1.1201-0.69932 0.68857-0.55308 1.3012-1.2178 2.0844-1.6261 1.0067-0.52496 2.1906-0.57244 3.3249-0.52433 1.1343 0.0477 2.2812 0.17975 3.3973-0.0282 1.2221-0.22768 2.3628-0.87136 3.19-1.7993-1.2958 0.033-2.5937-0.0263-3.8812-0.17773-1.9436-0.22849-3.8587-0.66581-5.7375-1.2134-1.0191-0.29705-2.0392-0.62878-3.0975-0.71015-0.52918-0.0407-1.0659-0.0173-1.5827 0.10363-0.51676 0.1209-1.0137 0.3419-1.429 0.6723-0.70791 0.56315-1.1478 1.4355-1.2305 2.3363-0.0206 0.22523-0.0202 0.45162 1e-3 0.67628z"/>
   <path d="m41.529 309.03c0.03 0.24039 0.0972 0.47625 0.1922 0.69941 0.25317 0.59512 0.69327 1.0914 1.1635 1.5353 0.91891 0.86754 2.0066 1.5912 3.2309 1.9044 1.501 0.38399 3.0796 0.12904 4.6215-0.0218 1.7136-0.16807 3.44-0.2054 5.1593-0.11088 0.20461-0.27814 0.27694-0.64934 0.19173-0.98394-0.0802-0.31459-0.29073-0.58591-0.55084-0.78016-0.26013-0.19421-0.56797-0.3167-0.88141-0.40121-0.62688-0.16903-1.2945-0.19678-1.8891-0.45742-0.52894-0.23188-0.96415-0.63257-1.3669-1.0465-0.40275-0.41391-0.78824-0.85197-1.2595-1.1859-0.5787-0.41004-1.2636-0.64592-1.9559-0.80005-0.69229-0.15413-1.3992-0.23121-2.0978-0.35378-0.78262-0.1373-1.5678-0.33265-2.3607-0.28068-0.3964 0.0265-0.79203 0.1162-1.1453 0.29803-0.35329 0.18179-0.66236 0.45877-0.85051 0.80868-0.15315 0.28478-0.22284 0.61146-0.2183 0.93469 2e-3 0.0808 7e-3 0.1616 0.0156 0.24187z"/>
   <path d="m47.841 300.21c0.0691 0.84551 0.47654 1.677 1.1625 2.176 0.52395 0.38114 1.1698 0.55144 1.8058 0.67478 0.63605 0.1233 1.2861 0.20936 1.8867 0.45242 0.76538 0.3098 1.4068 0.8561 2.0442 1.381 0.63737 0.5249 1.3044 1.0478 2.0916 1.297 0.71599 0.2267 1.5076 0.20793 2.2122-0.052 0.38072-0.75922 0.40873-1.6861 0.075-2.4672-0.28054-0.65661-0.79102-1.189-1.3414-1.6439-0.55035-0.45493-1.1504-0.84829-1.686-1.3205-1.146-1.0102-1.9605-2.3485-3.0811-3.3868-0.36373-0.33702-0.76253-0.64331-1.2143-0.84779-0.45174-0.20453-0.96099-0.30285-1.4491-0.21554-0.4122 0.0738-0.79508 0.27716-1.1136 0.54902-0.31847 0.27187-0.57556 0.61053-0.78659 0.9722-0.42752 0.73275-0.67513 1.5858-0.60592 2.4313z"/>
   <path d="m62.535 352.54c-0.16727 5e-3 -0.33462 3e-3 -0.50075-9e-3 -0.66449-0.045-1.3154-0.20166-1.9689-0.3302-0.59162-0.11636-1.1939-0.21193-1.7498-0.44545-0.27795-0.11676-0.54286-0.2681-0.77153-0.46456-0.22867-0.19648-0.42072-0.4391-0.54054-0.71572-0.21076-0.48701-0.1851-1.0568 2e-3 -1.5534 0.18717-0.49665 0.52507-0.92544 0.91622-1.2842 0.78229-0.7175 1.7738-1.171 2.5797-1.8619 1.1539-0.98933 1.8528-2.395 2.7947-3.5879 0.85977-1.0889 1.9668-2.0263 3.2871-2.4526 0.0757-0.0246 0.15213-0.0472 0.22893-0.0682 0.2275 0.19547 0.40327 0.44989 0.50591 0.73173 0.1329 0.36483 0.14153 0.76578 0.0842 1.1498-0.0574 0.38401-0.17805 0.75544-0.29869 1.1245-0.37941 1.1606-0.76558 2.3264-0.94568 3.5341-0.1612 1.081-0.156 2.1876-0.4041 3.252-0.12405 0.53223-0.3126 1.0531-0.60359 1.5157-0.29099 0.46257-0.68832 0.86545-1.1725 1.1188-0.4426 0.23154-0.941 0.33057-1.4428 0.34674z"/>
   <path d="m74.301 342.98c-1.2876 2.3164-2.6791 4.575-4.1689 6.7669-0.83423 1.2274-1.7134 2.4627-2.1298 3.8872-0.17351 0.59358-0.26304 1.2147-0.22764 1.8322 0.03541 0.6174 0.19815 1.2312 0.50513 1.768 0.29274 0.51195 0.71579 0.94937 1.2202 1.2549 0.50443 0.30553 1.0893 0.478 1.679 0.49018 0.58961 0.0122 1.1824-0.13651 1.694-0.42977 0.51166-0.29325 0.94038-0.7307 1.219-1.2505 0.33828-0.63103 0.44997-1.3626 0.44315-2.0786-0.0068-0.71595-0.12618-1.4253-0.22468-2.1345-0.46488-3.3471-0.46795-6.7581-0.0091-10.106"/>
   <path d="m82.05 360.29c-0.67677-0.0111-1.3517-0.20261-1.942-0.5369-0.33921-0.19209-0.6539-0.43144-0.90796-0.72708-0.25405-0.29568-0.44577-0.64909-0.52658-1.0305-0.0915-0.43198-0.0386-0.88632 0.10077-1.3053 0.13939-0.419 0.36203-0.80598 0.61133-1.1705 0.49861-0.72895 1.1144-1.3908 1.4614-2.203 0.44615-1.044 0.40269-2.2281 0.26769-3.3553-0.13501-1.1273-0.35425-2.2606-0.23255-3.3895 0.13326-1.236 0.68755-2.4227 1.5493-3.3186 0.0665 1.2946 0.22525 2.5841 0.47491 3.8561 0.37692 1.9204 0.95987 3.7963 1.65 5.6276 0.37435 0.99329 0.78335 1.9849 0.94568 3.0339 0.0812 0.52451 0.099 1.0614 0.0181 1.586-0.0809 0.52451-0.26312 1.0369-0.56069 1.4764-0.50717 0.74904-1.3432 1.2545-2.235 1.4061-0.22295 0.0379-0.44879 0.0543-0.67438 0.0506z"/>
   <path d="m92.932 358.73c-0.24198-0.0114-0.48232-0.0604-0.7121-0.13798-0.61278-0.20677-1.1413-0.60751-1.6201-1.0423-0.93548-0.84967-1.7405-1.8786-2.1466-3.0753-0.49796-1.4671-0.36518-3.0606-0.33278-4.6095 0.0361-1.7215-0.0591-3.4457-0.28526-5.1527 0.26163-0.22534 0.62619-0.32594 0.96634-0.26665 0.3198 0.0558 0.6065 0.24493 0.82012 0.48937 0.21361 0.24446 0.35934 0.54201 0.46766 0.84802 0.21665 0.61206 0.2955 1.2756 0.601 1.8484 0.27174 0.50963 0.70467 0.9128 1.1483 1.2826s0.90992 0.72058 1.279 1.1648c0.45322 0.54553 0.74093 1.2104 0.94774 1.8888 0.20679 0.67841 0.33787 1.3774 0.51367 2.0645 0.19694 0.76977 0.45194 1.5377 0.46095 2.3322 4e-3 0.39726-0.0551 0.79862-0.2093 1.1648-0.15413 0.36618-0.40659 0.69561-0.74104 0.91002-0.2722 0.17453-0.59243 0.26941-0.91519 0.28938-0.0807 5e-3 -0.16169 5e-3 -0.24235 3e-3z"/>
   <path d="m101.77 352.29c-0.84832-4e-3 -1.7086-0.34649-2.2588-0.99218-0.42022-0.49317-0.63956-1.124-0.81133-1.7488-0.17177-0.6247-0.3074-1.2662-0.59582-1.8464-0.36758-0.73937-0.96152-1.337-1.5338-1.9322-0.57226-0.59525-1.1448-1.2202-1.4537-1.9859-0.28093-0.69653-0.32298-1.4872-0.11782-2.2097 0.72777-0.43783 1.6498-0.53686 2.4541-0.26406 0.67621 0.22935 1.2462 0.69748 1.742 1.2113 0.49581 0.51381 0.93404 1.0819 1.4459 1.5797 1.0952 1.0651 2.492 1.7746 3.6132 2.8122 0.36393 0.33682 0.69991 0.71093 0.93844 1.1457 0.23853 0.43473 0.37566 0.93493 0.32608 1.4283-0.0419 0.41664-0.21536 0.814-0.46199 1.1524-0.24663 0.33839-0.56457 0.62071-0.90899 0.85885-0.69777 0.48247-1.5293 0.79479-2.3776 0.79066z"/>
  </g>
  <path d="m101.57 343.2c-1.2703-1.1781-2.5819-2.3336-3.6052-3.7316-0.21572-0.29474-0.42331-0.61286-0.47672-0.97419-0.0267-0.18066-0.01253-0.36941 0.05703-0.53827s0.19692-0.31632 0.36169-0.39508c0.13224-0.0632 0.28395-0.0806 0.42926-0.0614 0.14531 0.0192 0.28452 0.0737 0.41125 0.14734 0.25346 0.14729 0.45512 0.36693 0.66541 0.57116 0.64139 0.62291 1.3913 1.1241 2.0465 1.7325 0.32759 0.30419 0.63213 0.63636 0.87594 1.0111 0.24381 0.3747 0.42602 0.79374 0.49727 1.2351 0.025 0.15471 0.0363 0.31245 0.0202 0.46834-0.016 0.15589-0.0601 0.3102-0.14047 0.44476-0.0803 0.13456-0.19815 0.24861-0.34099 0.31306-0.14285 0.0645-0.31095 0.0767-0.45773 0.0218-0.13253-0.0496-0.23972-0.14831-0.34347-0.24453z" fill="#00887a" stroke="#000" stroke-width=".6"/>
  <g transform="matrix(1.8769 0 0 2.0458 54.481 54.034)">
   <g fill="#f91a2c" stroke="#f91a2c" stroke-linecap="square" stroke-width=".24843">
    <path d="m9.6603 138.53c0-0.34591 0.39749-1.1842 0.77921-1.6434 0.16799-0.20206 0.28908-0.41984 0.28908-0.41984 0.28234-0.41767 0.31702-0.39525 0.88918-1.0898 1.4318-1.6781 0.27201-0.0998-0.82285 1.5759-0.30949 0.47006-0.5627 0.88351-0.5627 0.91878 0 0.27285 0.58662-0.12825 1.8472-1.263 1.9787-1.7812 2.155-1.5842 0.28803 0.32206-1.0138 1.0351-1.8799 1.6982-2.3353 1.788-0.34143 0.0673-0.37173 0.0519-0.37173-0.18875z" style="paint-order:markers fill stroke"/>
    <path d="m7.4489 136.63c-0.0734-0.17536 0.42854-0.84532 0.91402-1.2201 0.69001-0.84202 1.6588-1.3208 2.5799-2.0145 0.34271-0.26094-1.6584 1.4538-2.1403 1.9265-0.54579 0.53532-0.65235 0.82861-0.30104 0.82861 0.11751 0 0.79948-0.32344 1.5155-0.71874 1.5791-0.87184 1.9804-1.0651 2.2112-1.0651 0.43826 0 0.17777 0.18095-2.0617 1.4322-0.77644 0.43382-2.17 0.9812-2.498 0.9812-0.0862 0-0.18496-0.0675-0.21948-0.15007z" style="paint-order:markers fill stroke"/>
    <path d="m6.0003 134.03c0-0.18499 0.47214-0.61281 0.57659-0.71147 0.69859-0.65987 3.5776-1.7192 3.5438-1.6385-0.16709 0.39949-5.864 3.1398-0.89584 1.7427 2.4862-0.55699 2.8181-0.33153 0.41541 0.28221-1.6596 0.42394-3.6399 0.60078-3.6399 0.32505z" style="paint-order:markers fill stroke"/>
    <path d="m6.6389 131.63c-1.237-0.11971-1.8238-0.35667-1.6878-0.68165 0.0963-0.23012 0.93746-0.47813 1.919-0.56575 0.50814-0.0454 1.0073-0.11603 1.1093-0.15704 0.11603-0.0467 0.20928-0.0174 0.24924 0.0781 0.0521 0.12461-0.14994 0.16645-1.1004 0.22784-1.218 0.0787-1.5646 0.17063-1.5646 0.41519 0 0.20471 0.15112 0.23216 2.3421 0.42548 1.068 0.0942 2.0202 0.21344 2.1159 0.26492 0.21011 0.11293-2.1946 0.1079-3.3828-7e-3z" style="paint-order:markers fill stroke"/>
    <path d="m4.1432 127.43c0.36912-0.0705 1.3447 0.11567 1.9125 0.36495 0.24985 0.1097 0.50693 0.17408 0.50693 0.17408 0.50324 0.16847 0.48638 0.20418 1.3441 0.57655 2.0825 0.94406 0.16194 0.22397-1.8494-0.4179-0.56468-0.18217-1.0575-0.32534-1.0951-0.31815-0.29116 0.0556 0.25641 0.50075 1.7242 1.4017 2.3041 1.4142 2.1297 1.6127-0.28497 0.32434-1.3112-0.69962-2.1953-1.3424-2.3839-1.7332-0.1414-0.29295-0.13114-0.3233 0.12566-0.37235z" style="paint-order:markers fill stroke"/>
    <path d="m5.7184 125.06c0.17217-0.10166 0.98939 0.21263 1.4883 0.5723 1.0392 0.44815 1.7475 1.2208 2.6755 1.9067 0.3483 0.25463-1.8894-1.1932-2.492-1.5298-0.68248-0.38112-1.0172-0.41706-0.94557-0.10152 0.0239 0.10555 0.50808 0.65217 1.0758 1.2147 1.2522 1.2407 1.5402 1.5617 1.5872 1.7689 0.0893 0.39364-0.15687 0.19655-1.9486-1.5599-0.62118-0.60897-1.4893-1.7491-1.5562-2.0437-0.0176-0.0774 0.0343-0.17988 0.11541-0.22772z" style="paint-order:markers fill stroke"/>
    <path d="m8.199 123.23c0.1974-0.0377 0.75016 0.29917 0.87673 0.37288 0.84653 0.49298 2.5637 2.863 2.4707 2.849-0.46035-0.0687-4.5457-4.627-2.0422-0.44946 1.1011 2.1196 0.92813 2.4636-0.21649 0.43063-0.79064-1.4043-1.3829-3.1469-1.0887-3.2031z" style="paint-order:markers fill stroke"/>
    <path d="m10.894 123.31c-0.12438-1.1355 9e-3 -1.7108 0.3834-1.6549 0.26519 0.0396 0.70127 0.74457 0.99482 1.6083 0.152 0.44715 0.32911 0.8811 0.39365 0.96433 0.0735 0.0947 0.0612 0.18443-0.0325 0.23978-0.12236 0.0722-0.20818-0.10075-0.4674-0.94193-0.33223-1.078-0.50095-1.3705-0.76193-1.3206-0.21844 0.0417-0.21694 0.18305 0.0233 2.1904 0.11715 0.97846 0.18397 1.858 0.14855 1.9545-0.0777 0.21173-0.56241-1.9491-0.68196-3.0398z" style="paint-order:markers fill stroke"/>
    <path d="m16.174 121.03c0.042 0.34376-0.25138 1.2174-0.57503 1.7127-0.14244 0.21796-0.23636 0.44675-0.23636 0.44675-0.22993 0.4439-0.26711 0.42516-0.75147 1.1738-1.2194 1.8138-0.25822 0.12695 0.62658-1.6501 0.25055-0.49874 0.45204-0.93547 0.44776-0.97052-0.0331-0.27116-0.56742 0.18734-1.6825 1.4437-1.7504 1.9722-1.9494 1.7943-0.32531-0.29065 0.88195-1.1322 1.6623-1.8796 2.104-2.0153 0.33115-0.10175 0.36313-0.0895 0.39232 0.14962z" style="paint-order:markers fill stroke"/>
    <path d="m18.602 122.69c0.0942 0.16677-0.32335 0.88382-0.76035 1.3058-0.58359 0.90723-1.4883 1.4819-2.3196 2.2654-0.30893 0.29431 1.4717-1.6141 1.8934-2.133 0.47746-0.58772 0.54779-0.89007 0.19866-0.8542-0.11678 0.012-0.75528 0.40306-1.4189 0.869-1.4636 1.0276-1.8389 1.2607-2.0682 1.2843-0.43553 0.0447-0.19861-0.16168 1.8752-1.6338 0.719-0.5104 2.0375-1.1967 2.3635-1.2301 0.0857-9e-3 0.19199 0.0482 0.23632 0.12673z" style="paint-order:markers fill stroke"/>
    <path d="m20.357 125.13c0.0224 0.18384-0.39487 0.65721-0.48671 0.76592-0.61421 0.7271-3.3468 2.0738-3.323 1.9901 0.1176-0.41407 5.4467-3.719 0.67889-1.8233-2.4032 0.80737-2.7604 0.61719-0.44706-0.23804 1.5979-0.59075 3.5445-0.96867 3.5779-0.69466z" style="paint-order:markers fill stroke"/>
    <path d="m20.014 127.58c1.2439-7e-3 1.8557 0.16825 1.76 0.50509-0.0678 0.23852-0.87364 0.57087-1.8384 0.75816-0.49947 0.097-0.98697 0.21815-1.0833 0.26932-0.10964 0.0582-0.20587 0.0386-0.25716-0.0522-0.0669-0.11852 0.12882-0.18073 1.0659-0.33877 1.2009-0.20257 1.5342-0.32931 1.5045-0.57235-0.0248-0.20344-0.17835-0.21529-2.3792-0.18372-1.0728 0.0154-2.0335-6e-3 -2.1349-0.0472-0.2225-0.0908 2.1678-0.33129 3.3626-0.33841z" style="paint-order:markers fill stroke"/>
    <path d="m23.435 131.29c-0.34761 0.13398-1.344 0.12256-1.9533-0.0224-0.26813-0.0638-0.53388-0.0819-0.53388-0.0819-0.52909-0.077-0.52-0.11502-1.4395-0.32991-2.2409-0.561-0.20566-0.19141 1.9024 0.0855 0.59224 0.0797 1.1058 0.13366 1.1412 0.12 0.27419-0.10566-0.35613-0.44648-1.9847-1.0731-2.5565-0.98357-2.4267-1.209 0.21204-0.36838 1.4329 0.45648 2.4348 0.93217 2.7014 1.2826 0.1999 0.26271 0.19616 0.2943-0.0457 0.38753z" style="paint-order:markers fill stroke"/>
    <path d="m22.384 133.9c-0.14778 0.12997-1.0154-0.035-1.5801-0.30043-1.1134-0.25743-1.9698-0.89141-3.0238-1.4017-0.39497-0.18878 2.1033 0.83945 2.765 1.064 0.74936 0.25426 1.0854 0.23077 0.94926-0.0664-0.0455-0.0994-0.63473-0.55091-1.3093-1.0034-1.4878-0.99789-1.8375-1.2624-1.9269-1.4576-0.16973-0.37068 0.11297-0.22045 2.2379 1.189 0.73673 0.48865 1.8266 1.4553 1.9537 1.7327 0.0334 0.0729 4e-3 0.18259-0.0658 0.24378z" style="paint-order:markers fill stroke"/>
    <path d="m20.331 136.13c-0.1859 0.0716-0.7987-0.16194-0.9383-0.21206-0.93372-0.33524-3.1135-2.36-3.0193-2.3626 0.46616-0.0134 5.4268 3.7435 2.0982 0.0826-1.5228-1.8871-1.4249-2.2551 0.12266-0.46069 1.069 1.2395 2.0138 2.8459 1.7367 2.9528z" style="paint-order:markers fill stroke"/>
    <path d="m17.669 136.52c0.35896 1.0926 0.34813 1.6807-0.0311 1.6917-0.26854 8e-3 -0.84363-0.60769-1.3119-1.4039-0.24247-0.4122-0.50681-0.80704-0.58753-0.8774-0.0918-0.0801-0.0985-0.17027-0.0181-0.24105 0.10505-0.0923 0.22535 0.0623 0.65525 0.84245 0.55093 0.99974 0.77756 1.2572 1.0233 1.1625 0.20572-0.0793 0.17475-0.21775-0.4798-2.1458-0.31912-0.93981-0.56813-1.7914-0.55353-1.8923 0.0321-0.22147 0.95858 1.8144 1.3034 2.8639z" style="paint-order:markers fill stroke"/>
   </g>
   <path d="m27.602 176.68c0.10896-0.67029 5.4048-10.073 5.9185-10.59 0.86565-0.87477 2.0675 0.16839 2.7643 0.56013 2.9124 1.8308 4.4183 4.1618 7.1156 3.7652 1.9502-0.28677 2.496-1.4299 2.6212-4.8871 0.05585-1.5421-0.14905-4.0394-0.14905-4.0394l-3.3033-1.9069c-2.1847-1.2611-3.3828-2.0619-3.5381-2.3647-0.32959-0.64247-0.55607-8.9648-0.2616-9.6196 0.28656-0.63766 7.2738-5.144 8.0003-5.1597 0.7265-0.0154 7.9474 4.1832 8.2679 4.8077 0.3282 0.63953 0.54948 8.9627 0.25557 9.62-0.13907 0.31125-1.2785 1.1496-3.4074 2.5067l-3.1984 2.0391 0.06813 4.0494c0.18314 3.3719-0.08485 4.2742 1.6873 4.8986 2.9005 1.022 5.6381-2.6529 8.0986-4.1909 0.92164-0.52421 1.8429-1.474 2.731-0.67901 0.54083 0.49396 5.9942 9.7104 6.139 10.375 0.26081 1.1973-2.1428 1.8947-2.8364 1.1939-0.94525-0.95501-0.87442-2.8177-1.545-4.1442-0.82613-1.6341-1.7811-4.5316-3.0271-4.6473-0.94677-8.6e-4 -3.4614 1.8555-4.9996 3.0132-1.1585 0.87194-1.9831 2.0657-3.1463 2.9326-1.3737 1.0238-4.1302 2.628-4.4755 2.6413-0.36649 0.013-2.937-1.5734-4.2628-2.5351-1.3302-0.96491-2.2134-2.4131-3.6683-3.22-3.2583-1.8069-3.314-2.0577-4.6937-1.868-1.3797 0.18976-2.3316 2.8152-2.9294 4.4536-0.59554 1.6323-0.51473 4.1744-2.3215 4.5134-0.83085 0.15595-2.0475-0.51799-1.904-1.518zm22.99-19.755 2.5274-1.0174-0.45604-3.802 0.21171-3.8021-2.5393-0.92214c-1.2297-0.71698-2.5248-1.4563-2.8781-1.6429l-0.64234-0.33929-2.7526 1.7654-3.1168 1.5474 0.45594 3.6373-0.27241 4.0733 3.2083 0.99036 2.8442 1.6442 0.62341-0.36665c0.34285-0.20177 1.5969-0.99616 2.7866-1.7655z" fill="#ff9243" stroke="#000" stroke-width=".3062"/>
  </g>
  <g fill="#00887a" stroke="#000" stroke-width=".6">
   <path d="m93.49 341.78c0.27519 0.33793 0.41425 0.76582 0.50938 1.1911 0.09514 0.42529 0.15271 0.86055 0.29241 1.2734 0.19018 0.56196 0.52542 1.0619 0.86545 1.548 0.34004 0.48615 0.69171 0.97144 0.92154 1.5184 0.22982 0.54695 0.32959 1.1714 0.14784 1.7362-0.09088 0.28237-0.25212 0.54416-0.4754 0.73945s-0.50959 0.32151-0.80579 0.33742c-0.37742 0.0203-0.75168-0.13949-1.0334-0.39146-0.28173-0.25196-0.47677-0.58981-0.60417-0.94566-0.2548-0.71169-0.25013-1.4876-0.40575-2.2273-0.26721-1.2701-0.99862-2.4004-1.3137-3.6595-0.05864-0.23436-0.10231-0.47573-0.08424-0.71664 0.01807-0.24091 0.10243-0.48078 0.26231-0.66189 0.15988-0.18111 0.39346-0.29521 0.63468-0.30853 0.24122-0.0133 0.48006 0.0721 0.68291 0.20327 0.15319 0.0991 0.2907 0.22234 0.40591 0.36381z"/>
   <path d="m84.293 343.71c0.04666-0.19686 0.14508-0.38121 0.2827-0.52951s0.31412-0.2602 0.50695-0.32141c0.19283-0.0612 0.40156-0.0716 0.59951-0.0298s0.38468 0.13562 0.53633 0.26954c0.27273 0.24084 0.4205 0.59828 0.47583 0.95789 0.05533 0.35962 0.02687 0.72622-0.0014 1.089-0.08227 1.0543-0.16179 2.1197-0.0021 3.1651 0.07748 0.5071 0.21105 1.0222 0.11368 1.5259-0.04868 0.25183-0.1582 0.49645-0.33941 0.67798-0.0906 0.0908-0.19842 0.16488-0.31734 0.21292-0.11891 0.048-0.24895 0.0696-0.37669 0.0582-0.17817-0.0159-0.34773-0.0958-0.48358-0.21219-0.13585-0.11636-0.23914-0.2678-0.31225-0.43106-0.14622-0.32651-0.17279-0.692-0.19854-1.0488-0.12969-1.7972-0.29096-3.5922-0.48371-5.3837z"/>
   <path d="m77.921 344.04c-1.1324 1.2853-1.8539 2.9272-2.0348 4.6306-0.02536 0.23884-0.04028 0.48134-0.0011 0.7183 0.03921 0.23696 0.13667 0.47016 0.30903 0.63743 0.12351 0.11986 0.28206 0.20191 0.44989 0.24004 0.16784 0.0381 0.34454 0.0329 0.51161-8e-3 0.33413-0.0828 0.62176-0.30753 0.82673-0.58408 0.20497-0.27655 0.33347-0.6028 0.42557-0.93448 0.0921-0.33168 0.14987-0.67179 0.22734-1.0072 0.1853-0.80219 0.48297-1.5751 0.83415-2.3198 0.11239-0.23831 0.23098-0.47569 0.3013-0.72961 0.07032-0.25392 0.08978-0.52948 0.0033-0.77834-0.06891-0.1982-0.20471-0.37248-0.38005-0.48776-0.17534-0.11527-0.38918-0.17085-0.59846-0.15555-0.20928 0.0153-0.41276 0.10141-0.56946 0.24097-0.1567 0.13956-0.2657 0.33174-0.30504 0.53786z"/>
   <path d="m66.709 346.04c0.8978-1.4817 1.7652-2.9994 2.9283-4.2834 0.2452-0.27071 0.51495-0.53816 0.85809-0.6633 0.17157-0.0626 0.3593-0.0867 0.53872-0.0527 0.17941 0.0341 0.34952 0.12911 0.45988 0.27462 0.08857 0.11678 0.13617 0.26188 0.14667 0.40807 0.0105 0.1462-0.01483 0.29354-0.06141 0.43251-0.09317 0.27795-0.26764 0.51975-0.42528 0.7669-0.48082 0.7538-0.82059 1.5893-1.2844 2.3537-0.23191 0.38219-0.49588 0.74744-0.81375 1.0618-0.31787 0.31433-0.69158 0.57727-1.1095 0.73602-0.1465 0.0557-0.29872 0.0985-0.45464 0.11423-0.15592 0.0157-0.31596 4e-3 -0.46395-0.0479-0.14799-0.0516-0.28344-0.14396-0.37537-0.27088-0.09192-0.12692-0.13778-0.28911-0.1136-0.44394 0.02183-0.1398 0.09694-0.2647 0.17027-0.38572z"/>
   <path d="m65.158 337.32c-0.21027 0.3808-0.54419 0.67759-0.89143 0.93958-0.34725 0.262-0.71588 0.49858-1.031 0.79844-0.4311 0.41019-0.74704 0.92417-1.0508 1.4359-0.30374 0.51171-0.60413 1.0326-1.0119 1.466-0.40782 0.43334-0.94095 0.77777-1.5329 0.83862-0.29597 0.0304-0.60144-0.0123-0.8707-0.13886-0.26927-0.12658-0.50037-0.33894-0.63406-0.60475-0.17374-0.34543-0.17381-0.76247-0.0497-1.1287 0.12411-0.3662 0.36363-0.68498 0.64509-0.95009 0.56292-0.53023 1.2875-0.85699 1.8834-1.3499 0.50522-0.41791 0.90607-0.94503 1.3427-1.4341 0.43666-0.4891 0.92971-0.95463 1.5405-1.193 0.36995-0.14434 0.79189-0.1976 1.1631-0.0565 0.1856 0.0705 0.35431 0.18954 0.47334 0.34846 0.11904 0.15892 0.18634 0.35832 0.17582 0.5566-0.0088 0.16651-0.07081 0.32631-0.15141 0.47228z"/>
   <path d="m59.648 329.71c0.37925-0.0645 0.78693 0.0722 1.0506 0.35233 0.26365 0.28016 0.3754 0.69538 0.28796 1.07-0.08859 0.37961-0.36372 0.69452-0.68682 0.91262-0.32309 0.21809-0.69429 0.35196-1.0611 0.48387-0.96696 0.34773-1.942 0.70096-2.8117 1.2482-0.43092 0.27117-0.84725 0.59471-1.3434 0.709-0.24807 0.0571-0.51353 0.0577-0.75245-0.0301-0.23892-0.0879-0.44808-0.2703-0.53902-0.50807-0.06864-0.17947-0.06752-0.38183-0.01305-0.5661 0.05447-0.18426 0.16015-0.35098 0.29125-0.49146 0.26219-0.28095 0.61636-0.45454 0.96056-0.62544 1.576-0.78249 3.1171-1.6352 4.6172-2.5549z"/>
   <path d="m56.745 322.97c-1.5983-0.66844-3.4684-0.65629-5.0579 0.0328-0.21407 0.0928-0.42559 0.19887-0.60234 0.35118-0.17676 0.1523-0.31759 0.35591-0.35709 0.58587-0.02684 0.15625-0.0057 0.31941 0.05313 0.46663s0.15456 0.27861 0.27165 0.38551c0.23416 0.2138 0.54683 0.32595 0.86092 0.36941 0.62818 0.0869 1.2702-0.0811 1.8991-2e-4 0.73364 0.0944 1.391 0.51918 2.122 0.63192 0.36552 0.0564 0.75535 0.0286 1.0791-0.15014 0.16188-0.0894 0.30447-0.2159 0.40426-0.37158 0.09979-0.15569 0.15556-0.34089 0.14854-0.52568-9e-3 -0.23767-0.11791-0.45871-0.22673-0.67019-0.19147-0.37212-0.38975-0.74072-0.59472-1.1056z"/>
   <path d="m50.342 314.61c1.6753 0.26801 3.3788 0.41131 5.0073 0.88685 0.32568 0.0951 0.65682 0.20843 0.91331 0.43053 0.12824 0.11104 0.23538 0.2488 0.29838 0.40631 0.063 0.15751 0.0801 0.3353 0.03472 0.49876-0.04407 0.15878-0.14475 0.298-0.26839 0.40693-0.12364 0.10893-0.26973 0.18952-0.41994 0.25726-0.92046 0.41511-1.9964 0.35707-2.964 0.0685-0.96762-0.28859-1.8547-0.79092-2.7494-1.2591-0.30596-0.16012-0.62537-0.32638-0.82826-0.60582-0.10144-0.13972-0.1698-0.30662-0.17579-0.47917-6e-3 -0.17256 0.05449-0.35012 0.17844-0.47033 0.12233-0.11865 0.29533-0.17343 0.46537-0.18466 0.17004-0.0112 0.33992 0.0171 0.50819 0.044z"/>
   <path d="m83.854 295.51c-0.08449-0.42642-0.02526-0.86808 0.06434-1.2934s0.20966-0.84628 0.24782-1.2793c0.05261-0.59702-0.0521-1.1957-0.1637-1.7845-0.1116-0.58885-0.23107-1.1829-0.2082-1.7818 0.02287-0.59889 0.20329-1.2136 0.61806-1.6463 0.20738-0.21631 0.47072-0.38178 0.76065-0.45756 0.28993-0.0758 0.60612-0.059 0.8797 0.0633 0.34134 0.15257 0.59896 0.46102 0.73664 0.80863 0.13769 0.34762 0.16349 0.73178 0.12623 1.1038-0.07452 0.74405-0.39054 1.4436-0.51309 2.1812-0.10685 0.64318-0.06445 1.3002-0.0607 1.9522 0.0038 0.65199-0.03508 1.3204-0.29123 1.92-0.08305 0.19439-0.18886 0.3802-0.3254 0.54158-0.13655 0.16137-0.30464 0.29797-0.49709 0.38544-0.19245 0.0875-0.40977 0.12433-0.61851 0.0909-0.20873-0.0334-0.40751-0.13944-0.54096-0.30339-0.1158-0.14227-0.17889-0.32086-0.21455-0.50081z"/>
   <path d="m91.86 297.1c-0.31521 0.22054-0.7422 0.27131-1.1003 0.13083-0.35814-0.14048-0.63673-0.46802-0.71792-0.84406-0.08228-0.38103 0.03174-0.78337 0.23052-1.1187 0.19878-0.33532 0.47707-0.61509 0.75222-0.89122 0.72532-0.72788 1.4556-1.4642 2.0077-2.3309 0.27354-0.42942 0.5115-0.89994 0.9111-1.2154 0.1998-0.15776 0.43951-0.27182 0.69306-0.29456 0.25355-0.0227 0.52064 0.0527 0.70453 0.22874 0.1388 0.13287 0.22433 0.31627 0.2539 0.50613 0.02957 0.18985 0.0053 0.38575-0.05307 0.5688-0.11684 0.3661-0.36274 0.67449-0.60077 0.97618-1.0899 1.3814-2.1182 2.8113-3.0809 4.2842z"/>
   <path d="m99.389 302.22c0.88213-0.16601 1.718-0.57135 2.3946-1.1612s1.1921-1.3627 1.4769-2.2139c0.0678-0.20262 0.12306-0.41167 0.13083-0.62517 8e-3 -0.21351-0.0347-0.43318-0.15007-0.61303-0.0853-0.13297-0.20826-0.24043-0.34849-0.31315-0.14022-0.0727-0.29724-0.1112-0.45504-0.11838-0.3156-0.0144-0.62746 0.0953-0.89635 0.26116-0.53778 0.3317-0.91191 0.87133-1.4039 1.2678-0.52764 0.42514-1.1765 0.67447-1.7213 1.0774-0.2724 0.20146-0.51998 0.44432-0.68614 0.73958-0.16616 0.29526-0.24589 0.64701-0.17739 0.97882 0.07881 0.38174 0.36012 0.71551 0.72301 0.85782 0.36289 0.1423 0.7961 0.0887 1.1134-0.13768z"/>
   <path d="m107.02 308.83c-1.7045 0.31009-3.4158 0.66685-5.1481 0.64723-0.3652-4e-3 -0.74424-0.0288-1.0654-0.20276-0.16057-0.087-0.30311-0.2115-0.39651-0.36843-0.0934-0.15692-0.13502-0.34726-0.0992-0.52633 0.0287-0.14372 0.10579-0.27552 0.20827-0.38029s0.22958-0.18348 0.3645-0.24073c0.26983-0.1145 0.5665-0.14417 0.85601-0.18999 0.8831-0.13975 1.7339-0.43927 2.6136-0.59873 0.43988-0.0797 0.88832-0.12424 1.3344-0.0946 0.44606 0.0296 0.89065 0.1351 1.2866 0.34274 0.13878 0.0728 0.27179 0.15833 0.38691 0.26466 0.11513 0.10632 0.21217 0.23415 0.27167 0.37912 0.0595 0.14498 0.0801 0.30764 0.046 0.4606s-0.12512 0.29481-0.25707 0.37934c-0.11914 0.0763-0.26243 0.10289-0.40163 0.12821z"/>
   <path d="m56.908 310.64c-0.42374-0.0983-0.80044-0.33846-1.1473-0.60092-0.34689-0.26247-0.67518-0.55243-1.0497-0.77366-0.51237-0.30263-1.0931-0.46615-1.6683-0.61855-0.57522-0.15241-1.1584-0.29908-1.6866-0.57303-0.52826-0.27394-1.0052-0.69272-1.2254-1.2455-0.11011-0.27641-0.15246-0.58193-0.10424-0.87553 0.04821-0.2936 0.18938-0.57393 0.40856-0.77514 0.28483-0.26149 0.686-0.37547 1.0722-0.35612 0.38617 0.0194 0.75826 0.16269 1.0902 0.36103 0.66383 0.39667 1.1761 1.0044 1.813 1.443 0.54001 0.37186 1.1566 0.6135 1.7463 0.89997 0.58977 0.28646 1.1723 0.63357 1.5684 1.156 0.23993 0.31641 0.40648 0.70772 0.3722 1.1033-0.01714 0.19781-0.08548 0.39261-0.20581 0.55055-0.12032 0.15793-0.29374 0.27718-0.48733 0.32124-0.1627 0.037-0.33346 0.0211-0.49601-0.0167z"/>
   <path d="m62.725 301.37c0.16568 0.3472 0.14552 0.77672-0.05197 1.1069-0.19749 0.33015-0.56639 0.55106-0.95066 0.56929-0.38938 0.0185-0.76747-0.16019-1.0655-0.41142-0.29805-0.25124-0.52823-0.57176-0.75532-0.8886-0.59864-0.8352-1.2048-1.6767-1.9688-2.3638-0.37856-0.34046-0.80352-0.65258-1.049-1.0986-0.12274-0.22303-0.19581-0.47823-0.17653-0.73207 0.01928-0.25384 0.13763-0.50487 0.34152-0.6573 0.1539-0.11505 0.34887-0.16925 0.541-0.16718 0.19213 2e-3 0.38138 0.0582 0.55232 0.14593 0.34189 0.17547 0.60562 0.46875 0.86404 0.75318 1.1832 1.3023 2.4245 2.5519 3.719 3.7438z"/>
   <path d="m70.477 295.97c-0.1028-1.7815-1.154-3.4806-2.7023-4.3678-0.18714-0.10723-0.38337-0.20417-0.59437-0.24891-0.21099-0.0447-0.43973-0.0335-0.63054 0.067-0.1344 0.0708-0.24497 0.18366-0.32056 0.31546-0.07559 0.13179-0.1169 0.28196-0.12798 0.43348-0.02217 0.30305 0.07453 0.60404 0.2123 0.87487 0.13777 0.27083 0.31634 0.51847 0.47388 0.7783s0.29616 0.53817 0.34168 0.8386c0.04481 0.29572-0.0029 0.59867-0.08479 0.88633-0.0819 0.28766-0.19726 0.56451-0.29595 0.84685-0.0987 0.28235-0.18101 0.57312-0.20185 0.87149-0.02085 0.29836 0.02237 0.6046 0.15247 0.87392s0.34857 0.49719 0.61803 0.627c0.26946 0.12981 0.5849 0.15822 0.87507 0.0857 0.29017-0.0725 0.55053-0.24211 0.7585-0.45707s0.36503-0.47296 0.51795-0.73001z"/>
   <path d="m77.556 289c0.26298 1.7124 0.57248 3.4328 0.50527 5.164-0.01417 0.36497-0.04924 0.7432-0.23195 1.0594-0.09136 0.15813-0.21976 0.2972-0.37919 0.38626-0.15943 0.0891-0.35085 0.12544-0.52888 0.0847-0.14288-0.0327-0.27253-0.11333-0.37445-0.21867-0.10192-0.10533-0.1771-0.23456-0.23062-0.37101-0.10703-0.2729-0.12853-0.5703-0.16636-0.86099-0.11537-0.88661-0.39134-1.7453-0.52653-2.6291-0.06759-0.44191-0.09974-0.89141-0.05787-1.3365s0.15955-0.8866 0.378-1.2766c0.07658-0.13673 0.16575-0.26734 0.2752-0.3795 0.10945-0.11216 0.2399-0.20565 0.38646-0.26114 0.14656-0.0555 0.30974-0.0716 0.4617-0.0333s0.29126 0.13318 0.37213 0.26742c0.07302 0.1212 0.09562 0.26518 0.1171 0.40503z"/>
  </g>
  <g transform="matrix(1.8769 0 0 2.0458 78.91 114.37)">
   <path d="m35.447 120.59c-0.13523-8.7e-4 0.0095-4e-3 -0.18668 0.0191-0.04979 6e-3 -0.09676 5e-3 -0.14715 0.0124-0.05822 0.01-0.11924 0.0296-0.17823 0.0387-0.23876 0.024-0.11852 7e-3 -0.36115 0.0496-0.22694 0.041-0.4795 0.084-0.70043 0.21621-0.03962 0.0374-0.12071 0.0603-0.13597 0.10814-0.0031 0.0163 0.02537 0.0175 0.03272 0.0294 0.01604 0.0226 0.02526 0.0488 0.03914 0.0731 0.1921 0.19842 0.42029 0.36999 0.62428 0.55972 0.10865 0.10096 0.27965 0.26923 0.38497 0.37218 0.14416 0.18611 0.31497 0.35726 0.41898 0.56793 0.02564 0.0539 0.04282 0.11256 0.0628 0.16952 0.01808 0.0479 0.03717 0.0945 0.04751 0.14535 0.0077 0.0429 0.0061 0.0899 0.0093 0.13492-0.01086 0.0449-0.0124 0.0888-0.03444 0.13463-0.11695 0.23438-0.44835 0.39789-0.71612 0.48083-0.09526 0.0295-0.18974 0.048-0.28524 0.0709-0.3231 0.0838-0.63379 0.11146-0.94425 0.14439-0.13266 0.014-0.45856 0.051-0.59324 0.0605-0.08699 6e-3 -0.172 7e-3 -0.2578 0.011-0.23693 0.0292-0.46819 0.0402-0.69645 0.0469-0.11742 4e-3 -0.04127-0.01-0.14087 0.0133-0.0097 2e-3 -0.01713-5e-3 -0.02386 2e-3 -4e-3 6e-3 0.01036 7e-3 0.01721 6e-3 0.0043-4.5e-4 0.0133-0.0145 0.01107-0.0108-0.03076 0.0404-0.04421 0.0587-0.05699 0.10128-0.01986 0.15108 0.06632 0.25952 0.1468 0.36394 0.12299 0.1601 0.13791 0.16711 0.28712 0.32333 0.20845 0.20541 0.43136 0.39874 0.68467 0.56959 0.08886 0.0593 0.18454 0.11256 0.27224 0.17275 0.08362 0.0565 0.15803 0.12006 0.23919 0.1783 0.07241 0.0528 0.14879 0.10269 0.22342 0.154 0.72221 0.49695-0.25842-0.18103 0.34263 0.24339 0.0591 0.0415 0.23692 0.13907 0.25782 0.21048 0.0064 0.0267-0.0052 0.0603-0.0075 0.0906-0.01881 0.0352-0.03339 0.0715-0.06048 0.10561-0.03826 0.048-0.15757 0.14522-0.21362 0.18003-0.04901 0.0302-0.10188 0.0528-0.15303 0.0796-0.06035 0.0318-0.11816 0.0687-0.17977 0.0966-0.07271 0.0329-0.14783 0.0568-0.22161 0.0851-2.2736 0.93705-1.4148 0.29982-1.1382 0.20622 0.1007-0.034 0.20155-0.0626 0.30218-0.0956 0.26772-0.0877 0.53507-0.18325 0.80249-0.27463 0.06443-0.0284 0.12885-0.0572 0.19333-0.0853 0.05179-0.0224 0.10466-0.0407 0.15552-0.0659 0.09748-0.0475 0.12763-0.076 0.21141-0.13378 0.05361-0.0371 0.03306-0.0316 0.0722-0.0326 0.02478-0.0514-0.07449-0.10415-0.09854-0.12152-0.15223-0.10994-0.3105-0.2151-0.46804-0.32055-0.22992-0.1666-0.22264-0.16221-0.46335-0.33302-0.14628-0.10416-0.38155-0.2664-0.51962-0.37679-0.08067-0.0636-0.15217-0.13416-0.23098-0.19918-0.07318-0.06-0.14899-0.11775-0.22348-0.17665-0.11496-0.13057-0.19004-0.21224-0.29611-0.34496-0.07815-0.0977-0.13112-0.15032-0.15894-0.27253-0.01554-0.0743-1e-3 -0.14168 0.01097-0.2229 0.07242-0.13931 0.15355-0.25088 0.35022-0.29469 0.09635-0.0124 0.1839-0.0176 0.27755-0.0221 0.18937-8e-3 0.38539-0.0321 0.56586-0.0208 0.23053-0.019 0.30362-0.0235 0.54103-0.0499 0.09953-0.0108 0.20071-0.0267 0.30006-0.0363 0.1022-0.0101 0.20037-9e-3 0.30396-0.0235 0.19539-0.027 0.40038-0.0916 0.59446-0.11324 0.25876-0.0665 0.21613-0.0441 0.45233-0.14197 0.09607-0.0403 0.25222-0.10168 0.29802-0.19437 0.01451-0.0301 0.01-0.058 0.01733-0.0873 4.56e-4 -0.0368 0.0041-0.0753 0.0014-0.11051-0.01347-0.11866-0.05185-0.18045-0.10611-0.28426-0.03025-0.0599-0.06099-0.12024-0.09859-0.17625-0.0882-0.13187-0.20763-0.24471-0.29078-0.37982-0.3273-0.32565-0.6956-0.6213-1.0259-0.94491-0.05237-0.0834-0.09489-0.10383-0.06865-0.21734 0.02742-0.11663 0.16584-0.19388 0.28346-0.2744 0.14236-0.0813 0.19254-0.0956 0.34272-0.14469 0.04861-0.0155 0.09686-0.0371 0.14528-0.0495 0.11208-0.029 0.21984-0.0271 0.33408-0.0676 0.25415-0.0359 0.11681-0.0145 0.37544-0.0588 0.62089-0.15522 1.3581-0.87495 1.279-0.34936-0.27741 0.16223-0.68809 0.46998-0.82652 0.48021zm0.28168-1.5366c-0.05881 0.0105-0.12003 0.0318-0.17884 0.0428-0.24104 0.0299-0.11978 0.0101-0.36418 0.0581-0.22844 0.0461-0.48268 0.095-0.70127 0.23088-0.03871 0.0377-0.12031 0.0624-0.13344 0.11002-0.0031 0.0161 0.02564 0.0167 0.0334 0.0283 0.01849 0.0219 0.02854 0.0474 0.04259 0.0711 0.203 0.19062 0.44102 0.35393 0.65562 0.53567 0.11379 0.0969 0.29437 0.25822 0.4054 0.35698 0.15373 0.17973 0.33379 0.34403 0.44781 0.54899 0.02848 0.0524 0.04807 0.10981 0.07046 0.16548 0.01791 0.0469 0.04158 0.0922 0.05403 0.14199 0.01087 0.0421 0.01007 0.0885 0.01455 0.13276-0.011 0.0446-0.0077 0.0878-0.02951 0.13355-0.10907 0.23392-0.43842 0.40345-0.70653 0.49201-0.09533 0.0314-0.19062 0.0516-0.28592 0.0776-0.32462 0.0902-0.638 0.12594-0.95142 0.16625-0.13385 0.0173-0.46282 0.0619-0.59893 0.0747-0.08779 8e-3 -0.17403 0.0118-0.26083 0.0178-0.23909 0.0348-0.47304 0.0514-0.70417 0.0639-0.11885 6e-3 -0.04183-8e-3 -0.14226 0.0166-0.0097 2e-3 -0.01701-3e-3 -0.02381 3e-3 -4e-3 6e-3 0.01032 6e-3 0.01464 5e-3 0.0043-4.7e-4 0.01329-0.0147 0.0089-0.0115-0.02944 0.0405-0.04244 0.0589-0.0536 0.10131-0.01377 0.14936 0.0777 0.25407 0.16358 0.35491 0.13121 0.15465 0.14657 0.16116 0.3041 0.31134 0.21978 0.1971 0.45344 0.38199 0.71737 0.54381 0.09235 0.0564 0.19149 0.10625 0.28289 0.16332 0.08637 0.054 0.16548 0.11413 0.24955 0.16971 0.07623 0.0499 0.15509 0.0974 0.23241 0.14612 0.75223 0.4714-0.26932-0.1718 0.35719 0.23116 0.06124 0.0396 0.24565 0.1311 0.27031 0.2007 0.0096 0.0258-0.0031 0.0597-5e-3 0.0895-0.01881 0.0352-0.03078 0.0713-0.05709 0.10566-0.03682 0.0482-0.15384 0.14716-0.20934 0.18284-0.04851 0.0311-0.10153 0.0544-0.15185 0.0822-0.05949 0.033-0.11706 0.0706-0.17833 0.0997-0.07237 0.0346-0.14761 0.0597-0.22128 0.0896-0.56296 0.22279-1.1315 0.39933-1.6958 0.61139-0.08193 0.0281-0.16444 0.0527-0.24591 0.084-0.22997 0.11059-0.48037 0.18318-0.69196 0.26552 0 0-0.628 0.11831-0.01265-0.15996v0c0.37608-0.21199 0.36124-0.12876 0.92942-0.36147 0.93028-0.32015-0.41748 0.14698 0.57149-0.20738 0.10075-0.0361 0.20169-0.0668 0.3025-0.10189 0.26778-0.0933 0.53499-0.19422 0.8024-0.291 0.06355-0.03 0.12845-0.0596 0.19282-0.0889 0.05172-0.0233 0.10427-0.043 0.15505-0.0687 0.09656-0.0495 0.1263-0.0782 0.20876-0.1372 0.0529-0.0378 0.03227-0.0321 0.07243-0.0338 0.02337-0.0513-0.08012-0.10066-0.10466-0.11733-0.15877-0.10452-0.32352-0.20407-0.48754-0.30397-0.23981-0.15828-0.23254-0.1541-0.48319-0.31642-0.15257-0.0988-0.39745-0.25287-0.54198-0.3581-0.08354-0.0612-0.15988-0.12829-0.24206-0.1906-0.07637-0.0574-0.15645-0.11195-0.2348-0.16791-0.1218-0.12575-0.20117-0.20435-0.31414-0.33241-0.08313-0.0944-0.13909-0.14477-0.172-0.2646-0.02-0.0728-0.0063-0.13959 0.0023-0.21993 0.06773-0.13913 0.14562-0.25114 0.34311-0.29929 0.0974-0.0144 0.18573-0.022 0.28043-0.0286 0.19163-0.0137 0.38932-0.0415 0.57278-0.0349 0.23298-0.0245 0.30684-0.0309 0.54641-0.0629 0.10063-0.0136 0.20251-0.0313 0.30271-0.0435 0.10331-0.0127 0.20286-0.0143 0.3072-0.0308 0.19697-0.0315 0.40172-0.10107 0.59802-0.1267 0.26014-0.0713 0.21722-0.049 0.45284-0.15132 0.09571-0.042 0.25147-0.10664 0.29431-0.19906 0.01451-0.0301 0.01-0.0576 0.01259-0.0864-0.0017-0.0364 0.0019-0.0743-4e-3 -0.10885-0.02083-0.1164-0.06006-0.17648-0.11924-0.2774-0.03394-0.058-0.06674-0.11688-0.1064-0.17134-0.09486-0.12768-0.22036-0.23587-0.31026-0.36688-0.34502-0.31259-0.73026-0.59458-1.0783-0.90508-0.05707-0.0806-0.1007-0.0999-0.07832-0.21244 0.02302-0.11561 0.16021-0.19524 0.27621-0.27759 0.14098-0.0836 0.19131-0.0991 0.34147-0.15142 0.04837-0.0172 0.09671-0.0389 0.14505-0.0525 0.11288-0.0311 0.22158-0.0324 0.33601-0.0751 0.25619-0.0418 0.11777-0.0173 0.37816-0.0675 0.06036-0.0117 0.12185-0.0267 0.18162-0.0348 0.11739-0.0161 0.22923-7e-3 0.35304-0.046 0.17315-0.0171 0.10282 0.18151-0.0704 0.19835-0.15467 0.0113-0.12572 0.0136-0.33332 0.0394z" fill="#fc6671" stroke="#f91a2c" stroke-linecap="square" stroke-width=".67566" style="paint-order:markers fill stroke"/>
  </g>
  <path d="m142.27 303.18c0.21985-0.22402 0.43649-0.45134 0.65266-0.67908 0.40674-0.42801 0.78978-0.87853 1.166-1.3347 0.34707-0.41658 0.67367-0.84977 0.98355-1.2959 0.1701-0.25004 0.32938-0.50809 0.46453-0.77982 0.12633-0.27505 0.0487-0.34514 0.59759 0.0619 0.0428 0.0318-9e-3 0.10814-0.0151 0.16204-8e-3 0.0681-0.0169 0.1361-0.0255 0.20414-0.09 0.63696-0.18794 1.2727-0.27429 1.9102-0.10567 0.78387-0.18644 1.5708-0.25698 2.3587-0.0516 0.58587-0.0889 1.1729-0.1144 1.7606-0.0875 2.0166-0.64364 1.9913-0.55611-0.0253v0c0.026-0.59662 0.0637-1.1926 0.11618-1.7874 0.0713-0.79671 0.15305-1.5925 0.25994-2.3851 0.0861-0.63555 0.18358-1.2693 0.2735-1.9043 8e-3 -0.0624 0.0163-0.12489 0.0235-0.18748 5e-3 -0.0443-0.0296-0.12484 0.0131-0.13333 0.68173-0.13531 0.57957-0.0605 0.45397 0.22555-0.14819 0.29613-0.32041 0.57858-0.50673 0.85101-0.31893 0.45897-0.65487 0.90478-1.0119 1.3334-0.38466 0.46622-0.77628 0.92668-1.1921 1.3642-0.21793 0.22957-0.43631 0.4587-0.65789 0.68455-1.3917 1.4274-1.7853 1.0237-0.39364-0.40374z" stroke="#000" stroke-linecap="square" stroke-width=".3" style="paint-order:markers fill stroke"/>
  <path d="m79.797 376.9c-0.0269-0.2422-0.0407-0.4863-0.0554-0.72994-0.0322-0.3841-0.0403-0.76067 0.0247-1.1394 0.1666-0.58851 0.58973-0.8921 1.0278-1.141 0.5125-0.2683 1.0549-0.37061 1.6088-0.35573 0.56828 0.0396 1.0082 0.28505 1.4293 0.73978 0.37829 0.46819 0.5493 1.0738 0.6648 1.7004 0.1214 0.74748-0.0233 1.3914-0.28346 2.0641-0.30495 0.70291-0.76166 1.2709-1.2296 1.8133-0.49322 0.56032-1.0414 1.039-1.6061 1.4848-0.46807 0.35816-0.96832 0.64609-1.4766 0.9073-0.29535 0.15305-0.60053 0.2726-0.91095 0.37006-0.22702 0.0712-0.17166 0.11105-0.1014-0.63688 8e-5 0 0.23127-0.0276 0.35002-0.0417 0.37652-0.0449 0.754-0.0757 1.1316-0.1036 0.41353-0.03 0.82751-0.0492 1.2416-0.0641 0.32443-0.0114 0.64899-0.0163 0.97355-0.0178 0.21977 0 0.43953 3e-3 0.65928 6e-3 0.14592 3e-3 0.29184 6e-3 0.43775 0.01 0.0652 3e-3 0.0334 0 0.0954 3e-3 1.9386 0.0501 1.927 0.7192-0.0116 0.66906v0c-0.0621-3e-3 -0.0305 0-0.0952-3e-3 -0.14471-4e-3 -0.28943-7e-3 -0.43417-0.01-0.21642-4e-3 -0.43282-7e-3 -0.64925-6e-3 -0.3199 3e-3 -0.63979 7e-3 -0.95953 0.0175-0.40841 0.0147-0.81673 0.0335-1.2246 0.0632-0.37095 0.0273-0.74183 0.0576-1.1117 0.10172-0.10081 0.012-0.35284 0.0495-0.35601 0.0424-0.28083-0.63039-0.33662-0.59709-0.0822-0.67796 0.2845-0.0892 0.56419-0.1983 0.83481-0.33877 0.47886-0.24564 0.95028-0.51612 1.3916-0.85244 0.53642-0.42294 1.0575-0.8768 1.5264-1.4082 0.41972-0.48537 0.8332-0.99052 1.1122-1.6163 0.20551-0.51761 0.33882-1.0508 0.24294-1.6307-0.0878-0.49032-0.20962-0.97324-0.49702-1.3489-0.3031-0.34398-0.65815-0.53921-1.0762-0.56739-0.46957-0.0184-0.92923 0.072-1.3649 0.29466-0.27822 0.15404-0.58175 0.32696-0.72195 0.6796-0.0636 0.31097-0.0306 0.62729-0.0129 0.94374 0.0134 0.2233 0.0263 0.44691 0.0494 0.66907 0.31878 2.3338-0.2222 2.4438-0.54097 0.11004z" stroke="#000" stroke-linecap="square" stroke-width=".3" style="paint-order:markers fill stroke"/>
  <g fill="#54cec1" stroke="#24857b" stroke-linecap="square" stroke-width=".6">
   <path d="m127.13 309.46c-0.078 0.15732-0.13112 0.32344-0.18944 0.48695-0.11842 0.34332-0.2353 0.68704-0.34817 1.0317-0.1232 0.38212-0.26272 0.76001-0.40334 1.1374-0.12471 0.32917-0.26251 0.65429-0.39463 0.98117-0.0902 0.22506-0.18523 0.45094-0.22433 0.68726-0.0207 0.14156 0.0164 0.2589 0.0948 0.37085 0.11981 0.15051 0.28588 0.25584 0.45329 0.35394 0.23521 0.12898 0.48956 0.22411 0.74579 0.31265 0.29996 0.10103 0.6064 0.18623 0.91414 0.26677 0.30713 0.0787 0.61703 0.14857 0.92922 0.21083 0.28654 0.0584 0.57335 0.11572 0.86048 0.17215 0.25232 0.0476 0.5047 0.0951 0.75783 0.13975 0.14915 0.0252 0.0752 0.0128 0.22159 0.0364 2.742 0.44682 2.5609 1.1942-0.18111 0.74734-0.15109-0.0246-0.0747-0.0116-0.22939-0.0379-0.25877-0.0447-0.5165-0.0933-0.77425-0.14195-0.28858-0.0562-0.57677-0.11374-0.86454-0.17296-0.32789-0.0655-0.65339-0.1389-0.97597-0.22155-0.32659-0.0862-0.65211-0.17615-0.97044-0.28395-0.30426-0.10555-0.60566-0.22041-0.88344-0.37617-0.26433-0.1576-0.51777-0.33394-0.69227-0.58447-0.16219-0.26727-0.24357-0.55267-0.19052-0.87436 0.0543-0.28669 0.152-0.56396 0.26783-0.83689 0.1294-0.32039 0.2645-0.63901 0.38699-0.96153 0.137-0.36779 0.2728-0.73603 0.39317-1.1082 0.11466-0.35117 0.23389-0.70119 0.35469-1.0508 0.0723-0.2035 0.13995-0.40982 0.24224-0.60355 1.344-2.4294 2.0439-2.1095 0.69988 0.31983z" enable-background="new" style="paint-order:markers fill stroke"/>
   <path d="m127.73 312.23c0.14848-0.12509 0.30335-0.23599 0.45805-0.34704 0.30087-0.21371 0.60676-0.41548 0.91308-0.61621 0.3455-0.2258 0.69306-0.44666 1.0414-0.66557 0.35114-0.22079 0.70366-0.43822 1.0602-0.64574 0.34879-0.20522 0.70543-0.3901 1.0631-0.57221 0.35291-0.1794 0.71495-0.3338 1.0778-0.48576 0.32905-0.13666 0.65872-0.27159 0.98743-0.40917 0.28897-0.1207 0.57606-0.24675 0.86207-0.37577 0.24939-0.11291 0.49724-0.23012 0.74469-0.34835 0.20221-0.0969 0.40347-0.19646 0.6043-0.29709 0.15728-0.0788 0.31397-0.15893 0.47059-0.23939 0.1187-0.0609 0.2371-0.12281 0.35502-0.18558 0.0897-0.0472 0.17945-0.0944 0.26881-0.1426 0.0374-0.0204 0.0751-0.0403 0.11296-0.06 1.372-0.74276 1.6598 4e-3 0.28754 0.74651-0.0377 0.0206-0.0754 0.0412-0.11358 0.0604-0.09 0.0485-0.18026 0.096-0.27063 0.1436-0.11859 0.0631-0.23812 0.12452-0.35706 0.18671-0.15728 0.0811-0.3149 0.16139-0.4729 0.24067-0.20219 0.10127-0.40476 0.20149-0.60831 0.29906-0.24906 0.11901-0.49851 0.23698-0.7495 0.35066-0.28802 0.1299-0.57707 0.25692-0.86809 0.37842-0.32867 0.13758-0.65831 0.27249-0.98733 0.40908-0.35733 0.14974-0.71395 0.30171-1.0616 0.47829-0.35359 0.17999-0.70625 0.36256-1.0509 0.56572-0.35379 0.20659-0.70415 0.42204-1.0529 0.64127-0.34702 0.21806-0.69323 0.43807-1.0374 0.663-0.30329 0.19873-0.60614 0.39848-0.90404 0.60999-0.15024 0.10766-0.30056 0.21538-0.44466 0.33679-1.2536 1.0246-1.5818 0.30537-0.32813-0.71919z" enable-background="new" style="paint-order:markers fill stroke"/>
   <path d="m102.29 383.39c0.078 0.15732 0.13112 0.32344 0.18944 0.48695 0.11842 0.34332 0.2353 0.68704 0.34817 1.0317 0.1232 0.38212 0.26272 0.76001 0.40334 1.1374 0.12471 0.32917 0.26251 0.65429 0.39463 0.98117 0.0902 0.22506 0.18524 0.45094 0.22434 0.68726 0.0207 0.14156-0.0164 0.2589-0.0948 0.37085-0.11982 0.15051-0.28589 0.25584-0.4533 0.35394-0.23521 0.12898-0.48956 0.22411-0.74579 0.31265-0.29996 0.10103-0.60641 0.18623-0.91415 0.26677-0.30713 0.0787-0.61703 0.14857-0.92922 0.21083-0.28655 0.0584-0.57336 0.11572-0.86048 0.17215-0.25232 0.0476-0.5047 0.0951-0.75783 0.13975-0.14915 0.0252-0.0752 0.0128-0.22159 0.0364-2.7421 0.44682-2.5609 1.1942 0.18111 0.74734 0.15109-0.0246 0.0747-0.0116 0.22939-0.0379 0.25877-0.0447 0.5165-0.0933 0.77424-0.14195 0.28858-0.0562 0.57678-0.11374 0.86455-0.17296 0.32789-0.0655 0.65339-0.1389 0.97597-0.22155 0.3266-0.0862 0.65212-0.17615 0.97045-0.28395 0.30426-0.10555 0.60566-0.22041 0.88345-0.37617 0.26433-0.1576 0.51777-0.33394 0.69227-0.58447 0.16219-0.26727 0.24357-0.55267 0.19052-0.87436-0.0543-0.28669-0.152-0.56396-0.26783-0.83689-0.1294-0.32039-0.2645-0.63901-0.38699-0.96153-0.137-0.36779-0.27281-0.73603-0.39318-1.1082-0.11466-0.35117-0.23389-0.70119-0.35469-1.0508-0.0723-0.2035-0.13995-0.40982-0.24224-0.60355-1.344-2.4294-2.0439-2.1095-0.69988 0.31983z" enable-background="new" style="paint-order:markers fill stroke"/>
   <path d="m101.69 386.16c-0.14848-0.12509-0.30335-0.23599-0.45805-0.34704-0.30087-0.21371-0.60676-0.41548-0.91309-0.61621-0.3455-0.2258-0.69306-0.44666-1.0414-0.66557-0.35114-0.22079-0.70366-0.43822-1.0602-0.64574-0.34879-0.20522-0.70543-0.3901-1.0631-0.57221-0.35291-0.1794-0.71495-0.3338-1.0778-0.48576-0.32905-0.13666-0.65872-0.27159-0.98743-0.40917-0.28897-0.1207-0.57606-0.24675-0.86207-0.37577-0.24939-0.11291-0.49724-0.23012-0.74469-0.34835-0.20221-0.0969-0.40347-0.19646-0.6043-0.29709-0.15728-0.0788-0.31397-0.15893-0.47059-0.23939-0.1187-0.0609-0.2371-0.12281-0.35502-0.18558-0.0897-0.0472-0.17945-0.0944-0.26881-0.1426-0.0374-0.0204-0.0751-0.0403-0.11296-0.06-1.372-0.74276-1.6598 4e-3 -0.28754 0.74651 0.0377 0.0206 0.0754 0.0412 0.11358 0.0604 0.09 0.0485 0.18026 0.096 0.27063 0.1436 0.11859 0.0631 0.23812 0.12452 0.35706 0.18671 0.15728 0.0811 0.3149 0.16139 0.4729 0.24067 0.20219 0.10127 0.40476 0.20149 0.60831 0.29906 0.24906 0.11901 0.49851 0.23698 0.7495 0.35066 0.28802 0.1299 0.57707 0.25692 0.86809 0.37842 0.32867 0.13758 0.65831 0.27249 0.98733 0.40908 0.35733 0.14974 0.71395 0.30171 1.0616 0.47829 0.35359 0.17999 0.70625 0.36256 1.0509 0.56572 0.35379 0.20659 0.70415 0.42204 1.0529 0.64127 0.34702 0.21806 0.69323 0.43807 1.0374 0.663 0.30329 0.19873 0.60615 0.39848 0.90405 0.60999 0.15024 0.10766 0.30056 0.21538 0.44466 0.33679 1.2536 1.0246 1.5818 0.30537 0.32813-0.71919z" enable-background="new" style="paint-order:markers fill stroke"/>
  </g>
 </g>
</svg>
