<svg width="150mm" height="150mm" version="1.1" viewBox="0 0 150 150" xmlns="http://www.w3.org/2000/svg">
 <g transform="translate(-13.315 -124.72)">
  <path d="m-46.416 54.716c-1.4953-1.4171-2.6392-4.7775-2.2667-6.6591 0.42273-2.1354 2.4142-3.9568 4.7941-4.3848 2.5772-0.46345 4.6484-0.11335 5.7191 0.96672 0.66796 0.6738 0.91311 1.5016 1.0859 3.6665 0.40254 5.0439-0.90761 6.6481-5.9136 7.2409-2.1434 0.25378-2.3203 0.21082-3.4188-0.83016z" fill="#fa414f" stroke="#f61c2d" stroke-linecap="round" stroke-width="1.4576" style="paint-order:markers fill stroke"/>
  <path d="m-72.537 93.961c-1.4953-1.4171-2.6392-4.7775-2.2667-6.6591 0.42273-2.1354 2.4142-3.9568 4.7941-4.3848 2.5772-0.46345 4.6484-0.11335 5.7191 0.96672 0.66796 0.6738 0.91311 1.5016 1.0859 3.6665 0.40254 5.0439-0.90761 6.6481-5.9136 7.2408-2.1434 0.25378-2.3203 0.21082-3.4188-0.83016z" fill="#fa414f" stroke="#f61c2d" stroke-linecap="round" stroke-width="1.4576" style="paint-order:markers fill stroke"/>
  <g>
   <path d="m-81.99 177.48c-0.2611-0.42248-0.40926-11.066-0.27407-19.69 0.0345-2.2032-0.68841-14.355-0.94374-15.863-0.23605-1.394-0.21237-1.6152 0.20566-1.9208 0.91402-0.66835 1.1602 0.0747 1.2948 3.9085 0.20721 5.9003 0.37019 8.9906 0.60615 11.494 0.12345 1.3097 0.13003 3.8695 0.0146 5.6885-0.11541 1.819-0.15351 4.736-0.0847 6.4823 0.0688 1.7462 0.17943 4.5967 0.24575 6.3343 0.0786 2.0582 0.0204 3.2801-0.16689 3.5057-0.34967 0.42133-0.66145 0.44216-0.89766 0.06zm-62.059-36.028c-0.0993-7.8939-0.21245-12.874-0.30811-13.56-0.0609-0.43656-0.12941-1.4058-0.15219-2.1539l-0.0414-1.3601-1.9182-0.1633c-1.055-0.0898-2.5974-0.23259-3.4274-0.31729-1.2619-0.12875-1.685-0.0552-2.5824 0.4492-0.79362 0.44604-1.1506 0.5258-1.3702 0.30615-0.46251-0.46252-0.0835-1.0537 1.0444-1.6291 0.89776-0.45801 1.253-0.4948 2.7249-0.28216 0.93088 0.13448 2.0497 0.34344 2.4863 0.46436 0.83092 0.23014 6.3172 0.19488 7.6539-0.0492 0.42609-0.0778 1.3786-0.25578 2.1167-0.3955 2.1657-0.40996 4.7524-0.56869 5.1508-0.31605 0.2031 0.12878 0.30114 0.41172 0.21785 0.62876-0.11494 0.29954-0.65174 0.40193-2.2279 0.42496-1.1421 0.0167-2.4611 0.14065-2.9313 0.27548s-1.8132 0.32876-2.9847 0.43094c-1.6816 0.14669-2.0996 0.2648-1.9859 0.56109 0.0792 0.20641-0.0485 0.66912-0.2838 1.0282-0.36846 0.56233-0.39016 0.97344-0.1564 2.9627 0.14929 1.2704 0.22288 4.2936 0.16353 6.7183-0.081 3.3087-0.0112 4.7798 0.27969 5.8966 0.46916 1.8012 0.33151 2.2626-0.67509 2.2626h-0.76544zm90.414-20.497c-0.0322-0.0316-3.5053-0.12345-7.718-0.20408-4.2127-0.0806-8.3739-0.25729-9.247-0.39258-0.87313-0.1353-4.9212-0.27367-8.9958-0.3075-4.0746-0.0338-7.5501-0.16742-7.7233-0.29687-0.17325-0.12946-0.25145-0.40099-0.17378-0.6034 0.11773-0.3068 1.3805-0.34518 7.591-0.23071 4.0974 0.0755 8.1802 0.25092 9.0729 0.38978 0.8927 0.13887 6.9649 0.31344 13.494 0.38795 14.313 0.16333 14.904 0.20804 14.583 1.1017-0.0571 0.15857-10.724 0.31121-10.882 0.15572zm-106.13-16.753c-2.5316-0.39151-4.8605-2.179-5.408-4.1509-0.42103-1.5161-0.33679-2.4569 0.35008-3.9098 1.0454-2.2112 2.681-3.3073 4.9354-3.3073 1.0933 0 4.1695 1.326 4.8689 2.0988 0.71468 0.78971 1.7231 3.9786 1.5489 4.8981-0.55432 2.9257-3.3026 4.8339-6.2953 4.3711zm2.4974-1.5702c1.7999-0.91822 2.7177-3.1829 1.9541-4.8215-0.15651-0.33585-0.41368-0.93322-0.5715-1.3275-0.16386-0.40934-0.73777-0.94682-1.3379-1.253-0.57803-0.29489-1.1256-0.65693-1.2168-0.80453-0.23956-0.38762-2.1215-0.32968-3.1421 0.0967-2.1254 0.88805-3.0554 4.7633-1.5674 6.5316 0.81581 0.96955 3.0243 2.0927 4.1224 2.0966 0.40598 1e-3 1.1976-0.23184 1.7593-0.51836zm29.857 0.90477c-0.09-0.09-1.7511-0.20072-3.6913-0.24606-1.9402-0.0453-3.6124-0.0949-3.7159-0.1101-0.26722-0.0393-0.79232-2.1066-0.61-2.4016 0.0833-0.13481 0.18554-1.6501 0.22717-3.3673l0.0757-3.1222 1.7029 0.0535c0.93659 0.0294 2.8492 0.12873 4.2503 0.22071 2.2952 0.15069 2.574 0.22565 2.8162 0.75723 0.18591 0.40806 0.17937 0.74793-0.0212 1.1022-0.1663 0.29368-0.25362 1.4153-0.20467 2.6289 0.17868 4.4299 0.17577 4.482-0.25576 4.5674-0.22538 0.0446-0.48341 7e-3 -0.5734-0.0825zm-1.355-1.5936 0.8368-0.12841-0.0431-2.903-0.043-2.903-0.92604-0.188c-0.50932-0.1034-1.6989-0.19258-2.6434-0.19819l-1.7174-0.0102-0.31819 0.92605c-0.43564 1.2679-0.44528 4.8816-0.014 5.2396 0.55331 0.45921 2.518 0.52588 4.8683 0.16521zm19.536-31.048c-0.48374-0.47717-1.0337-0.5348-6.4817-0.67929-6.6654-0.17678-6.8699-0.23308-6.4023-1.7622 0.38543-1.2602 0.61993-6.9749 0.35409-8.629-0.15046-0.93625-0.12821-1.5147 0.068-1.7669 0.47813-0.61465 2.3872-0.96613 5.0072-0.92184 1.355 0.0229 3.7316-0.11334 5.2815-0.30277 2.6636-0.32553 2.8484-0.31693 3.372 0.15701 0.35844 0.32438 0.50241 0.69191 0.40778 1.041-0.0805 0.29677-0.17708 2.7538-0.21472 5.46-0.0541 3.8905 0.0118 5.0704 0.31477 5.6369 0.3394 0.63455 0.33391 0.79796-0.0481 1.4295-0.54692 0.90436-0.99216 0.99496-1.6586 0.33752zm-2.7114-1.9701c2.5758-0.0137 2.5797-0.0147 2.6059-0.68611 0.0145-0.36983 0.0632-1.0296 0.10837-1.4662 0.22704-2.1946 0.15539-7.2225-0.11266-7.9049l-0.29897-0.76118-1.912 0.20792c-1.0516 0.11436-3.243 0.22689-4.8697 0.25008-1.837 0.0262-3.1013 0.1614-3.3368 0.35685-0.28646 0.23774-0.42485 1.398-0.56593 4.7444-0.10271 2.4364-0.10851 4.6327-0.0129 4.8808 0.19221 0.49863 2.4273 0.7487 4.6244 0.5174 0.65485-0.0689 2.3515-0.13151 3.7703-0.13904zm-48.233 7.9e-4c-3.2146-0.86688-5.6685-3.9026-5.9733-7.3896-0.12898-1.4751-0.07-1.754 0.57796-2.7343 1.4746-2.2308 6.1456-4.1077 8.4694-3.4032 1.6776 0.50859 4.9737 2.1331 5.4247 2.6735 0.78228 0.93743 1.8331 3.727 1.8331 4.8664 0 2.7332-1.4542 4.8098-4.0448 5.7763-1.7399 0.64912-4.339 0.73631-6.287 0.21092zm3.9602-0.98941c3.2333-0.54109 4.9992-2.5758 4.7055-5.4218-0.26612-2.5784-2.0149-4.87-3.7165-4.87-0.22436 0-0.84377-0.25716-1.3765-0.57147-1.192-0.70332-2.524-0.68515-4.2579 0.0581-2.865 1.2281-3.9638 2.6597-3.7069 4.8294 0.35507 2.9981 2.3497 5.3252 5.1242 5.9785 1.3739 0.32351 1.2788 0.32359 3.2281-3e-3z" stroke-width=".26458"/>
   <path d="m47.955 161.35c-0.27342-0.28715-0.42856-7.5215-0.287-13.383 0.03613-1.4975-0.72088-9.7568-0.98825-10.782-0.24718-0.94747-0.22239-1.0978 0.21536-1.3055 0.95713-0.45427 1.2149 0.0508 1.3559 2.6565 0.21698 4.0103 0.38765 6.1107 0.63474 7.8122 0.12927 0.89017 0.13616 2.63 0.01529 3.8664-0.12086 1.2364-0.16075 3.219-0.0887 4.4059 0.07204 1.1869 0.18789 3.1243 0.25734 4.3053 0.08231 1.3989 0.02136 2.2294-0.17476 2.3828-0.36616 0.28636-0.69265 0.30052-0.94 0.0408z" stroke-width=".22321"/>
   <path d="m53.008 137.18c-0.01457-0.0334-1.5861-0.13047-3.4924-0.21569-1.9062-0.0851-3.7891-0.27191-4.1842-0.4149-0.39508-0.14299-2.2268-0.28922-4.0705-0.32497-1.8437-0.0357-3.4163-0.17695-3.4947-0.31376-0.07839-0.13681-0.11378-0.42379-0.07863-0.6377 0.05327-0.32424 0.62466-0.3648 3.4349-0.24383 1.854 0.0798 3.7015 0.26519 4.1054 0.41194 0.40394 0.14677 3.1516 0.33126 6.1058 0.41001 6.4763 0.17261 6.7442 0.21987 6.5985 1.1643-0.02584 0.1676-4.8526 0.32891-4.9242 0.16458z" stroke-width=".18297"/>
  </g>
  <g transform="matrix(.95197 0 0 .92962 5.8658 5.1224)">
   <path d="m104.44 146.11c-0.28197-0.75944 0.17091-9.9751 0.50729-10.323 0.35324-0.36508 10.62-0.82974 10.963-0.49615 0.17633 0.17178 0.26868 2.7784 0.20522 5.7924l-0.11539 5.4801-5.6519 0.11808c-4.907 0.10254-5.6857 0.0272-5.908-0.57162z" fill="#fa414f" opacity=".92812" stroke="#f61c2d" stroke-linecap="round" stroke-width="1.848"/>
   <path d="m116.44 148.55c-0.91425-0.0138-1.453 0.1736-7.4458 9e-3 -7.332-0.20097-7.557-0.26498-7.0425-2.0034 0.42398-1.4327 0.68193-7.9295 0.3895-9.81-0.1655-1.0644-0.14103-1.722 0.0748-2.0087 0.52594-0.69878 2.626-1.0984 5.508-1.048 1.4904 0.026 4.1048-0.12885 5.8097-0.34421 2.93-0.37008 3.1332-0.36031 3.7093 0.1785 0.39428 0.36878 0.55265 0.78661 0.44856 1.1835-0.0885 0.33738-0.19479 3.1307-0.23619 6.2073-0.0595 4.423 0.013 5.7644 0.34624 6.4084 0.5745 1.653 0.043 1.3365-1.5615 1.2273zm-3.2984-1.4581c2.8334-0.0156 2.8377-0.0167 2.8665-0.78001 0.016-0.42045 0.0695-1.1705 0.1192-1.6668 0.24975-2.495 0.17093-8.211-0.12392-8.9868l-0.32888-0.86536-2.1032 0.23637c-1.1568 0.13002-3.5673 0.25795-5.3567 0.28431-2.0207 0.0298-3.4115 0.18349-3.6705 0.40569-0.31511 0.27028-0.46734 1.5893-0.62253 5.3938-0.11298 2.7698-0.11936 5.2668-0.0142 5.5488 0.21143 0.56687 2.67 0.85117 5.0868 0.58821 0.72034-0.0783 2.5866-0.14951 4.1474-0.15807z" stroke-width=".29588"/>
  </g>
  <path d="m132.88 137.98c-0.0146-0.0334-1.5861-0.13048-3.4924-0.21568-1.9062-0.0852-3.7891-0.27193-4.1842-0.41491-0.39508-0.14299-2.2268-0.28923-4.0705-0.32498-1.8437-0.0357-3.4163-0.17694-3.4947-0.31375-0.0784-0.13682-0.11377-0.42379-0.0786-0.63771 0.0533-0.32424 0.62468-0.3648 3.4349-0.24383 1.854 0.0798 3.7015 0.2652 4.1054 0.41195 0.40393 0.14676 3.1516 0.33126 6.1058 0.41 6.4763 0.17262 6.7442 0.21987 6.5985 1.1643-0.0259 0.16759-4.8526 0.32891-4.9242 0.16458z" stroke-width=".18297"/>
  <g transform="matrix(.95197 0 0 .92962 4.8583 5.6143)">
   <path d="m145.07 146.46c-2.0255-1.0362-3.0771-2.4012-3.8154-4.9522-0.77381-2.6738 0.14528-4.4604 3.0016-5.8347 2.6633-1.2815 3.2148-1.2871 6.271-0.0641 1.9784 0.79177 2.6235 1.3001 3.3645 2.6512 2.0379 3.7161 0.52167 7.6113-3.3555 8.6203-2.5686 0.66845-3.4736 0.59883-5.4661-0.42046z" fill="#fa414f" opacity=".92812" stroke="#f61c2d" stroke-linecap="round" stroke-width="1.348"/>
   <path d="m145.48 148.57c-3.5361-0.98554-6.2353-4.4367-6.5707-8.401-0.14187-1.677-0.077-1.9941 0.63576-3.1085 1.6221-2.5361 6.7602-4.6699 9.3164-3.869 1.8453 0.5782 5.4711 2.425 5.9672 3.0394 0.86051 1.0657 2.0164 4.2371 2.0164 5.5324 0 3.1073-1.5996 5.4682-4.4493 6.5669-1.9139 0.73796-4.7729 0.83708-6.9157 0.23979zm4.3562-1.1248c3.5567-0.61514 5.4991-2.9283 5.176-6.1639-0.29273-2.9312-2.2164-5.5365-4.0881-5.5365-0.24679 0-0.92815-0.29235-1.5141-0.64968-1.3112-0.79958-2.7764-0.77893-4.6837 0.066-3.1515 1.3962-4.3602 3.0237-4.0776 5.4904 0.39058 3.4084 2.5846 6.054 5.6366 6.7968 1.5113 0.36779 1.4067 0.36788 3.5509-3e-3z" stroke-width=".29588"/>
  </g>
  <g>
   <path d="m106.2 169.9c-0.0468-0.0334-5.0861-0.13047-11.199-0.21568-6.1126-0.0852-12.15-0.27193-13.417-0.4149-1.2669-0.143-7.1406-0.28923-13.053-0.32499-5.9121-0.0357-10.955-0.17693-11.206-0.31374-0.25138-0.13683-0.36485-0.42379-0.25215-0.63771 0.17082-0.32425 2.0031-0.36481 11.014-0.24383 5.9452 0.0798 11.869 0.26519 13.165 0.41194 1.2953 0.14677 10.106 0.33126 19.579 0.41001 20.767 0.17262 21.626 0.21987 21.159 1.1643-0.0828 0.16758-15.56 0.3289-15.79 0.16457z" stroke-width=".32764"/>
   <path d="m46.438 174.9c-3.3662-0.91618-5.9358-4.1244-6.2551-7.8097-0.13506-1.559-0.0733-1.8537 0.60522-2.8897 1.5442-2.3576 6.4355-4.3412 8.8689-3.5967 1.7567 0.53751 5.2083 2.2544 5.6806 2.8255 0.81918 0.99072 1.9195 3.9389 1.9195 5.143 0 2.8886-1.5227 5.0833-4.2356 6.1047-1.822 0.68603-4.5436 0.77817-6.5836 0.22291zm4.1469-1.0457c3.3858-0.57185 5.235-2.7222 4.9274-5.7301-0.27867-2.7249-2.1099-5.1468-3.8918-5.1468-0.23494 0-0.88357-0.27179-1.4414-0.60396-1.2483-0.74331-2.643-0.72411-4.4587 0.0615-3.0001 1.2979-4.1508 2.8109-3.8817 5.104 0.37182 3.1685 2.4605 5.628 5.3658 6.3184 1.4387 0.3419 1.3391 0.34199 3.3803-3e-3z" stroke-width=".27834"/>
   <path d="m128.96 162.11c-0.27341-0.28715-0.42857-7.5215-0.287-13.383 0.0361-1.4975-0.72088-9.7568-0.98825-10.782-0.24718-0.94748-0.22239-1.0978 0.21536-1.3055 0.95713-0.45427 1.2149 0.0508 1.3559 2.6565 0.21699 4.0103 0.38765 6.1107 0.63474 7.8122 0.12927 0.89017 0.13617 2.63 0.0153 3.8664-0.12085 1.2364-0.16074 3.219-0.0887 4.4059 0.0721 1.1869 0.1879 3.1243 0.25735 4.3053 0.0823 1.3989 0.0213 2.2294-0.17477 2.3828-0.36616 0.28636-0.69265 0.30053-0.94 0.0408z" stroke-width=".22321"/>
   <path d="m-104.68 286.35c-0.2611-0.42247-0.40926-11.066-0.27407-19.69 0.0345-2.2032-0.68841-14.355-0.94374-15.863-0.23605-1.394-0.21237-1.6152 0.20566-1.9208 0.91402-0.66835 1.1602 0.0747 1.2948 3.9085 0.20721 5.9003 0.37019 8.9906 0.60615 11.494 0.12345 1.3097 0.13003 3.8695 0.0146 5.6885-0.11541 1.819-0.15351 4.736-0.0847 6.4823 0.0688 1.7462 0.17943 4.5967 0.24575 6.3343 0.0786 2.0581 0.0204 3.2801-0.16689 3.5057-0.34967 0.42133-0.66145 0.44217-0.89766 0.06zm28.356-56.524c-0.0322-0.0316-3.5053-0.12345-7.7181-0.20408-4.2127-0.0806-8.3739-0.25729-9.247-0.39258-0.87313-0.1353-4.9212-0.27367-8.9958-0.3075-4.0746-0.0338-7.5501-0.16742-7.7233-0.29687-0.17325-0.12946-0.25145-0.40099-0.17378-0.6034 0.11773-0.3068 1.3805-0.34518 7.591-0.23071 4.0974 0.0755 8.1802 0.25092 9.0729 0.38978 0.8927 0.13887 6.9649 0.31344 13.494 0.38795 14.313 0.16333 14.904 0.20804 14.583 1.1017-0.0571 0.15857-10.724 0.31121-10.882 0.15572z" stroke-width=".26458"/>
   <path d="m89.791 194.38c-0.27342-0.28715-0.42856-7.5215-0.287-13.383 0.03613-1.4975-0.72088-9.7568-0.98825-10.782-0.24718-0.94748-0.22239-1.0978 0.21536-1.3055 0.95713-0.45427 1.2149 0.0508 1.3559 2.6565 0.21698 4.0103 0.38765 6.1107 0.63474 7.8122 0.12927 0.89017 0.13616 2.63 0.01529 3.8664-0.12086 1.2364-0.16075 3.219-0.08869 4.4059 0.07204 1.1869 0.18789 3.1243 0.25734 4.3053 0.08231 1.3989 0.02136 2.2294-0.17476 2.3828-0.36616 0.28637-0.69265 0.30053-0.94 0.0408z" stroke-width=".22321"/>
   <path d="m107.75 195.41c-0.0467-0.0334-5.0861-0.13047-11.199-0.21568-6.1126-0.0851-12.15-0.27192-13.417-0.4149-1.2669-0.14299-7.1406-0.28923-13.053-0.32499-5.9121-0.0357-10.955-0.17693-11.206-0.31374-0.25138-0.13682-0.36485-0.42379-0.25215-0.63771 0.17082-0.32425 2.0031-0.36481 11.014-0.24382 5.9452 0.0798 11.869 0.26518 13.165 0.41193 1.2953 0.14677 10.106 0.33126 19.579 0.41001 20.767 0.17262 21.626 0.21987 21.159 1.1643-0.0828 0.16758-15.56 0.3289-15.79 0.16457z" stroke-width=".32764"/>
   <path d="m59.66 219.03c-0.27342-0.28714-0.42856-7.5215-0.287-13.383 0.03613-1.4975-0.72088-9.7568-0.98825-10.782-0.24718-0.94748-0.22239-1.0978 0.21536-1.3055 0.95713-0.45427 1.2149 0.0508 1.3559 2.6565 0.21698 4.0103 0.38765 6.1107 0.63474 7.8122 0.12927 0.89017 0.13616 2.63 0.01529 3.8664-0.12086 1.2364-0.16075 3.219-0.0887 4.4059 0.07204 1.1869 0.18789 3.1243 0.25734 4.3053 0.08231 1.3989 0.02136 2.2294-0.17476 2.3828-0.36616 0.28636-0.69265 0.30052-0.94 0.0408z" stroke-width=".22321"/>
   <path d="m123.42 220.24c-0.27342-0.28715-0.42857-7.5215-0.28701-13.383 0.0361-1.4975-0.72087-9.7568-0.98825-10.782-0.24718-0.94748-0.22238-1.0978 0.21537-1.3056 0.95712-0.45426 1.2149 0.0508 1.3559 2.6566 0.21698 4.0103 0.38765 6.1107 0.63475 7.8122 0.12926 0.89017 0.13615 2.63 0.0153 3.8664-0.12087 1.2364-0.16076 3.219-0.0887 4.4059 0.0721 1.1869 0.18788 3.1243 0.25734 4.3053 0.0823 1.3989 0.0213 2.2294-0.17477 2.3828-0.36616 0.28637-0.69264 0.30053-0.94 0.0408z" stroke-width=".22321"/>
  </g>
  <g>
   <path d="m62.33 141.7c-1.9282-0.96329-2.9293-2.2322-3.6322-4.6037-0.73664-2.4856 0.1383-4.1464 2.8574-5.4241 2.5354-1.1913 3.0604-1.1966 5.9698-0.0596 1.8834 0.73604 2.4975 1.2086 3.2029 2.4646 1.94 3.4545 0.49661 7.0756-3.1944 8.0136-2.4452 0.62141-3.3068 0.55669-5.2035-0.39087z" fill="#fa414f" opacity=".92812" stroke="#f61c2d" stroke-linecap="round" stroke-width="1.2681"/>
   <path d="m62.528 136.35c0.20928-0.20827 0.41552-0.41958 0.62131-0.63129 0.3872-0.39791 0.75184-0.81672 1.11-1.2408 0.3304-0.38727 0.64131-0.78996 0.93631-1.2047 0.16193-0.23243 0.31356-0.47233 0.44222-0.72494 0.12025-0.25569 0.04636-0.32085 0.56888 0.0575 0.04074 0.0296-0.0086 0.10053-0.01438 0.15064-0.0076 0.0633-0.01609 0.12651-0.02428 0.18977-0.08568 0.59213-0.17891 1.1831-0.26112 1.7758-0.1006 0.7287-0.17748 1.4603-0.24464 2.1927-0.04912 0.54463-0.08463 1.0904-0.1089 1.6367-0.17475 3.1548-0.64321 3.1312-0.5294-0.0235v0c0.02475-0.55463 0.06064-1.1087 0.1106-1.6616 0.06787-0.74064 0.1457-1.4804 0.24746-2.2172 0.08196-0.59082 0.17476-1.18 0.26036-1.7702 0.0076-0.058 0.01552-0.1161 0.02237-0.17428 0.0048-0.0412-0.02818-0.11606 0.01247-0.12395 0.64898-0.12579 0.55173-0.0562 0.43216 0.20967-0.14107 0.27529-0.30502 0.53786-0.48239 0.79112-0.30361 0.42667-0.62342 0.8411-0.96333 1.2396-0.36618 0.4334-0.73899 0.86146-1.1348 1.2682-0.20746 0.21341-0.41535 0.42641-0.62629 0.63637-1.3248 1.3269-1.6995 0.95161-0.37473-0.37533z" stroke="#000" stroke-linecap="square" stroke-width=".37629" style="paint-order:markers fill stroke"/>
   <path d="m46.551 166.57c-0.02561-0.22515-0.03875-0.45207-0.05274-0.67857-0.03065-0.35706-0.03836-0.70713 0.02351-1.0592 0.1586-0.5471 0.5614-0.82932 0.97842-1.0606 0.48787-0.24942 1.0043-0.34453 1.5315-0.3307 0.54098 0.0368 0.95976 0.26499 1.3606 0.68772 0.36014 0.43524 0.52292 0.99818 0.63287 1.5808 0.11558 0.69487-0.02218 1.2935-0.26984 1.9188-0.29029 0.65344-0.72508 1.1815-1.1705 1.6857-0.46953 0.52088-0.99143 0.96587-1.5289 1.3803-0.4456 0.33295-0.92182 0.60062-1.4057 0.84345-0.28117 0.14227-0.57168 0.25341-0.86719 0.34401-0.21614 0.0662-0.16342 0.10324-0.09654-0.59206 7.6e-5 0 0.22016-0.0256 0.33321-0.0388 0.35844-0.0417 0.71779-0.0704 1.0772-0.0963 0.39366-0.0279 0.78775-0.0457 1.1819-0.0596 0.30885-0.0106 0.61783-0.0151 0.92679-0.0165 0.20922 0 0.41843 3e-3 0.62762 6e-3 0.13891 3e-3 0.27781 6e-3 0.41672 9e-3 0.06207 3e-3 0.0318 0 0.09082 3e-3 1.8454 0.0466 1.8344 0.66858-0.01104 0.62197v0c-0.05912-3e-3 -0.02904 0-0.09063-3e-3 -0.13778-4e-3 -0.27556-7e-3 -0.41334-9e-3 -0.206-4e-3 -0.41201-7e-3 -0.61806-6e-3 -0.30454 3e-3 -0.60904 6e-3 -0.91344 0.0163-0.38878 0.0137-0.77748 0.0311-1.1658 0.0588-0.35313 0.0254-0.70619 0.0535-1.0584 0.0946-0.09595 0.0111-0.33588 0.046-0.33891 0.0394-0.26732-0.58602-0.32043-0.55506-0.07825-0.63024 0.27084-0.0829 0.53709-0.18435 0.79471-0.31493 0.45586-0.22835 0.90464-0.4798 1.3247-0.79245 0.51065-0.39317 1.0067-0.81509 1.4531-1.3091 0.39955-0.4512 0.79317-0.9208 1.0587-1.5026 0.19564-0.48118 0.32256-0.97686 0.23128-1.5159-0.08358-0.45582-0.19956-0.90476-0.47316-1.254-0.28854-0.31977-0.62653-0.50127-1.0245-0.52746-0.44702-0.0171-0.88461 0.0669-1.2994 0.27393-0.26486 0.14319-0.55381 0.30394-0.68727 0.63177-0.06055 0.28908-0.02913 0.58314-0.01228 0.87732 0.01276 0.20758 0.02504 0.41545 0.04703 0.62198 0.30347 2.1695-0.21153 2.2718-0.51499 0.10229z" stroke="#000" stroke-linecap="square" stroke-width=".37629" style="paint-order:markers fill stroke"/>
  </g>
  <g transform="matrix(.95197 0 0 .92962 23.837 37.632)">
   <path d="m104.44 146.11c-0.28197-0.75944 0.17091-9.9751 0.50729-10.323 0.35324-0.36508 10.62-0.82974 10.963-0.49615 0.17633 0.17178 0.26868 2.7784 0.20522 5.7924l-0.11539 5.4801-5.6519 0.11808c-4.907 0.10254-5.6857 0.0272-5.908-0.57162z" fill="#fa414f" opacity=".92812" stroke="#f61c2d" stroke-linecap="round" stroke-width="1.848"/>
   <path d="m116.44 148.55c-0.91425-0.0138-1.453 0.1736-7.4458 9e-3 -7.332-0.20097-7.557-0.26498-7.0425-2.0034 0.42398-1.4327 0.68193-7.9295 0.3895-9.81-0.1655-1.0644-0.14103-1.722 0.0748-2.0087 0.52594-0.69878 2.626-1.0984 5.508-1.048 1.4904 0.026 4.1048-0.12885 5.8097-0.34421 2.93-0.37008 3.1332-0.36031 3.7093 0.1785 0.39428 0.36878 0.55265 0.78661 0.44856 1.1835-0.0885 0.33738-0.19479 3.1307-0.23619 6.2073-0.0595 4.423 0.013 5.7644 0.34624 6.4084 0.5745 1.653 0.043 1.3365-1.5615 1.2273zm-3.2984-1.4581c2.8334-0.0156 2.8377-0.0167 2.8665-0.78001 0.016-0.42045 0.0695-1.1705 0.1192-1.6668 0.24975-2.495 0.17093-8.211-0.12392-8.9868l-0.32888-0.86536-2.1032 0.23637c-1.1568 0.13002-3.5673 0.25795-5.3567 0.28431-2.0207 0.0298-3.4115 0.18349-3.6705 0.40569-0.31511 0.27028-0.46734 1.5893-0.62253 5.3938-0.11298 2.7698-0.11936 5.2668-0.0142 5.5488 0.21143 0.56687 2.67 0.85117 5.0868 0.58821 0.72034-0.0783 2.5866-0.14951 4.1474-0.15807z" stroke-width=".29588"/>
  </g>
  <g>
   <path d="m125.9 167.35c-0.0786-0.17487-0.12842-0.364-0.17253-0.55403-0.0812-0.32783-0.0975-0.66212-0.0748-1.0006 0.0333-0.39241 0.17117-0.72136 0.39947-1.0043 0.26832-0.28082 0.60989-0.38399 0.95465-0.45499 0.37586-0.0657 0.74249 0.01 1.0977 0.1531 0.32481 0.14233 0.5839 0.39557 0.80335 0.7042 0.18077 0.27322 0.28085 0.59286 0.34222 0.92741 0.0442 0.27616 0.0393 0.55698 0.0202 0.83561-0.0148 0.19078-0.0448 0.3792-0.0818 0.56562-0.0115 0.0342-0.014 0.0717-0.024 0.10651-4e-3 0.0109 9e-3 -0.0222 7e-3 -0.0336-7e-3 -0.0534-9.5e-4 -0.11464-0.0293-0.15773-0.0861-0.13529-0.11229-0.13178-0.20176-0.14688 0.1798-0.0532 0.36108-0.0989 0.54286-0.14161 0.29724-0.068 0.59717-0.11792 0.89761-0.16164 0.26883-0.0456 0.53851-0.063 0.80905-0.0347 0.34791 0.0507 0.51655 0.24001 0.65535 0.608 0.12245 0.46451 0.13424 0.95592 0.13207 1.4384-8e-3 0.56504-0.1147 1.1138-0.27531 1.6435-0.16578 0.50756-0.42844 0.9481-0.74408 1.3405-0.29251 0.35223-0.65775 0.57626-1.0449 0.74774-0.31094 0.12984-0.63672 0.18203-0.96481 0.19566-0.25503 5e-3 -0.50868-0.0302-0.76077-0.0715-0.22764-0.028-0.44373-0.10367-0.65084-0.21564-0.19949-0.11217-0.35039-0.28503-0.46848-0.50142-0.0777-0.15665-0.11553-0.33012-0.13852-0.50759-0.26324-2.1473 0.25354-2.2348 0.51675-0.0875v0c0.0103 0.0936 0.0279 0.18587 0.0648 0.27054 0.0594 0.11901 0.1395 0.2079 0.24588 0.26976 0.15935 0.0889 0.32667 0.14308 0.50271 0.16414 0.22238 0.0366 0.44606 0.0687 0.67107 0.0659 0.27161-0.01 0.54144-0.0516 0.79934-0.15712 0.31378-0.13646 0.61135-0.31254 0.84949-0.596 0.26779-0.32805 0.48878-0.69903 0.63092-1.1249 0.14287-0.46353 0.23593-0.94512 0.24459-1.4403 3e-3 -0.40162-6e-3 -0.80961-0.0927-1.2004-0.0427-0.14593-0.0776-0.2146-0.22137-0.23095-0.23278-0.0273-0.46487-5e-3 -0.69623 0.0327-0.28764 0.0417-0.57479 0.0894-0.8594 0.15443-0.19232 0.0451-0.38323 0.0971-0.57447 0.14787-0.30791 0.0123-0.41303-0.20641-0.33115-0.51579 0.0313-0.15709 0.057-0.31592 0.0699-0.47673 0.0157-0.21938 0.0219-0.44066-0.0107-0.65866-0.0412-0.23808-0.1089-0.46681-0.23421-0.66352-0.15479-0.22515-0.33982-0.40918-0.57233-0.51504-0.27016-0.1131-0.54971-0.17404-0.83719-0.12782-0.23587 0.0468-0.47763 0.10338-0.6709 0.2804-0.15134 0.16917-0.22694 0.38167-0.2516 0.62562-0.0207 0.26728-6e-3 0.52981 0.0586 0.78887 0.0327 0.14378 0.0691 0.28729 0.12689 0.42045 0.88391 1.9046 0.42557 2.1984-0.45834 0.29381z" stroke="#000" stroke-linecap="square" stroke-width=".37629" style="paint-order:markers fill stroke"/>
   <path d="m128.85 233.31c-0.87033-0.0128-1.3832 0.16138-7.0882 8e-3 -6.9798-0.18682-7.194-0.24633-6.7042-1.8624 0.40361-1.3319 0.64917-7.3714 0.37079-9.1196-0.15755-0.98947-0.13426-1.6008 0.0712-1.8673 0.50068-0.64961 2.4998-1.0211 5.2434-0.97426 1.4189 0.0242 3.9076-0.11978 5.5306-0.31998 2.7892-0.34404 2.9827-0.33495 3.5311 0.16594 0.37534 0.34282 0.5261 0.73124 0.42701 1.1002-0.0842 0.31364-0.18543 2.9104-0.22484 5.7705-0.0566 4.1117 0.0124 5.3587 0.32961 5.9574 0.5469 1.5367 0.0409 1.2425-1.4865 1.1409zm-3.14-1.3555c2.6973-0.0145 2.7014-0.0155 2.7288-0.72511 0.0152-0.39086 0.0662-1.0882 0.11347-1.5495 0.23776-2.3194 0.16272-7.6331-0.11797-8.3544l-0.31308-0.80445-2.0022 0.21973c-1.1012 0.12087-3.3959 0.2398-5.0994 0.2643-1.9237 0.0277-3.2476 0.17058-3.4942 0.37714-0.29998 0.25126-0.4449 1.4774-0.59263 5.0142-0.10756 2.5749-0.11363 4.8961-0.0135 5.1582 0.20127 0.52697 2.5418 0.79126 4.8425 0.54681 0.68574-0.0728 2.4624-0.13899 3.9482-0.14695z" stroke-width=".27834"/>
   <path d="m120.91 221.89c-0.13052 0-0.26105 0.54239-0.26105 1.6272v0.92248c-9.5e-4 0.48974 3e-3 0.97948-3e-3 1.4692-5e-3 0.3437-0.0141 0.68836-0.0612 1.0281h-0.36173c-2e-3 8e-3 -4e-3 0.0132-5e-3 0.0208-0.01 8e-3 -0.0125 0.0265-0.0116 0.0537-0.12359 0.59056-0.23053 0.4892 0.0439 0.56893 0.0526 0.0171 0.10493 0.0338 0.14873 0.0738 0.15446 0.10345 0.31712 0.12333 0.46705-9e-3 0.0249-0.0294 0.0466-0.0605 0.0667-0.0924h0.0398c0.34742 4e-3 0.69484 7e-3 1.0423 0.0112 0.29312 4e-3 0.58624 6e-3 0.87936 8e-3 0.22596 0 0.45187 3e-3 0.67784 3e-3 -5.5e-4 0.31852-4e-5 0.63682 0.0137 0.955 0.01 0.20259 0.0268 0.4046 0.0524 0.60523 0.0114 0.0864 0.0242 0.17256 0.0427 0.25724 5e-3 0.0191 2e-3 0.0102 6e-3 0.0273 0.44243 2.1063 0.94924 1.9591 0.50682-0.14713-5e-3 -0.0234-3e-3 -0.0114-8e-3 -0.0364-0.0135-0.0634-0.023-0.12779-0.0315-0.19238-0.0233-0.18069-0.0385-0.36272-0.047-0.54518-0.0134-0.30774-0.0141-0.61559-0.0132-0.9236h0.23065 0.5582 0.41201c0.0736 6e-5 0.0373 0 0.10849 0 1.8459-3e-3 1.8456-0.61541-2.4e-4 -0.61362-0.0712-3e-5 -0.035 0-0.10864 0h-0.41233-0.55804c-0.0767-3e-5 -0.15334 0-0.23002 0v-1.7296c0-2.1695-0.52209-2.1695-0.52209 0v1.7294c-0.22489 0-0.44977 0-0.67464-3e-3 -0.29257-3e-3 -0.58522-5e-3 -0.87779-8e-3 -0.30306-4e-3 -0.60606-7e-3 -0.90911-0.01 0.0402-0.33969 0.0539-0.68266 0.0573-1.0257 6e-3 -0.49227 2e-3 -0.98452 3e-3 -1.4768v-0.92231c0-1.0847-0.13052-1.6271-0.26104-1.6271z" enable-background="new" stroke="#000" stroke-linecap="square" stroke-width=".28222" style="paint-order:markers fill stroke"/>
  </g>
  <path d="m26.08 140.8c-0.26843-0.70599 0.1627-9.2731 0.48292-9.5962 0.33627-0.33938 10.11-0.77134 10.436-0.46123 0.16786 0.15969 0.25578 2.5828 0.19536 5.3847l-0.10985 5.0944-5.3804 0.10977c-4.6713 0.0953-5.4126 0.0253-5.6242-0.53139z" fill="#fa414f" opacity=".92812" stroke="#f61c2d" stroke-linecap="round" stroke-width="1.7385"/>
  <path d="m37.505 143.07c-0.87034-0.0128-1.3832 0.16138-7.0882 8e-3 -6.9798-0.18683-7.194-0.24633-6.7042-1.8624 0.40362-1.3319 0.64918-7.3714 0.37079-9.1196-0.15755-0.98948-0.13426-1.6008 0.07121-1.8673 0.50068-0.6496 2.4998-1.0211 5.2434-0.97425 1.4189 0.0242 3.9076-0.11978 5.5306-0.31999 2.7892-0.34403 2.9827-0.33495 3.5311 0.16594 0.37534 0.34283 0.5261 0.73125 0.42702 1.1002-0.08425 0.31364-0.18543 2.9104-0.22484 5.7705-0.05664 4.1117 0.01237 5.3587 0.32961 5.9574 0.5469 1.5367 0.04093 1.2425-1.4865 1.1409zm-3.14-1.3555c2.6973-0.0145 2.7014-0.0155 2.7289-0.72511 0.01523-0.39086 0.06616-1.0882 0.11347-1.5495 0.23775-2.3194 0.16272-7.6331-0.11797-8.3544l-0.31308-0.80446-2.0022 0.21974c-1.1012 0.12087-3.3959 0.23979-5.0994 0.2643-1.9237 0.0277-3.2476 0.17057-3.4942 0.37713-0.29997 0.25126-0.44489 1.4775-0.59263 5.0142-0.10755 2.5749-0.11363 4.8961-0.01352 5.1582 0.20127 0.52698 2.5418 0.79127 4.8425 0.54682 0.68574-0.0728 2.4624-0.13899 3.9482-0.14695z" stroke-width=".27834"/>
  <path d="m62.716 143.67c-3.3662-0.91618-5.9358-4.1244-6.2551-7.8097-0.13506-1.559-0.0733-1.8537 0.60522-2.8898 1.5442-2.3576 6.4355-4.3412 8.8689-3.5967 1.7567 0.53751 5.2083 2.2544 5.6806 2.8255 0.81918 0.99072 1.9195 3.9389 1.9195 5.143 0 2.8886-1.5227 5.0833-4.2356 6.1048-1.822 0.68602-4.5436 0.77816-6.5835 0.22291zm4.147-1.0457c3.3858-0.57184 5.235-2.7222 4.9274-5.7301-0.27867-2.7249-2.11-5.1468-3.8918-5.1468-0.23494 0-0.88357-0.27177-1.4414-0.60396-1.2483-0.7433-2.643-0.72411-4.4587 0.0614-3.0001 1.2979-4.1508 2.8109-3.8817 5.104 0.37182 3.1685 2.4605 5.628 5.3658 6.3184 1.4387 0.3419 1.3391 0.34198 3.3803-3e-3z" stroke-width=".27834"/>
  <g transform="matrix(.95197 0 0 .92962 -80.664 93.766)">
   <path d="m145.07 146.46c-2.0255-1.0362-3.0771-2.4012-3.8154-4.9522-0.77381-2.6738 0.14528-4.4604 3.0016-5.8347 2.6633-1.2815 3.2148-1.2871 6.271-0.0641 1.9784 0.79177 2.6235 1.3001 3.3645 2.6512 2.0379 3.7161 0.52167 7.6113-3.3555 8.6203-2.5686 0.66845-3.4736 0.59883-5.4661-0.42046z" fill="#fa414f" opacity=".92812" stroke="#f61c2d" stroke-linecap="round" stroke-width="1.348"/>
   <path d="m145.48 148.57c-3.5361-0.98554-6.2353-4.4367-6.5707-8.401-0.14187-1.677-0.077-1.9941 0.63576-3.1085 1.6221-2.5361 6.7602-4.6699 9.3164-3.869 1.8453 0.5782 5.4711 2.425 5.9672 3.0394 0.86051 1.0657 2.0164 4.2371 2.0164 5.5324 0 3.1073-1.5996 5.4682-4.4493 6.5669-1.9139 0.73796-4.7729 0.83708-6.9157 0.23979zm4.3562-1.1248c3.5567-0.61514 5.4991-2.9283 5.176-6.1639-0.29273-2.9312-2.2164-5.5365-4.0881-5.5365-0.24679 0-0.92815-0.29235-1.5141-0.64968-1.3112-0.79958-2.7764-0.77893-4.6837 0.066-3.1515 1.3962-4.3602 3.0237-4.0776 5.4904 0.39058 3.4084 2.5846 6.054 5.6366 6.7968 1.5113 0.36779 1.4067 0.36788 3.5509-3e-3z" stroke-width=".29588"/>
  </g>
  <rect x="19.224" y="235.63" width="48.102" height="35.763" fill="#9af28c" opacity=".92812"/>
  <g>
   <g transform="scale(1.0292 .97165)" stroke-width=".22894" aria-label="Rh-">
    <path d="m21.341 258.38q0-0.15568 0.41208-0.62271 0.41208-0.46702 0.52197-0.46702 0.34798 0 1.5201 0.14651 1.1721 0.14652 1.4011 0.21978 0.61355 0.17399 0.61355 0.83333 0 0.31135-0.15568 0.64102-0.14652 0.3205-0.32967 0.54028-0.18315 0.21062-0.33882 0.39377-0.14652 0.18315-0.14652 0.22894 0 0.0641-0.53113 0.41208-0.52197 0.33882-0.9249 0.54944-0.32967 0.18315-0.32967 0.22894 0 0.0183 0.33882 0.13736 0.34798 0.10989 0.83332 0.3022 0.48534 0.1923 0.75091 0.37545 0.42124 0.29304 0.51282 0.29304 0.1282 9e-3 0.41208 0.31135 0.29304 0.29304 0.29304 0.42124 0 0.22893-0.16483 0.22893-0.14652 0-0.46703-0.16483-0.31135-0.17399-0.8608-0.46703-0.54944-0.30219-1.0806-0.51281l-0.71428-0.28388 0.03663 1.0714q0.0092 0.23809 0.0092 0.6868 0 0.21978-0.04579 0.31135-0.04579 0.10073-0.20146 0.10073-0.34798 0-0.34798-1.1172 0-1.1722-0.37545-1.3461-0.27472-0.11905-0.27472-0.32967 0-0.1923 0.26556-0.3205l0.30219-0.13737-0.07326-1.0439q-0.05494-0.83333-0.11905-1.1538-0.05495-0.32967-0.15568-0.32967-0.02747 0-0.10989 0.0641-0.08242 0.0641-0.20146 0.0641-0.10989 0-0.19231-0.0733-0.08242-0.0733-0.08242-0.1923zm3.9285 0.0458q0-0.0366-0.02747-0.0549-0.02747-0.0275-0.18315-0.0733-0.15568-0.0549-0.46703-0.14652-0.6227-0.17399-1.2637-0.17399h-0.65933l0.0641 0.4945q0.02747 0.18315 0.08242 0.77838 0.05494 0.58608 0.10073 1.044 0.04579 0.44871 0.0641 0.44871 0.1282 0 0.67765-0.3022 0.54944-0.30219 0.76922-0.50365 0.23809-0.21062 0.54029-0.76007 0.30219-0.54944 0.30219-0.75091z" style="font-variant-caps:normal;font-variant-east-asian:normal;font-variant-ligatures:normal;font-variant-numeric:normal"/>
    <path d="m27.513 263.29q0-0.73259-0.18315-2.9487-0.17399-2.2252-0.17399-3.0677 0-0.48534 0.05494-0.58607 0.10989-0.19231 0.21062-0.19231 0.16483 0 0.21062 0.32051 0.05495 0.32051 0.14652 1.6209 0.02747 0.32051 0.03663 0.52197 0.01831 0.19231 0.03663 0.54945 0.02747 0.34798 0.05494 0.67765l0.08242 1.0806 0.16483-0.35714q0.18315-0.41208 0.89743-1.0806t0.96153-0.66849q0.22894 0 0.50366 0.25641 0.27472 0.2564 0.35714 0.54944 0.07326 0.24725 0.07326 2.2252 0 1.4286-0.02747 1.6941-0.02747 0.25641-0.17399 0.25641-0.14652 0-0.1923-0.26557-0.03663-0.26556-0.07326-1.5293-0.05495-1.7674-0.21978-2.2619l-0.14652-0.45787-0.53113 0.4945q-0.42124 0.40292-0.77838 0.91574-0.34798 0.51281-0.47619 0.90658-0.08242 0.28388-0.13736 0.90658-0.05494 0.62271-0.13736 1.0256-0.07326 0.40293-0.21978 0.40293-0.0641 0-0.15568-0.0733-0.16483-0.13736-0.16483-0.91574z" style="font-variant-caps:normal;font-variant-east-asian:normal;font-variant-ligatures:normal;font-variant-numeric:normal"/>
    <path d="m32.932 257.75q0.5238-0.0536 1.7559-0.0536 1.0178 0 1.3512 0.0357t0.41071 0.16071q0.06547 0.10119 0.06547 0.17262 0 0.16071-0.44642 0.22023-0.44047 0.0595-1.7678 0.0893l-2.0297 0.0476 0.02976-0.30357q0.02381-0.20833 0.11905-0.26785 0.09524-0.0595 0.5119-0.10119z" baseline-shift="super"/>
   </g>
   <path d="m44.161 256.61c-1.5754-0.46788-2.778-2.1063-2.9274-3.9883-0.06321-0.79616-0.0343-0.94667 0.28325-1.4758 0.72268-1.204 3.0118-2.217 4.1507-1.8368 0.82214 0.27449 2.4375 1.1513 2.6585 1.4429 0.38338 0.50595 0.89835 2.0116 0.89835 2.6265 0 1.4752-0.71266 2.596-1.9823 3.1176-0.85271 0.35035-2.1264 0.39741-3.0811 0.11384zm1.9408-0.534c1.5846-0.29204 2.45-1.3902 2.3061-2.9263-0.13042-1.3916-0.98747-2.6284-1.8214-2.6284-0.10995 0-0.41352-0.13878-0.67459-0.30843-0.5842-0.37959-1.237-0.36979-2.0867 0.0314-1.4041 0.66283-1.9426 1.4355-1.8167 2.6065 0.17401 1.6181 1.1515 2.8741 2.5113 3.2267 0.67331 0.17461 0.62672 0.17465 1.582-2e-3z" stroke-width=".13608"/>
   <path d="m59.467 256.75c-0.4456-7e-3 -0.70816 0.0844-3.6291 4e-3 -3.5736-0.0977-3.6832-0.12887-3.4325-0.97435 0.20665-0.6968 0.33237-3.8565 0.18984-4.7711-0.08066-0.51767-0.06873-0.83748 0.03646-0.97693 0.25634-0.33986 1.2799-0.53419 2.6846-0.5097 0.72644 0.0127 2.0007-0.0626 2.8316-0.16742 1.4281-0.17998 1.5271-0.17522 1.8079 0.0868 0.19217 0.17935 0.26936 0.38257 0.21863 0.57557-0.04314 0.16409-0.09494 1.5226-0.11512 3.0189-0.029 2.1511 0.0063 2.8035 0.16876 3.1168 0.28001 0.80395 0.02095 0.65003-0.76108 0.59689zm-1.6077-0.70913c1.381-8e-3 1.3831-8e-3 1.3971-0.37936 0.0078-0.2045 0.03388-0.5693 0.0581-0.81068 0.12173-1.2134 0.08332-3.9934-0.06039-4.3708l-0.16029-0.42087-1.0251 0.11495c-0.56381 0.0632-1.7387 0.12547-2.6108 0.13828-0.9849 0.0145-1.6628 0.0892-1.789 0.19732-0.15358 0.13144-0.22778 0.77296-0.30342 2.6233-0.05506 1.3471-0.05818 2.5615-0.0069 2.6987 0.10305 0.27569 1.3014 0.41396 2.4793 0.28607 0.35109-0.0381 1.2607-0.0727 2.0214-0.0769z" stroke-width=".14406"/>
   <g transform="scale(1.0292 .97165)" stroke-width=".22894" aria-label="Rh+">
    <path d="m21.538 270.14q0-0.15567 0.41208-0.6227 0.41208-0.46703 0.52197-0.46703 0.34798 0 1.5201 0.14652 1.1721 0.14652 1.4011 0.21978 0.61355 0.17399 0.61355 0.83332 0 0.31135-0.15568 0.64102-0.14652 0.32051-0.32967 0.54029-0.18315 0.21062-0.33882 0.39377-0.14652 0.18315-0.14652 0.22893 0 0.0641-0.53113 0.41209-0.52197 0.33882-0.9249 0.54944-0.32967 0.18315-0.32967 0.22894 0 0.0183 0.33882 0.13736 0.34798 0.10989 0.83332 0.30219 0.48534 0.19231 0.75091 0.37546 0.42124 0.29303 0.51282 0.29303 0.1282 9e-3 0.41208 0.31135 0.29304 0.29304 0.29304 0.42125 0 0.22893-0.16483 0.22893-0.14652 0-0.46703-0.16483-0.31135-0.17399-0.8608-0.46703-0.54944-0.3022-1.0806-0.51282l-0.71428-0.28388 0.03663 1.0714q0.0092 0.23809 0.0092 0.68681 0 0.21977-0.04579 0.31135-0.04579 0.10073-0.20146 0.10073-0.34798 0-0.34798-1.1172 0-1.1722-0.37545-1.3461-0.27472-0.11905-0.27472-0.32967 0-0.19231 0.26556-0.32051l0.3022-0.13736-0.07326-1.0439q-0.05495-0.83333-0.11905-1.1538-0.05494-0.32967-0.15568-0.32967-0.02747 0-0.10989 0.0641-0.08242 0.0641-0.20146 0.0641-0.10989 0-0.1923-0.0733-0.08242-0.0733-0.08242-0.19231zm3.9285 0.0458q0-0.0366-0.02747-0.0549-0.02747-0.0275-0.18315-0.0733-0.15568-0.055-0.46703-0.14652-0.6227-0.17399-1.2637-0.17399h-0.65934l0.0641 0.4945q0.02747 0.18315 0.08242 0.77838 0.05494 0.58607 0.10073 1.0439 0.04579 0.44872 0.0641 0.44872 0.1282 0 0.67765-0.3022 0.54944-0.30219 0.76922-0.50366 0.23809-0.21062 0.54029-0.76006 0.3022-0.54945 0.3022-0.75091z" style="font-variant-caps:normal;font-variant-east-asian:normal;font-variant-ligatures:normal;font-variant-numeric:normal"/>
    <path d="m27.71 275.05q0-0.7326-0.18315-2.9487-0.17399-2.2252-0.17399-3.0677 0-0.48535 0.05495-0.58608 0.10989-0.1923 0.21062-0.1923 0.16483 0 0.21062 0.32051 0.05495 0.32051 0.14652 1.6209 0.02747 0.32051 0.03663 0.52197 0.01831 0.19231 0.03663 0.54945 0.02747 0.34798 0.05495 0.67764l0.08242 1.0806 0.16483-0.35714q0.18315-0.41208 0.89743-1.0806 0.71428-0.66849 0.96153-0.66849 0.22894 0 0.50366 0.25641 0.27472 0.25641 0.35714 0.54945 0.07326 0.24725 0.07326 2.2252 0 1.4286-0.02747 1.6941-0.02747 0.2564-0.17399 0.2564-0.14652 0-0.19231-0.26556-0.03663-0.26557-0.07326-1.5293-0.05495-1.7674-0.21978-2.2619l-0.14652-0.45787-0.53113 0.4945q-0.42124 0.40293-0.77838 0.91574-0.34798 0.51282-0.47618 0.90659-0.08242 0.28388-0.13736 0.90658-0.05494 0.6227-0.13736 1.0256-0.07326 0.40293-0.21978 0.40293-0.0641 0-0.15568-0.0733-0.16483-0.13736-0.16483-0.91574z" style="font-variant-caps:normal;font-variant-east-asian:normal;font-variant-ligatures:normal;font-variant-numeric:normal"/>
    <path d="m35.255 269.68q0.07738 0 0.125 0.0655 0.04762 0.0655 0.05357 0.1131 0.0119 0.0476 0.0119 0.0893 0 0.0655-0.04762 0.10714-0.04167 0.0417-0.15476 0.0655-0.11309 0.0238-0.23214 0.0417-0.11309 0.0119-0.33333 0.0357t-0.40476 0.0536l-0.20833 0.0417-0.04762 1.7619h-0.39285l-0.04762-1.7857-0.40476 0.0655q-0.45833 0.0655-0.62499 0.0655-0.14881 0-0.20238-0.0417-0.04762-0.0417-0.04762-0.14881 0-0.1369 0.08929-0.18452 0.09524-0.0536 0.51785-0.13095l0.60118-0.11905v-0.40475q0-0.3869 0.04762-0.52976 0.05357-0.125 0.23214-0.125 0.125 0 0.16071 0.0893 0.04167 0.0833 0.07738 0.46428l0.05357 0.55356 0.44047-0.0476q0.19047-0.0179 0.36309-0.0417t0.2619-0.0357q0.08928-0.0179 0.11309-0.0179z" baseline-shift="super"/>
   </g>
  </g>
  <g transform="matrix(.44534 0 0 .47474 -20.32 197.5)">
   <path d="m145.07 146.46c-2.0255-1.0362-3.0771-2.4012-3.8154-4.9522-0.77381-2.6738 0.14528-4.4604 3.0016-5.8347 2.6633-1.2815 3.2148-1.2871 6.271-0.0641 1.9784 0.79177 2.6235 1.3001 3.3645 2.6512 2.0379 3.7161 0.52167 7.6113-3.3555 8.6203-2.5686 0.66845-3.4736 0.59883-5.4661-0.42046z" fill="#fa414f" opacity=".92812" stroke="#f61c2d" stroke-linecap="round" stroke-width="1.348"/>
   <path d="m145.48 148.57c-3.5361-0.98554-6.2353-4.4367-6.5707-8.401-0.14187-1.677-0.077-1.9941 0.63576-3.1085 1.6221-2.5361 6.7602-4.6699 9.3164-3.869 1.8453 0.5782 5.4711 2.425 5.9672 3.0394 0.86051 1.0657 2.0164 4.2371 2.0164 5.5324 0 3.1073-1.5996 5.4682-4.4493 6.5669-1.9139 0.73796-4.7729 0.83708-6.9157 0.23979zm4.3562-1.1248c3.5567-0.61514 5.4991-2.9283 5.176-6.1639-0.29273-2.9312-2.2164-5.5365-4.0881-5.5365-0.24679 0-0.92815-0.29235-1.5141-0.64968-1.3112-0.79958-2.7764-0.77893-4.6837 0.066-3.1515 1.3962-4.3602 3.0237-4.0776 5.4904 0.39058 3.4084 2.5846 6.054 5.6366 6.7968 1.5113 0.36779 1.4067 0.36788 3.5509-3e-3z" stroke-width=".29588"/>
  </g>
  <g transform="matrix(.4874 0 0 .48635 2.6062 195.93)">
   <path d="m104.44 146.11c-0.28197-0.75944 0.17091-9.9751 0.50729-10.323 0.35324-0.36508 10.62-0.82974 10.963-0.49615 0.17633 0.17178 0.26868 2.7784 0.20522 5.7924l-0.11539 5.4801-5.6519 0.11808c-4.907 0.10254-5.6857 0.0272-5.908-0.57162z" fill="#fa414f" opacity=".92812" stroke="#f61c2d" stroke-linecap="round" stroke-width="1.848"/>
   <path d="m116.44 148.55c-0.91425-0.0138-1.453 0.1736-7.4458 9e-3 -7.332-0.20097-7.557-0.26498-7.0425-2.0034 0.42398-1.4327 0.68193-7.9295 0.3895-9.81-0.1655-1.0644-0.14103-1.722 0.0748-2.0087 0.52594-0.69878 2.626-1.0984 5.508-1.048 1.4904 0.026 4.1048-0.12885 5.8097-0.34421 2.93-0.37008 3.1332-0.36031 3.7093 0.1785 0.39428 0.36878 0.55265 0.78661 0.44856 1.1835-0.0885 0.33738-0.19479 3.1307-0.23619 6.2073-0.0595 4.423 0.013 5.7644 0.34624 6.4084 0.5745 1.653 0.043 1.3365-1.5615 1.2273zm-3.2984-1.4581c2.8334-0.0156 2.8377-0.0167 2.8665-0.78001 0.016-0.42045 0.0695-1.1705 0.1192-1.6668 0.24975-2.495 0.17093-8.211-0.12392-8.9868l-0.32888-0.86536-2.1032 0.23637c-1.1568 0.13002-3.5673 0.25795-5.3567 0.28431-2.0207 0.0298-3.4115 0.18349-3.6705 0.40569-0.31511 0.27028-0.46734 1.5893-0.62253 5.3938-0.11298 2.7698-0.11936 5.2668-0.0142 5.5488 0.21143 0.56687 2.67 0.85117 5.0868 0.58821 0.72034-0.0783 2.5866-0.14951 4.1474-0.15807z" stroke-width=".29588"/>
  </g>
  <path d="m45.571 246.49c-0.08329-0.09-0.11141-0.24797-0.11141-0.62565v-0.50521h-0.37331c-0.3066 0-0.40284-0.0288-0.53854-0.16165-0.20838-0.20386-0.20838-0.32898 0-0.53285 0.13571-0.13275 0.23195-0.16165 0.53854-0.16165h0.37331l-7.1e-5 -0.4116-6.5e-5 -0.41161-0.38707-0.11126c-0.4927-0.14163-1.0672-0.49991-1.3466-0.84505-0.29715-0.36705-0.61249-0.96066-0.70134-1.4541-0.20836-1.1572 0.50283-2.441 1.6408-2.9617 0.4612-0.21107 0.5351-0.22497 1.1983-0.22534 0.67255-4.9e-4 0.73134 0.0111 1.2117 0.2356 1.0514 0.49146 1.4731 1.3066 1.6636 2.2849 0.1358 0.69716-0.18508 1.4322-0.69836 2.0015-0.32836 0.36423-0.76972 0.78301-1.3207 0.94989-0.42693 0.12933-0.47817 0.20598-0.4403 0.65865l0.0045 0.38802 0.44352-0.0977c0.44324-0.0976 0.61927 0.14994 0.61494 0.42394-0.0045 0.27982-0.1735 0.39114-0.63798 0.42008l-0.43698 0.0272v0.50898c0 1.0226-0.17765 0.8555-0.27668 0.94318-0.16258 0.14395-0.41972-0.33666-0.41972-0.33666zm0.98696-3.7383c0.42132-0.14043 0.94069-0.60965 1.1598-1.0478 0.40385-0.80753 0.14222-1.8546-0.60048-2.4032-0.86709-0.64045-1.9716-0.56886-2.7135 0.20817-1.3734 1.4385-0.60067 2.7047 0.74775 3.2122 0.41926 0.1578 0.98773 0.17018 1.4064 0.0306z" fill="#00887a" stroke="#00887a" stroke-width=".4"/>
  <path d="m56.901 245.57c-0.8866-0.12233-1.83-0.80621-2.2118-1.6035-0.30807-0.64316-0.4321-1.3047-0.23402-1.935 0.22774-0.72461 0.85173-1.3963 1.6192-1.7588 0.87211-0.41196 1.9404-0.38073 2.774 0.0811l0.29455 0.16319c0.25367-0.44215 0.52965-0.50718 0.79447-0.76076 0.43696-0.41842 0.75974-0.76076 0.71729-0.76076-0.04244 0-0.21159 0.0323-0.37584 0.0719-0.4486 0.10797-0.89123-3e-3 -0.79286-0.36233 0.04941-0.18068 0.41164-0.46222 1.6094-0.76202 1.6641-0.41653 1.7175-0.30567 1.2894 1.1844-0.15709 0.54672-0.32977 1.0951-0.38375 1.2186-0.12235 0.27987-0.37451 0.35841-0.63234 0.19695-0.17143-0.10737-0.17763-0.13138-0.13354-0.51737 0.01111-0.16271 0.14301-0.89056-0.06083-0.43311l-0.66221 0.76042-0.76927 0.73209 0.17433 0.28813c0.45581 0.75336 0.49352 1.507 0.24587 2.2174-0.42498 1.2191-1.7051 2.1942-3.262 1.9794zm1.2204-0.94023c0.54969-0.21608 0.83806-0.46584 1.095-0.94842 0.18828-0.35362 0.22108-0.4856 0.22083-0.88857-6.17e-4 -1.2624-0.93793-2.2398-2.2418-2.1129-0.72072 0.0701-1.658 0.73183-1.8316 1.2452-0.09069 0.26824-0.14067 0.62855-0.12028 0.97181 0.01672 0.28145 0.14903 0.55695 0.26757 0.78768 0.24403 0.47498 0.60388 0.93636 1.0964 1.1004 0.45738 0.15233 1.0385 0.0317 1.5139-0.15519z" fill="#00887a" stroke="#00887a" stroke-width=".4"/>
 </g>
</svg>
