<svg width="151.05mm" height="151.05mm" version="1.1" viewBox="0 0 151.05 151.05" xmlns="http://www.w3.org/2000/svg">
 <g transform="translate(126.77 -143.77)">
  <g>
   <path d="m-104.34 218.38 103-0.2814h-0.60587" fill="#82e2d7" stroke="#00887a" stroke-dasharray="0.91900006, 1.83800012" stroke-width=".919"/>
   <path d="m-104.64 231.11 103-0.2814h-0.60587" fill="#00887a" stroke="#00887a" stroke-dasharray="0.91860895, 1.83721791" stroke-width=".91861"/>
   <path d="m1.621 237.28c-1.4953-1.4171-2.6392-4.7775-2.2667-6.6591 0.42273-2.1354 2.4142-3.9568 4.7941-4.3848 2.5772-0.46345 4.6484-0.11335 5.7191 0.96672 0.66796 0.6738 0.91311 1.5016 1.0859 3.6665 0.40254 5.0439-0.90761 6.6481-5.9136 7.2408-2.1434 0.25378-2.3203 0.21082-3.4188-0.83016z" fill="#fa414f" stroke="#f61c2d" stroke-linecap="round" stroke-width="1.4576" style="paint-order:markers fill stroke"/>
  </g>
  <g fill="#ffa669" stroke="#ff9243" stroke-linecap="square">
   <path d="m-102.27 171.95c-0.0987-0.19443-0.21436-0.36265-0.32588-0.53595-0.23572-0.35865-0.47254-0.71545-0.71162-1.0679-0.2656-0.38858-0.52174-0.79458-0.7768-1.2021-0.22171-0.35788-0.43477-0.7301-0.65165-1.096-0.14969-0.25099-0.298-0.50858-0.47702-0.70182-0.1085-0.11222-0.2196-0.13643-0.34277-0.10549-0.17135 0.0601-0.32359 0.20639-0.47051 0.35867-0.19911 0.21939-0.37803 0.48347-0.55216 0.75407-0.20184 0.31814-0.39266 0.65491-0.58097 0.99503-0.18613 0.34099-0.36615 0.69078-0.54086 1.0481-0.1614 0.32712-0.32198 0.65537-0.4815 0.98502-0.13878 0.29057-0.27801 0.58082-0.41422 0.87483-0.0796 0.1738-0.0404 0.0875-0.11757 0.25819-1.4517 3.1995-1.9953 2.5159-0.54354-0.68366 0.0799-0.17639 0.0393-0.0872 0.12188-0.26732 0.13909-0.3003 0.2812-0.59685 0.42309-0.89356 0.16029-0.33123 0.32159-0.66101 0.48377-0.98968 0.18364-0.37519 0.37265-0.74267 0.56825-1.1007 0.20001-0.36111 0.4028-0.71842 0.61732-1.0559 0.20714-0.32102 0.42081-0.63274 0.65889-0.88958 0.23416-0.23896 0.47955-0.45247 0.75478-0.52103 0.2841-0.043 0.55118 0.0276 0.79501 0.29037 0.21441 0.24323 0.4042 0.53521 0.58306 0.84778 0.21255 0.35857 0.4214 0.7233 0.63851 1.0744 0.2485 0.39709 0.498 0.7928 0.75681 1.1714 0.24347 0.35908 0.48472 0.72234 0.72473 1.0878 0.13878 0.21555 0.28199 0.42629 0.40105 0.67357 1.4684 3.1783 0.9285 3.8698-0.53997 0.69151z" enable-background="new" stroke-width=".2706" style="paint-order:markers fill stroke"/>
   <path d="m9.4195 274.22c0.18432-0.10404 0.34398-0.22601 0.50835-0.34358 0.34021-0.2485 0.67859-0.49816 1.013-0.75019 0.36856-0.28002 0.75372-0.55004 1.1403-0.81893 0.33951-0.23374 0.69256-0.45836 1.0396-0.68701 0.23808-0.15775 0.48241-0.31415 0.66573-0.50289 0.10651-0.1143 0.12956-0.23153 0.10005-0.36135-0.05717-0.18061-0.1958-0.34115-0.34023-0.49603-0.20811-0.20994-0.45858-0.39852-0.71528-0.5821-0.30178-0.21278-0.62121-0.41393-0.94384-0.61248-0.32345-0.19624-0.65525-0.38603-0.99415-0.5702-0.31028-0.17019-0.62164-0.33946-0.93433-0.50763-0.27563-0.14637-0.55094-0.29307-0.82984-0.43668-0.16489-0.084-0.08315-0.0425-0.24492-0.12409-3.0349-1.5305-2.3864-2.1035 0.64847-0.57302 0.16729 0.0843 0.08268 0.0415 0.2536 0.12857 0.28483 0.14669 0.56616 0.29648 0.8476 0.44606 0.31417 0.16898 0.627 0.33906 0.93874 0.51002 0.35588 0.19363 0.70449 0.39287 1.0441 0.59903 0.34256 0.21089 0.68144 0.42465 1.0016 0.65084 0.30454 0.21837 0.6002 0.44362 0.84384 0.69464 0.22667 0.24685 0.4292 0.5055 0.49423 0.79566 0.04057 0.29953-0.02627 0.5811-0.27545 0.83817-0.23072 0.22604-0.50765 0.42611-0.80416 0.61465-0.34013 0.22411-0.68608 0.44428-1.0191 0.67316-0.37666 0.26199-0.75203 0.525-1.1111 0.79785-0.34062 0.25668-0.68519 0.511-1.0318 0.76404-0.20448 0.14637-0.40438 0.29727-0.63893 0.42278-3.0148 1.5481-3.6707 0.97886-0.65593-0.56922z" enable-background="new" stroke-width=".2706" style="paint-order:markers fill stroke"/>
   <path d="m-102.41 269.85h99.791c16.894 0.23656 16.836 1.4154 0 1.4154h-99.791c-4.8436 0-4.8436-1.4154 0-1.4154z" enable-background="new" stroke-width=".42868" style="paint-order:markers fill stroke"/>
  </g>
  <path d="m-104.67 234.98c4.2788-1.6314 8.4945-3.4281 12.635-5.3847 2.4143-1.141 4.8205-2.3431 7.3954-3.051 2.5748-0.70792 5.3702-0.89458 7.8866-7.3e-4 2.6686 0.94795 4.7676 2.9949 7.0291 4.6996 2.7718 2.0894 6.0559 3.7593 9.5266 3.7039 1.818-0.029 3.6026-0.53235 5.2762-1.2431 1.6735-0.71077 3.2501-1.6274 4.8309-2.5259 2.7527-1.5645 5.5388-3.0849 8.1288-4.9061 1.6976-1.1937 3.3138-2.5182 5.138-3.5076s3.9187-1.6344 5.9713-1.3284c1.4043 0.20932 2.7154 0.8533 3.8748 1.6728 1.1594 0.81954 2.1825 1.814 3.1989 2.8053 2.5147 2.4526 5.0669 4.9476 8.1657 6.602 4.6418 2.4781 10.365 2.8343 15.278 0.9509" fill="none" stroke="#f61c2d" stroke-linecap="round" stroke-width="1.5"/>
  <path d="m-103.85 249.73c0.81305-1.0267 1.6346-2.0468 2.4645-3.0599 2.6539-3.24 5.3929-6.4094 8.0554-9.6422 5.4767-6.6498 10.79-13.927 12.235-22.42 0.81786-4.8055 0.36836-9.8784 2.1458-14.417 0.88872-2.2695 2.3722-4.371 4.4608-5.6272 1.0443-0.6281 2.2283-1.0344 3.4435-1.1258 1.2152-0.0913 2.4602 0.13823 3.539 0.70504 1.628 0.85532 2.7924 2.4256 3.4902 4.127 0.69779 1.7014 0.97434 3.5425 1.1969 5.3679 1.1785 9.6663 1.0074 19.519 3.1442 29.02 0.98412 4.3755 2.4482 8.6275 3.5938 12.963 0.53261 2.0158 1.01 4.0838 2.0683 5.8801 0.52917 0.89818 1.2039 1.7198 2.0372 2.3462s1.8307 1.0515 2.8699 1.1343c0.94222 0.0751 1.8971-0.1324 2.7524-0.53455 0.8554-0.40215 1.614-0.99427 2.2611-1.6832 1.2942-1.378 2.133-3.1128 2.9121-4.8352 3.089-6.8292 5.5569-13.941 7.3356-21.222 1.4756-6.0405 2.4753-12.185 3.6209-18.297 0.99495-5.3079 2.1026-10.607 2.6007-15.984 0.30423-3.2843 0.40712-6.6961 1.865-9.6548 0.72894-1.4794 1.8051-2.8151 3.2095-3.6797 1.4044-0.86463 3.1525-1.2236 4.7456-0.79724 0.90977 0.24348 1.746 0.732 2.4436 1.3647 0.69759 0.63271 1.2595 1.4069 1.6957 2.2416 0.87249 1.6693 1.24 3.5522 1.5113 5.4162 1.1446 7.8628 0.75818 15.864 0.13059 23.785-0.41045 5.1803-0.92013 10.428 0 15.543 0.97621 5.4262 3.5128 10.429 6.0631 15.317 1.3402 2.5686 2.6929 5.1307 4.0581 7.6862" fill="none" stroke="#1db301" stroke-linecap="round" stroke-width="1.5"/>
  <g stroke="#000" stroke-linecap="square" stroke-width=".4">
   <path d="m-112.25 216.02c0.21985-0.22403 0.43649-0.45134 0.65266-0.67908 0.40674-0.42803 0.78978-0.87855 1.166-1.3347 0.34707-0.41659 0.67367-0.84977 0.98355-1.2959 0.1701-0.25003 0.32938-0.50809 0.46453-0.77982 0.12633-0.27505 0.0487-0.34514 0.59759 0.0619 0.0428 0.0318-9e-3 0.10814-0.0151 0.16205-8e-3 0.0681-0.0169 0.13609-0.0255 0.20414-0.09 0.63696-0.18794 1.2726-0.27429 1.9102-0.10567 0.78387-0.18644 1.5708-0.25698 2.3588-0.0516 0.58587-0.0889 1.1729-0.1144 1.7606-0.18357 3.3937-0.67566 3.3683-0.55611-0.0253 0.026-0.59662 0.0637-1.1926 0.11618-1.7874 0.0713-0.79671 0.15305-1.5925 0.25994-2.3851 0.0861-0.63555 0.18358-1.2693 0.2735-1.9043 8e-3 -0.0624 0.0163-0.12489 0.0235-0.18748 5e-3 -0.0443-0.0296-0.12484 0.0131-0.13333 0.68173-0.13531 0.57957-0.0605 0.45397 0.22555-0.14819 0.29613-0.32041 0.57858-0.50673 0.85101-0.31893 0.45897-0.65487 0.90478-1.0119 1.3334-0.38466 0.46622-0.77628 0.92668-1.1921 1.3642-0.21793 0.22957-0.43631 0.4587-0.65789 0.68455-1.3917 1.4274-1.7853 1.0237-0.39364-0.40374z" style="paint-order:markers fill stroke"/>
   <path d="m-113.8 228.91c-0.0269-0.2422-0.0407-0.4863-0.0554-0.72994-0.0322-0.3841-0.0403-0.76067 0.0247-1.1394 0.1666-0.58851 0.58973-0.8921 1.0278-1.141 0.51249-0.2683 1.0549-0.37061 1.6087-0.35573 0.56828 0.0396 1.0082 0.28505 1.4293 0.73978 0.3783 0.46819 0.5493 1.0738 0.66479 1.7004 0.12141 0.74748-0.0233 1.3914-0.28345 2.0641-0.30494 0.70291-0.76166 1.2709-1.2296 1.8133-0.49322 0.56032-1.0414 1.039-1.6061 1.4848-0.46808 0.35816-0.96833 0.64609-1.4766 0.9073-0.29536 0.15305-0.60053 0.2726-0.91095 0.37006-0.22703 0.0712-0.17167 0.11105-0.10141-0.63688 8e-5 0 0.23127-0.0276 0.35002-0.0417 0.37652-0.0449 0.75401-0.0757 1.1316-0.1036 0.41352-0.03 0.8275-0.0492 1.2416-0.0641 0.32443-0.0114 0.649-0.0163 0.97355-0.0178 0.21978 0 0.43954 3e-3 0.65929 6e-3 0.14592 3e-3 0.29183 6e-3 0.43775 0.01 0.0652 3e-3 0.0334 0 0.0954 3e-3 1.9386 0.0501 1.927 0.7192-0.0116 0.66906-0.0621-3e-3 -0.0305 0-0.0952-3e-3 -0.14473-4e-3 -0.28946-7e-3 -0.4342-0.01-0.2164-4e-3 -0.4328-7e-3 -0.64924-6e-3 -0.31991 3e-3 -0.63977 7e-3 -0.95953 0.0175-0.4084 0.0147-0.81671 0.0335-1.2246 0.0632-0.37095 0.0273-0.74182 0.0576-1.1118 0.10173-0.10079 0.012-0.35283 0.0495-0.35601 0.0424-0.28081-0.63039-0.3366-0.59709-0.0822-0.67796 0.2845-0.0892 0.56419-0.1983 0.83481-0.33877 0.47886-0.24564 0.95028-0.51612 1.3916-0.85244 0.53642-0.42294 1.0575-0.8768 1.5264-1.4082 0.41971-0.48537 0.83319-0.99052 1.1122-1.6163 0.20551-0.51761 0.33883-1.0508 0.24295-1.6307-0.0878-0.49033-0.20963-0.97325-0.49703-1.3489-0.3031-0.34398-0.65814-0.53922-1.0762-0.56739-0.46958-0.0184-0.92924 0.072-1.3649 0.29466-0.27822 0.15404-0.58175 0.32696-0.72195 0.6796-0.0636 0.31097-0.0306 0.62729-0.0129 0.94374 0.0134 0.2233 0.0263 0.44691 0.0494 0.66907 0.31878 2.3338-0.2222 2.4438-0.54097 0.11004z" style="paint-order:markers fill stroke"/>
   <path d="m2.6801 230.77c-0.0826-0.18811-0.1349-0.39156-0.18123-0.59597-0.0853-0.35265-0.10246-0.71225-0.0786-1.0763 0.035-0.42212 0.17981-0.77598 0.41963-1.0804 0.28186-0.30208 0.64066-0.41306 1.0028-0.48943 0.39483-0.0707 0.77996 0.0107 1.1531 0.16469 0.3412 0.1531 0.61336 0.42551 0.84388 0.75751 0.18989 0.29391 0.29502 0.63774 0.35949 0.99762 0.0464 0.29707 0.0413 0.59915 0.02119 0.89887-0.0155 0.20523-0.0471 0.40791-0.0859 0.60845-0.01209 0.0368-0.01471 0.0771-0.02519 0.11457-4e-3 0.0117 9e-3 -0.0239 7e-3 -0.0361-7e-3 -0.0574-0.0011-0.12332-0.0308-0.16967-0.0905-0.14553-0.11796-0.14176-0.21194-0.158 0.18887-0.0572 0.3793-0.10635 0.57025-0.15233 0.31224-0.0732 0.6273-0.12685 0.9429-0.17388 0.28239-0.049 0.56568-0.0678 0.84987-0.0373 0.36547 0.0545 0.54262 0.25818 0.68842 0.65404 0.12863 0.49967 0.14101 1.0283 0.13873 1.5474-8e-3 0.60781-0.12049 1.1982-0.2892 1.768-0.17414 0.54599-0.45006 1.0199-0.78162 1.442-0.30727 0.3789-0.69094 0.61989-1.0976 0.80435-0.32663 0.13967-0.66885 0.19581-1.0135 0.21047-0.2679 5e-3 -0.53435-0.0325-0.79916-0.0769-0.23913-0.0301-0.46612-0.11152-0.68368-0.23196-0.20955-0.12067-0.36807-0.30661-0.49212-0.53938-0.0816-0.16851-0.12136-0.35512-0.14551-0.54602-0.27652-2.3099 0.26634-2.404 0.54283-0.0941 0.0108 0.10071 0.0293 0.19995 0.0681 0.29103 0.0624 0.12802 0.14653 0.22364 0.25828 0.29018 0.16739 0.0956 0.34316 0.15391 0.52808 0.17657 0.2336 0.0394 0.46856 0.0739 0.70492 0.0709 0.28531-0.0104 0.56877-0.0555 0.83968-0.16902 0.32961-0.14679 0.6422-0.3362 0.89235-0.64112 0.2813-0.35289 0.51345-0.75195 0.66275-1.21 0.15008-0.49862 0.24783-1.0167 0.25693-1.5493 3e-3 -0.43203-6e-3 -0.87091-0.0974-1.2913-0.0449-0.15697-0.0815-0.23084-0.23254-0.24843-0.24452-0.0294-0.48833-5e-3 -0.73135 0.0352-0.30216 0.0449-0.6038 0.0962-0.90277 0.16612-0.20202 0.0485-0.40257 0.10448-0.60346 0.15906-0.32344 0.0132-0.43387-0.22203-0.34786-0.55483 0.0329-0.16899 0.0599-0.33984 0.0734-0.51283 0.01651-0.23599 0.02299-0.47402-0.01119-0.70852-0.0433-0.25611-0.11439-0.50215-0.24603-0.71376-0.16261-0.24219-0.35697-0.44016-0.60121-0.55403-0.28377-0.12166-0.57745-0.18722-0.87943-0.1375-0.24777 0.0503-0.50171 0.11121-0.70473 0.30163-0.15898 0.18198-0.23841 0.41057-0.2643 0.67299-0.0218 0.28751-6e-3 0.56992 0.0615 0.84859 0.0344 0.15467 0.0726 0.30904 0.13329 0.45228 0.92852 2.0488 0.44705 2.3649-0.48147 0.31606z" style="paint-order:markers fill stroke"/>
  </g>
  <g>
   <g>
    <path d="m-0.662 258.17c-1.4953-1.4171-2.6392-4.7775-2.2667-6.6591 0.42273-2.1354 2.4142-3.9568 4.7941-4.3848 2.5772-0.46345 4.6484-0.11335 5.7191 0.96672 0.66795 0.6738 0.9131 1.5016 1.0859 3.6665 0.40253 5.0439-0.90761 6.6481-5.9136 7.2408-2.1434 0.25378-2.3203 0.21082-3.4188-0.83016z" fill="#72e860" stroke="#1db301" stroke-linecap="round" stroke-width="1.4576" style="paint-order:markers fill stroke"/>
    <path d="m0.53728 248.54c-0.1371 0-0.27422 0.58345-0.27422 1.7504v0.99231c-1e-3 0.52682 3e-3 1.0536-3e-3 1.5804-5e-3 0.36972-0.0148 0.74048-0.0643 1.1059h-0.37999c-2e-3 9e-3 -4e-3 0.0142-5e-3 0.0224-0.0102 9e-3 -0.0131 0.0285-0.0122 0.0578-0.12983 0.63527-0.24216 0.52624 0.0461 0.61201 0.0552 0.0184 0.11023 0.0364 0.15624 0.0794 0.16225 0.11129 0.33312 0.13267 0.49061-0.0102 0.0262-0.0316 0.049-0.0651 0.0701-0.0994h0.0418c0.36495 4e-3 0.7299 8e-3 1.0949 0.012 0.30791 4e-3 0.61582 6e-3 0.92373 9e-3 0.23736 0 0.47467 3e-3 0.71204 3e-3 -5.8e-4 0.34263-5e-5 0.68503 0.0144 1.0273 0.01 0.21793 0.0281 0.43523 0.055 0.65105 0.012 0.093 0.0254 0.18562 0.0449 0.27672 5e-3 0.0205 2e-3 0.011 6e-3 0.0294 0.46475 2.2657 0.99713 2.1075 0.53239-0.15826-5e-3 -0.0252-3e-3 -0.0123-8e-3 -0.0392-0.0142-0.0682-0.0242-0.13747-0.0331-0.20695-0.0245-0.19437-0.0404-0.39018-0.0494-0.58645-0.0141-0.33104-0.0148-0.6622-0.0139-0.99352h0.24229 0.58637 0.43279c0.0773 6e-5 0.0392 0 0.11397 0 1.9391-3e-3 1.9387-0.66201-2.5e-4 -0.66008-0.0748-3e-5 -0.0368 0-0.11413 0h-0.43313-0.5862c-0.0806-3e-5 -0.16107 0-0.24162 0v-1.8606c0-2.3337-0.54844-2.3337-0.54844 0v1.8604c-0.23623 0-0.47246 0-0.70868-3e-3 -0.30733-3e-3 -0.61474-5e-3 -0.92208-9e-3 -0.31835-4e-3 -0.63663-7e-3 -0.95498-0.0104 0.0422-0.36542 0.0566-0.73436 0.0602-1.1033 6e-3 -0.52954 2e-3 -1.0591 3e-3 -1.5886v-0.99213c0-1.1669-0.13711-1.7503-0.27421-1.7503z" enable-background="new" stroke="#000" stroke-linecap="square" stroke-width=".3" style="paint-order:markers fill stroke"/>
    <path d="m-105.89 267.59v-59.39c-8e-3 -7.0334 0.0108-14.067-8e-3 -21.1-0.39601-23.729 1.2476-21.892 1.3424-3e-3 0.0195 7.0347 1e-3 14.069 8e-3 21.104v59.39c0 4.8588-1.3425 4.8588-1.3425 0z" enable-background="new" fill="#ffa669" stroke="#ff9243" stroke-linecap="square" stroke-width=".41816" style="paint-order:markers fill stroke"/>
   </g>
   <g style="font-variant-caps:normal;font-variant-east-asian:normal;font-variant-ligatures:normal;font-variant-numeric:normal" aria-label="X">
    <path d="m-1.2654 280.04q-0.12418 0-0.24059-0.0543-0.10866-0.0466-0.10866-0.12418 0.00776-0.26387 0.72954-1.4824 0.72178-1.2185 0.74507-1.366v-8e-3q-0.007761-0.18627-0.58984-0.78387-0.58208-0.59761-1.1874-1.2185-0.5976-0.62864-0.64417-0.85372 0-8e-3 -0.00776-0.0388 0-0.031 0-0.0388 0-0.0543 0.06985-0.10865 0.06985-0.0543 0.18627-0.0543 0.16298 0 0.43462 0.21731 0.2794 0.20955 0.85372 0.72178 0.046567 0.0466 0.077611 0.0699t0.06985 0.0698q0.046567 0.0388 0.085372 0.0699l1.203 1.0167 0.29492-0.39582q0.37253-0.50447 0.8382-0.98566 0.47343-0.48119 0.67522-0.48119 0.30268 0 0.30268 0.16299 0 0.15522-0.13194 0.38029-0.12418 0.22507-0.25612 0.37253l-0.13194 0.14746q-0.2794 0.26388-0.60537 0.90805l-0.35701 0.70626 0.31044 0.31821q0.23283 0.23283 0.7373 0.68297 0.51223 0.45015 0.76059 0.72955 0.25612 0.2794 0.25612 0.48119 0 0.1397-0.16298 0.21731-0.15522 0.0699-0.26388 0.0699-0.038806 0-0.077611-8e-3 -0.038806-8e-3 -0.085372-0.031-0.046567-0.0233-0.093133-0.0466-0.038805-0.031-0.10089-0.0776-0.062089-0.0543-0.11642-0.0931-0.054328-0.0466-0.14746-0.12418-0.085372-0.0854-0.15522-0.14746-0.06985-0.0699-0.19403-0.1785-0.12418-0.11642-0.22507-0.20955l-0.89253-0.80716-0.18627 0.23283q-0.20179 0.31045-0.39582 0.65194-0.18627 0.33372-0.28716 0.51223-0.10089 0.17851-0.16298 0.23283-0.007761 8e-3 -0.15522 0.2406-0.1397 0.23283-0.30268 0.36477-0.16298 0.1397-0.36477 0.1397z" stroke-width=".11656"/>
   </g>
   <g style="font-variant-caps:normal;font-variant-east-asian:normal;font-variant-ligatures:normal;font-variant-numeric:normal" aria-label="Y">
    <path d="m-112.19 176.53q0-0.25611 0.0621-0.34148 0.0621-0.0931 0.20179-0.0931 0.0776 0 0.25612 0.0854 0.1785 0.0776 0.22507 0.15523 0.031 0.0543 0.031 0.13194 0 0.51223-0.49671 1.4979-0.49671 0.9779-0.8382 1.3582-0.11641 0.13194-0.17074 0.19403-0.0466 0.0543-0.12418 0.20179-0.0776 0.14746-0.12418 0.25611-0.0466 0.10866-0.20955 0.49671-0.16298 0.3803-0.33372 0.76059l-0.66746 1.5056q-0.11641 0.24836-0.39581 0.24836-0.15523 0-0.2794-0.0931-0.12418-0.0931-0.12418-0.20955 0-0.44239 0.92357-2.2197l0.45014-0.86924-1.3039-1.2573q-0.92357-0.90029-1.2107-1.2185-0.28716-0.32597-0.28716-0.51223 0-0.0854 0.0699-0.15523 0.0699-0.0699 0.19402-0.0699 0.15523 0 0.44239 0.2406 0.28716 0.23283 1.3892 1.2651 0.85373 0.7373 1.1098 0.85372 0.0699-8e-3 0.1397-0.0776 0.0698-0.0698 0.17075-0.22508 0.10089-0.16298 0.19402-0.33372 0.0931-0.17075 0.26388-0.46567 0.17074-0.30268 0.32597-0.5588 0.11641-0.20179 0.11641-0.55104z" stroke-width=".11656"/>
   </g>
  </g>
 </g>
</svg>
