<?xml version="1.0" encoding="UTF-8" standalone="no"?>
<svg
   xmlns:dc="http://purl.org/dc/elements/1.1/"
   xmlns:cc="http://creativecommons.org/ns#"
   xmlns:rdf="http://www.w3.org/1999/02/22-rdf-syntax-ns#"
   xmlns:svg="http://www.w3.org/2000/svg"
   xmlns="http://www.w3.org/2000/svg"
   xmlns:sodipodi="http://sodipodi.sourceforge.net/DTD/sodipodi-0.dtd"
   xmlns:inkscape="http://www.inkscape.org/namespaces/inkscape"
   inkscape:version="1.0 (4035a4fb49, 2020-05-01)"
   sodipodi:docname="ecologicalstrategies.svg"
   id="svg5363"
   version="1.1"
   viewBox="0 0 151.054 151.054"
   height="151.054mm"
   width="151.054mm">
  <defs
     id="defs5357">
    <inkscape:path-effect
       is_visible="true"
       id="path-effect5976"
       effect="spiro" />
    <inkscape:path-effect
       simplifyJustCoalesce="false"
       simplifyindividualpaths="false"
       simplify_just_coalesce="false"
       simplify_individual_paths="false"
       helper_size="0"
       smooth_angles="360"
       threshold="0.007"
       steps="1"
       is_visible="true"
       id="path-effect5974"
       effect="simplify" />
    <inkscape:path-effect
       is_visible="true"
       id="path-effect5970"
       effect="spiro" />
    <inkscape:path-effect
       simplifyJustCoalesce="false"
       simplifyindividualpaths="false"
       simplify_just_coalesce="false"
       simplify_individual_paths="false"
       helper_size="0"
       smooth_angles="360"
       threshold="0.007"
       steps="1"
       is_visible="true"
       id="path-effect5968"
       effect="simplify" />
    <inkscape:path-effect
       simplifyJustCoalesce="false"
       simplifyindividualpaths="false"
       simplify_just_coalesce="false"
       simplify_individual_paths="false"
       helper_size="0"
       smooth_angles="360"
       threshold="0.0175585"
       steps="1"
       is_visible="true"
       id="path-effect5322"
       effect="simplify" />
    <inkscape:path-effect
       is_visible="true"
       id="path-effect5324"
       effect="spiro" />
    <inkscape:path-effect
       effect="simplify"
       id="path-effect5314"
       is_visible="true"
       steps="1"
       threshold="0.0175585"
       smooth_angles="360"
       helper_size="0"
       simplify_individual_paths="false"
       simplify_just_coalesce="false"
       simplifyindividualpaths="false"
       simplifyJustCoalesce="false" />
    <inkscape:path-effect
       effect="spiro"
       id="path-effect5316"
       is_visible="true" />
  </defs>
  <sodipodi:namedview
     inkscape:document-rotation="0"
     inkscape:window-maximized="1"
     inkscape:window-y="34"
     inkscape:window-x="0"
     inkscape:window-height="838"
     inkscape:window-width="1600"
     showgrid="false"
     inkscape:current-layer="layer1"
     inkscape:document-units="mm"
     inkscape:cy="229.31151"
     inkscape:cx="389.17274"
     inkscape:zoom="0.73709606"
     inkscape:pageshadow="2"
     inkscape:pageopacity="0.0"
     borderopacity="1.0"
     bordercolor="#666666"
     pagecolor="#ffffff"
     id="base" />
  <metadata
     id="metadata5360">
    <rdf:RDF>
      <cc:Work
         rdf:about="">
        <dc:format>image/svg+xml</dc:format>
        <dc:type
           rdf:resource="http://purl.org/dc/dcmitype/StillImage" />
      </cc:Work>
    </rdf:RDF>
  </metadata>
  <g
     transform="translate(126.77104,-143.77062)"
     id="layer1"
     inkscape:groupmode="layer"
     inkscape:label="Layer 1">
    <path
       inkscape:connector-curvature="0"
       id="path5960"
       d="m -104.33619,218.38451 102.9974826,-0.2814 h -0.6058667"
       style="fill:#82e2d7;fill-opacity:1;stroke:#00887a;stroke-width:0.91900009;stroke-linecap:butt;stroke-linejoin:miter;stroke-miterlimit:4;stroke-dasharray:0.91900006, 1.83800012;stroke-dashoffset:0;stroke-opacity:1" />
    <path
       inkscape:connector-curvature="0"
       id="path5960-2"
       d="m -104.64279,231.11059 102.9974478,-0.2814 H -2.251208"
       style="fill:#00887a;fill-opacity:1;stroke:#00887a;stroke-width:0.91860896;stroke-linecap:butt;stroke-linejoin:miter;stroke-miterlimit:4;stroke-dasharray:0.91860895, 1.83721791;stroke-dashoffset:0;stroke-opacity:1" />
    <path
       inkscape:connector-curvature="0"
       id="path7776"
       d="m 1.6209882,237.28384 c -1.49533802,-1.4171 -2.6392027,-4.77749 -2.26671842,-6.65909 0.4227308,-2.13544 2.41415222,-3.95685 4.79411532,-4.38484 2.5771577,-0.46345 4.6484446,-0.11335 5.7191296,0.96672 0.6679553,0.6738 0.9131053,1.50155 1.0858813,3.66652 0.402536,5.04393 -0.907609,6.64812 -5.9136289,7.24085 -2.1433788,0.25378 -2.3203219,0.21082 -3.4187789,-0.83016 z"
       style="opacity:1;vector-effect:none;fill:#fa414f;fill-opacity:1;fill-rule:nonzero;stroke:#f61c2d;stroke-width:1.45764196;stroke-linecap:round;stroke-linejoin:miter;stroke-miterlimit:4;stroke-dasharray:none;stroke-dashoffset:0;stroke-opacity:1;paint-order:markers fill stroke" />
    <path
       inkscape:connector-curvature="0"
       d="m -102.27064,171.95141 c -0.0987,-0.19443 -0.21436,-0.36265 -0.32588,-0.53595 -0.23572,-0.35865 -0.47254,-0.71545 -0.71162,-1.06793 -0.2656,-0.38858 -0.52174,-0.79458 -0.7768,-1.20213 -0.22171,-0.35788 -0.43477,-0.7301 -0.65165,-1.09595 -0.14969,-0.25099 -0.298,-0.50858 -0.47702,-0.70182 -0.1085,-0.11222 -0.2196,-0.13643 -0.34277,-0.10549 -0.17135,0.0601 -0.32359,0.20639 -0.47051,0.35867 -0.19911,0.21939 -0.37803,0.48347 -0.55216,0.75407 -0.20184,0.31814 -0.39266,0.65491 -0.58097,0.99503 -0.18613,0.34099 -0.36615,0.69078 -0.54086,1.04807 -0.1614,0.32712 -0.32198,0.65537 -0.4815,0.98502 -0.13878,0.29057 -0.27801,0.58082 -0.41422,0.87483 -0.0796,0.1738 -0.0404,0.0875 -0.11757,0.25819 -1.45174,3.1995 -1.9953,2.51587 -0.54354,-0.68366 v 0 c 0.0799,-0.17639 0.0393,-0.0872 0.12188,-0.26732 0.13909,-0.3003 0.2812,-0.59685 0.42309,-0.89356 0.16029,-0.33123 0.32159,-0.66101 0.48377,-0.98968 0.18364,-0.37519 0.37265,-0.74267 0.56825,-1.1007 0.20001,-0.36111 0.4028,-0.71842 0.61732,-1.0559 0.20714,-0.32102 0.42081,-0.63274 0.65889,-0.88958 0.23416,-0.23896 0.47955,-0.45247 0.75478,-0.52103 0.2841,-0.043 0.55118,0.0276 0.79501,0.29037 0.21441,0.24323 0.4042,0.53521 0.58306,0.84778 0.21255,0.35857 0.4214,0.7233 0.63851,1.07439 0.2485,0.39709 0.498,0.7928 0.75681,1.1714 0.24347,0.35908 0.48472,0.72234 0.72473,1.08781 0.13878,0.21555 0.28199,0.42629 0.40105,0.67357 1.46844,3.17829 0.9285,3.86982 -0.53997,0.69151 z"
       id="path1838-5-93-3-5"
       style="opacity:1;fill:#ffa669;fill-opacity:1;stroke:#ff9243;stroke-width:0.27060205;stroke-linecap:square;stroke-miterlimit:4;stroke-dasharray:none;stroke-dashoffset:0;stroke-opacity:1;paint-order:markers fill stroke;enable-background:new" />
    <path
       inkscape:connector-curvature="0"
       d="m 9.4195357,274.2249 c 0.184318,-0.10404 0.343983,-0.22601 0.508352,-0.34358 0.3402063,-0.2485 0.6785933,-0.49816 1.0129753,-0.75019 0.368557,-0.28002 0.753716,-0.55004 1.140257,-0.81893 0.339514,-0.23374 0.692565,-0.45836 1.039606,-0.68701 0.23808,-0.15775 0.482414,-0.31415 0.665731,-0.50289 0.106506,-0.1143 0.129559,-0.23153 0.100051,-0.36135 -0.05717,-0.18061 -0.195797,-0.34115 -0.340233,-0.49603 -0.208113,-0.20994 -0.458578,-0.39852 -0.71528,-0.5821 -0.301783,-0.21278 -0.62121,-0.41393 -0.943845,-0.61248 -0.323452,-0.19624 -0.655252,-0.38603 -0.994148,-0.5702 -0.310283,-0.17019 -0.621638,-0.33946 -0.9343303,-0.50763 -0.275628,-0.14637 -0.550943,-0.29307 -0.829841,-0.43668 -0.164893,-0.084 -0.08315,-0.0425 -0.244918,-0.12409 -3.0349086,-1.53051 -2.3864067,-2.10352 0.648474,-0.57302 v 0 c 0.167288,0.0843 0.08268,0.0415 0.253601,0.12857 0.2848303,0.14669 0.5661553,0.29648 0.8476023,0.44606 0.314173,0.16898 0.627003,0.33906 0.938744,0.51002 0.355882,0.19363 0.704493,0.39287 1.04408,0.59903 0.342555,0.21089 0.681436,0.42465 1.001554,0.65084 0.304535,0.21837 0.600199,0.44362 0.843841,0.69464 0.226672,0.24685 0.429204,0.5055 0.494229,0.79566 0.04057,0.29953 -0.02627,0.5811 -0.275453,0.83817 -0.23072,0.22604 -0.507648,0.42611 -0.804157,0.61465 -0.340129,0.22411 -0.68608,0.44428 -1.019108,0.67316 -0.37666,0.26199 -0.752028,0.525 -1.111134,0.79785 -0.340619,0.25668 -0.685188,0.511 -1.031831,0.76404 -0.204484,0.14637 -0.404385,0.29727 -0.638926,0.42278 -3.0148101,1.54812 -3.6707337,0.97886 -0.6559273,-0.56922 z"
       id="path1838-5-93-6-6-6"
       style="opacity:1;fill:#ffa669;fill-opacity:1;stroke:#ff9243;stroke-width:0.27060205;stroke-linecap:square;stroke-miterlimit:4;stroke-dasharray:none;stroke-dashoffset:0;stroke-opacity:1;paint-order:markers fill stroke;enable-background:new" />
    <path
       sodipodi:nodetypes="sccccccccccccss"
       inkscape:connector-curvature="0"
       d="m -102.41326,269.84905 h 6.190282 17.334926 23.85253 22.500941 17.781953 12.1302606 c 16.8940074,0.23656 16.8360324,1.41535 0,1.41535 h -12.1302606 -17.781953 -22.500941 -23.85253 -17.334926 -6.190282 c -4.84355,0 -4.84355,-1.41535 0,-1.41535 z"
       id="path1801-5-3"
       style="opacity:1;fill:#ffa669;fill-opacity:1;stroke:#ff9243;stroke-width:0.42868328;stroke-linecap:square;stroke-miterlimit:4;stroke-dasharray:none;stroke-dashoffset:0;stroke-opacity:1;paint-order:markers fill stroke;enable-background:new" />
    <path
       inkscape:original-d="m -104.66893,234.97911 c 3.55758,0.26586 6.301908,-0.60031 9.059025,-2.26973 1.582651,-0.95828 2.752464,-2.47431 4.060941,-3.53067 3.555825,-2.87071 7.144043,-2.52192 12.182823,-2.52192 1.099706,0 4.204501,-0.38849 4.998081,0.25219 1.59776,1.28991 3.088526,3.5117 4.99808,4.53945 0.655566,0.35283 1.213604,0.32658 1.874279,0.50438 0.419104,0.11279 0.542008,0.59708 0.937142,0.75657 3.155823,1.27389 6.68283,3.06455 10.620923,2.26973 3.995519,-0.80642 7.551132,-6.2005 9.683781,-7.06136 1.013035,-0.40892 2.391167,-0.83913 3.436181,-1.26096 4.733572,-1.91076 6.697261,-6.34012 13.119963,-5.04383 1.240383,0.25035 2.089442,1.54114 2.811419,2.26973 0.806789,0.81417 1.971779,1.08747 2.81142,1.76533 1.523031,1.22958 4.069845,5.55061 5.935222,6.0526 1.746768,0.47007 4.040809,1.45945 5.935221,1.76534 3.5749752,0.57723 8.1555458,0 11.87044098,0"
       inkscape:path-effect="#path-effect5968;#path-effect5970"
       inkscape:connector-curvature="0"
       id="path5966"
       d="m -104.66893,234.97911 c 4.27879,-1.63137 8.494549,-3.42806 12.63471,-5.38471 2.414312,-1.14101 4.820541,-2.34313 7.395355,-3.05104 2.574815,-0.70792 5.370247,-0.89458 7.886562,-7.3e-4 2.668612,0.94795 4.767611,2.99494 7.029061,4.69962 2.771849,2.08942 6.055874,3.75931 9.526574,3.70388 1.817987,-0.029 3.602637,-0.53235 5.276174,-1.24312 1.673538,-0.71077 3.250127,-1.62745 4.830864,-2.52589 2.752681,-1.56453 5.538759,-3.08493 8.128806,-4.9061 1.697622,-1.19367 3.313793,-2.51818 5.138021,-3.5076 1.824228,-0.98942 3.918727,-1.63438 5.971325,-1.32843 1.404296,0.20932 2.71541,0.8533 3.874817,1.67283 1.159407,0.81954 2.182509,1.81396 3.198938,2.80529 2.514712,2.45261 5.066914,4.94762 8.165667,6.60195 4.641806,2.47812 10.3648014,2.83432 15.27806798,0.9509"
       style="fill:none;stroke:#f61c2d;stroke-width:1.5;stroke-linecap:round;stroke-linejoin:miter;stroke-miterlimit:4;stroke-dasharray:none;stroke-opacity:1" />
    <path
       sodipodi:nodetypes="ccccsscccssccccsssscscc"
       inkscape:original-d="m -103.84727,249.73098 c -0.26524,-0.94763 -0.73274,-1.86085 -0.79572,-2.84288 -0.0105,-0.16344 2.04421,0.26854 2.76032,0 2.727871,-1.02295 4.445642,-4.26994 6.134054,-6.44075 4.582083,-5.89125 7.573073,-12.85429 10.734595,-19.62898 1.396627,-2.99277 3.615992,-5.44017 5.213948,-8.28098 3.45903,-6.14938 6.543722,-15.53996 12.881515,-18.70886 0.178924,-0.0895 2.024475,-0.12244 2.146919,0 0.117295,0.1173 1.784519,9.10379 2.146919,10.7346 1.422857,6.40286 1.189738,13.1242 1.840216,19.62897 0.56092,5.6092 1.485591,11.34481 2.760324,16.86865 0.437695,1.89668 1.705838,3.44962 2.146919,5.21395 0.351624,1.40649 0.840939,4.21467 1.840217,5.21394 1.407292,1.4073 4.872773,4.77113 7.667567,3.37373 1.454851,-0.72742 2.171194,-2.79269 3.067029,-3.98713 2.384263,-3.17902 3.166282,-4.21725 4.60054,-8.28098 1.11859,-3.16934 2.170062,-6.25628 3.067026,-9.50778 1.448274,-5.24999 2.934174,-10.45758 4.600544,-15.64184 2.294625,-7.13884 -0.828806,-13.46213 1.533513,-20.54908 1.760773,-5.28232 6.865549,-13.91972 11.041299,-18.09546 3.563535,-3.56354 6.440757,7.27524 6.440757,9.81448 v 38.03114 c 3.8802198,3.42772 6.5258007,22.09659 10.12119,23.0027"
       inkscape:path-effect="#path-effect5974;#path-effect5976"
       inkscape:connector-curvature="0"
       id="path5972"
       d="m -103.84727,249.73098 c 0.81305,-1.02674 1.63458,-2.04677 2.46448,-3.05994 2.653878,-3.23998 5.392871,-6.40938 8.055397,-9.64225 5.476653,-6.64983 10.789519,-13.92726 12.234904,-22.41989 0.817864,-4.80551 0.368365,-9.87845 2.145808,-14.41745 0.888722,-2.26951 2.372175,-4.37099 4.460815,-5.62719 1.04432,-0.6281 2.228314,-1.03443 3.443541,-1.12575 1.215227,-0.0913 2.460202,0.13823 3.539019,0.70504 1.627957,0.85532 2.792417,2.42556 3.490205,4.127 0.697789,1.70145 0.974341,3.54246 1.196893,5.36792 1.178475,9.66631 1.007372,19.51941 3.144186,29.01996 0.984116,4.37551 2.44816,8.62746 3.593824,12.96347 0.532611,2.01578 1.009959,4.08376 2.068305,5.88014 0.529173,0.89818 1.203861,1.71982 2.037179,2.34619 0.833318,0.62637 1.830724,1.05147 2.869906,1.13432 0.942222,0.0751 1.897051,-0.1324 2.752447,-0.53455 0.855397,-0.40215 1.613957,-0.99427 2.261054,-1.68324 1.294195,-1.37796 2.133006,-3.11279 2.912097,-4.83521 3.089011,-6.82919 5.556937,-13.94056 7.335618,-21.22178 1.475603,-6.04054 2.475256,-12.18509 3.620887,-18.2968 0.994951,-5.30786 2.102585,-10.6068 2.600694,-15.98409 0.304233,-3.28432 0.407122,-6.69606 1.864998,-9.65476 0.728939,-1.47936 1.805096,-2.81508 3.209462,-3.67971 1.404367,-0.86463 3.152483,-1.2236 4.74561,-0.79724 0.909771,0.24348 1.745967,0.732 2.443558,1.36472 0.697592,0.63271 1.259454,1.40694 1.695697,2.2416 0.872486,1.66932 1.239996,3.55224 1.511326,5.41617 1.144574,7.86276 0.758185,15.86433 0.130591,23.78514 -0.410453,5.1803 -0.920129,10.4285 0,15.54292 0.976212,5.42615 3.512764,10.42862 6.0631149,15.31655 1.3402132,2.56861 2.6929263,5.1307 4.0580751,7.68615"
       style="fill:none;stroke:#1db301;stroke-width:1.5;stroke-linecap:round;stroke-linejoin:miter;stroke-miterlimit:4;stroke-dasharray:none;stroke-opacity:1" />
    <path
       sodipodi:nodetypes="ccccccccccccccccccccccccc"
       style="opacity:1;fill:#000000;fill-opacity:1;stroke:#000000;stroke-width:0.40000001;stroke-linecap:square;stroke-miterlimit:4;stroke-dasharray:none;stroke-dashoffset:0;stroke-opacity:1;paint-order:markers fill stroke"
       id="path3690"
       d="m -112.24979,216.02201 c 0.21985,-0.22403 0.43649,-0.45134 0.65266,-0.67908 0.40674,-0.42803 0.78978,-0.87855 1.16601,-1.33468 0.34707,-0.41659 0.67367,-0.84977 0.98355,-1.29593 0.1701,-0.25003 0.32938,-0.50809 0.46453,-0.77982 0.12633,-0.27505 0.0487,-0.34514 0.59759,0.0619 0.0428,0.0318 -0.009,0.10814 -0.0151,0.16205 -0.008,0.0681 -0.0169,0.13609 -0.0255,0.20414 -0.09,0.63696 -0.18794,1.27265 -0.27429,1.91019 -0.10567,0.78387 -0.18644,1.57084 -0.25698,2.35875 -0.0516,0.58587 -0.0889,1.17291 -0.1144,1.76057 -0.18357,3.39366 -0.67566,3.36828 -0.55611,-0.0253 v 0 c 0.026,-0.59662 0.0637,-1.19263 0.11618,-1.7874 0.0713,-0.79671 0.15305,-1.59247 0.25994,-2.3851 0.0861,-0.63555 0.18358,-1.26931 0.2735,-1.90427 0.008,-0.0624 0.0163,-0.12489 0.0235,-0.18748 0.005,-0.0443 -0.0296,-0.12484 0.0131,-0.13333 0.68173,-0.13531 0.57957,-0.0605 0.45397,0.22555 -0.14819,0.29613 -0.32041,0.57858 -0.50673,0.85101 -0.31893,0.45897 -0.65487,0.90478 -1.01194,1.33341 -0.38466,0.46622 -0.77628,0.92668 -1.19209,1.36417 -0.21793,0.22957 -0.43631,0.4587 -0.65789,0.68455 -1.39168,1.4274 -1.7853,1.02366 -0.39364,-0.40374 z"
       inkscape:connector-curvature="0" />
    <path
       style="opacity:1;fill:#000000;fill-opacity:1;stroke:#000000;stroke-width:0.40000001;stroke-linecap:square;stroke-miterlimit:4;stroke-dasharray:none;stroke-dashoffset:0;stroke-opacity:1;paint-order:markers fill stroke"
       id="path3680"
       d="m -113.79756,228.91222 c -0.0269,-0.2422 -0.0407,-0.4863 -0.0554,-0.72994 -0.0322,-0.3841 -0.0403,-0.76067 0.0247,-1.13943 0.1666,-0.58851 0.58973,-0.8921 1.02779,-1.14095 0.51249,-0.2683 1.05493,-0.37061 1.60874,-0.35573 0.56828,0.0396 1.00819,0.28505 1.4293,0.73978 0.3783,0.46819 0.5493,1.07375 0.66479,1.70043 0.12141,0.74748 -0.0233,1.39139 -0.28345,2.06411 -0.30494,0.70291 -0.76166,1.27093 -1.22956,1.81333 -0.49322,0.56032 -1.04145,1.039 -1.60608,1.48478 -0.46808,0.35816 -0.96833,0.64609 -1.47665,0.9073 -0.29536,0.15305 -0.60053,0.2726 -0.91095,0.37006 -0.22703,0.0712 -0.17167,0.11105 -0.10141,-0.63688 8e-5,0 0.23127,-0.0276 0.35002,-0.0417 0.37652,-0.0449 0.75401,-0.0757 1.13157,-0.1036 0.41352,-0.03 0.8275,-0.0492 1.24157,-0.0641 0.32443,-0.0114 0.649,-0.0163 0.97355,-0.0178 0.21978,0 0.43954,0.003 0.65929,0.006 0.14592,0.003 0.29183,0.006 0.43775,0.01 0.0652,0.003 0.0334,0 0.0954,0.003 1.93857,0.0501 1.92695,0.7192 -0.0116,0.66906 v 0 c -0.0621,-0.003 -0.0305,0 -0.0952,-0.003 -0.14473,-0.004 -0.28946,-0.007 -0.4342,-0.01 -0.2164,-0.004 -0.4328,-0.007 -0.64924,-0.006 -0.31991,0.003 -0.63977,0.007 -0.95953,0.0175 -0.4084,0.0147 -0.81671,0.0335 -1.2246,0.0632 -0.37095,0.0273 -0.74182,0.0576 -1.11175,0.10173 -0.10079,0.012 -0.35283,0.0495 -0.35601,0.0424 -0.28081,-0.63039 -0.3366,-0.59709 -0.0822,-0.67796 0.2845,-0.0892 0.56419,-0.1983 0.83481,-0.33877 0.47886,-0.24564 0.95028,-0.51612 1.39156,-0.85244 0.53642,-0.42294 1.0575,-0.8768 1.52638,-1.40824 0.41971,-0.48537 0.83319,-0.99052 1.11215,-1.61631 0.20551,-0.51761 0.33883,-1.05082 0.24295,-1.63069 -0.0878,-0.49033 -0.20963,-0.97325 -0.49703,-1.34888 -0.3031,-0.34398 -0.65814,-0.53922 -1.07616,-0.56739 -0.46958,-0.0184 -0.92924,0.072 -1.36494,0.29466 -0.27822,0.15404 -0.58175,0.32696 -0.72195,0.6796 -0.0636,0.31097 -0.0306,0.62729 -0.0129,0.94374 0.0134,0.2233 0.0263,0.44691 0.0494,0.66907 0.31878,2.3338 -0.2222,2.4438 -0.54097,0.11004 z"
       inkscape:connector-curvature="0" />
    <path
       style="opacity:1;fill:#000000;fill-opacity:1;stroke:#000000;stroke-width:0.40000001;stroke-linecap:square;stroke-miterlimit:4;stroke-dasharray:none;stroke-dashoffset:0;stroke-opacity:1;paint-order:markers fill stroke"
       id="path3682"
       d="m 2.6801431,230.7701 c -0.0826,-0.18811 -0.1349,-0.39156 -0.181229,-0.59597 -0.0853,-0.35265 -0.10246,-0.71225 -0.0786,-1.0763 0.035,-0.42212 0.179808,-0.77598 0.419629,-1.08036 0.28186,-0.30208 0.6406591,-0.41306 1.0028101,-0.48943 0.39483,-0.0707 0.77996,0.0107 1.15307,0.16469 0.341199,0.1531 0.61336,0.42551 0.843878,0.75751 0.189892,0.29391 0.295021,0.63774 0.359492,0.99762 0.0464,0.29707 0.0413,0.59915 0.02119,0.89887 -0.0155,0.20523 -0.0471,0.40791 -0.0859,0.60845 -0.01209,0.0368 -0.01471,0.0771 -0.02519,0.11457 -0.004,0.0117 0.009,-0.0239 0.007,-0.0361 -0.007,-0.0574 -0.0011,-0.12332 -0.0308,-0.16967 -0.0905,-0.14553 -0.117959,-0.14176 -0.211939,-0.158 0.18887,-0.0572 0.379301,-0.10635 0.570251,-0.15233 0.31224,-0.0732 0.627298,-0.12685 0.942898,-0.17388 0.28239,-0.049 0.565682,-0.0678 0.8498715,-0.0373 0.365469,0.0545 0.542621,0.25818 0.688419,0.65404 0.12863,0.49967 0.14101,1.02829 0.138732,1.54735 -0.008,0.60781 -0.120491,1.19817 -0.2892,1.76796 -0.174141,0.54599 -0.450062,1.01988 -0.7816225,1.442 -0.307268,0.3789 -0.690938,0.61989 -1.0976,0.80435 -0.326628,0.13967 -0.668848,0.19581 -1.013489,0.21047 -0.267901,0.005 -0.53435,-0.0325 -0.799161,-0.0769 -0.23913,-0.0301 -0.466119,-0.11152 -0.683678,-0.23196 -0.20955,-0.12067 -0.368072,-0.30661 -0.492122,-0.53938 -0.0816,-0.16851 -0.121359,-0.35512 -0.145508,-0.54602 -0.276521,-2.30988 0.266338,-2.40399 0.54283,-0.0941 v 0 c 0.0108,0.10071 0.0293,0.19995 0.0681,0.29103 0.0624,0.12802 0.146532,0.22364 0.258281,0.29018 0.167389,0.0956 0.34316,0.15391 0.52808,0.17657 0.2336,0.0394 0.468561,0.0739 0.704921,0.0709 0.285308,-0.0104 0.568769,-0.0555 0.839679,-0.16902 0.32961,-0.14679 0.642199,-0.3362 0.89235,-0.64112 0.281299,-0.35289 0.51345,-0.75195 0.6627495,-1.21002 0.15008,-0.49862 0.24783,-1.01667 0.256932,-1.54932 0.003,-0.43203 -0.006,-0.87091 -0.0974,-1.29134 -0.0449,-0.15697 -0.0815,-0.23084 -0.2325405,-0.24843 -0.24452,-0.0294 -0.488331,-0.005 -0.731351,0.0352 -0.302159,0.0449 -0.6038,0.0962 -0.902769,0.16612 -0.20202,0.0485 -0.402571,0.10448 -0.603461,0.15906 -0.32344,0.0132 -0.433869,-0.22203 -0.347859,-0.55483 0.0329,-0.16899 0.0599,-0.33984 0.0734,-0.51283 0.01651,-0.23599 0.02299,-0.47402 -0.01119,-0.70852 -0.0433,-0.25611 -0.11439,-0.50215 -0.246028,-0.71376 -0.16261,-0.24219 -0.35697,-0.44016 -0.60121,-0.55403 -0.283771,-0.12166 -0.57745,-0.18722 -0.87943,-0.1375 -0.247772,0.0503 -0.501711,0.11121 -0.7047311,0.30163 -0.15898,0.18198 -0.238411,0.41057 -0.2643,0.67299 -0.0218,0.28751 -0.006,0.56992 0.0615,0.84859 0.0344,0.15467 0.0726,0.30904 0.133291,0.45228 0.9285191,2.04876 0.4470481,2.36486 -0.48147,0.31606 z"
       inkscape:connector-curvature="0" />
    <path
       inkscape:connector-curvature="0"
       id="path7776-7"
       d="m -0.66199502,258.17161 c -1.49534008,-1.4171 -2.63920008,-4.77749 -2.26672008,-6.65909 0.42273,-2.13544 2.41415008,-3.95685 4.79412,-4.38484 2.57715,-0.46345 4.64844,-0.11335 5.71913,0.96672 0.6679498,0.6738 0.9130998,1.50155 1.0858798,3.66652 0.40253,5.04393 -0.9076098,6.64812 -5.9136298,7.24085 -2.14338002,0.25378 -2.32032002,0.21082 -3.41877992,-0.83016 z"
       style="opacity:1;vector-effect:none;fill:#72e860;fill-opacity:1;fill-rule:nonzero;stroke:#1db301;stroke-width:1.45764208;stroke-linecap:round;stroke-linejoin:miter;stroke-miterlimit:4;stroke-dasharray:none;stroke-dashoffset:0;stroke-opacity:1;paint-order:markers fill stroke" />
    <path
       style="opacity:1;fill:#000000;fill-opacity:1;stroke:#000000;stroke-width:0.30000001;stroke-linecap:square;stroke-miterlimit:4;stroke-dasharray:none;stroke-dashoffset:0;stroke-opacity:1;paint-order:markers fill stroke;enable-background:new"
       d="m 0.53728448,248.5363 c -0.1371,0 -0.2742201,0.58345 -0.2742201,1.75035 v 0.99231 c -0.001,0.52682 0.003,1.05364 -0.003,1.5804 -0.005,0.36972 -0.0148,0.74048 -0.0643,1.10594 -0.12668,0 -0.25332,0 -0.3799899,0 -0.002,0.009 -0.004,0.0142 -0.005,0.0224 -0.0102,0.009 -0.0131,0.0285 -0.0122,0.0578 -0.1298301,0.63527 -0.2421601,0.52624 0.0461,0.61201 0.0552,0.0184 0.1102299,0.0364 0.15623989534,0.0794 0.16225000466,0.11129 0.33312010466,0.13267 0.49061010466,-0.0102 0.0262,-0.0316 0.049,-0.0651 0.0701,-0.0994 0.014,0 0.0278,0 0.0418,0 0.36495,0.004 0.72990002,0.008 1.09486002,0.012 0.3079101,0.004 0.6158201,0.006 0.9237301,0.009 0.23736,0 0.47467,0.003 0.71204,0.003 -5.8e-4,0.34263 -5e-5,0.68503 0.0144,1.0273 0.01,0.21793 0.0281,0.43523 0.055,0.65105 0.012,0.093 0.0254,0.18562 0.0449,0.27672 0.005,0.0205 0.002,0.011 0.006,0.0294 0.46475,2.26574 0.99713,2.10747 0.53239,-0.15826 -0.005,-0.0252 -0.003,-0.0123 -0.008,-0.0392 -0.0142,-0.0682 -0.0242,-0.13747 -0.0331,-0.20695 -0.0245,-0.19437 -0.0404,-0.39018 -0.0494,-0.58645 -0.0141,-0.33104 -0.0148,-0.6622 -0.0139,-0.99352 0.0808,0 0.16153,0 0.24229,0 0.19548,0 0.39089,0 0.58637,0 0.14424,0 0.28854,0 0.43279,0 0.0773,6e-5 0.0392,0 0.11397,0 1.93906,-0.003 1.93868,-0.66201 -2.5e-4,-0.66008 -0.0748,-3e-5 -0.0368,0 -0.1141301,0 -0.14435,0 -0.28878,0 -0.4331299,0 -0.1953901,0 -0.3908101,0 -0.5862,0 -0.0806,-3e-5 -0.16107,0 -0.24162,0 v -0.96215 -0.89842 c 0,-2.33373 -0.54844,-2.33373 -0.54844,0 v 0.89842 0.96193 c -0.23623,0 -0.47246,0 -0.70868,-0.003 -0.30733,-0.003 -0.61474,-0.005 -0.9220801,-0.009 -0.31835,-0.004 -0.63663,-0.007 -0.95498002,-0.0104 0.0422,-0.36542 0.0566,-0.73436 0.0602,-1.10334 0.006,-0.52954 0.002,-1.05906 0.003,-1.58864 v -0.99213 c 0,-1.16686 -0.1371101,-1.75034 -0.2742101,-1.75034 z"
       id="path3684-3"
       inkscape:connector-curvature="0" />
    <path
       sodipodi:nodetypes="cccccccccscc"
       inkscape:connector-curvature="0"
       d="m -105.89037,267.5906 v -6.98693 -23.95829 -28.44495 c -0.008,-7.03344 0.0108,-14.06691 -0.008,-21.10033 -0.39601,-23.72938 1.24765,-21.89186 1.3424,-0.003 0.0195,7.03472 0.001,14.06947 0.008,21.10419 v 28.44497 23.95831 6.98693 c 0,4.85875 -1.34251,4.85875 -1.34251,0 z"
       id="path1803-7-6"
       style="opacity:1;fill:#ffa669;fill-opacity:1;stroke:#ff9243;stroke-width:0.41816375;stroke-linecap:square;stroke-miterlimit:4;stroke-dasharray:none;stroke-dashoffset:0;stroke-opacity:1;paint-order:markers fill stroke;enable-background:new" />
    <text
       id="text1728-9"
       y="279.80988"
       x="-2.8875022"
       style="font-style:normal;font-variant:normal;font-weight:bold;font-stretch:normal;font-size:7.7611px;line-height:1.25;font-family:Purisa;-inkscape-font-specification:'Purisa, Bold';font-variant-ligatures:normal;font-variant-caps:normal;font-variant-numeric:normal;font-variant-east-asian:normal;fill:#000000;fill-opacity:1;stroke:none;stroke-width:0.116556"
       xml:space="preserve"><tspan
         style="stroke-width:0.116556"
         sodipodi:role="line"
         id="tspan2576"
         x="-2.8875022"
         y="279.80988">X</tspan></text>
    <text
       xml:space="preserve"
       style="font-style:normal;font-variant:normal;font-weight:bold;font-stretch:normal;font-size:7.7611px;line-height:1.25;font-family:Purisa;-inkscape-font-specification:'Purisa, Bold';font-variant-ligatures:normal;font-variant-caps:normal;font-variant-numeric:normal;font-variant-east-asian:normal;fill:#000000;fill-opacity:1;stroke:none;stroke-width:0.116556"
       x="-117.1538"
       y="182.17834"
       id="text1728-9-6"><tspan
         style="stroke-width:0.116556"
         sodipodi:role="line"
         id="tspan2596"
         x="-117.1538"
         y="182.17834">Y</tspan></text>
  </g>
</svg>
