<svg width="150.59mm" height="150.59mm" version="1.1" viewBox="0 0 150.59 150.59" xmlns="http://www.w3.org/2000/svg">
 <g transform="translate(535.36 -285.28)">
  <g fill="#00887a">
   <path d="m-144.27 731.08h4.879 12.393 13.882c2.8498 0.13063 5.7678-0.25135 8.5973 0.24895 0.55768 0.0986 1.1015 0.26405 1.6522 0.39608 0.64117 0.31258 1.3489 0.51509 1.9235 0.93774 3.7094 2.7286 3.3142 6.3438 2.3457 10.254-1.3189 4.4919-2.8246 8.9272-4.2913 13.372-1.8559 5.5899-3.673 11.193-5.508 16.789-1.5657 4.7521-3.1371 9.5024-4.7453 14.24-1.1364 3.3309-2.3015 6.6519-3.5298 9.95-0.6349 1.6684-0.31658 0.8478-0.95411 2.4622-13.226 33.46-22.689 29.719-9.4638-3.7408 0.58216-1.4712 0.28768-0.71345 0.88185-2.274 1.1942-3.2046 2.3248-6.4322 3.4297-9.6685 1.597-4.7043 3.1569-9.4212 4.7118-14.14 1.837-5.6028 3.656-11.211 5.5139-16.807 1.3957-4.2302 2.8223-8.4523 4.0999-12.72 0.0879-0.31967 0.16885-0.64138 0.26374-0.95907 0.0333-0.1116 0.0195-0.38568 0.12066-0.32792 0.15618 0.0892 0.10261 0.34769 0.18964 0.50506 0.52343 0.94666 1.1704 1.7764 2.3105 1.937-0.50313-0.3221-1.6588-0.25236-2.1636-0.26482-1.7943-0.0443-3.5899 4e-3 -5.3844-0.0151h-13.882-12.393-4.879c-35.979 0-35.979-10.176 0-10.176z" opacity=".826" style="paint-order:markers fill stroke"/>
   <path d="m-137.72 777.21c1.6388-0.0885 3.28-0.1262 4.9205-0.16827 3.1499-0.0756 6.3002-0.12721 9.4506-0.1769 3.4764-0.0537 6.9529-0.0968 10.429-0.1369 2.0627-0.0236 4.1254-0.0444 6.1881-0.0649 35.977-0.35674 36.078 9.819 0.10091 10.176-2.0572 0.0204-4.1144 0.0412-6.1715 0.0647-3.4622 0.04-6.9244 0.0828-10.386 0.13629-3.117 0.0492-6.234 0.10012-9.3505 0.17484-1.5017 0.0384-3.0038 0.0734-4.5042 0.14906-35.899 2.3933-36.576-7.7605-0.67691-10.154z" opacity=".826" style="paint-order:markers fill stroke"/>
   <path d="m-24.268 774.39c1.0221-0.96787 2.0065-1.9744 2.9854-2.9856 1.5852-1.5851 2.9483-3.3546 4.2085-5.2026 1.4796-2.2144 2.6818-4.591 3.7831-7.0106 0.99367-2.1786 1.6118-4.4804 1.883-6.8536 0.19367-1.752-0.15226-3.4066-0.86716-4.9956-0.72537-1.4598-1.8972-2.5367-3.2203-3.4446-1.6489-1.0553-3.5103-1.6153-5.4131-1.9913-1.8995-0.33766-3.8019-0.19455-5.6678 0.23974-1.8398 0.46903-3.4628 1.4156-4.9708 2.54-1.4301 1.1096-2.5656 2.498-3.453 4.0653-0.63263 1.2222-0.82369 2.5423-0.73805 3.8997 0.13821 1.3714 0.88438 2.4852 1.6987 3.551 1.4263 1.7518 3.2414 3.1089 5.0812 4.3921 2.4818 1.6531 5.0876 3.1078 7.6743 4.5874 2.8844 1.6275 5.6895 3.3869 8.4276 5.2487 2.8854 1.9174 5.4311 4.2426 7.753 6.8004 2.2735 2.5643 4.0551 5.4855 5.6179 8.5204 1.5545 3.0853 2.5727 6.3808 3.3339 9.7387 0.7987 3.547 0.67006 7.1147-0.00601 10.659-0.74183 3.5162-2.5038 6.5266-4.7913 9.2428-2.4289 2.6764-5.5016 4.5075-8.7639 5.9737-3.5519 1.496-7.3564 1.9395-11.171 2.0589-3.7333 0.0532-7.4084-0.5833-11.012-1.5005-3.559-0.92017-6.7384-2.6839-9.6977-4.8161-2.7806-2.0465-4.8403-4.7097-6.3744-7.7709-1.3489-2.9928-1.4415-6.158-0.98252-9.3491 0.49088-2.7817 1.731-5.3061 3.1556-7.7137 1.1909-1.9536 2.6478-3.7198 4.1733-5.4174 0.85774-0.91411 0.43057-0.46794 1.2808-1.3392 25.155-25.724 32.43-18.609 7.2758 7.1148-0.66334 0.67651-0.33087 0.33102-0.99694 1.0369-1.0877 1.2025-2.1377 2.4459-2.9976 3.8253-0.77372 1.2747-1.5026 2.597-1.8366 4.0641-0.20868 1.1238-0.30544 2.2558 0.09266 3.3546 0.70014 1.6012 1.8227 2.9049 3.2062 3.9726 1.8972 1.4101 3.9392 2.5736 6.2432 3.1844 2.6771 0.70297 5.4119 1.1901 8.19 1.1818 2.4962-0.0555 5.0012-0.2708 7.3468-1.1983 1.8972-0.80909 3.7039-1.8225 5.1623-3.3082 1.2052-1.3301 2.108-2.823 2.5188-4.593 0.46472-2.1394 0.52109-4.2908 0.052901-6.4441-0.5522-2.5246-1.3123-4.9994-2.4622-7.3226-1.1436-2.2563-2.4493-4.43-4.1187-6.3433-1.7574-1.9721-3.7153-3.7324-5.9195-5.1999-2.5165-1.7159-5.1001-3.3291-7.7529-4.827-2.8589-1.6352-5.7369-3.247-8.4683-5.0916-2.7465-1.9372-5.4025-4.0364-7.4584-6.7273-1.9883-2.792-3.4993-5.8033-3.6484-9.3-0.02962-3.272 0.50925-6.4427 2.1526-9.3255 1.6498-2.7293 3.6461-5.1992 6.2261-7.1142 2.6821-1.9225 5.5673-3.5114 8.8131-4.2583 3.2678-0.67381 6.582-0.90826 9.8826-0.25498 3.2976 0.70647 6.4967 1.7741 9.3006 3.7054 2.8073 2.078 5.2234 4.5386 6.6559 7.7822 1.3088 3.2599 2.0026 6.6395 1.5705 10.168-0.44572 3.3924-1.28 6.704-2.7247 9.8211-1.3511 2.9487-2.8291 5.8428-4.6464 8.5366-1.5923 2.3126-3.3064 4.5346-5.2918 6.528-1.0719 1.1062-2.15 2.2072-3.2686 3.2667-26.025 24.842-33.052 17.481-7.0265-7.3611z" opacity=".826" style="paint-order:markers fill stroke"/>
   <path d="m164.15 739.22c-0.59296-0.0249-1.1653 0.1756-1.7272 0.3438-1.8638 0.58446-3.5209 1.6083-5.1104 2.7178-2.3779 1.7092-4.2445 3.9477-5.9373 6.3092-2.0944 3.0288-3.5362 6.4062-4.6948 9.8824-1.2032 3.6779-1.5161 7.5096-1.4869 11.353 0.0749 3.733 0.86037 7.3711 1.963 10.921 1.0443 3.2155 2.725 6.1322 4.6599 8.8825 1.8427 2.5946 4.2191 4.6808 6.7682 6.5498 2.7017 1.9243 5.7094 3.322 8.774 4.5547 3.1149 1.2706 6.3991 1.9057 9.7357 2.1882 3.5968 0.2345 7.1473-0.36359 10.629-1.2026 3.352-0.8433 6.5111-2.2377 9.5428-3.8731 2.4322-1.3321 4.5385-3.1064 6.4326-5.1136 1.6362-1.7859 2.8891-3.8508 3.9788-6.0009 0.95961-1.9647 1.5785-4.0586 1.9984-6.1972 0.37129-1.9764 0.32692-3.9805 0.15343-5.973-0.20159-2.0142-0.66691-3.9831-1.2398-5.92-0.55552-1.8018-1.3056-3.5334-2.1388-5.2219-0.87273-1.7418-1.9097-3.3922-2.9945-5.0079-1.2221-1.784-2.5894-3.4601-3.9801-5.1136-1.3218-1.5637-2.7126-3.0674-4.139-4.5358-0.60524-0.61301-1.2186-1.2179-1.8324-1.8223-25.633-25.247-18.493-32.497 7.1408-7.2502 0.66853 0.65853 1.3367 1.3174 1.995 1.9862 1.5935 1.6438 3.1495 3.3247 4.626 5.075 1.627 1.9373 3.2213 3.9052 4.6453 5.9988 1.3335 1.9959 2.6064 4.0353 3.6749 6.1879 1.081 2.2135 2.0569 4.4809 2.7686 6.8432 0.75583 2.5994 1.3666 5.2418 1.6157 7.9435 0.23402 2.948 0.25381 5.9117-0.32097 8.8278-0.62812 3.0442-1.5172 6.0285-2.9148 8.8178-1.5554 3.0148-3.3492 5.9023-5.6777 8.3916-2.6602 2.7619-5.5952 5.2238-8.9862 7.0551-3.815 2.0324-7.7845 3.7687-11.997 4.8038-4.5542 1.0687-9.1958 1.7941-13.891 1.437-4.3304-0.40574-8.5989-1.2295-12.642-2.8902-3.8544-1.5668-7.6258-3.3593-11.011-5.8081-3.4188-2.5475-6.5954-5.3956-9.061-8.9075-2.5178-3.6323-4.6998-7.4818-6.0418-11.718-1.3725-4.5109-2.3463-9.1316-2.4112-13.868-5e-3 -4.9614 0.44413-9.9053 2.0203-14.644 1.5102-4.4382 3.3818-8.7477 6.0958-12.6 2.3962-3.2838 5.0563-6.3702 8.4092-8.7226 2.5216-1.7193 5.1654-3.2671 8.1165-4.1292 1.4661-0.40172 2.9577-0.77227 4.491-0.72628 35.979 0 35.979 10.176 0 10.176z" opacity=".826" style="paint-order:markers fill stroke"/>
   <path d="m-161.7 857.84c-0.0224 1.3789-0.0945 2.7562-0.1626 4.1334-0.11556 2.2914-0.22978 4.583-0.34206 6.8746-0.0646 1.9738-0.28353 3.9476-0.16123 5.9226-0.17853 0.2631 0.45905 1.2782 0.17963 0.58105-0.33366-0.43344 1.0947 0.0654 1.2228 0.0899 2.0797 0.30647 4.1825 0.39955 6.2724 0.61878 3.822 0.3769 7.4183 1.6582 10.893 3.2267 4.2819 2.0459 7.9876 5.0074 11.482 8.1745 3.7356 3.4287 6.6706 7.5502 9.3386 11.829 2.5288 4.1059 4.5091 8.4904 6.0091 13.065 1.125 3.8936 1.412 7.9824 0.43903 11.944-0.19389 0.78931-0.47877 1.5534-0.71815 2.3301-2.0412 5.3091-5.6065 8.5021-10.209 11.591-5.0372 3.125-10.715 4.6648-16.5 5.6496-6.0944 0.9029-12.246 0.5496-18.336-0.148-5.5219-0.69178-10.925-2.0303-16.247-3.6228-4.1438-1.2724-8.1762-2.8707-12.124-4.6536-2.8323-1.2916-5.5206-2.8598-8.1204-4.5649-1.7765-1.1718-3.4392-2.4947-4.9458-3.9964-0.97516-0.97589-1.7269-2.1186-2.3573-3.3372-16.002-32.224-6.8874-36.75 9.1144-4.526 0.0925 0.27297 0.28326 0.49535 0.47777 0.70691 0.98045 1.0229 2.1379 1.8485 3.3013 2.6496 2.1522 1.4192 4.3796 2.7218 6.726 3.7972 3.5321 1.6028 7.1444 3.0306 10.852 4.1773 4.7479 1.4283 9.5678 2.6314 14.494 3.2613 5.1419 0.60269 10.339 0.94125 15.491 0.21923 4.3845-0.71271 8.7097-1.808 12.565-4.1028 2.5062-1.6173 4.9198-3.4128 6.1378-6.2377 0.93932-2.6398 1.1111-5.2844 0.27881-7.9992-1.2125-3.8022-2.8965-7.419-4.972-10.831-2.1597-3.4902-4.5154-6.8701-7.5448-9.6744-2.7019-2.4718-5.5534-4.8116-8.8575-6.4427-2.4648-1.1428-5.016-2.0882-7.7404-2.3645-2.4273-0.26072-4.877-0.3334-7.2821-0.77748-2.4674-0.53673-4.8394-1.3342-6.6536-3.1875-1.6876-2.0079-2.7086-4.265-2.8289-6.9207-0.1061-2.318 0.0346-4.629 0.15994-6.9442 0.11237-2.2932 0.22665-4.5864 0.3423-6.8795 0.0599-1.2098 0.12263-2.4195 0.15017-3.6305 0-35.979 10.176-35.979 10.176 0z" opacity=".826" style="paint-order:markers fill stroke"/>
   <path d="m-170.96 836.27c1.6775 0.17412 3.357 0.32337 5.0382 0.45677 3.8341 0.29165 7.6738 0.49843 11.514 0.69364 4.7127 0.23309 9.4274 0.42089 14.142 0.60094 2.1641 0.082 4.3284 0.15735 6.4928 0.23257 35.957 1.2494 35.603 11.42-0.35339 10.17-2.176-0.0756-4.352-0.15143-6.5277-0.23384-4.7578-0.18169-9.5154-0.37132-14.271-0.60667-3.9365-0.20021-7.8727-0.41272-11.803-0.71247-1.6541-0.1316-3.3075-0.27061-4.9572-0.45066-35.887-2.5634-35.162-12.714 0.72503-10.15z" opacity=".826" style="paint-order:markers fill stroke"/>
   <path d="m2.4356 854.93c-0.7032-0.13253-1.42-0.22035-2.1348-0.28443-2.0928-0.12565-4.1668 0.2245-6.2114 0.62746-3.2998 0.71189-6.3001 2.229-9.1694 3.9563-3.5952 2.23-6.5736 5.2195-9.342 8.3816-2.9075 3.4067-5.2654 7.2157-7.4093 11.134-2.0158 3.7555-3.5339 7.7404-4.8938 11.771-1.2189 3.6538-2.1249 7.3954-2.7592 11.192-0.52815 3.3042-0.54119 6.6433-0.30256 9.971 0.22677 2.9727 0.94924 5.8492 2.0125 8.6241 1.0311 2.5836 2.5816 4.8814 4.3617 6.9997 1.7796 2.0397 3.9945 3.5623 6.3685 4.8207 2.6715 1.3473 5.6006 1.8361 8.55 2.0819 3.2504 0.18918 6.4788-0.23079 9.6445-0.93379 2.8846-0.65926 5.5397-1.9373 8.0924-3.3964 2.2048-1.2554 4.1583-2.8495 5.9069-4.6765 1.5182-1.6296 2.7051-3.5101 3.7315-5.4762 0.87883-1.6535 1.34-3.4301 1.4797-5.2859 0.07309-1.7973-0.47124-3.4909-1.146-5.1297-0.91461-2.1155-2.2258-4.006-3.7189-5.7482-1.6397-1.8342-3.6451-3.2506-5.7497-4.4953-2.4822-1.4072-5.1921-2.3067-7.9212-3.0934-2.6079-0.76673-5.3001-1.0832-8.007-1.1805-2.2102-0.054-4.4135 0.14616-6.5811 0.56936-1.7081 0.35184-3.3337 0.98247-4.9164 1.7006-1.2688 0.58764-2.4708 1.3064-3.6214 2.0982-29.726 20.269-35.459 11.861-5.733-8.4077 1.6499-1.1184 3.3633-2.1452 5.1805-2.9714 2.3159-1.0349 4.6983-1.9271 7.1956-2.4181 2.9279-0.54353 5.8954-0.83648 8.8775-0.73935 3.5299 0.14885 7.0417 0.57147 10.442 1.5759 3.5647 1.0404 7.0895 2.2616 10.314 4.1367 3.053 1.8455 5.9468 3.9497 8.2979 6.6629 2.1719 2.6012 4.0953 5.3996 5.3963 8.5482 1.2293 3.1542 2.0848 6.4193 1.8226 9.8399-0.32752 3.1792-1.0894 6.2576-2.6149 9.0931-1.4968 2.8077-3.22 5.4913-5.4237 7.8059-2.4443 2.4975-5.1344 4.7186-8.1894 6.4422-3.4535 1.9486-7.0572 3.6226-10.95 4.4892-4.179 0.89561-8.4338 1.4296-12.716 1.126-4.3258-0.40669-8.5975-1.2283-12.485-3.2679-3.496-1.9179-6.758-4.2079-9.3573-7.2732-2.475-3.0104-4.6392-6.2576-6.0538-9.913-1.3785-3.711-2.3595-7.5412-2.6403-11.505-0.27755-4.1289-0.25035-8.2718 0.42031-12.368 0.7368-4.3256 1.7551-8.5948 3.1537-12.758 1.5571-4.5933 3.3031-9.1307 5.6128-13.407 2.5125-4.5654 5.2802-8.9988 8.6901-12.959 3.4839-3.9436 7.2521-7.6428 11.773-10.401 3.896-2.3035 7.9761-4.293 12.445-5.2053 3.003-0.57295 6.0494-1.0198 9.1152-0.76639 1.4353 0.14295 2.878 0.31178 4.2658 0.72218 34.267 10.965 31.165 20.658-3.1015 9.6921z" opacity=".826" style="paint-order:markers fill stroke"/>
   <path d="m83.892 848.26c0.06106 2.3711-0.13737 4.7304-0.37886 7.0863-0.68729 5.6221-1.8658 11.169-3.0572 16.701-1.2463 5.7317-2.6582 11.426-4.1243 17.104-0.96409 3.7885-2.1656 7.5204-2.8815 11.368 0.04695 0.45823-0.34505 1.3887-0.01402 1.8559 0.0282 0.0398 0.04498-0.34655-0.14255-0.78335-0.04163-0.076-0.11894-0.14153-0.12489-0.22796-0.0026-0.0374 0.0694-0.039 0.10675-0.0356 0.39146 0.0356 0.7709 0.15587 1.1597 0.21392 0.9485 0.14166 1.132 0.13869 2.1265 0.21979 3.0376 0.19137 6.0806 9e-3 9.1125-0.1886 3.5113-0.2396 7.0133-0.59415 10.509-1.0018 2.9746-0.34512 5.9364-0.78459 8.8846-1.3078 2.0764-0.36253 4.1313-0.82971 6.1705-1.3604 34.823-9.0448 37.381 0.8047 2.5582 9.8495-2.2983 0.59587-4.6138 1.1227-6.9534 1.5312-3.1468 0.55668-6.3076 1.0279-9.4824 1.3955-3.6678 0.42675-7.3423 0.79881-11.027 1.0488-3.5465 0.22934-7.1064 0.42399-10.658 0.17131-3.511-0.32107-7.0202-0.83582-9.748-3.2866-0.42841-0.51876-0.91913-0.99179-1.2852-1.5562-1.6368-2.5235-1.6433-5.5719-1.1904-8.4322 0.78019-4.0615 1.9707-8.0215 3.0267-12.017 1.4321-5.5457 2.8115-11.106 4.0294-16.703 1.1147-5.1728 2.2229-10.358 2.8837-15.612 0.21263-2.0056 0.38235-4.0134 0.32418-6.0327 0-35.979 10.176-35.979 10.176 0z" opacity=".826" style="paint-order:markers fill stroke"/>
   <path d="m112.39 877.45v4.7187 10.829c8e-3 4.1364 0.0582 8.2724 0.11556 12.408 0.0342 2.3963 0.0757 4.7926 0.11861 7.1888 0.64339 35.973-9.5313 36.155-10.175 0.18198-0.0431-2.4098-0.0849-4.8196-0.11925-7.2296-0.058-4.183-0.10885-8.3661-0.11654-12.55v-10.829-4.7187c0-35.979 10.176-35.979 10.176 0z" opacity=".826" style="paint-order:markers fill stroke"/>
   <path d="m170.77 875.9c-0.16697-1.0511-0.26601-2.1116-0.36472-3.1708-0.22493-1.9772-0.26326-3.9546-0.11727-5.9373 0.29597-3.2401 1.783-5.984 3.756-8.4947 2.3228-2.6723 5.3534-4.4811 8.4606-6.0885 3.2613-1.6729 6.7383-2.7543 10.327-3.4334 3.8538-0.65741 7.6506-0.13446 11.349 0.99748 3.614 1.2404 6.5139 3.6054 9.0938 6.3467 2.6468 2.9034 4.1785 6.4275 5.2253 10.162 1.003 4.0082 0.71617 8.0668-0.0711 12.073-0.80542 3.6198-2.4026 6.9559-4.2506 10.144-1.4371 2.417-3.1699 4.6302-5.0042 6.7537-0.2523-0.0462-2.277 3.0095-1.3196 1.4189 0.51536-1.8487 0.9375-2.398-0.29826-4.594-0.43659-0.77587-1.2594-1.2726-1.9901-1.7812-0.23855-0.16603-1.6148-0.37936-1.2358-0.42177 1.2825-0.0996 2.5602-0.2507 3.8405-0.37476 2.1928-0.21907 4.3944-0.12824 6.5842 0.0655 2.1113 0.20439 4.1964 0.59751 6.261 1.0748 2.2864 0.45026 4.3472 1.4088 6.2725 2.6951 2.0154 1.4706 3.5635 3.4224 4.982 5.4482 1.275 1.8349 2.2723 3.8317 3.1574 5.877 0.93472 2.1519 1.5175 4.4152 1.882 6.7258 0.48355 3.2932-0.23091 6.135-1.6228 9.1018-1.8548 3.5101-4.86 5.9766-8.1006 8.1402-3.9928 2.4983-8.4364 4.0783-12.904 5.4827-4.9476 1.4781-10.005 2.5334-15.099 3.3545-4.7005 0.76547-9.4506 0.8772-14.193 0.58478-3.6395-0.26048-7.2042-1.0241-10.695-2.0568-2.8187-0.81965-5.3642-2.2132-7.7043-3.9588-1.5141-1.1746-2.793-2.5942-3.975-4.0922-22.143-28.357-14.123-34.62 8.0206-6.2631 0.62701 0.81841 1.3044 1.5972 2.1077 2.2502 1.3346 1.0494 2.8232 1.8274 4.4574 2.3115 2.7513 0.8278 5.5636 1.4341 8.4347 1.6534 3.9878 0.26339 7.9812 0.16121 11.935-0.47681 4.6116-0.73594 9.1888-1.6932 13.67-3.0181 3.5665-1.1116 7.1302-2.3275 10.346-4.2686 1.745-1.127 3.4675-2.3358 4.5726-4.1428 0.55835-0.98425 0.85908-1.947 0.68567-3.0971-0.19304-1.452-0.59949-2.8594-1.1662-4.2105-0.606-1.422-1.2854-2.8126-2.1649-4.0891-0.71223-1.0363-1.4571-2.0669-2.4187-2.8896-0.81759-0.63945-1.7752-0.93943-2.7872-1.1505-1.6066-0.37761-3.2305-0.68424-4.8738-0.85143-1.5573-0.14658-3.124-0.22243-4.6849-0.071-1.4816 0.14277-2.96 0.32721-4.4464 0.41513-3.8544 0.0919-6.2091-1.4152-6.5637-5.7102-0.0533-0.64524 0.30488-1.2585 0.45731-1.8877 0.75901-1.4386 1.7606-2.6735 2.8812-3.8515 1.4269-1.6463 2.7866-3.3526 3.9109-5.2247 1.3045-2.2152 2.4607-4.5255 3.0671-7.0404 0.52043-2.439 0.77398-4.9162 0.22323-7.3806-0.55558-2.1629-1.3688-4.2131-2.8685-5.9117-1.3391-1.4833-2.8187-2.8305-4.7115-3.5655-2.0807-0.70784-4.2396-1.0128-6.4321-0.68657-2.6187 0.45659-5.135 1.2784-7.5142 2.4766-1.862 0.94639-3.7303 1.9535-5.2126 3.455-0.75446 0.84899-1.3624 1.7622-1.5108 2.9169-0.14306 1.3858-0.0222 2.771 0.1084 4.1543 0.0755 0.8146 0.14906 1.6303 0.26995 2.4396 5.9148 35.489-4.123 37.162-10.038 1.673z" opacity=".826" style="paint-order:markers fill stroke"/>
   <path d="m-67.69 640.75c2.0988-1.9599 4.3877-3.7052 6.6437-5.4778 3.6003-2.8222 7.2534-5.576 10.878-8.3672 3.4303-2.6434 6.8374-5.3168 10.254-7.9775 2.7258-2.1524 5.4248-4.33 8.4747-6.0076 2.7753-1.2966 5.8403-1.5158 8.3559 0.59571 1.5411 1.2935 1.6857 2.3592 2.2933 4.0879 0.66931 3.6013 0.30966 7.2883 0.04416 10.913-0.33098 4.1809-0.77152 8.352-1.2409 12.519-0.43262 3.863-0.94943 7.7158-1.4832 11.566-0.40957 2.9281-0.84412 5.8527-1.2802 8.777-0.3068 2.0345-0.60136 4.0708-0.9183 6.1038-0.24433 1.519-0.47693 3.0398-0.69334 4.5631-0.15074 1.0647-0.27568 2.1329-0.41698 3.1988-4.74 35.665-14.828 34.324-10.088-1.3407 0.14616-1.0964 0.27287-2.1953 0.42957-3.2903 0.22308-1.5685 0.46185-3.1347 0.71357-4.6989 0.31359-2.0106 0.60437-4.0246 0.90806-6.0366 0.43092-2.8899 0.86046-5.7801 1.2653-8.6739 0.52196-3.7641 1.0277-7.5309 1.4508-11.308 0.45489-4.0365 0.88226-8.0765 1.2043-12.126 0.18381-2.4906 0.37239-4.9861 0.28824-7.4852 0.32984 0.41116 0.69288 0.89053 1.1376 1.1535 1.0692 0.63227 1.6428 0.74242 2.7735 0.56694 0.1327-0.0206 0.2952-0.0626 0.36042-0.17999 0.04877-0.0878-0.19656 0.0413-0.29484 0.062-2.586 1.3147-4.6979 3.377-7.0318 5.0686-3.4312 2.6719-6.8526 5.3565-10.297 8.011-3.5984 2.771-7.2249 5.5055-10.8 8.3068-2.0025 1.5731-4.0387 3.1176-5.9124 4.8448-26.053 24.813-33.072 17.444-7.0181-7.369z" opacity=".826" style="paint-order:markers fill stroke"/>
   <path d="m15.372 647.01v-4.736c-0.06343-2.6843 0.07931-5.3598 0.35593-8.0286 0.35004-3.4023 1.2557-6.6826 2.508-9.8534 1.3458-3.308 3.458-6.1143 6.0041-8.5798 3.1779-2.7689 6.236-3.8931 10.372-4.3752 3.6149-0.13777 7.1347 0.77409 10.209 2.6946 0.66079 0.41286 1.2703 0.90263 1.9054 1.3539 3.9381 3.1345 6.5762 7.38 8.8385 11.798 1.9839 4.2531 3.2396 8.8453 3.3865 13.553 0.03133 1.004-0.03273 2.0086-0.0491 3.0129-0.36426 6.4562-2.9173 12.301-5.9766 17.887-3.4315 5.9875-8.0579 11.097-12.945 15.913-4.7038 4.5181-9.8687 8.5077-15.139 12.335-4.1017 2.9454-8.3658 5.6518-12.688 8.2587-2.393 1.4489-4.8388 2.8067-7.2723 4.1853-1.9418 1.1599 0.2973-0.0921 0.42382-0.77909 0.31105-1.689 0.62182-3.5264 0.067135-5.1517-0.35777-1.0483-1.7012-1.4192-2.5518-2.1288-0.20263-0.0573-0.41331-0.0913-0.60788-0.17185-0.033549-0.014 0.67152-0.0193 0.69841-0.0201 0.9676-0.0238 1.9344-0.0707 2.9013-0.11404 3.2558-0.15875 6.5122-0.30461 9.7692-0.43812 4.1838-0.17185 8.3693-0.30031 12.554-0.44829 3.8906-0.1284 7.7783-0.32713 11.662-0.59407 3.1192-0.21071 6.2287-0.53321 9.3323-0.90572 1.6306-0.21748 0.83424-0.10342 2.3895-0.34015 35.573-5.3881 37.097 4.6734 1.524 10.062-1.7808 0.26858-0.88017 0.14075-2.7019 0.3825-3.2748 0.39236-6.5559 0.732-9.8472 0.95425-3.9958 0.27377-7.9958 0.47977-11.999 0.61159-4.1657 0.14726-8.3321 0.27519-12.497 0.44611-3.244 0.13293-6.4874 0.27842-9.7303 0.43643-2.1874 0.0979-4.4136 0.32343-6.5681-0.17418-1.0101-0.76099-2.5558-1.1107-3.0304-2.283-1.7209-4.2503 0.12228-6.4912 3.1964-8.1978 2.3535-1.3329 4.719-2.6453 7.0336-4.0458 4.0756-2.4563 8.0968-5.0055 11.965-7.7797 4.8627-3.5268 9.6337-7.1972 13.981-11.355 4.1957-4.1154 8.1956-8.461 11.169-13.57 2.2971-4.1322 4.3341-8.4323 4.7148-13.22 0.14644-4.0629-0.44026-8.0226-2.2396-11.716-1.5062-3.0064-3.2078-5.9619-5.7796-8.195-1.5184-1.1849-3.1256-2.1129-5.112-2.1272-1.6276 0.0762-3.0935 0.56939-4.3585 1.6342-1.5382 1.3951-2.7399 3.0635-3.5582 4.981-0.93874 2.2853-1.564 4.6692-1.8323 7.1304-0.2485 2.3143-0.35633 4.6347-0.29998 6.963v4.736c0 35.979-10.176 35.979-10.176 0z" opacity=".826" style="paint-order:markers fill stroke"/>
   <path d="m76.735 741.81c-0.65185-0.40079-1.329-0.75245-2.0181-1.0838-1.2462-0.58364-2.5468-1.0384-3.8493-1.4773-1.4033-0.51871-2.8395-0.79248-4.3314-0.79152-1.8768 0.0524-3.6725 0.58187-5.41 1.2531-2.0956 0.86637-3.8946 2.2385-5.5733 3.7357-1.8459 1.6947-3.2961 3.735-4.5988 5.8599-1.2951 2.1891-2.2972 4.526-3.061 6.9478-0.5563 1.7349-0.66078 3.49-0.31459 5.2681 0.32742 1.4666 1.204 2.573 2.2677 3.5821 1.8233 1.581 4.0668 2.4939 6.2938 3.3438 3.0874 1.1386 6.3113 1.8088 9.549 2.3454 2.9823 0.47755 5.9944 0.65127 9.0104 0.57372 2.3001-0.0624 4.5304-0.53575 6.6707-1.3592 1.6886-0.6845 3.1774-1.7193 4.5512-2.8996 1.1362-1.0076 2.0662-2.2072 2.899-3.4697 0.67598-1.0138 1.1389-2.1305 1.4962-3.2889 0.3052-1.0105 0.44662-2.055 0.53329-3.1036 0.05416-0.68165 0.05766-1.366-0.02952-2.0446-0.0082-0.0432-0.01228-0.0873-0.02455-0.12957-0.03354-0.11525 0.02799 0.24141 0.07312 0.35267 0.14141 0.34856 0.09241 1.0234 0.46855 1.0266 8.8632 0.0739 8.1693 1.9117 9.1777-1.2884 0.0377 0.72816 0.10803 1.6097 0.18886 2.3827 0.21952 1.9627 0.53389 3.9132 0.82975 5.8655 0.41351 2.7241 0.82189 5.4488 1.1948 8.1788 0.43365 3.2396 0.77359 6.4906 1.097 9.7428 0.28895 2.9773 0.55614 5.9569 0.77389 8.9403 0.35115 3.6831-0.4032 6.9146-1.9204 10.246-1.8634 3.6076-4.9107 6.1967-8.1819 8.4774-3.2355 2.1526-6.7932 3.7167-10.415 5.0858-3.5944 1.3137-7.3311 2.1458-11.09 2.8202-3.2806 0.57743-6.6021 0.81188-9.9275 0.89911-2.5834 0.0604-5.1596-0.12541-7.7177-0.47093-35.646-4.88-34.266-14.962 1.3803-10.082 2.0142 0.28072 4.0439 0.42219 6.079 0.38015 2.8126-0.0687 5.6219-0.25985 8.3974-0.74395 3.1483-0.55878 6.2807-1.2406 9.2953-2.3269 2.8516-1.0664 5.6596-2.2734 8.2212-3.9388 1.8142-1.2307 3.617-2.5612 4.7692-4.4711 0.85492-1.6231 1.1559-3.2963 0.96054-5.136-0.21028-2.8942-0.4715-5.7844-0.75085-8.6727-0.31094-3.1286-0.6371-6.2563-1.0534-9.373-0.36575-2.6806-0.76777-5.3557-1.1734-8.0305-0.32009-2.1122-0.65853-4.2226-0.89099-6.3468-0.17503-1.7171-0.33487-3.454-0.09137-5.1735 0.86541-3.8976 0.17222-2.2548 9.4409-2.4148 0.55671-0.01 0.91597 2.5871 1.0033 3.0759 0.14174 1.3482 0.17561 2.7039 0.0532 4.056-0.16229 1.7959-0.43413 3.5823-0.97533 5.308-0.66848 2.0603-1.5198 4.0516-2.7339 5.8568-1.3779 2.0417-2.9167 3.974-4.7924 5.5869-2.29 1.9128-4.7665 3.5818-7.5678 4.6615-3.2179 1.1727-6.5454 1.9244-9.9858 1.995-3.6553 0.0756-7.3071-0.11861-10.92-0.71017-3.9149-0.65847-7.8091-1.4912-11.536-2.8888-3.5634-1.387-7.0605-3.0022-9.8618-5.6785-2.49-2.5865-4.4236-5.4988-5.0783-9.098-0.5077-3.3826-0.41193-6.742 0.66809-10.022 1.0402-3.2006 2.3523-6.3044 4.0966-9.1919 1.8474-2.9654 3.9144-5.797 6.5281-8.1434 2.6239-2.2896 5.4493-4.3451 8.7184-5.6237 2.9617-1.0933 6.0196-1.9114 9.2035-1.9011 2.5225 0.079 4.9952 0.44681 7.3749 1.3248 1.7014 0.57626 3.3967 1.1821 5.0202 1.956 0.92522 0.44889 1.8378 0.92101 2.7169 1.4558 31.078 18.129 25.95 26.919-5.1275 8.79z" opacity=".826" style="paint-order:markers fill stroke"/>
   <path d="m367.81 747.15c-0.33929-5.0562-0.51334-10.152-0.69881-15.238-0.40535-8.0182-0.50868-15.879 0.31157-23.786 2.1009-12.286 7.4372-18.623 12.961-23.818 6.4632-5.6008 13.304-7.7367 20.288-7.426 7.1666 0.8268 12.714 5.9504 18.025 15.443 4.7706 9.7736 6.9273 22.416 8.3838 35.497 1.531 15.604-0.2928 29.046-3.5748 43.089-3.8457 14.673-9.6053 26.531-15.506 37.854-6.22 11.697-13.134 21.689-20.255 30.995-5.9028 7.4765-12.212 13.487-18.622 18.94-3.7247 3.195-7.5733 5.6903-11.488 7.7254-2.8631 1.4871-2.1648 2.3179-1.2789-13.295 1e-3 -0.0247 2.9167-0.5774 4.4143-0.87087 4.7482-0.93775 9.5086-1.5798 14.27-2.163 5.215-0.62929 10.436-1.0271 15.658-1.339 4.0916-0.23557 8.1846-0.33935 12.278-0.37312 2.7716-0.0247 5.543 0.0412 8.3143 0.11943 1.8403 0.0577 3.6804 0.12849 5.5205 0.20509 0.82212 0.033 0.42093 0.0247 1.2036 0.0494 24.448 1.0467 24.301 15.013-0.14639 13.967-0.78383-0.033-0.38334-0.0247-1.2009-0.0494-1.8251-0.0741-3.6503-0.14826-5.4756-0.20509-2.7291-0.0824-5.4585-0.13509-8.1879-0.12026-4.0341 0.0329-8.0682 0.13508-12.101 0.36653-5.1504 0.30723-10.3 0.6993-15.444 1.3196-4.6782 0.57245-9.3553 1.2021-14.02 2.1233-1.2712 0.24957-4.4498 1.0323-4.4895 0.88462-3.5418-13.159-4.2453-12.465-1.0365-14.153 3.5878-1.8612 7.1151-4.1396 10.528-7.072 6.039-5.1274 11.984-10.774 17.549-17.795 6.7649-8.8287 13.336-18.304 19.249-29.398 5.2931-10.132 10.507-20.678 14.026-33.741 2.5916-10.806 4.2729-21.937 3.0639-34.042-1.1076-10.235-2.6438-20.317-6.2682-28.158-3.8224-7.1806-8.2999-11.256-13.572-11.844-5.9219-0.38136-11.719 1.5035-17.213 6.1512-3.5086 3.2154-7.3366 6.8249-9.1047 14.187-0.80229 6.4917-0.38619 13.094-0.16231 19.701 0.16965 4.6613 0.33154 9.329 0.62336 13.967 4.0201 48.719-2.8022 51.015-6.8223 2.2968z" opacity=".826" style="paint-order:markers fill stroke"/>
   <path d="m451.05 749.42c-1.0416-3.9809-1.7013-8.2869-2.2855-12.612-1.076-7.4641-1.2922-15.074-0.9918-22.779 0.44046-8.9338 2.2676-16.423 5.292-22.864 3.5546-6.3932 8.0795-8.7424 12.647-10.358 4.9793-1.4963 9.8361 0.22651 14.542 3.4855 4.3029 3.24 7.7352 9.0055 10.642 16.031 2.3949 6.2208 3.7206 13.497 4.5336 21.114 0.58535 6.2868 0.52162 12.68 0.2663 19.023-0.19534 4.3438-0.59424 8.633-1.0828 12.877-0.1517 0.78083-0.18637 1.6325-0.3185 2.4253-0.0415 0.24875 0.11141-0.50409 0.0938-0.76437-0.082-1.2138-0.0244-2.6099-0.38781-3.5908-1.1411-3.0804-1.4877-3.0005-2.6729-3.3434 2.3819-1.2115 4.7834-2.2515 7.1915-3.2245 3.9377-1.5501 7.911-2.6847 11.891-3.6802 3.5614-1.0363 7.1338-1.4344 10.718-0.7899 4.609 1.1544 6.843 5.4641 8.6816 13.842 1.6223 10.575 1.7785 21.763 1.7496 32.748-0.10557 12.863-1.5194 25.358-3.6469 37.417-2.1962 11.555-5.6759 21.585-9.8573 30.519-3.8749 8.0187-8.7135 13.12-13.842 17.023-4.1191 2.9557-8.435 4.1439-12.781 4.454-3.3786 0.10872-6.7387-0.68694-10.078-1.6288-3.0155-0.63505-5.8783-2.3601-8.6219-4.9086-2.6427-2.5545-4.6418-6.4894-6.2063-11.416-1.0292-3.5664-1.5304-7.5157-1.835-11.556-3.4869-48.886 3.3589-50.878 6.8458-1.9919 0.1362 2.1314 0.36945 4.2314 0.85914 6.1589 0.78681 2.7095 1.8479 4.7332 3.2572 6.1413 2.111 2.0233 4.3276 3.2574 6.6598 3.7368 2.946 0.83471 5.9092 1.5636 8.8899 1.5016 3.5981-0.22322 7.1728-1.1736 10.589-3.5771 4.1566-3.1072 8.0988-7.1156 11.254-13.569 3.5475-7.4682 6.4752-15.914 8.3579-25.609 1.8927-10.553 3.1254-21.517 3.2402-32.789 0.0368-9.1436-0.0787-18.432-1.2276-27.329-0.56668-3.3225-1.0275-4.8858-2.9328-5.2577-3.0836-0.62517-6.1584-0.098-9.223 0.74542-3.8106 0.95125-7.6148 2.0352-11.385 3.5152-2.5477 1.0271-5.0767 2.2116-7.6103 3.3666-4.0791 0.2817-5.4716-4.6994-4.3868-11.742 0.41501-3.5766 0.75471-7.1921 0.9253-10.853 0.20838-4.9947 0.28913-10.032-0.14151-14.995-0.54608-5.4206-1.4427-10.628-3.1027-15.106-2.0507-5.1257-4.5018-9.3154-7.5819-11.725-3.5787-2.5749-7.2823-3.9622-11.091-2.9099-3.1246 1.0644-6.3271 2.3539-8.8874 6.3832-2.0046 3.8516-3.0065 8.6899-3.3329 14.243-0.27527 6.0848-0.0746 12.062 0.77608 17.96 0.4341 3.2739 0.91546 6.5403 1.681 9.5717 11.71 43.36 5.6376 50.049-6.0719 6.6895z" opacity=".826" style="paint-order:markers fill stroke"/>
   <path d="m563.8 670.02c-1.7291 0-3.4582 12.348-3.4582 37.044v21.001c-0.0163 11.149 0.0366 22.299-0.0326 33.447-0.0677 7.8245-0.18678 15.671-0.81132 23.406-1.5975-0.0165-3.1947-0.0165-4.7921 0.0247-0.0204 0.18532-0.0407 0.29734-0.0612 0.4769-0.12891 0.18203-0.16475 0.60293-0.15374 1.2215-1.6374 13.444-3.054 11.137 0.5816 12.952 0.69579 0.39289 1.3901 0.76931 1.9704 1.6814 2.0461 2.3552 4.201 2.8078 6.1872-0.2125 0.32991-0.66882 0.61769-1.3764 0.88508-2.1026 0.17535 3e-3 0.35112 6e-3 0.52684 8e-3 4.6025 0.0824 9.2049 0.16885 13.807 0.25121 3.8831 0.0741 7.7663 0.1252 11.649 0.17462 2.9933 0.033 5.9861 0.0494 8.9795 0.0494-0.0122 7.2511-5.7e-4 14.497 0.18106 21.742 0.12471 4.612 0.35477 9.2103 0.69329 13.778 0.15129 1.967 0.32013 3.9288 0.56688 5.8569 0.0551 0.43572 0.0285 0.23145 0.0779 0.62599 5.861 47.951 12.575 44.601 6.714-3.3498-0.0657-0.53539-0.0326-0.25946-0.10313-0.82993-0.17862-1.4436-0.30504-2.9094-0.41722-4.3799-0.30789-4.1138-0.50885-8.2575-0.62381-12.412-0.17779-7.0056-0.18637-14.014-0.17495-21.027 1.0186-3e-3 2.0371 0 3.0557 0 2.4652 0 4.9295-0.0247 7.3947-0.0247 1.8191-0.0247 3.6389-0.0247 5.4581-0.0247 0.97447 8.2e-4 0.4951 2e-3 1.4372 0 24.454-0.0412 24.449-14.011-4e-3 -13.97-0.94347-1e-3 -0.46342-2e-3 -1.4393 0-1.8204 0-3.6418 0.0247-5.4623 0.0247-2.464 0-4.9286 0.0247-7.3926 0.0247-1.0159-1.7e-4 -2.0313 0-3.0472 0v-39.376c0-49.391-6.9163-49.391-6.9163 0v39.372c-2.9791-8e-3 -5.9582-0.0247-8.9373-0.0494-3.8759-0.0494-7.7526-0.10048-11.628-0.17461-4.0148-0.0741-8.0287-0.14497-12.044-0.21745 0.53262-7.7334 0.71364-15.542 0.75867-23.351 0.0693-11.207 0.0204-22.414 0.0326-33.621v-20.997c0-24.695-1.7291-37.044-3.4582-37.044z" opacity=".826" style="paint-order:markers fill stroke"/>
   <path d="m647.45 662.71c-12.535-0.12355-9.4922 10.074 10.176 15.749 2.3868 0.61446 4.7893 0.93536 7.1903 1.2344-0.57577 6.1452-0.96094 14.855-0.96094 26.36v44.454c-0.0204 7.4092-0.16719 14.829 0.75444 22.048 2.1444 10.346 6.2425 8.7629 10.493 5.3076 4.259-4.0827 8.4415-8.4694 12.724-12.454 4.3755-4.0997 8.9271-7.3002 13.567-9.9176 3.8716-2.12 7.8229-3.3927 11.835-3.2733 2.635 0.2158 5.0058 1.8347 6.8152 5.7505 1.8247 4.7582 2.2516 10.782 2.6278 16.579 0.42721 8.4806 0.2255 17.009-0.0285 25.496-0.13258 8.2811-0.92818 16.333-2.3602 24.074-1.3425 7.2184-3.6922 12.864-6.5686 17.771-3.7843 5.8128-8.2351 9.3112-12.697 12.374-4.5829 2.9944-9.3395 4.5416-14.115 5.5759-3.2873 0.66471-6.5916 0.75284-9.8877 0.37889-0.11453 0.63505-2.4091-1.0214-1.9514-1.2473 0.17249 0.033 0.13783 0.13508 0.16027-0.35335-2.8811-49.047-9.749-47.404-6.8679 1.643 0.18841 2.5458 0.42652 4.9319 1.178 7.0996 1.8515 4.4682 4.2087 6.554 7.0997 6.8061 3.6707 0.40195 7.3528 0.31465 11.013-0.43819 5.2824-1.1583 10.54-2.9017 15.605-6.2441 5.2896-3.6606 10.532-7.934 14.964-14.991 3.7332-6.545 6.8153-14.06 8.558-23.547 1.6319-9.0471 2.6202-18.405 2.7733-28.063 0.27773-9.389 0.48166-18.827-0.0244-28.203-0.61088-8.9342-1.5611-17.796-4.6467-24.704-3.256-6.1495-7.0702-9.5274-11.584-9.726-4.665-0.0494-9.2668 1.2694-13.767 3.7924-4.9908 2.8305-9.8882 6.2683-14.596 10.684-4.1983 3.9112-8.3091 8.1673-12.471 12.229-0.79757 0.69435-1.2428 0.90159-1.5257 1.0598-0.43414-5.0497 0.0368-10.467-0.16229-15.506v-44.454c0-11.205-0.36417-19.733-0.91462-25.854 3.7554 0.33441 7.5124 0.58727 11.27 0.77425 5.2755 0.25039 10.552 0.369 15.828 0.45137 3.5558 0.0412 7.1115 0.0412 10.667 0 1.6331-0.0165 3.2668-0.0741 4.8996-0.13591 0.37396-8e-3 0.74709-0.033 1.1211-0.0577 24.441-1.5418 24.226-15.507-0.2149-13.965-0.35153 0.0247-0.70423 0.033-1.0558 0.0577-1.5965 0.0741-3.1932 0.10707-4.79 0.13178-3.5259 0.0494-7.051 0.0494-10.577 0-5.2366-0.0741-10.473-0.20015-15.708-0.44725-4.9673-0.24792-9.9356-0.53209-14.897-1.1026-2.6024-0.31712-5.2088-0.62764-7.7972-1.2768v-4e-3c-4.539-1.3095-8.2616-1.8909-11.154-1.9195zm23.689 105.1c0.0163 0.0412 0.0204 0.0412 0.0368 0.0848 0.72874 1.8313 0.26874 1.1148 0.0926 0.87235-0.0535-0.31465-0.0848-0.63835-0.12851-0.95752z" opacity=".826" style="paint-order:markers fill stroke"/>
   <path d="m898.66 678.19c-2.3586 0.0165-4.7183 0.11037-7.0744 0.35336-3.6504 0.47773-7.3369 1.0709-10.823 3.4775-2.7713 2.2264-5.3216 5.1477-6.5434 10.964-0.5424 3.2219-0.81726 6.469-0.7207 9.8835 0 49.391 6.9163 49.391 6.9163 0 0.0244-1.6772-0.11046-3.4924 0.28872-5.027 0.61443-1.5198 1.6762-2.139 2.5541-2.7921 2.8387-1.7857 5.8219-2.1852 8.7708-2.5624 4.5308-0.45384 9.0689-0.35006 13.603-0.21333 4.5055 0.16226 9.0106 0.44725 13.514 0.73636 3.3007 0.21745 6.6016 0.43737 9.9025 0.64246 0.38659-0.39618 1.327-0.0165 1.9872 0.30641-0.18759 0.64246-0.0649 2.8501-0.10557 3.4774-0.32991 4.173-1.1082 8.1332-1.8966 12.024-1.2408 6.0207-2.7215 11.822-4.1388 17.677-1.6716 6.7639-3.3275 13.541-4.9228 20.38-1.5203 6.4394-3.0109 12.911-4.4023 19.469-1.109 5.2659-2.1557 10.579-3.2263 15.877-0.5318 2.5741-0.98104 5.207-1.3761 7.8701-1.2309-0.14167-2.4622-0.28417-3.6921-0.45961-2.4072-0.35088-4.8172-0.68859-7.2135-1.2812-24.208-6.9849-25.185 6.8443-0.97782 13.829 2.555 0.64905 5.1241 1.0128 7.6918 1.3876 0.88248 0.12602 1.7659 0.21992 2.6489 0.32782-0.29117 3.5592-0.54954 7.1306-0.75867 10.713-0.31155 5.5498-0.50632 11.122-0.65749 16.698-0.071 3.0828-0.0407 1.5754-0.097 4.5247-0.94378 49.354 5.9683 49.89 6.9121 0.53621 0.0531-2.8017 0.0244-1.3661 0.0905-4.2991 0.14273-5.2856 0.32542-10.568 0.61958-15.83 0.2255-3.8837 0.51059-7.7508 0.84291-11.603 0.18391 0.0165 0.36825 0.0412 0.55216 0.0577 1.3732 0.1219 2.7482 0.2125 4.122 0.30228 24.441 1.5859 24.662-12.375 0.22143-13.961-1.0503-0.0659-2.1005-0.1499-3.1505-0.23392 0.1937-1.1076 0.39882-2.2074 0.62381-3.2945 1.0558-5.224 2.0889-10.466 3.1821-15.659 1.3574-6.4067 2.8176-12.722 4.3011-19.013 1.5804-6.7783 3.2226-13.493 4.8785-20.197 1.4859-6.1388 3.0383-12.222 4.3327-18.541 1.0243-5.0964 2.0018-10.295 2.3666-15.779 0.25814-5.3007 0.20676-10.561-1.5658-14.876-2.0516-3.5596-4.3066-4.5715-6.9817-4.3928-3.2984-0.20427-6.5959-0.42007-9.894-0.63834-4.5426-0.29076-9.0861-0.58151-13.63-0.7446-2.3579-0.0741-4.7158-0.13261-7.0744-0.11531z" opacity=".826" style="paint-order:markers fill stroke"/>
   <path d="m276.58 785.77c2.7315-5.4815 5.4232-11.043 8.1091-16.616 5.0536-10.472 9.8126-21.496 14.487-32.656 4.3122-10.192 8.3703-20.791 12.22-31.707 2.1136-6.1179 4.0926-12.431 5.7717-19.08 1.5698-6.7299 0.60553-8.4443 7.425 1.5137 0.53267 0.77836-0.11453 2.6455-0.1888 3.9646-0.0938 1.6676-0.21043 3.3296-0.31564 4.9943-1.1175 15.585-2.3349 31.138-3.4079 46.737-1.313 19.178-2.3163 38.434-3.1929 57.711-0.64175 14.335-1.1048 28.698-1.4214 43.076-1.0874 49.342-7.997 48.721-6.9096-0.62104 0.32216-14.597 0.7915-29.179 1.4435-43.732 0.88676-19.493 1.9018-38.963 3.2297-58.356 1.07-15.55 2.2808-31.056 3.3983-46.592 0.0974-1.5291 0.20391-3.0558 0.2928-4.587 0.0632-1.0855-0.36782-3.0547 0.16353-3.2621 8.4705-3.3106 7.2009-1.4789 5.6405 5.5186-1.841 7.2451-3.9808 14.156-6.2959 20.822-3.9626 11.229-8.1365 22.137-12.573 32.624-4.7793 11.407-9.6451 22.673-14.811 33.377-2.7076 5.6168-5.4208 11.223-8.1741 16.748-17.291 34.925-22.182 25.046-4.8907-9.8781z" opacity=".826" style="paint-order:markers fill stroke"/>
   <path d="m976.12 815.99c2.6201-5.0038 5.2402-10.008 7.8603-15.011 5.5218-10.548 11.194-20.801 16.92-30.943 5.6006-9.7643 11.146-19.643 16.715-29.472 4.0253-7.156 8.0932-14.227 11.952-21.714 2.3524-4.4185 4.0799-9.5488 5.1155-15.504 0.7996-4.8559 0.5982-9.4207-0.7199-13.799-2.017-5.3062-5.1806-7.8818-8.2981-10.086-4.252-2.7656-8.7147-3.6467-13.178-3.8611-4.7853-0.11861-9.3271 2.2197-13.69 5.7721-3.9829 3.4401-7.2504 8.7424-9.9741 15.183-2.3579 5.8962-3.5845 12.814-4.3973 19.972-0.634 6.3891-0.77658 12.82 0.0163 19.157 0.97006 6.2792 3.3553 10.69 5.9625 14.636 3.994 5.5289 8.6332 8.9375 13.183 12.4 5.4357 3.9071 10.739 8.3753 15.795 13.835 4.6495 5.0669 8.4145 12.194 11.766 20.054 2.6105 6.2144 4.3977 13.27 5.5194 20.898 0.8914 7.2045 0.9692 14.595 0.4627 21.901-1.2756 11.498-6.0563 18.255-10.939 24.276-6.5692 7.4569-13.916 11.519-21.3 14.817-6.9497 2.868-14.029 4.2965-21.124 4.8668-4.8014 0.341-9.4491-1.1535-13.651-5.6415-3.0558-3.8374-4.3192-9.5429-4.6912-16.242-0.12688-4.4235 0.33113-8.7478 0.92782-12.991 5.2436-36.837 10.699-34.005 5.4556 2.8324-0.43272 2.9936-0.78999 6.0431-0.75348 9.171 0.10964 3.1657 0.4703 5.9131 1.8888 7.8796 3.1818 3.7003 6.9285 4.3145 10.589 4.2037 6.7424-0.52879 13.469-1.8908 20.075-4.5941 6.7591-3.0013 13.497-6.6472 19.532-13.391 3.449-4.1894 7.2573-8.6865 8.3918-16.685 0.4602-5.8274 0.3336-11.767-0.314-17.535-0.874-6.211-2.3566-11.904-4.4588-16.963-2.8938-6.8364-6.1354-13.056-10.165-17.466-4.8252-5.2427-9.9097-9.4478-15.1-13.198-5.0696-3.8618-10.217-7.7342-14.628-14.009-3.589-5.5574-6.7049-11.905-7.937-20.667-0.90544-7.9235-0.87461-15.901-0.0244-23.868 1.0285-8.804 2.6032-17.274 5.5408-24.481 3.3452-7.7456 7.3026-14.188 12.153-18.298 5.1182-4.0924 10.442-6.8013 16.041-6.6184 5.0894 0.27593 10.174 1.3264 15.012 4.545 4.4311 3.2076 8.6905 7.2638 11.315 15.166 1.9653 7.4932 2.3896 14.223 1.0663 22.325-1.364 7.4502-3.4655 14.026-6.4363 19.584-3.9231 7.6035-8.0499 14.802-12.143 22.067-5.5671 9.8242-11.11 19.699-16.708 29.459-5.6741 10.049-11.295 20.208-16.766 30.66-2.6201 5.0037-5.2402 10.008-7.8603 15.011-14.134 26.993-18.132 19.358-3.9977-7.6348z" opacity=".826" style="paint-order:markers fill stroke"/>
   <path d="m1115.2 702.9c-0.043-2.2902-0.5294-4.3117-1.073-6.2686-1.2564-3.8742-3.2565-6.2284-5.221-8.4025-2.6817-2.8706-5.6297-4.2103-8.5943-5.2458-2.8213-0.85678-5.6656-1.4805-8.4861-0.40689-2.4252 1.0562-4.5363 3.5168-6.3688 6.8232-1.9685 3.9449-3.1761 8.9631-4.1914 14.095-1.1126 5.9203-1.5577 12.184-1.8511 18.451-0.2606 6.5328-0.1696 13.09-0.041 19.63 0.051 5.8902 0.3173 11.678 1.1723 17.318 0.8252 4.6028 2.2953 8.1528 4.2728 10.879 2.9361 3.3007 6.2889 4.3556 9.5738 5.2436 3.2825 0.91848 6.5159 0.81461 9.6323-1.5336 2.602-2.2635 4.3856-6.361 5.861-11.092 1.2676-4.417 1.8475-9.3443 2.161-14.358 0.2777 1.4205-0.1504-6.047 0.06-4.5799 0.057 0.39618-0.1232 1.1557 0.078 1.2262 6.3479 2.2256 6.2631-3.3655 5.9384 3.1126-0.3271 10.433 0.2426 20.873 0.7254 31.249 0.7637 14.675 1.774 29.292 2.7843 43.904 0.7276 10.431 1.4851 20.853 2.207 31.286 0.3445 4.912 0.6693 9.831 0.8648 14.777 0.2239 7.1397-1.793 10.234-4.9677 11.859-3.9916 1.1227-8.049 0.67788-12.065 0.48267-6.7927-0.39536-13.584-0.85019-20.377-1.2725-3.4434-0.2125-6.8871-0.41348-10.331-0.61363-22.704-1.3206-22.52-14.291 0.1848-12.971 3.4479 0.20015 6.8958 0.40195 10.344 0.61446 6.7779 0.42172 13.555 0.87523 20.334 1.2701 3.4994 0.1705 7.0215 0.51397 10.512-0.17544 0.7904-0.19686 0.266 0.19273 0.02 1.3859-0.1045 0.50738-0.084 2.2836-0.057 0.44561-0.1823-4.6891-0.4999-9.3496-0.8231-14.006-0.7219-10.433-1.4795-20.856-2.207-31.287-1.0237-14.806-2.0468-29.615-2.8179-44.485-0.5228-11.25-1.1251-22.573-0.7152-33.88 0.3976-6.9341-0.1978-5.3445 6.5537-5.7308 0.4636-0.0247 0.1713 8.3448 0.1262 9.0773-0.4615 6.9103-1.3251 13.663-3.1284 19.692-2.2997 7.112-5.1391 13.087-9.1259 16.306-4.1186 2.8291-8.3156 3.4678-12.633 2.1553-4.3234-1.1964-8.6865-2.8163-12.451-7.5513-3.0847-4.5864-5.4577-10.267-6.6889-17.717-0.9716-6.6979-1.3979-13.527-1.4356-20.51-0.1411-7.126-0.2308-14.272 0.064-21.389 0.3613-7.5094 0.9318-15.001 2.2902-22.076 1.4183-7.0191 3.159-13.774 5.9354-19.029 2.7674-4.7654 5.8822-8.3849 9.4939-9.8141 3.5636-1.16 7.121-0.8179 10.679 0.41348 3.6675 1.3053 7.3 3.078 10.604 6.6804 3.0357 3.4318 5.9543 7.3745 7.7566 13.579 1.0186 3.8913 1.8324 7.9639 1.8461 12.44 0 45.878-6.4245 45.878-6.4245 0z" opacity=".826" style="paint-order:markers fill stroke"/>
   <path d="m1205.1 716.35c-0.4653-3.2584-1.2256-6.2431-2.0725-9.1538-1.9364-6.3918-4.7381-11.217-7.6639-15.677-3.3253-4.9848-7.0169-8.7292-10.863-11.748-3.3794-2.4931-6.9232-3.7088-10.512-3.7553-3.5642 0.0165-6.4283 3.0997-9.1362 7.4728-3.6637 6.6524-5.9446 15.464-7.8928 24.446-2.463 12.501-3.4742 25.842-4.2836 39.116-0.7198 13.452-0.9662 26.99-0.654 40.503 0.2672 11.269 1.7567 22.061 3.8938 32.414 1.7078 8.1986 4.3888 14.714 7.936 19.853 3.6064 4.6958 7.7514 6.568 11.938 7.7446 4.341 1.0172 8.7126 0.63917 13.057-0.0329 3.4102-0.37312 6.7168-1.7214 9.8256-4.5803 2.7766-2.7982 4.5099-7.7265 6.0109-13.017 1.6022-5.9301 2.4498-12.435 3.0037-19.048 0.4528-6.0526 0.4576-12.177 0.3262-18.276-0.1262-4.6095-0.4045-9.1941-0.7196-13.764-0.1505-2.1689-0.3164-4.3332-0.4882-6.4956-3.5938-45.3 2.7498-47.353 6.3435-2.0532 0.1787 2.2505 0.3512 4.5028 0.5078 6.76 0.3426 4.98 0.6429 9.9764 0.7752 15 0.1461 7.0201 0.1249 14.068-0.4134 21.029-0.7024 8.1317-1.7799 16.113-3.7829 23.376-2.2236 7.6249-4.8996 14.458-8.9554 18.348-3.8028 3.3512-7.7906 5.2467-11.947 5.6602-4.8074 0.73389-9.645 1.1125-14.446-0.0577-5.2338-1.5248-10.374-4.0803-14.83-10.121-4.4503-6.6769-7.9266-14.913-10.077-25.358-2.3983-11.761-4.084-24.005-4.3761-36.787-0.3161-14.243-0.077-28.511 0.6957-42.687 0.8925-14.529 2.039-29.113 4.7818-42.762 2.4006-10.924 5.2618-21.509 9.8128-29.429 3.9107-6.0793 8.1258-10.258 13.178-10.226 4.3597 0.15979 8.6657 1.5342 12.766 4.6441 4.3922 3.4834 8.6126 7.7713 12.407 13.495 3.5937 5.5287 6.9903 11.589 9.3391 19.506 1.2969 4.5618 2.507 9.3308 2.9174 14.586 1.8863 45.719-4.516 46.797-6.4023 1.0776z" opacity=".826" style="paint-order:markers fill stroke"/>
  </g>
  <g>
   <path d="m-519.48 384.12h99.38" fill="#fa424e" stroke="#fa424e" stroke-dasharray="0.76300002, 6.10400013" stroke-width=".763"/>
   <path d="m-519.32 383.24h1.0025c0.48144 0.0236 0.95221-0.0373 1.42-0.14433 0.65058-0.16124 1.2648-0.43122 1.866-0.72205 0.81655-0.40363 1.5912-0.88478 2.3601-1.3713 0.82258-0.53099 1.6065-1.1183 2.3963-1.6961 0.77938-0.55958 1.5326-1.1529 2.2543-1.7849 0.75296-0.65699 1.4541-1.3692 2.154-2.0814 0.72835-0.74564 1.4585-1.4896 2.1808-2.2411 0.70056-0.72228 1.3818-1.4624 2.0284-2.2333 0.64518-0.78063 1.2563-1.5885 1.8554-2.4048 0.5913-0.82722 1.1682-1.6643 1.7735-2.4814 0.62155-0.84414 1.2774-1.662 1.9322-2.4804 0.62026-0.77219 1.2477-1.5386 1.8692-2.3097 0.55757-0.67627 1.1057-1.3599 1.6405-2.0543 0.51168-0.66494 0.98434-1.3586 1.4462-2.0587 0.44408-0.70847 0.89338-1.4136 1.3414-2.1196 0.46096-0.71314 0.91614-1.43 1.3707-2.1472 0.43411-0.6976 0.89553-1.3772 1.3786-2.0416 0.44649-0.59756 0.90169-1.1888 1.3624-1.7754 0.37549-0.47368 0.75425-0.9443 1.1562-1.3958 0.41364-0.44846 0.87279-0.85066 1.3477-1.2323 0.4217-0.32915 0.85784-0.6395 1.3059-0.93165 0.44765-0.29823 0.92259-0.5496 1.4097-0.77619 0.54072-0.25974 1.1068-0.45509 1.6808-0.62575 0.64627-0.18473 1.3052-0.31929 1.9655-0.44247 0.63271-0.11335 1.2686-0.20875 1.9074-0.27984 0.71742-0.0895 1.398 0.0565 2.0549 0.33593 0.67101 0.31169 1.1846 0.82827 1.6479 1.3907 0.47259 0.5982 0.82514 1.2752 1.1507 1.961 0.34688 0.76957 0.64787 1.5588 0.95124 2.3462 0.31209 0.81615 0.6318 1.6293 0.96542 2.4369 0.36461 0.87219 0.77261 1.7249 1.1843 2.5755 0.46906 0.97599 0.9551 1.9436 1.4505 2.9064 0.52035 1.0197 1.0841 2.016 1.6536 3.0087 0.6101 1.064 1.2686 2.0979 1.9486 3.1182 0.73889 1.1048 1.5385 2.1668 2.3476 3.2207 0.84902 1.1068 1.7416 2.1788 2.6352 3.2495 0.90312 1.0947 1.8398 2.1606 2.7929 3.2119 0.9537 1.0417 1.9424 2.0501 2.9366 3.0529 1.0824 1.0847 2.167 2.1671 3.2553 3.2459 1.1209 1.1104 2.2604 2.2014 3.4165 3.2752 1.0962 1.007 2.2019 2.0034 3.321 2.9848 1.0499 0.92379 2.1392 1.8008 3.242 2.6601 0.97632 0.76239 1.9772 1.4922 2.9817 2.2168 0.82349 0.60701 1.6911 1.1485 2.5806 1.6524 0.82768 0.45374 1.6716 0.87679 2.5226 1.2846 0.68516 0.33209 1.3858 0.62953 2.0896 0.91949 0.69694 0.27724 1.3973 0.54583 2.0982 0.81291 0.65766 0.24621 1.312 0.50115 1.967 0.75446 0.62668 0.23498 1.2506 0.47709 1.8744 0.71944 0.47911 0.17931 0.95221 0.37347 1.4242 0.57057 5.2986 2.2129 4.6727 3.7115-0.62589 1.4987v0c-0.45946-0.19189-0.91996-0.38101-1.3864-0.55535-0.62308-0.24208-1.2463-0.48384-1.8722-0.71858-0.65244-0.25236-1.3043-0.5063-1.9594-0.75156-0.71442-0.27225-1.4283-0.54598-2.1386-0.82894-0.7318-0.30157-1.4602-0.61135-2.1728-0.95655-0.8846-0.42411-1.7618-0.86389-2.6218-1.3364-0.94039-0.53372-1.8584-1.106-2.7296-1.7479-1.0208-0.73629-2.0378-1.4782-3.0299-2.2529-1.1275-0.87875-2.2412-1.7756-3.3146-2.7201-1.1307-0.99165-2.2479-1.9983-3.3554-3.0159-1.1689-1.0858-2.3213-2.1889-3.4546-3.3117-1.0916-1.0821-2.1796-2.1678-3.2652-3.2558-1.0112-1.02-2.0168-2.0459-2.9866-3.1056-0.96782-1.0678-1.9192-2.1503-2.8365-3.2621-0.90768-1.0877-1.8142-2.1768-2.6765-3.3012-0.83103-1.0827-1.652-2.174-2.4108-3.3091-0.69993-1.0506-1.3777-2.1152-2.0058-3.2106-0.58179-1.0142-1.1574-2.0322-1.6891-3.0739-0.50136-0.97458-0.99334-1.9539-1.4681-2.9418-0.42569-0.87943-0.84698-1.7613-1.2236-2.6632-0.33838-0.81965-0.66322-1.6447-0.97983-2.473-0.2888-0.74975-0.57521-1.5012-0.90347-2.2348-0.26804-0.56748-0.55458-1.1303-0.94055-1.6285-0.29645-0.36668-0.61501-0.71851-1.0444-0.93188-0.3886-0.18199-0.792-0.26138-1.2224-0.20822-0.59904 0.0657-1.195 0.15689-1.7884 0.26219-0.60507 0.11261-1.209 0.23503-1.8016 0.40302-0.49853 0.14716-0.9901 0.31582-1.4592 0.54205-0.41755 0.19276-0.82378 0.40845-1.2069 0.66394-0.40367 0.26213-0.79539 0.54249-1.1758 0.83747-0.40521 0.32415-0.79669 0.66612-1.1513 1.0458-0.38011 0.42603-0.73637 0.8717-1.0916 1.3186-0.44853 0.57076-0.89125 1.1463-1.3262 1.7274-0.46305 0.6362-0.90441 1.2876-1.3202 1.9557-0.45478 0.71748-0.91009 1.4346-1.3713 2.148-0.45322 0.71409-0.90738 1.4276-1.3571 2.1438-0.48387 0.733-0.97911 1.4592-1.5152 2.1554-0.54223 0.70374-1.0975 1.397-1.6627 2.0824-0.62035 0.76952-1.2464 1.5344-1.8655 2.305-0.64222 0.80276-1.2858 1.6048-1.8955 2.4328-0.60412 0.81489-1.1783 1.6509-1.7691 2.4754-0.62007 0.84461-1.2526 1.6805-1.9207 2.488-0.67072 0.79834-1.3751 1.5665-2.1015 2.3147-0.72652 0.75569-1.4607 1.504-2.1933 2.2538-0.72852 0.74134-1.4592 1.4818-2.2431 2.1654-0.75783 0.66227-1.5468 1.2865-2.3647 1.8733-0.81932 0.5994-1.6329 1.2082-2.487 1.7579-0.82143 0.51948-1.6497 1.0319-2.5227 1.4615-0.71329 0.34323-1.4432 0.65824-2.2156 0.84386-0.58492 0.1295-1.175 0.2094-1.776 0.18384h-1.0025c-5.7421 0-5.7421-1.6241 0-1.6241z" fill="#54cec1" opacity=".826" stroke="#32baac" stroke-linecap="square" stroke-width=".5" style="paint-order:markers fill stroke"/>
   <path d="m-519.48 384.12h1.1216c0.67987 6e-3 1.3591-0.0232 2.0369-0.0719 0.78109-0.054 1.556-0.16569 2.3207-0.32912 0.87373-0.19134 1.7-0.53167 2.5133-0.89055 0.9605-0.4282 1.8852-0.92687 2.8015-1.4386 0.96497-0.55278 1.91-1.1385 2.8528-1.7267 1.0005-0.63037 1.9944-1.2707 2.9796-1.9238 1.0104-0.6663 1.9793-1.3899 2.9361-2.1276 1.0074-0.7901 1.9996-1.5985 3.0044-2.3918 1.0482-0.83109 2.1131-1.6415 3.1901-2.4362 1.0576-0.77403 2.1382-1.5169 3.2284-2.2458 1.0445-0.69383 2.1142-1.35 3.1958-1.9864 0.92079-0.53941 1.8505-1.0638 2.7908-1.5697 0.73071-0.39919 1.4706-0.78178 2.218-1.15 0.56429-0.27432 1.1328-0.54029 1.7102-0.78691 0.47259-0.2049 0.9609-0.37019 1.4546-0.51807 0.4951-0.14671 1.0034-0.24181 1.5131-0.3237 0.60923-0.10685 1.2257-0.12039 1.8414-0.0806 0.74836 0.0518 1.4529 0.28278 2.1326 0.58076 0.78967 0.36605 1.4631 0.90983 2.1019 1.485 0.71975 0.67172 1.3473 1.4291 1.9626 2.1919 0.61117 0.7639 1.1937 1.5493 1.7706 2.3382 0.53997 0.74833 1.0587 1.5111 1.5838 2.2695 0.47014 0.67876 0.92792 1.3657 1.3698 2.0625 0.42254 0.66389 0.82243 1.3413 1.2214 2.0189 0.40111 0.68749 0.79743 1.3776 1.1889 2.0704 0.41877 0.74063 0.86408 1.4663 1.3186 2.1862 0.50366 0.81148 1.0524 1.5942 1.6141 2.3676 0.60452 0.82586 1.2591 1.6137 1.9392 2.3802 0.67509 0.74979 1.3746 1.4778 2.0951 2.1856 0.71177 0.70796 1.4682 1.3682 2.246 2.0048 0.79263 0.64019 1.6274 1.2279 2.4706 1.8016 0.85183 0.5743 1.7154 1.1316 2.5877 1.6755 0.86437 0.53924 1.7505 1.0428 2.6494 1.5242 0.86224 0.45984 1.7583 0.85282 2.6625 1.225 0.89694 0.36933 1.8257 0.65265 2.7628 0.90432 1.0058 0.26525 5.2004 1.993 6.2279 2.1539 0 0 5.0275 3.1888-3.0292 0.66364-1.0836-0.17003-2.5509-1.0584-3.6114-1.3389-1.0021-0.26988-1.9951-0.57378-2.9543-0.9692-0.95322-0.39279-1.8976-0.80775-2.8065-1.293-0.92908-0.49785-1.8452-1.0184-2.7387-1.5759-0.88993-0.55503-1.7712-1.1235-2.6402-1.7097-0.88102-0.59984-1.753-1.2145-2.5809-1.8841-0.81395-0.66654-1.6056-1.3579-2.3508-2.0988-0.74537-0.73282-1.4697-1.486-2.168-2.2624-0.713-0.80422-1.3994-1.6307-2.0331-2.4971-0.58097-0.80037-1.1485-1.6104-1.6698-2.4498-0.46766-0.74096-0.92589-1.4878-1.3568-2.2501-0.38706-0.68496-0.77886-1.3672-1.1754-2.0469-0.39051-0.66327-0.78172-1.3264-1.1953-1.9762-0.43046-0.67946-0.87729-1.3488-1.3354-2.0106-0.51761-0.74754-1.0289-1.4994-1.5609-2.2373-0.56269-0.76945-1.1306-1.5356-1.7265-2.2808-0.56425-0.69996-1.1378-1.3965-1.7955-2.0153-0.5142-0.4661-1.0524-0.91326-1.6867-1.2158-0.50873-0.22842-1.0356-0.40702-1.5981-0.44873-0.49557-0.0358-0.99167-0.0217-1.4821 0.0642-0.44101 0.0703-0.8811 0.1512-1.3097 0.27725-0.43687 0.13018-0.86885 0.27613-1.2868 0.45743-0.55132 0.23498-1.0936 0.48978-1.6324 0.75116-0.73061 0.35975-1.4536 0.73405-2.1679 1.1242-0.92274 0.49624-1.8349 1.011-2.7384 1.5402-1.0558 0.62106-2.0999 1.2616-3.1196 1.9386-1.0702 0.71531-2.1309 1.4445-3.1691 2.2041-1.0634 0.78458-2.1148 1.5848-3.1498 2.4054-1.0095 0.79692-2.0062 1.6093-3.0186 2.4028-0.98634 0.76023-1.9852 1.5056-3.0266 2.1924-0.99725 0.66107-2.0032 1.3092-3.0159 1.9472-0.96437 0.6016-1.931 1.2006-2.9183 1.7654-0.95943 0.53558-1.9282 1.0568-2.9341 1.5046-0.91305 0.40183-1.842 0.77821-2.8229 0.99038-0.83658 0.17649-1.6833 0.3019-2.5375 0.35973-0.71555 0.0508-1.4325 0.0832-2.1501 0.0759h-1.1216c-5.522 0-5.522-1.5332 0-1.5332z" fill="#54cec1" opacity=".826" stroke="#32baac" stroke-linecap="square" stroke-width=".4764" style="paint-order:markers fill stroke"/>
  </g>
  <g fill="#fa424f" fill-opacity=".82745" stroke="#fa424e" stroke-linecap="square">
   <path d="m-515.58 392.49c-0.21534-0.22764-0.42596-0.464-0.64225-0.68988-0.38098-0.41942-0.82554-0.68002-1.2747-0.91493-0.57349-0.29564-1.1627-0.48122-1.7736-0.47481-0.57671 0.0505-1.0848 0.39795-1.5558 0.84533-0.46654 0.47091-0.78124 1.1257-1.044 1.8313-0.26304 0.74714-0.41947 1.552-0.54963 2.3619-0.1022 0.65911-0.17688 1.3265-0.14946 2.002 0.0252 0.45228 0.18535 0.74797 0.43518 1.0063 0.3629 0.32345 0.77963 0.47808 1.1932 0.61349 0.4757 0.14589 0.96063 0.21333 1.4452 0.26658 0.46034 0.0435 0.92164 0.0711 1.383 0.0714 0.35622 0.0228 0.69056-0.0609 1.0158-0.25995 0.31375-0.21285 0.57792-0.52793 0.82294-0.87123 0.25553-0.38365 0.48082-0.8042 0.6952-1.2343 0.19357-0.38933 0.37246-0.79264 0.54823-1.1983 0.15789-0.366 0.31244-0.7352 0.47993-1.0927 0.17196-0.35882 0.3128-0.55474 0.52538-0.86583 0.22778-0.33761 0.52426-0.79716 0.76048-1.123 0.31161-0.43986 0.64036-0.85232 0.99064-1.2296 0.46335-0.48088 0.99468-0.78598 1.5338-1.0508 0.59876-0.28229 1.2188-0.45113 1.8408-0.59156 0.60855-0.14036 1.2236-0.13478 1.8352-0.0508 0.48495 0.074 0.94451 0.28772 1.3822 0.58304 0.37768 0.25688 0.66065 0.66644 0.88869 1.1531 0.19623 0.46042 0.30147 0.97405 0.37958 1.4953 0.0783 0.53801 0.0973 1.0856 0.10008 1.6331 2e-3 0.57425-0.0582 1.1362-0.18039 1.6825-0.13756 0.55721-0.39126 1.014-0.6856 1.4224-0.34971 0.44018-0.78385 0.68545-1.2212 0.89582-0.469 0.2198-0.95491 0.34606-1.4428 0.44627-0.51231 0.0962-1.0282 0.14563-1.544 0.1856-0.50243 0.0564-1.0032 0.0165-1.5006-0.0887-0.51342-0.0948-0.94145-0.44579-1.3359-0.89778-0.35037-0.42366-0.63611-0.93587-0.90449-1.4618-0.23096-0.46715-0.43219-0.96133-0.63113-1.4564-0.14257-0.37651 0.0683 0.35497-0.0808-0.0165 0.7598-1.4406 0.49466-0.82016 0.82195-0.57643 0.18382 0.45758 0.3692 0.91481 0.58172 1.3475 0.22473 0.44176 0.46172 0.87503 0.75332 1.2344 0.27309 0.32105 0.56156 0.5755 0.92299 0.63837 0.43955 0.0951 0.88211 0.12771 1.3263 0.0769 0.49051-0.0378 0.98111-0.0844 1.4684-0.17495 0.43659-0.0889 0.87169-0.19978 1.2917-0.39517 0.31749-0.15059 0.63851-0.31551 0.90075-0.61931 0.19779-0.26668 0.37217-0.56409 0.46885-0.93064 0.10049-0.42129 0.13771-0.85999 0.13896-1.3042-2e-3 -0.46757-0.0159-0.93523-0.0821-1.395-0.0551-0.37728-0.12559-0.75129-0.26135-1.0891-0.1351-0.30775-0.30953-0.56076-0.54276-0.72225-0.34671-0.23799-0.71131-0.40856-1.0965-0.46976-0.5388-0.0769-1.0806-0.0811-1.6169 0.0417-0.57284 0.12877-1.1441 0.28206-1.6959 0.54018-0.45448 0.2216-0.90454 0.47113-1.2972 0.87188-0.32326 0.3456-0.62371 0.72861-0.91097 1.1326-0.23043 0.31767-0.4544 0.64407-0.67659 0.97321-0.1769 0.25801-0.35051 0.52339-0.49467 0.82016-0.16246 0.34467-0.31005 0.70289-0.46327 1.0558-0.18545 0.42758-0.37412 0.85273-0.57839 1.2631-0.24382 0.48809-0.50049 0.96508-0.7932 1.3976-0.32347 0.44859-0.6751 0.85436-1.0906 1.1236-0.43233 0.25208-0.87714 0.3822-1.3476 0.35433-0.48327-7.9e-4 -0.96642-0.0285-1.4486-0.0751-0.52741-0.0583-1.0551-0.13361-1.5726-0.29444-0.53286-0.17664-1.0651-0.39154-1.5218-0.83446-0.4361-0.49313-0.72378-1.0875-0.76373-1.8964-0.0245-0.78564 0.0451-1.562 0.16965-2.3283 0.14764-0.91271 0.32767-1.8183 0.62763-2.6582 0.33299-0.87981 0.73715-1.6886 1.3246-2.269 0.61505-0.57246 1.2789-1.001 2.0278-1.0467 0.71245 6e-3 1.4022 0.19776 2.0709 0.55035 0.52352 0.27611 1.0397 0.58793 1.4846 1.0757 1.2742 1.5535 3.2782 5.3533 0.13504 1.6558z" opacity=".826" stroke-width=".42901" style="paint-order:markers fill stroke"/>
   <path d="m-521.27 398.59c-0.67307-0.35091-0.72569-0.53005-0.7108-2.4203 0.0123-1.5572 0.18467-2.3816 0.72688-3.4759 1.2168-2.4557 2.9854-2.4915 5.2879-0.10692l1.3788 1.428-0.73271 1.6751c-1.2439 2.8439-1.544 3.1179-3.5085 3.2039-0.99078 0.0434-2.0216-0.0849-2.4416-0.3039z" opacity=".826" stroke-width=".83846" style="paint-order:markers fill stroke"/>
   <path d="m-511.23 397.34c-0.88941-0.88941-1.6459-2.7041-1.3526-3.2448 0.4421-0.81505 1.8581-2.0423 2.7414-2.3761 1.3402-0.50636 3.0346-0.38128 3.6882 0.27225 0.73466 0.73466 0.82032 3.6002 0.1368 4.576-0.80907 1.1551-4.3121 1.6742-5.2137 0.77254z" opacity=".826" stroke-width=".83846" style="paint-order:markers fill stroke"/>
   <path d="m-426.93 411.5c-3.7814-1.4259-5.0898-4.2115-3.2221-6.86 0.93798-1.3301 2.0396-1.994 3.3121-1.9961 0.83216-1e-3 1.4923 5e-3 3.1514 1.1873 2.6252 1.8708 2.9595 2.666 2.5964 3.9332-0.53625 1.8714-2.885 4.26-4.1545 4.2249-0.22898-6e-3 -0.98645-0.22648-1.6832-0.48922z" opacity=".826" stroke-width=".78569" style="paint-order:markers fill stroke"/>
   <path d="m-426.75 410.76c-3.0253-1.1603-4.0721-3.4271-2.5778-5.5824 0.75042-1.0824 1.6317-1.6226 2.6498-1.6244 0.66576-1e-3 1.1939 4e-3 2.5212 0.96614 2.1003 1.5224 2.3677 2.1695 2.0772 3.2007-0.42903 1.5229-2.3081 3.4666-3.3238 3.438-0.1832-5e-3 -0.7892-0.1843-1.3467-0.39811z" opacity=".826" stroke-width=".63395" style="paint-order:markers fill stroke"/>
  </g>
  <g stroke="#000" stroke-linecap="square">
   <path d="m-491.14 366.13c-0.0269-0.2422-0.0407-0.4863-0.0554-0.72994-0.0322-0.3841-0.0403-0.76067 0.0247-1.1394 0.1666-0.58851 0.58973-0.8921 1.0278-1.141 0.5125-0.2683 1.0549-0.37061 1.6088-0.35573 0.56828 0.0396 1.0082 0.28505 1.4293 0.73978 0.37829 0.46819 0.5493 1.0738 0.6648 1.7004 0.1214 0.74748-0.0233 1.3914-0.28346 2.0641-0.30495 0.70291-0.76166 1.2709-1.2296 1.8133-0.49322 0.56032-1.0414 1.039-1.6061 1.4848-0.46807 0.35816-0.96832 0.64609-1.4766 0.9073-0.29535 0.15305-0.60053 0.2726-0.91095 0.37006-0.22702 0.0712-0.17166 0.11105-0.1014-0.63688 8e-5 0 0.23127-0.0276 0.35002-0.0417 0.37652-0.0449 0.754-0.0757 1.1316-0.1036 0.41353-0.03 0.82751-0.0492 1.2416-0.0641 0.32443-0.0114 0.64899-0.0163 0.97355-0.0178 0.21977 0 0.43953 3e-3 0.65928 6e-3 0.14592 3e-3 0.29184 6e-3 0.43775 0.01 0.0652 3e-3 0.0334 0 0.0954 3e-3 1.9386 0.0501 1.927 0.71919-0.0116 0.66906-0.0621-3e-3 -0.0305 0-0.0952-3e-3 -0.14472-4e-3 -0.28944-7e-3 -0.43418-0.01-0.21641-4e-3 -0.43283-7e-3 -0.64926-6e-3 -0.31989 3e-3 -0.63977 7e-3 -0.95953 0.0175-0.40841 0.0147-0.81672 0.0335-1.2246 0.0632-0.37096 0.0273-0.74184 0.0576-1.1117 0.10173-0.10081 0.012-0.35285 0.0495-0.35601 0.0424-0.28084-0.63039-0.33662-0.59709-0.0822-0.67796 0.2845-0.0892 0.56419-0.1983 0.8348-0.33877 0.47887-0.24563 0.95029-0.51612 1.3916-0.85243 0.53643-0.42294 1.0575-0.87681 1.5264-1.4082 0.41971-0.48537 0.83318-0.99053 1.1122-1.6163 0.20551-0.51762 0.33883-1.0508 0.24295-1.6307-0.0878-0.49032-0.20963-0.97324-0.49703-1.3489-0.3031-0.34398-0.65814-0.53921-1.0762-0.56738-0.46958-0.0184-0.92924 0.072-1.3649 0.29465-0.27822 0.15404-0.58175 0.32697-0.72195 0.6796-0.0636 0.31097-0.0306 0.62729-0.0129 0.94374 0.0134 0.22331 0.0263 0.44691 0.0494 0.66908 0.31878 2.3338-0.2222 2.4438-0.54097 0.11004z" stroke-width=".3" style="paint-order:markers fill stroke"/>
   <path d="m-433.31 369.48c-0.0826-0.18811-0.1349-0.39156-0.18123-0.59597-0.0853-0.35265-0.10246-0.71225-0.0786-1.0763 0.035-0.42212 0.17981-0.77598 0.41963-1.0804 0.28186-0.30208 0.64066-0.41306 1.0028-0.48943 0.39483-0.0707 0.77996 0.0107 1.1531 0.16469 0.3412 0.1531 0.61336 0.42551 0.84388 0.75751 0.18989 0.29391 0.29502 0.63774 0.35949 0.99762 0.0464 0.29707 0.0413 0.59915 0.0212 0.89887-0.0155 0.20523-0.0471 0.40791-0.0859 0.60845-0.0121 0.0368-0.0147 0.0771-0.0252 0.11457-4e-3 0.0117 9e-3 -0.0239 7e-3 -0.0361-7e-3 -0.0574-1e-3 -0.12332-0.0308-0.16967-0.0905-0.14553-0.11797-0.14176-0.21195-0.158 0.18887-0.0572 0.3793-0.10635 0.57025-0.15233 0.31224-0.0732 0.6273-0.12685 0.9429-0.17388 0.2824-0.049 0.56568-0.0678 0.84987-0.0373 0.36548 0.0545 0.54262 0.25818 0.68841 0.65404 0.12864 0.49967 0.14103 1.0283 0.13874 1.5474-8e-3 0.60781-0.12049 1.1982-0.2892 1.768-0.17414 0.54599-0.45006 1.0199-0.78162 1.442-0.30727 0.3789-0.69094 0.61989-1.0976 0.80436-0.32663 0.13967-0.66885 0.19581-1.0135 0.21047-0.26791 5e-3 -0.53435-0.0325-0.79916-0.0769-0.23912-0.0301-0.46612-0.11152-0.68368-0.23196-0.20956-0.12068-0.36807-0.30662-0.49212-0.53939-0.0816-0.16851-0.12136-0.35512-0.14552-0.54602-0.2765-2.3099 0.26634-2.404 0.54284-0.0941 0.0108 0.10071 0.0293 0.19995 0.0681 0.29103 0.0624 0.12802 0.14653 0.22364 0.25828 0.29018 0.16739 0.0956 0.34316 0.15391 0.52808 0.17657 0.2336 0.0394 0.46856 0.0739 0.70492 0.0709 0.28531-0.0104 0.56877-0.0555 0.83968-0.16902 0.32961-0.14679 0.6422-0.3362 0.89235-0.64112 0.2813-0.35289 0.51345-0.75196 0.66275-1.21 0.15008-0.49863 0.24782-1.0167 0.25693-1.5493 3e-3 -0.43204-6e-3 -0.87092-0.0974-1.2914-0.0449-0.15697-0.0815-0.23084-0.23254-0.24843-0.24452-0.0294-0.48833-5e-3 -0.73135 0.0352-0.30216 0.0449-0.60381 0.0962-0.90277 0.16612-0.20202 0.0485-0.40257 0.10448-0.60346 0.15906-0.32345 0.0132-0.43387-0.22203-0.34786-0.55483 0.0329-0.16899 0.0599-0.33984 0.0734-0.51283 0.0165-0.23599 0.023-0.47402-0.0112-0.70852-0.0433-0.25611-0.1144-0.50215-0.24604-0.71376-0.16261-0.24219-0.35697-0.44016-0.60121-0.55403-0.28377-0.12166-0.57745-0.18722-0.87943-0.1375-0.24777 0.0503-0.50171 0.11121-0.70473 0.30163-0.15897 0.18198-0.23841 0.41057-0.26429 0.67299-0.0218 0.28751-6e-3 0.56992 0.0615 0.84859 0.0344 0.15467 0.0726 0.30904 0.13329 0.45228 0.92851 2.0488 0.44704 2.3649-0.48147 0.31606z" stroke-width=".2" style="paint-order:markers fill stroke"/>
   <path d="m-419.37 365.99c-0.13711 0-0.27422 0.58345-0.27422 1.7504v0.99231c-1e-3 0.52682 3e-3 1.0536-3e-3 1.5804-5e-3 0.36972-0.0148 0.74048-0.0643 1.1059h-0.37999c-2e-3 9e-3 -4e-3 0.0142-5e-3 0.0224-0.0102 9e-3 -0.0131 0.0285-0.0122 0.0578-0.12983 0.63527-0.24216 0.52624 0.0461 0.61201 0.0552 0.0184 0.11023 0.0364 0.15624 0.0794 0.16225 0.11129 0.33312 0.13267 0.49061-0.0102 0.0262-0.0316 0.049-0.0651 0.0701-0.0994h0.0418c0.36495 4e-3 0.7299 8e-3 1.0949 0.012 0.30791 4e-3 0.61582 6e-3 0.92373 9e-3 0.23736 0 0.47467 3e-3 0.71204 3e-3 -5.8e-4 0.34264-5e-5 0.68503 0.0144 1.0273 0.01 0.21793 0.0281 0.43522 0.055 0.65104 0.012 0.093 0.0254 0.18562 0.0449 0.27673 5e-3 0.0205 2e-3 0.011 6e-3 0.0294 0.46475 2.2657 0.99713 2.1075 0.53239-0.15826-5e-3 -0.0252-3e-3 -0.0123-8e-3 -0.0392-0.0142-0.0682-0.0242-0.13747-0.0331-0.20695-0.0245-0.19437-0.0404-0.39018-0.0494-0.58645-0.0141-0.33104-0.0148-0.6622-0.0139-0.99352h0.24229 0.58637 0.43279c0.0773 6e-5 0.0392 0 0.11397 0 1.9391-3e-3 1.9387-0.66201-2.5e-4 -0.66008-0.0748-3e-5 -0.0368 0-0.11413 0h-0.43313-0.5862c-0.0806-3e-5 -0.16107 0-0.24162 0v-1.8606c0-2.3337-0.54844-2.3337-0.54844 0v1.8604c-0.23623 0-0.47246 0-0.70868-3e-3 -0.30733-3e-3 -0.61474-5e-3 -0.92208-9e-3 -0.31835-4e-3 -0.63663-7e-3 -0.95498-0.0104 0.0422-0.36542 0.0566-0.73435 0.0602-1.1033 6e-3 -0.52955 2e-3 -1.0591 3e-3 -1.5886v-0.99213c0-1.1669-0.13711-1.7504-0.27421-1.7504z" stroke-width=".3" style="paint-order:markers fill stroke"/>
   <path d="m-403.82 386.34c-0.99396-6e-3 -0.75268 0.46399 0.80694 0.72536 0.18927 0.0282 0.37976 0.0431 0.57016 0.0569-0.0456 0.28302-0.0762 0.68418-0.0762 1.2141v2.0475c-2e-3 0.34128-0.0132 0.68303 0.0598 1.0156 0.17003 0.47653 0.49499 0.40358 0.83199 0.24447 0.33772-0.18805 0.66938-0.39013 1.009-0.57367 0.34696-0.18882 0.70788-0.33622 1.0758-0.45679 0.30699-0.0976 0.62031-0.15626 0.93845-0.15077 0.20894 0.01 0.39693 0.0845 0.54041 0.26486 0.14468 0.21919 0.17854 0.4966 0.20837 0.76362 0.0339 0.39061 0.0179 0.78343-2e-3 1.1744-0.0105 0.38141-0.0736 0.75231-0.18716 1.1089-0.10644 0.33247-0.29278 0.59251-0.52085 0.81848-0.30008 0.26772-0.653 0.42887-1.0068 0.56992-0.3634 0.13793-0.74057 0.2092-1.1192 0.25684-0.26066 0.0307-0.52268 0.0347-0.78405 0.0175-9e-3 0.0292-0.19103-0.047-0.15473-0.0575 0.0136 3e-3 0.0109 6e-3 0.0127-0.0162-0.22846-2.2591-0.77305-2.1834-0.54459 0.0757 0.0149 0.11728 0.0338 0.22717 0.0934 0.32702 0.14681 0.20581 0.33373 0.30186 0.56297 0.31349 0.29107 0.0184 0.58304 0.0144 0.87328-0.0202 0.41887-0.0534 0.83575-0.13367 1.2374-0.28761 0.41944-0.1686 0.83512-0.36542 1.1866-0.69048 0.29603-0.30146 0.54042-0.64762 0.6786-1.0846 0.12941-0.41668 0.20777-0.84774 0.21991-1.2926 0.022-0.43246 0.0382-0.86715-2e-3 -1.299-0.0485-0.41149-0.12378-0.81966-0.36845-1.1379-0.25819-0.28325-0.56064-0.43884-0.91857-0.44798-0.36992-3e-3 -0.73481 0.0585-1.0917 0.17467-0.39574 0.13038-0.78408 0.28873-1.1574 0.49209-0.3329 0.18018-0.65887 0.3762-0.98892 0.56328-0.0632 0.0319-0.0985 0.0415-0.12098 0.0488-0.0344-0.2326 3e-3 -0.48209-0.0129-0.7142v-2.0476c0-0.5161-0.0289-0.90887-0.0726-1.1908 0.29778 0.0153 0.59569 0.027 0.89366 0.0356 0.41832 0.0117 0.83669 0.0169 1.2551 0.0209 0.28196 3e-3 0.5639 3e-3 0.84587 0 0.12949 0 0.25904-4e-3 0.38852-6e-3 0.0296 0 0.0592 0 0.0889-3e-3 1.9381-0.0711 1.921-0.71426-0.017-0.64324-0.0278 0-0.0558 0-0.0837 3e-3 -0.1266 4e-3 -0.2532 5e-3 -0.37982 6e-3 -0.27959 3e-3 -0.55912 3e-3 -0.83869 0-0.41524-4e-3 -0.83044-0.01-1.2456-0.0205-0.39389-0.0114-0.78785-0.0245-1.1812-0.0507-0.20635-0.0147-0.41303-0.0289-0.61827-0.0588v-2.1e-4c-0.35993-0.0603-0.65512-0.0871-0.88449-0.0884zm1.8784 4.841c2e-3 3e-3 2e-3 3e-3 3e-3 4e-3 0.0578 0.0844 0.0213 0.0514 8e-3 0.0402-4e-3 -0.0144-7e-3 -0.0294-0.0102-0.0441z" stroke-width=".3" style="paint-order:markers fill stroke"/>
   <path d="m-492.18 354.86c0.21985-0.22403 0.43649-0.45134 0.65266-0.67908 0.40674-0.42803 0.78978-0.87855 1.166-1.3347 0.34707-0.41659 0.67367-0.84977 0.98355-1.2959 0.1701-0.25003 0.32938-0.50809 0.46453-0.77982 0.12633-0.27505 0.0487-0.34514 0.59759 0.0619 0.0428 0.0318-9e-3 0.10814-0.0151 0.16205-8e-3 0.0681-0.0169 0.13609-0.0255 0.20414-0.09 0.63696-0.18794 1.2726-0.27429 1.9102-0.10567 0.78387-0.18644 1.5708-0.25698 2.3588-0.0516 0.58587-0.0889 1.1729-0.1144 1.7606-0.0875 2.0166-0.64364 1.9913-0.55611-0.0253 0.026-0.59662 0.0637-1.1926 0.11618-1.7874 0.0713-0.79671 0.15305-1.5925 0.25994-2.3851 0.0861-0.63555 0.18358-1.2693 0.2735-1.9043 8e-3 -0.0624 0.0163-0.12489 0.0235-0.18748 5e-3 -0.0443-0.0296-0.12484 0.0131-0.13333 0.68173-0.13531 0.57957-0.0605 0.45397 0.22555-0.14819 0.29613-0.32041 0.57858-0.50673 0.85101-0.31893 0.45897-0.65487 0.90478-1.0119 1.3334-0.38466 0.46622-0.77628 0.92668-1.1921 1.3642-0.21793 0.22957-0.43631 0.4587-0.65789 0.68455-1.3917 1.4274-1.7853 1.0237-0.39364-0.40374z" stroke-width=".3" style="paint-order:markers fill stroke"/>
  </g>
  <path d="m828.77 694.99c-3.7227 1.9408-7.2353 4.7207-10.733 7.4345-8.2855 6.363-15.524 15.135-22.354 24.588-7.7769 10.849-14.079 23.629-19.406 37.414-4.347 11.678-7.0346 24.398-8.7525 37.497-1.2014 9.5174-1.176 19.058 0.41982 28.425 1.8497 8.5812 5.9944 14.752 10.541 20.187 5.4916 6.1611 11.95 9.2764 18.485 11.755 6.7418 2.3467 13.645 3.1024 20.539 3.3716 5.2626 0.14275 10.531-0.16688 15.683-1.8707 3.6768-1.3832 6.1224-5.0185 8.1479-9.674 2.0231-5.132 2.8342-10.925 3.3144-16.786 0.4615-6.0289-0.32098-11.851-1.6782-17.482-1.4021-5.3403-3.6519-9.8066-6.4436-13.613-3.0017-3.8198-6.6742-5.512-10.427-6.7344-4.531-1.2749-9.1479-1.259-13.736-1.1043-4.6304 0.12858-9.231 0.73871-13.758 2.2343-3.7405 1.222-6.9743 3.9877-9.8696 7.7001-2.3022 3.1421-3.9578 7.0266-5.161 11.323-0.74991 3.0478-1.0963 6.2687-1.2408 9.5026-0.0718 1.846 0.0557 3.681 0.28503 5.4907 0.14132 0.99791 0.0684 0.47838 0.21836 1.5587 3.3022 23.797-1.1204 25.219-4.4226 1.4214v0c-0.15454-1.1138-0.0756-0.5478-0.23669-1.698-0.2946-2.3934-0.45544-4.8196-0.35301-7.2577 0.19161-4.0059 0.63499-7.9891 1.6005-11.747 1.5124-5.267 3.5552-10.046 6.4141-13.875 3.4795-4.3841 7.3492-7.6944 11.814-9.1431 4.81-1.5663 9.6917-2.2647 14.611-2.387 4.9424-0.16297 9.9148-0.15107 14.792 1.2586 4.5268 1.5079 8.9174 3.6892 12.505 8.3585 3.3128 4.6056 6.0131 9.9485 7.659 16.368 1.5735 6.6741 2.4741 13.568 1.9129 20.691-0.58493 6.9277-1.6071 13.744-4.0504 19.766-2.8296 6.302-5.9627 10.629-10.948 12.556-5.5082 1.7777-11.124 2.2095-16.748 2.0214-7.224-0.28812-14.457-1.0967-21.518-3.5749-7.1543-2.7328-14.2-6.232-20.189-13.03-5.3166-6.4208-10.045-13.773-12.12-23.889-1.7092-10.388-1.831-20.931-0.47125-31.474 1.8316-13.847 4.6793-27.297 9.29-39.637 5.571-14.367 12.142-27.705 20.262-39.013 7.1338-9.8531 14.694-18.992 23.341-25.626 3.9269-3.0432 7.8874-6.2874 12.146-8.1151 15.82-3.4397 16.46 3.3705 0.63923 6.8102z" fill="#00887a" opacity=".826" stroke="#000" stroke-linecap="square" stroke-opacity=".82745" stroke-width=".38836" style="paint-order:markers fill stroke"/>
  <g fill="#ffa669" stroke="#ff9243" stroke-linecap="square">
   <path d="m-521.82 418.68h109.28c18.501 0.27142 18.437 1.6241 0 1.6241h-109.28c-5.3042 0-5.3042-1.6241 0-1.6241z" enable-background="new" opacity=".826" stroke-width=".48055" style="paint-order:markers fill stroke"/>
   <path d="m-525.61 416.09v-68.151c-8e-3 -8.071 0.014-16.142-9e-3 -24.213-0.47907-27.23 1.5094-25.121 1.624-4e-3 0.0235 8.0725 2e-3 16.145 9e-3 24.218v68.151c0 5.5755-1.6241 5.5755-1.6241 0z" enable-background="new" opacity=".826" stroke-width=".49269" style="paint-order:markers fill stroke"/>
   <path d="m-521.24 306.34c-0.11934-0.22305-0.25935-0.41616-0.39426-0.61501-0.28517-0.41157-0.57165-0.82097-0.86086-1.2255-0.32133-0.44591-0.63119-0.91179-0.93976-1.3795-0.2682-0.41071-0.52596-0.83783-0.78835-1.2576-0.18103-0.288-0.36048-0.58361-0.57708-0.80535-0.13107-0.12877-0.26566-0.15674-0.41466-0.12106-0.2072 0.0691-0.39146 0.23685-0.56919 0.41159-0.24087 0.25176-0.45733 0.55479-0.66799 0.8653-0.24418 0.36509-0.47501 0.75151-0.70284 1.1418-0.22515 0.39133-0.44294 0.79271-0.6543 1.2027-0.19526 0.37537-0.38953 0.75202-0.58251 1.1303-0.168 0.33341-0.33631 0.6665-0.50111 1.0039-0.0963 0.19935-0.0488 0.10058-0.1424 0.29628-1.7563 3.6715-2.4138 2.887-0.65756-0.7845 0.0968-0.20237 0.0476-0.10011 0.14748-0.30678 0.16836-0.34458 0.34021-0.68488 0.51184-1.0254 0.1939-0.38008 0.38907-0.75852 0.58525-1.1357 0.22209-0.43055 0.45082-0.85225 0.68745-1.2631 0.24197-0.41437 0.48728-0.82438 0.74681-1.2116 0.25059-0.3684 0.50907-0.72609 0.79711-1.0208 0.28327-0.27421 0.58012-0.5192 0.91308-0.59789 0.3437-0.0492 0.66681 0.0317 0.96178 0.33322 0.25938 0.27911 0.48898 0.61415 0.70535 0.97282 0.25716 0.41148 0.50983 0.83002 0.77246 1.2329 0.30064 0.45567 0.60246 0.90976 0.91555 1.3442 0.29454 0.41206 0.58639 0.82891 0.87675 1.2483 0.16783 0.24738 0.34115 0.48919 0.48516 0.77294 1.7765 3.6472 1.1233 4.4407-0.6532 0.79352z" enable-background="new" opacity=".826" stroke-width=".31883" style="paint-order:markers fill stroke"/>
   <path d="m-398.71 424.04c0.22303-0.11933 0.41616-0.25935 0.61501-0.39425 0.41157-0.28517 0.82096-0.57165 1.2255-0.86087 0.4459-0.32132 0.91181-0.63119 1.3794-0.93976 0.41071-0.26819 0.83783-0.52596 1.2577-0.78835 0.28801-0.18102 0.58361-0.36047 0.80536-0.57708 0.12877-0.13107 0.15674-0.26566 0.12106-0.41465-0.0691-0.2072-0.23686-0.39147-0.41159-0.56919-0.25176-0.24088-0.55479-0.45734-0.86531-0.66799-0.36508-0.24419-0.75152-0.47501-1.1418-0.70284-0.39131-0.22515-0.79271-0.44295-1.2027-0.65431-0.37538-0.19526-0.75202-0.38953-1.1303-0.5825-0.33342-0.168-0.66648-0.33631-1.0039-0.50111-0.19935-0.0963-0.10056-0.0488-0.29628-0.14241-3.6715-1.7563-2.887-2.4138 0.7845-0.65755 0.20238 0.0968 0.10011 0.0476 0.3068 0.14747 0.34457 0.16836 0.68488 0.34022 1.0254 0.51185 0.38006 0.1939 0.75851 0.38907 1.1357 0.58525 0.43053 0.22208 0.85225 0.45081 1.2631 0.68744 0.41437 0.24197 0.82437 0.48729 1.2116 0.74682 0.36839 0.25058 0.72608 0.50906 1.0208 0.79711 0.2742 0.28327 0.51921 0.58012 0.59787 0.91307 0.0492 0.3437-0.0317 0.66682-0.3332 0.96178-0.27913 0.25939-0.61414 0.48899-0.97282 0.70535-0.41148 0.25717-0.83003 0.50983-1.2329 0.77247-0.45567 0.30064-0.90977 0.60245-1.3442 0.91555-0.41207 0.29454-0.82891 0.58638-1.2483 0.87675-0.24738 0.16782-0.48921 0.34114-0.77294 0.48515-3.6472 1.7765-4.4407 1.1233-0.79352-0.6532z" enable-background="new" opacity=".826" stroke-width=".31883" style="paint-order:markers fill stroke"/>
  </g>
  <g fill="#fa424e" stroke="#fa424e" stroke-linecap="square">
   <g stroke-width=".23373">
    <path d="m-419.76 350.96c-0.0846-0.16911-0.18383-0.31552-0.27946-0.46629-0.20213-0.31206-0.40519-0.62246-0.61018-0.92915-0.22777-0.33808-0.4474-0.69132-0.66612-1.0459-0.19009-0.3114-0.3728-0.63523-0.55879-0.95355-0.12832-0.21835-0.25551-0.44248-0.40903-0.6106-0.0929-0.0976-0.18832-0.11884-0.29392-0.0918-0.14687 0.0524-0.27747 0.17959-0.40345 0.31207-0.17073 0.19088-0.32416 0.42063-0.47347 0.65606-0.17309 0.27681-0.3367 0.56979-0.49818 0.86572-0.15959 0.2967-0.31397 0.60102-0.46378 0.91189-0.13841 0.2846-0.27611 0.57017-0.41289 0.857-0.11909 0.25279-0.23838 0.50534-0.3552 0.76114-0.0682 0.15114-0.0346 0.0763-0.10093 0.22463-1.2449 2.7837-1.711 2.1889-0.46608-0.59481 0.0686-0.15343 0.0338-0.0759 0.10453-0.23258 0.11934-0.26127 0.24114-0.51927 0.36281-0.77745 0.13743-0.28817 0.27577-0.5751 0.41482-0.86105 0.15742-0.32643 0.31954-0.64617 0.48727-0.95767 0.17151-0.31417 0.34539-0.62504 0.52935-0.91866 0.17762-0.27931 0.36083-0.55051 0.565-0.77398 0.20078-0.20791 0.4112-0.39366 0.6472-0.45331 0.24362-0.0373 0.47264 0.024 0.68171 0.25264 0.18386 0.21162 0.34661 0.46563 0.49997 0.73758 0.18227 0.31198 0.36136 0.62931 0.54753 0.93478 0.2131 0.34548 0.42702 0.68977 0.64895 1.0192 0.20877 0.31242 0.41564 0.62847 0.62145 0.94644 0.11896 0.18757 0.24181 0.37091 0.34388 0.58603 1.2592 2.7653 0.79618 3.3669-0.46299 0.60165z" enable-background="new" opacity=".826" style="paint-order:markers fill stroke"/>
    <path d="m-422.12 352.21c0.0256 0.41443 0.0398 0.83052 0.054 1.2464 0.0264 0.80693 0.0432 1.6146 0.0592 2.4223 0.0177 0.91046 0.0314 1.8211 0.0437 2.7318 0.0124 0.91817 0.0222 1.8364 0.0242 2.7548 4e-3 0.9003-9e-3 1.8004-0.024 2.7002-0.0148 0.88765-0.0489 1.7738-0.0848 2.6596-0.0334 0.80236-0.0681 1.6046-0.10075 2.407-0.0289 0.70521-0.0535 1.4109-0.076 2.1168-0.0193 0.61583-0.0353 1.232-0.0505 1.8481-0.0122 0.50377-0.0224 1.0077-0.0317 1.5116-7e-3 0.39455-0.0136 0.78916-0.0195 1.1838-4e-3 0.29906-8e-3 0.59815-0.0118 0.89725-3e-3 0.22699-5e-3 0.45398-7e-3 0.68097-6.2e-4 0.0953-2e-3 0.19073-2e-3 0.28609-0.0283 3.4884-0.61239 3.4749-0.58408-0.0136 6.2e-4 -0.0959 1e-3 -0.19183 2e-3 -0.28775 2e-3 -0.22853 4e-3 -0.45703 7e-3 -0.68553 4e-3 -0.30086 7e-3 -0.60171 0.0119-0.90253 6e-3 -0.39659 0.0123-0.79316 0.0196-1.1897 9e-3 -0.5073 0.0196-1.0146 0.0319-1.5217 0.0153-0.62017 0.0314-1.2403 0.0508-1.8601 0.0227-0.7108 0.0475-1.4214 0.0766-2.1315 0.0327-0.80233 0.0673-1.6044 0.10074-2.4067 0.0354-0.87239 0.0691-1.7452 0.0837-2.6194 0.0146-0.88957 0.0272-1.7793 0.0238-2.6693-2e-3 -0.91209-0.0116-1.824-0.024-2.7358-0.0123-0.90721-0.026-1.8144-0.0435-2.7214-0.0159-0.79961-0.0325-1.5993-0.0586-2.3981-0.0138-0.40371-0.0276-0.80766-0.0524-1.21-0.1958-3.473 0.3857-3.5666 0.5815-0.0935z" enable-background="new" opacity=".826" style="paint-order:markers fill stroke"/>
    <path d="m-425.56 379.04c0.0846 0.16911 0.18383 0.31553 0.27946 0.4663 0.20213 0.31205 0.40519 0.62245 0.61018 0.92914 0.22777 0.33809 0.4474 0.69132 0.66612 1.0459 0.1901 0.31139 0.3728 0.63523 0.55879 0.95354 0.12832 0.21835 0.25551 0.44249 0.40904 0.61061 0.0929 0.0976 0.18831 0.11884 0.29391 0.0918 0.14687-0.0524 0.27747-0.17958 0.40345-0.31207 0.17073-0.19089 0.32416-0.42064 0.47348-0.65606 0.17308-0.2768 0.33669-0.5698 0.49817-0.86571 0.15959-0.29672 0.31397-0.60103 0.46378-0.91189 0.13841-0.28461 0.27611-0.57019 0.4129-0.85701 0.11908-0.25279 0.23837-0.50534 0.35519-0.76114 0.0682-0.15114 0.0346-0.0763 0.10093-0.22463 1.2449-2.7837 1.711-2.1889 0.46609 0.5948-0.0686 0.15344-0.0338 0.0759-0.10454 0.23259-0.11934 0.26127-0.24114 0.51928-0.3628 0.77745-0.13744 0.28818-0.27578 0.5751-0.41483 0.86105-0.15742 0.32643-0.31954 0.64616-0.48727 0.95766-0.17151 0.31418-0.34539 0.62505-0.52935 0.91867-0.17762 0.27931-0.36083 0.5505-0.565 0.77398-0.20078 0.2079-0.41119 0.39366-0.6472 0.4533-0.24361 0.0373-0.47264-0.024-0.68171-0.25264-0.18386-0.21161-0.34661-0.46563-0.49997-0.73757-0.18227-0.31198-0.36136-0.62932-0.54753-0.93478-0.2131-0.34548-0.42702-0.68977-0.64895-1.0192-0.20877-0.31242-0.41563-0.62846-0.62145-0.94642-0.11896-0.18757-0.24181-0.37091-0.34388-0.58604-1.2592-2.7653-0.79618-3.3669 0.46299-0.60165z" enable-background="new" opacity=".826" style="paint-order:markers fill stroke"/>
   </g>
   <path d="m-438.8 368.87c0.0256 0.17917 0.0398 0.35907 0.054 0.53886 0.0264 0.34887 0.0432 0.69807 0.0592 1.0472 0.0177 0.39363 0.0314 0.78735 0.0437 1.1811 0.0124 0.39697 0.0222 0.79396 0.0242 1.191 4e-3 0.38924-9e-3 0.77837-0.024 1.1674-0.0148 0.38376-0.0489 0.76689-0.0848 1.1498-0.0334 0.3469-0.0681 0.69372-0.10075 1.0406-0.0289 0.30489-0.0535 0.60999-0.076 0.91517-0.0193 0.26626-0.0353 0.53263-0.0505 0.79902-0.0122 0.21781-0.0224 0.43567-0.0317 0.65355-7e-3 0.17057-0.0136 0.34118-0.0195 0.5118-4e-3 0.12929-8e-3 0.2586-0.0118 0.38792-3e-3 0.0981-5e-3 0.19627-7e-3 0.29441-6.2e-4 0.0412-2e-3 0.0825-2e-3 0.12369-0.0283 1.5082-0.61239 1.5023-0.58408-6e-3 6.2e-4 -0.0414 1e-3 -0.0829 2e-3 -0.12441 2e-3 -0.0988 4e-3 -0.19759 7e-3 -0.29638 4e-3 -0.13008 7e-3 -0.26014 0.0119-0.3902 6e-3 -0.17147 0.0123-0.34292 0.0196-0.51435 9e-3 -0.21933 0.0196-0.43865 0.0319-0.6579 0.0153-0.26812 0.0314-0.53622 0.0508-0.80421 0.0227-0.30731 0.0475-0.61453 0.0766-0.92156 0.0327-0.34688 0.0673-0.69367 0.10074-1.0405 0.0354-0.37717 0.0691-0.75452 0.0837-1.1325 0.0146-0.38461 0.0272-0.76928 0.0238-1.1541-2e-3 -0.39434-0.0116-0.7886-0.024-1.1828-0.0123-0.39223-0.026-0.78444-0.0435-1.1766-0.0159-0.34571-0.0325-0.69143-0.0586-1.0368-0.0138-0.17455-0.0276-0.34919-0.0524-0.52313-0.1958-1.5015 0.3857-1.542 0.5815-0.0404z" enable-background="new" opacity=".826" stroke-width=".15368" style="paint-order:markers fill stroke"/>
   <path d="m-436.5 368.55c-0.0846-0.16911-0.18383-0.31552-0.27946-0.46629-0.20213-0.31206-0.40519-0.62246-0.61018-0.92915-0.22777-0.33808-0.4474-0.69132-0.66612-1.0459-0.19009-0.3114-0.3728-0.63523-0.55879-0.95355-0.12832-0.21835-0.25551-0.44248-0.40903-0.6106-0.0929-0.0976-0.18832-0.11884-0.29392-0.0918-0.14687 0.0524-0.27747 0.17959-0.40345 0.31207-0.17073 0.19088-0.32416 0.42063-0.47347 0.65606-0.17309 0.27681-0.3367 0.56979-0.49818 0.86572-0.15959 0.2967-0.31397 0.60102-0.46378 0.91189-0.13841 0.2846-0.27611 0.57017-0.41289 0.857-0.11909 0.25279-0.23838 0.50534-0.3552 0.76114-0.0682 0.15114-0.0346 0.0763-0.10093 0.22463-1.2449 2.7837-1.711 2.1889-0.46608-0.59481 0.0686-0.15343 0.0338-0.0759 0.10453-0.23258 0.11934-0.26127 0.24114-0.51927 0.36281-0.77745 0.13743-0.28817 0.27577-0.5751 0.41482-0.86105 0.15742-0.32643 0.31954-0.64617 0.48727-0.95767 0.17151-0.31417 0.34539-0.62504 0.52935-0.91866 0.17762-0.27931 0.36083-0.55051 0.565-0.77398 0.20078-0.20791 0.4112-0.39366 0.6472-0.45331 0.24362-0.0373 0.47264 0.024 0.68171 0.25264 0.18386 0.21162 0.34661 0.46563 0.49997 0.73758 0.18227 0.31198 0.36136 0.62931 0.54753 0.93478 0.2131 0.34548 0.42702 0.68977 0.64895 1.0192 0.20877 0.31242 0.41564 0.62847 0.62145 0.94644 0.11896 0.18757 0.24181 0.37091 0.34388 0.58603 1.2592 2.7653 0.79618 3.3669-0.46299 0.60165z" enable-background="new" opacity=".826" stroke-width=".23373" style="paint-order:markers fill stroke"/>
   <path d="m-442.3 379.46c0.0846 0.16911 0.18383 0.31553 0.27946 0.4663 0.20213 0.31205 0.40519 0.62245 0.61018 0.92914 0.22777 0.33809 0.4474 0.69132 0.66612 1.0459 0.1901 0.31139 0.3728 0.63523 0.55879 0.95354 0.12832 0.21835 0.25551 0.44249 0.40904 0.61061 0.0929 0.0976 0.18831 0.11884 0.29391 0.0918 0.14687-0.0524 0.27747-0.17958 0.40345-0.31207 0.17073-0.19089 0.32416-0.42064 0.47348-0.65606 0.17308-0.2768 0.33669-0.5698 0.49817-0.86571 0.15959-0.29672 0.31397-0.60103 0.46378-0.91189 0.13841-0.28461 0.27611-0.57019 0.4129-0.85701 0.11908-0.25279 0.23837-0.50534 0.35519-0.76114 0.0682-0.15114 0.0346-0.0763 0.10093-0.22463 1.2449-2.7837 1.711-2.1889 0.46609 0.5948-0.0686 0.15344-0.0338 0.0759-0.10454 0.23259-0.11934 0.26127-0.24114 0.51928-0.3628 0.77745-0.13744 0.28818-0.27578 0.5751-0.41483 0.86105-0.15742 0.32643-0.31954 0.64616-0.48727 0.95766-0.17151 0.31418-0.34539 0.62505-0.52935 0.91867-0.17762 0.27931-0.36083 0.5505-0.565 0.77398-0.20078 0.2079-0.41119 0.39366-0.6472 0.4533-0.24361 0.0373-0.47264-0.024-0.68171-0.25264-0.18386-0.21161-0.34661-0.46563-0.49997-0.73757-0.18227-0.31198-0.36136-0.62932-0.54753-0.93478-0.2131-0.34548-0.42702-0.68977-0.64895-1.0192-0.20877-0.31242-0.41563-0.62846-0.62145-0.94642-0.11896-0.18757-0.24181-0.37091-0.34388-0.58604-1.2592-2.7653-0.79618-3.3669 0.46299-0.60165z" enable-background="new" opacity=".826" stroke-width=".23373" style="paint-order:markers fill stroke"/>
   <path d="m-409.01 386.04c0.0256 0.12878 0.0398 0.25807 0.054 0.38729 0.0264 0.25074 0.0432 0.50172 0.0592 0.75269 0.0177 0.28291 0.0314 0.56589 0.0437 0.84888 0.0124 0.28531 0.0222 0.57064 0.0242 0.85601 4e-3 0.27976-9e-3 0.55944-0.024 0.83907-0.0148 0.27582-0.0489 0.55118-0.0848 0.82642-0.0334 0.24933-0.0681 0.4986-0.10075 0.74794-0.0289 0.21914-0.0535 0.43842-0.076 0.65776-0.0193 0.19137-0.0353 0.38282-0.0505 0.57428-0.0122 0.15654-0.0224 0.31312-0.0317 0.46971-7e-3 0.12261-0.0136 0.24522-0.0195 0.36785-4e-3 0.0929-8e-3 0.18586-0.0118 0.27881-3e-3 0.0705-5e-3 0.14107-7e-3 0.2116-6.1e-4 0.0297-2e-3 0.0593-2e-3 0.0889-0.0283 1.084-0.61239 1.0798-0.58408-4e-3 6.1e-4 -0.0298 1e-3 -0.0596 2e-3 -0.0894 2e-3 -0.071 4e-3 -0.14201 7e-3 -0.21301 4e-3 -0.0935 7e-3 -0.18697 0.0119-0.28045 6e-3 -0.12323 0.0123-0.24646 0.0196-0.36967 9e-3 -0.15765 0.0196-0.31527 0.0319-0.47285 0.0153-0.19271 0.0314-0.3854 0.0508-0.57801 0.0227-0.22087 0.0475-0.44168 0.0766-0.66234 0.0327-0.24932 0.0673-0.49857 0.10074-0.74785 0.0354-0.2711 0.0691-0.54231 0.0837-0.81396 0.0146-0.27643 0.0272-0.5529 0.0238-0.82945-2e-3 -0.28342-0.0116-0.56679-0.024-0.85013-0.0123-0.2819-0.026-0.5638-0.0435-0.84562-0.0159-0.24847-0.0325-0.49695-0.0586-0.74519-0.0138-0.12545-0.0276-0.25097-0.0524-0.37598-0.1958-1.0792 0.3857-1.1083 0.5815-0.029z" enable-background="new" opacity=".826" stroke-width=".13029" style="paint-order:markers fill stroke"/>
   <path d="m-407 387c-0.0846-0.16911-0.18383-0.31552-0.27946-0.46629-0.20213-0.31206-0.40519-0.62246-0.61018-0.92915-0.22777-0.33808-0.4474-0.69132-0.66612-1.0459-0.19009-0.3114-0.3728-0.63523-0.55879-0.95355-0.12832-0.21835-0.25551-0.44248-0.40903-0.6106-0.0929-0.0976-0.18832-0.11884-0.29392-0.0918-0.14687 0.0524-0.27747 0.17959-0.40345 0.31207-0.17073 0.19088-0.32416 0.42063-0.47347 0.65606-0.17309 0.27681-0.3367 0.56979-0.49818 0.86572-0.15959 0.2967-0.31397 0.60102-0.46378 0.91189-0.13841 0.2846-0.27611 0.57017-0.41289 0.857-0.11909 0.25279-0.23838 0.50534-0.3552 0.76114-0.0682 0.15114-0.0346 0.0763-0.10093 0.22463-1.2449 2.7837-1.711 2.1889-0.46608-0.59481 0.0686-0.15343 0.0338-0.0759 0.10453-0.23258 0.11934-0.26127 0.24114-0.51927 0.36281-0.77745 0.13743-0.28817 0.27577-0.5751 0.41482-0.86105 0.15742-0.32643 0.31954-0.64617 0.48727-0.95767 0.17151-0.31417 0.34539-0.62504 0.52935-0.91866 0.17762-0.27931 0.36083-0.55051 0.565-0.77398 0.20078-0.20791 0.4112-0.39366 0.6472-0.45331 0.24362-0.0373 0.47264 0.024 0.68171 0.25264 0.18386 0.21162 0.34661 0.46563 0.49997 0.73758 0.18227 0.31198 0.36136 0.62931 0.54753 0.93478 0.2131 0.34548 0.42702 0.68977 0.64895 1.0192 0.20877 0.31242 0.41564 0.62847 0.62145 0.94644 0.11896 0.18757 0.24181 0.37091 0.34388 0.58603 1.2592 2.7653 0.79618 3.3669-0.46299 0.60165z" enable-background="new" opacity=".826" stroke-width=".23373" style="paint-order:markers fill stroke"/>
   <path d="m-412.51 393.66c0.0846 0.16911 0.18383 0.31553 0.27946 0.4663 0.20213 0.31205 0.40519 0.62245 0.61018 0.92914 0.22777 0.33809 0.4474 0.69132 0.66612 1.0459 0.1901 0.31139 0.3728 0.63523 0.55879 0.95354 0.12832 0.21835 0.25551 0.44249 0.40904 0.61061 0.0929 0.0976 0.18831 0.11884 0.29391 0.0918 0.14687-0.0524 0.27747-0.17958 0.40345-0.31207 0.17073-0.19089 0.32416-0.42064 0.47348-0.65606 0.17308-0.2768 0.33669-0.5698 0.49817-0.86571 0.15959-0.29672 0.31397-0.60103 0.46378-0.91189 0.13841-0.28461 0.27611-0.57019 0.4129-0.85701 0.11908-0.25279 0.23837-0.50534 0.35519-0.76114 0.0682-0.15114 0.0346-0.0763 0.10093-0.22463 1.2449-2.7837 1.711-2.1889 0.46609 0.5948-0.0686 0.15344-0.0338 0.0759-0.10454 0.23259-0.11934 0.26127-0.24114 0.51928-0.3628 0.77745-0.13744 0.28818-0.27578 0.5751-0.41483 0.86105-0.15742 0.32643-0.31954 0.64616-0.48727 0.95766-0.17151 0.31418-0.34539 0.62505-0.52935 0.91867-0.17762 0.27931-0.36083 0.5505-0.565 0.77398-0.20078 0.2079-0.41119 0.39366-0.6472 0.4533-0.24361 0.0373-0.47264-0.024-0.68171-0.25264-0.18386-0.21161-0.34661-0.46563-0.49997-0.73757-0.18227-0.31198-0.36136-0.62932-0.54753-0.93478-0.2131-0.34548-0.42702-0.68977-0.64895-1.0192-0.20877-0.31242-0.41563-0.62846-0.62145-0.94642-0.11896-0.18757-0.24181-0.37091-0.34388-0.58604-1.2592-2.7653-0.79618-3.3669 0.46299-0.60165z" enable-background="new" opacity=".826" stroke-width=".23373" style="paint-order:markers fill stroke"/>
  </g>
  <g>
   <g transform="scale(.93647 1.0678)" style="font-variant-caps:normal;font-variant-east-asian:normal;font-variant-ligatures:normal;font-variant-numeric:normal" aria-label="X">
    <path d="m-440.43 395.9q0-0.0592 0.0508-0.11848 0.0508-0.0592 0.11848-0.0592 0.14386 0 0.47389 0.27926 0.33849 0.27079 1.0578 0.97317 1.3201 1.2778 1.337 1.2778 8e-3 0 0.38081-0.60083 0.32157-0.52466 0.81239-1.0578 0.49927-0.54159 0.66006-0.54159 0.22002 0 0.22002 0.17771 0 0.27926-0.52467 0.82931-0.23694 0.25387-0.64313 1.0916l-0.4062 0.83777 0.37235 0.4062q0.2454 0.27079 0.75314 0.74468 0.51621 0.46543 0.79547 0.787 0.28772 0.31311 0.28772 0.49928 0 0.1354-0.14386 0.2031-0.1354 0.0677-0.21156 0.0677-0.14386 0-0.37235-0.19464-0.22848-0.20309-0.81238-0.80392l-1.0155-1.0578-0.2708 0.43158q-0.18617 0.30464-0.39773 0.69391-0.2031 0.38927-0.32157 0.60083-0.11001 0.21155-0.15232 0.23694-0.0423 0.0423-0.16079 0.2708-0.11001 0.22002-0.26233 0.37234-0.15232 0.16078-0.34695 0.16078-0.11848 0-0.17771-0.0762-0.0592-0.0677-0.0592-0.11847 0-0.23695 0.76161-1.5994 0.76161-1.3709 0.76161-1.5148 0-0.18618-0.40619-0.66007-0.39773-0.48235-0.88008-0.95624-0.4739-0.48236-0.88009-0.94779-0.39773-0.46543-0.39773-0.63467z" stroke-width=".21156" style="font-variant-caps:normal;font-variant-east-asian:normal;font-variant-ligatures:normal;font-variant-numeric:normal"/>
   </g>
   <g transform="scale(.93647 1.0678)" style="font-variant-caps:normal;font-variant-east-asian:normal;font-variant-ligatures:normal;font-variant-numeric:normal" aria-label="Y">
    <path d="m-563.65 293.36q0-0.49082 0.17771-0.49082 0.0508 0 0.27079 0.11847 0.17771 0.11002 0.17771 0.28772 0 0.53313-0.52466 1.5825-0.52467 1.0409-0.87163 1.464-0.14386 0.17771-0.22848 0.31311-0.0762 0.12693-0.1354 0.26233-0.0508 0.12694-0.23694 0.59236-0.18617 0.46543-0.4062 0.98164l-0.68545 1.6417q-0.11847 0.2708-0.30464 0.2708-0.11001 0-0.21156-0.10155-0.0931-0.10155-0.0931-0.22848 0-0.34696 0.93932-2.3272l0.49927-1.0663-1.3963-1.4217q-0.96471-0.98163-1.2694-1.3286-0.29618-0.34696-0.29618-0.50774 0-0.0762 0.0508-0.14386 0.0508-0.0762 0.12693-0.0762 0.1354 0 0.49928 0.33003 0.36388 0.32157 1.3455 1.3117 1.0578 1.0409 1.2017 1.0409 0.0931 0 0.17771-0.0677 0.0931-0.0677 0.19463-0.2454 0.11001-0.17771 0.2031-0.36388 0.10155-0.19464 0.28772-0.55852 0.19463-0.36388 0.37234-0.68545 0.1354-0.2708 0.1354-0.5839z" stroke-width=".21156" style="font-variant-caps:normal;font-variant-east-asian:normal;font-variant-ligatures:normal;font-variant-numeric:normal"/>
   </g>
   <path d="m-515.87 409.12c5e-3 0.10506 0.60172 1.1106 0.66018 1.2004 0.13508 0.17775 0.35023 0.28577 0.5615 0.38553 0.28841 0.13168 0.60546 0.19314 0.92428 0.24066 0.30342 0.0393 0.60933 0.0679 0.91266 0.0187 0.26082-0.0484 0.48787-0.16133 0.68493-0.31303 0.21172-0.18099 0.34159-0.41122 0.45079-0.64667 0.11962-0.27161 0.16753-0.55901 0.19907-0.84654 0.0281-0.29971 0.0182-0.60057 5e-3 -0.90058-5e-3 -0.27024-0.0342-0.53579-0.12599-0.79458-0.0887-0.21115-0.24685-0.37401-0.45953-0.49908-0.31576-0.15145-0.67635-0.19983-1.0296-0.24057-1.7248-0.0855-3.0154 0.80239-3.0317 1.4538-0.0122 0.50342-0.0804 0.56918-0.19266-1.3464-0.93579-0.72516 0.39236-2.9722 1.4-3.7444 0.70334-0.53949 1.8572-1.2025 2.5876-1.1831 1.2926 0.0584 2.8019 0.71915-0.0212 0.59508-3.1132 1.0275-3.3132 2.6542-3.2369 4.6647-1.235 0.0806 0.8194-0.78962 1.2291-0.9307 0.44294-0.12979 0.89431-0.15909 1.3586-0.0989 0.46498 0.0549 0.93422 0.12922 1.3391 0.34647 0.33176 0.21041 0.58696 0.47104 0.71938 0.81285 0.10443 0.3073 0.15033 0.62063 0.1544 0.94102 0.0152 0.32693 0.0248 0.65478-7e-3 0.9813-0.0389 0.34455-0.10023 0.68822-0.2463 1.0128-0.15253 0.32206-0.33975 0.63198-0.63833 0.87305-0.29762 0.21863-0.63261 0.38468-1.021 0.45027-0.38325 0.0532-0.76584 0.0375-1.1484-0.019-0.39443-0.0598-0.7851-0.14121-1.1405-0.3065-0.32649-0.15744-0.64035-0.33833-0.83419-0.62299-0.87719-0.96358-1.0869-2.2564-0.99092-2.652 0.10851-0.4473 0.10742-1.6436 0.19437-1.9199 0.48909-1.5544 0.85305 0.25138 0.57805 1.8868z" stroke="#000" stroke-linecap="square" stroke-width=".3" style="paint-order:markers fill stroke"/>
   <path d="m-436.6 401.87c-0.18703 0-0.37414 6e-3 -0.56097 0.0178-0.28946 0.0239-0.58178 0.0534-0.85823 0.17339-0.21976 0.11099-0.42198 0.25665-0.51887 0.54666-0.043 0.16063-0.0648 0.32252-0.0572 0.49277 0 2.4625 0.54843 2.4625 0.54843 0 1e-3 -0.0836-9e-3 -0.17412 0.0229-0.25063 0.0488-0.0758 0.13291-0.10666 0.20252-0.13922 0.2251-0.089 0.46165-0.10896 0.69548-0.12776 0.35927-0.0227 0.71911-0.0175 1.0786-0.0107 0.35726 8e-3 0.71449 0.0224 1.0716 0.0367 0.26172 0.0107 0.52347 0.0217 0.78521 0.032 0.0307-0.0197 0.10523 0 0.15758 0.0153-0.0149 0.032-5e-3 0.1421-8e-3 0.17339-0.0262 0.20806-0.0879 0.4055-0.15039 0.59954-0.0984 0.30017-0.21581 0.5894-0.32818 0.88132-0.13257 0.33724-0.26387 0.67514-0.39037 1.0161-0.12055 0.32104-0.23873 0.64372-0.34908 0.97068-0.0879 0.26254-0.17093 0.52743-0.25582 0.79157-0.0422 0.12834-0.0778 0.25962-0.10912 0.39239-0.0976-7e-3 -0.19523-0.0141-0.29277-0.023-0.19088-0.0175-0.38197-0.0343-0.57198-0.0639-1.9195-0.34825-1.9971 0.34126-0.0775 0.68949 0.2026 0.0324 0.40631 0.0505 0.60992 0.0691 0.07 6e-3 0.14002 0.011 0.21005 0.0163-0.0231 0.17747-0.0435 0.35551-0.0602 0.53416-0.0247 0.2767-0.0401 0.55454-0.0521 0.8325-6e-3 0.1537-4e-3 0.0786-8e-3 0.2256-0.0749 2.4607 0.47325 2.4874 0.5481 0.0267 4e-3 -0.13967 1e-3 -0.0681 7e-3 -0.21435 0.0113-0.26352 0.0258-0.52691 0.0491-0.78923 0.0179-0.19363 0.0405-0.38644 0.0668-0.57852 0.0146 0 0.0292 3e-3 0.0438 3e-3 0.10888 6e-3 0.21791 0.0104 0.32685 0.015 1.938 0.0791 1.9556-0.61702 0.0176-0.69607-0.0833-4e-3 -0.16656-8e-3 -0.24983-0.0117 0.0154-0.0552 0.0317-0.11006 0.0495-0.16424 0.0837-0.26045 0.16564-0.52182 0.25232-0.78074 0.10763-0.31943 0.22341-0.6343 0.34105-0.94798 0.12533-0.33794 0.25554-0.67271 0.38684-1.007 0.11783-0.30607 0.24093-0.60937 0.34357-0.92439 0.0812-0.2541 0.15873-0.51327 0.18766-0.78669 0.0205-0.26428 0.0164-0.52657-0.12416-0.74171-0.16268-0.17747-0.34149-0.2279-0.55361-0.219-0.26154-0.0102-0.52302-0.0209-0.78455-0.0318-0.3602-0.0144-0.72048-0.0292-1.0808-0.0371-0.18697-4e-3 -0.37393-7e-3 -0.56096-6e-3z" stroke="#000" stroke-linecap="square" stroke-width=".3" style="paint-order:markers fill stroke"/>
  </g>
 </g>
</svg>
