<?xml version="1.0" encoding="UTF-8" standalone="no"?>
<svg
   xmlns:dc="http://purl.org/dc/elements/1.1/"
   xmlns:cc="http://creativecommons.org/ns#"
   xmlns:rdf="http://www.w3.org/1999/02/22-rdf-syntax-ns#"
   xmlns:svg="http://www.w3.org/2000/svg"
   xmlns="http://www.w3.org/2000/svg"
   xmlns:sodipodi="http://sodipodi.sourceforge.net/DTD/sodipodi-0.dtd"
   xmlns:inkscape="http://www.inkscape.org/namespaces/inkscape"
   width="143.97084mm"
   height="147.90662mm"
   viewBox="0 0 143.97084 147.90662"
   version="1.1"
   id="svg931"
   inkscape:version="1.0 (4035a4fb49, 2020-05-01)"
   sodipodi:docname="infraindividual.svg">
  <defs
     id="defs925" />
  <sodipodi:namedview
     id="base"
     pagecolor="#ffffff"
     bordercolor="#666666"
     borderopacity="1.0"
     inkscape:pageopacity="0.0"
     inkscape:pageshadow="2"
     inkscape:zoom="1.2162819"
     inkscape:cx="279.75897"
     inkscape:cy="294.33254"
     inkscape:document-units="mm"
     inkscape:current-layer="layer1"
     inkscape:document-rotation="0"
     showgrid="false"
     inkscape:window-width="1496"
     inkscape:window-height="866"
     inkscape:window-x="0"
     inkscape:window-y="34"
     inkscape:window-maximized="0" />
  <metadata
     id="metadata928">
    <rdf:RDF>
      <cc:Work
         rdf:about="">
        <dc:format>image/svg+xml</dc:format>
        <dc:type
           rdf:resource="http://purl.org/dc/dcmitype/StillImage" />
        <dc:title></dc:title>
      </cc:Work>
    </rdf:RDF>
  </metadata>
  <g
     inkscape:label="Layer 1"
     inkscape:groupmode="layer"
     id="layer1"
     transform="translate(113.32909,106.45893)">
    <path
       inkscape:export-ydpi="96"
       inkscape:export-xdpi="96"
       id="path847"
       d="M 28.34264,41.14909 C 27.88382,41.05919 25.04753,40.78973 22.03976,40.55052 19.032,40.31134 14.9027,39.97462 12.86353,39.80227 8.7133102,39.45152 2.6385203,38.97898 -1.6886597,38.67034 c -1.58034,-0.11271 -6.00164,-0.24969 -9.8250603,-0.30443 -3.823433,-0.0549 -7.952733,-0.19753 -9.176243,-0.31737 -5.353169,-0.52423 -6.485408,-0.59094 -9.639678,-0.56798 -1.83524,0.0133 -4.045881,0.1085 -4.912521,0.21152 -6.006378,0.71364 -9.132549,0.95102 -13.16186,0.99946 -8.715729,0.10469 -20.139959,0.002 -23.63575,-0.21179 -3.542998,-0.21707 -27.00174,-0.13958 -30.123978,0.0996 -0.86665,0.0664 -3.41097,0.14563 -5.65404,0.17616 -3.00086,0.0409 -4.21434,0.13024 -4.59315,0.33838 -0.73736,0.40514 -1.01501,0.0512 -0.67283,-0.85777 0.14092,-0.3743 0.23639,-0.75007 0.21214,-0.83499 -0.0242,-0.085 0.0361,-0.15443 0.13413,-0.15443 0.098,0 0.30143,-0.44007 0.45206,-0.97797 0.35719,-1.27552 0.86638,-2.55723 2.55601,-6.43393 0.76498,-1.75518 1.5201,-3.5155 1.67804,-3.91184 0.92803,-2.32883 1.59572,-3.94144 3.19675,-7.72073 0.76237,-1.7996 1.70065,-4.06548 2.51504,-6.07364 0.59859,-1.47603 5.960728,-13.5635796 6.301948,-14.2061496 0.0902,-0.16984 1.92519,-4.23028 4.07776,-9.0231474 2.46166,-5.48115 3.87065,-8.839099 3.79759,-9.050541 -0.0715,-0.206978 0.0256,-0.458158 0.2526,-0.653489 0.20281,-0.174519 0.86704,-1.571421 1.47606,-3.104261 0.609009,-1.53284 1.749231,-4.173318 2.533811,-5.86777 2.86209,-6.181098 4.02981,-8.643869 4.189299,-8.835308 0.0896,-0.107612 0.162941,-0.331891 0.162941,-0.498502 0,-0.166568 0.11666,-0.44918 0.259249,-0.627949 0.278799,-0.34953 0.664091,-1.0913 1.826429,-3.51627 0.407072,-0.849281 1.035471,-2.146361 1.396442,-2.882389 0.36096,-0.736061 0.781029,-1.616231 0.933469,-1.955941 0.15246,-0.339701 0.750821,-1.54415 1.329711,-2.67653 0.578879,-1.13235 1.535991,-3.124311 2.126908,-4.42654 1.586492,-3.49617 2.114003,-4.54732 5.062771,-10.088435 1.476401,-2.774315 2.980071,-5.600097 3.341491,-6.279529 0.361411,-0.679431 1.257761,-2.254448 1.99189,-3.500067 1.56193,-2.650183 2.271101,-4.181252 2.16926,-4.68331 -0.0484,-0.238598 0.0876,-0.4275 0.403961,-0.561094 0.262308,-0.110761 0.482809,-0.319494 0.48999,-0.463841 0.02101,-0.421774 2.083289,-3.756602 3.480308,-5.627765 0.213291,-0.285684 1.106201,-2.034939 1.565981,-3.067849 0.19962,-0.448454 0.775319,-1.546152 1.279329,-2.439324 0.504,-0.893173 1.164151,-2.193935 1.467001,-2.890578 0.302839,-0.696646 1.381929,-2.424738 2.397969,-3.840208 1.01605,-1.415463 2.065671,-2.936893 2.33249,-3.380953 0.266822,-0.44405 0.628031,-0.97773 0.80269,-1.18595 0.17467,-0.20821 0.50772,-0.86403 0.740122,-1.45737 0.6463,-1.65007 0.674928,-1.69646 1.046818,-1.69646 0.221772,0 0.49982,0.32247 0.767401,0.88998 0.653031,1.38505 2.324629,3.75134 4.289761,6.072495 3.234579,3.820609 4.68685,5.980307 6.601528,9.817252 2.224472,4.457765 2.77739,5.505808 3.91028,7.411903 0.639371,1.075754 1.335601,2.150965 1.54718,2.389362 0.211572,0.238394 0.384681,0.530878 0.384681,0.649975 0,0.119094 0.498588,1.149112 1.107969,2.288932 1.27399,2.382895 2.920751,5.964012 4.177152,9.083764 0.895868,2.224575 4.096408,9.41268 4.354409,9.779609 0.362759,0.515922 3.823271,8.408069 4.976021,11.34845 1.9158003,4.886672 2.7867803,6.874751 4.4540603,10.166652 0.83161,1.641938 1.59069,3.12434 1.68685,3.294189 0.0962,0.16985 0.45885,0.864741 0.80595,1.54414 1.47974,2.89641 1.98378,3.869741 2.81436,5.434759 0.74145002,1.397011 2.35523,5.128731 2.59125,5.991942 0.0774,0.28307 0.34902,1.024258 0.60363,1.647079 0.25458,0.6228 0.67119,1.64193 0.9258,2.264751 0.25462,0.6228 0.98491,2.383139 1.62289,3.911838 0.63798,1.528702 1.22247,3.0027514 1.29889,3.2757014 0.0764,0.27292 0.54616,1.406041 1.04389,2.51809 0.49774,1.112007 0.905,2.086907 0.905,2.166417 0,0.23589 2.5240297,5.28314004 4.3589797,8.71657 0.93805,1.75516 1.92541,3.65448 2.19415,4.22065 0.26874,0.56619 0.69683,1.40004 0.95128,1.8529996 0.25446,0.45295 0.70021,1.3331 0.99051,1.9559 0.29031,0.6228 0.82769,1.7346 1.19417,2.47064 0.3665,0.73604 1.08248,2.40372 1.59111,3.70595 0.90051,2.30559 2.71846,6.35508 4.06685,9.05899 0.61531,1.23386 1.57435,2.88965 3.52312,6.08253 0.41767,0.6843 1.0136,1.78091 1.32429,2.43689 1.2351,2.60771 2.03321,3.91757 2.49732,4.0986 0.0926,0.0361 0.11183,0.31557 0.043,0.621 -0.13825,0.61169 -0.49061,0.66723 -2.15759,0.34013 z M 28.7946,38.95982 C 28.50553,38.41388 27.7927,37.02136 27.21053,35.86533 26.62837,34.70931 25.90914,33.36587 25.61222,32.87997 25.3153,32.39406 24.81753,31.57959 24.50603,31.07001 23.1151,28.79457 19.83847,21.99427 18.81947,19.26822 c -0.16176,-0.43278 -0.37531,-0.73117 -0.47454,-0.66306 -0.0992,0.0681 -0.70577,0.0279 -1.34788,-0.0892 -1.84839,-0.33742 -7.7869098,-0.63565 -15.7196697,-0.78946 -8.3603,-0.16211 -41.2792113,-0.12266 -44.4908113,0.0534 -1.17252,0.0642 -4.884719,0.25387 -8.249341,0.4214 -5.659059,0.28177 -6.9166,0.36383 -9.45429,0.61696 -0.509788,0.0508 -2.762139,0.14374 -5.005221,0.20641 -2.243079,0.0625 -4.57885,0.15986 -5.190598,0.21596 -3.41739,0.31332 -9.79369,0.50977 -16.498671,0.50827 -4.32386,-7.9e-4 -8.08003,0.0889 -8.71279,0.2083 -1.44325,0.2725 -5.841718,0.27866 -7.088938,0.0104 -0.5343,-0.11511 -1.10351,-0.15302 -1.2649,-0.0842 -0.1614,0.0687 -0.5276,0.69161 -0.81379,1.38405 -0.28618,0.69242 -0.82229,1.98373 -1.19136,2.86961 -0.36906,0.88586 -0.67102,1.6458 -0.67102,1.68879 0,0.0429 -0.71796,1.72702 -1.59548,3.74236 -0.87752,2.01536 -1.72208,3.98854 -1.87681,4.38488 -0.35977,0.92155 -1.34952,3.98646 -1.2957,4.01228 0.17652,0.0849 8.29317,-0.33567 9.30976,-0.48215 1.53714,-0.22149 24.631839,-0.13873 30.004088,0.1075 5.250262,0.2407 23.850782,0.15786 27.741282,-0.12353 1.78426,-0.12906 4.24516,-0.28124 5.468659,-0.33819 1.2235,-0.0571 2.975319,-0.19766 3.89295,-0.31272 1.05419,-0.13224 5.694889,-0.16639 12.605729,-0.0929 11.586942,0.12337 14.3720023,0.21204 17.0548123,0.54292 3.48621,0.42996 11.14613,0.99803 19.1866597,1.42285 3.6381,0.19221 12.42743,0.96784 12.55343,1.10779 0.0248,0.0275 0.85057,0.0738 1.83512,0.10313 l 1.79007,0.0531 z M -99.012322,19.34546 c 2.4402,-0.33012 3.42557,-0.41914 6.02479,-0.54414 1.32546,-0.0638 2.43732,-0.2001 2.4708,-0.30302 0.0335,-0.10303 0.30694,-0.0459 0.60768,0.12692 0.44949,0.25817 1.54388,0.32145 6.149299,0.35563 3.081383,0.0228 6.47841,-0.027 7.54897,-0.11053 3.351893,-0.26196 8.293161,-0.5392 12.047493,-0.67594 1.987029,-0.0724 3.655428,-0.15931 3.707569,-0.19322 0.0521,-0.034 0.970709,-0.11981 2.04126,-0.19097 1.070571,-0.0712 2.61384,-0.17659 3.4295,-0.23439 15.512749,-1.09921 47.4015113,-1.084 71.787801,0.0343 0.73918,0.0341 1.34319,-0.004 1.34221,-0.0849 C 18.14105,17.15342 13.3052,7.4247604 11.16495,3.4813704 10.45816,2.1791204 9.5746002,0.50347044 9.2014502,-0.24231956 l -0.67846,-1.35598004 -2.9276299,-0.23922 c -6.34237998,-0.51823 -8.31332,-0.60205 -18.7775003,-0.79869 -8.457193,-0.15888 -23.933172,-0.13002 -24.834782,0.0465 -0.251629,0.0493 -3.505028,0.14269 -7.22975,0.20767 -8.81606,0.15383 -11.123679,0.22998 -14.928879,0.49262 -7.35393,0.50757 -9.95313,0.63904 -15.57178,0.78755 -8.918659,0.23576004 -15.479191,0.17124004 -17.332881,-0.17041 -2.6342,-0.48554 -2.2171,-0.91769 -4.98916,5.16906 -2.182628,4.79252 -6.318918,14.6237796 -6.318918,15.0190396 0,0.13521 1.41146,0.38926 3.24412,0.58395 0.30587,0.0324 1.265208,-0.0368 2.131848,-0.1541 z m 23.913811,-21.2145796 c 3.51755,-0.10784 9.148421,-0.38568 12.51304,-0.61752 3.364619,-0.23183 8.620101,-0.4705 11.67884,-0.53038 3.05874,-0.0599 8.357251,-0.19729 11.774469,-0.30535 3.417221,-0.10805 8.547561,-0.19772 11.400772,-0.19922 9.152578,-0.004 28.62817032,0.54903 34.0603503,0.96855 1.12164,0.0868 1.62204,0.0557 1.62204,-0.10045 0,-0.12419 -0.59356,-1.59726 -1.31906,-3.27355 -2.46625,-5.6983864 -3.25773,-7.5735674 -4.60648,-10.9138584 l -1.34728998,-3.336618 -0.76631,-0.113231 c -6.73992002,-0.99586 -43.77135132,-1.133991 -58.51169032,-0.21826 -2.698002,0.167611 -13.142881,0.35641 -19.928182,0.360201 -3.56853,0.0021 -7.011519,0.0618 -7.651091,0.132829 l -1.162839,0.12922 -3.88814,8.64294 c -3.33033,7.4029474 -3.84168,8.6613574 -3.5643,8.7717174 0.27062,0.10761 2.34142,0.49381 4.77291,0.89003 0.61188,0.0998 5.157769,0.0123 14.922961,-0.28698 z M -59.24866,-21.204697 c 3.466579,-0.119851 8.722048,-0.319731 11.678838,-0.444191 5.08722,-0.214148 27.511161,-0.294388 30.49474,-0.109079 0.76468,0.0475 3.472608,0.100139 6.017582,0.117059 2.5450103,0.01691 6.1236003,0.16542 7.9524103,0.330052 1.82882,0.164619 3.36403002,0.256159 3.41153002,0.203409 0.15164,-0.168439 -1.91998002,-4.636741 -3.77722002,-8.14715 -0.98853,-1.868411 -2.2641,-4.331941 -2.83462,-5.474491 -0.57051,-1.142559 -1.21831,-2.347 -1.43955,-2.67652 l -0.40224,-0.59916 -19.3405613,-0.0195 c -10.637311,-0.01119 -21.380641,-0.0934 -23.874072,-0.18362 -2.493428,-0.0901 -8.457977,-0.181568 -13.254548,-0.202909 -4.796581,-0.02119 -9.647049,-0.11343 -10.778842,-0.204671 -1.131789,-0.0912 -2.436868,-0.10272 -2.900187,-0.02551 l -0.842402,0.140298 -1.063699,2.306841 c -0.585031,1.268759 -1.12726,2.399509 -1.20495,2.51274 -0.486722,0.709401 -5.556281,12.418581 -5.556281,12.83335 0,0.14573 20.996111,-0.124619 27.714072,-0.356849 z m 50.5996903,-17.751311 c 0.14007,-0.15561 -3.2989503,-8.595299 -5.8835723,-14.438789 -1.501709,-3.395181 -1.96613,-4.275622 -2.26241,-4.289092 -0.205041,-0.0104 -0.706501,-0.048 -1.114319,-0.0861 -5.675749,-0.52978 -5.949479,-0.54715 -14.366841,-0.912561 -3.418879,-0.148389 -14.97067,-0.303109 -21.040439,-0.281789 -1.744271,0.006 -3.437059,0.138761 -4.541771,0.35588 -0.9686,0.19036 -3.13753,0.38394 -4.819838,0.43016 -3.285622,0.0902 -6.408521,0.28239 -6.859,0.421949 -0.152943,0.0474 -0.778592,1.169649 -1.390341,2.493982 -0.611751,1.324318 -1.591932,3.374757 -2.17819,4.556508 -0.586261,1.181722 -1.065929,2.17859 -1.065929,2.215221 0,0.0365 -0.281501,0.604259 -0.625563,1.261439 -0.344048,0.65718 -0.958389,1.889741 -1.365189,2.73903 -0.406799,0.84928 -1.084469,2.246921 -1.505929,3.105861 -0.42146,0.858931 -0.71084,1.62328 -0.64307,1.698559 0.0678,0.0752 0.672399,0.13761 1.343629,0.138541 0.671221,7.94e-4 1.97119,0.10449 2.88881,0.230119 1.014572,0.138901 5.48244,0.234061 11.400772,0.242811 5.352798,0.007 10.983669,0.0702 12.51304,0.138448 3.658079,0.16324 41.3675603,0.144952 41.5161503,-0.02019 z M -60.651402,-59.016857 c 0.65591,-0.0563 2.00569,-0.23785 2.99951,-0.40363 1.487371,-0.24811 3.92258,-0.286602 13.769351,-0.217641 6.57933,0.0462 12.028299,0.12699 12.108841,0.17983 0.0805,0.0528 1.39772,0.153522 2.927088,0.22371 1.529379,0.0702 4.7668,0.23 7.194291,0.35515 2.427489,0.125151 4.451178,0.18582 4.497067,0.134851 0.0459,-0.0509 -0.698907,-1.844451 -1.655117,-3.985541 -0.956201,-2.14108 -1.97255,-4.495101 -2.258541,-5.23113 -0.760259,-1.956607 -3.33556,-7.503575 -4.221761,-9.093295 -0.857268,-1.537793 -0.733258,-1.477751 -3.741308,-1.811388 -0.917631,-0.10178 -7.007299,-0.227264 -13.53262,-0.278871 -6.525321,-0.05158 -12.072771,-0.151662 -12.327671,-0.222342 -0.254889,-0.07066 -1.14128,-0.06933 -1.969738,0.0033 -1.502651,0.131252 -1.507072,0.133347 -1.821011,0.864515 -0.17309,0.40312 -0.96362,1.850533 -1.756751,3.216476 -2.89782,4.990688 -8.72663,16.004466 -8.72663,16.489337 0,0.125989 6.397291,-0.0417 8.515,-0.223092 z m 33.627769,-20.830442 c 0.0521,-0.09355 -0.38318,-0.959531 -0.967189,-1.924405 -1.255879,-2.074917 -2.13096,-3.675367 -3.086928,-5.645804 -2.678592,-5.521046 -4.346702,-8.070955 -7.871971,-12.033226 -0.90379,-1.015836 -2.964759,-3.824226 -3.594711,-4.898366 -0.215009,-0.36662 -0.44337,-0.66773 -0.507479,-0.66913 -0.0641,-10e-4 -0.223139,0.28329 -0.35343,0.63264 -0.1303,0.34936 -0.33079,0.74312 -0.44554,0.87502 -0.114761,0.13191 -0.830649,1.16631 -1.590889,2.29869 -0.76023,1.13237 -1.42933,2.105181 -1.486882,2.161802 -0.0576,0.05663 -0.350488,0.47354 -0.65097,0.926485 -0.30048,0.452953 -0.629759,0.924056 -0.731708,1.046898 -0.10196,0.122845 -0.477351,0.799048 -0.83421,1.502677 -0.356852,0.703631 -1.181592,2.270801 -1.832761,3.482602 -0.651161,1.211801 -1.558131,2.944463 -2.015472,3.850362 -0.457348,0.905901 -1.342718,2.419712 -1.967499,3.364025 -0.624769,0.944318 -1.22863,1.897438 -1.34189,2.118053 -0.113268,0.220615 -0.37396,0.606103 -0.579319,0.856644 -0.396952,0.48429 -0.790461,1.243389 -0.790461,1.52484 0,0.09345 0.896771,0.180538 1.99282,0.193549 17.120611,0.203201 24.473102,0.309402 24.701662,0.356797 0.709589,0.147151 3.870698,0.131043 3.954827,-0.02016 z"
       style="fill:#000000;fill-opacity:1;stroke:#000000;stroke-width:0.2;stroke-miterlimit:4;stroke-dasharray:none;stroke-opacity:1" />
    <text
       inkscape:export-ydpi="96"
       inkscape:export-xdpi="96"
       id="text852"
       y="31.054951"
       x="-67.677078"
       style="font-style:normal;font-variant:normal;font-weight:bold;font-stretch:normal;font-size:6.35px;line-height:1.25;font-family:Purisa;-inkscape-font-specification:'Purisa, Bold';font-variant-ligatures:normal;font-variant-caps:normal;font-variant-numeric:normal;font-variant-east-asian:normal;fill:#000000;fill-opacity:1;stroke:none;stroke-width:0.20189"
       xml:space="preserve"><tspan
         style="font-style:normal;font-variant:normal;font-weight:bold;font-stretch:normal;font-size:6.35px;font-family:Purisa;-inkscape-font-specification:'Purisa, Bold';font-variant-ligatures:normal;font-variant-caps:normal;font-variant-numeric:normal;font-variant-east-asian:normal;stroke-width:0.20189"
         y="31.054951"
         x="-67.677078"
         id="tspan850"
         sodipodi:role="line">Biogén elemek</tspan></text>
    <text
       inkscape:export-ydpi="96"
       inkscape:export-xdpi="96"
       xml:space="preserve"
       style="font-style:normal;font-variant:normal;font-weight:bold;font-stretch:normal;font-size:6.35px;line-height:1.25;font-family:Purisa;-inkscape-font-specification:'Purisa, Bold';font-variant-ligatures:normal;font-variant-caps:normal;font-variant-numeric:normal;font-variant-east-asian:normal;fill:#000000;fill-opacity:1;stroke:none;stroke-width:0.20189"
       x="-57.913971"
       y="10.915378"
       id="text852-4"><tspan
         style="font-style:normal;font-variant:normal;font-weight:bold;font-stretch:normal;font-size:6.35px;font-family:Purisa;-inkscape-font-specification:'Purisa, Bold';font-variant-ligatures:normal;font-variant-caps:normal;font-variant-numeric:normal;font-variant-east-asian:normal;stroke-width:0.20189"
         y="10.915378"
         x="-57.913971"
         id="tspan872"
         sodipodi:role="line">Molekulák</tspan></text>
    <text
       inkscape:export-ydpi="96"
       inkscape:export-xdpi="96"
       xml:space="preserve"
       style="font-style:normal;font-variant:normal;font-weight:bold;font-stretch:normal;font-size:6.35px;line-height:1.25;font-family:Purisa;-inkscape-font-specification:'Purisa, Bold';font-variant-ligatures:normal;font-variant-caps:normal;font-variant-numeric:normal;font-variant-east-asian:normal;fill:#000000;fill-opacity:1;stroke:none;stroke-width:0.20189"
       x="-52.948273"
       y="-25.735531"
       id="text852-4-9-9"><tspan
         style="font-style:normal;font-variant:normal;font-weight:bold;font-stretch:normal;font-size:6.35px;font-family:Purisa;-inkscape-font-specification:'Purisa, Bold';font-variant-ligatures:normal;font-variant-caps:normal;font-variant-numeric:normal;font-variant-east-asian:normal;stroke-width:0.20189"
         y="-25.735531"
         x="-52.948273"
         id="tspan912"
         sodipodi:role="line">Sejtek</tspan></text>
    <text
       inkscape:export-ydpi="96"
       inkscape:export-xdpi="96"
       xml:space="preserve"
       style="font-style:normal;font-variant:normal;font-weight:bold;font-stretch:normal;font-size:6.35px;line-height:1.25;font-family:Purisa;-inkscape-font-specification:'Purisa, Bold';font-variant-ligatures:normal;font-variant-caps:normal;font-variant-numeric:normal;font-variant-east-asian:normal;fill:#000000;fill-opacity:1;stroke:none;stroke-width:0.20189"
       x="-55.202522"
       y="-64.739807"
       id="text852-4-9-5"><tspan
         style="font-style:normal;font-variant:normal;font-weight:bold;font-stretch:normal;font-size:6.35px;font-family:Purisa;-inkscape-font-specification:'Purisa, Bold';font-variant-ligatures:normal;font-variant-caps:normal;font-variant-numeric:normal;font-variant-east-asian:normal;stroke-width:0.20189"
         y="-64.739807"
         x="-55.202522"
         id="tspan932"
         sodipodi:role="line">Szervek</tspan></text>
    <path
       style="opacity:1;fill:#000000;fill-opacity:1;stroke:#fff000;stroke-width:0.272539;stroke-linecap:square;stroke-miterlimit:4;stroke-dasharray:none;stroke-dashoffset:0;stroke-opacity:0;paint-order:markers fill stroke"
       id="path3680-36"
       d="m -43.505028,-49.342815 c -0.0269,-0.242199 -0.0407,-0.486301 -0.0554,-0.730001 -0.0322,-0.384098 -0.0403,-0.7606 0.0247,-1.139399 0.1666,-0.5885 0.58973,-0.892101 1.02778,-1.140899 0.5125,-0.268301 1.05494,-0.370703 1.60875,-0.355801 0.56828,0.04 1.00819,0.285099 1.4293,0.739798 0.37829,0.468202 0.5493,1.073801 0.6648,1.700401 0.1214,0.747501 -0.0233,1.391401 -0.28346,2.064102 -0.30495,0.702998 -0.76166,1.271 -1.22956,1.813398 -0.49322,0.5603 -1.04145,1.039 -1.60609,1.4848 -0.46807,0.3581 -0.96832,0.646001 -1.47665,0.907301 -0.29535,0.153 -0.60053,0.2726 -0.91095,0.369998 -0.22702,0.071 -0.17166,0.111102 -0.1014,-0.636899 8e-5,0 0.23127,-0.028 0.35002,-0.042 0.37652,-0.045 0.754,-0.076 1.13156,-0.103601 0.41353,-0.03 0.82751,-0.049 1.24158,-0.064 0.32443,-0.01101 0.64899,-0.01601 0.97355,-0.01799 0.21977,0 0.43953,0 0.65928,0.01 0.14592,0 0.29184,0.01 0.43775,0.01 0.0652,0 0.0334,0 0.0954,0 1.93858,0.05 1.92696,0.719201 -0.0116,0.669103 v 0 c -0.0621,0 -0.0305,0 -0.0952,0 -0.14472,0 -0.28944,-0.01 -0.43418,-0.01 -0.21641,0 -0.43282,-0.01 -0.64925,-0.01 -0.3199,0 -0.63978,0.01 -0.95953,0.01701 -0.40841,0.015 -0.81672,0.034 -1.2246,0.063 -0.37095,0.027 -0.74183,0.058 -1.11174,0.1017 -0.10081,0.01201 -0.35284,0.05 -0.35601,0.042 -0.28083,-0.630401 -0.33662,-0.597101 -0.0822,-0.677902 0.2845,-0.089 0.56419,-0.1983 0.83481,-0.338799 0.47886,-0.245599 0.95028,-0.516099 1.39156,-0.8524 0.53642,-0.423 1.0575,-0.8768 1.52638,-1.4083 0.41971,-0.4854 0.83319,-0.9905 1.11215,-1.6163 0.20551,-0.5176 0.33883,-1.050801 0.24295,-1.630699 -0.0878,-0.490302 -0.20963,-0.973201 -0.49703,-1.348901 -0.3031,-0.3439 -0.65814,-0.5392 -1.07616,-0.567399 -0.46958,-0.01799 -0.92924,0.072 -1.36494,0.294698 -0.27822,0.154001 -0.58175,0.327001 -0.72195,0.679601 -0.0636,0.310999 -0.0306,0.6273 -0.0129,0.9437 0.0134,0.2233 0.0263,0.447 0.0494,0.669099 0.31878,2.3338 -0.2222,2.4438 -0.54097,0.110101 z"
       inkscape:connector-curvature="0" />
    <path
       style="opacity:1;fill:#000000;fill-opacity:1;stroke:#fff000;stroke-width:6.23229;stroke-linecap:square;stroke-miterlimit:4;stroke-dasharray:none;stroke-dashoffset:0;stroke-opacity:0;paint-order:markers fill stroke"
       id="path3690-7"
       d="m -42.851548,-11.02241 c 0.21984,-0.224001 0.43649,-0.4514 0.65266,-0.679101 0.40674,-0.428 0.78978,-0.878501 1.166,-1.334701 0.34708,-0.416599 0.67368,-0.849699 0.98356,-1.2959 0.1701,-0.249999 0.32938,-0.508098 0.46453,-0.779798 0.12633,-0.275101 0.0487,-0.3452 0.59759,0.062 0.0428,0.032 -0.009,0.1081 -0.0151,0.161999 -0.008,0.068 -0.0169,0.136101 -0.0255,0.2042 -0.09,0.636899 -0.18794,1.272601 -0.27429,1.910201 -0.10567,0.783799 -0.18644,1.5708 -0.25698,2.3587 -0.0516,0.585899 -0.0889,1.172901 -0.1144,1.760598 -0.0875,2.016602 -0.64364,1.991202 -0.55611,-0.025 v 0 c 0.026,-0.596601 0.0637,-1.192601 0.11618,-1.7874 0.0713,-0.796701 0.15305,-1.592501 0.25994,-2.3851 0.0861,-0.635601 0.18358,-1.269302 0.2735,-1.904302 0.008,-0.062 0.0163,-0.124899 0.0235,-0.187499 0.005,-0.044 -0.0296,-0.124799 0.0131,-0.1333 0.68173,-0.1353 0.57957,-0.061 0.45397,0.2256 -0.14819,0.2961 -0.32041,0.578501 -0.50673,0.851 -0.31893,0.458899 -0.65487,0.904701 -1.01194,1.3334 -0.38466,0.466201 -0.77628,0.9267 -1.19209,1.364101 -0.21793,0.229598 -0.43631,0.458698 -0.65789,0.684599 -1.39168,1.427401 -1.7853,1.0237 -0.39364,-0.403701 z"
       inkscape:connector-curvature="0" />
    <path
       style="opacity:1;fill:#000000;fill-opacity:1;stroke:#fff000;stroke-width:0.270677;stroke-linecap:square;stroke-miterlimit:4;stroke-dasharray:none;stroke-dashoffset:0;stroke-opacity:0;paint-order:markers fill stroke"
       id="path3682-62"
       d="m -44.400752,-91.08949 c -0.0826,-0.1881 -0.134901,-0.3915 -0.181229,-0.5959 -0.0853,-0.3527 -0.102463,-0.7123 -0.0786,-1.0763 0.035,-0.4222 0.179811,-0.776 0.419632,-1.0804 0.281861,-0.3021 0.64066,-0.4131 1.002811,-0.4894 0.39483,-0.071 0.77996,0.011 1.15307,0.1647 0.341199,0.1531 0.61336,0.4255 0.843878,0.7575 0.189891,0.2939 0.295021,0.6377 0.359492,0.9976 0.0464,0.2971 0.0413,0.5991 0.02119,0.8989 -0.01551,0.2052 -0.0471,0.4079 -0.0859,0.6084 -0.01209,0.037 -0.01471,0.077 -0.02519,0.1146 -0.004,0.012 0.009,-0.024 0.007,-0.036 -0.007,-0.057 -0.0011,-0.1233 -0.0308,-0.1697 -0.0905,-0.1455 -0.11797,-0.1418 -0.21195,-0.158 0.18887,-0.057 0.379301,-0.1063 0.570251,-0.1523 0.31224,-0.073 0.627301,-0.1269 0.942898,-0.1739 0.282401,-0.049 0.565682,-0.068 0.849871,-0.037 0.36548,0.054 0.542621,0.2582 0.68842,0.654 0.128629,0.4997 0.14102,1.0283 0.138731,1.5474 -0.008,0.6078 -0.120491,1.198204 -0.2892,1.768004 -0.174141,0.5459 -0.450061,1.0198 -0.781621,1.442 -0.307269,0.3789 -0.690939,0.6198 -1.097601,0.8043 -0.326628,0.1397 -0.668848,0.1958 -1.013489,0.2105 -0.267898,0.01 -0.53435,-0.033 -0.79916,-0.077 -0.23912,-0.03 -0.466119,-0.1115 -0.683678,-0.232 -0.20955,-0.1207 -0.36807,-0.3066 -0.49212,-0.5394 -0.0816,-0.1685 -0.121362,-0.3551 -0.14551,-0.546 -0.276511,-2.309904 0.26634,-2.404004 0.542829,-0.094 v 0 c 0.0108,0.1007 0.0293,0.2 0.0681,0.291 0.0624,0.1281 0.146532,0.2237 0.258281,0.2902 0.167389,0.096 0.34316,0.1539 0.52808,0.1766 0.2336,0.039 0.468561,0.074 0.704921,0.071 0.285308,-0.01 0.568769,-0.055 0.839679,-0.169 0.32961,-0.1468 0.642199,-0.3362 0.89235,-0.6411 0.281299,-0.3529 0.51345,-0.752 0.662749,-1.2101 0.150082,-0.498604 0.24783,-1.016604 0.256932,-1.549304 0.003,-0.432 -0.006,-0.8709 -0.0974,-1.2913 -0.0449,-0.157 -0.0815,-0.2309 -0.23254,-0.2485 -0.24452,-0.029 -0.488331,0 -0.731351,0.035 -0.302159,0.045 -0.6038,0.096 -0.902769,0.1662 -0.20202,0.049 -0.402568,0.1044 -0.603459,0.159 -0.32344,0.013 -0.433871,-0.222 -0.347861,-0.5548 0.0329,-0.169 0.0599,-0.3398 0.0734,-0.5128 0.01651,-0.236 0.02299,-0.4741 -0.01119,-0.7086 -0.0433,-0.2561 -0.114389,-0.5021 -0.24603,-0.7137 -0.162611,-0.2422 -0.356971,-0.4402 -0.60121,-0.554 -0.283771,-0.1217 -0.577451,-0.1873 -0.87943,-0.1375 -0.247769,0.05 -0.501711,0.1112 -0.704742,0.3016 -0.158959,0.182 -0.238408,0.4106 -0.264279,0.673 -0.0218,0.2875 -0.006,0.5699 0.0615,0.8486 0.0344,0.1546 0.0726,0.309 0.133281,0.4522 0.928518,2.0488 0.44705,2.3649 -0.48146,0.3161 z"
       inkscape:connector-curvature="0" />
  </g>
</svg>
