<svg width="143.77mm" height="147.71mm" version="1.1" viewBox="0 0 143.77 147.71" xmlns="http://www.w3.org/2000/svg">
 <g transform="translate(38.623 55.71)">
  <path d="m102.95 91.798c-0.45882-0.0899-3.2951-0.35936-6.3029-0.59857-3.0078-0.23918-7.1371-0.5759-9.1762-0.74825-4.1502-0.35075-10.225-0.82329-14.552-1.1319-1.5803-0.11271-6.0016-0.24969-9.8251-0.30443-3.8234-0.0549-7.9527-0.19753-9.1762-0.31737-5.3532-0.52423-6.4854-0.59094-9.6397-0.56798-1.8352 0.0133-4.0459 0.1085-4.9125 0.21152-6.0064 0.71364-9.1325 0.95102-13.162 0.99946-8.7157 0.10469-20.14 2e-3 -23.636-0.21179-3.543-0.21707-27.002-0.13958-30.124 0.0996-0.86665 0.0664-3.411 0.14563-5.654 0.17616-3.0009 0.0409-4.2143 0.13024-4.5932 0.33838-0.73736 0.40514-1.015 0.0512-0.67283-0.85777 0.14092-0.3743 0.23639-0.75007 0.21214-0.83499-0.0242-0.085 0.0361-0.15443 0.13413-0.15443 0.098 0 0.30143-0.44007 0.45206-0.97797 0.35719-1.2755 0.86638-2.5572 2.556-6.4339 0.76498-1.7552 1.5201-3.5155 1.678-3.9118 0.92803-2.3288 1.5957-3.9414 3.1968-7.7207 0.76237-1.7996 1.7006-4.0655 2.515-6.0736 0.59859-1.476 5.9607-13.564 6.302-14.206 0.0902-0.16984 1.9252-4.2303 4.0778-9.0231 2.4617-5.4812 3.8706-8.8391 3.7976-9.0505-0.0715-0.20698 0.0256-0.45816 0.2526-0.65349 0.20281-0.17452 0.86704-1.5714 1.4761-3.1043 0.60901-1.5328 1.7492-4.1733 2.5338-5.8678 2.8621-6.1811 4.0298-8.6439 4.1893-8.8353 0.0896-0.10761 0.16294-0.33189 0.16294-0.4985 0-0.16657 0.11666-0.44918 0.25925-0.62795 0.2788-0.34953 0.66409-1.0913 1.8264-3.5163 0.40707-0.84928 1.0355-2.1464 1.3964-2.8824 0.36096-0.73606 0.78103-1.6162 0.93347-1.9559 0.15246-0.3397 0.75082-1.5442 1.3297-2.6765 0.57888-1.1323 1.536-3.1243 2.1269-4.4265 1.5865-3.4962 2.114-4.5473 5.0628-10.088 1.4764-2.7743 2.9801-5.6001 3.3415-6.2795 0.36141-0.67943 1.2578-2.2544 1.9919-3.5001 1.5619-2.6502 2.2711-4.1813 2.1693-4.6833-0.0484-0.2386 0.0876-0.4275 0.40396-0.56109 0.26231-0.11076 0.48281-0.31949 0.48999-0.46384 0.02101-0.42177 2.0833-3.7566 3.4803-5.6278 0.21329-0.28568 1.1062-2.0349 1.566-3.0678 0.19962-0.44845 0.77532-1.5462 1.2793-2.4393 0.504-0.89317 1.1642-2.1939 1.467-2.8906 0.30284-0.69665 1.3819-2.4247 2.398-3.8402 1.016-1.4155 2.0657-2.9369 2.3325-3.381 0.26682-0.44406 0.62803-0.97773 0.80269-1.186 0.17467-0.20822 0.50772-0.86404 0.74012-1.4574 0.6463-1.6501 0.67493-1.6965 1.0468-1.6965 0.22177 0 0.49982 0.32246 0.7674 0.88998 0.65303 1.385 2.3246 3.7513 4.2898 6.0725 3.2346 3.8206 4.6868 5.9803 6.6015 9.8173 2.2245 4.4578 2.7774 5.5058 3.9103 7.4119 0.63937 1.0758 1.3356 2.151 1.5472 2.3894 0.21157 0.23839 0.38468 0.53088 0.38468 0.64998 0 0.11909 0.49859 1.1491 1.108 2.2889 1.274 2.3829 2.9208 5.964 4.1772 9.0838 0.89587 2.2246 4.0964 9.4127 4.3544 9.7796 0.36276 0.51592 3.8233 8.4081 4.976 11.348 1.9158 4.8867 2.7868 6.8748 4.4541 10.167 0.83161 1.6419 1.5907 3.1243 1.6868 3.2942 0.0962 0.16985 0.45885 0.86474 0.80595 1.5441 1.4797 2.8964 1.9838 3.8697 2.8144 5.4348 0.74145 1.397 2.3552 5.1287 2.5912 5.9919 0.0774 0.28307 0.34902 1.0243 0.60363 1.6471 0.25458 0.6228 0.67119 1.6419 0.9258 2.2648 0.25462 0.6228 0.98491 2.3831 1.6229 3.9118 0.63798 1.5287 1.2225 3.0028 1.2989 3.2757 0.0764 0.27292 0.54616 1.406 1.0439 2.5181 0.49774 1.112 0.905 2.0869 0.905 2.1664 0 0.23589 2.524 5.2831 4.359 8.7166 0.93805 1.7552 1.9254 3.6545 2.1942 4.2206 0.26874 0.56619 0.69683 1.4 0.95128 1.853 0.25446 0.45295 0.70021 1.3331 0.99051 1.9559 0.29031 0.6228 0.82769 1.7346 1.1942 2.4706 0.3665 0.73604 1.0825 2.4037 1.5911 3.706 0.90051 2.3056 2.7185 6.3551 4.0668 9.059 0.61531 1.2339 1.5744 2.8896 3.5231 6.0825 0.41767 0.6843 1.0136 1.7809 1.3243 2.4369 1.2351 2.6077 2.0332 3.9176 2.4973 4.0986 0.0926 0.0361 0.11183 0.31557 0.043 0.621-0.13825 0.61169-0.49061 0.66723-2.1576 0.34013zm0.45196-2.1893c-0.28907-0.54594-1.0019-1.9385-1.5841-3.0945-0.58216-1.156-1.3014-2.4995-1.5983-2.9854-0.29692-0.48591-0.79469-1.3004-1.1062-1.81-1.3909-2.2754-4.6676-9.0757-5.6866-11.802-0.16176-0.43278-0.37531-0.73117-0.47454-0.66306-0.0992 0.0681-0.70577 0.0279-1.3479-0.0892-1.8484-0.33742-7.7869-0.63565-15.72-0.78946-8.3603-0.16211-41.279-0.12266-44.491 0.0534-1.1725 0.0642-4.8847 0.25387-8.2493 0.4214-5.6591 0.28177-6.9166 0.36383-9.4543 0.61696-0.50979 0.0508-2.7621 0.14374-5.0052 0.20641-2.2431 0.0625-4.5788 0.15986-5.1906 0.21596-3.4174 0.31332-9.7937 0.50977-16.499 0.50827-4.3239-7.9e-4 -8.08 0.0889-8.7128 0.2083-1.4432 0.2725-5.8417 0.27866-7.0889 0.0104-0.5343-0.11511-1.1035-0.15302-1.2649-0.0842-0.1614 0.0687-0.5276 0.69161-0.81379 1.384-0.28618 0.69242-0.82229 1.9837-1.1914 2.8696-0.36906 0.88586-0.67102 1.6458-0.67102 1.6888 0 0.0429-0.71796 1.727-1.5955 3.7424-0.87752 2.0154-1.7221 3.9885-1.8768 4.3849-0.35977 0.92155-1.3495 3.9865-1.2957 4.0123 0.17652 0.0849 8.2932-0.33567 9.3098-0.48215 1.5371-0.22149 24.632-0.13873 30.004 0.1075 5.2503 0.2407 23.851 0.15786 27.741-0.12353 1.7843-0.12906 4.2452-0.28124 5.4687-0.33819 1.2235-0.0571 2.9753-0.19766 3.893-0.31272 1.0542-0.13224 5.6949-0.16639 12.606-0.0929 11.587 0.12337 14.372 0.21204 17.055 0.54292 3.4862 0.42996 11.146 0.99803 19.187 1.4228 3.6381 0.19221 12.427 0.96784 12.553 1.1078 0.0248 0.0275 0.85057 0.0738 1.8351 0.10313l1.7901 0.0531zm-127.81-19.614c2.4402-0.33012 3.4256-0.41914 6.0248-0.54414 1.3255-0.0638 2.4373-0.2001 2.4708-0.30302 0.0335-0.10303 0.30694-0.0459 0.60768 0.12692 0.44949 0.25817 1.5439 0.32145 6.1493 0.35563 3.0814 0.0228 6.4784-0.027 7.549-0.11053 3.3519-0.26196 8.2932-0.5392 12.047-0.67594 1.987-0.0724 3.6554-0.15931 3.7076-0.19322 0.0521-0.034 0.97071-0.11981 2.0413-0.19097 1.0706-0.0712 2.6138-0.17659 3.4295-0.23439 15.513-1.0992 47.402-1.084 71.788 0.0343 0.73918 0.0341 1.3432-4e-3 1.3422-0.0849-4e-3 -0.37178-4.8398-10.1-6.9801-14.044-0.70679-1.3022-1.5904-2.9779-1.9635-3.7237l-0.67846-1.356-2.9276-0.23922c-6.3424-0.51823-8.3133-0.60205-18.778-0.79869-8.4572-0.15888-23.933-0.13002-24.835 0.0465-0.25163 0.0493-3.505 0.14269-7.2298 0.20767-8.8161 0.15383-11.124 0.22998-14.929 0.49262-7.3539 0.50757-9.9531 0.63904-15.572 0.78755-8.9187 0.23576-15.479 0.17124-17.333-0.17041-2.6342-0.48554-2.2171-0.91769-4.9892 5.1691-2.1826 4.7925-6.3189 14.624-6.3189 15.019 0 0.13521 1.4115 0.38926 3.2441 0.58395 0.30587 0.0324 1.2652-0.0368 2.1318-0.1541zm23.914-21.215c3.5175-0.10784 9.1484-0.38568 12.513-0.61752 3.3646-0.23183 8.6201-0.4705 11.679-0.53038 3.0587-0.0599 8.3573-0.19729 11.774-0.30535 3.4172-0.10805 8.5476-0.19772 11.401-0.19922 9.1526-4e-3 28.628 0.54903 34.06 0.96855 1.1216 0.0868 1.622 0.0557 1.622-0.10045 0-0.12419-0.59356-1.5973-1.3191-3.2736-2.4662-5.6984-3.2577-7.5736-4.6065-10.914l-1.3473-3.3366-0.76631-0.11323c-6.7399-0.99586-43.771-1.134-58.512-0.21826-2.698 0.16761-13.143 0.35641-19.928 0.3602-3.5685 0.0021-7.0115 0.0618-7.6511 0.13283l-1.1628 0.12922-3.8881 8.6429c-3.3303 7.4029-3.8417 8.6614-3.5643 8.7717 0.27062 0.10761 2.3414 0.49381 4.7729 0.89003 0.61188 0.0998 5.1578 0.0123 14.923-0.28698zm15.85-19.336c3.4666-0.11985 8.722-0.31973 11.679-0.44419 5.0872-0.21415 27.511-0.29439 30.495-0.10908 0.76468 0.0475 3.4726 0.10014 6.0176 0.11706 2.545 0.01691 6.1236 0.16542 7.9524 0.33005 1.8288 0.16462 3.364 0.25616 3.4115 0.20341 0.15164-0.16844-1.92-4.6367-3.7772-8.1472-0.98853-1.8684-2.2641-4.3319-2.8346-5.4745-0.57051-1.1426-1.2183-2.347-1.4396-2.6765l-0.40224-0.59916-19.341-0.0195c-10.637-0.01119-21.381-0.0934-23.874-0.18362-2.4934-0.0901-8.458-0.18157-13.255-0.20291-4.7966-0.02119-9.647-0.11343-10.779-0.20467-1.1318-0.0912-2.4369-0.10272-2.9002-0.02551l-0.8424 0.1403-1.0637 2.3068c-0.58503 1.2688-1.1273 2.3995-1.205 2.5127-0.48672 0.7094-5.5563 12.419-5.5563 12.833 0 0.14573 20.996-0.12462 27.714-0.35685zm50.6-17.751c0.14007-0.15561-3.299-8.5953-5.8836-14.439-1.5017-3.3952-1.9661-4.2756-2.2624-4.2891-0.20504-0.0104-0.7065-0.048-1.1143-0.0861-5.6757-0.52978-5.9495-0.54715-14.367-0.91256-3.4189-0.14839-14.971-0.30311-21.04-0.28179-1.7443 6e-3 -3.4371 0.13876-4.5418 0.35588-0.9686 0.19036-3.1375 0.38394-4.8198 0.43016-3.2856 0.0902-6.4085 0.28239-6.859 0.42195-0.15294 0.0474-0.77859 1.1696-1.3903 2.494-0.61175 1.3243-1.5919 3.3748-2.1782 4.5565-0.58626 1.1817-1.0659 2.1786-1.0659 2.2152 0 0.0365-0.2815 0.60426-0.62556 1.2614-0.34405 0.65718-0.95839 1.8897-1.3652 2.739-0.4068 0.84928-1.0845 2.2469-1.5059 3.1059-0.42146 0.85893-0.71084 1.6233-0.64307 1.6986 0.0678 0.0752 0.6724 0.13761 1.3436 0.13854 0.67122 7.94e-4 1.9712 0.10449 2.8888 0.23012 1.0146 0.1389 5.4824 0.23406 11.401 0.24281 5.3528 7e-3 10.984 0.0702 12.513 0.13845 3.6581 0.16324 41.368 0.14495 41.516-0.02019zm-52.002-20.061c0.65591-0.0563 2.0057-0.23785 2.9995-0.40363 1.4874-0.24811 3.9226-0.2866 13.769-0.21764 6.5793 0.0462 12.028 0.12699 12.109 0.17983 0.0805 0.0528 1.3977 0.15352 2.9271 0.22371 1.5294 0.0702 4.7668 0.23 7.1943 0.35515 2.4275 0.12515 4.4512 0.18582 4.4971 0.13485 0.0459-0.0509-0.69891-1.8445-1.6551-3.9855-0.9562-2.1411-1.9726-4.4951-2.2585-5.2311-0.76026-1.9566-3.3356-7.5036-4.2218-9.0933-0.85727-1.5378-0.73326-1.4778-3.7413-1.8114-0.91763-0.10178-7.0073-0.22726-13.533-0.27887-6.5253-0.05158-12.073-0.15166-12.328-0.22234-0.25489-0.07066-1.1413-0.06933-1.9697 0.0033-1.5027 0.13125-1.5071 0.13335-1.821 0.86452-0.17309 0.40312-0.96362 1.8505-1.7568 3.2165-2.8978 4.9907-8.7266 16.004-8.7266 16.489 0 0.12599 6.3973-0.0417 8.515-0.22309zm33.628-20.83c0.0521-0.09355-0.38318-0.95953-0.96719-1.9244-1.2559-2.0749-2.131-3.6754-3.0869-5.6458-2.6786-5.521-4.3467-8.071-7.872-12.033-0.90379-1.0158-2.9648-3.8242-3.5947-4.8984-0.21501-0.36662-0.44337-0.66773-0.50748-0.66913-0.0641-0.0014-0.22314 0.28329-0.35343 0.63264-0.1303 0.34936-0.33079 0.74312-0.44554 0.87502-0.11476 0.1319-0.83065 1.1663-1.5909 2.2987-0.76023 1.1324-1.4293 2.1052-1.4869 2.1618-0.0576 0.05663-0.35049 0.47354-0.65097 0.92649-0.30048 0.45295-0.62976 0.92406-0.73171 1.0469-0.10196 0.12284-0.47735 0.79905-0.83421 1.5027-0.35685 0.70363-1.1816 2.2708-1.8328 3.4826-0.65116 1.2118-1.5581 2.9445-2.0155 3.8504-0.45735 0.9059-1.3427 2.4197-1.9675 3.364-0.62477 0.94432-1.2286 1.8974-1.3419 2.1181-0.11327 0.22062-0.37396 0.6061-0.57932 0.85664-0.39695 0.48429-0.79046 1.2434-0.79046 1.5248 0 0.09345 0.89677 0.18054 1.9928 0.19355 17.121 0.2032 24.473 0.3094 24.702 0.3568 0.70959 0.14715 3.8707 0.13104 3.9548-0.02016z" stroke-width=".19536"/>
  <g stroke="#000" stroke-linecap="round" stroke-width="1.5118">
   <path transform="matrix(.26458 0 0 .26458 -38.623 -55.71)" d="m251.34 99.059c-22.049-0.30304-40.322-0.78383-40.607-1.0684s1.5112-3.5799 3.9906-7.3229c6.8741-10.377 11.94-19.191 21.634-37.637 5.217-9.9273 12.22-21.693 17.04-28.627 4.5002-6.475 9.0191-13.246 10.042-15.047l1.8599-3.2744 5.4389 7.6476c2.9914 4.2062 8.8467 11.717 13.012 16.692 10.024 11.972 16.144 21.517 25.566 39.876 4.2931 8.3657 9.517 18.088 11.609 21.606s3.803 6.7549 3.803 7.1941c0 0.86261-8.2242 0.85845-73.388-0.03716z" fill="#ff9243"/>
   <path transform="matrix(.26458 0 0 .26458 -38.623 -55.71)" d="m170.19 172.98c5.449-10.868 17.633-33.649 25.572-47.814 3.9942-7.1265 8.191-14.79 9.3263-17.031 1.1353-2.2403 2.7671-4.4496 3.6264-4.9094 1.906-1.0201 105.08 0.39947 113.26 1.5584 3.0948 0.43827 6.1083 1.3972 7.0771 2.252 2.7806 2.4533 20.444 40.51 31.886 68.702l1.5851 3.9054-3.8934-0.0324c-2.1413-0.0178-13.328-0.61957-24.859-1.3373-31.032-1.9315-116.23-2.4625-127.61-0.79546-4.651 0.68101-15.425 1.5006-23.942 1.8212l-15.485 0.58301z" fill="#9af28c"/>
   <path transform="matrix(.26458 0 0 .26458 -38.623 -55.71)" d="m180.43 253.57c-31.837-0.53258-48.097-1.2828-48.097-2.2189 0-0.66562 32.118-66.299 32.773-66.971 0.32675-0.33544 8.1632-0.98611 17.414-1.4459 9.2512-0.45981 21.445-1.4374 27.097-2.1723 20.136-2.6182 127.95-0.13658 152.34 3.5063 2.8709 0.4289 3.3246 0.88831 5.8638 5.9375 4.8419 9.6283 24.377 55.911 26.341 62.408l0.55925 1.8499-90.289-0.16486c-49.659-0.0907-105.46-0.41861-124-0.72876z" fill="#54cec1"/>
   <path transform="matrix(.26458 0 0 .26458 -38.623 -55.71)" d="m100.27 322.11c0-1.3237 15.476-36.812 22.497-51.586 3.8975-8.2023 6.8145-13.342 7.7733-13.697 0.8441-0.31225 20-0.20119 42.568 0.2468 22.568 0.448 82.275 1.0619 132.68 1.3642l91.649 0.54967 11.693 22.554c12.813 24.714 19.717 39.263 18.982 39.999-0.26125 0.26125-5.0393 0.0339-10.618-0.50525-6.5862-0.63651-36.091-1.1188-84.139-1.3753-59.302-0.31662-80.527-0.1318-106.88 0.93073-42.393 1.709-126.2 2.7181-126.2 1.5194z" fill="#ffa669"/>
   <path transform="matrix(.26458 0 0 .26458 -38.623 -55.71)" d="m78.896 394.09c-4.7458-0.89453-8.7496-1.7472-8.8972-1.8948-0.47167-0.47167 4.3796-11.957 16.391-38.805 6.437-14.388 11.817-26.308 11.955-26.489 0.13802-0.1805 23.289-0.61854 51.446-0.97342s58.965-1.1215 68.461-1.7036c24.306-1.49 168.89-1.5028 191.29-0.017 8.8932 0.58976 17.194 1.3463 18.446 1.6811 1.9877 0.5316 2.7853 1.8544 6.2889 10.43 2.2068 5.4017 8.0082 19.256 12.892 30.787 4.8837 11.531 9.1561 21.851 9.4941 22.934l0.61463 1.9685-13.042-0.57268c-67.994-2.9856-127.35-3.5576-187.34-1.8054-24.871 0.72638-57.984 2.0472-73.585 2.9352-27.607 1.5714-78.44 3.3969-90.028 3.2331-3.1654-0.0447-9.6382-0.81322-14.384-1.7078z" fill="#33d917"/>
   <path transform="matrix(.26458 0 0 .26458 -38.623 -55.71)" d="m40.044 474.62c-3.966-0.59384-5.5497-1.1768-5.5497-2.043 0-2.9592 28.06-67.615 31.627-72.876 1.5596-2.3 2.1253-2.5586 5.0035-2.2874 1.7848 0.16817 23.409 0.32546 48.054 0.34955 37.604 0.0367 49.039-0.24208 71.118-1.734 67.957-4.592 197.47-5.0344 255.5-0.87286l13.783 0.98832 10.621 20.214c13.621 25.924 25.91 50.942 25.316 51.536-0.25495 0.25496-9.8375 0.0695-21.294-0.41202-86.704-3.6444-204.26-3.1301-262.55 1.1487-9.044 0.66381-24.398 1.5943-34.12 2.0678-9.7222 0.47347-22.672 1.2192-28.776 1.6571-14.055 1.0082-54.434 1.01-58.78 3e-3 -2.033-0.47128-6.7296-0.45941-12.333 0.0312-10.212 0.89408-25.891 2.369-29.604 2.7848-1.3566 0.15192-4.9639-0.0977-8.0162-0.55475z" fill="#fa424f"/>
   <path transform="matrix(.26458 0 0 .26458 -38.623 -55.71)" d="m529.03 552.07c-4.0698-0.32924-13.689-1.1897-21.377-1.9122-7.6874-0.72245-26.186-2.0657-41.109-2.985-31.455-1.9378-42.84-2.826-60.43-4.7145-19.253-2.0671-108.26-2.0501-139.77 0.0267-20.333 1.3401-33.374 1.4643-129.49 1.2333-65.348-0.15707-111.76 0.0626-119.42 0.56527-6.8962 0.4522-12.538 0.6141-12.538 0.35978 0.0014-1.7304 5.9564-17.277 12.893-33.658 4.4996-10.627 9.2252-21.84 10.501-24.92 3.6632-8.8383 3.5361-8.7617 13.193-7.9512 4.6424 0.3896 12.517 0.36542 18.088-0.0556 5.4264-0.41006 18.931-0.76853 30.009-0.7966 26.716-0.0677 81.061-2.0894 110.99-4.129 47.905-3.2643 55.215-3.4691 137.3-3.8462 79.542-0.36545 124.11 0.31616 145.91 2.2315 14.892 1.3084 13.544 0.53474 17.663 10.133 4.7147 10.986 15.755 33.107 19.936 39.946 3.562 5.8264 16.279 29.864 16.279 30.77 0 0.30149-0.27749 0.49243-0.61664 0.42429-0.33915-0.0682-3.9464-0.39326-8.0162-0.72251z" fill="#00887a"/>
  </g>
  <g>
   <g stroke-width=".20189" style="font-variant-caps:normal;font-variant-east-asian:normal;font-variant-ligatures:normal;font-variant-numeric:normal" aria-label="Biogén elemek">
    <path d="m9.2414 80.367q0.14605-0.14605 0.20955-0.23495 0.06985-0.0889 0.12065-0.26035t0.0508-0.4191q0-0.71755-0.55245-0.71755-0.1651 0-0.33655 0.04445t-0.41275 0.1397q-0.23495 0.0889-0.2794 0.1016-0.05715 0.01905-0.05715 0.2032 0 0.13335 0.01905 0.5334 0.0127 0.254 0.01905 0.381 0.0127 0.127 0.04445 0.24765t0.0508 0.1651q0.0254 0.0381 0.1016 0.0762 0.0762 0.03175 0.1397 0.0381 0.06985 0 0.2159 0.0064 0.03175 0 0.08255 0.0063 0.05715 0 0.08255 0 0.14605 0 0.2159-0.04445 0.0762-0.04445 0.28575-0.2667zm0.0635-3.4925q0-0.03175-0.03175-0.0635-0.0254-0.03175-0.14605-0.0635-0.1143-0.0381-0.29845-0.0381-0.2667 0-0.59055 0.04445t-0.4064 0.08255q-0.0508 0.01905-0.0508 0.1651v0.127q0 0.3175 0.0635 0.76835 0.0635 0.4445 0.1016 0.5461 0.01905 0.0508 0.0508 0.0508 0.12065-0.01905 0.53975-0.4572 0.42545-0.43815 0.60325-0.7874 0.1651-0.33655 0.1651-0.37465zm-2.305 0.23495q-0.40005 0-0.40005-0.2159 0-0.2667 1.0668-0.5207 0.43815-0.1016 1.2827-0.1016 0.15875 0 0.2413 0.0063 0.0889 0 0.17145 0.0381 0.0889 0.03175 0.1143 0.0508 0.03175 0.0127 0.15875 0.0889 0.08255 0.0508 0.127 0.1651 0.0508 0.10795 0.0508 0.1778-0.00635 0.2159-0.09525 0.45085t-0.18415 0.38735q-0.0889 0.14605-0.2159 0.32385t-0.14605 0.2032q0.1651 0.0063 0.4318 0.17145 0.27305 0.15875 0.3556 0.2921 0.1651 0.26035 0.1651 0.7493 0 0.762-0.46355 1.289-0.4572 0.52705-0.9017 0.52705-0.08255 0-0.19685-0.0381t-0.17145-0.0381q-0.06985 0-0.2413 0.05715-0.1651 0.0508-0.254 0.0508-0.10795 0-0.18415-0.05715t-0.127-0.18415q-0.04445-0.127-0.06985-0.2794t-0.04445-0.38735-0.0381-0.46355q-0.0127-0.23495-0.04445-0.56515-0.0254-0.3302-0.06985-0.62865-0.0508-0.381-0.10795-1.0668l-0.0381-0.4826z" style="font-variant-caps:normal;font-variant-east-asian:normal;font-variant-ligatures:normal;font-variant-numeric:normal"/>
    <path d="m11.394 77.649q0.10795-0.0762 0.20955-0.0762t0.17145 0.08255q0.1016 0.1905 0.1651 1.1049 0.06985 0.9144 0.06985 1.7082 0 0.5715-0.0381 0.6477-0.127 0.1016-0.27305 0.1016-0.22225 0-0.27305-0.13335-0.03175-0.1016-0.1016-1.3208-0.0635-1.2256-0.0635-1.6383 0-0.38735 0.13335-0.47625zm-0.06985-1.4859q0.0127-0.12065 0.1016-0.19685 0.09525-0.0762 0.18415-0.0762t0.2286 0.08255 0.1397 0.22225q0 0.1524-0.0762 0.27305t-0.2032 0.12065q-0.13335 0-0.254-0.12065-0.12065-0.127-0.12065-0.3048z" style="font-variant-caps:normal;font-variant-east-asian:normal;font-variant-ligatures:normal;font-variant-numeric:normal"/>
    <path d="m13.572 78.405q0.5334-0.4572 0.90805-0.60325 0.381-0.14605 0.9525-0.14605 0.88265 0 1.1049 0.4953 0.127 0.2794 0.127 0.69215 0 0.65405-0.3175 1.3335-0.31115 0.67945-0.79375 0.9525-0.4699 0.26035-0.99695 0.26035-0.7747 0-1.1811-0.4572-0.28575-0.3175-0.37465-0.53975-0.08255-0.2286-0.08255-0.62865 0-0.79375 0.65405-1.3589zm1.1494 2.4574q0.5207 0 0.95885-0.6604 0.4445-0.66675 0.4445-1.5113 0-0.0889-0.01905-0.1397-0.0127-0.0508-0.03175-0.06985-0.01905-0.0254-0.06985-0.0635-0.2286-0.1651-0.4826-0.1651-0.0381 0-0.10795 0.0127-0.0635 0.0064-0.19685 0.0254-0.127 0.0127-0.2794 0.0254-0.20955 0.01905-0.3429 0.08255-0.127 0.05715-0.3302 0.2286-0.381 0.32385-0.5461 0.5969-0.15875 0.2667-0.15875 0.5842 0 0.46355 0.32385 0.762 0.32385 0.2921 0.8382 0.2921z" style="font-variant-caps:normal;font-variant-east-asian:normal;font-variant-ligatures:normal;font-variant-numeric:normal"/>
    <path d="m18.042 79.669q0 0.3302 0.17145 0.61595 0.1778 0.2794 0.4445 0.2794 0.381 0 0.8382-0.33655 0.46355-0.33655 0.7493-0.8509 0.1651-0.29845 0.27305-0.6731 0.1143-0.37465 0.1143-0.57785 0-0.0635-0.0127-0.0889-0.1143-0.05715-0.43815-0.05715-0.28575 0-0.508 0.05715-0.5588 0.1524-1.0986 0.71755-0.5334 0.56515-0.5334 0.9144zm2.4765 2.6352q0.23495 0 0.23495-0.1905 0-0.48895-0.03175-0.80645-0.03175-0.31115-0.08255-0.5334-0.04445-0.22225-0.05715-0.3556-0.01905-0.29845-0.04445-0.46355-0.1778 0.23495-0.5588 0.5207-0.381 0.2794-0.6477 0.37465-0.31115 0.10795-0.67945 0.10795-0.2286 0-0.37465-0.0508-0.1397-0.0508-0.34925-0.22225-0.19685-0.1651-0.28575-0.3048-0.08255-0.14605-0.127-0.37465-0.04445-0.23495-0.04445-0.40005 0-0.254 0.23495-0.6604 0.23495-0.41275 0.40005-0.61595 0.1524-0.1905 0.55245-0.4191 0.40005-0.23495 0.70485-0.32385 0.32385-0.1016 0.7366-0.1016 0.51435 0 0.85725 0.17145 0.34925 0.17145 0.34925 0.5461 0 0.19685-0.09525 0.4699-0.0889 0.2667-0.0889 0.4572 0 0.1143 0.0127 0.3302 0.01905 0.20955 0.05715 0.7112 0.04445 0.4953 0.0762 0.9906l0.09525 1.3144-0.254 0.2032q-0.19685 0.1651-0.41275 0.1651-0.381 0-0.9144-0.17145-0.52705-0.17145-0.9144-0.41275-0.381-0.2413-0.381-0.41275 0-0.22225 0.20955-0.47625 0.2159-0.254 0.37465-0.254 0.2413 0 0.2413 0.1778 0 0.0762-0.0635 0.1905t-0.0635 0.2032q0 0.13335 0.2159 0.24765 0.22225 0.1143 0.37465 0.1143 0.127 0 0.3556 0.127 0.23495 0.127 0.38735 0.127z" style="font-variant-caps:normal;font-variant-east-asian:normal;font-variant-ligatures:normal;font-variant-numeric:normal"/>
    <path d="m24.284 76.411q0.0635 0 0.15875 0.06985 0.1016 0.06985 0.1016 0.1651 0 0.12065-0.41275 0.508-0.41275 0.381-0.57785 0.381-0.01905 0-0.0508-0.0063t-0.0889-0.05715q-0.0508-0.0508-0.0508-0.13335 0-0.13335 0.24765-0.3683 0.03175-0.0254 0.1016-0.0889l0.05715-0.05715q0.0254-0.0254 0.09525-0.09525 0.0762-0.06985 0.127-0.1143t0.10795-0.09525q0.0635-0.0508 0.10795-0.0762 0.0508-0.03175 0.0762-0.03175zm0.57785 2.3241q0-0.0508-0.2794-0.26035-0.2032-0.1524-0.2921-0.1905-0.08255-0.0381-0.2413-0.0381-0.3175 0-0.4699 0.0508-0.14605 0.04445-0.31115 0.2032-0.48895 0.47625-0.4953 0.61595 0.0254 0.0063 0.10795 0.0063 0.61595 0 1.7082-0.2159 0.27305-0.0508 0.27305-0.17145zm0.81915 1.0033q0.1143 0 0.1143 0.13335 0 0.14605-0.18415 0.4191-0.18415 0.2667-0.3683 0.4318-0.7112 0.6096-1.4668 0.6096-0.6223 0-1.124-0.48895t-0.50165-1.3462q0-0.2413 0.06985-0.46355 0.13335-0.3937 0.5969-0.81915 0.46355-0.4318 0.889-0.4318 0.1143 0 0.33655 0.01905 0.3556 0.0254 0.4953 0.0635 0.14605 0.0381 0.3175 0.1651 0.2032 0.14605 0.3683 0.38735 0.1651 0.23495 0.1651 0.4191 0 0.2413-0.19685 0.3556t-0.66675 0.20955q-0.61595 0.12065-1.27 0.15875l-0.55245 0.0254v0.1651q0 0.23495 0.1016 0.41275 0.10795 0.1778 0.3429 0.37465 0.33655 0.2794 0.6858 0.2794 0.2794 0 0.59055-0.1651 0.31115-0.17145 0.52705-0.37465 0.22225-0.2032 0.42545-0.3683 0.20955-0.17145 0.3048-0.17145z" style="font-variant-caps:normal;font-variant-east-asian:normal;font-variant-ligatures:normal;font-variant-numeric:normal"/>
    <path d="m26.894 77.948q0-0.3302 0.20955-0.3302 0.1397 0.0064 0.18415 0.17145 0.04445 0.1651 0.127 0.9271 0.0064 0.05715 0.0064 0.0889 0.0063 0.03175 0.0127 0.08255t0.0127 0.09525l0.0889 0.7239 0.06985-0.20955q0.13335-0.41275 0.2286-0.60325 0.1016-0.1905 0.3683-0.53975 0.51435-0.67945 0.86995-0.67945 0.23495 0 0.4064 0.26035 0.2032 0.28575 0.24765 0.5715 0.0508 0.28575 0.06985 1.3081 0.0127 0.6477 0.0127 0.7874 0 0.4191-0.05715 0.5715-0.05715 0.14605-0.23495 0.14605-0.12065 0-0.15875-0.0635-0.0381-0.06985-0.0381-0.27305 0-0.09525 0.0127-0.3937t0.0127-0.4953q0-0.53975-0.04445-1.0096t-0.1016-0.59055q-0.0254-0.0508-0.0635-0.09525-0.0381-0.0508-0.06985-0.0762-0.0254-0.0254-0.0381-0.0254-0.1016 0-0.4191 0.42545-0.31115 0.42545-0.52705 0.86995-0.22225 0.4699-0.29845 0.6858-0.06985 0.2159-0.1143 0.5842-0.06985 0.59055-0.1143 0.65405-0.03175 0.0381-0.06985 0.0381-0.09525-0.0127-0.2032-0.13335-0.05715-0.0635-0.0889-0.15875-0.0254-0.1016-0.04445-0.3048-0.01905-0.20955-0.03175-0.4445-0.0127-0.2413-0.0508-0.69215-0.0381-0.4572-0.09525-0.94615-0.0762-0.762-0.0762-0.9271z" style="font-variant-caps:normal;font-variant-east-asian:normal;font-variant-ligatures:normal;font-variant-numeric:normal"/>
    <path d="m37.499 78.735q0-0.0508-0.2794-0.26035-0.2032-0.1524-0.2921-0.1905-0.08255-0.0381-0.2413-0.0381-0.3175 0-0.4699 0.0508-0.14605 0.04445-0.31115 0.2032-0.48895 0.47625-0.4953 0.61595 0.0254 0.0063 0.10795 0.0063 0.61595 0 1.7082-0.2159 0.27305-0.0508 0.27305-0.17145zm0.81915 1.0033q0.1143 0 0.1143 0.13335 0 0.14605-0.18415 0.4191-0.18415 0.2667-0.3683 0.4318-0.7112 0.6096-1.4668 0.6096-0.6223 0-1.124-0.48895t-0.50165-1.3462q0-0.2413 0.06985-0.46355 0.13335-0.3937 0.5969-0.81915 0.46355-0.4318 0.889-0.4318 0.1143 0 0.33655 0.01905 0.3429 0.0254 0.4826 0.06985 0.14605 0.0381 0.3302 0.15875 0.2032 0.13335 0.3683 0.381 0.1651 0.2413 0.1651 0.42545 0 0.2413-0.19685 0.3556t-0.66675 0.20955q-0.61595 0.12065-1.27 0.15875l-0.55245 0.0254v0.1651q0 0.23495 0.1016 0.41275 0.10795 0.1778 0.3429 0.37465 0.33655 0.2794 0.6858 0.2794 0.2794 0 0.59055-0.1651 0.31115-0.17145 0.52705-0.37465 0.22225-0.2032 0.42545-0.3683 0.20955-0.17145 0.3048-0.17145z" style="font-variant-caps:normal;font-variant-east-asian:normal;font-variant-ligatures:normal;font-variant-numeric:normal"/>
    <path d="m39.328 76.144q0-0.46355 0.0381-0.7112t0.0889-0.31115q0.05715-0.06985 0.1524-0.06985 0.1524 0 0.18415 0.127 0.03175 0.13335 0.13335 1.6192 0.10795 1.4859 0.19685 2.8892 0.09525 1.4034 0.09525 1.4351 0 0.22225-0.2413 0.22225-0.2159 0-0.2794-0.26035-0.05715-0.2667-0.14605-1.5494-0.1016-1.3526-0.18415-2.3558-0.0381-0.5334-0.0381-1.035z" style="font-variant-caps:normal;font-variant-east-asian:normal;font-variant-ligatures:normal;font-variant-numeric:normal"/>
    <path d="m43.811 78.735q0-0.0508-0.2794-0.26035-0.2032-0.1524-0.2921-0.1905-0.08255-0.0381-0.2413-0.0381-0.3175 0-0.4699 0.0508-0.14605 0.04445-0.31115 0.2032-0.48895 0.47625-0.4953 0.61595 0.0254 0.0063 0.10795 0.0063 0.61595 0 1.7082-0.2159 0.27305-0.0508 0.27305-0.17145zm0.81915 1.0033q0.1143 0 0.1143 0.13335 0 0.14605-0.18415 0.4191-0.18415 0.2667-0.3683 0.4318-0.7112 0.6096-1.4668 0.6096-0.6223 0-1.124-0.48895t-0.50165-1.3462q0-0.2413 0.06985-0.46355 0.13335-0.3937 0.5969-0.81915 0.46355-0.4318 0.889-0.4318 0.1143 0 0.33655 0.01905 0.3429 0.0254 0.4826 0.06985 0.14605 0.0381 0.3302 0.15875 0.2032 0.13335 0.3683 0.381 0.1651 0.2413 0.1651 0.42545 0 0.2413-0.19685 0.3556t-0.66675 0.20955q-0.61595 0.12065-1.27 0.15875l-0.55245 0.0254v0.1651q0 0.23495 0.1016 0.41275 0.10795 0.1778 0.3429 0.37465 0.33655 0.2794 0.6858 0.2794 0.2794 0 0.59055-0.1651 0.31115-0.17145 0.52705-0.37465 0.22225-0.2032 0.42545-0.3683 0.20955-0.17145 0.3048-0.17145z" style="font-variant-caps:normal;font-variant-east-asian:normal;font-variant-ligatures:normal;font-variant-numeric:normal"/>
    <path d="m50.173 79.884q0 0.5207-0.0127 0.80645-0.0063 0.2794-0.04445 0.4318-0.03175 0.1524-0.0762 0.1905t-0.13335 0.0381q-0.10795 0-0.14605-0.1143-0.0254-0.0889-0.03175-0.8763 0-0.79375-0.05715-1.4859-0.0508-0.6985-0.2032-0.6985-0.10795 0-0.32385 0.34925t-0.43815 1.0541q-0.2159 0.6985-0.26035 1.4732-0.0254 0.34925-0.22225 0.34925-0.1397 0-0.1778-0.13335-0.03175-0.13335-0.0508-0.55245 0-0.0381 0-0.05715t-0.0063-0.0508q0-0.0381 0-0.0635-0.04445-0.97155-0.13335-1.3526t-0.3302-0.6858q-0.13335-0.1905-0.1905-0.1905-0.1016 0.0254-0.5334 0.9525-0.12065 0.254-0.12065 0.48895 0 0.1524-0.0635 0.3175-0.05715 0.1651-0.0762 0.8128 0 0.0635-0.0064 0.18415 0 0.12065 0 0.18415 0 0.05715-0.0127 0.1524-0.0064 0.09525-0.0254 0.1397-0.0127 0.04445-0.0381 0.09525t-0.06985 0.06985q-0.0381 0.0254-0.09525 0.0254-0.17145 0-0.2159-0.29845-0.04445-0.2921-0.04445-1.2446 0-0.6096-0.0508-1.2827-0.04445-0.67945-0.04445-0.78105 0-0.42545 0.18415-0.42545 0.0635 0 0.10795 0.06985 0.0508 0.06985 0.08255 0.19685 0.03175 0.12065 0.0508 0.2413 0.0254 0.12065 0.0508 0.2794t0.04445 0.23495q0.0381-0.09525 0.05715-0.1397 0.0254-0.04445 0.04445-0.05715 0.01905-0.01905 0.06985-0.09525 0.0508-0.08255 0.127-0.22225 0.15875-0.2921 0.254-0.36195 0.09525-0.0762 0.3302-0.0762 0.254 0 0.5461 0.3048 0.1651 0.18415 0.2286 0.34925 0.0635 0.15875 0.127 0.55245l0.04445 0.23495q0.1778-0.56515 0.52705-1.0033 0.3556-0.43815 0.70485-0.43815 0.2159 0 0.3683 0.19685 0.15875 0.19685 0.22225 0.47625 0.0635 0.29845 0.0635 1.4351z" style="font-variant-caps:normal;font-variant-east-asian:normal;font-variant-ligatures:normal;font-variant-numeric:normal"/>
    <path d="m53.914 78.735q0-0.0508-0.2794-0.26035-0.2032-0.1524-0.2921-0.1905-0.08255-0.0381-0.2413-0.0381-0.3175 0-0.4699 0.0508-0.14605 0.04445-0.31115 0.2032-0.48895 0.47625-0.4953 0.61595 0.0254 0.0063 0.10795 0.0063 0.61595 0 1.7082-0.2159 0.27305-0.0508 0.27305-0.17145zm0.81915 1.0033q0.1143 0 0.1143 0.13335 0 0.14605-0.18415 0.4191-0.18415 0.2667-0.3683 0.4318-0.7112 0.6096-1.4668 0.6096-0.6223 0-1.124-0.48895t-0.50165-1.3462q0-0.2413 0.06985-0.46355 0.13335-0.3937 0.5969-0.81915 0.46355-0.4318 0.889-0.4318 0.1143 0 0.33655 0.01905 0.3429 0.0254 0.4826 0.06985 0.14605 0.0381 0.3302 0.15875 0.2032 0.13335 0.3683 0.381 0.1651 0.2413 0.1651 0.42545 0 0.2413-0.19685 0.3556t-0.66675 0.20955q-0.61595 0.12065-1.27 0.15875l-0.55245 0.0254v0.1651q0 0.23495 0.1016 0.41275 0.10795 0.1778 0.3429 0.37465 0.33655 0.2794 0.6858 0.2794 0.2794 0 0.59055-0.1651 0.31115-0.17145 0.52705-0.37465 0.22225-0.2032 0.42545-0.3683 0.20955-0.17145 0.3048-0.17145z" style="font-variant-caps:normal;font-variant-east-asian:normal;font-variant-ligatures:normal;font-variant-numeric:normal"/>
    <path d="m58.155 81.091q-0.15875-0.0127-0.37465-0.1524-0.20955-0.14605-0.24765-0.14605-0.06985 0-0.1143-0.0254-0.0381-0.0254-0.04445-0.0508l-0.0127-0.0254q-0.0889-0.0635-0.8255-0.2921l-0.2413-0.0762 0.0381 0.381q0.0254 0.2159 0.0254 0.31115 0 0.3429-0.2413 0.3429-0.2667 0-0.3302-0.3048t-0.10795-1.4351q-0.0508-1.035-0.09525-1.2764-0.13335-0.6858-0.13335-1.778 0-0.3302 0.2286-0.3302 0.1778 0 0.254 0.19685 0.0381 0.09525 0.0889 0.56515t0.10795 1.0414 0.09525 0.8001l0.03175 0.2032 0.6858-0.60325q0.0508-0.04445 0.13335-0.12065 0.0889-0.0762 0.13335-0.1143 0.0508-0.04445 0.12065-0.10795 0.0762-0.0635 0.1143-0.09525 0.04445-0.0381 0.1016-0.08255 0.0635-0.04445 0.1016-0.06985t0.0762-0.0508q0.04445-0.0254 0.0762-0.03175 0.03175-0.0127 0.05715-0.0127 0.1016 0.0127 0.1651 0.09525 0.06985 0.0762 0.06985 0.1651 0 0.0762-0.0381 0.1143-0.03175 0.0381-0.13335 0.127-0.1016 0.08255-0.19685 0.2159-0.2667 0.37465-1.1366 0.9652-0.2413 0.1651-0.254 0.24765 0 0.04445 0.0762 0.0762l0.76835 0.3048 0.04445 0.0254q0.0508 0.01905 0.1016 0.04445 0.05715 0.01905 0.1397 0.05715t0.15875 0.08255q0.08255 0.0381 0.17145 0.0889 0.09525 0.0508 0.17145 0.1016 0.08255 0.04445 0.1524 0.1016 0.0762 0.05715 0.127 0.10795 0.05715 0.0508 0.0889 0.10795 0.03175 0.0508 0.03175 0.1016 0 0.09525-0.05715 0.1524t-0.1524 0.05715z" style="font-variant-caps:normal;font-variant-east-asian:normal;font-variant-ligatures:normal;font-variant-numeric:normal"/>
   </g>
   <g stroke-width=".20189" style="font-variant-caps:normal;font-variant-east-asian:normal;font-variant-ligatures:normal;font-variant-numeric:normal" aria-label="Molekulák">
    <path d="m16.725 61.58q-0.24765 0-0.3048-0.57785t-0.05715-2.8194q0-1.1176 0.01905-1.5367t0.0762-0.4953q0.12065-0.1524 0.28575-0.1524 0.1397 0 0.23495 0.18415 0.1016 0.1778 0.2413 0.64135 0.2032 0.67945 0.4318 1.1684t0.33655 0.5715q0.06985-0.04445 0.2159-0.254 0.1524-0.2159 0.42545-0.6985 0.2794-0.4826 0.6096-1.143 0.0889-0.18415 0.254-0.31115 0.17145-0.127 0.3302-0.127 0.1143 0 0.19685 0.0762 0.1651 0.14605 0.20955 0.59055 0.04445 0.43815 0.05715 1.8161 0.0063 0.83185 0.0381 1.3462 0.03175 0.51435 0.0635 0.6477 0.0381 0.13335 0.0635 0.2286t0.0254 0.1905q0 0.2794-0.26035 0.2794-0.127 0-0.24765-0.0762-0.1143-0.0762-0.15875-0.2032-0.04445-0.12065-0.08255-0.92075-0.0381-0.80645-0.06985-1.7462t-0.0635-1.2319q-0.04445 0.08255-0.20955 0.42545-0.15875 0.33655-0.55245 0.9906-0.14605 0.2413-0.4572 0.45085-0.3048 0.2032-0.55245 0.2032-0.09525 0-0.254-0.17145-0.1524-0.1778-0.29845-0.4191l-0.1778-0.2921v1.3335q0 0.86995-0.0381 1.3018-0.03175 0.4318-0.10795 0.57785-0.0762 0.1524-0.22225 0.1524z" style="font-variant-caps:normal;font-variant-east-asian:normal;font-variant-ligatures:normal;font-variant-numeric:normal"/>
    <path d="m21.868 58.265q0.5334-0.4572 0.90805-0.60325 0.381-0.14605 0.9525-0.14605 0.88265 0 1.1049 0.4953 0.127 0.2794 0.127 0.69215 0 0.65405-0.3175 1.3335-0.31115 0.67945-0.79375 0.9525-0.4699 0.26035-0.99695 0.26035-0.7747 0-1.1811-0.4572-0.28575-0.3175-0.37465-0.53975-0.08255-0.2286-0.08255-0.62865 0-0.79375 0.65405-1.3589zm1.1494 2.4574q0.5207 0 0.95885-0.6604 0.4445-0.66675 0.4445-1.5113 0-0.0889-0.01905-0.1397-0.0127-0.0508-0.03175-0.06985-0.01905-0.0254-0.06985-0.0635-0.2286-0.1651-0.4826-0.1651-0.0381 0-0.10795 0.0127-0.0635 0.0063-0.19685 0.0254-0.127 0.0127-0.2794 0.0254-0.20955 0.01905-0.3429 0.08255-0.127 0.05715-0.3302 0.2286-0.381 0.32385-0.5461 0.5969-0.15875 0.2667-0.15875 0.5842 0 0.46355 0.32385 0.762 0.32385 0.2921 0.8382 0.2921z" style="font-variant-caps:normal;font-variant-east-asian:normal;font-variant-ligatures:normal;font-variant-numeric:normal"/>
    <path d="m25.939 56.005q0-0.46355 0.0381-0.7112t0.0889-0.31115q0.05715-0.06985 0.1524-0.06985 0.1524 0 0.18415 0.127 0.03175 0.13335 0.13335 1.6192 0.10795 1.4859 0.19685 2.8892 0.09525 1.4034 0.09525 1.4351 0 0.22225-0.2413 0.22225-0.2159 0-0.2794-0.26035-0.05715-0.2667-0.14605-1.5494-0.1016-1.3526-0.18415-2.3558-0.0381-0.5334-0.0381-1.035z" style="font-variant-caps:normal;font-variant-east-asian:normal;font-variant-ligatures:normal;font-variant-numeric:normal"/>
    <path d="m30.422 58.596q0-0.0508-0.2794-0.26035-0.2032-0.1524-0.2921-0.1905-0.08255-0.0381-0.2413-0.0381-0.3175 0-0.4699 0.0508-0.14605 0.04445-0.31115 0.2032-0.48895 0.47625-0.4953 0.61595 0.0254 0.0063 0.10795 0.0063 0.61595 0 1.7082-0.2159 0.27305-0.0508 0.27305-0.17145zm0.81915 1.0033q0.1143 0 0.1143 0.13335 0 0.14605-0.18415 0.4191-0.18415 0.2667-0.3683 0.4318-0.7112 0.6096-1.4668 0.6096-0.6223 0-1.124-0.48895t-0.50165-1.3462q0-0.2413 0.06985-0.46355 0.13335-0.3937 0.5969-0.81915 0.46355-0.4318 0.889-0.4318 0.1143 0 0.33655 0.01905 0.3429 0.0254 0.4826 0.06985 0.14605 0.0381 0.3302 0.15875 0.2032 0.13335 0.3683 0.381 0.1651 0.2413 0.1651 0.42545 0 0.2413-0.19685 0.3556t-0.66675 0.20955q-0.61595 0.12065-1.27 0.15875l-0.55245 0.0254v0.1651q0 0.23495 0.1016 0.41275 0.10795 0.1778 0.3429 0.37465 0.33655 0.2794 0.6858 0.2794 0.2794 0 0.59055-0.1651 0.31115-0.17145 0.52705-0.37465 0.22225-0.2032 0.42545-0.3683 0.20955-0.17145 0.3048-0.17145z" style="font-variant-caps:normal;font-variant-east-asian:normal;font-variant-ligatures:normal;font-variant-numeric:normal"/>
    <path d="m34.664 60.951q-0.15875-0.0127-0.37465-0.1524-0.20955-0.14605-0.24765-0.14605-0.06985 0-0.1143-0.0254-0.0381-0.0254-0.04445-0.0508l-0.0127-0.0254q-0.0889-0.0635-0.8255-0.2921l-0.2413-0.0762 0.0381 0.381q0.0254 0.2159 0.0254 0.31115 0 0.3429-0.2413 0.3429-0.2667 0-0.3302-0.3048t-0.10795-1.4351q-0.0508-1.035-0.09525-1.2764-0.13335-0.6858-0.13335-1.778 0-0.3302 0.2286-0.3302 0.1778 0 0.254 0.19685 0.0381 0.09525 0.0889 0.56515t0.10795 1.0414 0.09525 0.8001l0.03175 0.2032 0.6858-0.60325q0.0508-0.04445 0.13335-0.12065 0.0889-0.0762 0.13335-0.1143 0.0508-0.04445 0.12065-0.10795 0.0762-0.0635 0.1143-0.09525 0.04445-0.0381 0.1016-0.08255 0.0635-0.04445 0.1016-0.06985t0.0762-0.0508q0.04445-0.0254 0.0762-0.03175 0.03175-0.0127 0.05715-0.0127 0.1016 0.0127 0.1651 0.09525 0.06985 0.0762 0.06985 0.1651 0 0.0762-0.0381 0.1143-0.03175 0.0381-0.13335 0.127-0.1016 0.08255-0.19685 0.2159-0.2667 0.37465-1.1366 0.9652-0.2413 0.1651-0.254 0.24765 0 0.04445 0.0762 0.0762l0.76835 0.3048 0.04445 0.0254q0.0508 0.01905 0.1016 0.04445 0.05715 0.01905 0.1397 0.05715t0.15875 0.08255q0.08255 0.0381 0.17145 0.0889 0.09525 0.0508 0.17145 0.1016 0.08255 0.04445 0.1524 0.1016 0.0762 0.05715 0.127 0.10795 0.05715 0.0508 0.0889 0.10795 0.03175 0.0508 0.03175 0.1016 0 0.09525-0.05715 0.1524t-0.1524 0.05715z" style="font-variant-caps:normal;font-variant-east-asian:normal;font-variant-ligatures:normal;font-variant-numeric:normal"/>
    <path d="m36.003 57.707q0.1143 0 0.2032 0.09525 0.09525 0.09525 0.09525 0.2921 0 0.06985-0.0127 0.20955t-0.0127 0.31115q0 0.1651 0.01905 0.5969 0.01905 0.42545 0.08255 0.99695 0.06985 0.5715 0.17145 0.6477 0.0254 0.01905 0.0635 0.01905 0.127 0 0.4191-0.2286 0.381-0.2921 0.7366-0.93345 0.36195-0.64135 0.50165-1.2827 0.10795-0.48895 0.1905-0.64135 0.0889-0.1524 0.23495-0.1524 0.1143 0 0.1778 0.06985 0.06985 0.06985 0.06985 0.18415 0 0.0889-0.09525 0.7112-0.0889 0.6223-0.0889 0.89535 0 0.37465 0.15875 0.9398 0.1651 0.56515 0.1651 0.6477-0.01905 0.1397-0.12065 0.19685-0.0635 0.0381-0.1397 0.0381-0.1651 0-0.2794-0.24765-0.10795-0.254-0.1905-0.59055t-0.1397-0.42545q-0.01905 0.01905-0.0508 0.0635-0.0254 0.0381-0.06985 0.1016-0.0381 0.05715-0.06985 0.1016-0.2921 0.4318-0.67945 0.7493-0.381 0.31115-0.67945 0.31115-0.4572 0-0.61595-0.28575t-0.26035-1.2256q-0.04445-0.40005-0.04445-1.0541 0-0.5969 0.05715-0.8509 0.05715-0.26035 0.2032-0.26035z" style="font-variant-caps:normal;font-variant-east-asian:normal;font-variant-ligatures:normal;font-variant-numeric:normal"/>
    <path d="m40.055 56.005q0-0.46355 0.0381-0.7112t0.0889-0.31115q0.05715-0.06985 0.1524-0.06985 0.1524 0 0.18415 0.127 0.03175 0.13335 0.13335 1.6192 0.10795 1.4859 0.19685 2.8892 0.09525 1.4034 0.09525 1.4351 0 0.22225-0.2413 0.22225-0.2159 0-0.2794-0.26035-0.05715-0.2667-0.14605-1.5494-0.1016-1.3526-0.18415-2.3558-0.0381-0.5334-0.0381-1.035z" style="font-variant-caps:normal;font-variant-east-asian:normal;font-variant-ligatures:normal;font-variant-numeric:normal"/>
    <path d="m43.452 57.446q-0.0762 0-0.17145-0.06985-0.09525-0.0762-0.09525-0.1651 0-0.12065 0.4191-0.50165 0.4191-0.38735 0.5842-0.38735 0.01905 0 0.0508 0.0063t0.08255 0.05715q0.05715 0.0508 0.05715 0.127 0 0.0889-0.06985 0.18415-0.08255 0.1143-0.4318 0.4318-0.3429 0.3175-0.42545 0.3175zm0.36195 2.9337q0.01905-0.0762 0.22225-0.24765t0.20955-0.2159q0-0.0127-0.0127-0.03175t-0.05715-0.05715q-0.0381-0.0381-0.10795-0.0635-0.06985-0.03175-0.2032-0.0508-0.127-0.0254-0.29845-0.0254-0.4953 0-0.7366 0.2413-0.23495 0.23495-0.23495 0.4445 0 0.13335 0.03175 0.1778 0.14605 0.1143 0.36195 0.1143 0.1778 0 0.46355-0.10795 0.2921-0.10795 0.36195-0.1778zm1.143 0.40005q-0.0063 0.13335-0.1016 0.26035-0.0889 0.12065-0.1778 0.12065-0.06985 0-0.1397-0.08255-0.0381-0.04445-0.06985-0.09525-0.0254-0.05715-0.04445-0.1397t-0.03175-0.12065q-0.0063-0.04445-0.01905-0.14605-0.0127-0.10795-0.0127-0.12065-0.20955 0.254-0.6096 0.4699-0.3937 0.20955-0.66675 0.20955-0.1651 0-0.41275-0.0508t-0.37465-0.14605q-0.09525-0.06985-0.1524-0.254-0.0508-0.1905-0.0508-0.3556 0-0.2794 0.15875-0.4826 0.1651-0.20955 0.57785-0.4191 0.46355-0.23495 0.9017-0.23495 0.17145 0.0063 0.2794 0.0508 0.1143 0.04445 0.17145 0.1016 0.0635 0.0508 0.06985 0.05715 0.09525 0.0127 0.1778 0.08255 0-0.4191-0.0381-0.6985-0.03175-0.28575-0.09525-0.4191t-0.13335-0.18415q-0.0635-0.0508-0.1524-0.0508-0.12065 0-0.36195 0.04445t-0.381 0.1016l-0.18415 0.0762q-0.01905 0.0127-0.1651 0.0762-0.1397 0.05715-0.3302 0.127-0.1905 0.0635-0.2794 0.0635-0.1524 0-0.1524-0.1524 0-0.10795 0.04445-0.18415 0.04445-0.08255 0.15875-0.14605 0.12065-0.0635 0.22225-0.1016 0.10795-0.04445 0.3302-0.12065 0.2286-0.08255 0.381-0.1397 0.381-0.13335 0.6731-0.13335 0.24765 0 0.4318 0.1143 0.1905 0.1143 0.2794 0.28575 0.09525 0.1651 0.1397 0.2921 0.04445 0.12065 0.0508 0.2032 0.0254 0.19685 0.03175 1.143 0.0127 0.9398 0.04445 1.035 0.0127 0.0254 0.0127 0.0635z" style="font-variant-caps:normal;font-variant-east-asian:normal;font-variant-ligatures:normal;font-variant-numeric:normal"/>
    <path d="m48.392 60.951q-0.15875-0.0127-0.37465-0.1524-0.20955-0.14605-0.24765-0.14605-0.06985 0-0.1143-0.0254-0.0381-0.0254-0.04445-0.0508l-0.0127-0.0254q-0.0889-0.0635-0.8255-0.2921l-0.2413-0.0762 0.0381 0.381q0.0254 0.2159 0.0254 0.31115 0 0.3429-0.2413 0.3429-0.2667 0-0.3302-0.3048t-0.10795-1.4351q-0.0508-1.035-0.09525-1.2764-0.13335-0.6858-0.13335-1.778 0-0.3302 0.2286-0.3302 0.1778 0 0.254 0.19685 0.0381 0.09525 0.0889 0.56515t0.10795 1.0414 0.09525 0.8001l0.03175 0.2032 0.6858-0.60325q0.0508-0.04445 0.13335-0.12065 0.0889-0.0762 0.13335-0.1143 0.0508-0.04445 0.12065-0.10795 0.0762-0.0635 0.1143-0.09525 0.04445-0.0381 0.1016-0.08255 0.0635-0.04445 0.1016-0.06985t0.0762-0.0508q0.04445-0.0254 0.0762-0.03175 0.03175-0.0127 0.05715-0.0127 0.1016 0.0127 0.1651 0.09525 0.06985 0.0762 0.06985 0.1651 0 0.0762-0.0381 0.1143-0.03175 0.0381-0.13335 0.127-0.1016 0.08255-0.19685 0.2159-0.2667 0.37465-1.1366 0.9652-0.2413 0.1651-0.254 0.24765 0 0.04445 0.0762 0.0762l0.76835 0.3048 0.04445 0.0254q0.0508 0.01905 0.1016 0.04445 0.05715 0.01905 0.1397 0.05715t0.15875 0.08255q0.08255 0.0381 0.17145 0.0889 0.09525 0.0508 0.17145 0.1016 0.08255 0.04445 0.1524 0.1016 0.0762 0.05715 0.127 0.10795 0.05715 0.0508 0.0889 0.10795 0.03175 0.0508 0.03175 0.1016 0 0.09525-0.05715 0.1524t-0.1524 0.05715z" style="font-variant-caps:normal;font-variant-east-asian:normal;font-variant-ligatures:normal;font-variant-numeric:normal"/>
   </g>
   <g stroke-width=".20189" style="font-variant-caps:normal;font-variant-east-asian:normal;font-variant-ligatures:normal;font-variant-numeric:normal" aria-label="Sejtalkotók">
    <path d="m12.928 41.359q0.24765 0 0.24765 0.2667 0 0.127-0.10795 0.2413-0.1016 0.10795-0.1016 0.13335 0 0.04445 0.04445 0.13335 0.0508 0.10795 0.13335 0.13335 0.0889 0.01905 0.48895 0.01905 0.3429 0 0.508-0.03175 0.1651-0.0381 0.32385-0.1397 0.24765-0.1651 0.3048-0.254t0.05715-0.32385q0-0.1651-0.0635-0.22225-0.05715-0.05715-0.3683-0.1905-0.40005-0.1778-0.57785-0.19685-0.33655 0-0.9525-0.4953-0.6096-0.50165-0.6096-0.7747 0-0.37465 0.37465-0.8255 0.37465-0.4572 0.8382-0.6604 0.26035-0.1143 0.93345-0.1143 0.29845 0 0.45085 0.04445t0.3175 0.1778q0.3048 0.254 0.3048 0.45085 0 0.23495-0.13335 0.23495-0.06985 0-0.15875-0.0635t-0.1778-0.13335q-0.0889-0.0762-0.254-0.1397t-0.3683-0.0635q-0.53975 0-0.99695 0.36195-0.45085 0.36195-0.45085 0.78105 0 0.1397 0.37465 0.33655 0.381 0.19685 0.98425 0.37465 1.1303 0.33655 1.1303 1.0858 0 0.1651-0.05715 0.34925-0.15875 0.52705-0.5461 0.73025-0.381 0.2032-1.3462 0.26035l-0.6858 0.04445-0.19685-0.4064q-0.1397-0.27305-0.1397-0.5588 0-0.254 0.127-0.4064 0.13335-0.15875 0.34925-0.15875z" style="font-variant-caps:normal;font-variant-east-asian:normal;font-variant-ligatures:normal;font-variant-numeric:normal"/>
    <path d="m18.909 40.356q0-0.0508-0.2794-0.26035-0.2032-0.1524-0.2921-0.1905-0.08255-0.0381-0.2413-0.0381-0.3175 0-0.4699 0.0508-0.14605 0.04445-0.31115 0.2032-0.48895 0.47625-0.4953 0.61595 0.0254 0.0063 0.10795 0.0063 0.61595 0 1.7082-0.2159 0.27305-0.0508 0.27305-0.17145zm0.81915 1.0033q0.1143 0 0.1143 0.13335 0 0.14605-0.18415 0.4191-0.18415 0.2667-0.3683 0.4318-0.7112 0.6096-1.4668 0.6096-0.6223 0-1.124-0.48895t-0.50165-1.3462q0-0.2413 0.06985-0.46355 0.13335-0.3937 0.5969-0.81915 0.46355-0.4318 0.889-0.4318 0.1143 0 0.33655 0.01905 0.3429 0.0254 0.4826 0.06985 0.14605 0.0381 0.3302 0.15875 0.2032 0.13335 0.3683 0.381 0.1651 0.2413 0.1651 0.42545 0 0.2413-0.19685 0.3556t-0.66675 0.20955q-0.61595 0.12065-1.27 0.15875l-0.55245 0.0254v0.1651q0 0.23495 0.1016 0.41275 0.10795 0.1778 0.3429 0.37465 0.33655 0.2794 0.6858 0.2794 0.2794 0 0.59055-0.1651 0.31115-0.17145 0.52705-0.37465 0.22225-0.2032 0.42545-0.3683 0.20955-0.17145 0.3048-0.17145z" style="font-variant-caps:normal;font-variant-east-asian:normal;font-variant-ligatures:normal;font-variant-numeric:normal"/>
    <path d="m22.046 43.855q0.0381 0 0.0762-0.09525t0.06985-0.38735 0.03175-0.74295q0-1.0414-0.0889-1.3462-0.31115-1.0033-0.31115-1.7208 0-0.14605 0.04445-0.19685 0.04445-0.05715 0.2159-0.05715 0.18415 0 0.2286 0.10795 0.0508 0.1016 0.15875 0.635 0.28575 1.4224 0.28575 2.3432 0 0.1397-0.0127 0.4699-0.0127 0.37465-0.03175 0.59055t-0.06985 0.41275q-0.04445 0.2032-0.1143 0.2921-0.0635 0.09525-0.19685 0.1651-0.127 0.06985-0.2921 0.0889-0.15875 0.01905-0.41275 0.01905-0.3429 0-0.5461-0.0508-0.2032-0.04445-0.24765-0.1016t-0.06985-0.12065q-0.0254-0.05715-0.0508-0.0635-0.08255-0.0254-0.12065-0.10795-0.03175-0.08255-0.03175-0.32385 0-0.34925 0.08255-0.51435 0.0889-0.1651 0.2032-0.1651t0.1778 0.19685q0.06985 0.2032 0.0762 0.4064l0.0127 0.19685q0.04445 0.03175 0.27305 0.05715 0.23495 0.03175 0.43815 0.03175 0.14605 0 0.22225-0.01905zm-0.4953-5.8928q0-0.14605 0.12065-0.2286 0.12065-0.0889 0.2413-0.0889 0.0889 0 0.2032 0.08255 0.12065 0.08255 0.12065 0.254 0 0.1651-0.08255 0.24765-0.08255 0.0762-0.19685 0.0762-0.14605 0-0.2794-0.1016-0.127-0.10795-0.127-0.2413z" style="font-variant-caps:normal;font-variant-east-asian:normal;font-variant-ligatures:normal;font-variant-numeric:normal"/>
    <path d="m25.012 39.416q-0.2032 0.0127-0.5588 0.0762-0.34925 0.05715-0.4699 0.05715-0.27305 0-0.27305-0.2159 0-0.17145 0.2413-0.26035t0.5715-0.1397q0.33655-0.0508 0.4318-0.1016 0.0508-0.0508 0.0508-0.27305 0-0.2286-0.05715-0.5969t-0.05715-0.66675q0-0.2032 0.10795-0.29845 0.10795-0.1016 0.23495-0.1016 0.1397 0 0.19685 0.1143 0.03175 0.09525 0.10795 0.83185 0.0762 0.73025 0.09525 0.84455 0.0508-0.0063 0.33655-0.0508 0.2921-0.0508 0.4445-0.0508 0.2159 0 0.3048 0.06985t0.0889 0.1524q0 0.12065-0.1651 0.2032t-0.5969 0.1905l-0.36195 0.05715 0.0508 0.9652q0.0508 0.89535 0.1778 1.6764t0.127 0.9017q0 0.2794-0.2921 0.2794-0.17145 0-0.254-0.0635-0.1905-0.17145-0.1905-0.71755 0-0.22225-0.0254-0.45085-0.0254-0.23495-0.0889-0.7239-0.05715-0.4953-0.10795-1.0224-0.0635-0.6604-0.06985-0.6858z" style="font-variant-caps:normal;font-variant-east-asian:normal;font-variant-ligatures:normal;font-variant-numeric:normal"/>
    <path d="m29.514 42.159q0-0.0762 0.20955-0.254t0.2159-0.2286q0-0.0254-0.0381-0.06985t-0.2032-0.1016q-0.15875-0.05715-0.4191-0.05715-0.2794 0-0.48895 0.08255-0.2032 0.08255-0.3048 0.2032t-0.14605 0.22225-0.04445 0.1778q0 0.127 0.01905 0.1651 0.0254 0.03175 0.12065 0.0762 0.14605 0.05715 0.23495 0.05715 0.1397 0 0.34925-0.06985t0.3556-0.13335zm1.143 0.4064q-0.0127 0.14605-0.1143 0.254-0.09525 0.1016-0.15875 0.1016-0.0381 0-0.0762-0.0127-0.03175-0.0127-0.0635-0.04445-0.0254-0.0381-0.0508-0.0635-0.01905-0.03175-0.0381-0.0889-0.0127-0.05715-0.0254-0.0889-0.0127-0.0381-0.0254-0.10795t-0.01905-0.1016q0-0.03175-0.0127-0.1016t-0.0127-0.0889q-0.2032 0.23495-0.60325 0.4572-0.3937 0.2159-0.6731 0.2159-0.1778 0-0.42545-0.05715t-0.36195-0.1397q-0.19685-0.14605-0.19685-0.6223 0-0.2794 0.15875-0.4826t0.5715-0.4064q0.46355-0.23495 0.86995-0.23495 0.1778 0 0.2921 0.04445 0.12065 0.04445 0.18415 0.10795 0.06985 0.05715 0.0762 0.05715 0.1016 0.01905 0.1778 0.08255 0-0.4191-0.0381-0.6985-0.03175-0.28575-0.09525-0.4191t-0.127-0.18415-0.1524-0.0508q-0.3048 0-0.6604 0.12065-0.34925 0.12065-0.635 0.24765-0.2794 0.12065-0.4064 0.12065-0.15875 0-0.15875-0.14605 0-0.0889 0.0381-0.15875 0.0381-0.0762 0.0889-0.127 0.05715-0.0508 0.17145-0.1016 0.12065-0.05715 0.2159-0.0889 0.1016-0.0381 0.2921-0.1016 0.1905-0.06985 0.3302-0.12065 0.381-0.13335 0.66675-0.13335 0.51435 0 0.76835 0.4826 0.1143 0.2159 0.13335 0.3937 0.0254 0.1778 0.0381 1.035 0.0127 0.80645 0.05715 1.251z" style="font-variant-caps:normal;font-variant-east-asian:normal;font-variant-ligatures:normal;font-variant-numeric:normal"/>
    <path d="m31.679 37.765q0-0.46355 0.0381-0.7112t0.0889-0.31115q0.05715-0.06985 0.1524-0.06985 0.1524 0 0.18415 0.127 0.03175 0.13335 0.13335 1.6192 0.10795 1.4859 0.19685 2.8892 0.09525 1.4034 0.09525 1.4351 0 0.22225-0.2413 0.22225-0.2159 0-0.2794-0.26035-0.05715-0.2667-0.14605-1.5494-0.1016-1.3526-0.18415-2.3558-0.0381-0.5334-0.0381-1.035z" style="font-variant-caps:normal;font-variant-east-asian:normal;font-variant-ligatures:normal;font-variant-numeric:normal"/>
    <path d="m36.156 42.712q-0.15875-0.0127-0.37465-0.1524-0.20955-0.14605-0.24765-0.14605-0.06985 0-0.1143-0.0254-0.0381-0.0254-0.04445-0.0508l-0.0127-0.0254q-0.0889-0.0635-0.8255-0.2921l-0.2413-0.0762 0.0381 0.381q0.0254 0.2159 0.0254 0.31115 0 0.3429-0.2413 0.3429-0.2667 0-0.3302-0.3048t-0.10795-1.4351q-0.0508-1.035-0.09525-1.2764-0.13335-0.6858-0.13335-1.778 0-0.3302 0.2286-0.3302 0.1778 0 0.254 0.19685 0.0381 0.09525 0.0889 0.56515t0.10795 1.0414 0.09525 0.8001l0.03175 0.2032 0.6858-0.60325q0.0508-0.04445 0.13335-0.12065 0.0889-0.0762 0.13335-0.1143 0.0508-0.04445 0.12065-0.10795 0.0762-0.0635 0.1143-0.09525 0.04445-0.0381 0.1016-0.08255 0.0635-0.04445 0.1016-0.06985t0.0762-0.0508q0.04445-0.0254 0.0762-0.03175 0.03175-0.0127 0.05715-0.0127 0.1016 0.0127 0.1651 0.09525 0.06985 0.0762 0.06985 0.1651 0 0.0762-0.0381 0.1143-0.03175 0.0381-0.13335 0.127-0.1016 0.08255-0.19685 0.2159-0.2667 0.37465-1.1366 0.9652-0.2413 0.1651-0.254 0.24765 0 0.04445 0.0762 0.0762l0.76835 0.3048 0.04445 0.0254q0.0508 0.01905 0.1016 0.04445 0.05715 0.01905 0.1397 0.05715t0.15875 0.08255q0.08255 0.0381 0.17145 0.0889 0.09525 0.0508 0.17145 0.1016 0.08255 0.04445 0.1524 0.1016 0.0762 0.05715 0.127 0.10795 0.05715 0.0508 0.0889 0.10795 0.03175 0.0508 0.03175 0.1016 0 0.09525-0.05715 0.1524t-0.1524 0.05715z" style="font-variant-caps:normal;font-variant-east-asian:normal;font-variant-ligatures:normal;font-variant-numeric:normal"/>
    <path d="m37.762 40.026q0.5334-0.4572 0.90805-0.60325 0.381-0.14605 0.9525-0.14605 0.88265 0 1.1049 0.4953 0.127 0.2794 0.127 0.69215 0 0.65405-0.3175 1.3335-0.31115 0.67945-0.79375 0.9525-0.4699 0.26035-0.99695 0.26035-0.7747 0-1.1811-0.4572-0.28575-0.3175-0.37465-0.53975-0.08255-0.2286-0.08255-0.62865 0-0.79375 0.65405-1.3589zm1.1494 2.4574q0.5207 0 0.95885-0.6604 0.4445-0.66675 0.4445-1.5113 0-0.0889-0.01905-0.1397-0.0127-0.0508-0.03175-0.06985-0.01905-0.0254-0.06985-0.0635-0.2286-0.1651-0.4826-0.1651-0.0381 0-0.10795 0.0127-0.0635 0.0064-0.19685 0.0254-0.127 0.0127-0.2794 0.0254-0.20955 0.01905-0.3429 0.08255-0.127 0.05715-0.3302 0.2286-0.381 0.32385-0.5461 0.5969-0.15875 0.2667-0.15875 0.5842 0 0.46355 0.32385 0.762 0.32385 0.2921 0.8382 0.2921z" style="font-variant-caps:normal;font-variant-east-asian:normal;font-variant-ligatures:normal;font-variant-numeric:normal"/>
    <path d="m42.817 39.416q-0.2032 0.0127-0.5588 0.0762-0.34925 0.05715-0.4699 0.05715-0.27305 0-0.27305-0.2159 0-0.17145 0.2413-0.26035t0.5715-0.1397q0.33655-0.0508 0.4318-0.1016 0.0508-0.0508 0.0508-0.27305 0-0.2286-0.05715-0.5969t-0.05715-0.66675q0-0.2032 0.10795-0.29845 0.10795-0.1016 0.23495-0.1016 0.1397 0 0.19685 0.1143 0.03175 0.09525 0.10795 0.83185 0.0762 0.73025 0.09525 0.84455 0.0508-0.0063 0.33655-0.0508 0.2921-0.0508 0.4445-0.0508 0.2159 0 0.3048 0.06985t0.0889 0.1524q0 0.12065-0.1651 0.2032t-0.5969 0.1905l-0.36195 0.05715 0.0508 0.9652q0.0508 0.89535 0.1778 1.6764t0.127 0.9017q0 0.2794-0.2921 0.2794-0.17145 0-0.254-0.0635-0.1905-0.17145-0.1905-0.71755 0-0.22225-0.0254-0.45085-0.0254-0.23495-0.0889-0.7239-0.05715-0.4953-0.10795-1.0224-0.0635-0.6604-0.06985-0.6858z" style="font-variant-caps:normal;font-variant-east-asian:normal;font-variant-ligatures:normal;font-variant-numeric:normal"/>
    <path d="m47.579 38.527q-0.01905 0-0.0508-0.0063-0.03175-0.0064-0.0889-0.0508-0.0508-0.0508-0.0508-0.13335t0.06985-0.18415q0.08255-0.10795 0.41275-0.42545t0.42545-0.3175q0.08255 0 0.17145 0.0762 0.0889 0.06985 0.0889 0.1524 0 0.12065-0.4064 0.508-0.4064 0.381-0.5715 0.381zm-1.5621 1.4986q0.5334-0.4572 0.90805-0.60325 0.381-0.14605 0.9525-0.14605 0.88265 0 1.1049 0.4953 0.127 0.2794 0.127 0.69215 0 0.65405-0.3175 1.3335-0.31115 0.67945-0.79375 0.9525-0.4699 0.26035-0.99695 0.26035-0.7747 0-1.1811-0.4572-0.28575-0.3175-0.37465-0.53975-0.08255-0.2286-0.08255-0.62865 0-0.79375 0.65405-1.3589zm1.1494 2.4574q0.5207 0 0.95885-0.6604 0.4445-0.66675 0.4445-1.5113 0-0.0889-0.01905-0.1397-0.0127-0.0508-0.03175-0.06985-0.01905-0.0254-0.06985-0.0635-0.2286-0.1651-0.4826-0.1651-0.0381 0-0.10795 0.0127-0.0635 0.0064-0.19685 0.0254-0.127 0.0127-0.2794 0.0254-0.2159 0.0254-0.3429 0.0889-0.127 0.05715-0.3302 0.22225-0.381 0.32385-0.5461 0.5969-0.15875 0.2667-0.15875 0.5842 0 0.46355 0.32385 0.762 0.32385 0.2921 0.8382 0.2921z" style="font-variant-caps:normal;font-variant-east-asian:normal;font-variant-ligatures:normal;font-variant-numeric:normal"/>
    <path d="m52.501 42.712q-0.15875-0.0127-0.37465-0.1524-0.20955-0.14605-0.24765-0.14605-0.06985 0-0.1143-0.0254-0.0381-0.0254-0.04445-0.0508l-0.0127-0.0254q-0.0889-0.0635-0.8255-0.2921l-0.2413-0.0762 0.0381 0.381q0.0254 0.2159 0.0254 0.31115 0 0.3429-0.2413 0.3429-0.2667 0-0.3302-0.3048t-0.10795-1.4351q-0.0508-1.035-0.09525-1.2764-0.13335-0.6858-0.13335-1.778 0-0.3302 0.2286-0.3302 0.1778 0 0.254 0.19685 0.0381 0.09525 0.0889 0.56515t0.10795 1.0414 0.09525 0.8001l0.03175 0.2032 0.6858-0.60325q0.0508-0.04445 0.13335-0.12065 0.0889-0.0762 0.13335-0.1143 0.0508-0.04445 0.12065-0.10795 0.0762-0.0635 0.1143-0.09525 0.04445-0.0381 0.1016-0.08255 0.0635-0.04445 0.1016-0.06985t0.0762-0.0508q0.04445-0.0254 0.0762-0.03175 0.03175-0.0127 0.05715-0.0127 0.1016 0.0127 0.1651 0.09525 0.06985 0.0762 0.06985 0.1651 0 0.0762-0.0381 0.1143-0.03175 0.0381-0.13335 0.127-0.1016 0.08255-0.19685 0.2159-0.2667 0.37465-1.1366 0.9652-0.2413 0.1651-0.254 0.24765 0 0.04445 0.0762 0.0762l0.76835 0.3048 0.04445 0.0254q0.0508 0.01905 0.1016 0.04445 0.05715 0.01905 0.1397 0.05715t0.15875 0.08255q0.08255 0.0381 0.17145 0.0889 0.09525 0.0508 0.17145 0.1016 0.08255 0.04445 0.1524 0.1016 0.0762 0.05715 0.127 0.10795 0.05715 0.0508 0.0889 0.10795 0.03175 0.0508 0.03175 0.1016 0 0.09525-0.05715 0.1524t-0.1524 0.05715z" style="font-variant-caps:normal;font-variant-east-asian:normal;font-variant-ligatures:normal;font-variant-numeric:normal"/>
   </g>
   <g stroke-width=".20189" style="font-variant-caps:normal;font-variant-east-asian:normal;font-variant-ligatures:normal;font-variant-numeric:normal" aria-label="Sejtek">
    <path d="m21.938 22.948q0.24765 0 0.24765 0.2667 0 0.127-0.10795 0.2413-0.1016 0.10795-0.1016 0.13335 0 0.04445 0.04445 0.13335 0.0508 0.10795 0.13335 0.13335 0.0889 0.01905 0.48895 0.01905 0.3429 0 0.508-0.03175 0.1651-0.0381 0.32385-0.1397 0.24765-0.1651 0.3048-0.254t0.05715-0.32385q0-0.1651-0.0635-0.22225-0.05715-0.05715-0.3683-0.1905-0.40005-0.1778-0.57785-0.19685-0.33655 0-0.9525-0.4953-0.6096-0.50165-0.6096-0.7747 0-0.37465 0.37465-0.8255 0.37465-0.4572 0.8382-0.6604 0.26035-0.1143 0.93345-0.1143 0.29845 0 0.45085 0.04445t0.3175 0.1778q0.3048 0.254 0.3048 0.45085 0 0.23495-0.13335 0.23495-0.06985 0-0.15875-0.0635t-0.1778-0.13335q-0.0889-0.0762-0.254-0.1397t-0.3683-0.0635q-0.53975 0-0.99695 0.36195-0.45085 0.36195-0.45085 0.78105 0 0.1397 0.37465 0.33655 0.381 0.19685 0.98425 0.37465 1.1303 0.33655 1.1303 1.0858 0 0.1651-0.05715 0.34925-0.15875 0.52705-0.5461 0.73025-0.381 0.2032-1.3462 0.26035l-0.6858 0.04445-0.19685-0.4064q-0.1397-0.27305-0.1397-0.5588 0-0.254 0.127-0.4064 0.13335-0.15875 0.34925-0.15875z" style="font-variant-caps:normal;font-variant-east-asian:normal;font-variant-ligatures:normal;font-variant-numeric:normal"/>
    <path d="m27.92 21.945q0-0.0508-0.2794-0.26035-0.2032-0.1524-0.2921-0.1905-0.08255-0.0381-0.2413-0.0381-0.3175 0-0.4699 0.0508-0.14605 0.04445-0.31115 0.2032-0.48895 0.47625-0.4953 0.61595 0.0254 0.0064 0.10795 0.0064 0.61595 0 1.7082-0.2159 0.27305-0.0508 0.27305-0.17145zm0.81915 1.0033q0.1143 0 0.1143 0.13335 0 0.14605-0.18415 0.4191-0.18415 0.2667-0.3683 0.4318-0.7112 0.6096-1.4668 0.6096-0.6223 0-1.124-0.48895t-0.50165-1.3462q0-0.2413 0.06985-0.46355 0.13335-0.3937 0.5969-0.81915 0.46355-0.4318 0.889-0.4318 0.1143 0 0.33655 0.01905 0.3429 0.0254 0.4826 0.06985 0.14605 0.0381 0.3302 0.15875 0.2032 0.13335 0.3683 0.381 0.1651 0.2413 0.1651 0.42545 0 0.2413-0.19685 0.3556t-0.66675 0.20955q-0.61595 0.12065-1.27 0.15875l-0.55245 0.0254v0.1651q0 0.23495 0.1016 0.41275 0.10795 0.1778 0.3429 0.37465 0.33655 0.2794 0.6858 0.2794 0.2794 0 0.59055-0.1651 0.31115-0.17145 0.52705-0.37465 0.22225-0.2032 0.42545-0.3683 0.20955-0.17145 0.3048-0.17145z" style="font-variant-caps:normal;font-variant-east-asian:normal;font-variant-ligatures:normal;font-variant-numeric:normal"/>
    <path d="m31.057 25.443q0.0381 0 0.0762-0.09525t0.06985-0.38735 0.03175-0.74295q0-1.0414-0.0889-1.3462-0.31115-1.0033-0.31115-1.7208 0-0.14605 0.04445-0.19685 0.04445-0.05715 0.2159-0.05715 0.18415 0 0.2286 0.10795 0.0508 0.1016 0.15875 0.635 0.28575 1.4224 0.28575 2.3432 0 0.1397-0.0127 0.4699-0.0127 0.37465-0.03175 0.59055t-0.06985 0.41275q-0.04445 0.2032-0.1143 0.2921-0.0635 0.09525-0.19685 0.1651-0.127 0.06985-0.2921 0.0889-0.15875 0.01905-0.41275 0.01905-0.3429 0-0.5461-0.0508-0.2032-0.04445-0.24765-0.1016t-0.06985-0.12065q-0.0254-0.05715-0.0508-0.0635-0.08255-0.0254-0.12065-0.10795-0.03175-0.08255-0.03175-0.32385 0-0.34925 0.08255-0.51435 0.0889-0.1651 0.2032-0.1651t0.1778 0.19685q0.06985 0.2032 0.0762 0.4064l0.0127 0.19685q0.04445 0.03175 0.27305 0.05715 0.23495 0.03175 0.43815 0.03175 0.14605 0 0.22225-0.01905zm-0.4953-5.8928q0-0.14605 0.12065-0.2286 0.12065-0.0889 0.2413-0.0889 0.0889 0 0.2032 0.08255 0.12065 0.08255 0.12065 0.254 0 0.1651-0.08255 0.24765-0.08255 0.0762-0.19685 0.0762-0.14605 0-0.2794-0.1016-0.127-0.10795-0.127-0.2413z" style="font-variant-caps:normal;font-variant-east-asian:normal;font-variant-ligatures:normal;font-variant-numeric:normal"/>
    <path d="m34.022 21.005q-0.2032 0.0127-0.5588 0.0762-0.34925 0.05715-0.4699 0.05715-0.27305 0-0.27305-0.2159 0-0.17145 0.2413-0.26035t0.5715-0.1397q0.33655-0.0508 0.4318-0.1016 0.0508-0.0508 0.0508-0.27305 0-0.2286-0.05715-0.5969t-0.05715-0.66675q0-0.2032 0.10795-0.29845 0.10795-0.1016 0.23495-0.1016 0.1397 0 0.19685 0.1143 0.03175 0.09525 0.10795 0.83185 0.0762 0.73025 0.09525 0.84455 0.0508-0.0064 0.33655-0.0508 0.2921-0.0508 0.4445-0.0508 0.2159 0 0.3048 0.06985t0.0889 0.1524q0 0.12065-0.1651 0.2032t-0.5969 0.1905l-0.36195 0.05715 0.0508 0.9652q0.0508 0.89535 0.1778 1.6764t0.127 0.9017q0 0.2794-0.2921 0.2794-0.17145 0-0.254-0.0635-0.1905-0.17145-0.1905-0.71755 0-0.22225-0.0254-0.45085-0.0254-0.23495-0.0889-0.7239-0.05715-0.4953-0.10795-1.0224-0.0635-0.6604-0.06985-0.6858z" style="font-variant-caps:normal;font-variant-east-asian:normal;font-variant-ligatures:normal;font-variant-numeric:normal"/>
    <path d="m39.248 21.945q0-0.0508-0.2794-0.26035-0.2032-0.1524-0.2921-0.1905-0.08255-0.0381-0.2413-0.0381-0.3175 0-0.4699 0.0508-0.14605 0.04445-0.31115 0.2032-0.48895 0.47625-0.4953 0.61595 0.0254 0.0064 0.10795 0.0064 0.61595 0 1.7082-0.2159 0.27305-0.0508 0.27305-0.17145zm0.81915 1.0033q0.1143 0 0.1143 0.13335 0 0.14605-0.18415 0.4191-0.18415 0.2667-0.3683 0.4318-0.7112 0.6096-1.4668 0.6096-0.6223 0-1.124-0.48895t-0.50165-1.3462q0-0.2413 0.06985-0.46355 0.13335-0.3937 0.5969-0.81915 0.46355-0.4318 0.889-0.4318 0.1143 0 0.33655 0.01905 0.3429 0.0254 0.4826 0.06985 0.14605 0.0381 0.3302 0.15875 0.2032 0.13335 0.3683 0.381 0.1651 0.2413 0.1651 0.42545 0 0.2413-0.19685 0.3556t-0.66675 0.20955q-0.61595 0.12065-1.27 0.15875l-0.55245 0.0254v0.1651q0 0.23495 0.1016 0.41275 0.10795 0.1778 0.3429 0.37465 0.33655 0.2794 0.6858 0.2794 0.2794 0 0.59055-0.1651 0.31115-0.17145 0.52705-0.37465 0.22225-0.2032 0.42545-0.3683 0.20955-0.17145 0.3048-0.17145z" style="font-variant-caps:normal;font-variant-east-asian:normal;font-variant-ligatures:normal;font-variant-numeric:normal"/>
    <path d="m43.49 24.3q-0.15875-0.0127-0.37465-0.1524-0.20955-0.14605-0.24765-0.14605-0.06985 0-0.1143-0.0254-0.0381-0.0254-0.04445-0.0508l-0.0127-0.0254q-0.0889-0.0635-0.8255-0.2921l-0.2413-0.0762 0.0381 0.381q0.0254 0.2159 0.0254 0.31115 0 0.3429-0.2413 0.3429-0.2667 0-0.3302-0.3048t-0.10795-1.4351q-0.0508-1.035-0.09525-1.2764-0.13335-0.6858-0.13335-1.778 0-0.3302 0.2286-0.3302 0.1778 0 0.254 0.19685 0.0381 0.09525 0.0889 0.56515t0.10795 1.0414 0.09525 0.8001l0.03175 0.2032 0.6858-0.60325q0.0508-0.04445 0.13335-0.12065 0.0889-0.0762 0.13335-0.1143 0.0508-0.04445 0.12065-0.10795 0.0762-0.0635 0.1143-0.09525 0.04445-0.0381 0.1016-0.08255 0.0635-0.04445 0.1016-0.06985t0.0762-0.0508q0.04445-0.0254 0.0762-0.03175 0.03175-0.0127 0.05715-0.0127 0.1016 0.0127 0.1651 0.09525 0.06985 0.0762 0.06985 0.1651 0 0.0762-0.0381 0.1143-0.03175 0.0381-0.13335 0.127-0.1016 0.08255-0.19685 0.2159-0.2667 0.37465-1.1366 0.9652-0.2413 0.1651-0.254 0.24765 0 0.04445 0.0762 0.0762l0.76835 0.3048 0.04445 0.0254q0.0508 0.01905 0.1016 0.04445 0.05715 0.01905 0.1397 0.05715t0.15875 0.08255q0.08255 0.0381 0.17145 0.0889 0.09525 0.0508 0.17145 0.1016 0.08255 0.04445 0.1524 0.1016 0.0762 0.05715 0.127 0.10795 0.05715 0.0508 0.0889 0.10795 0.03175 0.0508 0.03175 0.1016 0 0.09525-0.05715 0.1524t-0.1524 0.05715z" style="font-variant-caps:normal;font-variant-east-asian:normal;font-variant-ligatures:normal;font-variant-numeric:normal"/>
   </g>
   <g stroke-width=".20189" style="font-variant-caps:normal;font-variant-east-asian:normal;font-variant-ligatures:normal;font-variant-numeric:normal" aria-label="Szövetek">
    <path d="m17.392 3.3326q0.24765 0 0.24765 0.2667 0 0.127-0.10795 0.2413-0.1016 0.10795-0.1016 0.13335 0 0.04445 0.04445 0.13335 0.0508 0.10795 0.13335 0.13335 0.0889 0.01905 0.48895 0.01905 0.3429 0 0.508-0.03175 0.1651-0.0381 0.32385-0.1397 0.24765-0.1651 0.3048-0.254t0.05715-0.32385q0-0.1651-0.0635-0.22225-0.05715-0.05715-0.3683-0.1905-0.40005-0.1778-0.57785-0.19685-0.33655 0-0.9525-0.4953-0.6096-0.50165-0.6096-0.7747 0-0.37465 0.37465-0.8255 0.37465-0.4572 0.8382-0.6604 0.26035-0.1143 0.93345-0.1143 0.29845 0 0.45085 0.04445t0.3175 0.1778q0.3048 0.254 0.3048 0.45085 0 0.23495-0.13335 0.23495-0.06985 0-0.15875-0.0635t-0.1778-0.13335q-0.0889-0.0762-0.254-0.1397t-0.3683-0.0635q-0.53975 0-0.99695 0.36195-0.45085 0.36195-0.45085 0.78105 0 0.1397 0.37465 0.33655 0.381 0.19685 0.98425 0.37465 1.1303 0.33655 1.1303 1.0858 0 0.1651-0.05715 0.34925-0.15875 0.52705-0.5461 0.73025-0.381 0.2032-1.3462 0.26035l-0.6858 0.04445-0.19685-0.4064q-0.1397-0.27305-0.1397-0.5588 0-0.254 0.127-0.4064 0.13335-0.15875 0.34925-0.15875z" style="font-variant-caps:normal;font-variant-east-asian:normal;font-variant-ligatures:normal;font-variant-numeric:normal"/>
    <path d="m21.595 4.8947q-0.29845 0-0.29845-0.18415 0-0.1397 0.2286-0.5461 0.23495-0.41275 0.36195-0.5461 0.0762-0.0762 0.12065-0.127-0.03175-0.00635-0.13335-0.00635-0.09525-0.00635-0.15875-0.0127-0.05715-0.00635-0.127-0.0254t-0.10795-0.0508q-0.0381-0.0381-0.0381-0.09525 0-0.2667 0.6858-0.2667 0.23495 0 0.29845-0.01905 0.06985-0.01905 0.13335-0.09525 0.1778-0.2159 0.2794-0.46355 0.10795-0.254 0.10795-0.4064 0-0.0508-0.0064-0.06985-0.0254-0.00635-0.09525-0.00635-0.31115 0-0.9144 0.1651-0.60325 0.15875-0.7112 0.27305-0.0889 0.1143-0.26035 0.1143-0.1143 0-0.2032-0.0508-0.0889-0.05715-0.0889-0.14605 0-0.0635 0.04445-0.1143 0.1397-0.19685 0.7874-0.4191t0.9652-0.2921q0.10795-0.01905 0.2286-0.01905 0.47625 0 0.65405 0.18415 0.1016 0.10795 0.1016 0.34925 0 0.34925-0.1905 0.73025l-0.09525 0.18415 0.12065 0.0127q0.3683 0.0381 0.3683 0.1651 0 0.08255-0.15875 0.1651-0.1524 0.0762-0.3937 0.1016-0.1778 0.01905-0.27305 0.0635t-0.26035 0.1905q-0.1397 0.127-0.3175 0.34925-0.17145 0.22225-0.2413 0.3556 1.1557-0.19685 1.4796-0.19685 0.4445 0 0.4445 0.19685 0 0.12065-0.15875 0.1905t-0.5461 0.13335q-1.3272 0.23495-1.632 0.23495z" style="font-variant-caps:normal;font-variant-east-asian:normal;font-variant-ligatures:normal;font-variant-numeric:normal"/>
    <path d="m27.831 0.075031q-0.08255 0.29845-0.20955 0.4445-0.127 0.1397-0.2667 0.1397-0.13335 0-0.23495-0.127-0.09525-0.127-0.09525-0.32385 0-0.1651 0.08255-0.2667 0.0889-0.1016 0.2286-0.1016 0.1651 0 0.4953 0.23495zm-1.0096-0.0381q-0.0889 0.29845-0.2159 0.4445t-0.2667 0.14605q-0.13335 0-0.2286-0.127t-0.09525-0.32385q0-0.1651 0.08255-0.2667 0.0889-0.1016 0.2286-0.1016 0.0635 0 0.14605 0.03175t0.13335 0.0635q0.0508 0.0254 0.13335 0.08255zm-1.632 1.9621q0.5334-0.4572 0.90805-0.60325 0.381-0.14605 0.9525-0.14605 0.88265 0 1.1049 0.4953 0.127 0.2794 0.127 0.69215 0 0.65405-0.3175 1.3335-0.31115 0.67945-0.79375 0.9525-0.4699 0.26035-0.99695 0.26035-0.7747 0-1.1811-0.4572-0.28575-0.3175-0.37465-0.53975-0.08255-0.2286-0.08255-0.62865 0-0.79375 0.65405-1.3589zm1.1494 2.4574q0.5207 0 0.95885-0.6604 0.4445-0.66675 0.4445-1.5113 0-0.0889-0.01905-0.1397-0.0127-0.0508-0.03175-0.06985-0.01905-0.0254-0.06985-0.0635-0.2286-0.1651-0.4826-0.1651-0.0381 0-0.10795 0.0127-0.0635 0.00635-0.19685 0.0254-0.127 0.0127-0.2794 0.0254-0.2159 0.0254-0.3429 0.0889-0.127 0.05715-0.3302 0.22225-0.381 0.32385-0.5461 0.5969-0.15875 0.2667-0.15875 0.5842 0 0.46355 0.32385 0.762 0.32385 0.2921 0.8382 0.2921z" style="font-variant-caps:normal;font-variant-east-asian:normal;font-variant-ligatures:normal;font-variant-numeric:normal"/>
    <path d="m31.781 1.853q0-0.1778 0.10795-0.34925 0.1143-0.17145 0.2794-0.17145 0.04445 0 0.0889 0.01905 0.04445 0.0127 0.0889 0.06985t0.04445 0.15875q0 0.17145-0.1651 0.6477-0.15875 0.4699-0.6477 1.7145-0.18415 0.4699-0.4699 0.8255-0.28575 0.34925-0.47625 0.34925-0.1016 0-0.1905-0.05715-0.08255-0.05715-0.1651-0.18415t-0.14605-0.26035-0.1397-0.3556q-0.0762-0.2286-0.13335-0.4064-0.0508-0.1778-0.1397-0.4699-0.0889-0.29845-0.1524-0.48895-0.381-1.2065-0.381-1.3652 0-0.1397 0.13335-0.1397 0.0381 0 0.0762 0.00635h0.0064q0.20955 0.0508 0.46355 0.6731t0.4953 1.4542q0.2413 0.8255 0.3048 0.97155 0.12065-0.1651 0.31115-0.52705 0.1905-0.3683 0.29845-0.69215 0.1016-0.2921 0.23495-0.635 0.1397-0.3429 0.2032-0.5207 0.06985-0.18415 0.06985-0.2667z" style="font-variant-caps:normal;font-variant-east-asian:normal;font-variant-ligatures:normal;font-variant-numeric:normal"/>
    <path d="m35.756 2.3293q0-0.0508-0.2794-0.26035-0.2032-0.1524-0.2921-0.1905-0.08255-0.0381-0.2413-0.0381-0.3175 0-0.4699 0.0508-0.14605 0.04445-0.31115 0.2032-0.48895 0.47625-0.4953 0.61595 0.0254 0.00635 0.10795 0.00635 0.61595 0 1.7082-0.2159 0.27305-0.0508 0.27305-0.17145zm0.81915 1.0033q0.1143 0 0.1143 0.13335 0 0.14605-0.18415 0.4191-0.18415 0.2667-0.3683 0.4318-0.7112 0.6096-1.4668 0.6096-0.6223 0-1.124-0.48895t-0.50165-1.3462q0-0.2413 0.06985-0.46355 0.13335-0.3937 0.5969-0.81915 0.46355-0.4318 0.889-0.4318 0.1143 0 0.33655 0.01905 0.3429 0.0254 0.4826 0.06985 0.14605 0.0381 0.3302 0.15875 0.2032 0.13335 0.3683 0.381 0.1651 0.2413 0.1651 0.42545 0 0.2413-0.19685 0.3556t-0.66675 0.20955q-0.61595 0.12065-1.27 0.15875l-0.55245 0.0254v0.1651q0 0.23495 0.1016 0.41275 0.10795 0.1778 0.3429 0.37465 0.33655 0.2794 0.6858 0.2794 0.2794 0 0.59055-0.1651 0.31115-0.17145 0.52705-0.37465 0.22225-0.2032 0.42545-0.3683 0.20955-0.17145 0.3048-0.17145z" style="font-variant-caps:normal;font-variant-east-asian:normal;font-variant-ligatures:normal;font-variant-numeric:normal"/>
    <path d="m38.569 1.3895q-0.2032 0.0127-0.5588 0.0762-0.34925 0.05715-0.4699 0.05715-0.27305 0-0.27305-0.2159 0-0.17145 0.2413-0.26035t0.5715-0.1397q0.33655-0.0508 0.4318-0.1016 0.0508-0.0508 0.0508-0.27305 0-0.2286-0.05715-0.5969-0.05715-0.3683-0.05715-0.66675 0-0.2032 0.10795-0.29845 0.10795-0.1016 0.23495-0.1016 0.1397 0 0.19685 0.1143 0.03175 0.09525 0.10795 0.83185 0.0762 0.73025 0.09525 0.84455 0.0508-0.00635 0.33655-0.0508 0.2921-0.0508 0.4445-0.0508 0.2159 0 0.3048 0.06985t0.0889 0.1524q0 0.12065-0.1651 0.2032t-0.5969 0.1905l-0.36195 0.05715 0.0508 0.9652q0.0508 0.89535 0.1778 1.6764t0.127 0.9017q0 0.2794-0.2921 0.2794-0.17145 0-0.254-0.0635-0.1905-0.17145-0.1905-0.71755 0-0.22225-0.0254-0.45085-0.0254-0.23495-0.0889-0.7239-0.05715-0.4953-0.10795-1.0224-0.0635-0.6604-0.06985-0.6858z" style="font-variant-caps:normal;font-variant-east-asian:normal;font-variant-ligatures:normal;font-variant-numeric:normal"/>
    <path d="m43.795 2.3293q0-0.0508-0.2794-0.26035-0.2032-0.1524-0.2921-0.1905-0.08255-0.0381-0.2413-0.0381-0.3175 0-0.4699 0.0508-0.14605 0.04445-0.31115 0.2032-0.48895 0.47625-0.4953 0.61595 0.0254 0.00635 0.10795 0.00635 0.61595 0 1.7082-0.2159 0.27305-0.0508 0.27305-0.17145zm0.81915 1.0033q0.1143 0 0.1143 0.13335 0 0.14605-0.18415 0.4191-0.18415 0.2667-0.3683 0.4318-0.7112 0.6096-1.4668 0.6096-0.6223 0-1.124-0.48895t-0.50165-1.3462q0-0.2413 0.06985-0.46355 0.13335-0.3937 0.5969-0.81915 0.46355-0.4318 0.889-0.4318 0.1143 0 0.33655 0.01905 0.3429 0.0254 0.4826 0.06985 0.14605 0.0381 0.3302 0.15875 0.2032 0.13335 0.3683 0.381 0.1651 0.2413 0.1651 0.42545 0 0.2413-0.19685 0.3556t-0.66675 0.20955q-0.61595 0.12065-1.27 0.15875l-0.55245 0.0254v0.1651q0 0.23495 0.1016 0.41275 0.10795 0.1778 0.3429 0.37465 0.33655 0.2794 0.6858 0.2794 0.2794 0 0.59055-0.1651 0.31115-0.17145 0.52705-0.37465 0.22225-0.2032 0.42545-0.3683 0.20955-0.17145 0.3048-0.17145z" style="font-variant-caps:normal;font-variant-east-asian:normal;font-variant-ligatures:normal;font-variant-numeric:normal"/>
    <path d="m48.037 4.6851q-0.15875-0.0127-0.37465-0.1524-0.20955-0.14605-0.24765-0.14605-0.06985 0-0.1143-0.0254-0.0381-0.0254-0.04445-0.0508l-0.0127-0.0254q-0.0889-0.0635-0.8255-0.2921l-0.2413-0.0762 0.0381 0.381q0.0254 0.2159 0.0254 0.31115 0 0.3429-0.2413 0.3429-0.2667 0-0.3302-0.3048t-0.10795-1.4351q-0.0508-1.035-0.09525-1.2764-0.13335-0.6858-0.13335-1.778 0-0.3302 0.2286-0.3302 0.1778 0 0.254 0.19685 0.0381 0.09525 0.0889 0.56515 0.0508 0.4699 0.10795 1.0414t0.09525 0.8001l0.03175 0.2032 0.6858-0.60325q0.0508-0.04445 0.13335-0.12065 0.0889-0.0762 0.13335-0.1143 0.0508-0.04445 0.12065-0.10795 0.0762-0.0635 0.1143-0.09525 0.04445-0.0381 0.1016-0.08255 0.0635-0.04445 0.1016-0.06985t0.0762-0.0508q0.04445-0.0254 0.0762-0.03175 0.03175-0.0127 0.05715-0.0127 0.1016 0.0127 0.1651 0.09525 0.06985 0.0762 0.06985 0.1651 0 0.0762-0.0381 0.1143-0.03175 0.0381-0.13335 0.127-0.1016 0.08255-0.19685 0.2159-0.2667 0.37465-1.1366 0.9652-0.2413 0.1651-0.254 0.24765 0 0.04445 0.0762 0.0762l0.76835 0.3048 0.04445 0.0254q0.0508 0.01905 0.1016 0.04445 0.05715 0.01905 0.1397 0.05715t0.15875 0.08255q0.08255 0.0381 0.17145 0.0889 0.09525 0.0508 0.17145 0.1016 0.08255 0.04445 0.1524 0.1016 0.0762 0.05715 0.127 0.10795 0.05715 0.0508 0.0889 0.10795 0.03175 0.0508 0.03175 0.1016 0 0.09525-0.05715 0.1524t-0.1524 0.05715z" style="font-variant-caps:normal;font-variant-east-asian:normal;font-variant-ligatures:normal;font-variant-numeric:normal"/>
   </g>
   <g stroke-width=".20189" style="font-variant-caps:normal;font-variant-east-asian:normal;font-variant-ligatures:normal;font-variant-numeric:normal" aria-label="Szervek">
    <path d="m19.684-16.056q0.24765 0 0.24765 0.2667 0 0.127-0.10795 0.2413-0.1016 0.10795-0.1016 0.13335 0 0.04445 0.04445 0.13335 0.0508 0.10795 0.13335 0.13335 0.0889 0.01905 0.48895 0.01905 0.3429 0 0.508-0.03175 0.1651-0.0381 0.32385-0.1397 0.24765-0.1651 0.3048-0.254t0.05715-0.32385q0-0.1651-0.0635-0.22225-0.05715-0.05715-0.3683-0.1905-0.40005-0.1778-0.57785-0.19685-0.33655 0-0.9525-0.4953-0.6096-0.50165-0.6096-0.7747 0-0.37465 0.37465-0.8255 0.37465-0.4572 0.8382-0.6604 0.26035-0.1143 0.93345-0.1143 0.29845 0 0.45085 0.04445t0.3175 0.1778q0.3048 0.254 0.3048 0.45085 0 0.23495-0.13335 0.23495-0.06985 0-0.15875-0.0635t-0.1778-0.13335q-0.0889-0.0762-0.254-0.1397t-0.3683-0.0635q-0.53975 0-0.99695 0.36195-0.45085 0.36195-0.45085 0.78105 0 0.1397 0.37465 0.33655 0.381 0.19685 0.98425 0.37465 1.1303 0.33655 1.1303 1.0858 0 0.1651-0.05715 0.34925-0.15875 0.52705-0.5461 0.73025-0.381 0.2032-1.3462 0.26035l-0.6858 0.04445-0.19685-0.4064q-0.1397-0.27305-0.1397-0.5588 0-0.254 0.127-0.4064 0.13335-0.15875 0.34925-0.15875z" style="font-variant-caps:normal;font-variant-east-asian:normal;font-variant-ligatures:normal;font-variant-numeric:normal"/>
    <path d="m23.888-14.494q-0.29845 0-0.29845-0.18415 0-0.1397 0.2286-0.5461 0.23495-0.41275 0.36195-0.5461 0.0762-0.0762 0.12065-0.127-0.03175-0.0063-0.13335-0.0063-0.09525-0.0063-0.15875-0.0127-0.05715-0.0063-0.127-0.0254-0.06985-0.01905-0.10795-0.0508-0.0381-0.0381-0.0381-0.09525 0-0.2667 0.6858-0.2667 0.23495 0 0.29845-0.01905 0.06985-0.01905 0.13335-0.09525 0.1778-0.2159 0.2794-0.46355 0.10795-0.254 0.10795-0.4064 0-0.0508-0.0064-0.06985-0.0254-0.0064-0.09525-0.0064-0.31115 0-0.9144 0.1651-0.60325 0.15875-0.7112 0.27305-0.0889 0.1143-0.26035 0.1143-0.1143 0-0.2032-0.0508-0.0889-0.05715-0.0889-0.14605 0-0.0635 0.04445-0.1143 0.1397-0.19685 0.7874-0.4191t0.9652-0.2921q0.10795-0.01905 0.2286-0.01905 0.47625 0 0.65405 0.18415 0.1016 0.10795 0.1016 0.34925 0 0.34925-0.1905 0.73025l-0.09525 0.18415 0.12065 0.0127q0.3683 0.0381 0.3683 0.1651 0 0.08255-0.15875 0.1651-0.1524 0.0762-0.3937 0.1016-0.1778 0.01905-0.27305 0.0635t-0.26035 0.1905q-0.1397 0.127-0.3175 0.34925-0.17145 0.22225-0.2413 0.3556 1.1557-0.19685 1.4796-0.19685 0.4445 0 0.4445 0.19685 0 0.12065-0.15875 0.1905t-0.5461 0.13335q-1.3272 0.23495-1.632 0.23495z" style="font-variant-caps:normal;font-variant-east-asian:normal;font-variant-ligatures:normal;font-variant-numeric:normal"/>
    <path d="m29.507-17.06q0-0.0508-0.2794-0.26035-0.2032-0.1524-0.2921-0.1905-0.08255-0.0381-0.2413-0.0381-0.3175 0-0.4699 0.0508-0.14605 0.04445-0.31115 0.2032-0.48895 0.47625-0.4953 0.61595 0.0254 0.0064 0.10795 0.0064 0.61595 0 1.7082-0.2159 0.27305-0.0508 0.27305-0.17145zm0.81915 1.0033q0.1143 0 0.1143 0.13335 0 0.14605-0.18415 0.4191-0.18415 0.2667-0.3683 0.4318-0.7112 0.6096-1.4668 0.6096-0.6223 0-1.124-0.48895t-0.50165-1.3462q0-0.2413 0.06985-0.46355 0.13335-0.3937 0.5969-0.81915 0.46355-0.4318 0.889-0.4318 0.1143 0 0.33655 0.01905 0.3429 0.0254 0.4826 0.06985 0.14605 0.0381 0.3302 0.15875 0.2032 0.13335 0.3683 0.381 0.1651 0.2413 0.1651 0.42545 0 0.2413-0.19685 0.3556t-0.66675 0.20955q-0.61595 0.12065-1.27 0.15875l-0.55245 0.0254v0.1651q0 0.23495 0.1016 0.41275 0.10795 0.1778 0.3429 0.37465 0.33655 0.2794 0.6858 0.2794 0.2794 0 0.59055-0.1651 0.31115-0.17145 0.52705-0.37465 0.22225-0.2032 0.42545-0.3683 0.20955-0.17145 0.3048-0.17145z" style="font-variant-caps:normal;font-variant-east-asian:normal;font-variant-ligatures:normal;font-variant-numeric:normal"/>
    <path d="m33.597-17.625q0.12065 0 0.20955 0.05715 0.0889 0.0508 0.1143 0.1016 0.03175 0.0508 0.03175 0.0889 0 0.127-0.2921 0.23495-0.38735 0.14605-0.84455 0.71755-0.45085 0.5715-0.5461 1.0732-0.12065 0.64135-0.2032 0.8509-0.08255 0.2159-0.2413 0.2159-0.0635 0-0.1143-0.01905-0.04445-0.0127-0.0762-0.05715t-0.0508-0.0762-0.0381-0.1016q-0.0127-0.0762-0.01905-0.10795 0-0.0381-0.0127-0.12065-0.0064-0.0889-0.0064-0.10795-0.1524-1.4859-0.1524-2.4956 0-0.20955 0.0254-0.32385 0.0254-0.12065 0.127-0.20955 0.0635-0.05715 0.1397-0.05715 0.08255 0 0.1397 0.06985 0.05715 0.0635 0.05715 0.17145 0 0.23495 0.0635 0.66675 0.06985 0.42545 0.127 0.66675 0.0508-0.06985 0.14605-0.2159 0.2413-0.3937 0.6731-0.70485 0.4318-0.3175 0.74295-0.3175z" style="font-variant-caps:normal;font-variant-east-asian:normal;font-variant-ligatures:normal;font-variant-numeric:normal"/>
    <path d="m37.527-17.536q0-0.1778 0.10795-0.34925 0.1143-0.17145 0.2794-0.17145 0.04445 0 0.0889 0.01905 0.04445 0.0127 0.0889 0.06985t0.04445 0.15875q0 0.17145-0.1651 0.6477-0.15875 0.4699-0.6477 1.7145-0.18415 0.4699-0.4699 0.8255-0.28575 0.34925-0.47625 0.34925-0.1016 0-0.1905-0.05715-0.08255-0.05715-0.1651-0.18415t-0.14605-0.26035-0.1397-0.3556q-0.0762-0.2286-0.13335-0.4064-0.0508-0.1778-0.1397-0.4699-0.0889-0.29845-0.1524-0.48895-0.381-1.2065-0.381-1.3652 0-0.1397 0.13335-0.1397 0.0381 0 0.0762 0.0064h0.0064q0.20955 0.0508 0.46355 0.6731t0.4953 1.4542q0.2413 0.8255 0.3048 0.97155 0.12065-0.1651 0.31115-0.52705 0.1905-0.3683 0.29845-0.69215 0.1016-0.2921 0.23495-0.635 0.1397-0.3429 0.2032-0.5207 0.06985-0.18415 0.06985-0.2667z" style="font-variant-caps:normal;font-variant-east-asian:normal;font-variant-ligatures:normal;font-variant-numeric:normal"/>
    <path d="m41.502-17.06q0-0.0508-0.2794-0.26035-0.2032-0.1524-0.2921-0.1905-0.08255-0.0381-0.2413-0.0381-0.3175 0-0.4699 0.0508-0.14605 0.04445-0.31115 0.2032-0.48895 0.47625-0.4953 0.61595 0.0254 0.0064 0.10795 0.0064 0.61595 0 1.7082-0.2159 0.27305-0.0508 0.27305-0.17145zm0.81915 1.0033q0.1143 0 0.1143 0.13335 0 0.14605-0.18415 0.4191-0.18415 0.2667-0.3683 0.4318-0.7112 0.6096-1.4668 0.6096-0.6223 0-1.124-0.48895t-0.50165-1.3462q0-0.2413 0.06985-0.46355 0.13335-0.3937 0.5969-0.81915 0.46355-0.4318 0.889-0.4318 0.1143 0 0.33655 0.01905 0.3429 0.0254 0.4826 0.06985 0.14605 0.0381 0.3302 0.15875 0.2032 0.13335 0.3683 0.381 0.1651 0.2413 0.1651 0.42545 0 0.2413-0.19685 0.3556t-0.66675 0.20955q-0.61595 0.12065-1.27 0.15875l-0.55245 0.0254v0.1651q0 0.23495 0.1016 0.41275 0.10795 0.1778 0.3429 0.37465 0.33655 0.2794 0.6858 0.2794 0.2794 0 0.59055-0.1651 0.31115-0.17145 0.52705-0.37465 0.22225-0.2032 0.42545-0.3683 0.20955-0.17145 0.3048-0.17145z" style="font-variant-caps:normal;font-variant-east-asian:normal;font-variant-ligatures:normal;font-variant-numeric:normal"/>
    <path d="m45.744-14.704q-0.15875-0.0127-0.37465-0.1524-0.20955-0.14605-0.24765-0.14605-0.06985 0-0.1143-0.0254-0.0381-0.0254-0.04445-0.0508l-0.0127-0.0254q-0.0889-0.0635-0.8255-0.2921l-0.2413-0.0762 0.0381 0.381q0.0254 0.2159 0.0254 0.31115 0 0.3429-0.2413 0.3429-0.2667 0-0.3302-0.3048t-0.10795-1.4351q-0.0508-1.035-0.09525-1.2764-0.13335-0.6858-0.13335-1.778 0-0.3302 0.2286-0.3302 0.1778 0 0.254 0.19685 0.0381 0.09525 0.0889 0.56515t0.10795 1.0414 0.09525 0.8001l0.03175 0.2032 0.6858-0.60325q0.0508-0.04445 0.13335-0.12065 0.0889-0.0762 0.13335-0.1143 0.0508-0.04445 0.12065-0.10795 0.0762-0.0635 0.1143-0.09525 0.04445-0.0381 0.1016-0.08255 0.0635-0.04445 0.1016-0.06985t0.0762-0.0508q0.04445-0.0254 0.0762-0.03175 0.03175-0.0127 0.05715-0.0127 0.1016 0.0127 0.1651 0.09525 0.06985 0.0762 0.06985 0.1651 0 0.0762-0.0381 0.1143-0.03175 0.0381-0.13335 0.127-0.1016 0.08255-0.19685 0.2159-0.2667 0.37465-1.1366 0.9652-0.2413 0.1651-0.254 0.24765 0 0.04445 0.0762 0.0762l0.76835 0.3048 0.04445 0.0254q0.0508 0.01905 0.1016 0.04445 0.05715 0.01905 0.1397 0.05715t0.15875 0.08255q0.08255 0.0381 0.17145 0.0889 0.09525 0.0508 0.17145 0.1016 0.08255 0.04445 0.1524 0.1016 0.0762 0.05715 0.127 0.10795 0.05715 0.0508 0.0889 0.10795 0.03175 0.0508 0.03175 0.1016 0 0.09525-0.05715 0.1524t-0.1524 0.05715z" style="font-variant-caps:normal;font-variant-east-asian:normal;font-variant-ligatures:normal;font-variant-numeric:normal"/>
   </g>
   <g transform="scale(.86166 1.1605)" stroke-width=".17396" style="font-variant-caps:normal;font-variant-east-asian:normal;font-variant-ligatures:normal;font-variant-numeric:normal" aria-label="Szerv- rendszerek">
    <path d="m28.41-33.537q0.19262 0 0.19262 0.20743 0 0.09878-0.08396 0.18768-0.07902 0.08396-0.07902 0.10372 0 0.03457 0.03457 0.10372 0.03951 0.08396 0.10372 0.10372 0.06914 0.01482 0.3803 0.01482 0.2667 0 0.39511-0.02469 0.12841-0.02963 0.25188-0.10866 0.19262-0.12841 0.23707-0.19756 0.04445-0.06914 0.04445-0.25188 0-0.12841-0.04939-0.17286-0.04445-0.04445-0.28646-0.14817-0.31115-0.13829-0.44944-0.15311-0.26176 0-0.74084-0.38524-0.47414-0.39017-0.47414-0.60254 0-0.2914 0.2914-0.64206 0.2914-0.3556 0.65194-0.51365 0.2025-0.0889 0.72602-0.0889 0.23213 0 0.35066 0.03457 0.11853 0.03457 0.24694 0.13829 0.23707 0.19756 0.23707 0.35066 0 0.18274-0.10372 0.18274-0.05433 0-0.12347-0.04939-0.06914-0.04939-0.13829-0.10372-0.06914-0.05927-0.19756-0.10866-0.12841-0.04939-0.28646-0.04939-0.41981 0-0.77541 0.28152-0.35066 0.28152-0.35066 0.60748 0 0.10866 0.2914 0.26176 0.29633 0.1531 0.76553 0.2914 0.87912 0.26176 0.87912 0.84455 0 0.12841-0.04445 0.27164-0.12347 0.40993-0.42474 0.56797-0.29633 0.15804-1.047 0.20249l-0.5334 0.03457-0.15311-0.31609q-0.10866-0.21237-0.10866-0.43462 0-0.19756 0.09878-0.31609 0.10372-0.12347 0.27164-0.12347z" style="font-variant-caps:normal;font-variant-east-asian:normal;font-variant-ligatures:normal;font-variant-numeric:normal"/>
    <path d="m31.679-32.322q-0.23213 0-0.23213-0.14323 0-0.10866 0.1778-0.42474 0.18274-0.32103 0.28152-0.42475 0.05927-0.05927 0.09384-0.09878-0.02469-0.0049-0.10372-0.0049-0.07408-0.0049-0.12347-0.0099-0.04445-0.0049-0.09878-0.01976-0.05433-0.01482-0.08396-0.03951-0.02963-0.02963-0.02963-0.07408 0-0.20743 0.5334-0.20743 0.18274 0 0.23213-0.01482 0.05433-0.01482 0.10372-0.07408 0.13829-0.16792 0.21731-0.36054 0.08396-0.19756 0.08396-0.31609 0-0.03951-0.0049-0.05433-0.01976-0.0049-0.07408-0.0049-0.24201 0-0.7112 0.12841-0.4692 0.12347-0.55316 0.21237-0.06914 0.0889-0.2025 0.0889-0.0889 0-0.15804-0.03951-0.06914-0.04445-0.06914-0.11359 0-0.04939 0.03457-0.0889 0.10866-0.1531 0.61242-0.32597 0.50377-0.17286 0.75071-0.22719 0.08396-0.01482 0.1778-0.01482 0.37042 0 0.50871 0.14323 0.07902 0.08396 0.07902 0.27164 0 0.27164-0.14817 0.56797l-0.07408 0.14323 0.09384 0.0099q0.28646 0.02963 0.28646 0.12841 0 0.06421-0.12347 0.12841-0.11853 0.05927-0.30621 0.07902-0.13829 0.01482-0.21237 0.04939-0.07408 0.03457-0.2025 0.14817-0.10866 0.09878-0.24694 0.27164-0.13335 0.17286-0.18768 0.27658 0.89888-0.15311 1.1508-0.15311 0.34572 0 0.34572 0.15311 0 0.09384-0.12347 0.14817-0.12347 0.05433-0.42474 0.10372-1.0322 0.18274-1.2693 0.18274z" style="font-variant-caps:normal;font-variant-east-asian:normal;font-variant-ligatures:normal;font-variant-numeric:normal"/>
    <path d="m36.05-34.317q0-0.03951-0.21731-0.2025-0.15804-0.11853-0.22719-0.14817-0.06421-0.02963-0.18768-0.02963-0.24694 0-0.36548 0.03951-0.1136 0.03457-0.24201 0.15804-0.3803 0.37042-0.38523 0.47907 0.01976 0.0049 0.08396 0.0049 0.47907 0 1.3286-0.16792 0.21237-0.03951 0.21237-0.13335zm0.63712 0.78035q0.0889 0 0.0889 0.10372 0 0.11359-0.14323 0.32597-0.14323 0.20743-0.28646 0.33584-0.55316 0.47414-1.1409 0.47414-0.48401 0-0.87418-0.3803-0.39017-0.3803-0.39017-1.047 0-0.18768 0.05433-0.36054 0.10372-0.30621 0.46426-0.63712 0.36054-0.33584 0.69145-0.33584 0.0889 0 0.26176 0.01482 0.2667 0.01976 0.37536 0.05433 0.1136 0.02963 0.25682 0.12347 0.15804 0.10372 0.28646 0.29633 0.12841 0.18768 0.12841 0.33091 0 0.18768-0.15311 0.27658t-0.51858 0.16298q-0.47907 0.09384-0.98778 0.12347l-0.42968 0.01975v0.12841q0 0.18274 0.07902 0.32103 0.08396 0.13829 0.2667 0.2914 0.26176 0.21731 0.5334 0.21731 0.21731 0 0.45932-0.12841 0.24201-0.13335 0.40993-0.2914 0.17286-0.15804 0.33091-0.28646 0.16298-0.13335 0.23707-0.13335z" style="font-variant-caps:normal;font-variant-east-asian:normal;font-variant-ligatures:normal;font-variant-numeric:normal"/>
    <path d="m39.231-34.757q0.09384 0 0.16298 0.04445 0.06914 0.03951 0.0889 0.07902 0.02469 0.03951 0.02469 0.06915 0 0.09878-0.22719 0.18274-0.30127 0.1136-0.65687 0.5581-0.35066 0.4445-0.42475 0.83467-0.09384 0.49883-0.15804 0.66181-0.06421 0.16792-0.18768 0.16792-0.04939 0-0.0889-0.01482-0.03457-0.0099-0.05927-0.04445-0.02469-0.03457-0.03951-0.05927-0.01482-0.02469-0.02963-0.07902-0.0099-0.05927-0.01482-0.08396 0-0.02963-0.0099-0.09384-0.0049-0.06915-0.0049-0.08396-0.11853-1.1557-0.11853-1.941 0-0.16298 0.01976-0.25188 0.01976-0.09384 0.09878-0.16298 0.04939-0.04445 0.10866-0.04445 0.06421 0 0.10866 0.05433 0.04445 0.04939 0.04445 0.13335 0 0.18274 0.04939 0.51858 0.05433 0.33091 0.09878 0.51858 0.03951-0.05433 0.1136-0.16792 0.18768-0.30621 0.52352-0.54822 0.33584-0.24694 0.57785-0.24694z" style="font-variant-caps:normal;font-variant-east-asian:normal;font-variant-ligatures:normal;font-variant-numeric:normal"/>
    <path d="m42.288-34.688q0-0.13829 0.08396-0.27164 0.0889-0.13335 0.21731-0.13335 0.03457 0 0.06914 0.01482 0.03457 0.0099 0.06914 0.05433 0.03457 0.04445 0.03457 0.12347 0 0.13335-0.12841 0.50377-0.12347 0.36548-0.50377 1.3335-0.14323 0.36548-0.36548 0.64206-0.22225 0.27164-0.37042 0.27164-0.07902 0-0.14817-0.04445-0.06421-0.04445-0.12841-0.14323-0.06421-0.09878-0.1136-0.2025-0.04939-0.10372-0.10866-0.27658-0.05927-0.1778-0.10372-0.31609-0.03951-0.13829-0.10866-0.36548-0.06914-0.23213-0.11853-0.3803-0.29633-0.93839-0.29633-1.0619 0-0.10866 0.10372-0.10866 0.02963 0 0.05927 0.0049h0.0049q0.16298 0.03951 0.36054 0.52352 0.19756 0.48401 0.38523 1.131 0.18768 0.64206 0.23707 0.75565 0.09384-0.12841 0.24201-0.40993 0.14817-0.28646 0.23213-0.53834 0.07902-0.22719 0.18274-0.49389 0.10866-0.2667 0.15804-0.40499 0.05433-0.14323 0.05433-0.20743z" style="font-variant-caps:normal;font-variant-east-asian:normal;font-variant-ligatures:normal;font-variant-numeric:normal"/>
    <path d="m45.607-34.663q0.89394 0 1.1656 0.03457 0.27164 0.03457 0.35066 0.15804 0.06421 0.10866 0.06421 0.1778 0 0.18274-0.37536 0.23707-0.37536 0.05433-1.5261 0.08396l-1.7533 0.03951 0.02963-0.32103q0.01975-0.20743 0.11853-0.2667 0.10372-0.05927 0.46426-0.09878 0.4445-0.04445 1.4619-0.04445z" style="font-variant-caps:normal;font-variant-east-asian:normal;font-variant-ligatures:normal;font-variant-numeric:normal"/>
    <path d="m24.229-28.583q0.09384 0 0.16298 0.04445 0.06914 0.03951 0.0889 0.07902 0.02469 0.03951 0.02469 0.06915 0 0.09878-0.22719 0.18274-0.30127 0.1136-0.65687 0.5581-0.35066 0.4445-0.42474 0.83467-0.09384 0.49883-0.15804 0.66181-0.06421 0.16792-0.18768 0.16792-0.04939 0-0.0889-0.01482-0.03457-0.0099-0.05927-0.04445-0.0247-0.03457-0.03951-0.05927-0.01482-0.02469-0.02963-0.07902-0.0099-0.05927-0.01482-0.08396 0-0.02963-0.0099-0.09384-0.0049-0.06915-0.0049-0.08396-0.11853-1.1557-0.11853-1.941 0-0.16298 0.01976-0.25188 0.01975-0.09384 0.09878-0.16298 0.04939-0.04445 0.10866-0.04445 0.06421 0 0.10866 0.05433 0.04445 0.04939 0.04445 0.13335 0 0.18274 0.04939 0.51858 0.05433 0.33091 0.09878 0.51858 0.03951-0.05433 0.1136-0.16792 0.18768-0.30621 0.52352-0.54822 0.33584-0.24694 0.57785-0.24694z" style="font-variant-caps:normal;font-variant-east-asian:normal;font-variant-ligatures:normal;font-variant-numeric:normal"/>
    <path d="m27.207-28.144q0-0.03951-0.21731-0.2025-0.15804-0.11853-0.22719-0.14817-0.06421-0.02963-0.18768-0.02963-0.24694 0-0.36548 0.03951-0.11359 0.03457-0.24201 0.15804-0.3803 0.37042-0.38523 0.47907 0.01976 0.0049 0.08396 0.0049 0.47907 0 1.3286-0.16792 0.21237-0.03951 0.21237-0.13335zm0.63712 0.78035q0.0889 0 0.0889 0.10372 0 0.11359-0.14323 0.32597-0.14323 0.20743-0.28646 0.33584-0.55316 0.47414-1.1409 0.47414-0.48401 0-0.87418-0.3803-0.39017-0.3803-0.39017-1.047 0-0.18768 0.05433-0.36054 0.10372-0.30621 0.46426-0.63712 0.36054-0.33584 0.69145-0.33584 0.0889 0 0.26176 0.01482 0.2667 0.01976 0.37536 0.05433 0.1136 0.02963 0.25682 0.12347 0.15804 0.10372 0.28646 0.29633 0.12841 0.18768 0.12841 0.33091 0 0.18768-0.15311 0.27658t-0.51858 0.16298q-0.47907 0.09384-0.98778 0.12347l-0.42968 0.01975v0.12841q0 0.18274 0.07902 0.32103 0.08396 0.13829 0.2667 0.2914 0.26176 0.21731 0.5334 0.21731 0.21731 0 0.45932-0.12841 0.24201-0.13335 0.40993-0.2914 0.17286-0.15804 0.33091-0.28646 0.16298-0.13335 0.23707-0.13335z" style="font-variant-caps:normal;font-variant-east-asian:normal;font-variant-ligatures:normal;font-variant-numeric:normal"/>
    <path d="m28.773-28.756q0-0.25682 0.16298-0.25682 0.10866 0.0049 0.14323 0.13335 0.03457 0.12841 0.09878 0.72108 0.0049 0.04445 0.0049 0.06914 0.0049 0.02469 0.0099 0.06421 0.0049 0.03951 0.0099 0.07408l0.06914 0.56303 0.05433-0.16298q0.10372-0.32103 0.1778-0.4692 0.07902-0.14817 0.28646-0.41981 0.40005-0.52846 0.67663-0.52846 0.18274 0 0.31609 0.2025 0.15804 0.22225 0.19262 0.4445 0.03951 0.22225 0.05433 1.0174 0.0099 0.50377 0.0099 0.61242 0 0.32597-0.04445 0.4445-0.04445 0.1136-0.18274 0.1136-0.09384 0-0.12347-0.04939-0.02963-0.05433-0.02963-0.21237 0-0.07408 0.0099-0.30621 0.0099-0.23213 0.0099-0.38523 0-0.41981-0.03457-0.78528-0.03457-0.36548-0.07902-0.45932-0.01976-0.03951-0.04939-0.07408-0.02963-0.03951-0.05433-0.05927-0.01976-0.01975-0.02963-0.01975-0.07902 0-0.32597 0.33091-0.24201 0.33091-0.40993 0.67663-0.17286 0.36548-0.23213 0.5334-0.05433 0.16792-0.0889 0.45438-0.05433 0.45932-0.0889 0.50871-0.02469 0.02963-0.05433 0.02963-0.07408-0.0099-0.15804-0.10372-0.04445-0.04939-0.06915-0.12347-0.01975-0.07902-0.03457-0.23707-0.01482-0.16298-0.0247-0.34572-0.0099-0.18768-0.03951-0.53834-0.02963-0.3556-0.07408-0.7359-0.05927-0.59267-0.05927-0.72108z" style="font-variant-caps:normal;font-variant-east-asian:normal;font-variant-ligatures:normal;font-variant-numeric:normal"/>
    <path d="m33.593-28.208q-0.28646-0.16792-0.39017-0.16792-0.06914 0-0.42474 0.2914-0.3556 0.2914-0.42968 0.4445-0.04445 0.0889-0.04445 0.3803 0 0.33091 0.05927 0.42968 0.04445 0.06914 0.23213 0.15804 0.19262 0.0889 0.36548 0.0889 0.33091 0 0.85937-0.4445 0.37042-0.31115 0.40993-0.42968 0-0.12347-0.20743-0.37042-0.2025-0.24694-0.42968-0.3803zm0.71614 1.3137q-0.0049 0.0049-0.10372 0.10866-0.09384 0.09878-0.21237 0.19756-0.11359 0.09878-0.27658 0.21237-0.15804 0.1136-0.37042 0.18274-0.21237 0.06914-0.42968 0.06914-0.18768 0-0.40993-0.07408-0.69638-0.23707-0.69638-0.9779 0-0.30127 0.10372-0.57291 0.10866-0.27658 0.27164-0.4692 0.16792-0.19756 0.36054-0.34078 0.19756-0.14323 0.3803-0.21237 0.18274-0.07408 0.31609-0.07408 0.1531 0 0.48895 0.1778 0.33584 0.1778 0.47413 0.34078 0.07902 0.09878 0.11853 0.12841 0.01975-0.17286 0.03457-1.3434 0.01482-1.1755 0.06421-1.294 0.07902-0.19262 0.25188-0.19262h0.19756l-0.03951 2.0941q-0.01482 0.72108-0.01482 1.2891 0 0.76553 0.03457 1.0964 0.03457 0.32597 0.03457 0.36054 0 0.10372-0.05433 0.21237t-0.18274 0.10866q-0.15804 0-0.22225-0.18274-0.06421-0.1778-0.08396-0.47413-0.01482-0.29633-0.03457-0.37042z" style="font-variant-caps:normal;font-variant-east-asian:normal;font-variant-ligatures:normal;font-variant-numeric:normal"/>
    <path d="m35.667-26.504q0-0.08396 0.04445-0.14323 0.04445-0.0642 0.10866-0.0642 0.12347 0 0.21731 0.17286 0.05433 0.10372 0.23707 0.19756 0.18274 0.0889 0.34078 0.0889 0.19756 0 0.36054-0.21731 0.16792-0.22225 0.16792-0.34078 0-0.01976-0.01482-0.05433-0.01482-0.03951-0.08396-0.10372-0.06421-0.06421-0.16792-0.09384-0.16792-0.04939-0.36548-0.12347-0.19756-0.07902-0.2914-0.09878-0.14817-0.02963-0.39017-0.20743-0.24201-0.1778-0.24201-0.37536t0.28152-0.50871q0.28152-0.31115 0.69638-0.40005l0.49389-0.04445q0.13335 0 0.2025 0.03457 0.06914 0.02963 0.17286 0.14817 0.16792 0.19262 0.16792 0.28152 0 0.12347-0.12841 0.12347-0.10866 0-0.22225-0.11359-0.10866-0.11853-0.27164-0.11853-0.22225 0-0.46426 0.12841-0.23707 0.12347-0.37536 0.26176-0.13829 0.13335-0.13829 0.19262 0 0.03951 0.05433 0.09384 0.05927 0.04939 0.19262 0.11853 0.13829 0.06914 0.32597 0.12347 0.51858 0.1531 0.71614 0.30127t0.19756 0.41487q0 0.23213-0.08396 0.41981-0.06914 0.16298-0.27164 0.33584-0.2025 0.1778-0.41487 0.1778-0.15311 0-0.40005-0.04445-0.24201-0.03951-0.37536-0.09878-0.10866-0.05433-0.19262-0.19262-0.08396-0.14323-0.08396-0.27164z" style="font-variant-caps:normal;font-variant-east-asian:normal;font-variant-ligatures:normal;font-variant-numeric:normal"/>
    <path d="m38.917-26.148q-0.23213 0-0.23213-0.14323 0-0.10866 0.1778-0.42474 0.18274-0.32103 0.28152-0.42475 0.05927-0.05927 0.09384-0.09878-0.02469-0.0049-0.10372-0.0049-0.07408-0.0049-0.12347-0.0099-0.04445-0.0049-0.09878-0.01976-0.05433-0.01482-0.08396-0.03951-0.02963-0.02963-0.02963-0.07408 0-0.20743 0.5334-0.20743 0.18274 0 0.23213-0.01482 0.05433-0.01482 0.10372-0.07408 0.13829-0.16792 0.21731-0.36054 0.08396-0.19756 0.08396-0.31609 0-0.03951-0.0049-0.05433-0.01976-0.0049-0.07408-0.0049-0.24201 0-0.7112 0.12841-0.4692 0.12347-0.55316 0.21237-0.06914 0.0889-0.2025 0.0889-0.0889 0-0.15804-0.03951-0.06914-0.04445-0.06914-0.11359 0-0.04939 0.03457-0.0889 0.10866-0.1531 0.61242-0.32597 0.50377-0.17286 0.75071-0.22719 0.08396-0.01482 0.1778-0.01482 0.37042 0 0.50871 0.14323 0.07902 0.08396 0.07902 0.27164 0 0.27164-0.14817 0.56797l-0.07408 0.14323 0.09384 0.0099q0.28646 0.02963 0.28646 0.12841 0 0.06421-0.12347 0.12841-0.11853 0.05927-0.30621 0.07902-0.13829 0.01482-0.21237 0.04939-0.07408 0.03457-0.20249 0.14817-0.10866 0.09878-0.24694 0.27164-0.13335 0.17286-0.18768 0.27658 0.89888-0.15311 1.1508-0.15311 0.34572 0 0.34572 0.15311 0 0.09384-0.12347 0.14817-0.12347 0.05433-0.42475 0.10372-1.0322 0.18274-1.2693 0.18274z" style="font-variant-caps:normal;font-variant-east-asian:normal;font-variant-ligatures:normal;font-variant-numeric:normal"/>
    <path d="m43.288-28.144q0-0.03951-0.21731-0.2025-0.15804-0.11853-0.22719-0.14817-0.06421-0.02963-0.18768-0.02963-0.24694 0-0.36548 0.03951-0.11359 0.03457-0.24201 0.15804-0.3803 0.37042-0.38523 0.47907 0.01976 0.0049 0.08396 0.0049 0.47907 0 1.3286-0.16792 0.21237-0.03951 0.21237-0.13335zm0.63712 0.78035q0.0889 0 0.0889 0.10372 0 0.11359-0.14323 0.32597-0.14323 0.20743-0.28646 0.33584-0.55316 0.47414-1.1409 0.47414-0.48401 0-0.87418-0.3803-0.39017-0.3803-0.39017-1.047 0-0.18768 0.05433-0.36054 0.10372-0.30621 0.46426-0.63712 0.36054-0.33584 0.69145-0.33584 0.0889 0 0.26176 0.01482 0.2667 0.01976 0.37536 0.05433 0.1136 0.02963 0.25682 0.12347 0.15804 0.10372 0.28646 0.29633 0.12841 0.18768 0.12841 0.33091 0 0.18768-0.15311 0.27658t-0.51858 0.16298q-0.47907 0.09384-0.98778 0.12347l-0.42968 0.01975v0.12841q0 0.18274 0.07902 0.32103 0.08396 0.13829 0.2667 0.2914 0.26176 0.21731 0.5334 0.21731 0.21731 0 0.45932-0.12841 0.24201-0.13335 0.40993-0.2914 0.17286-0.15804 0.33091-0.28646 0.16298-0.13335 0.23707-0.13335z" style="font-variant-caps:normal;font-variant-east-asian:normal;font-variant-ligatures:normal;font-variant-numeric:normal"/>
    <path d="m46.469-28.583q0.09384 0 0.16298 0.04445 0.06914 0.03951 0.0889 0.07902 0.02469 0.03951 0.02469 0.06915 0 0.09878-0.22719 0.18274-0.30127 0.1136-0.65687 0.5581-0.35066 0.4445-0.42474 0.83467-0.09384 0.49883-0.15804 0.66181-0.06421 0.16792-0.18768 0.16792-0.04939 0-0.0889-0.01482-0.03457-0.0099-0.05927-0.04445-0.0247-0.03457-0.03951-0.05927-0.01482-0.02469-0.02963-0.07902-0.0099-0.05927-0.01482-0.08396 0-0.02963-0.0099-0.09384-0.0049-0.06915-0.0049-0.08396-0.11853-1.1557-0.11853-1.941 0-0.16298 0.01976-0.25188 0.01976-0.09384 0.09878-0.16298 0.04939-0.04445 0.10866-0.04445 0.0642 0 0.10866 0.05433 0.04445 0.04939 0.04445 0.13335 0 0.18274 0.04939 0.51858 0.05433 0.33091 0.09878 0.51858 0.03951-0.05433 0.1136-0.16792 0.18768-0.30621 0.52352-0.54822 0.33584-0.24694 0.57785-0.24694z" style="font-variant-caps:normal;font-variant-east-asian:normal;font-variant-ligatures:normal;font-variant-numeric:normal"/>
    <path d="m49.447-28.144q0-0.03951-0.21731-0.2025-0.15804-0.11853-0.22719-0.14817-0.06421-0.02963-0.18768-0.02963-0.24694 0-0.36548 0.03951-0.1136 0.03457-0.24201 0.15804-0.3803 0.37042-0.38524 0.47907 0.01976 0.0049 0.08396 0.0049 0.47907 0 1.3286-0.16792 0.21237-0.03951 0.21237-0.13335zm0.63712 0.78035q0.0889 0 0.0889 0.10372 0 0.11359-0.14323 0.32597-0.14323 0.20743-0.28646 0.33584-0.55316 0.47414-1.1409 0.47414-0.48401 0-0.87419-0.3803-0.39017-0.3803-0.39017-1.047 0-0.18768 0.05433-0.36054 0.10372-0.30621 0.46426-0.63712 0.36054-0.33584 0.69145-0.33584 0.0889 0 0.26176 0.01482 0.2667 0.01976 0.37536 0.05433 0.11359 0.02963 0.25682 0.12347 0.15804 0.10372 0.28646 0.29633 0.12841 0.18768 0.12841 0.33091 0 0.18768-0.15311 0.27658t-0.51858 0.16298q-0.47907 0.09384-0.98778 0.12347l-0.42968 0.01975v0.12841q0 0.18274 0.07902 0.32103 0.08396 0.13829 0.2667 0.2914 0.26176 0.21731 0.5334 0.21731 0.21731 0 0.45932-0.12841 0.24201-0.13335 0.40993-0.2914 0.17286-0.15804 0.33091-0.28646 0.16298-0.13335 0.23707-0.13335z" style="font-variant-caps:normal;font-variant-east-asian:normal;font-variant-ligatures:normal;font-variant-numeric:normal"/>
    <path d="m52.746-26.311q-0.12347-0.0099-0.2914-0.11853-0.16298-0.1136-0.19262-0.1136-0.05433 0-0.0889-0.01975-0.02963-0.01976-0.03457-0.03951l-0.0099-0.01975q-0.06914-0.04939-0.64206-0.22719l-0.18768-0.05927 0.02963 0.29633q0.01976 0.16792 0.01976 0.24201 0 0.2667-0.18768 0.2667-0.20743 0-0.25682-0.23707-0.04939-0.23707-0.08396-1.1162-0.03951-0.80504-0.07408-0.99272-0.10372-0.5334-0.10372-1.3829 0-0.25682 0.1778-0.25682 0.13829 0 0.19756 0.15311 0.02963 0.07408 0.06914 0.43956 0.03951 0.36548 0.08396 0.80998t0.07408 0.6223l0.0247 0.15804 0.5334-0.4692q0.03951-0.03457 0.10372-0.09384 0.06914-0.05927 0.10372-0.0889 0.03951-0.03457 0.09384-0.08396 0.05927-0.04939 0.0889-0.07408 0.03457-0.02963 0.07902-0.06421 0.04939-0.03457 0.07902-0.05433t0.05927-0.03951q0.03457-0.01975 0.05927-0.02469 0.0247-0.0099 0.04445-0.0099 0.07902 0.0099 0.12841 0.07408 0.05433 0.05927 0.05433 0.12841 0 0.05927-0.02963 0.0889-0.02469 0.02963-0.10372 0.09878-0.07902 0.06421-0.15311 0.16792-0.20743 0.2914-0.88406 0.75071-0.18768 0.12841-0.19756 0.19262 0 0.03457 0.05927 0.05927l0.59761 0.23707 0.03457 0.01975q0.03951 0.01482 0.07902 0.03457 0.04445 0.01482 0.10866 0.04445 0.06421 0.02963 0.12347 0.06421 0.06421 0.02963 0.13335 0.06914 0.07408 0.03951 0.13335 0.07902 0.06421 0.03457 0.11853 0.07902 0.05927 0.04445 0.09878 0.08396 0.04445 0.03951 0.06915 0.08396 0.02469 0.03951 0.02469 0.07902 0 0.07408-0.04445 0.11853-0.04445 0.04445-0.11853 0.04445z" style="font-variant-caps:normal;font-variant-east-asian:normal;font-variant-ligatures:normal;font-variant-numeric:normal"/>
   </g>
  </g>
 </g>
</svg>
