<?xml version="1.0" encoding="UTF-8" standalone="no"?>
<svg
   xmlns:dc="http://purl.org/dc/elements/1.1/"
   xmlns:cc="http://creativecommons.org/ns#"
   xmlns:rdf="http://www.w3.org/1999/02/22-rdf-syntax-ns#"
   xmlns:svg="http://www.w3.org/2000/svg"
   xmlns="http://www.w3.org/2000/svg"
   xmlns:sodipodi="http://sodipodi.sourceforge.net/DTD/sodipodi-0.dtd"
   xmlns:inkscape="http://www.inkscape.org/namespaces/inkscape"
   sodipodi:docname="infraindividual_complete.svg"
   inkscape:version="1.0 (4035a4fb49, 2020-05-01)"
   id="svg923"
   version="1.1"
   viewBox="0 0 143.77069 147.70595"
   height="147.70595mm"
   width="143.77069mm">
  <defs
     id="defs917">
    <inkscape:path-effect
       simplify_just_coalesce="false"
       simplify_individual_paths="false"
       helper_size="0"
       smooth_angles="360"
       threshold="0.000736842"
       steps="1"
       lpeversion="1"
       is_visible="true"
       id="path-effect1246"
       effect="simplify" />
    <inkscape:path-effect
       effect="simplify"
       id="path-effect1244"
       is_visible="true"
       lpeversion="1"
       steps="1"
       threshold="0.000736842"
       smooth_angles="360"
       helper_size="0"
       simplify_individual_paths="false"
       simplify_just_coalesce="false" />
    <inkscape:path-effect
       effect="simplify"
       id="path-effect1242"
       is_visible="true"
       lpeversion="1"
       steps="1"
       threshold="0.000736842"
       smooth_angles="360"
       helper_size="0"
       simplify_individual_paths="false"
       simplify_just_coalesce="false" />
    <inkscape:path-effect
       effect="simplify"
       id="path-effect1240"
       is_visible="true"
       lpeversion="1"
       steps="1"
       threshold="0.000736842"
       smooth_angles="360"
       helper_size="0"
       simplify_individual_paths="false"
       simplify_just_coalesce="false" />
  </defs>
  <sodipodi:namedview
     inkscape:window-maximized="1"
     inkscape:window-y="34"
     inkscape:window-x="0"
     inkscape:window-height="838"
     inkscape:window-width="1600"
     showgrid="false"
     inkscape:document-rotation="0"
     inkscape:current-layer="layer1"
     inkscape:document-units="mm"
     inkscape:cy="241.54788"
     inkscape:cx="266.86584"
     inkscape:zoom="1.2162819"
     inkscape:pageshadow="2"
     inkscape:pageopacity="0.0"
     borderopacity="1.0"
     bordercolor="#666666"
     pagecolor="#ffffff"
     id="base" />
  <metadata
     id="metadata920">
    <rdf:RDF>
      <cc:Work
         rdf:about="">
        <dc:format>image/svg+xml</dc:format>
        <dc:type
           rdf:resource="http://purl.org/dc/dcmitype/StillImage" />
        <dc:title></dc:title>
      </cc:Work>
    </rdf:RDF>
  </metadata>
  <g
     transform="translate(38.623446,55.71012)"
     id="layer1"
     inkscape:groupmode="layer"
     inkscape:label="Layer 1">
    <path
       style="fill:#000000;stroke-width:0.195362"
       d="m 102.9482,91.7979 c -0.45882,-0.0899 -3.295106,-0.35936 -6.302876,-0.59857 -3.00776,-0.23918 -7.13706,-0.5759 -9.17623,-0.74825 -4.15022,-0.35075 -10.22501,-0.82329 -14.55219,-1.13193 -1.58034,-0.11271 -6.00164,-0.24969 -9.82506,-0.30443 -3.823433,-0.0549 -7.952733,-0.19753 -9.176243,-0.31737 -5.353169,-0.52423 -6.485408,-0.59094 -9.639678,-0.56798 -1.83524,0.0133 -4.045881,0.1085 -4.912521,0.21152 -6.006378,0.71364 -9.132549,0.95102 -13.16186,0.99946 -8.715729,0.10469 -20.1399594,0.002 -23.6357504,-0.21179 -3.54299796,-0.21707 -27.0017396,-0.13958 -30.1239796,0.0996 -0.86665,0.0664 -3.41097,0.14563 -5.65404,0.17616 -3.00086,0.0409 -4.21434,0.13024 -4.59315,0.33838 -0.73736,0.40514 -1.01501,0.0512 -0.67283,-0.85777 0.14092,-0.3743 0.23639,-0.75007 0.21214,-0.83499 -0.0242,-0.085 0.0361,-0.15443 0.13413,-0.15443 0.098,0 0.30143,-0.44007 0.45206,-0.97797 0.35719,-1.27552 0.86638,-2.55723 2.55601,-6.43393 0.76498,-1.75518 1.5201,-3.5155 1.67804,-3.91184 0.92803,-2.32883 1.59572,-3.94144 3.19675,-7.72073 0.76237,-1.7996 1.70065,-4.06548 2.51504,-6.07364 0.59859,-1.47603 5.96073,-13.56358 6.30195,-14.20615 0.0902,-0.16984 1.92519,-4.23028 4.07776,-9.023147 2.46166,-5.48115 3.87065,-8.839099 3.79759,-9.050541 -0.0715,-0.206978 0.0256,-0.458158 0.2526,-0.653489 0.20281,-0.174519 0.86704,-1.571421 1.47606,-3.104261 0.609009,-1.53284 1.749231,-4.173318 2.5338106,-5.86777 2.86209,-6.181098 4.02981,-8.643869 4.189299,-8.835308 0.0896,-0.107612 0.162941,-0.331891 0.162941,-0.498502 0,-0.166568 0.11666,-0.44918 0.259249,-0.627949 0.278799,-0.34953 0.664091,-1.0913 1.826429,-3.51627 0.407072,-0.849281 1.035471,-2.146361 1.396442,-2.882389 0.36096,-0.736061 0.78102904,-1.616231 0.93346904,-1.955941 0.15246,-0.339701 0.750821,-1.54415 1.329711,-2.67653004 C 1.3821516,-1.253197 2.3392636,-3.245158 2.9301806,-4.547387 c 1.586492,-3.49617 2.114003,-4.54732 5.062771,-10.088435 1.476401,-2.774315 2.9800714,-5.600097 3.3414914,-6.279529 0.361411,-0.679431 1.257761,-2.254448 1.99189,-3.500067 1.56193,-2.650183 2.271101,-4.181252 2.16926,-4.68331 -0.0484,-0.238598 0.0876,-0.4275 0.403961,-0.561094 0.262308,-0.110761 0.482809,-0.319494 0.48999,-0.463841 0.02101,-0.421774 2.083289,-3.756602 3.480308,-5.627765 0.213291,-0.285684 1.106201,-2.034939 1.565981,-3.067849 0.19962,-0.448454 0.775319,-1.546152 1.279329,-2.439324 0.504,-0.893173 1.164151,-2.193935 1.467001,-2.890578 0.302839,-0.696646 1.381929,-2.424739 2.397969,-3.840209 1.01605,-1.415466 2.065671,-2.936894 2.33249,-3.38095 0.266822,-0.444055 0.628031,-0.977732 0.80269,-1.18595 0.17467,-0.208216 0.50772,-0.864036 0.740122,-1.457376 0.6463,-1.650069 0.674928,-1.696456 1.046818,-1.696456 0.221772,0 0.49982,0.322465 0.767401,0.889981 0.653031,1.385046 2.324629,3.751334 4.289761,6.072494 3.234579,3.820609 4.68685,5.980307 6.601528,9.817252 2.224472,4.457765 2.77739,5.505808 3.91028,7.411903 0.639371,1.075754 1.335601,2.150965 1.54718,2.389362 0.211572,0.238394 0.384681,0.530878 0.384681,0.649975 0,0.119094 0.498588,1.149112 1.107969,2.288932 1.27399,2.382895 2.920751,5.964012 4.177152,9.083764 0.895868,2.224575 4.096408,9.41268 4.354409,9.779609 0.362759,0.515922 3.823271,8.408069 4.976021,11.34845 1.9158,4.886672 2.78678,6.874751 4.45406,10.166652 0.83161,1.641938 1.59069,3.12434 1.68685,3.294189 0.0962,0.16985 0.45885,0.864741 0.80595,1.54414 1.47974,2.89641 1.98378,3.869741 2.81436,5.434759 0.74145,1.397011 2.35523,5.128731 2.59125,5.991942 0.0774,0.28307 0.34902,1.024258 0.60363,1.647079 0.25458,0.6228 0.67119,1.64193 0.9258,2.264751 0.25462,0.6228 0.98491,2.383139 1.62289,3.911838 0.63798,1.528702 1.22247,3.002751 1.29889,3.275701 0.0764,0.27292 0.54616,1.406041 1.04389,2.51809 0.49774,1.112007 0.905,2.086907 0.905,2.166417 0,0.23589 2.52403,5.28314 4.35898,8.71657 0.93805,1.75516 1.92541,3.65448 2.19415,4.22065 0.26874,0.56619 0.69683,1.40004 0.95128,1.853 0.25446,0.45295 0.70021,1.3331 0.99051,1.9559 0.29031,0.6228 0.82769,1.7346 1.19417,2.47064 0.3665,0.73604 1.08248,2.40372 1.59111,3.70595 0.90051,2.30559 2.71846,6.35508 4.06685,9.05899 0.61531,1.23386 1.57435,2.88965 3.523116,6.08253 0.41767,0.6843 1.0136,1.78091 1.32429,2.43689 1.2351,2.60771 2.03321,3.91757 2.49732,4.0986 0.0926,0.0361 0.11183,0.31557 0.043,0.621 -0.13825,0.61169 -0.49061,0.66723 -2.15759,0.34013 z m 0.45196,-2.18927 c -0.28907,-0.54594 -1.0019,-1.93846 -1.58407,-3.09449 -0.58216,-1.15602 -1.30139,-2.49946 -1.59831,-2.98536 -0.296916,-0.48591 -0.794686,-1.30038 -1.106186,-1.80996 -1.39093,-2.27544 -4.66756,-9.07574 -5.68656,-11.80179 -0.16176,-0.43278 -0.37531,-0.73117 -0.47454,-0.66306 -0.0992,0.0681 -0.70577,0.0279 -1.34788,-0.0892 -1.84839,-0.33742 -7.78691,-0.63565 -15.71967,-0.78946 -8.3603,-0.16211 -41.279211,-0.12266 -44.490811,0.0534 -1.17252,0.0642 -4.884719,0.25387 -8.249341,0.4214 -5.659059,0.28177 -6.9166,0.36383 -9.45429,0.61696 -0.509788,0.0508 -2.762139,0.14374 -5.0052214,0.20641 -2.243079,0.0625 -4.57885,0.15986 -5.190598,0.21596 -3.41738996,0.31332 -9.79369,0.50977 -16.4986706,0.50827 -4.32386,-7.9e-4 -8.08003,0.0889 -8.71279,0.2083 -1.44325,0.2725 -5.84172,0.27866 -7.08894,0.0104 -0.5343,-0.11511 -1.10351,-0.15302 -1.2649,-0.0842 -0.1614,0.0687 -0.5276,0.69161 -0.81379,1.38405 -0.28618,0.69242 -0.82229,1.98373 -1.19136,2.86961 -0.36906,0.88586 -0.67102,1.6458 -0.67102,1.68879 0,0.0429 -0.71796,1.72702 -1.59548,3.74236 -0.87752,2.01536 -1.72208,3.98854 -1.87681,4.38488 -0.35977,0.92155 -1.34952,3.98646 -1.2957,4.01228 0.17652,0.0849 8.29317,-0.33567 9.30976,-0.48215 1.53714,-0.22149 24.6318406,-0.13873 30.0040896,0.1075 5.250262,0.2407 23.8507824,0.15786 27.7412824,-0.12353 1.78426,-0.12906 4.24516,-0.28124 5.468659,-0.33819 1.2235,-0.0571 2.975319,-0.19766 3.89295,-0.31272 1.05419,-0.13224 5.694889,-0.16639 12.605729,-0.0929 11.586942,0.12337 14.372002,0.21204 17.054812,0.54292 3.48621,0.42996 11.14613,0.99803 19.18666,1.42285 3.6381,0.19221 12.427426,0.96784 12.553426,1.10779 0.0248,0.0275 0.85057,0.0738 1.83512,0.10313 l 1.79007,0.0531 z M -24.406758,69.99427 c 2.4402,-0.33012 3.42557,-0.41914 6.02479,-0.54414 1.32546,-0.0638 2.43732,-0.2001 2.4708,-0.30302 0.0335,-0.10303 0.30694,-0.0459 0.60768,0.12692 0.44949,0.25817 1.54388,0.32145 6.1492986,0.35563 3.081383,0.0228 6.47841,-0.027 7.54897,-0.11053 3.351893,-0.26196 8.293161,-0.5392 12.0474934,-0.67594 1.987029,-0.0724 3.655428,-0.15931 3.707569,-0.19322 0.0521,-0.034 0.970709,-0.11981 2.04126,-0.19097 1.070571,-0.0712 2.61384,-0.17659 3.4295,-0.23439 15.512749,-1.09921 47.401511,-1.084 71.787801,0.0343 0.73918,0.0341 1.34319,-0.004 1.34221,-0.0849 -0.004,-0.37178 -4.83985,-10.10044 -6.9801,-14.04383 -0.70679,-1.30225 -1.59035,-2.9779 -1.9635,-3.72369 l -0.67846,-1.35598 -2.92763,-0.23922 c -6.34238,-0.51823 -8.31332,-0.60205 -18.7775,-0.79869 -8.457193,-0.15888 -23.933172,-0.13002 -24.834782,0.0465 -0.251629,0.0493 -3.505028,0.14269 -7.22975,0.20767 -8.81606,0.15383 -11.123679,0.22998 -14.928879,0.49262 -7.3539304,0.50757 -9.9531304,0.63904 -15.5717804,0.78755 -8.9186586,0.23576 -15.4791906,0.17124 -17.3328806,-0.17041 -2.6342,-0.48554 -2.2171,-0.91769 -4.98916,5.16906 -2.18263,4.79252 -6.31892,14.62378 -6.31892,15.01904 0,0.13521 1.41146,0.38926 3.24412,0.58395 0.30587,0.0324 1.26521,-0.0368 2.13185,-0.1541 z M -0.49294736,48.77969 C 3.0246026,48.67185 8.6554736,48.39401 12.020093,48.16217 c 3.364619,-0.23183 8.620101,-0.4705 11.67884,-0.53038 3.05874,-0.0599 8.357251,-0.19729 11.774469,-0.30535 3.417221,-0.10805 8.547561,-0.19772 11.400772,-0.19922 9.152578,-0.004 28.62817,0.54903 34.06035,0.96855 1.12164,0.0868 1.62204,0.0557 1.62204,-0.10045 0,-0.12419 -0.59356,-1.59726 -1.31906,-3.27355 -2.46625,-5.698386 -3.25773,-7.573567 -4.60648,-10.913858 l -1.34729,-3.336618 -0.76631,-0.113231 c -6.73992,-0.99586 -43.771351,-1.133991 -58.51169,-0.21826 -2.698002,0.167611 -13.1428814,0.35641 -19.9281824,0.360201 -3.56853,0.0021 -7.0115186,0.0618 -7.6510906,0.132829 l -1.162839,0.12922 -3.88814,8.64294 c -3.33033,7.402947 -3.84168,8.661357 -3.5643,8.771717 0.27062,0.10761 2.34142,0.49381 4.77291,0.89003 0.61188,0.0998 5.157769,0.0123 14.92296064,-0.28698 z M 15.356904,29.444113 c 3.466579,-0.119851 8.722048,-0.319731 11.678838,-0.444191 5.08722,-0.214148 27.511161,-0.294388 30.49474,-0.109079 0.76468,0.0475 3.472608,0.100139 6.017582,0.117059 2.54501,0.01691 6.1236,0.16542 7.95241,0.330052 1.82882,0.164619 3.36403,0.256159 3.41153,0.203409 0.15164,-0.168439 -1.91998,-4.636741 -3.77722,-8.14715 -0.98853,-1.868411 -2.2641,-4.331941 -2.83462,-5.474491 -0.57051,-1.142559 -1.21831,-2.347 -1.43955,-2.67652 l -0.40224,-0.59916 -19.340561,-0.0195 c -10.637311,-0.01119 -21.380641,-0.0934 -23.874072,-0.18362 -2.493428,-0.0901 -8.457977,-0.181568 -13.2545484,-0.202909 -4.796581,-0.02119 -9.64704896,-0.11343 -10.77884196,-0.204671 -1.13178904,-0.0912 -2.43686804,-0.10272 -2.90018704,-0.02551 l -0.842402,0.140298 -1.063699,2.306841 c -0.585031,1.268759 -1.12726,2.399509 -1.20495,2.51274 -0.486722,0.709401 -5.5562806,12.418581 -5.5562806,12.83335 0,0.14573 20.9961106,-0.124619 27.714072,-0.356849 z m 50.59969,-17.751311 c 0.14007,-0.15561 -3.29895,-8.595299 -5.883572,-14.438789 -1.501709,-3.395181 -1.96613,-4.275622 -2.26241,-4.289092 -0.205041,-0.0104 -0.706501,-0.048 -1.114319,-0.0861 -5.675749,-0.52978 -5.949479,-0.54715 -14.366841,-0.912561 -3.418879,-0.148389 -14.97067,-0.303109 -21.040439,-0.281789 -1.744271,0.006 -3.437059,0.138761 -4.541771,0.35588 -0.9686,0.19036 -3.13753,0.38394 -4.819838,0.43016 -3.2856224,0.0902 -6.4085214,0.28239 -6.8590004,0.421949 -0.152943,0.0474 -0.778592,1.169649 -1.390341,2.493982 -0.611751,1.324318 -1.591932,3.374757 -2.17819,4.55650796 C 0.91361164,1.124672 0.43394364,2.12154 0.43394364,2.158171 c 0,0.0365 -0.281501,0.604259 -0.625563,1.261439 -0.344048,0.65718 -0.95838904,1.889741 -1.36518904,2.73903 -0.406799,0.84928 -1.084469,2.246921 -1.505929,3.105861 -0.42146,0.858931 -0.71084,1.62328 -0.64307,1.698559 0.0678,0.0752 0.672399,0.13761 1.343629,0.138541 0.671221,7.94e-4 1.97119004,0.10449 2.88881004,0.230119 1.01457196,0.138901 5.48243996,0.234061 11.40077236,0.242811 5.352798,0.007 10.983669,0.0702 12.51304,0.138448 3.658079,0.16324 41.36756,0.144952 41.51615,-0.02019 z M 13.954162,-8.368047 c 0.65591,-0.0563 2.00569,-0.23785 2.99951,-0.40363 1.487371,-0.24811 3.92258,-0.286602 13.769351,-0.217641 6.57933,0.0462 12.028299,0.12699 12.108841,0.17983 0.0805,0.0528 1.39772,0.153522 2.927088,0.22371 1.529379,0.0702 4.7668,0.23 7.194291,0.35515 2.427489,0.125151 4.451178,0.18582 4.497067,0.134851 0.0459,-0.0509 -0.698907,-1.844451 -1.655117,-3.985541 -0.956201,-2.14108 -1.97255,-4.495101 -2.258541,-5.23113 -0.760259,-1.956607 -3.33556,-7.503575 -4.221761,-9.093295 -0.857268,-1.537793 -0.733258,-1.477751 -3.741308,-1.811388 -0.917631,-0.10178 -7.007299,-0.227264 -13.53262,-0.278871 -6.525321,-0.05158 -12.072771,-0.151662 -12.327671,-0.222342 -0.254889,-0.07066 -1.14128,-0.06933 -1.969738,0.0033 -1.502651,0.131252 -1.507072,0.133347 -1.821011,0.864515 -0.17309,0.40312 -0.96362,1.850533 -1.756751,3.216476 -2.89782,4.990688 -8.7266304,16.004466 -8.7266304,16.489337 0,0.125989 6.3972914,-0.0417 8.5150004,-0.223092 z m 33.627769,-20.830442 c 0.0521,-0.09355 -0.38318,-0.959531 -0.967189,-1.924405 -1.255879,-2.074917 -2.13096,-3.675367 -3.086928,-5.645804 -2.678592,-5.521046 -4.346702,-8.070955 -7.871971,-12.033227 -0.90379,-1.015835 -2.964759,-3.824229 -3.594711,-4.898366 -0.215009,-0.366619 -0.44337,-0.66773 -0.507479,-0.669129 -0.0641,-0.0014 -0.223139,0.283287 -0.35343,0.632643 -0.1303,0.349359 -0.33079,0.743115 -0.44554,0.875019 -0.114761,0.131903 -0.830649,1.16631 -1.590889,2.298683 -0.76023,1.132376 -1.42933,2.105186 -1.486882,2.161806 -0.0576,0.05663 -0.350488,0.47354 -0.65097,0.926486 -0.30048,0.452952 -0.629759,0.924055 -0.731708,1.046898 -0.10196,0.122844 -0.477351,0.799048 -0.83421,1.502677 -0.356852,0.703631 -1.181592,2.270801 -1.832761,3.482602 -0.651161,1.211801 -1.558131,2.944463 -2.015472,3.850362 -0.457348,0.905901 -1.342718,2.419712 -1.967499,3.364025 -0.624769,0.944318 -1.22863,1.897438 -1.34189,2.118053 -0.113268,0.220615 -0.37396,0.606103 -0.579319,0.856644 -0.396952,0.48429 -0.790461,1.243389 -0.790461,1.52484 0,0.09345 0.896771,0.180538 1.99282,0.193549 17.120611,0.203201 24.473102,0.309402 24.701662,0.356797 0.709589,0.147151 3.870698,0.131043 3.954827,-0.02016 z"
       id="path847"
       inkscape:export-xdpi="96"
       inkscape:export-ydpi="96" />
    <path
       transform="matrix(0.26458333,0,0,0.26458333,-38.623446,-55.71012)"
       id="path3042"
       d="m 251.3356,99.058974 c -22.04913,-0.303038 -40.32218,-0.783832 -40.60678,-1.068437 -0.2846,-0.284605 1.51116,-3.579918 3.99057,-7.322932 6.87412,-10.377391 11.94012,-19.190772 21.63414,-37.637137 5.21705,-9.927326 12.2204,-21.693312 17.03963,-28.627456 4.50016,-6.475046 9.01906,-13.246276 10.04199,-15.0471774 l 1.85987,-3.2743663 5.43888,7.6475777 c 2.99138,4.206167 8.84674,11.717357 13.01191,16.691533 10.02443,11.9715 16.14439,21.516984 25.56572,39.875623 4.2931,8.365659 9.51698,18.08829 11.60862,21.605846 2.09164,3.517556 3.80298,6.754881 3.80298,7.194055 0,0.862613 -8.22424,0.858453 -73.38753,-0.03716 z"
       style="fill:#ff9243;fill-opacity:1;stroke:#000000;stroke-width:1.51181;stroke-linecap:round;stroke-miterlimit:4;stroke-dasharray:none" />
    <path
       transform="matrix(0.26458333,0,0,0.26458333,-38.623446,-55.71012)"
       id="path3044"
       d="m 170.18728,172.98245 c 5.449,-10.86773 17.63297,-33.64918 25.57182,-47.81391 3.99418,-7.12653 8.191,-14.79033 9.32627,-17.03067 1.13526,-2.24034 2.76712,-4.44957 3.62635,-4.90942 1.90603,-1.02008 105.07624,0.39947 113.25955,1.55837 3.09475,0.43827 6.10827,1.39719 7.0771,2.25197 2.78063,2.45328 20.44365,40.51028 31.88586,68.70171 l 1.58508,3.90535 -3.89335,-0.0324 c -2.14134,-0.0178 -13.32783,-0.61957 -24.85888,-1.33727 -31.0321,-1.93147 -116.22861,-2.46252 -127.61399,-0.79546 -4.65104,0.68101 -15.42474,1.50055 -23.94156,1.82121 l -15.48513,0.58301 z"
       style="fill:#9af28c;fill-opacity:1;stroke:#000000;stroke-width:1.51181;stroke-linecap:round;stroke-miterlimit:4;stroke-dasharray:none" />
    <path
       transform="matrix(0.26458333,0,0,0.26458333,-38.623446,-55.71012)"
       id="path3046"
       d="m 180.43092,253.57041 c -31.83655,-0.53258 -48.0974,-1.28276 -48.0974,-2.21893 0,-0.66562 32.1183,-66.2994 32.77286,-66.97138 0.32675,-0.33544 8.16322,-0.98611 17.41436,-1.44592 9.25115,-0.45981 21.44502,-1.43735 27.09749,-2.17231 20.13622,-2.61819 127.95234,-0.13658 152.33692,3.50634 2.87088,0.4289 3.32459,0.88831 5.86375,5.93749 4.84192,9.62827 24.37673,55.91132 26.3409,62.40843 l 0.55925,1.8499 -90.28942,-0.16486 c -49.65918,-0.0907 -105.4586,-0.41861 -123.99871,-0.72876 z"
       style="fill:#54cec1;fill-opacity:1;stroke:#000000;stroke-width:1.51181;stroke-linecap:round;stroke-miterlimit:4;stroke-dasharray:none" />
    <path
       transform="matrix(0.26458333,0,0,0.26458333,-38.623446,-55.71012)"
       id="path3048"
       d="m 100.26859,322.10863 c 0,-1.32373 15.47627,-36.81176 22.49677,-51.58643 3.89747,-8.20226 6.81451,-13.34219 7.77331,-13.69687 0.8441,-0.31225 19.99976,-0.20119 42.56813,0.2468 22.56838,0.448 82.2754,1.06189 132.68229,1.36421 l 91.64886,0.54967 11.69348,22.55419 c 12.81348,24.71443 19.71749,39.2629 18.98154,39.99885 -0.26125,0.26125 -5.03934,0.0339 -10.61798,-0.50525 -6.58623,-0.63651 -36.0906,-1.11878 -84.139,-1.37533 -59.30162,-0.31662 -80.52684,-0.1318 -106.88311,0.93073 -42.39278,1.70902 -126.20429,2.71807 -126.20429,1.51943 z"
       style="fill:#ffa669;fill-opacity:1;stroke:#000000;stroke-width:1.51181;stroke-linecap:round;stroke-miterlimit:4;stroke-dasharray:none" />
    <path
       transform="matrix(0.26458333,0,0,0.26458333,-38.623446,-55.71012)"
       id="path3050"
       d="m 78.896032,394.08742 c -4.745841,-0.89453 -8.749581,-1.7472 -8.897202,-1.89482 -0.471673,-0.47167 4.379568,-11.95685 16.391062,-38.80539 6.437012,-14.38824 11.816583,-26.30813 11.954603,-26.48862 0.138019,-0.1805 23.288675,-0.61854 51.445905,-0.97342 28.15723,-0.35488 58.96455,-1.12152 68.4607,-1.70365 24.30617,-1.48999 168.88752,-1.50281 191.29331,-0.017 8.89319,0.58976 17.19383,1.34626 18.44588,1.6811 1.9877,0.5316 2.78533,1.85445 6.28888,10.43 2.20685,5.40166 8.00822,19.25568 12.89192,30.78673 4.88371,11.53104 9.15606,21.85135 9.49411,22.93401 l 0.61463,1.96847 -13.04234,-0.57268 c -67.99369,-2.98559 -127.34921,-3.55757 -187.34403,-1.80536 -24.87088,0.72638 -57.98409,2.04722 -73.58492,2.9352 -27.6067,1.57135 -78.44002,3.3969 -90.028464,3.23314 -3.165385,-0.0447 -9.638205,-0.81322 -14.384044,-1.70775 z"
       style="fill:#33d917;fill-opacity:1;stroke:#000000;stroke-width:1.51181;stroke-linecap:round;stroke-miterlimit:4;stroke-dasharray:none" />
    <path
       transform="matrix(0.26458333,0,0,0.26458333,-38.623446,-55.71012)"
       id="path3052"
       d="m 40.044063,474.62417 c -3.966033,-0.59384 -5.5497,-1.17683 -5.5497,-2.04303 0,-2.95919 28.05982,-67.61549 31.627102,-72.87613 1.559631,-2.29998 2.125273,-2.55857 5.003471,-2.28737 1.784778,0.16817 23.408961,0.32546 48.053744,0.34955 37.60365,0.0367 49.03917,-0.24208 71.11838,-1.734 67.95672,-4.59195 197.46785,-5.03439 255.5029,-0.87286 l 13.78264,0.98832 10.62068,20.21388 c 13.62111,25.92446 25.91042,50.94201 25.31609,51.53634 -0.25495,0.25496 -9.83748,0.0695 -21.29449,-0.41202 -86.70385,-3.64441 -204.25627,-3.1301 -262.5512,1.1487 -9.04396,0.66381 -24.39813,1.59433 -34.12038,2.06781 -9.72225,0.47347 -22.67155,1.21916 -28.77622,1.65707 -14.05531,1.00824 -54.434456,1.00997 -58.780408,0.003 -2.032993,-0.47128 -6.729614,-0.45941 -12.332667,0.0312 -10.211907,0.89408 -25.890621,2.36896 -29.603708,2.78476 -1.356594,0.15192 -4.963899,-0.0977 -8.016234,-0.55475 z"
       style="fill:#fa424f;fill-opacity:1;stroke:#000000;stroke-width:1.51181;stroke-linecap:round;stroke-miterlimit:4;stroke-dasharray:none" />
    <path
       transform="matrix(0.26458333,0,0,0.26458333,-38.623446,-55.71012)"
       id="path3054"
       d="m 529.03431,552.06818 c -4.06978,-0.32924 -13.68926,-1.18973 -21.37662,-1.91218 -7.68737,-0.72245 -26.18637,-2.06571 -41.10889,-2.98501 -31.45476,-1.93776 -42.83953,-2.82596 -60.43007,-4.71454 -19.25347,-2.06711 -108.2593,-2.05011 -139.77023,0.0267 -20.33276,1.34009 -33.37449,1.4643 -129.493,1.23327 -65.347951,-0.15707 -111.755654,0.0626 -119.421699,0.56527 -6.896222,0.4522 -12.5384176,0.6141 -12.5382122,0.35978 0.0014,-1.73035 5.9563732,-17.2767 12.8925632,-33.65798 4.499555,-10.62665 9.225182,-21.84048 10.501393,-24.91962 3.663196,-8.83828 3.536129,-8.7617 13.193329,-7.95124 4.642422,0.3896 12.517007,0.36542 18.087912,-0.0556 5.426373,-0.41006 18.930644,-0.76853 30.00949,-0.7966 26.715914,-0.0677 81.060784,-2.08935 110.994004,-4.12904 47.90474,-3.26429 55.215,-3.46907 137.30369,-3.84621 79.54222,-0.36545 124.11079,0.31616 145.91101,2.23149 14.89246,1.30842 13.54387,0.53474 17.6633,10.13338 4.71467,10.98561 15.75479,33.10707 19.93579,39.94603 3.56196,5.8264 16.27911,29.86394 16.27911,30.77027 0,0.30149 -0.27749,0.49243 -0.61664,0.42429 -0.33915,-0.0682 -3.94645,-0.39326 -8.01623,-0.72251 z"
       style="fill:#00887a;fill-opacity:1;stroke:#000000;stroke-width:1.51181;stroke-linecap:round;stroke-miterlimit:4;stroke-dasharray:none" />
    <text
       xml:space="preserve"
       style="font-style:normal;font-variant:normal;font-weight:bold;font-stretch:normal;font-size:6.35px;line-height:1.25;font-family:Purisa;-inkscape-font-specification:'Purisa, Bold';font-variant-ligatures:normal;font-variant-caps:normal;font-variant-numeric:normal;font-variant-east-asian:normal;fill:#000000;fill-opacity:1;stroke:none;stroke-width:0.20189"
       x="6.14891"
       y="81.268761"
       id="text852"
       inkscape:export-xdpi="96"
       inkscape:export-ydpi="96"><tspan
         sodipodi:role="line"
         id="tspan850"
         x="6.14891"
         y="81.268761"
         style="font-style:normal;font-variant:normal;font-weight:bold;font-stretch:normal;font-size:6.35px;font-family:Purisa;-inkscape-font-specification:'Purisa, Bold';font-variant-ligatures:normal;font-variant-caps:normal;font-variant-numeric:normal;font-variant-east-asian:normal;stroke-width:0.20189">Biogén elemek</tspan></text>
    <text
       id="text852-4"
       y="61.129192"
       x="15.912039"
       style="font-style:normal;font-variant:normal;font-weight:bold;font-stretch:normal;font-size:6.35px;line-height:1.25;font-family:Purisa;-inkscape-font-specification:'Purisa, Bold';font-variant-ligatures:normal;font-variant-caps:normal;font-variant-numeric:normal;font-variant-east-asian:normal;fill:#000000;fill-opacity:1;stroke:none;stroke-width:0.20189"
       xml:space="preserve"
       inkscape:export-xdpi="96"
       inkscape:export-ydpi="96"><tspan
         sodipodi:role="line"
         id="tspan872"
         x="15.912039"
         y="61.129192"
         style="font-style:normal;font-variant:normal;font-weight:bold;font-stretch:normal;font-size:6.35px;font-family:Purisa;-inkscape-font-specification:'Purisa, Bold';font-variant-ligatures:normal;font-variant-caps:normal;font-variant-numeric:normal;font-variant-east-asian:normal;stroke-width:0.20189">Molekulák</tspan></text>
    <text
       xml:space="preserve"
       style="font-style:normal;font-variant:normal;font-weight:bold;font-stretch:normal;font-size:6.35px;line-height:1.25;font-family:Purisa;-inkscape-font-specification:'Purisa, Bold';font-variant-ligatures:normal;font-variant-caps:normal;font-variant-numeric:normal;font-variant-east-asian:normal;fill:#000000;fill-opacity:1;stroke:none;stroke-width:0.20189"
       x="11.867087"
       y="42.889515"
       id="text852-4-9"
       inkscape:export-xdpi="96"
       inkscape:export-ydpi="96"><tspan
         sodipodi:role="line"
         id="tspan892"
         x="11.867087"
         y="42.889515"
         style="font-style:normal;font-variant:normal;font-weight:bold;font-stretch:normal;font-size:6.35px;font-family:Purisa;-inkscape-font-specification:'Purisa, Bold';font-variant-ligatures:normal;font-variant-caps:normal;font-variant-numeric:normal;font-variant-east-asian:normal;stroke-width:0.20189">Sejtalkotók</tspan></text>
    <text
       id="text852-4-9-9"
       y="24.478287"
       x="20.877729"
       style="font-style:normal;font-variant:normal;font-weight:bold;font-stretch:normal;font-size:6.35px;line-height:1.25;font-family:Purisa;-inkscape-font-specification:'Purisa, Bold';font-variant-ligatures:normal;font-variant-caps:normal;font-variant-numeric:normal;font-variant-east-asian:normal;fill:#000000;fill-opacity:1;stroke:none;stroke-width:0.20189"
       xml:space="preserve"
       inkscape:export-xdpi="96"
       inkscape:export-ydpi="96"><tspan
         sodipodi:role="line"
         id="tspan912"
         x="20.877729"
         y="24.478287"
         style="font-style:normal;font-variant:normal;font-weight:bold;font-stretch:normal;font-size:6.35px;font-family:Purisa;-inkscape-font-specification:'Purisa, Bold';font-variant-ligatures:normal;font-variant-caps:normal;font-variant-numeric:normal;font-variant-east-asian:normal;stroke-width:0.20189">Sejtek</tspan></text>
    <text
       id="text852-4-9-8"
       y="4.8629308"
       x="16.331137"
       style="font-style:normal;font-variant:normal;font-weight:bold;font-stretch:normal;font-size:6.35px;line-height:1.25;font-family:Purisa;-inkscape-font-specification:'Purisa, Bold';font-variant-ligatures:normal;font-variant-caps:normal;font-variant-numeric:normal;font-variant-east-asian:normal;fill:#000000;fill-opacity:1;stroke:none;stroke-width:0.20189"
       xml:space="preserve"
       inkscape:export-xdpi="96"
       inkscape:export-ydpi="96"><tspan
         sodipodi:role="line"
         id="tspan922"
         x="16.331137"
         y="4.8629308"
         style="font-style:normal;font-variant:normal;font-weight:bold;font-stretch:normal;font-size:6.35px;font-family:Purisa;-inkscape-font-specification:'Purisa, Bold';font-variant-ligatures:normal;font-variant-caps:normal;font-variant-numeric:normal;font-variant-east-asian:normal;stroke-width:0.20189">Szövetek</tspan></text>
    <text
       id="text852-4-9-5"
       y="-14.525993"
       x="18.62348"
       style="font-style:normal;font-variant:normal;font-weight:bold;font-stretch:normal;font-size:6.35px;line-height:1.25;font-family:Purisa;-inkscape-font-specification:'Purisa, Bold';font-variant-ligatures:normal;font-variant-caps:normal;font-variant-numeric:normal;font-variant-east-asian:normal;fill:#000000;fill-opacity:1;stroke:none;stroke-width:0.20189"
       xml:space="preserve"
       inkscape:export-xdpi="96"
       inkscape:export-ydpi="96"><tspan
         sodipodi:role="line"
         id="tspan932"
         x="18.62348"
         y="-14.525993"
         style="font-style:normal;font-variant:normal;font-weight:bold;font-stretch:normal;font-size:6.35px;font-family:Purisa;-inkscape-font-specification:'Purisa, Bold';font-variant-ligatures:normal;font-variant-caps:normal;font-variant-numeric:normal;font-variant-east-asian:normal;stroke-width:0.20189">Szervek</tspan></text>
    <text
       id="text852-4-9-96"
       y="-32.346607"
       x="37.600895"
       style="font-style:normal;font-variant:normal;font-weight:bold;font-stretch:normal;font-size:4.9389px;line-height:1.25;font-family:Purisa;-inkscape-font-specification:'Purisa, Bold';font-variant-ligatures:normal;font-variant-caps:normal;font-variant-numeric:normal;font-variant-east-asian:normal;text-align:center;text-anchor:middle;fill:#000000;fill-opacity:1;stroke:none;stroke-width:0.173961"
       xml:space="preserve"
       transform="scale(0.86166325,1.1605462)"
       inkscape:export-xdpi="96"
       inkscape:export-ydpi="96"><tspan
         sodipodi:role="line"
         id="tspan942"
         x="37.600895"
         y="-32.346607"
         style="font-style:normal;font-variant:normal;font-weight:bold;font-stretch:normal;font-size:4.9389px;font-family:Purisa;-inkscape-font-specification:'Purisa, Bold';font-variant-ligatures:normal;font-variant-caps:normal;font-variant-numeric:normal;font-variant-east-asian:normal;text-align:center;text-anchor:middle;stroke-width:0.173961">Szerv-</tspan><tspan
         sodipodi:role="line"
         x="37.600895"
         y="-26.172981"
         style="font-style:normal;font-variant:normal;font-weight:bold;font-stretch:normal;font-size:4.9389px;font-family:Purisa;-inkscape-font-specification:'Purisa, Bold';font-variant-ligatures:normal;font-variant-caps:normal;font-variant-numeric:normal;font-variant-east-asian:normal;text-align:center;text-anchor:middle;stroke-width:0.173961"
         id="tspan944">rendszerek</tspan></text>
  </g>
</svg>
