<svg width="150.59mm" height="150.59mm" version="1.1" viewBox="0 0 150.59 150.59" xmlns="http://www.w3.org/2000/svg">
 <g transform="translate(110.82 -112.85)">
  <g stroke="#000" stroke-linecap="square">
   <path d="m-61.73 137.6c-0.0826-0.18811-0.1349-0.39156-0.18123-0.59597-0.0853-0.35265-0.10246-0.71225-0.0786-1.0763 0.035-0.42213 0.17981-0.77599 0.41963-1.0804 0.28186-0.30208 0.64066-0.41307 1.0028-0.48944 0.39483-0.0707 0.77996 0.0107 1.1531 0.16469 0.3412 0.1531 0.61336 0.42551 0.84388 0.75751 0.18989 0.29391 0.29502 0.63774 0.35949 0.99762 0.0464 0.29707 0.0413 0.59915 0.0212 0.89887-0.0155 0.20523-0.0471 0.40792-0.0859 0.60845-0.0121 0.0368-0.0147 0.0771-0.0252 0.11457-4e-3 0.0117 9e-3 -0.0239 7e-3 -0.0361-7e-3 -0.0574-1e-3 -0.12332-0.0308-0.16967-0.0905-0.14553-0.11797-0.14176-0.21195-0.158 0.18887-0.0572 0.3793-0.10635 0.57025-0.15233 0.31224-0.0732 0.6273-0.12685 0.9429-0.17388 0.2824-0.049 0.56568-0.0678 0.84987-0.0373 0.36548 0.0545 0.54262 0.25819 0.68841 0.65404 0.12864 0.49968 0.14103 1.0283 0.13874 1.5474-8e-3 0.60781-0.12049 1.1982-0.2892 1.768-0.17414 0.54599-0.45006 1.0199-0.78162 1.442-0.30727 0.37889-0.69094 0.61988-1.0976 0.80436-0.32663 0.13966-0.66885 0.19581-1.0135 0.21046-0.26791 5e-3 -0.53435-0.0325-0.79916-0.0769-0.23912-0.0301-0.46612-0.11152-0.68368-0.23196-0.20956-0.12068-0.36807-0.30662-0.49212-0.53939-0.0816-0.16851-0.12136-0.35512-0.14552-0.54602-0.2765-2.3099 0.26634-2.404 0.54284-0.0941 0.0108 0.10071 0.0293 0.19995 0.0681 0.29103 0.0624 0.12802 0.14653 0.22364 0.25828 0.29018 0.16739 0.0956 0.34316 0.15391 0.52808 0.17657 0.2336 0.0394 0.46856 0.0739 0.70492 0.0709 0.28531-0.0104 0.56877-0.0555 0.83968-0.16902 0.32961-0.14679 0.6422-0.3362 0.89235-0.64112 0.2813-0.35289 0.51345-0.75196 0.66275-1.21 0.15008-0.49863 0.24782-1.0167 0.25693-1.5493 3e-3 -0.43203-6e-3 -0.87092-0.0974-1.2914-0.0449-0.15697-0.0815-0.23084-0.23254-0.24843-0.24452-0.0294-0.48833-5e-3 -0.73135 0.0352-0.30216 0.0449-0.6038 0.0962-0.90277 0.16612-0.20201 0.0485-0.40257 0.10448-0.60346 0.15906-0.32345 0.0132-0.43387-0.22203-0.34785-0.55483 0.0329-0.16899 0.0599-0.33984 0.0734-0.51283 0.0165-0.23599 0.023-0.47401-0.0112-0.70852-0.0433-0.25611-0.11439-0.50215-0.24603-0.71376-0.16261-0.24219-0.35697-0.44016-0.60121-0.55403-0.28378-0.12166-0.57745-0.18722-0.87943-0.1375-0.24777 0.0503-0.50172 0.11122-0.70474 0.30163-0.15897 0.18198-0.2384 0.41057-0.26429 0.67299-0.0218 0.28751-6e-3 0.56993 0.0615 0.84859 0.0344 0.15467 0.0726 0.30904 0.13329 0.45228 0.92851 2.0488 0.44704 2.3649-0.48147 0.31606z" stroke-width=".27068" style="paint-order:markers fill stroke"/>
   <path d="m-98.756 182.78c-0.13711 0-0.27422 0.58345-0.27422 1.7504v0.9923c-1e-3 0.52682 3e-3 1.0536-3e-3 1.5804-5e-3 0.36972-0.0148 0.74048-0.0643 1.1059h-0.37999c-2e-3 9e-3 -4e-3 0.0142-5e-3 0.0224-0.0102 9e-3 -0.0131 0.0285-0.0122 0.0578-0.12983 0.63527-0.24216 0.52624 0.0461 0.61201 0.0552 0.0184 0.11023 0.0364 0.15624 0.0794 0.16225 0.11129 0.33312 0.13267 0.49061-0.0102 0.0262-0.0316 0.049-0.0651 0.0701-0.0994h0.0418c0.36495 4e-3 0.7299 8e-3 1.0949 0.012 0.30791 4e-3 0.61582 6e-3 0.92373 9e-3 0.23736 0 0.47467 3e-3 0.71204 3e-3 -5.3e-4 0.34264-5e-5 0.68503 0.0144 1.0273 0.01 0.21793 0.0281 0.43522 0.055 0.65104 0.012 0.093 0.0254 0.18562 0.0449 0.27673 5e-3 0.0205 2e-3 0.011 6e-3 0.0294 0.46475 2.2657 0.99713 2.1075 0.53239-0.15826-5e-3 -0.0252-3e-3 -0.0123-8e-3 -0.0392-0.0142-0.0682-0.0242-0.13747-0.0331-0.20695-0.0245-0.19437-0.0404-0.39018-0.0494-0.58645-0.0141-0.33104-0.0148-0.6622-0.0139-0.99352h0.24229 0.58637 0.43279c0.0773 6e-5 0.0392 0 0.11397 0 1.9391-3e-3 1.9387-0.66201-2.5e-4 -0.66008-0.0748-3e-5 -0.0368 0-0.11413 0h-0.43313-0.5862c-0.0806-3e-5 -0.16107 0-0.24162 0v-1.8606c0-2.3337-0.54844-2.3337-0.54844 0v1.8604c-0.23623 0-0.47246 0-0.70868-3e-3 -0.30733-3e-3 -0.61474-5e-3 -0.92208-9e-3 -0.31835-4e-3 -0.63663-7e-3 -0.95498-0.0104 0.0422-0.36541 0.0566-0.73434 0.0602-1.1033 6e-3 -0.52955 2e-3 -1.0591 3e-3 -1.5887v-0.99212c0-1.1669-0.13711-1.7504-0.27421-1.7504z" stroke-width=".27068" style="paint-order:markers fill stroke"/>
   <path d="m25.289 188.92c-0.99396-6e-3 -0.75268 0.46399 0.80694 0.72536 0.18927 0.0282 0.37976 0.0431 0.57016 0.0569-0.0456 0.28302-0.0762 0.68418-0.0762 1.2141v2.0475c-2e-3 0.34129-0.0132 0.68303 0.0598 1.0156 0.17004 0.47653 0.49499 0.40359 0.83199 0.24447 0.33772-0.18805 0.66938-0.39013 1.009-0.57367 0.34696-0.18882 0.70788-0.33622 1.0758-0.45679 0.30698-0.0976 0.6203-0.15626 0.93844-0.15077 0.20894 0.01 0.39693 0.0845 0.54041 0.26486 0.14468 0.21919 0.17854 0.4966 0.20837 0.76362 0.0339 0.39061 0.0179 0.78343-2e-3 1.1744-0.0105 0.38141-0.0736 0.75232-0.18716 1.1089-0.10644 0.33247-0.29278 0.59251-0.52085 0.81848-0.30008 0.26772-0.653 0.42887-1.0068 0.56992-0.3634 0.13793-0.74057 0.2092-1.1192 0.25684-0.26066 0.0307-0.52268 0.0347-0.78405 0.0175-9e-3 0.0292-0.19103-0.047-0.15473-0.0575 0.0136 3e-3 0.0109 6e-3 0.0127-0.0162-0.22846-2.2591-0.77305-2.1834-0.54459 0.0757 0.0149 0.11728 0.0338 0.22717 0.0934 0.32702 0.14681 0.20581 0.33373 0.30186 0.56297 0.31349 0.29107 0.0184 0.58304 0.0144 0.87328-0.0202 0.41887-0.0534 0.83575-0.13367 1.2374-0.28761 0.41944-0.1686 0.83512-0.36542 1.1866-0.69048 0.29603-0.30146 0.54042-0.64762 0.6786-1.0846 0.12941-0.41668 0.20777-0.84774 0.21991-1.2926 0.022-0.43246 0.0382-0.86715-2e-3 -1.299-0.0485-0.41149-0.12378-0.81966-0.36845-1.1379-0.25819-0.28325-0.56064-0.43884-0.91857-0.44798-0.36992-3e-3 -0.73481 0.0585-1.0917 0.17467-0.39574 0.13038-0.78408 0.28873-1.1574 0.49209-0.3329 0.18018-0.65887 0.3762-0.98892 0.56328-0.0632 0.0319-0.0985 0.0415-0.12098 0.0488-0.0344-0.2326 3e-3 -0.48209-0.0129-0.7142v-2.0476c0-0.5161-0.0289-0.90887-0.0726-1.1908 0.29778 0.0153 0.59569 0.027 0.89366 0.0356 0.41832 0.0117 0.83669 0.0169 1.2551 0.0209 0.28196 3e-3 0.5639 3e-3 0.84587 0 0.12949 0 0.25904-4e-3 0.38852-6e-3 0.0296 0 0.0592 0 0.0889-3e-3 1.9381-0.0711 1.921-0.71426-0.017-0.64324-0.0278 0-0.0558 0-0.0837 3e-3 -0.1266 4e-3 -0.2532 5e-3 -0.37982 6e-3 -0.27959 3e-3 -0.55912 3e-3 -0.83869 0-0.41524-4e-3 -0.83044-0.01-1.2456-0.0205-0.39389-0.0114-0.78785-0.0245-1.1812-0.0507-0.20635-0.0147-0.41303-0.0289-0.61827-0.0588v-2.1e-4c-0.35993-0.0603-0.65512-0.0871-0.88449-0.0884zm1.8784 4.841c2e-3 3e-3 2e-3 3e-3 3e-3 4e-3 0.0578 0.0844 0.0213 0.0514 8e-3 0.0402-4e-3 -0.0144-7e-3 -0.0294-0.0102-0.0441z" stroke-width=".26724" style="paint-order:markers fill stroke"/>
  </g>
  <g>
   <path d="m-81.248 191.75c0.02714 0.0851 0.0341 0.17931 0.08142 0.25524 0.07604 0.12203 0.20831 0.20388 0.28171 0.32747 0.1077 0.18134 0.16251 0.38903 0.25602 0.57791 0.45253 0.91413 0.95867 1.8095 1.4443 2.7065 0.21408 0.4012 0.42815 0.80239 0.64222 1.2036 0.24784 0.43005 0.5066 0.85413 0.74352 1.2902 0.24862 0.45757 0.46022 0.93435 0.71266 1.3899 0.75325 1.3592 1.5843 2.6868 2.3761 4.0248 0.50297 1.2136 1.27 2.2766 1.9649 3.3806 0.48015 0.76287 0.89346 1.5464 1.411 2.2864 0.05859 0.12923 0.59911 1.2229 0.76759 1.2179 0.03544-7.9e-4 -0.05094-0.0742-0.08474-0.0636-0.35153 0.10994-0.68345 0.27381-1.0252 0.41072-0.12105-0.16067-0.0029 0.0363-0.0096-0.23115-0.0198-0.78626-0.22372 0.28942 0.08804-0.9226 0.40337-1.5682 0.20756-0.88726 0.99368-2.7578 1.4645-3.5166 3.3093-6.8548 5.0867-10.22 0.85765-1.624 1.6548-3.28 2.5594-4.8788 0.98559-1.742 2.0777-3.4228 3.1086-5.1389 1.0686-1.7789 2.1266-3.564 3.1899-5.3459 4.2039-6.3315 8.2675-12.763 12.98-18.744 2.3905-3.0343 3.0727-3.7413 5.5362-6.5475 1.7678-1.7044 2.5967-2.6023 4.4651-4.0682 1.0361-0.81293 2.6311-2.0171 4.0872-1.9389 0.32851 0.0177 0.63237 0.1799 0.94856 0.26984 0.16751 0.33774 0.40366 0.64994 0.50252 1.0132 0.35881 1.3185-0.21579 2.7054-0.59387 3.9366-0.74361 2.4214-0.23113 0.93451-1.1606 3.4228-0.59735 2.5796-1.477 5.0876-2.0346 7.6767-0.29496 1.3697-0.41946 2.3315-0.62823 3.7096-0.19613 2.0698-0.38155 4.169-0.22904 6.2498 0.0542 0.73952 0.17016 1.4736 0.22818 2.2129 0.08677 0.27967 0.18809 0.55532 0.26033 0.83902 0.06028 0.23672 0.07763 0.48275 0.1366 0.71979 0.16124 0.64801 0.49141 1.2723 0.85168 1.833 0.13143 0.14657 0.49352 0.72693 0.69996 0.77122-0.24894-0.10972-0.39083-0.12446-0.62615 0.0784-0.14943 0.12879-0.16187 0.28-0.14857 0.16405 0.24114-0.49952 0.67749-0.85847 1.0166-1.2856 0.58826-0.74088 1.1309-1.5163 1.7111-2.2634 2.1213-3.0528 0.24701-0.41093 2.7557-3.7635 0.59425-0.79415 1.1546-1.6131 1.7621-2.3974 0.6791-0.87678 1.4019-1.7196 2.0965-2.5844 3.6677-4.5662 0.81788-1.1244 4.7211-5.7648 0.90329-0.9722 1.8267-1.9264 2.7099-2.9166 0.89697-1.0057 1.719-2.076 2.6293-3.0699 0.90338-0.98633 1.8708-1.9133 2.8087-2.8676 0.90836-0.9241 1.7961-1.8688 2.7302-2.7674 1.3361-1.2854 3.8666-3.4857 5.2889-4.7368 2.0935-1.6897 2.4016-1.9657 4.4602-3.5287 0.58839-0.44673 1.1607-0.91687 1.7791-1.322 0.4547-0.29791 2.2703-1.2642 2.8762-1.5077 0.35748-0.1437 0.73773-0.22405 1.1066-0.33607 0.31386-0.0581 0.6223-0.17709 0.94158-0.17416 0.71981 6e-3 1.6638 0.45774 2.0809 1.0442 0.31319 0.44038 0.3207 0.77192 0.41378 1.2745 0.07176 0.1857 0.17676 0.36198 0.2153 0.55711 0.03548 0.17965-0.0087 0.36648 0.0032 0.54916 0.03779 0.58022 0.15994 1.152 0.25532 1.7243 0.08773 0.51424 0.25162 1.0129 0.34357 1.5261 0.07583 0.42322 0.11673 0.85189 0.18259 1.2767 0.32687 2.1086 0.63549 4.2185 0.94404 6.3301 0.19097 0.93569 0.39828 1.8682 0.5729 2.807 0.28481 1.5313 0.77966 4.7984 1.0894 6.297 0.6447 3.1195 1.5042 6.1935 2.4196 9.2431 1.0617 3.417 0.46864 1.6522 1.5978 4.77 0.75531 2.0856 0.40645 1.3574 1.3073 3.1123 0.53152 1.0354 0.29032 0.68346 0.87957 1.3796 0.40227 0.18907-0.17578-0.0872-0.31139-0.10375-0.09398-0.0115-0.20074 0.14294-0.27198 0.0812-0.07606-0.0659 0.0689-0.66662 0.06464-0.85952-0.0048-0.21745-0.06269-0.43055-0.09403-0.64583-0.1736-0.91751-0.09353-0.45943-0.24052-1.3742-0.72505-4.7633 0.63635-4.9663 1.3614-0.20295v0c0.18765 0.95781 0.12345 0.4724 0.1906 1.4565 0.12793 0.62562 0.2926 1.4878-6.39e-4 2.1066-0.45272 0.95559-1.0699 1.0655-1.8213 0.36568-0.64568-0.96034-1.1444-1.9994-1.6261-3.0503-0.27311-0.59579-0.56151-1.1866-0.78634-1.8018-0.58488-1.6004-0.90205-3.2891-1.5384-4.8734-0.28724-0.97622-0.5925-1.9474-0.86172-2.9287-1.4051-5.1213-2.3966-10.351-3.2139-15.592-0.54378-3.4229-0.25389-1.4632-0.67724-4.6053-0.07535-0.55927-0.11772-1.1241-0.22935-1.6773-0.08315-0.41212-0.25529-0.8024-0.35347-1.2113-0.12567-0.52339-0.14687-1.0678-0.29012-1.5881-0.15014-0.90103-0.14002-1.8087-0.3235-2.7039-0.28841-1.0711-0.62101-1.366-1.8112-1.2144-0.30847 0.0933-0.62492 0.16379-0.92541 0.2798-3.3059 1.2763-6.0501 4.0135-8.7944 6.137-1.1535 1.0244-4.1553 3.6759-5.2264 4.6875-3.8313 3.6186-7.3703 7.5351-10.788 11.534-0.79736 0.98823-1.5947 1.9765-2.3921 2.9647-0.78017 0.91013-1.5823 1.8023-2.3405 2.7304-2.3073 2.8244-4.3957 5.821-6.6061 8.7184-2.9644 3.8675 0.58655-0.74819-1.7672 2.2681-0.15981 0.20478-0.31308 0.41449-0.46962 0.62173-0.11068 0.10856-0.23073 0.20851-0.33204 0.32568-0.03776 0.0437-0.03303 0.12058-0.08136 0.15245-0.04467 0.0294 0.04584-0.0961 0.06875-0.14413-0.09295 0.54805-0.83667 0.68338-1.2185 0.36311-0.05702-0.0343-0.46142-0.29853-0.47088-0.30792-0.07267-0.0722-0.09828-0.1799-0.15982-0.2616-0.58115-0.77133 0.12005 0.30113-0.44218-0.59185-0.82435-1.1253-1.0873-2.5532-1.4077-3.8794-0.07254-0.66982-0.19122-1.6952-0.22841-2.3516-0.12267-2.1649-0.02445-4.3338 0.22528-6.4867 0.0907-0.62739 0.16511-1.2573 0.2721-1.8822 0.27636-1.614 0.46712-2.2879 0.84995-3.8867 0.15786-0.65926 0.29217-1.3245 0.47294-1.9779 0.18009-0.65105 0.4122-1.287 0.60898-1.9332 0.192-0.63061 0.37154-1.2649 0.55732-1.8973 0.1022-0.29944 1.0259-2.9889 1.1362-3.3753 0.13041-0.4566 0.21952-0.92381 0.32264-1.3872 0.13995-0.62888 0.33518-1.3356 0.35292-1.9871-0.03458-0.0865-0.01216-0.23855-0.10373-0.25935-0.48851-0.11096-1.5888 0.46628-1.8205 0.60272-2.2439 1.3216-4.0252 3.2849-5.8612 5.0788-1.7781 2.0282-3.8433 4.3271-5.4805 6.4481-1.0304 1.3349-1.9747 2.7328-2.9677 4.0952-3.4579 4.7443-6.9504 9.4726-9.922 14.541-5.0601 8.2437-1.4722 2.268-6.1954 10.47-0.9114 1.5828-1.8828 3.132-2.7601 4.7336-1.8103 3.3045-3.3292 6.752-4.8934 10.173-1.0878 2.3541-0.47225 0.77486-0.96614 2.4777-0.06828 0.23542-0.15397 0.29891-0.13962 0.5241 0.0048 0.0754 0.02975 0.14803 0.04462 0.22204 0.0031 0.078 6e-3 0.15593 0.0091 0.2339-0.345 0.21214-0.65424 0.49648-1.035 0.63643-0.0918 0.0337-0.16728-0.10282-0.23988-0.16786-0.40779-0.36523-0.57075-0.95303-0.88681-1.3812-0.13011-0.21336-0.25158-0.43212-0.39032-0.64009-0.16608-0.24896-0.3716-0.4721-0.5235-0.72978-0.17847-0.30275-0.29852-0.63606-0.46425-0.94582-0.62134-1.1613-1.43-2.2015-2.0385-3.3704-1.2076-2.2598-0.19572-0.41847-1.5239-2.6882-1.0172-1.7383-1.9242-3.5364-2.936-5.278-1.179-1.9018-0.18325-0.16908-1.0292-1.9811-1.2009-2.5724 0.28894 0.75011-0.73962-1.2594-0.74015-1.4461 0.25506 0.22906-0.28694-0.66326-2.1332-4.2222-0.92648-4.8192 1.2067-0.5971z" fill="#00887a" stroke="#00887a" stroke-linecap="square" stroke-width=".4703" style="paint-order:markers fill stroke"/>
   <path d="m-39.428 200.4c0.0889 1.394-0.04384 2.8532 0.99833 4.1663 0.79872 1.1229 3.2322 1.4289 5.1839 1.7841 1.5557 0.21224 3.3254 0.26445 4.8153-0.0909 2.0008-0.63058 2.7192-1.9149 3.2368-3.0278 1.2258-3.2982 0.48625-6.6714 0.28973-9.9993-0.13733-2.1103 0.12302-4.3125-1.4705-6.304-0.72332-0.83963-2.3861-1.5205-4.2329-1.3567-4.8033 0.48952-4.4162 0.30791-6.0538 2.694-2.5208 3.8933-2.7491 8.0653-2.7669 12.134zm1.6718-5.2e-4c0.02267-4.0024 0.22047-8.099 2.7262-11.925 0.88055-0.56069 0.43864-1.8752 2.1285-1.8555 1.2876-0.0486 2.7354-0.39337 3.9398-0.0223 1.7253 0.75777 1.7884 2.0348 2.1387 3.1107 0.29569 1.827 0.15244 3.665 0.41306 5.494 0.19216 2.7552 0.62724 5.5683-0.61373 8.2781-0.46292 0.74487-0.92354 1.657-2.3475 2.057-1.6533 0.25772-3.4186 0.038-4.9691-0.30324-1.6023-0.19431-2.8421-0.84589-2.997-1.7191-0.36573-1.0256-0.39259-2.0736-0.41895-3.1134z" enable-background="new" fill="#51df3b" opacity=".826" style="paint-order:markers fill stroke"/>
   <path d="m-26.422 200.66c-0.35704 3.0871-1.4551 4.4504-3.7509 4.6569-1.7467 0.15715-5.1102-0.38918-6.2007-1.0072-0.83065-0.47075-1.2422-2.0341-1.2414-4.7159 0.0015-4.6424 1.1105-8.8427 3.0809-11.667 0.88393-1.2672 0.89975-1.2738 3.2315-1.3613 2.6247-0.0984 3.6084 0.39036 4.1382 2.0561 0.41479 1.3042 0.96054 10.153 0.74247 12.039z" enable-background="new" fill="#33d917" opacity=".826" stroke="#33d917" stroke-linecap="square" stroke-width=".67907" style="paint-order:markers fill stroke"/>
   <path d="m-26.907 201.59c-0.25075 1.6371-0.96893 2.9627-1.8242 3.3672-0.92235 0.43619-4.1176 0.41292-5.9134-0.0432-2.1305-0.54093-2.4108-1.1083-2.4108-4.8797 0-4.8587 1.123-9.0265 3.0512-11.324 0.65658-0.78242 1.0913-0.96974 2.5115-1.0822 1.143-0.0905 2.0525 0.038 2.7189 0.38444 1.2278 0.63809 1.4955 1.6549 1.7205 6.5357 0.0864 1.8743 0.19772 3.9446 0.24737 4.6006 0.04964 0.65602 0.0043 1.7546-0.10098 2.4413z" enable-background="new" fill="#9af28c" opacity=".826" stroke="#33d917" stroke-linecap="square" stroke-width=".67907" style="paint-order:markers fill stroke"/>
  </g>
  <g fill="none" stroke="#fb424e" stroke-dasharray="0.588, 3.528" stroke-linecap="square" stroke-opacity=".96863" stroke-width=".588">
   <path d="m-91.269 180.28c0.03594-0.52952 0.13134-1.9659 0.16612-2.2546 0.22825-1.8943 0.55347-3.7757 0.84327-5.6616 1.5904-10.349-0.4059 2.9025 1.2887-8.4085 1.2301-7.7818 2.6181-15.551 4.4857-23.208 0.31897-1.3078 0.67416-2.6065 1.0112-3.9098 1.1811-3.389 1.0051-3.2422 2.5283-6.3148 0.94697-1.9103 1.3139-2.6 2.6145-4.1933 0.39273-0.48111 0.79161-0.96504 1.2615-1.3711 0.39436-0.34081 0.87404-0.5681 1.3111-0.85215 1.3416-0.57367 1.0301-0.5764 2.4429-0.67411 0.37203-0.0257 0.74816-0.0565 1.1187-0.0142 0.96257 0.1099 1.862 0.60335 2.7145 1.0229 1.4313 0.77205 0.07227-0.0199 1.3126 0.86954 0.18093 0.12974 0.39153 0.21547 0.56868 0.35032 0.1461 0.11123 0.26036 0.25914 0.39536 0.3836 0.23769 0.21913 0.36317 0.3125 0.60492 0.50427 0.12468 0.1579 0.26316 0.30056 0.38587 0.45969 2.6954 3.9463 1.5792 4.7086-1.1162 0.76237-0.08911 0.19387-3e-3 -0.10857-0.18935-0.22052-0.49429-0.20553-0.5508-0.41072-0.9679-0.74916-0.47315-0.38395-0.49949-0.36052-1.0279-0.71441-0.20189-0.13521-0.39991-0.27612-0.59987-0.41417-0.47971-0.28515-0.8292-0.53407-1.376-0.68958-0.64049-0.18216-1.8826-0.30786-2.5211-0.13181-0.33094 0.0912-0.62094 0.29294-0.93142 0.43941-0.35657 0.23827-0.74178 0.43844-1.0697 0.71481-0.90847 0.76561-1.7735 1.8552-2.4155 2.8292-1.6982 2.5766-2.7607 5.4561-3.6171 8.406-0.36819 1.2736-0.76914 2.5383-1.1046 3.821-0.45062 1.7232-1.6618 7.1251-2.0087 8.7841-0.33067 1.5816-0.6767 3.1612-0.93881 4.7556-0.26494 1.6116-0.37764 3.2457-0.64154 4.8574-0.25821 1.577-0.61602 3.136-0.92402 4.704-0.17917 1.4888-0.31501 2.9834-0.5375 4.4662-0.19738 1.3155-0.51098 2.6115-0.72152 3.925-0.41108 2.5646-0.65029 5.157-0.97063 7.7324-0.02054 4.8599-1.3951 4.8541-1.3746-6e-3z" style="paint-order:markers fill stroke"/>
   <path d="m-62.691 126.99c0.08785 0.64608 0.01413 1.296 0.02011 1.9453-0.12155 0.71234 0.18248 1.4399-0.05186 2.1294 0.20191 0.75938-0.02529-0.29566-0.04577 0.36304-0.0028 0.0896 0.25665 0.18739 0.0709 0.2351-0.38736 0.17683-0.77471 0.35367-1.1621 0.5305-5.29e-4 0.01 0.0073 0.0344-0.0013 0.0296-0.04114-0.0236-0.06297-0.0782-0.10824-0.0922-0.2335-0.0723-0.66852-0.0576-0.90984-0.0594-0.12586-0.0252-0.2496-0.066-0.3776-0.0757-0.09522-7e-3 -0.67653 0.0405-0.77374 0.0386-0.32722-6e-3 -0.64788-0.0855-0.97524-0.10133-0.15703-0.0148-0.30394 0.11469-0.46115 0.10396-0.06461-4e-3 -0.115-0.0748-0.17975-0.0737-0.05506 9e-4 -0.09124 0.0675-0.14507 0.079-0.09059 0.0195-0.18529-0.0152-0.27781-0.0101-0.19596 0.043-0.41115 0.1154-0.61338 0.077-0.05428-0.0103-0.10383-0.0513-0.15892-0.0471-0.05346 4e-3 -0.09654 0.0466-0.14481 0.07-0.04424-6e-3 -0.08848-0.0121-0.13272-0.0182-5.1347 0.0728-5.1553-1.3796-0.02059-1.4523 0.03954 6e-3 0.07908 0.0121 0.11862 0.0181 0.2799 0.10772 0.55909-0.1296 0.82842 0.0115 0.17919 0.0163 0.28571-0.0693 0.46002-0.0784 0.06815-4e-3 0.13574 0.0318 0.20342 0.0231 0.90729-0.11686-0.48715-0.0698 0.50899-0.0835 0.5718 0.16019 0.04923 0.0614 0.66009 0.0308 0.11698-6e-3 0.68399 0.0478 0.79112 0.0473 0.13978-6.6e-4 0.2785-0.0353 0.4182-0.0308 0.13982 4e-3 0.27715 0.0384 0.41572 0.0576 0.82887 0.041-0.01288-0.0323 0.75837 0.1264 0.11451 0.0236 0.2353 0.01 0.34856 0.0389 0.10029 0.0257 0.18729 0.0892 0.28507 0.1232 0.64602 0.22454 0.62201-0.10571-0.74251 0.71712 0.01212-5e-3 0.0349-2e-3 0.03633-0.0147 0.0042-0.0385-0.04731-0.0674-0.04728-0.10612 1.53e-4 -0.18737 0.12994-0.2897-0.01072-0.47734 0.0078-0.29837 0.11302-0.60107 0.09707-0.8977-0.0071-0.13151-0.06983-0.25619-0.07585-0.38776-0.0063-0.13763 0.02617-0.2743 0.03927-0.41145-8e-3 -0.14417-0.01595-0.28834-0.02394-0.4325 0.02402-0.65054-0.02291-1.3043 0.056-1.9453 0-4.6804 1.3238-4.6804 1.3238 0z" style="paint-order:markers fill stroke"/>
   <path d="m-91.166 198.48c0.043 1.1139-0.02222 2.2216 0.04775 3.336 0.01753 0.95849-0.13817 1.9165-0.15257 2.8723-0.0051 0.33738 0.05708 0.67407 0.0447 1.0112-0.02561 0.69815-0.15861 1.3882-0.23455 2.0827-0.31278 3.1053 0.11896-0.97558-0.27737 2.1334-0.04568 0.3583-0.05793 0.72034-0.10354 1.0786-0.13724 1.0782-0.35457 2.1371-0.47754 3.2182-0.15082 1.5982-0.29921 3.1961-0.49959 4.7889-0.05942 0.47234-0.14309 0.94212-0.18107 1.4167-0.04126 0.51552-0.03761 1.0337-0.05641 1.5505-0.04625 0.5556-0.11364 1.1098-0.13875 1.6668-0.02643 0.58596-0.0068 1.1731-0.01578 1.7596-0.11112 7.2513 0.01617-3.7122-0.02435 3.6972-0.03283 6.0018-0.05284-2.1887-0.02737 3.8384-0.13894 3.4023-0.06292 6.8249 0.2566 10.216 0.23304 1.1208 0.36973 2.3384 0.88496 3.3818 0.40617 0.82256 1.0828 1.5236 1.726 2.159 0.90807 0.65759 2.0911 1.1766 3.2437 1.1183 0.21703-0.011 0.42769-0.0773 0.64154-0.11593 0.6942 0.0175 1.3338-0.23024 1.9937-0.39013 0.23425-0.0567 0.48031-0.063 0.71045-0.1346 0.88204-0.38932 0.43233-0.22523 1.3485-0.49397 0.09678-0.0305 1.1836-0.37711 1.3023-0.39656 0.20726-0.034 0.42458 0.0244 0.62975-0.0205 0.18672-0.0409 0.33707-0.19385 0.52435-0.23207 0.64776 0.0282 0.34037 0.0575 0.92384-0.0684 0.44895-0.1135 0.23282-0.11249 0.64771-0.0295 4.785-0.16916 4.8329 1.1842 0.04785 1.3534-0.30944-0.0136-0.14036-0.0132-0.50717 8e-3 -0.26988 0.0554-0.53548 0.1324-0.80743 0.1765-0.17346 0.0281-0.35123 0.0246-0.52426 0.0553-0.63698 0.11293-0.53201 0.16131-1.1748 0.33308-0.21905 0.0585-0.44306 0.0967-0.66458 0.14502-1.4036 0.53675-2.8885 0.87008-4.364 1.1409-0.26794 0.0207-0.53512 0.0665-0.80382 0.0621-0.72273-0.0118-1.8454-0.18886-2.4957-0.50277-0.5745-0.27732-1.0079-0.80138-1.6157-1.0257-0.46225-0.46901-1.0768-1.052-1.4485-1.5984-0.95718-1.407-1.3863-3.1371-1.5962-4.7974-0.32612-2.5647-0.10257-0.38072-0.21662-3.0748-0.02393-0.5654-0.09973-1.1283-0.11056-1.6941-0.01143-0.59716 0.05079-1.194 0.04385-1.7913-0.0073-0.62528-0.07998-1.2487-0.08642-1.874-0.0066-0.63851 0.0316-1.2767 0.04741-1.9151 0.20352-4.9938-0.0053 1.1202 0.03669-3.8598 0.01046-1.2411 0.15197-2.4789 0.15882-3.72 0.01911-3.4611-0.21872-0.12445 0.0922-3.4625 0.17717-2.0578 0.09523-1.028 0.24006-3.0038 0.06227-0.84938 0.08338-1.7027 0.18487-2.5483 0.04679-0.38988 0.14533-0.77212 0.19891-1.1611 0.05176-0.3758 0.07796-0.75467 0.11694-1.132 0.03159-0.37133 0.04788-0.74429 0.09479-1.114 0.39936-3.1477-0.04317 1.0084 0.38436-2.1161 0.04802-0.35099 0.03908-0.70816 0.08608-1.0593 0.28026-2.0937 0.16682-6e-3 0.22582-2.099 0.16039-1.9404 0.44928-3.8794 0.30833-5.8328 0.02491-0.53791 0.0886-1.0755 0.07391-1.6138-0.0059-0.2147-0.06936-0.42546-0.07272-0.64021-0.0055-0.35291 0.07253-0.72848 0.08661-1.0821 0-4.6814 1.3241-4.6814 1.3241 0z" style="paint-order:markers fill stroke"/>
   <path d="m-74.063 244.49c0.54571 0.35686 0.98836 0.83839 1.4829 1.2592 0.45855 0.55851 1.2074 0.80549 1.5748 1.4343 0.706 0.34495-0.23995-0.17458 0.24428 0.27244 0.06573 0.061 0.30972-0.0711 0.22407 0.10046-0.12017 0.40849-0.24034 0.817-0.36051 1.2255 0.0072 7e-3 0.03057 0.0172 0.02171 0.0201-0.04476 0.0156-0.10036-4e-3 -0.14057 0.0214-0.2076 0.12904-0.48149 0.46734-0.64095 0.64848-0.1015 0.0786-0.21338 0.14533-0.30457 0.23568-0.06766 0.0673-0.41262 0.53766-0.47774 0.60986-0.21891 0.24329-0.48904 0.43347-0.71547 0.67042-0.11406 0.10894-0.11248 0.30478-0.22357 0.41651-0.04534 0.0462-0.13186 0.0379-0.17345 0.0875-0.03542 0.0422-0.0088 0.11313-0.03536 0.16136-0.04462 0.0812-0.13287 0.13003-0.18963 0.20327-0.09589 0.17622-0.18217 0.38623-0.34367 0.51386-0.04336 0.0343-0.10678 0.0448-0.1397 0.0892-0.03203 0.043-0.02801 0.10344-0.04198 0.15527-0.03349 0.0295-0.06712 0.0589-0.1007 0.0883-3.3089 3.927-4.4197 2.9911-1.1107-0.9359 0.03041-0.0259 0.06096-0.0518 0.09139-0.0778 0.26476-0.1409 0.26836-0.50731 0.55141-0.61834 0.12972-0.12471 0.13482-0.26126 0.24215-0.39892 0.04159-0.0541 0.11295-0.0817 0.15072-0.13855 0.50611-0.76203-0.37188 0.32231 0.27037-0.43926 0.49564-0.32706 0.07862 3e-3 0.45572-0.47852 0.0721-0.0923 0.48422-0.48545 0.55403-0.56672 0.09107-0.10603 0.15578-0.23353 0.25071-0.33614 0.09462-0.10301 0.21058-0.18423 0.31587-0.27634 0.574-0.59937-0.03285-0.0114 0.59233-0.49015 0.09285-0.0711 0.16171-0.17122 0.25774-0.23786 0.08512-0.0589 0.19009-0.0831 0.27984-0.13466 0.59287-0.34097 0.32764-0.53919 0.05535 1.0308 0.0041-0.0124 0.02135-0.0277 0.01267-0.0371-0.02647-0.0282-0.08191-8e-3 -0.11116-0.0338-0.14146-0.12286-0.13374-0.28796-0.36764-0.30463-0.22018-0.20152-0.38007-0.47917-0.61461-0.66148-0.10394-0.0809-0.23928-0.1151-0.34268-0.19669-0.10791-0.0856-0.19007-0.1995-0.28511-0.29925-0.11416-0.0884-0.22826-0.17689-0.34242-0.26529-0.47577-0.44432-1.0004-0.83721-1.433-1.3167-3.5361-3.0663-2.6688-4.0664 0.86727-1.0002z" style="paint-order:markers fill stroke"/>
  </g>
  <g fill="#f61c2d">
   <path d="m-26.021 243.64c-0.01728 0.0768-0.04974 0.15179-0.05185 0.23052-0.0065 0.24391 0.09138 0.53877 0.11601 0.77241 0.05988 0.56799 0.03992 1.1568 0.03239 1.7265 0.03086 0.20826 0.06172 0.41653 0.09258 0.6248 0.15389 2.9762-0.68792 3.0198-0.84181 0.0435-0.0038-0.20802-0.0076-0.41603-0.01135-0.62404-0.03322-0.20214-0.08026-0.40249-0.09965-0.60642-0.06009-0.63218 0.02588-0.48961-0.0122-1.0944-0.0158-0.25094-0.10063-0.49599-0.10169-0.74743-2.65e-4 -0.0699 0.02635-0.13719 0.03953-0.20579-0.42326-2.9628 0.41475-3.0825 0.83802-0.11971z" style="paint-order:markers fill stroke"/>
   <path d="m-28.767 245.44c0.28491 4e-3 0.56396-0.0687 0.85007-0.0489 0.16124 0.0112 0.31822 0.0658 0.47961 0.0742 0.36347 0.019 0.72736-0.0276 1.0911-0.039 0.54266-0.0992 1.0997 0.0894 1.64 0.0491 0.16436-0.0123 0.31843-0.10418 0.4831-0.11024 1.8549-0.0683-0.92388 0.25751 0.86808 0.0196 2.8653 0 2.8653 0.85296 0 0.85296-0.97368 0.1069 0.13161 0.0128-0.86808 0.0108-0.33522-5.3e-4 -0.66852 0.095-1.0032 0.0744-1.3399-0.0825 0.25175-0.18595-1.1199-0.0495-0.80686-0.0651-1.6171 0.0781-2.4208-0.0224-2.7247 0-2.7247-0.81111 0-0.81111z" style="paint-order:markers fill stroke"/>
   <path d="m-7.4045 243.12c-0.045731 0.23165 0.034618 0.43915 0.04854 0.66598 0.00823 0.13425-0.038584 0.26883-0.025612 0.40271 0.014711 0.1517 0.071795 0.29625 0.10769 0.44437 0.00606 0.16702 0.012091 0.33404 0.01815 0.50106 0.42758 1.4296-0.10884-0.45751 0.21248 0.98999 0.31629 1.4248 0.014049-0.45022 0.22091 0.9525 0.64186 2.9833-0.20195 3.1648-0.84381 0.18154-0.097475-0.68065-0.27601-1.3448-0.35331-2.0298-0.045538-0.28698-0.11881-0.68485-0.12723-0.97948-0.00386-0.13505 0.02953-0.26987 0.021775-0.40476-0.011351-0.19695-0.13665-0.37977-0.1317-0.57699 0.00132-0.0555 0.052152-0.0981 0.078227-0.14708 0-2.7361 0.77389-2.7361 0.77389 0z" style="paint-order:markers fill stroke"/>
   <path d="m-8.9252 244.58c0.06154 0.0134 0.12166 0.0392 0.18463 0.0401 0.24988 4e-3 0.49769-0.0561 0.7476-0.0565 0.60096-8e-4 1.2023 0.0885 1.8018 0.12438 2.8449 0.14004 2.8052 0.94469-0.039608 0.80465-0.41179-0.0335-0.82209-0.0983-1.2352-0.10232-0.17615-2e-3 -0.35081 0.0394-0.52697 0.0399-0.3121 7.9e-4 -0.63137-0.11047-0.93222 0.0244-3.0921 0-3.0921-0.87458 0-0.87458z" style="paint-order:markers fill stroke"/>
   <path d="m4.0762 254.01c0.00132 0.0535 0.0027 0.10709 0.00402 0.16063-0.022304 0.0854-0.067511 0.16787-0.066881 0.2561 7.937e-4 0.11874 0.064913 0.23047 0.071207 0.34905 0.00749 0.14079-0.029681 0.2809-0.030279 0.42189-7.938e-4 0.164 0.052758 0.79329 0.065061 0.94845 0.13926 2.8722-0.67313 2.9116-0.81239 0.0394-0.028212-0.46812-0.089104-0.94132-0.10179-1.4097-0.00548-0.20197 0.040095-0.40319 0.034322-0.60515-0.00159-0.0546-0.021431-0.10709-0.032163-0.16063 0-3.072 0.86889-3.072 0.86889 0z" style="paint-order:markers fill stroke"/>
   <path d="m0.92066 255.22c0.14299 0.0351 0.277-0.0521 0.41673-0.0474 0.12284 4e-3 0.23973 0.0699 0.3626 0.0669 0.16027-4e-3 0.3127-0.0835 0.47298-0.0873 0.19478-5e-3 0.38665 0.0514 0.58118 0.0623 0.22259 0.0126 0.44587 5e-3 0.6688 8e-3 0.96921-0.0569 0.48075-0.0412 1.4654-0.0459 3.3437 0 3.3437 0.94575 0 0.94575-0.98297-0.15394-0.49445-0.14551-1.4654-0.0324-0.56936-0.0371-1.1567-3e-3 -1.723-0.0609-0.12278-0.0126-0.23926-0.0799-0.3626-0.0751-1.0055 0.0393 0.24633 0.1564-0.41673 0.0811-2.8828 0-2.8828-0.81537 0-0.81537z" style="paint-order:markers fill stroke"/>
   <path d="m-36.393 253.37c0.14004 0.59338 0.28979 1.1881 0.44338 1.7807 0.15758 0.51586 0.08312 0.26009 0.22388 0.76717 0.72824 2.7758-0.05689 2.9818-0.78512 0.20597-0.14509-0.49736-0.06071-0.24912-0.25489-0.74414-0.03032-0.13165-0.06064-0.26331-0.09096-0.39497-0.05606-0.12137-0.1363-0.23427-0.16817-0.3641-0.03004-0.12237-0.0027-0.25227-0.01394-0.37777-0.03869-0.43216-0.01254-0.20474-0.16485-0.53311-0.02468-0.0532-0.03905-0.1106-0.05857-0.16591-0.61465-3.0732 0.2546-3.2471 0.86925-0.17385z" style="paint-order:markers fill stroke"/>
   <path d="m-39.256 254.63c0.33498-0.0907 0.66408 0.0363 0.99526 0.0442 0.21282 5e-3 0.42441-0.0378 0.63725-0.0423 0.55744-0.0119 1.1151 0.013 1.6726 0.0143 0.97118-9e-3 1.9325-2e-3 2.9018-0.0667 3.0532-0.0758 3.0746 0.78781 0.02143 0.86357-0.97629 0.0621-1.9449 0.0576-2.9232 0.0511-0.76696-0.0199-1.5427-0.0513-2.3099-0.0396-0.07751 1e-3 -0.65996 0.0554-0.80019 0.0496-0.06607-3e-3 -0.13005-0.0241-0.19507-0.0361-2.963 0-2.963-0.83808 0-0.83808z" style="paint-order:markers fill stroke"/>
   <path d="m-54.881 240.62c0.13802 0.34723-0.02697 0.71177-0.01773 1.0696 0.02963 1.1458 0.09119-0.36529 0.02236 0.83795 0 2.8984-0.81978 2.8984-0.81978 0 0.0016-0.14427 3e-3 -0.28854 0.0046-0.43281-0.0149-0.13505-0.04253-0.26929-0.0447-0.40514-0.0019-0.12177 0.02162-0.24261 0.03242-0.36392 0.0027-0.10289 0.01045-0.20576 0.0081-0.30866-0.0019-0.0801-0.02821-0.15976-0.0204-0.2395 0.0055-0.0558 0.03951-0.10503 0.05926-0.15753 0-2.743 0.77585-2.743 0.77585 0z" style="paint-order:markers fill stroke"/>
   <path d="m-58.799 240.68c0.1822-0.0465 0.36061 0.0393 0.54107 0.031 0.15023-7e-3 0.29464-0.0699 0.44496-0.0746 0.80369-0.0253 0.35423 0.10825 1.2037 0.14547 0.23365 0.0102 0.46683-0.0294 0.70025-0.0441 0.70919 0.0544 1.4169 0.0973 2.1244 0.17109 2.8677 0.15484 2.8239 0.96594-0.0438 0.81109-0.70521-0.0863-1.4083-0.12463-2.1175-0.16656-0.61176-0.039-1.2534-0.0986-1.8671-0.0667-0.14977 8e-3 -0.2951 0.0606-0.44496 0.0666-1.2824 0.0511 0.33082-0.10654-0.54107-0.0133-3.0406 0-3.0406-0.86 0-0.86z" style="paint-order:markers fill stroke"/>
   <path d="m-52.593 251.97c-0.0019 0.0622-0.01119 0.12456-0.0053 0.18647 0.03353 0.35289 0.07848 0.21713 0.12149 0.61789 0.0485 0.45191 0.04 0.89574 0.10742 1.349-0.08189 0.46617 0.05648 0.92191 0.08079 1.3836-0.0099 0.529-0.01678 0.27038 0.01781 0.77593 0.11158 3.1902-0.79073 3.2217-0.90231 0.0316 0.01476-0.2555 0.08932-0.50886 0.07315-0.76428-0.0092-0.1459-0.08924-0.28057-0.10442-0.42598-0.01606-0.15389 0.0077-0.30936 0.01151-0.46403l-0.05214-0.4713c-0.06565-1.3642 0.02897 0.38229-0.07423-0.91994-0.02357-0.2975 0.03199-0.70621-0.06775-0.99472-0.01765-0.051-0.0687-0.0833-0.10304-0.12489-0.63431-3.1715 0.26274-3.3509 0.89705-0.17941z" style="paint-order:markers fill stroke"/>
   <path d="m-55.728 252.95c0.72245 0.1668-0.41053-0.064 0.54077-6e-3 0.14378 9e-3 0.27678 0.0855 0.41984 0.10235 0.17554 0.0207 0.35403-5e-3 0.53018 0.01 1.32 0.10964-0.10473 0.10081 1.3336 0.0723 1.0291 0.0645 0.5079 0.0455 1.5636 0.0553 3.1129 0.12543 3.0774 1.0059-0.03548 0.88045-1.0607-0.0668-0.53586-0.0464-1.5745-0.0628-0.75228-0.0618-0.62451-0.0681-1.3467-0.0656-0.17898 5.3e-4 -0.35848 0.0264-0.53681 0.0112-0.3037-0.0259-0.58774-0.17454-0.89441-0.18176-2.8828 0-2.8828-0.81537 0-0.81537z" style="paint-order:markers fill stroke"/>
   <path d="m-35.068 145.78c0.06502-0.0239 0.12662-0.061 0.19508-0.0717 0.39129-0.061 0.82306 0.056 1.2152 0.064 0.29002 6e-3 0.84372-0.0165 1.1283-0.0259 0.78666 0.0784 0.39401 0.0725 1.1779 0.0187 2.7425 0 2.7425 0.77569 0 0.77569-0.78271 0.11301-0.39006 0.1074-1.1779 0.0159-0.19338 6e-3 -0.38677 0.0122-0.58015 0.0184-0.18272 0.0261-0.36367 0.0724-0.54815 0.0783-0.46577 0.0149-0.94084-0.12575-1.4103-0.0608-2.8734 0-2.8734-0.81272 0-0.81272z" style="paint-order:markers fill stroke"/>
   <path d="m7.3421 135.75c0.053544 0.02 0.10364 0.0643 0.16063 0.06 0.090429-7e-3 0.1662-0.0799 0.2561-0.0919 0.1154-0.0153 0.23271 0.0155 0.34905 0.0114 0.52421-0.0184 1.0077-0.0309 1.5346 0.01 0.83478 0.0466 0.41456 0.0382 1.2607 0.0242 3.0515 0.15161 3.0086 1.0147-0.04288 0.8631-0.83142-0.0275-0.4191-5e-3 -1.237-0.0678-0.75904-0.0223-1.5232-0.0502-2.2812-0.0158-2.8027 0-2.8027-0.79271 0-0.79271z" style="paint-order:markers fill stroke"/>
   <path d="m-85.07 184.58c0.36162-0.0481 0.71957-0.0635 1.0828-0.0221 0.14139 0.0161 0.28118 0.0652 0.4232 0.0562 0.15316-0.01 0.29785-0.0741 0.44677-0.11112 0.15266 0.0171 0.30532 0.0341 0.45797 0.0512 2.9631 0 2.9631 0.83808 0 0.83808-0.15266-1e-4 -0.30531-2e-4 -0.45797-2.6e-4 -0.65137-0.0334-1.3035 0.0638-1.9527 4e-3 -2.8845 0-2.8845-0.81587 0-0.81587z" style="paint-order:markers fill stroke"/>
  </g>
  <g>
   <path d="m-79.479 228.16c0.0889 1.394-0.0438 2.8532 0.99833 4.1663 0.79872 1.1229 3.2322 1.4289 5.1839 1.7841 1.5557 0.21224 3.3254 0.26445 4.8153-0.0909 2.0008-0.63058 2.7192-1.9149 3.2368-3.0278 1.2258-3.2982 0.48625-6.6714 0.28973-9.9993-0.13733-2.1103 0.12302-4.3125-1.4705-6.304-0.72332-0.83963-2.3861-1.5205-4.2329-1.3567-4.8033 0.48952-4.4162 0.30791-6.0538 2.694-2.5208 3.8933-2.7491 8.0653-2.7669 12.134zm1.6718-5.3e-4c0.0227-4.0024 0.22048-8.099 2.7262-11.925 0.88055-0.56069 0.43863-1.8752 2.1285-1.8555 1.2876-0.0486 2.7354-0.39337 3.9398-0.0223 1.7253 0.75777 1.7884 2.0348 2.1387 3.1107 0.29569 1.827 0.15244 3.665 0.41306 5.494 0.19216 2.7552 0.62724 5.5683-0.61373 8.2781-0.46292 0.74487-0.92354 1.657-2.3475 2.057-1.6533 0.25772-3.4186 0.038-4.9691-0.30324-1.6023-0.19431-2.8421-0.84589-2.997-1.7191-0.36574-1.0256-0.39259-2.0736-0.41896-3.1134z" enable-background="new" fill="#51df3b" opacity=".826" style="paint-order:markers fill stroke"/>
   <path d="m-66.113 228.41c-0.35704 3.0871-1.4551 4.4504-3.7509 4.6569-1.7467 0.15715-5.1102-0.38918-6.2007-1.0072-0.83064-0.47075-1.2422-2.0341-1.2414-4.7159 1e-3 -4.6424 1.1105-8.8427 3.0808-11.667 0.88393-1.2672 0.89975-1.2738 3.2315-1.3613 2.6247-0.0984 3.6084 0.39036 4.1382 2.0561 0.41479 1.3042 0.96054 10.153 0.74247 12.039z" enable-background="new" fill="#33d917" opacity=".826" stroke="#33d917" stroke-linecap="square" stroke-width=".67907" style="paint-order:markers fill stroke"/>
   <path d="m-67.487 229.34c-0.25075 1.6371-0.96893 2.9627-1.8242 3.3672-0.92235 0.43619-4.1176 0.41292-5.9134-0.0432-2.1305-0.54093-2.4108-1.1083-2.4108-4.8797 0-4.8587 1.123-9.0265 3.0512-11.324 0.65658-0.78242 1.0913-0.96974 2.5115-1.0822 1.143-0.0905 2.0525 0.038 2.7189 0.38444 1.2278 0.63809 1.4955 1.6549 1.7205 6.5357 0.0864 1.8743 0.19772 3.9446 0.24737 4.6006 0.04964 0.65602 0.0043 1.7546-0.10098 2.4413z" enable-background="new" fill="#9af28c" opacity=".826" stroke="#33d917" stroke-linecap="square" stroke-width=".67907" style="paint-order:markers fill stroke"/>
  </g>
  <g fill="#ffc296" fill-opacity=".60784">
   <path d="m-47.27 226.56c-0.3547 0.3587-0.01907-0.0132-0.37338 0.52327-0.0869 0.13161-0.20034 0.24481-0.2832 0.379-0.31143 0.50431-0.51006 1.0746-0.69982 1.6312-0.12104 0.20687-0.24209 0.41374-0.36313 0.62062-0.4272 0.90249 0.8491 1.5066 1.2763 0.60416 0.0872-0.22683 0.1744-0.45366 0.2616-0.68049 0.1277-0.16989 0.27757-0.32522 0.38306-0.50973 0.62059-1.0854-0.18083 0.0384 0.3602-0.95351 0.0543-0.0996 0.17084-0.15664 0.22221-0.25781 0.03864-0.076 0.0024-0.17527 0.03727-0.25309 0.01996-0.0445 0.07747-0.0594 0.11618-0.0891 0.71737-0.66275-0.21989-1.6773-0.93727-1.0145z" style="paint-order:markers fill stroke"/>
   <path d="m-49.829 220.05c-0.47136-0.0804-0.94821 0.0149-1.419 7e-3 -0.23485-4e-3 -0.4675-0.0506-0.70228-0.0577-0.23391-7e-3 -1.1761 0.0306-1.4217 0.0395-0.99058 0-0.99058-1.4009 0-1.4009 0.47409 3e-3 0.94785 0.0581 1.4217 0.0418 0.23573-8e-3 0.46671-0.0748 0.70228-0.0867 0.46792-0.0237 0.95025 0.0287 1.419 0.0275 1.0106 0 1.0106 1.4292 0 1.4292z" style="paint-order:markers fill stroke"/>
   <path d="m-48.351 216.88c-0.26753-0.32994-0.55312-0.65739-0.80154-1.0024-0.11022-0.15306-0.18547-0.33002-0.30083-0.47924-0.22505-0.2911-0.49707-0.54308-0.73147-0.82671-0.10302-0.12913-0.20604-0.25826-0.30905-0.3874-0.61112-0.80871 0.53257-1.673 1.1437-0.86426 0.10408 0.12462 0.20816 0.24923 0.31224 0.37385 0.32075 0.4642 0.68241 0.8733 1.0273 1.3161 0.1372 0.17614 0.32178 0.51878 0.48553 0.6913 0.05788 0.061 0.13522 0.1 0.20284 0.14994 0.72743 0.72742-0.30131 1.7562-1.0287 1.0287z" style="paint-order:markers fill stroke"/>
   <path d="m-43.962 215.85c-0.0701-0.40642 0.10365-0.82679 0.07931-1.2271-0.01135-0.18658-0.10763-0.36062-0.12457-0.54678-0.0317-0.34823 0.02394-0.69914 0.02122-1.0488 0.01156-0.14542 0.02312-0.29084 0.03467-0.43626 0-0.96927 1.3707-0.96927 1.3707 0-0.01379 0.14542-0.02754 0.29084-0.04132 0.43626 0.01614 0.94072 0.11495 1.8809 0.07654 2.8227 0 1.0017-1.4166 1.0017-1.4166 0z" style="paint-order:markers fill stroke"/>
   <path d="m-40.388 216.25c0.32994-0.26754 0.65739-0.55312 1.0024-0.80154 0.15306-0.11022 0.33002-0.18548 0.47924-0.30084 0.2911-0.22505 0.54308-0.49707 0.82671-0.73147 0.12913-0.10302 0.25826-0.20604 0.3874-0.30905 0.80871-0.61113 1.673 0.53256 0.86426 1.1437-0.12462 0.10408-0.24923 0.20816-0.37385 0.31224-0.4642 0.32075-0.8733 0.68241-1.3161 1.0273-0.17614 0.1372-0.51878 0.32178-0.6913 0.48553-0.061 0.0579-0.1 0.13523-0.14994 0.20284-0.72742 0.72742-1.7562-0.30132-1.0287-1.0287z" style="paint-order:markers fill stroke"/>
   <path d="m-34.677 223.68c-0.41959-0.0662-0.85092-0.11846-1.2664-0.2086-0.18432-0.04-0.35866-0.12115-0.54424-0.15486-0.36203-0.0658-0.73278-0.071-1.0968-0.12495-0.16296-0.027-0.32592-0.0541-0.48889-0.0811-0.99528-0.19209-0.72362-1.5996 0.27167-1.4075 0.16073 0.023 0.32146 0.0459 0.48219 0.0689 0.54897 0.13036 1.0915 0.1924 1.6441 0.29071 0.21982 0.0391 0.58626 0.17023 0.82338 0.18887 0.08385 7e-3 0.16741-0.0162 0.25107-0.0243 1.0273 0.0539 0.95113 1.5067-0.07619 1.4529z" style="paint-order:markers fill stroke"/>
   <path d="m-40.602 229.4c-0.26754-0.32994-0.55312-0.65739-0.80154-1.0024-0.11022-0.15306-0.18548-0.33002-0.30084-0.47924-0.22505-0.2911-0.49707-0.54308-0.73147-0.82671-0.10302-0.12913-0.20604-0.25826-0.30905-0.3874-0.61113-0.80871 0.53256-1.673 1.1437-0.86426 0.10408 0.12462 0.20816 0.24923 0.31224 0.37385 0.32075 0.4642 0.68241 0.8733 1.0273 1.3161 0.1372 0.17614 0.32178 0.51878 0.48553 0.6913 0.0579 0.061 0.13523 0.1 0.20284 0.14994 0.72742 0.72742-0.30132 1.7562-1.0287 1.0287z" style="paint-order:markers fill stroke"/>
   <path d="m-53.173 224.59c0.32994-0.26754 0.65739-0.55312 1.0024-0.80154 0.15306-0.11022 0.33002-0.18548 0.47924-0.30084 0.2911-0.22505 0.54308-0.49707 0.82671-0.73147 0.12913-0.10302 0.25826-0.20604 0.3874-0.30905 0.80871-0.61113 1.673 0.53256 0.86426 1.1437-0.12462 0.10408-0.24923 0.20816-0.37385 0.31224-0.4642 0.32075-0.8733 0.68241-1.3161 1.0273-0.17614 0.1372-0.51878 0.32178-0.6913 0.48553-0.061 0.0579-0.1 0.13523-0.14994 0.20284-0.72742 0.72742-1.7562-0.30132-1.0287-1.0287z" style="paint-order:markers fill stroke"/>
  </g>
  <path d="m-60.982 172.87c0.065-0.0239 0.12663-0.061 0.19508-0.0717 0.39129-0.061 0.82305 0.056 1.2152 0.064 0.29001 6e-3 0.84372-0.0165 1.1283-0.0259 0.78666 0.0784 0.39401 0.0725 1.1779 0.0187 2.7425 0 2.7425 0.77569 0 0.77569-0.7827 0.11301-0.39006 0.1074-1.1779 0.0159-0.19339 6e-3 -0.38677 0.0122-0.58015 0.0184-0.18272 0.0261-0.36367 0.0724-0.54815 0.0783-0.46577 0.0149-0.94084-0.12575-1.4103-0.0608-2.8734 0-2.8734-0.81272 0-0.81272z" fill="#f61c2d" style="paint-order:markers fill stroke"/>
  <path d="m-16.312 154.16c0.065-0.0239 0.12663-0.061 0.19508-0.0717 0.39129-0.061 0.82305 0.056 1.2152 0.064 0.29001 6e-3 0.84372-0.0165 1.1283-0.0259 0.78666 0.0784 0.39401 0.0725 1.1779 0.0187 2.7425 0 2.7425 0.77569 0 0.77569-0.7827 0.11301-0.39006 0.1074-1.1779 0.0159-0.19339 6e-3 -0.38677 0.0122-0.58015 0.0184-0.18272 0.0261-0.36367 0.0724-0.54815 0.0783-0.46577 0.0149-0.94084-0.12575-1.4103-0.0608-2.8734 0-2.8734-0.81272 0-0.81272z" fill="#f61c2d" style="paint-order:markers fill stroke"/>
  <g fill="#ffc296" fill-opacity=".60784">
   <path d="m-33.351 210.63c0.32994-0.26754 0.65739-0.55312 1.0024-0.80154 0.15306-0.11022 0.33002-0.18548 0.47924-0.30084 0.2911-0.22505 0.54308-0.49707 0.82671-0.73147 0.12913-0.10302 0.25826-0.20604 0.3874-0.30905 0.80871-0.61113 1.673 0.53256 0.86426 1.1437-0.12462 0.10408-0.24923 0.20816-0.37385 0.31224-0.4642 0.32075-0.8733 0.68241-1.3161 1.0273-0.17614 0.1372-0.51878 0.32178-0.6913 0.48553-0.061 0.0579-0.1 0.13523-0.14994 0.20284-0.72742 0.72742-1.7562-0.30132-1.0287-1.0287z" style="paint-order:markers fill stroke"/>
   <path d="m-59.036 228.5c0.32994-0.26754 0.65739-0.55312 1.0024-0.80154 0.15306-0.11022 0.33002-0.18548 0.47924-0.30084 0.2911-0.22505 0.54308-0.49707 0.82671-0.73147 0.12913-0.10302 0.25826-0.20604 0.3874-0.30905 0.80871-0.61113 1.673 0.53256 0.86426 1.1437-0.12462 0.10408-0.24923 0.20816-0.37385 0.31224-0.4642 0.32075-0.8733 0.68241-1.3161 1.0273-0.17614 0.1372-0.51878 0.32178-0.6913 0.48553-0.061 0.0579-0.1 0.13523-0.14994 0.20284-0.72742 0.72742-1.7562-0.30132-1.0287-1.0287z" style="paint-order:markers fill stroke"/>
   <path d="m-65.179 232.13c0.32994-0.26754 0.65739-0.55312 1.0024-0.80154 0.15306-0.11022 0.33002-0.18548 0.47924-0.30084 0.2911-0.22505 0.54308-0.49707 0.82671-0.73147 0.12913-0.10302 0.25826-0.20604 0.3874-0.30905 0.80871-0.61113 1.673 0.53256 0.86426 1.1437-0.12462 0.10408-0.24923 0.20816-0.37385 0.31224-0.4642 0.32075-0.8733 0.68241-1.3161 1.0273-0.17614 0.1372-0.51878 0.32178-0.6913 0.48553-0.061 0.0579-0.1 0.13523-0.14994 0.20284-0.72742 0.72742-1.7562-0.30132-1.0287-1.0287z" style="paint-order:markers fill stroke"/>
  </g>
  <g>
   <path d="m-34.489 196.65c0.21985-0.22403 0.43649-0.45134 0.65266-0.67908 0.40674-0.42803 0.78978-0.87855 1.166-1.3347 0.34707-0.41659 0.67367-0.84977 0.98355-1.2959 0.1701-0.25003 0.32938-0.50809 0.46453-0.77982 0.12633-0.27505 0.0487-0.34514 0.59759 0.0619 0.0428 0.0318-9e-3 0.10814-0.0151 0.16205-8e-3 0.0681-0.0169 0.13609-0.0255 0.20414-0.09 0.63696-0.18794 1.2726-0.27429 1.9102-0.10567 0.78388-0.18644 1.5708-0.25698 2.3588-0.0516 0.58587-0.0889 1.1729-0.1144 1.7606-0.0875 2.0166-0.64364 1.9913-0.55611-0.0253v0c0.026-0.59662 0.0637-1.1926 0.11618-1.7874 0.0713-0.79671 0.15305-1.5925 0.25994-2.3851 0.0861-0.63555 0.18358-1.2693 0.2735-1.9043 8e-3 -0.0624 0.0163-0.12489 0.0235-0.18748 5e-3 -0.0443-0.0296-0.12484 0.0131-0.13333 0.68173-0.13531 0.57957-0.0605 0.45397 0.22555-0.14819 0.29613-0.32041 0.57858-0.50673 0.85101-0.31893 0.45897-0.65487 0.90478-1.0119 1.3334-0.38466 0.46622-0.77628 0.92668-1.1921 1.3642-0.21793 0.22957-0.43631 0.4587-0.65789 0.68455-1.3917 1.4274-1.7853 1.0237-0.39364-0.40374z" stroke="#000" stroke-linecap="square" stroke-width=".3" style="paint-order:markers fill stroke"/>
   <path d="m-73.845 222.51c-0.0269-0.2422-0.0407-0.4863-0.0554-0.72994-0.0322-0.3841-0.0403-0.76067 0.0247-1.1394 0.1666-0.58851 0.58973-0.8921 1.0278-1.141 0.5125-0.2683 1.0549-0.37061 1.6088-0.35573 0.56828 0.0396 1.0082 0.28505 1.4293 0.73978 0.37829 0.4682 0.5493 1.0738 0.6648 1.7004 0.1214 0.74748-0.0233 1.3914-0.28346 2.0641-0.30495 0.70291-0.76166 1.2709-1.2296 1.8133-0.49322 0.56032-1.0414 1.039-1.6061 1.4848-0.46807 0.35817-0.96832 0.64609-1.4766 0.90731-0.29535 0.15304-0.60053 0.27259-0.91095 0.37005-0.22702 0.0712-0.17166 0.11105-0.1014-0.63688 8e-5 0 0.23127-0.0276 0.35002-0.0417 0.37652-0.0449 0.754-0.0757 1.1316-0.1036 0.41353-0.03 0.82751-0.0492 1.2416-0.0641 0.32443-0.0114 0.64899-0.0163 0.97355-0.0178 0.21977 0 0.43953 3e-3 0.65928 6e-3 0.14592 3e-3 0.29184 6e-3 0.43775 0.01 0.0652 3e-3 0.0334 0 0.0954 3e-3 1.9386 0.0501 1.927 0.71919-0.0116 0.66905v0c-0.0621-3e-3 -0.0305 0-0.0952-3e-3 -0.14472-4e-3 -0.28944-7e-3 -0.43418-0.01-0.21641-4e-3 -0.43283-7e-3 -0.64926-6e-3 -0.31989 3e-3 -0.63977 7e-3 -0.95953 0.0175-0.40841 0.0147-0.81672 0.0335-1.2246 0.0632-0.37096 0.0273-0.74184 0.0576-1.1117 0.10172-0.10081 0.012-0.35285 0.0495-0.35601 0.0424-0.28084-0.63038-0.33662-0.59708-0.0822-0.67795 0.2845-0.0892 0.56419-0.1983 0.8348-0.33877 0.47887-0.24563 0.95029-0.51612 1.3916-0.85244 0.53643-0.42293 1.0575-0.8768 1.5264-1.4082 0.41971-0.48537 0.83318-0.99053 1.1122-1.6163 0.20551-0.51762 0.33883-1.0508 0.24295-1.6307-0.0878-0.49032-0.20963-0.97324-0.49703-1.3489-0.3031-0.34398-0.65814-0.53921-1.0762-0.56738-0.46958-0.0184-0.92924 0.072-1.3649 0.29465-0.27822 0.15404-0.58175 0.32697-0.72195 0.67959-0.0636 0.31097-0.0306 0.62729-0.0129 0.94375 0.0134 0.22331 0.0263 0.4469 0.0494 0.66908 0.31878 2.3338-0.2222 2.4438-0.54097 0.11004z" stroke="#000" stroke-linecap="square" stroke-width=".27254" style="paint-order:markers fill stroke"/>
   <path d="m28.113 180.36c0.0536 0.02 0.10364 0.0643 0.16063 0.06 0.0904-7e-3 0.1662-0.0799 0.2561-0.0919 0.1154-0.0153 0.23271 0.0155 0.34906 0.0114 0.5242-0.0184 1.0077-0.0309 1.5346 0.01 0.83478 0.0466 0.41457 0.0382 1.2607 0.0242 3.0515 0.15161 3.0086 1.0147-0.0429 0.8631-0.83141-0.0275-0.41909-5e-3 -1.237-0.0678-0.75904-0.0223-1.5232-0.0502-2.2812-0.0158-2.8027 0-2.8027-0.79271 0-0.79271z" fill="#f61c2d" style="paint-order:markers fill stroke"/>
   <path d="m16.676 179.17c0.66087 0.87217 1.4444 1.6353 2.25 2.3742 0.44993 0.54368 0.99094 1.0272 1.5537 1.4532 0.139 0.10523 0.2999 0.17875 0.44124 0.28084 0.56753 0.40993 0.0076 0.1018 0.52181 0.36261 0.02959 0.0138 0.11233 0.0187 0.08878 0.0412-0.10143 0.0973-0.30058-0.10558-0.42045-0.0322-0.30658 0.18775-0.48232 0.51959-0.31325 0.84164-0.10576-0.0351-0.13674-0.073-0.20464-0.18672-1.6493-2.4809-0.47979-3.2583 1.1695-0.77748 0.07147 5e-3 0.05286-0.0217 0.17036 0.16582 0.62303 0.95083 1.0163 1.4714-0.5946 1.2283-1.5861-0.64686-2.3695-1.4575-3.4199-2.3422-0.36968-0.3731-0.7791-0.70608-1.1407-1.087-0.15474-0.16298-0.27841-0.35287-0.41761-0.5293-1.3944-1.086-2.0425-4.8254 0.3157-1.793z" fill="#00887a" style="paint-order:markers fill stroke"/>
  </g>
  <g fill="#ffa669" stroke="#ff9243" stroke-linecap="square">
   <path d="m-99.011 235.3h112.53c19.05 0.27142 18.985 1.6241 0 1.6241h-112.53c-5.4616 0-5.4616-1.6241 0-1.6241z" enable-background="new" stroke-width=".48764" style="paint-order:markers fill stroke"/>
   <path d="m-102.92 232.71v-68.151c-8e-3 -8.071 0.014-16.142-9e-3 -24.213-0.47907-27.23 1.5094-25.121 1.624-4e-3 0.0235 8.0725 2e-3 16.145 9e-3 24.218v68.151c0 5.5755-1.6241 5.5755-1.6241 0z" enable-background="new" stroke-width=".49269" style="paint-order:markers fill stroke"/>
   <path d="m-98.54 122.96c-0.11934-0.22305-0.25935-0.41616-0.39426-0.61501-0.28517-0.41157-0.57165-0.82097-0.86086-1.2255-0.32134-0.44591-0.6312-0.91179-0.93976-1.3795-0.2682-0.41071-0.52596-0.83783-0.78835-1.2576-0.18103-0.288-0.36048-0.58361-0.57708-0.80535-0.13107-0.12877-0.26566-0.15674-0.41466-0.12106-0.2072 0.0691-0.39146 0.23685-0.56919 0.41159-0.24087 0.25176-0.45733 0.55479-0.66799 0.8653-0.24418 0.36509-0.47501 0.75151-0.70284 1.1418-0.22515 0.39133-0.44294 0.79271-0.6543 1.2027-0.19526 0.37537-0.38953 0.75202-0.58251 1.1303-0.168 0.33341-0.33631 0.6665-0.50111 1.0039-0.0963 0.19935-0.0488 0.10058-0.1424 0.29628-1.7563 3.6715-2.4138 2.887-0.65756-0.7845 0.0968-0.20237 0.0476-0.10011 0.14748-0.30678 0.16836-0.34458 0.34021-0.68488 0.51184-1.0254 0.1939-0.38008 0.38907-0.75852 0.58525-1.1357 0.22209-0.43055 0.45082-0.85225 0.68745-1.2631 0.24197-0.41437 0.48728-0.82438 0.74681-1.2116 0.25059-0.3684 0.50907-0.72609 0.79711-1.0208 0.28327-0.27421 0.58012-0.5192 0.91308-0.59789 0.3437-0.0492 0.66681 0.0317 0.96178 0.33322 0.25938 0.27911 0.48898 0.61415 0.70535 0.97282 0.25716 0.41148 0.50983 0.83002 0.77246 1.2329 0.30064 0.45567 0.60246 0.90976 0.91556 1.3442 0.29454 0.41206 0.58639 0.82891 0.87675 1.2483 0.16783 0.24738 0.34115 0.48919 0.48516 0.77294 1.7765 3.6472 1.1233 4.4407-0.6532 0.79352z" enable-background="new" stroke-width=".31883" style="paint-order:markers fill stroke"/>
   <path d="m27.155 240.66c0.22303-0.11934 0.41616-0.25935 0.61501-0.39425 0.41157-0.28518 0.82096-0.57166 1.2255-0.86088 0.4459-0.32132 0.91181-0.63119 1.3795-0.93975 0.41071-0.2682 0.83783-0.52596 1.2577-0.78835 0.28801-0.18102 0.58361-0.36048 0.80536-0.57708 0.12877-0.13108 0.15674-0.26566 0.12106-0.41466-0.0691-0.20719-0.23686-0.39147-0.41159-0.56918-0.25176-0.24089-0.55479-0.45734-0.86531-0.668-0.36508-0.24418-0.75152-0.475-1.1418-0.70283-0.39131-0.22516-0.79271-0.44296-1.2027-0.65432-0.37538-0.19526-0.75202-0.38953-1.1303-0.5825-0.33342-0.168-0.66648-0.33631-1.0039-0.50111-0.19935-0.0963-0.10056-0.0488-0.29628-0.1424-3.6715-1.7563-2.887-2.4138 0.7845-0.65756 0.20238 0.0968 0.10011 0.0476 0.3068 0.14747 0.34457 0.16837 0.68488 0.34023 1.0254 0.51186 0.38006 0.1939 0.75851 0.38906 1.1357 0.58524 0.43053 0.22208 0.85225 0.45081 1.2631 0.68744 0.41437 0.24198 0.82437 0.48729 1.2116 0.74682 0.36839 0.25058 0.72608 0.50907 1.0208 0.79711 0.2742 0.28328 0.51921 0.58012 0.59787 0.91307 0.0492 0.34371-0.0317 0.66683-0.3332 0.96179-0.27913 0.25938-0.61414 0.48898-0.97282 0.70535-0.41148 0.25716-0.83003 0.50982-1.2329 0.77246-0.45567 0.30065-0.90977 0.60245-1.3442 0.91555-0.41207 0.29455-0.82891 0.58638-1.2483 0.87676-0.24738 0.16782-0.48921 0.34113-0.77294 0.48514-3.6472 1.7765-4.4407 1.1233-0.79352-0.65319z" enable-background="new" stroke-width=".31883" style="paint-order:markers fill stroke"/>
  </g>
  <g transform="scale(.93647 1.0678)" style="font-variant-caps:normal;font-variant-east-asian:normal;font-variant-ligatures:normal;font-variant-numeric:normal" aria-label="X">
   <path d="m27.652 235.49q-0.1354 0-0.26233-0.0592-0.11847-0.0508-0.11847-0.13539 0.0085-0.28772 0.79546-1.6163 0.787-1.3286 0.81238-1.4894v-8e-3q-0.0085-0.20309-0.64314-0.8547-0.63468-0.6516-1.2947-1.3286-0.6516-0.68545-0.70238-0.93086 0-8e-3 -0.0085-0.0423 0-0.0339 0-0.0423 0-0.0592 0.07616-0.11847 0.07616-0.0592 0.2031-0.0592 0.17771 0 0.47389 0.23695 0.30464 0.22848 0.93086 0.787 0.05077 0.0508 0.08462 0.0762t0.07616 0.0762q0.05077 0.0423 0.09309 0.0762l1.3117 1.1086 0.32157-0.43158q0.40619-0.55005 0.91393-1.0747 0.5162-0.52466 0.73622-0.52466 0.33003 0 0.33003 0.17771 0 0.16924-0.14386 0.41465-0.1354 0.24541-0.27926 0.40619l-0.14386 0.16079q-0.30464 0.28772-0.66006 0.99009l-0.38927 0.77008 0.33849 0.34695q0.25387 0.25387 0.80392 0.74469 0.55852 0.49082 0.82931 0.79546 0.27926 0.30465 0.27926 0.52467 0 0.15232-0.17771 0.23694-0.16925 0.0762-0.28772 0.0762-0.04231 0-0.08462-8e-3t-0.09309-0.0339q-0.05077-0.0254-0.10155-0.0508-0.04231-0.0339-0.11001-0.0846-0.0677-0.0592-0.12694-0.10154-0.05924-0.0508-0.16078-0.1354-0.09309-0.0931-0.16925-0.16079-0.07616-0.0762-0.21156-0.19463-0.1354-0.12694-0.24541-0.22848l-0.97317-0.88009-0.2031 0.25387q-0.22002 0.3385-0.43158 0.71084-0.2031 0.36388-0.31311 0.55851-0.11001 0.19464-0.17771 0.25387-0.0085 8e-3 -0.16925 0.26234-0.15232 0.25387-0.33003 0.39773-0.17771 0.15232-0.39773 0.15232z" stroke-width=".21156" style="font-variant-caps:normal;font-variant-east-asian:normal;font-variant-ligatures:normal;font-variant-numeric:normal"/>
  </g>
  <g transform="scale(.93647 1.0678)" style="font-variant-caps:normal;font-variant-east-asian:normal;font-variant-ligatures:normal;font-variant-numeric:normal" aria-label="Y">
   <path d="m-112.59 120.98q0-0.27926 0.0677-0.37234 0.0677-0.10155 0.22002-0.10155 0.0846 0 0.27926 0.0931 0.19464 0.0846 0.24541 0.16924 0.0339 0.0592 0.0339 0.14386 0 0.55852-0.54159 1.6332-0.54159 1.0662-0.91393 1.4809-0.12694 0.14386-0.18618 0.21156-0.0508 0.0592-0.13539 0.22002-0.0846 0.16078-0.1354 0.27925-0.0508 0.11848-0.22848 0.5416-0.17771 0.41465-0.36389 0.82931l-0.72776 1.6417q-0.12693 0.2708-0.43158 0.2708-0.16924 0-0.30464-0.10155t-0.1354-0.22849q0-0.48235 1.007-2.4202l0.49082-0.94778-1.4217-1.3709q-1.007-0.98163-1.3201-1.3286-0.3131-0.35542-0.3131-0.55852 0-0.0931 0.0762-0.16924 0.0762-0.0762 0.21156-0.0762 0.16924 0 0.48235 0.26233 0.31311 0.25387 1.5148 1.3794 0.93086 0.80393 1.2101 0.93086 0.0762-8e-3 0.15232-0.0846 0.0762-0.0762 0.18617-0.24541 0.11001-0.17771 0.21156-0.36388t0.28772-0.50774q0.18617-0.33003 0.35542-0.60929 0.12693-0.22002 0.12693-0.60083z" stroke-width=".21156" style="font-variant-caps:normal;font-variant-east-asian:normal;font-variant-ligatures:normal;font-variant-numeric:normal"/>
  </g>
 </g>
</svg>
