<?xml version="1.0" encoding="UTF-8" standalone="no"?>
<!-- Created with Inkscape (http://www.inkscape.org/) -->

<svg
   xmlns:dc="http://purl.org/dc/elements/1.1/"
   xmlns:cc="http://creativecommons.org/ns#"
   xmlns:rdf="http://www.w3.org/1999/02/22-rdf-syntax-ns#"
   xmlns:svg="http://www.w3.org/2000/svg"
   xmlns="http://www.w3.org/2000/svg"
   xmlns:sodipodi="http://sodipodi.sourceforge.net/DTD/sodipodi-0.dtd"
   xmlns:inkscape="http://www.inkscape.org/namespaces/inkscape"
   width="150.588mm"
   height="150.588mm"
   viewBox="0 0 150.588 150.588"
   version="1.1"
   id="svg5565"
   inkscape:version="0.92.3 (2405546, 2018-03-11)"
   sodipodi:docname="lightreaction.svg">
  <defs
     id="defs5559">
    <filter
       inkscape:label="Matte Ridge"
       inkscape:menu="Ridges"
       inkscape:menu-tooltip="Soft pastel ridge"
       style="color-interpolation-filters:sRGB;"
       id="filter8473">
      <feGaussianBlur
         stdDeviation="0.5"
         result="result1"
         id="feGaussianBlur8447" />
      <feBlend
         in="SourceGraphic"
         mode="normal"
         result="result5"
         in2="result1"
         id="feBlend8449" />
      <feGaussianBlur
         stdDeviation="3"
         result="result6"
         in="result5"
         id="feGaussianBlur8451" />
      <feComposite
         operator="xor"
         in="result6"
         in2="result6"
         result="result8"
         id="feComposite8453" />
      <feComposite
         operator="in"
         result="fbSourceGraphic"
         in="result6"
         in2="result8"
         id="feComposite8455" />
      <feColorMatrix
         result="fbSourceGraphicAlpha"
         in="fbSourceGraphic"
         values="0 0 0 -1 0 0 0 0 -1 0 0 0 0 -1 0 0 0 0 1 0 "
         id="feColorMatrix8457" />
      <feGaussianBlur
         result="result0"
         in="fbSourceGraphic"
         stdDeviation="0.5"
         id="feGaussianBlur8459" />
      <feSpecularLighting
         specularExponent="55"
         specularConstant="2"
         surfaceScale="2"
         lighting-color="rgb(255,255,255)"
         result="result1"
         in="result0"
         id="feSpecularLighting8463">
        <fePointLight
           z="20000"
           y="-10000"
           x="-5000"
           id="fePointLight8461" />
      </feSpecularLighting>
      <feComposite
         operator="arithmetic"
         result="result2"
         in="result1"
         in2="fbSourceGraphicAlpha"
         k1="1"
         id="feComposite8465" />
      <feComposite
         k3="1"
         k2="0.5"
         operator="arithmetic"
         result="result4"
         in="fbSourceGraphic"
         in2="result2"
         id="feComposite8467" />
      <feComposite
         operator="over"
         in="result9"
         in2="result4"
         result="result91"
         id="feComposite8469" />
      <feBlend
         mode="screen"
         in2="result91"
         id="feBlend8471" />
    </filter>
    <filter
       inkscape:label="Chrome"
       inkscape:menu-tooltip="Bright chrome effect"
       inkscape:menu="Non-realistic 3D Shaders"
       height="1.5"
       y="-0.25"
       width="1.5"
       x="-0.25"
       style="color-interpolation-filters:sRGB"
       id="filter7173">
      <feGaussianBlur
         stdDeviation="5"
         result="result8"
         in="SourceGraphic"
         id="feGaussianBlur7155" />
      <feComposite
         in2="result8"
         operator="xor"
         id="feComposite7157" />
      <feComposite
         k2="1"
         operator="arithmetic"
         result="result17"
         in2="result8"
         id="feComposite7159"
         k1="0"
         k3="0"
         k4="0" />
      <feOffset
         result="result18"
         in="result17"
         id="feOffset7161" />
      <feDisplacementMap
         in2="result17"
         in="result18"
         xChannelSelector="A"
         yChannelSelector="A"
         scale="100"
         result="result4"
         id="feDisplacementMap7163" />
      <feComposite
         in2="result4"
         result="fbSourceGraphic"
         operator="arithmetic"
         in="result4"
         k1="1"
         k3="1"
         id="feComposite7165"
         k2="0"
         k4="0" />
      <feComposite
         in2="fbSourceGraphic"
         result="result9"
         operator="over"
         id="feComposite7167" />
      <feComposite
         in2="SourceGraphic"
         operator="in"
         result="result15"
         id="feComposite7169" />
      <feComposite
         result="result16"
         in2="SourceGraphic"
         operator="in"
         in="result15"
         id="feComposite7171" />
    </filter>
    <filter
       inkscape:label="Chrome"
       inkscape:menu-tooltip="Bright chrome effect"
       inkscape:menu="Non-realistic 3D Shaders"
       height="1.5"
       y="-0.25"
       width="1.5"
       x="-0.25"
       style="color-interpolation-filters:sRGB"
       id="filter7173-7">
      <feGaussianBlur
         stdDeviation="5"
         result="result8"
         in="SourceGraphic"
         id="feGaussianBlur7155-3" />
      <feComposite
         in2="result8"
         operator="xor"
         id="feComposite7157-6" />
      <feComposite
         k2="1"
         operator="arithmetic"
         result="result17"
         in2="result8"
         id="feComposite7159-1"
         k1="0"
         k3="0"
         k4="0" />
      <feOffset
         result="result18"
         in="result17"
         id="feOffset7161-2" />
      <feDisplacementMap
         in2="result17"
         in="result18"
         xChannelSelector="A"
         yChannelSelector="A"
         scale="100"
         result="result4"
         id="feDisplacementMap7163-9" />
      <feComposite
         in2="result4"
         result="fbSourceGraphic"
         operator="arithmetic"
         in="result4"
         k1="1"
         k3="1"
         id="feComposite7165-3"
         k2="0"
         k4="0" />
      <feComposite
         in2="fbSourceGraphic"
         result="result9"
         operator="over"
         id="feComposite7167-1" />
      <feComposite
         in2="SourceGraphic"
         operator="in"
         result="result15"
         id="feComposite7169-9" />
      <feComposite
         result="result16"
         in2="SourceGraphic"
         operator="in"
         in="result15"
         id="feComposite7171-4" />
    </filter>
    <filter
       inkscape:label="Chrome"
       inkscape:menu-tooltip="Bright chrome effect"
       inkscape:menu="Non-realistic 3D Shaders"
       height="1.5"
       y="-0.25"
       width="1.5"
       x="-0.25"
       style="color-interpolation-filters:sRGB"
       id="filter7173-5">
      <feGaussianBlur
         stdDeviation="5"
         result="result8"
         in="SourceGraphic"
         id="feGaussianBlur7155-0" />
      <feComposite
         in2="result8"
         operator="xor"
         id="feComposite7157-3" />
      <feComposite
         k2="1"
         operator="arithmetic"
         result="result17"
         in2="result8"
         id="feComposite7159-6"
         k1="0"
         k3="0"
         k4="0" />
      <feOffset
         result="result18"
         in="result17"
         id="feOffset7161-1" />
      <feDisplacementMap
         in2="result17"
         in="result18"
         xChannelSelector="A"
         yChannelSelector="A"
         scale="100"
         result="result4"
         id="feDisplacementMap7163-0" />
      <feComposite
         in2="result4"
         result="fbSourceGraphic"
         operator="arithmetic"
         in="result4"
         k1="1"
         k3="1"
         id="feComposite7165-6"
         k2="0"
         k4="0" />
      <feComposite
         in2="fbSourceGraphic"
         result="result9"
         operator="over"
         id="feComposite7167-3" />
      <feComposite
         in2="SourceGraphic"
         operator="in"
         result="result15"
         id="feComposite7169-2" />
      <feComposite
         result="result16"
         in2="SourceGraphic"
         operator="in"
         in="result15"
         id="feComposite7171-0" />
    </filter>
  </defs>
  <sodipodi:namedview
     id="base"
     pagecolor="#ffffff"
     bordercolor="#666666"
     borderopacity="1.0"
     inkscape:pageopacity="0.0"
     inkscape:pageshadow="2"
     inkscape:zoom="0.62162861"
     inkscape:cx="66.663265"
     inkscape:cy="235.21647"
     inkscape:document-units="mm"
     inkscape:current-layer="layer1"
     showgrid="false"
     inkscape:window-width="1360"
     inkscape:window-height="719"
     inkscape:window-x="0"
     inkscape:window-y="25"
     inkscape:window-maximized="1" />
  <metadata
     id="metadata5562">
    <rdf:RDF>
      <cc:Work
         rdf:about="">
        <dc:format>image/svg+xml</dc:format>
        <dc:type
           rdf:resource="http://purl.org/dc/dcmitype/StillImage" />
        <dc:title />
      </cc:Work>
    </rdf:RDF>
  </metadata>
  <g
     inkscape:label="Layer 1"
     inkscape:groupmode="layer"
     id="layer1"
     transform="translate(110.82376,-112.84886)">
    <path
       inkscape:connector-curvature="0"
       d="m -61.729773,137.59549 c -0.0826,-0.18811 -0.1349,-0.39156 -0.18123,-0.59597 -0.0853,-0.35265 -0.10246,-0.71225 -0.0786,-1.07629 0.035,-0.42213 0.17981,-0.77599 0.41963,-1.08036 0.28186,-0.30208 0.64066,-0.41307 1.00281,-0.48944 0.39483,-0.0707 0.77996,0.0107 1.15307,0.16469 0.3412,0.1531 0.61336,0.42551 0.84388,0.75751 0.18989,0.29391 0.29502,0.63774 0.35949,0.99762 0.0464,0.29707 0.0413,0.59915 0.0212,0.89887 -0.0155,0.20523 -0.0471,0.40792 -0.0859,0.60845 -0.0121,0.0368 -0.0147,0.0771 -0.0252,0.11457 -0.004,0.0117 0.009,-0.0239 0.007,-0.0361 -0.007,-0.0574 -0.001,-0.12332 -0.0308,-0.16967 -0.0905,-0.14553 -0.11797,-0.14176 -0.21195,-0.158 0.18887,-0.0572 0.3793,-0.10635 0.57025,-0.15233 0.31224,-0.0732 0.6273,-0.12685 0.9429,-0.17388 0.2824,-0.049 0.56568,-0.0678 0.84987,-0.0373 0.36548,0.0545 0.54262,0.25819 0.68841,0.65404 0.12864,0.49968 0.14103,1.0283 0.13874,1.54736 -0.008,0.60781 -0.12049,1.19818 -0.2892,1.76798 -0.17414,0.54599 -0.45006,1.01989 -0.78162,1.44202 -0.30727,0.37889 -0.69094,0.61988 -1.0976,0.80436 -0.32663,0.13966 -0.66885,0.19581 -1.01349,0.21046 -0.26791,0.005 -0.53435,-0.0325 -0.79916,-0.0769 -0.23912,-0.0301 -0.46612,-0.11152 -0.68368,-0.23196 -0.20956,-0.12068 -0.36807,-0.30662 -0.49212,-0.53939 -0.0816,-0.16851 -0.12136,-0.35512 -0.14552,-0.54602 -0.2765,-2.30991 0.26634,-2.40402 0.54284,-0.0941 v 0 c 0.0108,0.10071 0.0293,0.19995 0.0681,0.29103 0.0624,0.12802 0.14653,0.22364 0.25828,0.29018 0.16739,0.0956 0.34316,0.15391 0.52808,0.17657 0.2336,0.0394 0.46856,0.0739 0.70492,0.0709 0.28531,-0.0104 0.56877,-0.0555 0.83968,-0.16902 0.32961,-0.14679 0.6422,-0.3362 0.89235,-0.64112 0.2813,-0.35289 0.51345,-0.75196 0.66275,-1.21003 0.15008,-0.49863 0.24782,-1.01668 0.25693,-1.54933 0.003,-0.43203 -0.006,-0.87092 -0.0974,-1.29135 -0.0449,-0.15697 -0.0815,-0.23084 -0.23254,-0.24843 -0.24452,-0.0294 -0.48833,-0.005 -0.73135,0.0352 -0.30216,0.0449 -0.6038,0.0962 -0.90277,0.16612 -0.20201,0.0485 -0.40257,0.10448 -0.60346,0.15906 -0.32345,0.0132 -0.43387,-0.22203 -0.34785,-0.55483 0.0329,-0.16899 0.0599,-0.33984 0.0734,-0.51283 0.0165,-0.23599 0.023,-0.47401 -0.0112,-0.70852 -0.0433,-0.25611 -0.11439,-0.50215 -0.24603,-0.71376 -0.16261,-0.24219 -0.35697,-0.44016 -0.60121,-0.55403 -0.28378,-0.12166 -0.57745,-0.18722 -0.87943,-0.1375 -0.24777,0.0503 -0.50172,0.11122 -0.70474,0.30163 -0.15897,0.18198 -0.2384,0.41057 -0.26429,0.67299 -0.0218,0.28751 -0.006,0.56993 0.0615,0.84859 0.0344,0.15467 0.0726,0.30904 0.13329,0.45228 0.92851,2.04877 0.44704,2.36487 -0.48147,0.31606 z"
       id="path3682-2"
       style="opacity:1;fill:#000000;fill-opacity:1;stroke:#000000;stroke-width:0.27067652;stroke-linecap:square;stroke-miterlimit:4;stroke-dasharray:none;stroke-dashoffset:0;stroke-opacity:1;paint-order:markers fill stroke" />
    <path
       inkscape:connector-curvature="0"
       id="path3684-9"
       d="m -98.756065,182.77979 c -0.13711,0 -0.27422,0.58345 -0.27422,1.75036 v 0.9923 c -10e-4,0.52682 0.003,1.05364 -0.003,1.5804 -0.005,0.36972 -0.0148,0.74048 -0.0643,1.10594 -0.12668,0 -0.25332,0 -0.37999,0 -0.002,0.009 -0.004,0.0142 -0.005,0.0224 -0.0102,0.009 -0.0131,0.0285 -0.0122,0.0578 -0.12983,0.63527 -0.24216,0.52624 0.0461,0.61201 0.0552,0.0184 0.11023,0.0364 0.15624,0.0794 0.16225,0.11129 0.33312,0.13267 0.49061,-0.0102 0.0262,-0.0316 0.049,-0.0651 0.0701,-0.0994 0.014,0 0.0278,0 0.0418,0 0.36495,0.004 0.7299,0.008 1.09486,0.012 0.30791,0.004 0.61582,0.006 0.92373,0.009 0.23736,0 0.47467,0.003 0.71204,0.003 -5.3e-4,0.34264 -5e-5,0.68503 0.0144,1.02731 0.01,0.21793 0.0281,0.43522 0.055,0.65104 0.012,0.093 0.0254,0.18562 0.0449,0.27673 0.005,0.0205 0.002,0.011 0.006,0.0294 0.46475,2.26573 0.99713,2.10746 0.53239,-0.15826 -0.005,-0.0252 -0.003,-0.0123 -0.008,-0.0392 -0.0142,-0.0682 -0.0242,-0.13747 -0.0331,-0.20695 -0.0245,-0.19437 -0.0404,-0.39018 -0.0494,-0.58645 -0.0141,-0.33104 -0.0148,-0.6622 -0.0139,-0.99352 0.0808,0 0.16153,0 0.24229,0 0.19548,0 0.39089,0 0.58637,0 0.14424,0 0.28854,0 0.43279,0 0.0773,6e-5 0.0392,0 0.11397,0 1.93906,-0.003 1.93868,-0.66201 -2.5e-4,-0.66008 -0.0748,-3e-5 -0.0368,0 -0.11413,0 -0.14435,0 -0.28878,0 -0.43313,0 -0.19539,0 -0.39081,0 -0.5862,0 -0.0806,-3e-5 -0.16107,0 -0.24162,0 v -0.96215 -0.89842 c 0,-2.33373 -0.54844,-2.33373 -0.54844,0 v 0.89842 0.96193 c -0.23623,0 -0.47246,0 -0.70868,-0.003 -0.30733,-0.003 -0.61474,-0.005 -0.92208,-0.009 -0.31835,-0.004 -0.63663,-0.007 -0.95498,-0.0104 0.0422,-0.36541 0.0566,-0.73434 0.0602,-1.10332 0.006,-0.52955 0.002,-1.05908 0.003,-1.58866 v -0.99212 c 0,-1.16688 -0.13711,-1.75036 -0.27421,-1.75036 z"
       style="opacity:1;fill:#000000;fill-opacity:1;stroke:#000000;stroke-width:0.27067652;stroke-linecap:square;stroke-miterlimit:4;stroke-dasharray:none;stroke-dashoffset:0;stroke-opacity:1;paint-order:markers fill stroke" />
    <path
       inkscape:connector-curvature="0"
       id="path3686-1"
       d="m 25.288977,188.92192 c -0.99396,-0.006 -0.75268,0.46399 0.80694,0.72536 0.18927,0.0282 0.37976,0.0431 0.57016,0.0569 -0.0456,0.28302 -0.0762,0.68418 -0.0762,1.21413 v 0.80381 1.24371 c -0.002,0.34129 -0.0132,0.68303 0.0598,1.01557 0.17004,0.47653 0.49499,0.40359 0.83199,0.24447 0.33772,-0.18805 0.66938,-0.39013 1.00897,-0.57367 0.34696,-0.18882 0.70788,-0.33622 1.07582,-0.45679 0.30698,-0.0976 0.6203,-0.15626 0.93844,-0.15077 0.20894,0.01 0.39693,0.0845 0.54041,0.26486 0.14468,0.21919 0.17854,0.4966 0.20837,0.76362 0.0339,0.39061 0.0179,0.78343 -0.002,1.17435 -0.0105,0.38141 -0.0736,0.75232 -0.18716,1.10887 -0.10644,0.33247 -0.29278,0.59251 -0.52085,0.81848 -0.30008,0.26772 -0.653,0.42887 -1.0068,0.56992 -0.3634,0.13793 -0.74057,0.2092 -1.11925,0.25684 -0.26066,0.0307 -0.52268,0.0347 -0.78405,0.0175 -0.009,0.0292 -0.19103,-0.047 -0.15473,-0.0575 0.0136,0.003 0.0109,0.006 0.0127,-0.0162 -0.22846,-2.25909 -0.77305,-2.18341 -0.54459,0.0757 0.0149,0.11728 0.0338,0.22717 0.0934,0.32702 0.14681,0.20581 0.33373,0.30186 0.56297,0.31349 0.29107,0.0184 0.58304,0.0144 0.87328,-0.0202 0.41887,-0.0534 0.83575,-0.13367 1.23739,-0.28761 0.41944,-0.1686 0.83512,-0.36542 1.1866,-0.69048 0.29603,-0.30146 0.54042,-0.64762 0.6786,-1.08456 0.12941,-0.41668 0.20777,-0.84774 0.21991,-1.29255 0.022,-0.43246 0.0382,-0.86715 -0.002,-1.29903 -0.0485,-0.41149 -0.12378,-0.81966 -0.36845,-1.13787 -0.25819,-0.28325 -0.56064,-0.43884 -0.91857,-0.44798 -0.36992,-0.003 -0.73481,0.0585 -1.09168,0.17467 -0.39574,0.13038 -0.78408,0.28873 -1.15735,0.49209 -0.3329,0.18018 -0.65887,0.3762 -0.98892,0.56328 -0.0632,0.0319 -0.0985,0.0415 -0.12098,0.0488 -0.0344,-0.2326 0.003,-0.48209 -0.0129,-0.7142 v -1.24374 -0.80381 c 0,-0.5161 -0.0289,-0.90887 -0.0726,-1.19079 0.29778,0.0153 0.59569,0.027 0.89366,0.0356 0.41832,0.0117 0.83669,0.0169 1.25511,0.0209 0.28196,0.003 0.5639,0.003 0.84587,0 0.12949,0 0.25904,-0.004 0.38852,-0.006 0.0296,0 0.0592,0 0.0889,-0.003 1.93809,-0.0711 1.92104,-0.71426 -0.017,-0.64324 -0.0278,0 -0.0558,0 -0.0837,0.003 -0.1266,0.004 -0.2532,0.005 -0.37982,0.006 -0.27959,0.003 -0.55912,0.003 -0.83869,0 -0.41524,-0.004 -0.83044,-0.01 -1.24558,-0.0205 -0.39389,-0.0114 -0.78785,-0.0245 -1.18125,-0.0507 -0.20635,-0.0147 -0.41303,-0.0289 -0.61827,-0.0588 v -2.1e-4 c -0.35993,-0.0603 -0.65512,-0.0871 -0.88449,-0.0884 z m 1.8784,4.84104 c 0.002,0.003 0.002,0.003 0.003,0.004 0.0578,0.0844 0.0213,0.0514 0.008,0.0402 -0.004,-0.0144 -0.007,-0.0294 -0.0102,-0.0441 z"
       style="opacity:1;fill:#000000;fill-opacity:1;stroke:#000000;stroke-width:0.26724312;stroke-linecap:square;stroke-miterlimit:4;stroke-dasharray:none;stroke-dashoffset:0;stroke-opacity:1;paint-order:markers fill stroke" />
    <path
       style="opacity:1;fill:#00887a;fill-opacity:1;stroke:#00887a;stroke-width:0.47029516;stroke-linecap:square;stroke-miterlimit:4;stroke-dasharray:none;stroke-dashoffset:0;stroke-opacity:1;paint-order:markers fill stroke"
       id="path8120"
       d="m -81.248436,191.75051 c 0.02714,0.0851 0.0341,0.17931 0.08142,0.25524 0.07604,0.12203 0.20831,0.20388 0.281714,0.32747 0.107698,0.18134 0.16251,0.38903 0.256018,0.57791 0.452527,0.91413 0.958673,1.80951 1.444307,2.7065 0.214075,0.4012 0.42815,0.80239 0.642225,1.20358 0.247841,0.43005 0.506601,0.85413 0.743522,1.29017 0.248618,0.45757 0.460223,0.93435 0.712661,1.38987 0.753254,1.35922 1.584313,2.68678 2.37606,4.02475 0.502972,1.21355 1.270025,2.27655 1.964917,3.38058 0.480153,0.76287 0.893463,1.54639 1.410951,2.28643 0.05859,0.12923 0.599107,1.22288 0.767586,1.21794 0.03544,-7.9e-4 -0.05094,-0.0742 -0.08474,-0.0636 -0.351533,0.10994 -0.683454,0.27381 -1.025179,0.41072 -0.121049,-0.16067 -0.0029,0.0363 -0.0096,-0.23115 -0.0198,-0.78626 -0.223719,0.28942 0.08804,-0.9226 0.403371,-1.56817 0.207558,-0.88726 0.993684,-2.75785 1.464542,-3.51656 3.309258,-6.8548 5.086666,-10.2203 0.857649,-1.62395 1.6548,-3.28003 2.559392,-4.87884 0.985588,-1.74197 2.077662,-3.42282 3.108556,-5.13892 1.068606,-1.77886 2.126608,-3.56395 3.189911,-5.34594 4.203925,-6.33146 8.26747,-12.76307 12.979509,-18.74415 2.390469,-3.03427 3.072687,-3.74133 5.536164,-6.54753 1.767771,-1.70445 2.596665,-2.60226 4.465104,-4.06822 1.036132,-0.81293 2.631084,-2.01711 4.087151,-1.93893 0.328507,0.0177 0.632371,0.1799 0.948557,0.26984 0.167506,0.33774 0.40366,0.64994 0.50252,1.01323 0.358808,1.31854 -0.215789,2.7054 -0.593869,3.93655 -0.743608,2.42139 -0.231133,0.93451 -1.160567,3.42278 -0.597348,2.5796 -1.47702,5.0876 -2.034579,7.67671 -0.294964,1.36971 -0.419462,2.33153 -0.628231,3.70964 -0.196133,2.06982 -0.381546,4.16898 -0.229042,6.24982 0.0542,0.73952 0.170159,1.47365 0.228183,2.21289 0.08677,0.27967 0.18809,0.55532 0.260327,0.83902 0.06028,0.23672 0.07763,0.48275 0.136605,0.71979 0.161237,0.64801 0.491412,1.27234 0.851676,1.83301 0.131426,0.14657 0.493516,0.72693 0.69996,0.77122 -0.248945,-0.10972 -0.390826,-0.12446 -0.626154,0.0784 -0.149434,0.12879 -0.161871,0.28 -0.148573,0.16405 0.241136,-0.49952 0.677486,-0.85847 1.01665,-1.28563 0.588264,-0.74088 1.130948,-1.51628 1.711103,-2.2634 2.121271,-3.05284 0.247013,-0.41093 2.755701,-3.7635 0.594246,-0.79415 1.154637,-1.61313 1.762099,-2.39742 0.6791,-0.87678 1.401876,-1.71958 2.096497,-2.58437 3.667681,-4.56619 0.817883,-1.12445 4.721124,-5.76476 0.903286,-0.9722 1.82674,-1.92642 2.70986,-2.91659 0.896972,-1.00572 1.719012,-2.07597 2.629329,-3.06988 0.903384,-0.98633 1.87079,-1.91333 2.8087438,-2.86755 0.908361,-0.9241 1.7960993,-1.86876 2.73019,-2.76739 1.3360901,-1.28538 3.8666329,-3.48568 5.2888713,-4.73683 2.09350145,-1.68967 2.4015629,-1.96568 4.4602002,-3.52871 0.5883872,-0.44673 1.1607481,-0.91687 1.7791198,-1.32199 0.4546981,-0.29791 2.2702537,-1.26417 2.8761633,-1.50774 0.3574779,-0.1437 0.7377301,-0.22405 1.1065951,-0.33607 0.3138599,-0.0581 0.6223,-0.17709 0.9415835,-0.17416 0.719809,0.006 1.66383,0.45774 2.080939,1.04424 0.313193,0.44038 0.320697,0.77192 0.413778,1.27453 0.07176,0.1857 0.176763,0.36198 0.215303,0.55711 0.03548,0.17965 -0.0087,0.36648 0.0032,0.54916 0.03779,0.58022 0.159935,1.15195 0.255319,1.72427 0.08773,0.51424 0.251624,1.01293 0.343568,1.5261 0.07583,0.42322 0.116729,0.85189 0.182589,1.27673 0.326873,2.10865 0.635494,4.21854 0.944044,6.33013 0.190967,0.93569 0.398281,1.86824 0.572898,2.80705 0.284812,1.53127 0.779662,4.79835 1.089395,6.29705 0.644701,3.11948 1.504214,6.1935 2.419587,9.24309 1.061746,3.41699 0.46864,1.65215 1.597761,4.76998 0.75531,2.08564 0.406449,1.35735 1.307346,3.11226 0.531515,1.03537 0.290316,0.68346 0.879572,1.37965 0.402269,0.18907 -0.175784,-0.0872 -0.311391,-0.10375 -0.09398,-0.0115 -0.200735,0.14294 -0.271979,0.0812 -0.07606,-0.0659 0.0689,-0.66662 0.06464,-0.85952 -0.0048,-0.21745 -0.06269,-0.43055 -0.09403,-0.64583 -0.173604,-0.91751 -0.09353,-0.45943 -0.240515,-1.3742 -0.725049,-4.76332 0.636349,-4.96627 1.361399,-0.20295 v 0 c 0.187646,0.95781 0.123449,0.4724 0.190598,1.45648 0.127933,0.62562 0.2926,1.48779 -6.39e-4,2.1066 -0.452723,0.95559 -1.069873,1.06547 -1.821316,0.36568 -0.64568,-0.96034 -1.14439,-1.99943 -1.626116,-3.05028 -0.273113,-0.59579 -0.56151,-1.18658 -0.786343,-1.8018 -0.584879,-1.60045 -0.902054,-3.28914 -1.538358,-4.87343 -0.287239,-0.97622 -0.592497,-1.94743 -0.861721,-2.92866 -1.405144,-5.12133 -2.396572,-10.35117 -3.213934,-15.59211 -0.543784,-3.42289 -0.253891,-1.4632 -0.67724,-4.60534 -0.07535,-0.55927 -0.117719,-1.12406 -0.229354,-1.67734 -0.08315,-0.41212 -0.255293,-0.8024 -0.353468,-1.21126 -0.12567,-0.52339 -0.146869,-1.06775 -0.290116,-1.58814 -0.150144,-0.90103 -0.140023,-1.80872 -0.323495,-2.70386 -0.288406,-1.07107 -0.621007,-1.36605 -1.8112241,-1.21435 -0.3084723,0.0933 -0.6249211,0.16379 -0.925412,0.2798 -3.3059317,1.27628 -6.0501193,4.01349 -8.79440505,6.13702 -1.15354575,1.02441 -4.15528735,3.67591 -5.22636555,4.68754 -3.8312525,3.61863 -7.3702533,7.53507 -10.7883083,11.53352 -0.797359,0.98823 -1.59472,1.97646 -2.39208,2.96469 -0.780168,0.91013 -1.582295,1.80228 -2.340506,2.73041 -2.307304,2.8244 -4.395718,5.82098 -6.606074,8.7184 -2.964405,3.86752 0.586554,-0.74819 -1.767215,2.26813 -0.159807,0.20478 -0.313081,0.41449 -0.469624,0.62173 -0.110679,0.10856 -0.230727,0.20851 -0.33204,0.32568 -0.03776,0.0437 -0.03303,0.12058 -0.08136,0.15245 -0.04467,0.0294 0.04584,-0.0961 0.06875,-0.14413 -0.09295,0.54805 -0.836667,0.68338 -1.218463,0.36311 -0.05702,-0.0343 -0.461422,-0.29853 -0.47088,-0.30792 -0.07267,-0.0722 -0.09828,-0.1799 -0.159824,-0.2616 -0.581154,-0.77133 0.120053,0.30113 -0.442176,-0.59185 -0.82435,-1.12527 -1.08729,-2.55323 -1.407732,-3.87939 -0.07254,-0.66982 -0.19122,-1.69522 -0.22841,-2.3516 -0.122667,-2.16493 -0.02445,-4.33383 0.225277,-6.48671 0.0907,-0.62739 0.165107,-1.25731 0.272101,-1.88219 0.276357,-1.61399 0.467115,-2.2879 0.849954,-3.88667 0.157864,-0.65926 0.292171,-1.32446 0.472937,-1.97793 0.180092,-0.65105 0.412199,-1.28695 0.608978,-1.93324 0.192004,-0.63061 0.371545,-1.26488 0.557319,-1.89732 0.102195,-0.29944 1.025869,-2.9889 1.136221,-3.37528 0.130412,-0.4566 0.219524,-0.92381 0.322643,-1.38719 0.139947,-0.62888 0.33518,-1.33558 0.352917,-1.9871 -0.03458,-0.0865 -0.01216,-0.23855 -0.103732,-0.25935 -0.48851,-0.11096 -1.588802,0.46628 -1.82046,0.60272 -2.243905,1.32159 -4.025225,3.28491 -5.861206,5.07881 -1.778055,2.02817 -3.843325,4.32712 -5.480503,6.44807 -1.030411,1.3349 -1.974701,2.7328 -2.967676,4.0952 -3.457878,4.74433 -6.950435,9.47256 -9.922044,14.54053 -5.060094,8.2437 -1.472194,2.26796 -6.195379,10.47043 -0.911395,1.58276 -1.882796,3.13205 -2.760119,4.73356 -1.810257,3.30454 -3.329151,6.75203 -4.89339,10.17322 -1.087762,2.3541 -0.472252,0.77486 -0.966139,2.4777 -0.06828,0.23542 -0.153972,0.29891 -0.139617,0.5241 0.0048,0.0754 0.02975,0.14803 0.04462,0.22204 0.0031,0.078 0.006,0.15593 0.0091,0.2339 -0.345003,0.21214 -0.654245,0.49648 -1.035012,0.63643 -0.0918,0.0337 -0.167275,-0.10282 -0.239883,-0.16786 -0.407792,-0.36523 -0.57075,-0.95303 -0.886808,-1.38123 -0.130106,-0.21336 -0.251583,-0.43212 -0.390315,-0.64009 -0.166079,-0.24896 -0.371596,-0.4721 -0.523495,-0.72978 -0.178469,-0.30275 -0.29852,-0.63606 -0.464251,-0.94582 -0.621339,-1.16131 -1.429983,-2.20147 -2.038505,-3.37039 -1.207574,-2.25977 -0.195725,-0.41847 -1.523877,-2.68819 -1.017175,-1.73828 -1.924233,-3.53635 -2.935963,-5.27796 -1.178962,-1.90185 -0.183246,-0.16908 -1.029162,-1.98114 -1.200885,-2.57244 0.288944,0.75011 -0.739625,-1.25943 -0.740152,-1.44606 0.255063,0.22906 -0.286935,-0.66326 -2.133212,-4.22215 -0.926485,-4.81924 1.206726,-0.5971 z"
       inkscape:connector-curvature="0" />
    <path
       style="opacity:0.82599996;fill:#51df3b;fill-opacity:1;stroke:none;stroke-width:0.41211057;stroke-linecap:square;stroke-miterlimit:4;stroke-dasharray:none;stroke-dashoffset:0;stroke-opacity:0.82745098;paint-order:markers fill stroke;enable-background:new"
       d="m -39.42753,200.4037 c 0.0889,1.39396 -0.04384,2.85317 0.998327,4.1663 0.798718,1.12294 3.232165,1.42887 5.183932,1.78411 1.555685,0.21224 3.325449,0.26445 4.815289,-0.0909 2.000819,-0.63058 2.719191,-1.91489 3.236777,-3.02779 1.225781,-3.29816 0.486254,-6.67145 0.289728,-9.9993 -0.137328,-2.11032 0.123017,-4.3125 -1.470482,-6.30403 -0.723323,-0.83963 -2.386058,-1.5205 -4.23291,-1.35673 -4.803295,0.48952 -4.41622,0.30791 -6.05377,2.694 -2.520758,3.89331 -2.749086,8.06531 -2.766891,12.13441 z m 1.671843,-5.2e-4 c 0.02267,-4.00241 0.220473,-8.09899 2.726194,-11.92507 0.880553,-0.56069 0.438635,-1.87524 2.128476,-1.85546 1.287603,-0.0486 2.735368,-0.39337 3.939834,-0.0223 1.72531,0.75777 1.788401,2.03476 2.13867,3.11074 0.295694,1.82699 0.152444,3.665 0.413055,5.49405 0.19216,2.75519 0.627241,5.56831 -0.61373,8.27811 -0.462922,0.74487 -0.923537,1.65701 -2.347475,2.05698 -1.653342,0.25772 -3.41861,0.038 -4.96908,-0.30324 -1.602269,-0.19431 -2.842135,-0.84589 -2.996992,-1.71913 -0.365732,-1.02556 -0.392589,-2.07363 -0.418952,-3.11336 z"
       id="path5914-1-7"
       inkscape:connector-curvature="0"
       sodipodi:nodetypes="ccccccccccccccccccccccc" />
    <path
       style="opacity:0.82599996;fill:#33d917;fill-opacity:1;stroke:#33d917;stroke-width:0.67907143;stroke-linecap:square;stroke-miterlimit:4;stroke-dasharray:none;stroke-dashoffset:0;stroke-opacity:1;paint-order:markers fill stroke;enable-background:new"
       d="m -26.421833,200.65565 c -0.357037,3.0871 -1.455069,4.45039 -3.750891,4.65693 -1.746716,0.15715 -5.110241,-0.38918 -6.200703,-1.00716 -0.830647,-0.47075 -1.242208,-2.03414 -1.241437,-4.71586 0.0015,-4.64244 1.110459,-8.84272 3.080854,-11.66732 0.883934,-1.26715 0.899749,-1.27381 3.231494,-1.36126 2.624657,-0.0984 3.608437,0.39036 4.138214,2.05608 0.414791,1.30419 0.960542,10.15307 0.742469,12.03859 z"
       id="path6135-2-0"
       inkscape:connector-curvature="0" />
    <path
       style="opacity:0.82599996;fill:#9af28c;fill-opacity:1;stroke:#33d917;stroke-width:0.67907143;stroke-linecap:square;stroke-miterlimit:4;stroke-dasharray:none;stroke-dashoffset:0;stroke-opacity:1;paint-order:markers fill stroke;enable-background:new"
       d="m -26.906965,201.5856 c -0.250753,1.63712 -0.968926,2.96274 -1.824235,3.3672 -0.92235,0.43619 -4.117592,0.41292 -5.913432,-0.0432 -2.130511,-0.54093 -2.410825,-1.10832 -2.410825,-4.87967 0,-4.85874 1.122961,-9.02651 3.051237,-11.32436 0.656579,-0.78242 1.091264,-0.96974 2.511474,-1.08223 1.142981,-0.0905 2.05246,0.038 2.718919,0.38444 1.227815,0.63809 1.495482,1.65491 1.720471,6.53574 0.0864,1.87432 0.19772,3.94461 0.247369,4.60062 0.04964,0.65602 0.0043,1.75461 -0.100978,2.44133 z"
       id="path6139-9-9"
       inkscape:connector-curvature="0" />
    <path
       style="opacity:1;fill:none;fill-opacity:0.82745098;stroke:#fb424e;stroke-width:0.588;stroke-linecap:square;stroke-miterlimit:4;stroke-dasharray:0.588, 3.528;stroke-dashoffset:0;stroke-opacity:0.96862745;paint-order:markers fill stroke"
       id="path8209"
       d="m -91.268582,180.28482 c 0.03594,-0.52952 0.131335,-1.96589 0.166117,-2.25455 0.228253,-1.89431 0.553472,-3.7757 0.843268,-5.66158 1.59037,-10.34946 -0.405896,2.90246 1.28871,-8.40853 1.230104,-7.78175 2.618092,-15.5507 4.485712,-23.20822 0.318969,-1.30781 0.674158,-2.60653 1.011236,-3.9098 1.181115,-3.38899 1.00513,-3.24215 2.528275,-6.31476 0.946972,-1.9103 1.313903,-2.59998 2.61452,-4.19328 0.392734,-0.48111 0.79161,-0.96504 1.261502,-1.37113 0.394357,-0.34081 0.874043,-0.5681 1.311066,-0.85215 1.34158,-0.57367 1.030127,-0.5764 2.442895,-0.67411 0.372034,-0.0257 0.748162,-0.0565 1.118673,-0.0142 0.962571,0.1099 1.861975,0.60335 2.714483,1.02287 1.431274,0.77205 0.07227,-0.0199 1.312593,0.86954 0.180931,0.12974 0.391533,0.21547 0.568683,0.35032 0.1461,0.11123 0.260355,0.25914 0.395356,0.3836 0.237688,0.21913 0.363173,0.3125 0.604916,0.50427 0.124677,0.1579 0.263162,0.30056 0.385867,0.45969 2.695366,3.94627 1.579196,4.70863 -1.116173,0.76237 v 0 c -0.08911,0.19387 -0.003,-0.10857 -0.189348,-0.22052 -0.494293,-0.20553 -0.550801,-0.41072 -0.967895,-0.74916 -0.473151,-0.38395 -0.499491,-0.36052 -1.027889,-0.71441 -0.20189,-0.13521 -0.399914,-0.27612 -0.599871,-0.41417 -0.479711,-0.28515 -0.829196,-0.53407 -1.375974,-0.68958 -0.640493,-0.18216 -1.882581,-0.30786 -2.521146,-0.13181 -0.33094,0.0912 -0.620945,0.29294 -0.931418,0.43941 -0.35657,0.23827 -0.741779,0.43844 -1.069708,0.71481 -0.908467,0.76561 -1.77353,1.8552 -2.415463,2.82918 -1.698179,2.57658 -2.760674,5.45609 -3.617125,8.406 -0.368187,1.27365 -0.769144,2.53827 -1.104561,3.82095 -0.450622,1.72321 -1.661826,7.12506 -2.008681,8.78406 -0.33067,1.5816 -0.676697,3.16121 -0.93881,4.7556 -0.264936,1.61157 -0.377637,3.24569 -0.641536,4.85743 -0.258211,1.57698 -0.616016,3.13604 -0.924025,4.70405 -0.179166,1.48875 -0.315006,2.98335 -0.537498,4.46624 -0.197382,1.31552 -0.510981,2.6115 -0.721525,3.92498 -0.411085,2.56457 -0.650287,5.15703 -0.970626,7.7324 -0.02054,4.85994 -1.395135,4.85414 -1.374601,-0.006 z"
       inkscape:connector-curvature="0" />
    <path
       style="opacity:1;fill:none;fill-opacity:0.82745098;stroke:#fb424e;stroke-width:0.588;stroke-linecap:square;stroke-miterlimit:4;stroke-dasharray:0.588, 3.528;stroke-dashoffset:0;stroke-opacity:0.96862745;paint-order:markers fill stroke"
       id="path8211"
       d="m -62.690575,126.99339 c 0.08785,0.64608 0.01413,1.29597 0.02011,1.94529 -0.12155,0.71234 0.182483,1.43994 -0.05186,2.12941 0.201912,0.75938 -0.02529,-0.29566 -0.04577,0.36304 -0.0028,0.0896 0.256646,0.18739 0.0709,0.2351 -0.387355,0.17683 -0.77471,0.35367 -1.162063,0.5305 -5.29e-4,0.01 0.0073,0.0344 -0.0013,0.0296 -0.04114,-0.0236 -0.06297,-0.0782 -0.108244,-0.0922 -0.233502,-0.0723 -0.66852,-0.0576 -0.909838,-0.0594 -0.125865,-0.0252 -0.249595,-0.066 -0.377598,-0.0757 -0.09522,-0.007 -0.676529,0.0405 -0.773742,0.0386 -0.327221,-0.006 -0.647877,-0.0855 -0.975243,-0.10133 -0.157031,-0.0148 -0.303943,0.11469 -0.461151,0.10396 -0.06461,-0.004 -0.115001,-0.0748 -0.179752,-0.0737 -0.05506,9e-4 -0.09124,0.0675 -0.145074,0.079 -0.09059,0.0195 -0.185288,-0.0152 -0.277812,-0.0101 -0.195959,0.043 -0.41115,0.1154 -0.613376,0.077 -0.05428,-0.0103 -0.103828,-0.0513 -0.158925,-0.0471 -0.05346,0.004 -0.09654,0.0466 -0.144809,0.07 -0.04424,-0.006 -0.08848,-0.0121 -0.132717,-0.0182 -5.134695,0.0728 -5.155274,-1.37956 -0.02059,-1.45231 v 0 c 0.03954,0.006 0.07908,0.0121 0.118615,0.0181 0.279903,0.10772 0.559091,-0.1296 0.828419,0.0115 0.179191,0.0163 0.285707,-0.0693 0.460023,-0.0784 0.06815,-0.004 0.135739,0.0318 0.203422,0.0231 0.907291,-0.11686 -0.487148,-0.0698 0.508992,-0.0835 0.571804,0.16019 0.04923,0.0614 0.660091,0.0308 0.116975,-0.006 0.68399,0.0478 0.791125,0.0473 0.139777,-6.6e-4 0.278495,-0.0353 0.4182,-0.0308 0.139825,0.004 0.277149,0.0384 0.415724,0.0576 0.828874,0.041 -0.01288,-0.0323 0.75837,0.1264 0.114509,0.0236 0.235297,0.01 0.348557,0.0389 0.100288,0.0257 0.187293,0.0892 0.285073,0.1232 0.646022,0.22454 0.622011,-0.10571 -0.742511,0.71712 0.01212,-0.005 0.0349,-0.002 0.03633,-0.0147 0.0042,-0.0385 -0.04731,-0.0674 -0.04728,-0.10612 1.53e-4,-0.18737 0.129942,-0.2897 -0.01072,-0.47734 0.0078,-0.29837 0.113025,-0.60107 0.09707,-0.8977 -0.0071,-0.13151 -0.06983,-0.25619 -0.07585,-0.38776 -0.0063,-0.13763 0.02617,-0.2743 0.03927,-0.41145 -0.008,-0.14417 -0.01595,-0.28834 -0.02394,-0.4325 0.02402,-0.65054 -0.02291,-1.30434 0.056,-1.9453 0,-4.68036 1.323806,-4.68036 1.323806,0 z"
       inkscape:connector-curvature="0" />
    <path
       style="opacity:1;fill:none;fill-opacity:0.82745098;stroke:#fb424e;stroke-width:0.588;stroke-linecap:square;stroke-miterlimit:4;stroke-dasharray:0.588, 3.528;stroke-dashoffset:0;stroke-opacity:0.96862745;paint-order:markers fill stroke"
       id="path8213"
       d="m -91.165591,198.48001 c 0.043,1.11388 -0.02222,2.2216 0.04775,3.33604 0.01753,0.95849 -0.138169,1.91646 -0.15257,2.87226 -0.0051,0.33738 0.05708,0.67407 0.0447,1.01125 -0.02561,0.69815 -0.158607,1.38822 -0.234547,2.08271 -0.312775,3.10533 0.118965,-0.97558 -0.277367,2.13343 -0.04568,0.3583 -0.05793,0.72034 -0.103541,1.07864 -0.137244,1.07819 -0.354566,2.13713 -0.477541,3.21825 -0.150821,1.59818 -0.299208,3.19609 -0.499593,4.78889 -0.05942,0.47234 -0.143087,0.94212 -0.181068,1.41667 -0.04126,0.51552 -0.03761,1.03366 -0.05641,1.55049 -0.04625,0.5556 -0.113635,1.10984 -0.138754,1.6668 -0.02643,0.58596 -0.0068,1.17312 -0.01578,1.75961 -0.111115,7.25134 0.01617,-3.71225 -0.02435,3.69716 -0.03283,6.00178 -0.05284,-2.18866 -0.02737,3.83835 -0.13894,3.4023 -0.06292,6.82487 0.256598,10.21639 0.233041,1.12078 0.369728,2.33839 0.884961,3.38182 0.40617,0.82256 1.082757,1.52359 1.72596,2.15895 0.908069,0.65759 2.091145,1.17657 3.243675,1.1183 0.217033,-0.011 0.427693,-0.0773 0.64154,-0.11593 0.694203,0.0175 1.333777,-0.23024 1.993691,-0.39013 0.234253,-0.0567 0.48031,-0.063 0.71045,-0.1346 0.882036,-0.38932 0.432334,-0.22523 1.348478,-0.49397 0.09678,-0.0305 1.183603,-0.37711 1.302261,-0.39656 0.207264,-0.034 0.424582,0.0244 0.629753,-0.0205 0.186716,-0.0409 0.337074,-0.19385 0.524348,-0.23207 0.647759,0.0282 0.340366,0.0575 0.923841,-0.0684 0.448947,-0.1135 0.232823,-0.11249 0.64771,-0.0295 4.785014,-0.16916 4.832861,1.18425 0.04785,1.35341 v 0 c -0.309438,-0.0136 -0.140364,-0.0132 -0.507167,0.008 -0.269875,0.0554 -0.535482,0.1324 -0.807426,0.1765 -0.173455,0.0281 -0.351232,0.0246 -0.524256,0.0553 -0.636982,0.11293 -0.532011,0.16131 -1.174795,0.33308 -0.219054,0.0585 -0.443055,0.0967 -0.664583,0.14502 -1.40362,0.53675 -2.888475,0.87008 -4.36395,1.14086 -0.267941,0.0207 -0.535121,0.0665 -0.803823,0.0621 -0.722732,-0.0118 -1.845371,-0.18886 -2.495697,-0.50277 -0.574501,-0.27732 -1.007856,-0.80138 -1.615724,-1.02569 -0.462253,-0.46901 -1.076792,-1.05204 -1.448463,-1.59839 -0.957175,-1.40703 -1.38631,-3.13709 -1.59621,-4.79742 -0.326125,-2.56468 -0.102574,-0.38072 -0.216615,-3.07481 -0.02393,-0.5654 -0.09973,-1.12832 -0.110556,-1.69413 -0.01143,-0.59716 0.05079,-1.19405 0.04385,-1.79128 -0.0073,-0.62528 -0.07998,-1.24869 -0.08642,-1.87398 -0.0066,-0.63851 0.0316,-1.2767 0.04741,-1.91506 0.203523,-4.99377 -0.0053,1.12016 0.03669,-3.85984 0.01046,-1.24109 0.151971,-2.47891 0.158824,-3.72003 0.01911,-3.46109 -0.218721,-0.12445 0.0922,-3.46253 0.177169,-2.0578 0.09523,-1.02802 0.240064,-3.00379 0.06227,-0.84938 0.08338,-1.7027 0.184866,-2.54829 0.04679,-0.38988 0.145326,-0.77212 0.198907,-1.16112 0.05176,-0.3758 0.07796,-0.75467 0.11694,-1.13201 0.03159,-0.37133 0.04788,-0.74429 0.09479,-1.11401 0.399361,-3.14772 -0.04317,1.00844 0.38436,-2.11607 0.04802,-0.35099 0.03908,-0.70816 0.08608,-1.05928 0.280265,-2.0937 0.166817,-0.006 0.225822,-2.099 0.160394,-1.94044 0.449276,-3.87941 0.308329,-5.83275 0.02491,-0.53791 0.0886,-1.07548 0.07391,-1.61376 -0.0059,-0.2147 -0.06936,-0.42546 -0.07272,-0.64021 -0.0055,-0.35291 0.07253,-0.72848 0.08661,-1.08207 0,-4.68136 1.324088,-4.68136 1.324088,0 z"
       inkscape:connector-curvature="0" />
    <path
       style="opacity:1;fill:none;fill-opacity:0.82745098;stroke:#fb424e;stroke-width:0.588;stroke-linecap:square;stroke-miterlimit:4;stroke-dasharray:0.588, 3.528;stroke-dashoffset:0;stroke-opacity:0.96862745;paint-order:markers fill stroke"
       id="path8211-0"
       d="m -74.062545,244.49047 c 0.545707,0.35686 0.988358,0.83839 1.482857,1.25925 0.45855,0.55851 1.207441,0.80549 1.574793,1.43426 0.705999,0.34495 -0.239949,-0.17458 0.244276,0.27244 0.06573,0.061 0.309716,-0.0711 0.22407,0.10046 -0.12017,0.40849 -0.240338,0.817 -0.360507,1.2255 0.0072,0.007 0.03057,0.0172 0.02171,0.0201 -0.04476,0.0156 -0.100355,-0.004 -0.14057,0.0214 -0.207598,0.12904 -0.481489,0.46734 -0.640946,0.64848 -0.101501,0.0786 -0.213385,0.14533 -0.304571,0.23568 -0.06766,0.0673 -0.41262,0.53766 -0.477742,0.60986 -0.218906,0.24329 -0.489045,0.43347 -0.71547,0.67042 -0.114057,0.10894 -0.112478,0.30478 -0.223572,0.41651 -0.04534,0.0462 -0.131859,0.0379 -0.173448,0.0875 -0.03542,0.0422 -0.0088,0.11313 -0.03536,0.16136 -0.04462,0.0812 -0.132874,0.13003 -0.189634,0.20327 -0.09589,0.17622 -0.182173,0.38623 -0.343672,0.51386 -0.04336,0.0343 -0.106781,0.0448 -0.139699,0.0892 -0.03203,0.043 -0.02801,0.10344 -0.04198,0.15527 -0.03349,0.0295 -0.06712,0.0589 -0.1007,0.0883 -3.308914,3.92701 -4.419672,2.99106 -1.110733,-0.9359 v 0 c 0.03041,-0.0259 0.06096,-0.0518 0.09139,-0.0778 0.264756,-0.1409 0.268365,-0.50731 0.551408,-0.61834 0.129715,-0.12471 0.134822,-0.26126 0.24215,-0.39892 0.04159,-0.0541 0.112953,-0.0817 0.15072,-0.13855 0.506108,-0.76203 -0.371884,0.32231 0.270372,-0.43926 0.495638,-0.32706 0.07862,0.003 0.455718,-0.47852 0.0721,-0.0923 0.484219,-0.48545 0.554032,-0.56672 0.09107,-0.10603 0.155779,-0.23353 0.250708,-0.33614 0.09462,-0.10301 0.210583,-0.18423 0.31587,-0.27634 0.574005,-0.59937 -0.03285,-0.0114 0.592332,-0.49015 0.09285,-0.0711 0.161708,-0.17122 0.257743,-0.23786 0.08512,-0.0589 0.190092,-0.0831 0.279839,-0.13466 0.592873,-0.34097 0.327635,-0.53919 0.05535,1.03079 0.0041,-0.0124 0.02135,-0.0277 0.01267,-0.0371 -0.02647,-0.0282 -0.08191,-0.008 -0.111163,-0.0338 -0.141462,-0.12286 -0.133743,-0.28796 -0.367645,-0.30463 -0.220181,-0.20152 -0.380073,-0.47917 -0.61461,-0.66148 -0.103943,-0.0809 -0.239283,-0.1151 -0.342682,-0.19669 -0.107912,-0.0856 -0.190072,-0.1995 -0.285108,-0.29925 -0.114164,-0.0884 -0.228261,-0.17689 -0.342417,-0.26529 -0.475767,-0.44432 -1.000447,-0.83721 -1.433009,-1.31674 -3.536067,-3.06627 -2.668793,-4.06642 0.867274,-1.00015 z"
       inkscape:connector-curvature="0" />
    <path
       style="opacity:1;fill:#f61c2d;fill-opacity:1;stroke:none;stroke-width:0.588;stroke-linecap:square;stroke-miterlimit:4;stroke-dasharray:0.58799999, 3.52799996;stroke-dashoffset:0;stroke-opacity:0.96862745;paint-order:markers fill stroke"
       id="path8234"
       d="m -26.02089,243.64144 c -0.01728,0.0768 -0.04974,0.15179 -0.05185,0.23052 -0.0065,0.24391 0.09138,0.53877 0.11601,0.77241 0.05988,0.56799 0.03992,1.15684 0.03239,1.72652 0.03086,0.20826 0.06172,0.41653 0.09258,0.6248 0.153887,2.97623 -0.687919,3.01975 -0.841806,0.0435 v 0 c -0.0038,-0.20802 -0.0076,-0.41603 -0.01135,-0.62404 -0.03322,-0.20214 -0.08026,-0.40249 -0.09965,-0.60642 -0.06009,-0.63218 0.02588,-0.48961 -0.0122,-1.09439 -0.0158,-0.25094 -0.100626,-0.49599 -0.101687,-0.74743 -2.65e-4,-0.0699 0.02635,-0.13719 0.03953,-0.20579 -0.423262,-2.96283 0.414753,-3.08254 0.838015,-0.11971 z"
       inkscape:connector-curvature="0" />
    <path
       style="opacity:1;fill:#f61c2d;fill-opacity:1;stroke:none;stroke-width:0.57315493;stroke-linecap:square;stroke-miterlimit:4;stroke-dasharray:0.57315489, 3.43892935;stroke-dashoffset:0;stroke-opacity:0.96862745;paint-order:markers fill stroke"
       id="path8236"
       d="m -28.767346,245.43621 c 0.284907,0.004 0.563956,-0.0687 0.850073,-0.0489 0.161237,0.0112 0.318219,0.0658 0.479608,0.0742 0.363468,0.019 0.727364,-0.0276 1.09112,-0.039 0.542658,-0.0992 1.099716,0.0894 1.639955,0.0491 0.164363,-0.0123 0.318426,-0.10418 0.483103,-0.11024 1.854873,-0.0683 -0.923881,0.25751 0.868075,0.0196 2.865321,0 2.865321,0.85296 0,0.85296 v 0 c -0.97368,0.1069 0.131611,0.0128 -0.868075,0.0108 -0.335221,-5.3e-4 -0.668525,0.095 -1.003173,0.0744 -1.339852,-0.0825 0.251747,-0.18595 -1.119885,-0.0495 -0.806863,-0.0651 -1.617083,0.0781 -2.420801,-0.0224 -2.72474,0 -2.72474,-0.81111 0,-0.81111 z"
       inkscape:connector-curvature="0" />
    <path
       style="opacity:1;fill:#f61c2d;fill-opacity:1;stroke:none;stroke-width:0.588;stroke-linecap:square;stroke-miterlimit:4;stroke-dasharray:0.58799999, 3.52799996;stroke-dashoffset:0;stroke-opacity:0.96862745;paint-order:markers fill stroke"
       id="path8238"
       d="m -7.4045128,243.12359 c -0.045731,0.23165 0.034618,0.43915 0.04854,0.66598 0.00823,0.13425 -0.038584,0.26883 -0.025612,0.40271 0.014711,0.1517 0.071795,0.29625 0.1076934,0.44437 0.00606,0.16702 0.012091,0.33404 0.01815,0.50106 0.4275799,1.42965 -0.1088443,-0.45751 0.2124789,0.98999 0.3162909,1.42483 0.014049,-0.45022 0.2209112,0.9525 0.6418607,2.9833 -0.2019458,3.16485 -0.8438065,0.18154 v 0 c -0.097475,-0.68065 -0.2760107,-1.34482 -0.3533113,-2.02984 -0.045538,-0.28698 -0.1188059,-0.68485 -0.1272302,-0.97948 -0.00386,-0.13505 0.02953,-0.26987 0.021775,-0.40476 -0.011351,-0.19695 -0.136652,-0.37977 -0.1316964,-0.57699 0.00132,-0.0555 0.052152,-0.0981 0.078227,-0.14708 0,-2.7361 0.7738877,-2.7361 0.7738877,0 z"
       inkscape:connector-curvature="0" />
    <path
       style="opacity:1;fill:#f61c2d;fill-opacity:1;stroke:none;stroke-width:0.588;stroke-linecap:square;stroke-miterlimit:4;stroke-dasharray:0.58799999, 3.52799996;stroke-dashoffset:0;stroke-opacity:0.96862745;paint-order:markers fill stroke"
       id="path8240"
       d="m -8.9251549,244.57802 c 0.06154,0.0134 0.121658,0.0392 0.184626,0.0401 0.249881,0.004 0.4976893,-0.0561 0.7475962,-0.0565 0.600956,-8e-4 1.2022772,0.0885 1.8017886,0.12438 2.8448582,0.14004 2.8052474,0.94469 -0.039608,0.80465 v 0 c -0.4117869,-0.0335 -0.8220869,-0.0983 -1.2352152,-0.10232 -0.176149,-0.002 -0.3508084,0.0394 -0.5269653,0.0399 -0.3120999,7.9e-4 -0.6313703,-0.11047 -0.9322223,0.0244 -3.0920971,0 -3.0920971,-0.87458 0,-0.87458 z"
       inkscape:connector-curvature="0" />
    <path
       style="opacity:1;fill:#f61c2d;fill-opacity:1;stroke:none;stroke-width:0.588;stroke-linecap:square;stroke-miterlimit:4;stroke-dasharray:0.58799999, 3.52799996;stroke-dashoffset:0;stroke-opacity:0.96862745;paint-order:markers fill stroke"
       id="path8242"
       d="m 4.0762104,254.01207 c 0.00132,0.0535 0.0027,0.10709 0.00402,0.16063 -0.022304,0.0854 -0.067511,0.16787 -0.066881,0.2561 7.937e-4,0.11874 0.064913,0.23047 0.071207,0.34905 0.00749,0.14079 -0.029681,0.2809 -0.030279,0.42189 -7.938e-4,0.164 0.052758,0.79329 0.065061,0.94845 0.1392581,2.87223 -0.6731317,2.91162 -0.8123899,0.0394 v 0 c -0.028212,-0.46812 -0.089104,-0.94132 -0.1017931,-1.40973 -0.00548,-0.20197 0.040095,-0.40319 0.034322,-0.60515 -0.00159,-0.0546 -0.021431,-0.10709 -0.032163,-0.16063 0,-3.07198 0.8688863,-3.07198 0.8688863,0 z"
       inkscape:connector-curvature="0" />
    <path
       style="opacity:1;fill:#f61c2d;fill-opacity:1;stroke:none;stroke-width:0.588;stroke-linecap:square;stroke-miterlimit:4;stroke-dasharray:0.58799999, 3.52799996;stroke-dashoffset:0;stroke-opacity:0.96862745;paint-order:markers fill stroke"
       id="path8244"
       d="m 0.92065993,255.21588 c 0.14299407,0.0351 0.27700027,-0.0521 0.41672667,-0.0474 0.1228381,0.004 0.239731,0.0699 0.3626009,0.0669 0.160274,-0.004 0.3127031,-0.0835 0.4729797,-0.0873 0.194781,-0.005 0.3866489,0.0514 0.5811758,0.0623 0.222594,0.0126 0.4458653,0.005 0.6687979,0.008 0.9692084,-0.0569 0.4807479,-0.0412 1.4654159,-0.0459 3.3437089,0 3.3437089,0.94575 0,0.94575 v 0 c -0.9829694,-0.15394 -0.4944506,-0.14551 -1.4654159,-0.0324 -0.5693622,-0.0371 -1.1566604,-0.003 -1.7229534,-0.0609 -0.1227826,-0.0126 -0.2392627,-0.0799 -0.3626009,-0.0751 -1.00545104,0.0393 0.2463324,0.1564 -0.41672667,0.0811 -2.88275973,0 -2.88275973,-0.81537 0,-0.81537 z"
       inkscape:connector-curvature="0" />
    <path
       style="opacity:1;fill:#f61c2d;fill-opacity:1;stroke:none;stroke-width:0.588;stroke-linecap:square;stroke-miterlimit:4;stroke-dasharray:0.58799999, 3.52799996;stroke-dashoffset:0;stroke-opacity:0.96862745;paint-order:markers fill stroke"
       id="path8246"
       d="m -36.39308,253.36742 c 0.140039,0.59338 0.289788,1.18813 0.443383,1.78071 0.157584,0.51586 0.08312,0.26009 0.22388,0.76717 0.728239,2.77583 -0.05689,2.98181 -0.785124,0.20597 v 0 c -0.145092,-0.49736 -0.06071,-0.24912 -0.254887,-0.74414 -0.03032,-0.13165 -0.06064,-0.26331 -0.09096,-0.39497 -0.05606,-0.12137 -0.1363,-0.23427 -0.168172,-0.3641 -0.03004,-0.12237 -0.0027,-0.25227 -0.01394,-0.37777 -0.03869,-0.43216 -0.01254,-0.20474 -0.164854,-0.53311 -0.02468,-0.0532 -0.03905,-0.1106 -0.05857,-0.16591 -0.614651,-3.07325 0.254595,-3.2471 0.869246,-0.17385 z"
       inkscape:connector-curvature="0" />
    <path
       style="opacity:1;fill:#f61c2d;fill-opacity:1;stroke:none;stroke-width:0.588;stroke-linecap:square;stroke-miterlimit:4;stroke-dasharray:0.58799999, 3.52799996;stroke-dashoffset:0;stroke-opacity:0.96862745;paint-order:markers fill stroke"
       id="path8248"
       d="m -39.255853,254.6346 c 0.334984,-0.0907 0.664075,0.0363 0.995265,0.0442 0.212825,0.005 0.424412,-0.0378 0.637248,-0.0423 0.557438,-0.0119 1.115071,0.013 1.672633,0.0143 0.971185,-0.009 1.93253,-0.002 2.901751,-0.0667 3.053189,-0.0758 3.074617,0.78781 0.02143,0.86357 v 0 c -0.976294,0.0621 -1.944929,0.0576 -2.923181,0.0511 -0.766963,-0.0199 -1.542669,-0.0513 -2.309881,-0.0396 -0.07751,0.001 -0.659961,0.0554 -0.80019,0.0496 -0.06607,-0.003 -0.13005,-0.0241 -0.195074,-0.0361 -2.963037,0 -2.963037,-0.83808 0,-0.83808 z"
       inkscape:connector-curvature="0" />
    <path
       style="opacity:1;fill:#f61c2d;fill-opacity:1;stroke:none;stroke-width:0.588;stroke-linecap:square;stroke-miterlimit:4;stroke-dasharray:0.58799999, 3.52799996;stroke-dashoffset:0;stroke-opacity:0.96862745;paint-order:markers fill stroke"
       id="path8250"
       d="m -54.881166,240.62442 c 0.138018,0.34723 -0.02697,0.71177 -0.01773,1.06961 0.02963,1.1458 0.09119,-0.36529 0.02236,0.83795 0,2.89838 -0.819785,2.89838 -0.819785,0 v 0 c 0.0016,-0.14427 0.003,-0.28854 0.0046,-0.43281 -0.0149,-0.13505 -0.04253,-0.26929 -0.0447,-0.40514 -0.0019,-0.12177 0.02162,-0.24261 0.03242,-0.36392 0.0027,-0.10289 0.01045,-0.20576 0.0081,-0.30866 -0.0019,-0.0801 -0.02821,-0.15976 -0.0204,-0.2395 0.0055,-0.0558 0.03951,-0.10503 0.05926,-0.15753 0,-2.74303 0.775846,-2.74303 0.775846,0 z"
       inkscape:connector-curvature="0" />
    <path
       style="opacity:1;fill:#f61c2d;fill-opacity:1;stroke:none;stroke-width:0.588;stroke-linecap:square;stroke-miterlimit:4;stroke-dasharray:0.58799999, 3.52799996;stroke-dashoffset:0;stroke-opacity:0.96862745;paint-order:markers fill stroke"
       id="path8252"
       d="m -58.799274,240.6839 c 0.182205,-0.0465 0.360611,0.0393 0.541073,0.031 0.150233,-0.007 0.29464,-0.0699 0.444955,-0.0746 0.803693,-0.0253 0.354229,0.10825 1.203714,0.14547 0.233653,0.0102 0.466833,-0.0294 0.700251,-0.0441 0.709187,0.0544 1.416907,0.0973 2.124385,0.17109 2.867657,0.15484 2.823861,0.96594 -0.0438,0.81109 v 0 c -0.705212,-0.0863 -1.408263,-0.12463 -2.117484,-0.16656 -0.611756,-0.039 -1.253426,-0.0986 -1.867069,-0.0667 -0.149768,0.008 -0.295103,0.0606 -0.444955,0.0666 -1.282364,0.0511 0.330816,-0.10654 -0.541073,-0.0133 -3.040576,0 -3.040576,-0.86 0,-0.86 z"
       inkscape:connector-curvature="0" />
    <path
       style="opacity:1;fill:#f61c2d;fill-opacity:1;stroke:none;stroke-width:0.588;stroke-linecap:square;stroke-miterlimit:4;stroke-dasharray:0.58799999, 3.52799996;stroke-dashoffset:0;stroke-opacity:0.96862745;paint-order:markers fill stroke"
       id="path8254"
       d="m -52.593499,251.97292 c -0.0019,0.0622 -0.01119,0.12456 -0.0053,0.18647 0.03353,0.35289 0.07848,0.21713 0.121494,0.61789 0.0485,0.45191 0.04,0.89574 0.107416,1.34905 -0.08189,0.46617 0.05648,0.92191 0.08079,1.38365 -0.0099,0.529 -0.01678,0.27038 0.01781,0.77593 0.111583,3.19015 -0.790728,3.22171 -0.902311,0.0316 v 0 c 0.01476,-0.2555 0.08932,-0.50886 0.07315,-0.76428 -0.0092,-0.1459 -0.08924,-0.28057 -0.104415,-0.42598 -0.01606,-0.15389 0.0077,-0.30936 0.01151,-0.46403 -0.01738,-0.1571 -0.03476,-0.3142 -0.05214,-0.4713 -0.06565,-1.36424 0.02897,0.38229 -0.07423,-0.91994 -0.02357,-0.2975 0.03199,-0.70621 -0.06775,-0.99472 -0.01765,-0.051 -0.0687,-0.0833 -0.103042,-0.12489 -0.634307,-3.17153 0.262739,-3.35094 0.897046,-0.17941 z"
       inkscape:connector-curvature="0" />
    <path
       style="opacity:1;fill:#f61c2d;fill-opacity:1;stroke:none;stroke-width:0.588;stroke-linecap:square;stroke-miterlimit:4;stroke-dasharray:0.58799999, 3.52799996;stroke-dashoffset:0;stroke-opacity:0.96862745;paint-order:markers fill stroke"
       id="path8256"
       d="m -55.728166,252.95041 c 0.722453,0.1668 -0.41053,-0.064 0.540774,-0.006 0.143775,0.009 0.276784,0.0855 0.419839,0.10235 0.175543,0.0207 0.354033,-0.005 0.530185,0.01 1.319985,0.10964 -0.10473,0.10081 1.333555,0.0723 1.029065,0.0645 0.5079,0.0455 1.563563,0.0553 3.112866,0.12543 3.07739,1.00588 -0.03548,0.88045 v 0 c -1.060728,-0.0668 -0.535864,-0.0464 -1.574528,-0.0628 -0.752282,-0.0618 -0.624509,-0.0681 -1.346697,-0.0656 -0.178975,5.3e-4 -0.358479,0.0264 -0.536806,0.0112 -0.303696,-0.0259 -0.58774,-0.17454 -0.894408,-0.18176 -2.882773,0 -2.882773,-0.81537 0,-0.81537 z"
       inkscape:connector-curvature="0" />
    <path
       style="opacity:1;fill:#f61c2d;fill-opacity:1;stroke:none;stroke-width:0.588;stroke-linecap:square;stroke-miterlimit:4;stroke-dasharray:0.58799999, 3.52799996;stroke-dashoffset:0;stroke-opacity:0.96862745;paint-order:markers fill stroke"
       id="path8258"
       d="m -35.067978,145.78061 c 0.06502,-0.0239 0.126624,-0.061 0.195075,-0.0717 0.391287,-0.061 0.823055,0.056 1.21522,0.064 0.290016,0.006 0.843717,-0.0165 1.1283,-0.0259 0.786665,0.0784 0.39401,0.0725 1.177944,0.0187 2.742469,0 2.742469,0.77569 0,0.77569 v 0 c -0.782707,0.11301 -0.390062,0.1074 -1.177944,0.0159 -0.193384,0.006 -0.386768,0.0122 -0.580149,0.0184 -0.182716,0.0261 -0.363672,0.0724 -0.548151,0.0783 -0.465772,0.0149 -0.940839,-0.12575 -1.410295,-0.0608 -2.873391,0 -2.873391,-0.81272 0,-0.81272 z"
       inkscape:connector-curvature="0" />
    <path
       style="opacity:1;fill:#f61c2d;fill-opacity:1;stroke:none;stroke-width:0.588;stroke-linecap:square;stroke-miterlimit:4;stroke-dasharray:0.58799999, 3.52799996;stroke-dashoffset:0;stroke-opacity:0.96862745;paint-order:markers fill stroke"
       id="path8260"
       d="m 7.3420682,135.74546 c 0.053544,0.02 0.10364,0.0643 0.1606286,0.06 0.090429,-0.007 0.166198,-0.0799 0.2561008,-0.0919 0.115398,-0.0153 0.2327116,0.0155 0.3490542,0.0114 0.5242057,-0.0184 1.0076629,-0.0309 1.5345965,0.01 0.8347787,0.0466 0.4145627,0.0382 1.2606707,0.0242 3.051508,0.15161 3.008627,1.0147 -0.04288,0.8631 v 0 c -0.831419,-0.0275 -0.419095,-0.005 -1.2370143,-0.0678 -0.7590393,-0.0223 -1.5231639,-0.0502 -2.2811555,-0.0158 -2.802673,0 -2.802673,-0.79271 0,-0.79271 z"
       inkscape:connector-curvature="0" />
    <path
       style="opacity:1;fill:#f61c2d;fill-opacity:1;stroke:none;stroke-width:0.588;stroke-linecap:square;stroke-miterlimit:4;stroke-dasharray:0.58799999, 3.52799996;stroke-dashoffset:0;stroke-opacity:0.96862745;paint-order:markers fill stroke"
       id="path8262"
       d="m -85.070389,184.58334 c 0.361616,-0.0481 0.71957,-0.0635 1.082771,-0.0221 0.141393,0.0161 0.281178,0.0652 0.423204,0.0562 0.153157,-0.01 0.297849,-0.0741 0.446773,-0.11112 0.152659,0.0171 0.305316,0.0341 0.457972,0.0512 2.963074,0 2.963074,0.83808 0,0.83808 v 0 c -0.152656,-1e-4 -0.305313,-2e-4 -0.457972,-2.6e-4 -0.651373,-0.0334 -1.303452,0.0638 -1.952748,0.004 -2.884537,0 -2.884537,-0.81587 0,-0.81587 z"
       inkscape:connector-curvature="0" />
    <path
       style="opacity:0.82599996;fill:#51df3b;fill-opacity:1;stroke:none;stroke-width:0.41211057;stroke-linecap:square;stroke-miterlimit:4;stroke-dasharray:none;stroke-dashoffset:0;stroke-opacity:0.82745098;paint-order:markers fill stroke;enable-background:new"
       d="m -79.478538,228.15901 c 0.0889,1.39396 -0.0438,2.85317 0.99833,4.1663 0.79872,1.12294 3.23216,1.42887 5.18393,1.78411 1.55568,0.21224 3.32545,0.26445 4.815288,-0.0909 2.000819,-0.63058 2.719191,-1.91489 3.236777,-3.02779 1.225781,-3.29816 0.486254,-6.67145 0.289728,-9.9993 -0.137328,-2.11032 0.123017,-4.3125 -1.470482,-6.30403 -0.723323,-0.83963 -2.386061,-1.5205 -4.232911,-1.35673 -4.80329,0.48952 -4.41622,0.30791 -6.05377,2.694 -2.52076,3.89331 -2.74908,8.06531 -2.76689,12.13441 z m 1.67184,-5.3e-4 c 0.0227,-4.0024 0.22048,-8.09898 2.7262,-11.92506 0.88055,-0.56069 0.43863,-1.87524 2.12847,-1.85546 1.28761,-0.0486 2.73537,-0.39337 3.93984,-0.0223 1.725307,0.75777 1.788398,2.03476 2.138667,3.11074 0.295694,1.82699 0.152444,3.665 0.413055,5.49405 0.19216,2.75519 0.627241,5.56831 -0.61373,8.27811 -0.462922,0.74487 -0.923537,1.65701 -2.347472,2.05698 -1.65334,0.25772 -3.41861,0.038 -4.96908,-0.30324 -1.60227,-0.19431 -2.84214,-0.84589 -2.99699,-1.71913 -0.36574,-1.02556 -0.39259,-2.07363 -0.41896,-3.11336 z"
       id="path5914-1-7-6"
       inkscape:connector-curvature="0"
       sodipodi:nodetypes="ccccccccccccccccccccccc" />
    <path
       style="opacity:0.82599996;fill:#33d917;fill-opacity:1;stroke:#33d917;stroke-width:0.67907143;stroke-linecap:square;stroke-miterlimit:4;stroke-dasharray:none;stroke-dashoffset:0;stroke-opacity:1;paint-order:markers fill stroke;enable-background:new"
       d="m -66.113495,228.41096 c -0.357037,3.0871 -1.455069,4.45039 -3.750887,4.65693 -1.74672,0.15715 -5.11024,-0.38918 -6.20071,-1.00716 -0.83064,-0.47075 -1.2422,-2.03414 -1.24143,-4.71586 0.001,-4.64244 1.11046,-8.84272 3.08085,-11.66732 0.88393,-1.26715 0.89975,-1.27381 3.23149,-1.36126 2.62466,-0.0984 3.608441,0.39036 4.138218,2.05608 0.414791,1.30419 0.960542,10.15307 0.742469,12.03859 z"
       id="path6135-2-0-2"
       inkscape:connector-curvature="0" />
    <path
       style="opacity:0.82599996;fill:#9af28c;fill-opacity:1;stroke:#33d917;stroke-width:0.67907143;stroke-linecap:square;stroke-miterlimit:4;stroke-dasharray:none;stroke-dashoffset:0;stroke-opacity:1;paint-order:markers fill stroke;enable-background:new"
       d="m -67.48714,229.34091 c -0.250753,1.63712 -0.968926,2.96274 -1.824235,3.3672 -0.92235,0.43619 -4.11759,0.41292 -5.91343,-0.0432 -2.13051,-0.54093 -2.41083,-1.10832 -2.41083,-4.87967 0,-4.85874 1.12296,-9.02651 3.05124,-11.32436 0.65658,-0.78242 1.09126,-0.96974 2.51147,-1.08223 1.14299,-0.0905 2.05246,0.038 2.71892,0.38444 1.227818,0.63809 1.495485,1.65491 1.720474,6.53574 0.0864,1.87432 0.19772,3.94461 0.247369,4.60062 0.04964,0.65602 0.0043,1.75461 -0.100978,2.44133 z"
       id="path6139-9-9-6"
       inkscape:connector-curvature="0" />
    <path
       style="opacity:1;fill:#ffc296;fill-opacity:0.60784314;stroke:none;stroke-width:0.588;stroke-linecap:square;stroke-miterlimit:4;stroke-dasharray:0.58799999, 3.52799996;stroke-dashoffset:0;stroke-opacity:0.96862745;paint-order:markers fill stroke"
       id="path8342"
       d="m -47.270279,226.56074 c -0.354696,0.3587 -0.01907,-0.0132 -0.373384,0.52327 -0.0869,0.13161 -0.200337,0.24481 -0.283201,0.379 -0.311433,0.50431 -0.510062,1.07463 -0.699823,1.63125 -0.121043,0.20687 -0.242091,0.41374 -0.363134,0.62062 -0.427204,0.90249 0.849101,1.50664 1.276303,0.60416 v 0 c 0.0872,-0.22683 0.174396,-0.45366 0.261595,-0.68049 0.127697,-0.16989 0.277566,-0.32522 0.383059,-0.50973 0.620592,-1.08543 -0.180826,0.0384 0.360203,-0.95351 0.0543,-0.0996 0.170843,-0.15664 0.222208,-0.25781 0.03864,-0.076 0.0024,-0.17527 0.03727,-0.25309 0.01996,-0.0445 0.07747,-0.0594 0.116178,-0.0891 0.717373,-0.66275 -0.219892,-1.67727 -0.937268,-1.01452 z"
       inkscape:connector-curvature="0" />
    <path
       style="opacity:1;fill:#ffc296;fill-opacity:0.60784314;stroke:none;stroke-width:0.588;stroke-linecap:square;stroke-miterlimit:4;stroke-dasharray:0.58799999, 3.52799996;stroke-dashoffset:0;stroke-opacity:0.96862745;paint-order:markers fill stroke"
       id="path8346"
       d="m -49.829261,220.04572 c -0.471361,-0.0804 -0.948214,0.0149 -1.419032,0.007 -0.23485,-0.004 -0.4675,-0.0506 -0.702276,-0.0577 -0.233913,-0.007 -1.176099,0.0306 -1.42167,0.0395 -0.990584,0 -0.990584,-1.4009 0,-1.4009 v 0 c 0.474086,0.003 0.947854,0.0581 1.42167,0.0418 0.235733,-0.008 0.466707,-0.0748 0.702276,-0.0867 0.467918,-0.0237 0.950254,0.0287 1.419032,0.0275 1.010602,0 1.010602,1.42921 0,1.42921 z"
       inkscape:connector-curvature="0" />
    <path
       style="opacity:1;fill:#ffc296;fill-opacity:0.60784314;stroke:none;stroke-width:0.588;stroke-linecap:square;stroke-miterlimit:4;stroke-dasharray:0.58799999, 3.52799996;stroke-dashoffset:0;stroke-opacity:0.96862745;paint-order:markers fill stroke"
       id="path8348"
       d="m -48.351167,216.88024 c -0.267534,-0.32994 -0.553117,-0.65739 -0.801542,-1.00235 -0.110221,-0.15306 -0.185473,-0.33002 -0.300834,-0.47924 -0.225052,-0.2911 -0.497073,-0.54308 -0.731473,-0.82671 -0.103018,-0.12913 -0.206036,-0.25826 -0.309054,-0.3874 -0.611124,-0.80871 0.532569,-1.67297 1.143693,-0.86426 v 0 c 0.104082,0.12462 0.208161,0.24923 0.31224,0.37385 0.320747,0.4642 0.682408,0.8733 1.02734,1.31614 0.137202,0.17614 0.321784,0.51878 0.485534,0.6913 0.05788,0.061 0.135224,0.1 0.202835,0.14994 0.727427,0.72742 -0.301313,1.75616 -1.028739,1.02873 z"
       inkscape:connector-curvature="0" />
    <path
       style="opacity:1;fill:#ffc296;fill-opacity:0.60784314;stroke:none;stroke-width:0.588;stroke-linecap:square;stroke-miterlimit:4;stroke-dasharray:0.58799999, 3.52799996;stroke-dashoffset:0;stroke-opacity:0.96862745;paint-order:markers fill stroke"
       id="path8350"
       d="m -43.962095,215.84699 c -0.0701,-0.40642 0.10365,-0.82679 0.07931,-1.22714 -0.01135,-0.18658 -0.107627,-0.36062 -0.124571,-0.54678 -0.0317,-0.34823 0.02394,-0.69914 0.02122,-1.04881 0.01156,-0.14542 0.02312,-0.29084 0.03467,-0.43626 0,-0.96927 1.37074,-0.96927 1.37074,0 v 0 c -0.01379,0.14542 -0.02754,0.29084 -0.04132,0.43626 0.01614,0.94072 0.114946,1.8809 0.07654,2.82273 0,1.00168 -1.416592,1.00168 -1.416592,0 z"
       inkscape:connector-curvature="0" />
    <path
       style="opacity:1;fill:#ffc296;fill-opacity:0.60784314;stroke:none;stroke-width:0.588;stroke-linecap:square;stroke-miterlimit:4;stroke-dasharray:0.588, 3.528;stroke-dashoffset:0;stroke-opacity:0.96862745;paint-order:markers fill stroke"
       id="path8348-1"
       d="m -40.387888,216.25409 c 0.32994,-0.26754 0.65739,-0.55312 1.00235,-0.80154 0.15306,-0.11022 0.33002,-0.18548 0.47924,-0.30084 0.291099,-0.22505 0.543079,-0.49707 0.826709,-0.73147 0.12913,-0.10302 0.25826,-0.20604 0.3874,-0.30905 0.80871,-0.61113 1.67297,0.53256 0.86426,1.14369 v 0 c -0.12462,0.10408 -0.24923,0.20816 -0.37385,0.31224 -0.4642,0.32075 -0.8733,0.68241 -1.31614,1.02734 -0.17614,0.1372 -0.518779,0.32178 -0.691299,0.48553 -0.061,0.0579 -0.1,0.13523 -0.14994,0.20284 -0.72742,0.72742 -1.75616,-0.30132 -1.02873,-1.02874 z"
       inkscape:connector-curvature="0" />
    <path
       style="opacity:1;fill:#ffc296;fill-opacity:0.60784314;stroke:none;stroke-width:0.588;stroke-linecap:square;stroke-miterlimit:4;stroke-dasharray:0.588, 3.528;stroke-dashoffset:0;stroke-opacity:0.96862745;paint-order:markers fill stroke"
       id="path8348-8"
       d="m -34.677069,223.6777 c -0.419592,-0.0662 -0.850924,-0.11846 -1.266357,-0.2086 -0.184325,-0.04 -0.358661,-0.12115 -0.544237,-0.15486 -0.362027,-0.0658 -0.732785,-0.071 -1.096762,-0.12495 -0.162962,-0.027 -0.325925,-0.0541 -0.488887,-0.0811 -0.995285,-0.19209 -0.723619,-1.59963 0.271666,-1.40754 v 0 c 0.160733,0.023 0.321459,0.0459 0.482192,0.0689 0.54897,0.13036 1.091475,0.1924 1.644123,0.29071 0.219819,0.0391 0.586256,0.17023 0.823384,0.18887 0.08385,0.007 0.167409,-0.0162 0.251069,-0.0243 1.027316,0.0539 0.951132,1.50673 -0.07619,1.45286 z"
       inkscape:connector-curvature="0" />
    <path
       style="opacity:1;fill:#ffc296;fill-opacity:0.60784314;stroke:none;stroke-width:0.588;stroke-linecap:square;stroke-miterlimit:4;stroke-dasharray:0.588, 3.528;stroke-dashoffset:0;stroke-opacity:0.96862745;paint-order:markers fill stroke"
       id="path8348-7"
       d="m -40.601596,229.39813 c -0.26754,-0.32994 -0.55312,-0.65739 -0.80154,-1.00235 -0.11022,-0.15306 -0.18548,-0.33002 -0.30084,-0.47924 -0.22505,-0.2911 -0.49707,-0.54308 -0.73147,-0.82671 -0.10302,-0.12913 -0.20604,-0.25826 -0.30905,-0.3874 -0.61113,-0.80871 0.53256,-1.67297 1.14369,-0.86426 v 0 c 0.10408,0.12462 0.20816,0.24923 0.31224,0.37385 0.32075,0.4642 0.68241,0.8733 1.02734,1.31614 0.1372,0.17614 0.32178,0.51878 0.48553,0.6913 0.0579,0.061 0.13523,0.1 0.20284,0.14994 0.72742,0.72742 -0.30132,1.75616 -1.02874,1.02873 z"
       inkscape:connector-curvature="0" />
    <path
       style="opacity:1;fill:#ffc296;fill-opacity:0.60784314;stroke:none;stroke-width:0.588;stroke-linecap:square;stroke-miterlimit:4;stroke-dasharray:0.588, 3.528;stroke-dashoffset:0;stroke-opacity:0.96862745;paint-order:markers fill stroke"
       id="path8348-9"
       d="m -53.173444,224.59074 c 0.32994,-0.26754 0.65739,-0.55312 1.00235,-0.80154 0.15306,-0.11022 0.33002,-0.18548 0.47924,-0.30084 0.2911,-0.22505 0.54308,-0.49707 0.82671,-0.73147 0.12913,-0.10302 0.25826,-0.20604 0.3874,-0.30905 0.80871,-0.61113 1.67297,0.53256 0.86426,1.14369 v 0 c -0.12462,0.10408 -0.24923,0.20816 -0.37385,0.31224 -0.4642,0.32075 -0.8733,0.68241 -1.31614,1.02734 -0.17614,0.1372 -0.51878,0.32178 -0.6913,0.48553 -0.061,0.0579 -0.1,0.13523 -0.14994,0.20284 -0.72742,0.72742 -1.75616,-0.30132 -1.02873,-1.02874 z"
       inkscape:connector-curvature="0" />
    <path
       style="opacity:1;fill:#f61c2d;fill-opacity:1;stroke:none;stroke-width:0.588;stroke-linecap:square;stroke-miterlimit:4;stroke-dasharray:0.588, 3.528;stroke-dashoffset:0;stroke-opacity:0.96862745;paint-order:markers fill stroke"
       id="path8258-5"
       d="m -60.982467,172.8653 c 0.065,-0.0239 0.12663,-0.061 0.19508,-0.0717 0.39129,-0.061 0.82305,0.056 1.21522,0.064 0.29001,0.006 0.84372,-0.0165 1.1283,-0.0259 0.78666,0.0784 0.39401,0.0725 1.17794,0.0187 2.74247,0 2.74247,0.77569 0,0.77569 v 0 c -0.7827,0.11301 -0.39006,0.1074 -1.17794,0.0159 -0.19339,0.006 -0.38677,0.0122 -0.58015,0.0184 -0.18272,0.0261 -0.36367,0.0724 -0.54815,0.0783 -0.46577,0.0149 -0.94084,-0.12575 -1.4103,-0.0608 -2.87339,0 -2.87339,-0.81272 0,-0.81272 z"
       inkscape:connector-curvature="0" />
    <path
       style="opacity:1;fill:#f61c2d;fill-opacity:1;stroke:none;stroke-width:0.588;stroke-linecap:square;stroke-miterlimit:4;stroke-dasharray:0.588, 3.528;stroke-dashoffset:0;stroke-opacity:0.96862745;paint-order:markers fill stroke"
       id="path8258-9"
       d="m -16.311791,154.15945 c 0.065,-0.0239 0.12663,-0.061 0.19508,-0.0717 0.39129,-0.061 0.82305,0.056 1.21522,0.064 0.29001,0.006 0.84372,-0.0165 1.1283,-0.0259 0.78666,0.0784 0.39401,0.0725 1.17794,0.0187 2.7424698,0 2.7424698,0.77569 0,0.77569 v 0 c -0.7827,0.11301 -0.39006,0.1074 -1.17794,0.0159 -0.19339,0.006 -0.38677,0.0122 -0.58015,0.0184 -0.18272,0.0261 -0.36367,0.0724 -0.54815,0.0783 -0.46577,0.0149 -0.94084,-0.12575 -1.4103,-0.0608 -2.87339,0 -2.87339,-0.81272 0,-0.81272 z"
       inkscape:connector-curvature="0" />
    <path
       style="opacity:1;fill:#ffc296;fill-opacity:0.60784314;stroke:none;stroke-width:0.588;stroke-linecap:square;stroke-miterlimit:4;stroke-dasharray:0.58800001, 3.52800004;stroke-dashoffset:0;stroke-opacity:0.96862745;paint-order:markers fill stroke"
       id="path8348-1-2"
       d="m -33.350832,210.63116 c 0.32994,-0.26754 0.65739,-0.55312 1.00235,-0.80154 0.15306,-0.11022 0.33002,-0.18548 0.47924,-0.30084 0.2911,-0.22505 0.54308,-0.49707 0.82671,-0.73147 0.12913,-0.10302 0.25826,-0.20604 0.3874,-0.30905 0.80871,-0.61113 1.67297,0.53256 0.86426,1.14369 v 0 c -0.12462,0.10408 -0.24923,0.20816 -0.37385,0.31224 -0.4642,0.32075 -0.8733,0.68241 -1.31614,1.02734 -0.17614,0.1372 -0.51878,0.32178 -0.6913,0.48553 -0.061,0.0579 -0.1,0.13523 -0.14994,0.20284 -0.72742,0.72742 -1.75616,-0.30132 -1.02873,-1.02874 z"
       inkscape:connector-curvature="0" />
    <path
       style="opacity:1;fill:#ffc296;fill-opacity:0.60784314;stroke:none;stroke-width:0.588;stroke-linecap:square;stroke-miterlimit:4;stroke-dasharray:0.58800001, 3.52800004;stroke-dashoffset:0;stroke-opacity:0.96862745;paint-order:markers fill stroke"
       id="path8348-1-28"
       d="m -59.03647,228.49943 c 0.32994,-0.26754 0.65739,-0.55312 1.00235,-0.80154 0.15306,-0.11022 0.33002,-0.18548 0.47924,-0.30084 0.2911,-0.22505 0.54308,-0.49707 0.82671,-0.73147 0.12913,-0.10302 0.25826,-0.20604 0.3874,-0.30905 0.80871,-0.61113 1.67297,0.53256 0.86426,1.14369 v 0 c -0.12462,0.10408 -0.24923,0.20816 -0.37385,0.31224 -0.4642,0.32075 -0.8733,0.68241 -1.31614,1.02734 -0.17614,0.1372 -0.51878,0.32178 -0.6913,0.48553 -0.061,0.0579 -0.1,0.13523 -0.14994,0.20284 -0.72742,0.72742 -1.75616,-0.30132 -1.02873,-1.02874 z"
       inkscape:connector-curvature="0" />
    <path
       style="opacity:1;fill:#ffc296;fill-opacity:0.60784314;stroke:none;stroke-width:0.588;stroke-linecap:square;stroke-miterlimit:4;stroke-dasharray:0.58800001, 3.52800004;stroke-dashoffset:0;stroke-opacity:0.96862745;paint-order:markers fill stroke"
       id="path8348-1-9"
       d="m -65.178688,232.12892 c 0.32994,-0.26754 0.65739,-0.55312 1.00235,-0.80154 0.15306,-0.11022 0.33002,-0.18548 0.47924,-0.30084 0.2911,-0.22505 0.54308,-0.49707 0.82671,-0.73147 0.12913,-0.10302 0.25826,-0.20604 0.3874,-0.30905 0.80871,-0.61113 1.67297,0.53256 0.86426,1.14369 v 0 c -0.12462,0.10408 -0.24923,0.20816 -0.37385,0.31224 -0.4642,0.32075 -0.8733,0.68241 -1.31614,1.02734 -0.17614,0.1372 -0.51878,0.32178 -0.6913,0.48553 -0.061,0.0579 -0.1,0.13523 -0.14994,0.20284 -0.72742,0.72742 -1.75616,-0.30132 -1.02873,-1.02874 z"
       inkscape:connector-curvature="0" />
    <path
       inkscape:connector-curvature="0"
       d="m -34.489063,196.65422 c 0.21985,-0.22403 0.43649,-0.45134 0.65266,-0.67908 0.40674,-0.42803 0.78978,-0.87855 1.16601,-1.33468 0.34707,-0.41659 0.67367,-0.84977 0.98355,-1.29593 0.1701,-0.25003 0.32938,-0.50809 0.46453,-0.77982 0.12633,-0.27505 0.0487,-0.34514 0.59759,0.0619 0.0428,0.0318 -0.009,0.10814 -0.0151,0.16205 -0.008,0.0681 -0.0169,0.13609 -0.0255,0.20414 -0.09,0.63696 -0.18794,1.27265 -0.27429,1.91019 -0.10567,0.78388 -0.18644,1.57084 -0.25698,2.35875 -0.0516,0.58587 -0.0889,1.17291 -0.1144,1.76057 -0.0875,2.01664 -0.64364,1.99126 -0.55611,-0.0253 v 0 c 0.026,-0.59662 0.0637,-1.19263 0.11618,-1.7874 0.0713,-0.79671 0.15305,-1.59247 0.25994,-2.3851 0.0861,-0.63555 0.18358,-1.26931 0.2735,-1.90427 0.008,-0.0624 0.0163,-0.12489 0.0235,-0.18748 0.005,-0.0443 -0.0296,-0.12484 0.0131,-0.13333 0.68173,-0.13531 0.57957,-0.0605 0.45397,0.22555 -0.14819,0.29613 -0.32041,0.57858 -0.50673,0.85101 -0.31893,0.45897 -0.65487,0.90478 -1.01194,1.33341 -0.38466,0.46622 -0.77628,0.92668 -1.19209,1.36417 -0.21793,0.22957 -0.43631,0.4587 -0.65789,0.68455 -1.39168,1.4274 -1.7853,1.02366 -0.39364,-0.40374 z"
       id="path3690-2"
       style="opacity:1;fill:#000000;fill-opacity:1;stroke:#000000;stroke-width:0.30000001;stroke-linecap:square;stroke-miterlimit:4;stroke-dasharray:none;stroke-dashoffset:0;stroke-opacity:1;paint-order:markers fill stroke" />
    <path
       inkscape:connector-curvature="0"
       d="m -73.845041,222.50881 c -0.0269,-0.2422 -0.0407,-0.4863 -0.0554,-0.72994 -0.0322,-0.3841 -0.0403,-0.76067 0.0247,-1.13943 0.1666,-0.58851 0.58973,-0.8921 1.02778,-1.14095 0.5125,-0.2683 1.05494,-0.37061 1.60875,-0.35573 0.56828,0.0396 1.00819,0.28505 1.4293,0.73978 0.37829,0.4682 0.5493,1.07375 0.6648,1.70043 0.1214,0.74748 -0.0233,1.39139 -0.28346,2.06411 -0.30495,0.70291 -0.76166,1.27093 -1.22956,1.81333 -0.49322,0.56032 -1.04145,1.039 -1.60609,1.48478 -0.46807,0.35817 -0.96832,0.64609 -1.47665,0.90731 -0.29535,0.15304 -0.60053,0.27259 -0.91095,0.37005 -0.22702,0.0712 -0.17166,0.11105 -0.1014,-0.63688 8e-5,0 0.23127,-0.0276 0.35002,-0.0417 0.37652,-0.0449 0.754,-0.0757 1.13156,-0.1036 0.41353,-0.03 0.82751,-0.0492 1.24158,-0.0641 0.32443,-0.0114 0.64899,-0.0163 0.97355,-0.0178 0.21977,0 0.43953,0.003 0.65928,0.006 0.14592,0.003 0.29184,0.006 0.43775,0.01 0.0652,0.003 0.0334,0 0.0954,0.003 1.93858,0.0501 1.92696,0.71919 -0.0116,0.66905 v 0 c -0.0621,-0.003 -0.0305,0 -0.0952,-0.003 -0.14472,-0.004 -0.28944,-0.007 -0.43418,-0.01 -0.21641,-0.004 -0.43283,-0.007 -0.64926,-0.006 -0.31989,0.003 -0.63977,0.007 -0.95953,0.0175 -0.40841,0.0147 -0.81672,0.0335 -1.22459,0.0632 -0.37096,0.0273 -0.74184,0.0576 -1.11174,0.10172 -0.10081,0.012 -0.35285,0.0495 -0.35601,0.0424 -0.28084,-0.63038 -0.33662,-0.59708 -0.0822,-0.67795 0.2845,-0.0892 0.56419,-0.1983 0.8348,-0.33877 0.47887,-0.24563 0.95029,-0.51612 1.39156,-0.85244 0.53643,-0.42293 1.05751,-0.8768 1.52639,-1.40823 0.41971,-0.48537 0.83318,-0.99053 1.11215,-1.61632 0.20551,-0.51762 0.33883,-1.05081 0.24295,-1.63069 -0.0878,-0.49032 -0.20963,-0.97324 -0.49703,-1.34888 -0.3031,-0.34398 -0.65814,-0.53921 -1.07616,-0.56738 -0.46958,-0.0184 -0.92924,0.072 -1.36494,0.29465 -0.27822,0.15404 -0.58175,0.32697 -0.72195,0.67959 -0.0636,0.31097 -0.0306,0.62729 -0.0129,0.94375 0.0134,0.22331 0.0263,0.4469 0.0494,0.66908 0.31878,2.33379 -0.2222,2.4438 -0.54097,0.11004 z"
       id="path3680-6"
       style="opacity:1;fill:#000000;fill-opacity:1;stroke:#000000;stroke-width:0.27253917;stroke-linecap:square;stroke-miterlimit:4;stroke-dasharray:none;stroke-dashoffset:0;stroke-opacity:1;paint-order:markers fill stroke" />
    <path
       style="opacity:1;fill:#f61c2d;fill-opacity:1;stroke:none;stroke-width:0.588;stroke-linecap:square;stroke-miterlimit:4;stroke-dasharray:0.588, 3.528;stroke-dashoffset:0;stroke-opacity:0.96862745;paint-order:markers fill stroke"
       id="path8260-5"
       d="m 28.113359,180.36041 c 0.0536,0.02 0.10364,0.0643 0.16063,0.06 0.0904,-0.007 0.1662,-0.0799 0.2561,-0.0919 0.1154,-0.0153 0.23271,0.0155 0.34906,0.0114 0.5242,-0.0184 1.00766,-0.0309 1.53459,0.01 0.83478,0.0466 0.41457,0.0382 1.26067,0.0242 3.05151,0.15161 3.00863,1.0147 -0.0429,0.8631 v 0 c -0.83141,-0.0275 -0.41909,-0.005 -1.23701,-0.0678 -0.75904,-0.0223 -1.52316,-0.0502 -2.28116,-0.0158 -2.80267,0 -2.80267,-0.79271 0,-0.79271 z"
       inkscape:connector-curvature="0" />
    <path
       style="opacity:1;fill:#00887a;fill-opacity:1;stroke:none;stroke-width:0.588;stroke-linecap:square;stroke-miterlimit:4;stroke-dasharray:0.58799999, 3.52799996;stroke-dashoffset:0;stroke-opacity:0.96862745;paint-order:markers fill stroke"
       id="path8696"
       d="m 16.675866,179.17389 c 0.660868,0.87217 1.444392,1.63533 2.250006,2.3742 0.449929,0.54368 0.990936,1.0272 1.553729,1.45325 0.139004,0.10523 0.299905,0.17875 0.441235,0.28084 0.567534,0.40993 0.0076,0.1018 0.521814,0.36261 0.02959,0.0138 0.112329,0.0187 0.08878,0.0412 -0.10143,0.0973 -0.300577,-0.10558 -0.420446,-0.0322 -0.306576,0.18775 -0.482315,0.51959 -0.313249,0.84164 -0.105764,-0.0351 -0.136744,-0.073 -0.204636,-0.18672 -1.649278,-2.48086 -0.479788,-3.25834 1.169487,-0.77748 v 0 c 0.07147,0.005 0.05286,-0.0217 0.170365,0.16582 0.623033,0.95083 1.016276,1.47145 -0.594596,1.22826 -1.586097,-0.64686 -2.369498,-1.45751 -3.419852,-2.34224 -0.369682,-0.3731 -0.779095,-0.70608 -1.140728,-1.08699 -0.154739,-0.16298 -0.27841,-0.35287 -0.417613,-0.5293 -1.394428,-1.08599 -2.042458,-4.8254 0.315701,-1.79295 z"
       inkscape:connector-curvature="0"
       sodipodi:nodetypes="ccsccccccccccccccc" />
    <path
       style="opacity:1;fill:#ffa669;fill-opacity:1;stroke:#ff9243;stroke-width:0.48763654;stroke-linecap:square;stroke-miterlimit:4;stroke-dasharray:none;stroke-dashoffset:0;stroke-opacity:1;paint-order:markers fill stroke;enable-background:new"
       id="path1801"
       d="m -99.011296,235.3036 h 6.980235 19.547014 26.896368 25.372251 20.05113531 13.67819769 c 19.049847,0.27142 18.984502,1.62411 0,1.62411 H -0.16429269 -20.215428 -45.587679 -72.484047 -92.031061 -99.011296 c -5.461644,0 -5.461644,-1.62411 0,-1.62411 z"
       inkscape:connector-curvature="0"
       sodipodi:nodetypes="sccccccccccccss" />
    <path
       style="opacity:1;fill:#ffa669;fill-opacity:1;stroke:#ff9243;stroke-width:0.49269274;stroke-linecap:square;stroke-miterlimit:4;stroke-dasharray:none;stroke-dashoffset:0;stroke-opacity:1;paint-order:markers fill stroke;enable-background:new"
       id="path1803"
       d="m -102.91936,232.71195 v -8.01766 -27.49265 -32.64117 c -0.008,-8.071 0.014,-16.14207 -0.009,-24.21306 -0.47907,-27.22996 1.50936,-25.12136 1.62398,-0.004 0.0235,8.07249 0.002,16.14502 0.009,24.21751 v 32.64118 27.49265 8.01765 c 0,5.5755 -1.62411,5.5755 -1.62411,0 z"
       inkscape:connector-curvature="0"
       sodipodi:nodetypes="cccccccccscc" />
    <path
       style="opacity:1;fill:#ffa669;fill-opacity:1;stroke:#ff9243;stroke-width:0.31883124;stroke-linecap:square;stroke-miterlimit:4;stroke-dasharray:none;stroke-dashoffset:0;stroke-opacity:1;paint-order:markers fill stroke;enable-background:new"
       id="path1838-5-93"
       d="m -98.540335,122.96397 c -0.11934,-0.22305 -0.25935,-0.41616 -0.39426,-0.61501 -0.28517,-0.41157 -0.57165,-0.82097 -0.86086,-1.22547 -0.321335,-0.44591 -0.631195,-0.91179 -0.939765,-1.37946 -0.2682,-0.41071 -0.52596,-0.83783 -0.78835,-1.25765 -0.18103,-0.288 -0.36048,-0.58361 -0.57708,-0.80535 -0.13107,-0.12877 -0.26566,-0.15674 -0.41466,-0.12106 -0.2072,0.0691 -0.39146,0.23685 -0.56919,0.41159 -0.24087,0.25176 -0.45733,0.55479 -0.66799,0.8653 -0.24418,0.36509 -0.47501,0.75151 -0.70284,1.14181 -0.22515,0.39133 -0.44294,0.79271 -0.6543,1.20272 -0.19526,0.37537 -0.38953,0.75202 -0.58251,1.13032 -0.168,0.33341 -0.33631,0.6665 -0.50111,1.00388 -0.0963,0.19935 -0.0488,0.10058 -0.1424,0.29628 -1.75628,3.67149 -2.41384,2.88699 -0.65756,-0.7845 v 0 c 0.0968,-0.20237 0.0476,-0.10011 0.14748,-0.30678 0.16836,-0.34458 0.34021,-0.68488 0.51184,-1.02538 0.1939,-0.38008 0.38907,-0.75852 0.58525,-1.13566 0.22209,-0.43055 0.45082,-0.85225 0.68745,-1.2631 0.24197,-0.41437 0.48728,-0.82438 0.74681,-1.21164 0.25059,-0.3684 0.50907,-0.72609 0.79711,-1.02083 0.28327,-0.27421 0.58012,-0.5192 0.91308,-0.59789 0.3437,-0.0492 0.66681,0.0317 0.96178,0.33322 0.25938,0.27911 0.48898,0.61415 0.70535,0.97282 0.25716,0.41148 0.50983,0.83002 0.77246,1.2329 0.300645,0.45567 0.602465,0.90976 0.915555,1.3442 0.29454,0.41206 0.58639,0.82891 0.87675,1.24828 0.16783,0.24738 0.34115,0.48919 0.48516,0.77294 1.77648,3.64718 1.12328,4.44069 -0.6532,0.79352 z"
       inkscape:connector-curvature="0" />
    <path
       style="opacity:1;fill:#ffa669;fill-opacity:1;stroke:#ff9243;stroke-width:0.31883124;stroke-linecap:square;stroke-miterlimit:4;stroke-dasharray:none;stroke-dashoffset:0;stroke-opacity:1;paint-order:markers fill stroke;enable-background:new"
       id="path1838-5-93-6"
       d="m 27.155281,240.65945 c 0.223028,-0.11934 0.416158,-0.25935 0.615008,-0.39425 0.41157,-0.28518 0.82096,-0.57166 1.22546,-0.86088 0.4459,-0.32132 0.91181,-0.63119 1.379451,-0.93975 0.41071,-0.2682 0.837829,-0.52596 1.25766,-0.78835 0.288012,-0.18102 0.583609,-0.36048 0.805359,-0.57708 0.12877,-0.13108 0.156742,-0.26566 0.121061,-0.41466 -0.0691,-0.20719 -0.236861,-0.39147 -0.411589,-0.56918 -0.251762,-0.24089 -0.554792,-0.45734 -0.865312,-0.668 -0.36508,-0.24418 -0.75152,-0.475 -1.14182,-0.70283 -0.391308,-0.22516 -0.79271,-0.44296 -1.20269,-0.65432 -0.375377,-0.19526 -0.75202,-0.38953 -1.130339,-0.5825 -0.33342,-0.168 -0.666481,-0.33631 -1.00389,-0.50111 -0.199351,-0.0963 -0.100561,-0.0488 -0.296281,-0.1424 -3.67148,-1.75627 -2.88698,-2.41384 0.7845,-0.65756 v 0 c 0.20238,0.0968 0.100111,0.0476 0.306801,0.14747 0.344569,0.16837 0.684881,0.34023 1.025382,0.51186 0.380058,0.1939 0.758507,0.38906 1.135657,0.58524 0.43053,0.22208 0.852252,0.45081 1.2631,0.68744 0.414372,0.24198 0.82437,0.48729 1.21163,0.74682 0.36839,0.25058 0.726081,0.50907 1.020842,0.79711 0.274199,0.28328 0.519211,0.58012 0.597869,0.91307 0.0492,0.34371 -0.0317,0.66683 -0.333201,0.96179 -0.27913,0.25938 -0.614137,0.48898 -0.97282,0.70535 -0.41148,0.25716 -0.830029,0.50982 -1.2329,0.77246 -0.455668,0.30065 -0.90977,0.60245 -1.3442,0.91555 -0.41207,0.29455 -0.828907,0.58638 -1.24828,0.87676 -0.247377,0.16782 -0.489209,0.34113 -0.772938,0.48514 -3.647202,1.77648 -4.44069,1.12327 -0.79352,-0.65319 z"
       inkscape:connector-curvature="0" />
    <text
       xml:space="preserve"
       style="font-style:normal;font-variant:normal;font-weight:normal;font-stretch:normal;font-size:8.46234703px;line-height:1.25;font-family:Forte;-inkscape-font-specification:Forte;letter-spacing:0px;word-spacing:0px;fill:#000000;fill-opacity:1;stroke:none;stroke-width:0.21155865"
       x="25.883144"
       y="235.23703"
       id="text2184"
       transform="scale(0.93646585,1.0678446)"><tspan
         sodipodi:role="line"
         id="tspan2182"
         x="25.883144"
         y="235.23703"
         style="font-style:normal;font-variant:normal;font-weight:normal;font-stretch:normal;font-family:Forte;-inkscape-font-specification:Forte;stroke-width:0.21155865">X</tspan></text>
    <text
       xml:space="preserve"
       style="font-style:normal;font-variant:normal;font-weight:normal;font-stretch:normal;font-size:8.46234703px;line-height:1.25;font-family:Forte;-inkscape-font-specification:Forte;letter-spacing:0px;word-spacing:0px;fill:#000000;fill-opacity:1;stroke:none;stroke-width:0.21155865"
       x="-116.31345"
       y="125.15414"
       id="text2184-5"
       transform="scale(0.93646585,1.0678446)"><tspan
         sodipodi:role="line"
         id="tspan2182-3"
         x="-116.31345"
         y="125.15414"
         style="font-style:normal;font-variant:normal;font-weight:normal;font-stretch:normal;font-family:Forte;-inkscape-font-specification:Forte;stroke-width:0.21155865">Y</tspan></text>
  </g>
</svg>
