<svg width="150.59mm" height="150.59mm" version="1.1" viewBox="0 0 150.59 150.59" xmlns="http://www.w3.org/2000/svg">
 <g transform="translate(-63.875 -238.57)">
  <g stroke-linecap="square">
   <path d="m75.215 247.65c-0.19453 0.0551-0.39759 0.0792-0.58342 0.16536-0.38273 0.17759-0.63594 0.47274-0.93224 0.78858-0.52646 0.56117-1.0308 1.1428-1.3586 1.8908-0.14742 0.24458-0.31007 0.47745-0.44235 0.73328-0.33695 0.65169-0.57731 1.3639-0.82476 2.0655-0.0826-0.0981-0.19582-0.14883-0.31006-0.14883-0.21699 0-0.43408 0.17695-0.43408 0.53072-5e-3 1.6378-0.0854 3.2767-0.01 4.9155 0.0292 0.63318 0.0845 1.2643 0.12661 1.8965 0.0478 0.68951 0.0773 1.3811 0.14366 2.0686 0.0988 1.0242 0.43383 3.4242 0.58085 4.423 0.32654 2.2182 0.6915 4.4248 1.0924 6.6265 0.41699 2.4242 1.0818 4.7761 1.6226 7.1634 0.3941 1.9096 0.19201 0.98229 0.60254 2.7843 0.0821 0.39622 0.16385 0.79182 0.24599 1.188 0.0573 0.35221 0.10293 0.70794 0.17208 1.0573 0.0618 0.31233 0.16544 0.61273 0.22117 0.92656 0.0498 0.2807 0.0531 0.56976 0.0951 0.85215 0.33672 2.2599-0.0211-0.63555 0.21445 1.3529 0.0558 0.30635 0.0719 0.38628 0.0842 0.4594-0.3444 0.10684-0.39546 0.5304-0.2279 0.77566-0.38542 0.76449-0.65258 1.5364-0.78134 2.2913-0.19884 1.1659-0.1758 1.4165 0.23512 2.513 0.59848 1.5969 1.8648 2.8386 3.5817 3.5125 1.5652 0.61431 2.8339 0.64148 4.2308 0.0915 1.4806-0.58321 2.1095-1.136 3.4396-3.0241 1.4069-1.9972 2.3283-3.8167 2.6133-5.162 0.19276-0.91002 0.17149-1.0902-0.19948-1.7084-0.81701-1.3614-2.407-2.6994-4.0184-3.3812-0.8388-0.3549-1.8593-0.65819-2.2676-0.67386-1.0184-0.0392-2.4479 0.58552-3.621 1.5818-0.87364 0.742-1.6275 1.5501-2.2433 2.389-0.116-0.79762-0.27625-1.7864-0.49299-3.0127-0.33469-1.9194 0.0152-0.23191-0.43873-2.2743-0.30677-1.3776-0.29707-1.3771-0.65268-2.7874-0.13222-0.52435-0.28111-1.0429-0.40669-1.5694-0.43821-1.837-0.7856-3.7032-1.1937-5.549-0.29457-1.7488-0.5868-3.4992-0.85473-5.2545 0.18055 0.0352 0.38031-0.0562 0.47646-0.33331 0.0337-0.37161 0.24882-0.69698 0.37931-1.0335 0.23638-0.60971 0.23713-0.75279 0.56224-1.3436 0.13228-0.24035 0.29176-0.45925 0.4377-0.68885 0.12641-0.23089 0.23837-0.47355 0.3793-0.69298 0.12966-0.20188 0.28425-0.38063 0.42995-0.56741 0.34093-0.43706 0.68536-0.87034 1.1689-1.0981 0.0997-0.0469 0.20904-0.0593 0.31368-0.0889 0.1 0.0512 0.21345 0.0767 0.30024 0.15348 0.827 0.73177 1.712 2.4233 2.3141 3.3435 0.43166 0.65967 0.88663 1.2987 1.3234 1.9539 0.46906 0.70357 0.92954 1.4149 1.3942 2.1224 1.2511 1.8809 2.5333 3.7365 3.9062 5.502 0.2789 0.35863 1.4512 1.8605 1.9022 2.188 0.27543 0.19999 0.61152 0.25726 0.91726 0.38603 0.3674-0.14804 0.78539-0.18341 1.1023-0.44391 0.58163-0.47816 1.5046-2.2063 1.8211-2.8293 0.31074-0.61167 0.58227-1.2488 0.87333-1.8733 1.2-2.5746 0.61109-1.2988 1.774-3.8411 0.68718-1.4716 1.389-2.9368 2.2272-4.3031 0.33283-0.54252 0.63713-1.0391 1.0893-1.4537 0.11844-0.10857 0.2635-0.1712 0.39533-0.25684 0.0949 0.045 0.20512 0.0602 0.28473 0.13488 0.13567 0.12716 0.2327 0.30148 0.3452 0.45579 1.11 1.5225 0.34286 0.42135 1.4573 2.4639 0.32835 0.6018 0.67975 1.1865 1.0196 1.7797 0.3635 0.67324 0.72636 1.3468 1.0899 2.02 1.719 2.8132 3.4407 5.6772 5.5599 8.1199 0.24222 0.27923 0.50411 0.53495 0.75602 0.80254 0.23071 0.14167 0.43054 0.42774 0.69195 0.4253 0.96234-9e-3 1.2383-0.88121 1.5415-1.7374 0.1977-0.55826 0.32155-1.1477 0.46353-1.7281 1.384-5.6921 0.69309-4.0704 1.9963-9.6836 0.24325-1.108 0.48381-1.8902 0.93689-2.8861 0.10071-0.10958 0.17866-0.25726 0.30231-0.32918 0.0648-0.0377 0.15822-0.0223 0.21652 0.0274 0.0881 0.0751 0.11275 0.21768 0.18397 0.31367 0.20489 0.27614 0.44014 0.52118 0.64234 0.79996 0.73986 1.0201 1.3409 2.0275 2.02 3.1109 0.4117 0.6508 0.83163 1.2951 1.2356 1.9523 0.41455 0.67449 0.80323 1.3697 1.2201 2.0423 0.96259 1.5532 1.4168 2.1862 2.4226 3.6649 0.35361 0.51991 0.68826 1.0577 1.0604 1.5601 0.32857 0.44358 0.69317 0.85037 1.0397 1.2754 0.78195 0.91669 1.6368 1.8138 2.6805 2.3213 0.57295 0.27863 1.1115 0.46267 1.6852-0.0444 0.33381-0.29508 0.50778-0.77301 0.76171-1.1596 0.189-0.53302 0.40569-1.0544 0.56689-1.5994 0.17894-0.60502 0.30718-1.2282 0.45165-1.8454 0.5182-2.2136 0.91599-4.4588 1.3612-6.6926 0.0805-0.33197 0.35442-1.5634 0.52917-1.941 0.0908-0.19624 0.23504-0.35274 0.36483-0.51728 0.0989-0.12538 0.19236-0.266 0.31988-0.35037 0.24896-0.16472 0.49006-0.11691 0.75551-0.10801 0.14002 0.0629 0.29038 0.10127 0.42013 0.18862 1.037 0.69828 1.825 1.878 2.5978 2.898 1.6432 2.1688 0.99308 1.2542 2.5244 3.6918 1.3529 1.8612 2.3839 3.9811 3.5683 5.979 0.31643 0.53377 0.66739 1.0402 0.97565 1.5803 2.1872 3.8323-0.57593-0.7187 1.3296 2.3802 0.52341 0.94255 0.29347 0.50501 0.69815 1.3064 0.32863 0.58932 1.0516 0.0539 0.72295-0.53537-0.39039-0.82382-0.15286-0.38821-0.74001-1.2842-1.1574-2.4334 0.23465 0.35928-1.3674-2.3595-0.31566-0.53573-0.56948-1.1169-0.87644-1.6593-1.1566-2.0437-2.5068-3.9357-3.5595-6.0591-1.8598-2.6702-0.81463-1.2131-2.6551-3.6928-0.80815-1.0888-1.7675-2.5457-2.9218-3.2091-0.24404-0.14024-0.52227-0.18079-0.78342-0.2713-0.51736 0.0931-0.78774 0.0774-1.2423 0.40927-0.99662 0.72758-1.1817 2.1438-1.5338 3.3269-0.27393 1.6081-0.53557 3.2098-0.86455 4.8049-0.25504 1.2366-0.47722 2.3962-0.84542 3.5962-0.14531 0.47356-0.33737 0.92637-0.50592 1.3896-0.0636 0.12285-0.41735 1.0165-0.73432 1.0728-0.41302 0.0734-1.0377-0.40621-1.3131-0.61495-0.70557-0.53486-1.1225-0.98933-1.7772-1.6319-0.73712-0.98403-1.3331-1.7549-2.0288-2.7957-0.38657-0.57832-0.74749-1.1792-1.124-1.7663-1.2511-1.9511-2.5566-3.8568-3.7186-5.8818-0.82916-1.3162-1.2162-1.9902-2.1022-3.191-0.48975-0.66375-0.84373-1.3112-1.6583-1.4154-0.56723-0.0726-0.76758 0.35958-1.0899 0.75292-0.63158 1.549-1.045 3.0827-1.3699 4.7578-0.12162 0.62695-0.19021 1.2661-0.31626 1.8919-0.13785 0.68443-0.31657 1.3575-0.4749 2.036-0.32578 1.9441-0.65216 3.8127-1.2273 5.6839-0.096 0.31219-0.22356 0.61048-0.32504 0.92036-0.0368 0.11239 0.0111 0.31336-0.0894 0.3452-0.16625 0.0527-0.33245-0.10577-0.49868-0.15865-0.53138-0.63363-1.0445-1.2283-1.541-1.9053-0.33977-0.46334-0.65042-0.95481-0.98495-1.4232-0.39062-0.54688-0.81855-1.0583-1.1906-1.6221-0.83572-1.2663-1.4936-2.6817-2.4071-3.884-1.5502-2.755-0.66491-1.1514-2.0924-3.8024-0.5369-0.99709-1.4244-2.8723-2.4779-3.3316-0.23928-0.10435-0.51122-0.0222-0.76688-0.0331-0.20354 0.13968-0.42517 0.24876-0.6103 0.4191-0.21482 0.19765-0.39606 0.44081-0.57981 0.67644-0.71339 0.91474-0.71876 1.0049-1.3146 2.1177-0.99576 1.8595-0.63476 1.1472-1.5348 3.2272-0.261 0.55755-1.53 3.2712-1.7859 3.8101-0.67691 1.4254-1.3534 3.0576-2.3348 4.2524-0.12494 0.15215-0.2879 0.25527-0.43201 0.38292-0.20482-0.0571-0.43545-0.0428-0.61443-0.17104-0.32816-0.23514-1.697-1.8929-1.835-2.0733-0.39474-0.51572-0.74885-1.0714-1.1333-1.5973-2.6031-3.5616-0.0977 0.0193-2.7569-3.8432-3.1792-4.7327 0.28884 0.48355-2.6629-4.1155-0.36242-0.56467-0.73013-1.1244-1.1131-1.6707-0.47384-0.67596-1.0059-1.4819-1.7002-1.9089-0.21368-0.13144-0.46676-0.14887-0.70021-0.22324-0.19453 0.0551-0.39812 0.0792-0.58395 0.16537-0.38273 0.17759-0.63542 0.47275-0.93172 0.78858-0.52646 0.56118-1.0308 1.1423-1.3586 1.8903-0.14742 0.24459-0.31007 0.47797-0.44235 0.73381-0.33853 0.65474-0.57968 1.37-0.82837 2.0748-0.31811-2.1862-0.58857-4.3806-0.76275-6.5898-0.0509-1.1629-0.14266-2.3244-0.15348-3.4887-4e-3 -0.44069 0.0335-0.88084 0.045-1.3214 0.0268-1.0259 0.0324-1.2298 0.0289-1.1891-5e-3 0.0572-0.0273 0.56419-0.0341-0.0119 0.0113 4e-3 0.0226 9e-3 0.0341 0.0119 0.18775 0.0516 0.40403-0.035 0.5054-0.32711 0.0337-0.3716 0.24883-0.69645 0.37931-1.033 0.23638-0.60971 0.23711-0.75332 0.56224-1.3441 0.13228-0.24035 0.29174-0.45874 0.4377-0.68833 0.12641-0.23089 0.23837-0.47355 0.3793-0.69298 0.12966-0.20188 0.28425-0.38063 0.42995-0.56741 0.34093-0.43706 0.68536-0.87034 1.1689-1.0981 0.0997-0.0469 0.20955-0.0598 0.31419-0.0894 0.1 0.0512 0.21294 0.0772 0.29972 0.154 0.827 0.73178 1.712 2.4233 2.3141 3.3435 0.43166 0.65968 0.88664 1.2987 1.3234 1.9539 0.46907 0.70357 0.92954 1.4149 1.3942 2.1224 1.2511 1.8809 2.5333 3.7365 3.9062 5.502 0.2789 0.35865 1.4512 1.8605 1.9022 2.188 0.27542 0.19998 0.61152 0.25727 0.91726 0.38602 0.3674-0.14803 0.78538-0.1834 1.1023-0.4439 0.58162-0.47816 1.5046-2.2068 1.8211-2.8298 0.31075-0.61167 0.58228-1.2483 0.87333-1.8728 1.2001-2.5746 0.61058-1.2983 1.7735-3.8406 0.68718-1.4716 1.389-2.9373 2.2272-4.3036 0.33282-0.54252 0.63765-1.0391 1.0899-1.4537 0.11844-0.10858 0.264-0.17119 0.39584-0.25683 0.0949 0.045 0.20513 0.0602 0.28474 0.13488 0.13567 0.12715 0.23218 0.30095 0.34468 0.45526 1.11 1.5225 0.34234 0.42186 1.4568 2.4645 0.32834 0.6018 0.68026 1.1865 1.0201 1.7797 0.3635 0.67323 0.72687 1.3468 1.0904 2.02 1.719 2.8132 3.4402 5.6772 5.5594 8.1199 0.24223 0.27921 0.50414 0.53494 0.75603 0.80253 0.23073 0.14168 0.43054 0.42773 0.69195 0.4253 0.96234-9e-3 1.2383-0.8812 1.5415-1.7374 0.19771-0.55827 0.32155-1.1477 0.46354-1.7281 0.84272-3.4658 1.0325-5.7054 1.6831-8.0817 0.11599-0.5309 0.19663-1.0717 0.31315-1.6025 0.24325-1.108 0.48383-1.8897 0.9369-2.8856 0.10073-0.10956 0.17866-0.25724 0.3023-0.32917 0.0648-0.0377 0.15771-0.0224 0.21601 0.0274 0.0881 0.0751 0.11275 0.21819 0.18397 0.31419 0.20489 0.27614 0.44066 0.52065 0.64286 0.79943 0.73987 1.0201 1.3414 2.0275 2.0205 3.1109 0.41169 0.65081 0.83112 1.2946 1.2351 1.9518 0.41455 0.67447 0.80324 1.3702 1.2201 2.0428 0.9626 1.5532 1.4168 2.1862 2.4226 3.6649 0.35361 0.51992 0.68827 1.0577 1.0604 1.5601 0.32857 0.44359 0.69367 0.85038 1.0402 1.2754 0.78194 0.91669 1.6363 1.8132 2.6799 2.3208 0.57294 0.27863 1.1115 0.46324 1.6852-0.0439 0.33379-0.29508 0.50777-0.77303 0.76171-1.1596 0.189-0.53302 0.40569-1.0544 0.56689-1.5994 0.17894-0.60502 0.30718-1.2282 0.45165-1.8454 0.5182-2.2136 0.91649-4.4594 1.3617-6.6931 0.0805-0.33197 0.35338-1.5629 0.52814-1.9404 0.0908-0.19623 0.23556-0.35328 0.36535-0.5178 0.0989-0.12539 0.19184-0.26549 0.31936-0.34985 0.24896-0.16471 0.49057-0.11691 0.75603-0.108 0.14001 0.0629 0.29038 0.10126 0.42012 0.18862 1.037 0.69827 1.825 1.8781 2.5978 2.898 1.6432 2.1688 0.99307 1.2542 2.5244 3.6918 1.3529 1.8612 2.3839 3.9811 3.5683 5.979 0.31643 0.53378 0.66738 1.0396 0.97565 1.5798 2.1872 3.8324-0.57542-0.71819 1.3302 2.3807 0.52342 0.94255 0.29348 0.50498 0.69815 1.3064 0.32864 0.58929 1.0516 0.0535 0.72295-0.53588-0.39038-0.82382-0.15336-0.38822-0.74052-1.2842-1.1574-2.4334 0.23462 0.35979-1.3674-2.359-0.31566-0.53572-0.56948-1.1169-0.87643-1.6593-1.1566-2.0437-2.5068-3.9362-3.5595-6.0596-1.8598-2.6702-0.81464-1.2126-2.6551-3.6923-0.80814-1.0888-1.767-2.5457-2.9213-3.2091-0.24405-0.14024-0.52228-0.18079-0.78342-0.2713-0.51738 0.0931-0.78775 0.0775-1.2423 0.40928-0.99661 0.72759-1.1818 2.1438-1.5338 3.3269-0.27393 1.6081-0.53661 3.2099-0.86558 4.8049-0.25505 1.2366-0.47722 2.3962-0.84542 3.5962-0.14532 0.47357-0.33686 0.92636-0.5054 1.3896-0.0636 0.12284-0.41736 1.0165-0.73432 1.0728-0.41303 0.0734-1.0378-0.40621-1.3131-0.61495-0.70559-0.53486-1.122-0.98933-1.7766-1.6319-0.73716-0.98404-1.3336-1.7549-2.0293-2.7957-0.38657-0.57833-0.74699-1.1792-1.1234-1.7663-1.2511-1.9511-2.5576-3.8573-3.7197-5.8823-0.82914-1.3163-1.2162-1.9897-2.1022-3.1905-0.48976-0.66375-0.8432-1.3117-1.6578-1.4159-0.56723-0.0726-0.76757 0.36009-1.0899 0.75344-0.63158 1.5489-1.045 3.0822-1.3699 4.7573-0.12162 0.62695-0.19022 1.2666-0.31626 1.8924-0.13786 0.68444-0.31657 1.3575-0.47491 2.036-0.32577 1.9441-0.65216 3.8122-1.2273 5.6834-0.096 0.3122-0.22306 0.611-0.32453 0.92087-0.0368 0.1124 0.0105 0.31334-0.0899 0.3452-0.16626 0.0527-0.33245-0.10577-0.49867-0.15865-0.53139-0.63364-1.0445-1.2288-1.541-1.9058-0.33977-0.46334-0.65042-0.9543-0.98496-1.4227-0.39062-0.54688-0.81855-1.0588-1.1906-1.6226-0.83571-1.2663-1.4936-2.6817-2.4071-3.884-1.5502-2.755-0.66439-1.1508-2.0919-3.8018-0.5369-0.99708-1.4249-2.8728-2.4784-3.3321-0.23928-0.10435-0.51123-0.0216-0.76688-0.0325-0.20355 0.13969-0.42568 0.24875-0.61082 0.41909-0.21482 0.19765-0.39553 0.44031-0.57929 0.67593-0.71339 0.91474-0.71876 1.0059-1.3146 2.1187-0.99577 1.8595-0.63475 1.1467-1.5348 3.2267-0.26099 0.55754-1.5305 3.2712-1.7864 3.8101-0.6769 1.4254-1.3524 3.0576-2.3337 4.2525-0.12495 0.15214-0.28842 0.25527-0.43253 0.38292-0.20482-0.0572-0.43546-0.0428-0.61444-0.17105-0.32816-0.23513-1.6975-1.8929-1.8355-2.0733-0.39475-0.51572-0.74833-1.0713-1.1328-1.5973-2.6031-3.5616-0.0972 0.0193-2.7564-3.8432-3.1792-4.7328 0.28883 0.48355-2.6629-4.1155-0.36242-0.56467-0.73116-1.1249-1.1141-1.6712-0.47384-0.67595-1.0054-1.4819-1.6996-1.9089-0.21368-0.13144-0.46678-0.14835-0.70022-0.22272z" fill="#9af28c" stroke="#33d917" stroke-width=".522" style="paint-order:markers fill stroke"/>
   <path d="m76.706 336.9c-0.0505-0.0156-0.21202 0.0231-0.57049 0.13661-0.12607 0.0399-0.1048 0.21013-0.17553 0.24778-0.22228 0.21477 0.0706-0.0932-0.20149 0.32375-0.0566 0.0866-0.12538 0.14521-0.18701 0.22058-0.28335 0.34669-0.52606 0.7663-0.8225 1.0829-0.79621 1.1228-1.5893 2.244-2.4284 3.2723-0.12795 0.17729-0.25585 0.35451-0.38378 0.53181-0.10862 0.1671-0.21294 0.34252-0.32577 0.50147-0.268 0.3775-0.55157 0.70925-0.77027 1.1752-0.43454 0.7364 0.0809 1.5305 0.51568 0.79414 0.22771-0.36859 0.44056-0.78086 0.6846-1.1205 0.11014-0.15333 0.23138-0.28091 0.34703-0.4214 0.11946-0.17609 0.23876-0.35212 0.35821-0.5282 0.32016-0.39942 0.51536-0.62738 0.81868-1.0695 0.1388-0.20229 0.26057-0.4379 0.40521-0.62784 0.14431-0.1895 0.31308-0.31425 0.45713-0.50437 0.4919-0.77846 0.23851-0.42347 0.75697-1.0716 0.35348-0.54951 0.79026-0.96004 1.1416-1.5113 0.41536 0.2189 0.83816 0.40498 1.2782 0.53954 0.93358 0.40222 1.8398 0.89302 2.768 1.3139 0.16328 0.0722 0.3238 0.15475 0.48988 0.21668 0.15792 0.0589 0.32395 0.0853 0.48158 0.14552 1.0817 0.41306-0.19055-6e-3 0.82756 0.40648 1.2608 0.51165-0.41866-0.27154 0.71812 0.27303 0.47606 0.052 0.90425 0.30708 1.3714 0.39391-0.0412 0.0836-0.0822 0.16591-0.1041 0.25297-0.037 0.14646-0.0347 0.2986-0.0526 0.44794-0.0206 0.17186-0.042 0.34362-0.063 0.51552 0.0288 0.38553-0.0501 0.80443-0.0421 1.1954 5e-3 0.22668 0.0496 0.43305 0.0588 0.65775 9e-3 0.22954-0.0136 0.47232-3e-3 0.7014 0.11577 2.5749 0.0315-1.2121 0.0768 1.3426 0.0358 0.19376 0.0716 0.38771 0.10739 0.58147 0.0173 0.17616 0.0248 0.35905 0.052 0.52868 0.0246 0.15381 0.0797 0.28259 0.10265 0.43752 0.0189 0.12771 7e-3 0.2739 0.0221 0.40398 0.0178 0.1499 0.0935 0.4188 0.12958 0.55645 0.0232 0.0552 0.0557 0.1005 0.0695 0.16572 0.0114 0.0538-0.01 0.12895 4e-3 0.18081 0.01 0.0369 0.13362 0.23204 0.16015 0.25591 0.0174 0.0141 0.0391 0.0178 0.0595 0.0247-0.0409 0.0558-0.0817 0.11176-0.12257 0.16761-0.10895 0.1488-0.21807 0.29761-0.32708 0.44635-0.14843 0.15964-0.30448 0.29844-0.44533 0.47892-0.16099 0.20625-0.30411 0.4505-0.45614 0.67578-0.49443 0.69192-1.0292 1.2934-1.5355 1.9546-0.45429 0.59328-0.89059 1.251-1.3349 1.8676-0.50493 0.51205-0.87182 1.2896-1.3159 1.9205-0.91212 1.2959 0.32791-0.54366-0.47684 0.66043-0.0815 0.29055-0.24141 0.39865-0.3741 0.59932-0.31346-0.15723-0.62671-0.32006-0.94304-0.47594-0.11794-0.0311-0.24077-0.0431-0.3542-0.0921-0.25412-0.11004-0.48308-0.30336-0.73675-0.41498-0.73708-0.3242-0.0795 8e-3 -0.83852-0.23628-0.13929-0.0447-0.27058-0.11973-0.40585-0.17963-0.68209-0.33325-1.3964-0.54841-2.1091-0.76418-0.27838-0.10394-0.5719-0.30152-0.88218-0.25861-0.0266-0.0549-0.0649-0.0756-0.10677-0.085 8e-3 -0.15859 6e-3 -0.40509 0.0116-0.51037 2.9e-4 -0.16057 5.1e-4 -0.32118 7.7e-4 -0.4818 0.0161-0.21052 0.0437-0.42388 0.0483-0.63177 5e-3 -0.24791-0.016-0.48579-0.0182-0.73109-1e-3 -0.15939 0.0111-1.5515 7e-3 -1.6917-8e-3 -0.28641-0.0359-0.56394-0.0538-0.8459 0.0614-0.80065-0.0642-1.5142-0.10643-2.2678-0.0112-0.2017 4e-3 -0.41593-0.0154-0.61348-0.0315-0.32843-0.11332-0.62209-0.1689-0.93399-0.0332-0.12223-0.0725-0.23884-0.0994-0.36683-0.0243-0.11551-0.0214-0.25353-0.0538-0.36124-0.0921-0.30588-0.33808-0.52545-0.48613-0.75474-0.2282-0.0661-0.37747-0.32107-0.57062-0.47214-0.051-0.0331 8e-3 -0.0649-0.0305-0.10723-0.12622-0.83546-0.9085-0.2706-0.78227 0.56484 0.0412 0.37568 0.0874 0.45687 0.25519 0.6884 0.17453 0.23069 0.42093 0.28449 0.60685 0.4977 0.20155 0.21628 0.37698 0.40764 0.38421 0.88267 0.0984 0.45674 0.12152 0.89786 0.16424 1.3931 0.0189 0.21846 0.0564 0.42583 0.0707 0.64678 0.0327 0.50586-2e-3 1.0442 0.0662 1.5333 0.0103 0.55668 0.0316 1.109 0.0337 1.6688 1e-3 0.25993-0.0168 0.52655-0.0122 0.78503 4e-3 0.23101 0.0385 0.4487 0.0387 0.68126 1.5e-4 0.19043-0.0583 0.84197-0.0775 1.0698-0.0474 0.62647-0.11566 1.3616 0.25542 1.6145 0.10012-0.0381-0.0245-5e-3 0.0582 0.0209 0.0518 0.0156 0.0701-0.15193 0.0865 5e-3 0.0704-0.0555-5e-3 -0.0109 0.035 9e-3 0.0311 0.0169 0.0304-0.0592 0.0635-0.0109 0.0727 0.10504-0.0317 0.11754 0.098 0.058 0.10996 3e-3 0.0544-0.0161 0.16015 0.0786 0.045 8e-3 0.098-0.0424 0.1423-0.0308 0.0526 0.0141 0.0877 0.086 0.13917 0.10473 0.14034 0.0499 0.30889-0.0325 0.43661 0.0811 0.30405 0.13427 0.61745 0.2199 0.92796 0.33009 0.25363 0.0908 0.49901 0.21272 0.75362 0.29963 0.13447 0.0463 0.27385 0.0724 0.41082 0.10832 0.75269 0.35461 1.5263 0.63598 2.2695 1.023 0.10389 0.0297 0.21107 0.046 0.31223 0.0864 0.33228 0.13568 0.13329 0.12317 0.40681 0.21411 0.0659 0.0219 0.1528-0.0191 0.20199 0.0464 0.0179 0.0239 0.0152 0.0741 0.0229 0.11129 0.082-0.0234 0.0797 0.0617 0.16454 0.0972 0.16636 0.0699 0.28763 0.0141 0.45224-0.16313 0.0306-0.0511 0.0567-0.11067 0.0917-0.15272 0.0197-0.0238 0.0496-8e-3 0.0661-0.0374 0.0251-0.0452 0.02-0.1152 0.0443-0.16145 0.13392-0.25487 0.37449-0.21003 0.43731-0.60648 0.25067-0.35185 0.46797-0.74367 0.70964-1.1116 0.32791-0.49922 0.68039-0.95458 1.0094-1.4518 0.9457-1.2569 1.8834-2.533 2.8374-3.7698 0.63087-0.82015 0.31199-0.41006 0.91022-1.1718 0.4012-0.51084 0.81755-0.89932 1.001-1.6984 0.023-0.47174 0.0232-0.37401-0.13901-0.66526-0.0198-0.0355 7e-3 -0.0955-0.0481-0.0702 0.0132-0.0603-0.18832-0.18637-0.25985-0.21746-0.0162-0.0908-0.0326-0.22337-0.0336-0.23079-0.0706-0.26033-0.0436-0.10582-0.0617-0.4772-0.0265-0.11613-0.0939-0.18797-0.12364-0.30102-0.11376-0.43267-0.11341-0.98049-0.17568-1.4485-0.0391-0.85273-0.10921-1.686-0.13559-2.5453-6e-3 -0.18412-0.024-0.36412-0.0153-0.55313 7e-3 -0.15521 0.0419-0.31363 0.0628-0.47047-3e-3 -0.56719-0.0264-0.0916 0.0496-0.53632 0.0122-0.0732 6e-3 -0.14724 0.0235-0.21939 0.0494-0.20602 0.1892-0.38257 0.20262-0.60896 0.0539-0.92449-0.12587-0.75921-0.51739-0.99317-0.47852-0.0913-0.91916-0.32522-1.3877-0.46291-0.81698-0.10629 0.11603 0.0781-0.69621-0.30282-0.13169-0.0619-0.2846-0.0402-0.41715-0.0989-0.14355-0.0639-0.26347-0.20208-0.40677-0.26695-0.31402-0.14161-0.67486-0.10551-0.96352-0.34599-0.9273-0.42566-1.856-0.84555-2.7954-1.226-0.45051-0.16975-0.87827-0.47109-1.3416-0.56778 0.0858-0.10441 0.14645-0.17438 0.096-0.18996zm7.6793 4.3326c-2e-3 0.0644-0.016 0.12427-0.0351 0.18171 3e-3 -0.0563 0.0273-0.12333 0.0351-0.18171zm0.10076 0.42367c0.0911 0.0352 0.0601 0.0439 0 0zm0.85991 7.1114c8e-3 6e-3 0.01 8e-3 0.0206 0.0156 7e-3 0.0141 0.0153 0.0253 0.0214 0.0395-9e-3 6e-3 -0.0196 0.0125-0.0253 6e-3 -5e-3 -6e-3 -0.0107-0.03-0.0166-0.0614zm-0.30523 1.2985c6.1e-4 1.4e-4 1e-3 5.3e-4 2e-3 8e-4 -6e-4 -2e-4 -2e-3 1e-3 -2e-3 1e-3 -1.6e-4 -4e-5 5e-5 -2e-3 -2.3e-4 -2e-3zm0.0444 0.0322c4e-3 0.0352 5.6e-4 0.10145-0.0105 0.0836-0.0112-0.0185-0.0203-0.0471-0.0278-0.08 0.0131-5.3e-4 0.0261-1e-3 0.0383-3e-3zm-13.188 5.9354c0.0149 6e-3 0.0325 0.0438 0.0505 0.0833-0.0195 0.0109-0.0184 0.0322-0.0691-0.0746 6e-3 -9e-3 0.012-0.0125 0.0189-9e-3zm78.266 5.7674c-0.0505-0.0156-0.21202 0.0231-0.57047 0.13646-0.12617 0.04-0.10469 0.21017-0.1755 0.24781-0.22228 0.21476 0.0707-0.0932-0.20152 0.32372-0.0565 0.0866-0.12549 0.14521-0.18702 0.22058-0.28336 0.34669-0.52605 0.76632-0.82252 1.0829-0.79619 1.1228-1.5892 2.244-2.4284 3.2723-0.12792 0.17729-0.25585 0.35449-0.38377 0.5318-0.10861 0.16709-0.21294 0.34253-0.32578 0.50148-0.268 0.37752-0.55156 0.70924-0.77028 1.1752-0.43454 0.73637 0.0809 1.5305 0.51569 0.79416 0.2277-0.36863 0.44055-0.78087 0.68461-1.1205 0.11009-0.15334 0.23137-0.28091 0.34701-0.4214 0.11941-0.17606 0.23876-0.35213 0.3582-0.52821 0.32019-0.3994 0.51538-0.62736 0.81871-1.0694 0.13877-0.2023 0.26055-0.4379 0.4052-0.62785 0.1443-0.18949 0.31308-0.31424 0.45713-0.50434 0.49189-0.77848 0.23851-0.42349 0.75697-1.0717 0.35349-0.54951 0.79026-0.96001 1.1416-1.5113 0.41536 0.2189 0.83814 0.40497 1.2782 0.53953 0.93357 0.40222 1.8397 0.89301 2.768 1.314 0.16328 0.0722 0.32383 0.15459 0.48989 0.21666 0.15792 0.0591 0.32393 0.0853 0.48156 0.14552 1.0817 0.41292-0.19054-6e-3 0.82756 0.4065 1.2608 0.51163-0.41866-0.27156 0.71812 0.27302 0.47607 0.0521 0.90426 0.30709 1.3714 0.3939-0.0412 0.0836-0.0823 0.16589-0.10415 0.25294-0.037 0.14646-0.0347 0.29861-0.0526 0.44795-0.0208 0.17185-0.042 0.34363-0.0629 0.51556 0.0288 0.38555-0.0501 0.80441-0.0422 1.1954 4e-3 0.22668 0.0496 0.43307 0.0588 0.65775 9e-3 0.22952-0.0136 0.47231-3e-3 0.7014 0.11577 2.5749 0.0315-1.2121 0.0767 1.3426 0.0358 0.19376 0.0716 0.38774 0.10739 0.58148 0.0173 0.17618 0.0249 0.35906 0.052 0.52867 0.0246 0.15381 0.0797 0.28261 0.10266 0.43752 0.0189 0.12755 7e-3 0.27392 0.0222 0.40399 0.0178 0.1499 0.0935 0.41881 0.12954 0.55645 0.0232 0.0552 0.0557 0.10051 0.0694 0.16572 0.0108 0.0539-9e-3 0.12896 4e-3 0.18082 9e-3 0.0369 0.1336 0.23204 0.16016 0.25591 0.0173 0.0141 0.0392 0.0178 0.0594 0.0247-0.0409 0.0558-0.0817 0.11176-0.12252 0.16761-0.10901 0.1488-0.21807 0.29761-0.32709 0.44634-0.14842 0.15968-0.30447 0.29845-0.44534 0.47893-0.16096 0.20625-0.3041 0.45048-0.45614 0.67578-0.49443 0.69193-1.0292 1.2934-1.5355 1.9546-0.45429 0.59328-0.89058 1.251-1.3349 1.8676-0.50494 0.51205-0.87181 1.2895-1.3159 1.9205-0.91212 1.2959 0.32793-0.5437-0.47684 0.66042-0.0806 0.29084-0.2414 0.39863-0.37409 0.5993-0.31348-0.15721-0.62668-0.32019-0.94304-0.47593-0.11793-0.0311-0.24077-0.0431-0.35418-0.0922-0.25412-0.11004-0.48307-0.30336-0.73678-0.41481-0.7371-0.32422-0.0794 8e-3 -0.83852-0.23628-0.13928-0.0447-0.27059-0.11973-0.40585-0.17963-0.68206-0.3334-1.3964-0.54827-2.1091-0.76419-0.27837-0.10395-0.57188-0.3015-0.88217-0.2586-0.0266-0.0549-0.0648-0.0756-0.10672-0.085 8e-3 -0.15859 7e-3 -0.40509 0.0122-0.51035 2.4e-4 -0.16061 5.3e-4 -0.32118 7.9e-4 -0.48184 0.0161-0.21048 0.0438-0.42384 0.0484-0.63173 5e-3 -0.24792-0.0159-0.4858-0.0181-0.73111-1e-3 -0.15938 0.0108-1.5514 7e-3 -1.6917-8e-3 -0.28642-0.0359-0.56393-0.0539-0.8459 0.0613-0.80066-0.0643-1.5142-0.10645-2.2678-0.0108-0.20172 4e-3 -0.41596-0.0154-0.61348-0.0315-0.32842-0.11333-0.6221-0.16891-0.934-0.0331-0.12223-0.0724-0.23882-0.0994-0.36682-0.0243-0.11551-0.0213-0.25352-0.0539-0.36126-0.092-0.30585-0.33806-0.52542-0.4861-0.75471-0.22823-0.0661-0.37749-0.32109-0.57064-0.47216-0.0509-0.0331 8e-3 -0.0647-0.0304-0.10723-0.12617-0.83545-0.90852-0.2706-0.78228 0.56481 0.0412 0.37572 0.0874 0.45687 0.25519 0.6884 0.17453 0.23071 0.42094 0.28451 0.60685 0.49775 0.20155 0.21628 0.37697 0.40762 0.38421 0.88266 0.0983 0.45672 0.12158 0.89787 0.16427 1.3931 0.0188 0.21844 0.0565 0.42583 0.0706 0.64679 0.0327 0.50586-3e-3 1.0442 0.0662 1.5333 0.0108 0.55666 0.0316 1.109 0.0338 1.6688 1e-3 0.25993-0.0169 0.52654-0.0122 0.78503 4e-3 0.23104 0.0385 0.44873 0.0388 0.68126 8e-5 0.19043-0.0582 0.84197-0.0775 1.0697-0.0473 0.62651-0.11563 1.3616 0.25541 1.6145 0.10009-0.0381-0.0246-5e-3 0.0582 0.0209 0.0517 0.0156 0.0701-0.15193 0.0865 5e-3 0.0704-0.0555-5e-3 -0.0109 0.0351 9e-3 0.0311 0.0169 0.0303-0.0592 0.0635-0.0109 0.0727 0.10504-0.032 0.11754 0.0981 0.058 0.10983 3e-3 0.0543-0.0161 0.16013 0.0786 0.045 8e-3 0.0979-0.0424 0.14229-0.0308 0.0527 0.0141 0.0877 0.0858 0.13915 0.10457 0.14037 0.0499 0.3089-0.0325 0.43658 0.0813 0.30406 0.13427 0.61746 0.21988 0.92798 0.33009 0.25361 0.0908 0.499 0.21271 0.75361 0.29962 0.13441 0.0463 0.27384 0.0724 0.41082 0.10832 0.75261 0.35491 1.5263 0.63599 2.2695 1.0231 0.10388 0.0297 0.21107 0.046 0.31224 0.0864 0.33228 0.13567 0.13333 0.12317 0.40681 0.21409 0.0658 0.0219 0.15279-0.0191 0.20195 0.0466 0.018 0.0239 0.0151 0.0741 0.0228 0.11114 0.082-0.0234 0.0797 0.0617 0.16452 0.0972 0.16638 0.07 0.28763 0.0141 0.45225-0.16315 0.0305-0.051 0.0567-0.11067 0.0916-0.15272 0.02-0.0236 0.0497-8e-3 0.0661-0.0374 0.0253-0.0452 0.0201-0.11504 0.0443-0.16146 0.13387-0.25488 0.3745-0.21002 0.43732-0.60648 0.25068-0.35185 0.46795-0.74364 0.70966-1.1116 0.32787-0.49921 0.68035-0.95456 1.0094-1.4518 0.94571-1.257 1.8834-2.533 2.8374-3.7698 0.63087-0.82012 0.31199-0.41004 0.91022-1.1718 0.40118-0.51086 0.81756-0.89932 1.001-1.6984 0.023-0.47174 0.0231-0.37403-0.13901-0.66529-0.0199-0.0355 7e-3 -0.0955-0.0481-0.07 0.0122-0.0606-0.18833-0.18637-0.25984-0.21746-0.0162-0.0908-0.0327-0.22336-0.0336-0.23077-0.0707-0.26033-0.0438-0.10598-0.0617-0.47718-0.0266-0.11598-0.0939-0.18799-0.1236-0.30105-0.11374-0.43268-0.11334-0.98049-0.17567-1.4485-0.039-0.85272-0.10928-1.686-0.13558-2.5453-5e-3 -0.18412-0.0241-0.36409-0.0153-0.55308 7e-3 -0.15522 0.0419-0.31364 0.0627-0.47052-3e-3 -0.56719-0.0265-0.0916 0.0497-0.53632 0.0122-0.0731 7e-3 -0.14724 0.0235-0.21937 0.0484-0.20636 0.18916-0.3826 0.20263-0.60897 0.0539-0.9245-0.1259-0.75921-0.51739-0.99318-0.47853-0.0913-0.9192-0.32506-1.3877-0.46291-0.81699-0.10629 0.11591 0.078-0.69622-0.30282-0.13171-0.0617-0.28464-0.04-0.41716-0.0989-0.14354-0.0639-0.26345-0.20206-0.40674-0.26693-0.314-0.14177-0.67488-0.10551-0.96355-0.34599-0.9273-0.42566-1.856-0.84554-2.7953-1.226-0.45054-0.16976-0.87829-0.47109-1.3416-0.56779 0.0858-0.10441 0.14644-0.17436 0.0959-0.18996zm7.6792 4.3326c-1e-3 0.0646-0.0159 0.12427-0.0352 0.18166 3e-3 -0.0563 0.0277-0.12317 0.0352-0.18166zm0.10078 0.42368c0.0912 0.0352 0.0601 0.0439 0 0zm0.85991 7.1114c7e-3 6e-3 9e-3 8e-3 0.0207 0.0156 7e-3 0.0141 0.0154 0.0253 0.0215 0.0395-9e-3 6e-3 -0.0196 0.0125-0.0253 6e-3 -5e-3 -6e-3 -0.0108-0.03-0.0166-0.0614zm-0.30523 1.2985c5.3e-4 1.4e-4 3e-3 1e-3 3e-3 8e-4 -5.3e-4 -1.9e-4 -3e-3 5.3e-4 -3e-3 5.3e-4 -2.3e-4 -8e-5 8e-5 -2e-3 -2e-4 -2e-3zm0.0445 0.0322c4e-3 0.0352 5.3e-4 0.10144-0.0108 0.0835-0.0108-0.0183-0.0204-0.0469-0.028-0.08 0.0121-5.3e-4 0.0261-1e-3 0.0382-3e-3zm-13.188 5.9354c0.015 6e-3 0.0325 0.0439 0.0504 0.0833-0.0196 0.0109-0.0178 0.0324-0.069-0.0746 5e-3 -9e-3 0.0121-0.0125 0.0189-9e-3zm-9.3822-23.011c-0.0209-0.0141-0.0611 0.04-0.1286 0.19658-0.0971-0.0421-0.18461-0.13099-0.29081-0.12786-0.0592 2e-3 -0.11482 0.10441-0.1745 0.1413-0.0263 0.0163-0.0531 2.5e-4 -0.0796 0.0156-0.16513 0.0936-0.33014 0.21897-0.47016 0.42302-0.20449 0.2087-0.42038 0.37811-0.62074 0.60021-0.13921 0.15428-0.26339 0.34882-0.4008 0.5081-0.16126 0.18701-0.33078 0.34866-0.49418 0.52953-0.91119 1.0086-0.21682 0.31802-1.2176 1.2526-0.74839 0.95092-1.5216 1.8315-2.2904 2.7287-0.047-0.11629-0.0979-0.22777-0.14947-0.33469-8e-3 -0.0411-0.0168-0.0819-0.0253-0.12286-0.31631-0.66061-1.0039 0.29821-0.68754 0.95886 0.0215 0.0125 0.0434 0.0225 0.0642 0.036-1e-3 0.0508-0.0203 0.11552-4e-3 0.1524 0.0184 0.0408 0.0694 0.0109 0.0927 0.0455 9e-3 0.0125 0.0216 0.0539 0.0347 0.10551-0.36558 0.57665-0.11293 1.2608 0.24749 1.0994 0.14587 0.6295 0.20882 1.3373 0.25424 2.0331 0.0205 0.25575 0.0558 0.5045 0.0619 0.76735 7e-3 0.302-0.0176 0.61492-0.0228 0.92132-5e-3 0.34275-4e-3 0.68308-9e-3 1.026-4e-3 0.25372-0.0508 2.0669-0.0701 2.292-0.034 0.39764-0.10752 0.79824-0.16132 1.1972-0.18364 2.3008-8e-3 9e-3 -0.14998 2.1197-0.0185 0.27457-0.071 0.55901-0.0623 0.82502 0.0207 0.62151 0.21823 1.0568 0.55145 1.2464 0.18766 0.0322 0.38653 9e-3 0.56795 0.0697 0.11658 0.0385 0.21391 0.14427 0.32997 0.18449 0.13104 0.0444 0.27485 0.0305 0.40797 0.0664 0.30258 0.0814 0.58188 0.25896 0.89509 0.29754 0.86281 0.38764 1.7602 0.68219 2.5252 1.3663 0.67335 0.47401 1.3362 1.0251 1.8553 1.8371 0.0794 0.0522 0.14839 0.14302 0.23804 0.15654 0.23952 0.0363 0.53684-0.33503 0.66627-0.67894 0.25295-0.40269 0.015 1.1e-4 0.27791-0.54193 0.17935-0.36974 0.27528-0.51113 0.48463-0.86335 0.20325-0.40939 0.33731-0.88988 0.55817-1.2823 0.89726-1.7393-0.17121 0.39524 0.64984-1.4521 0.1078-0.24251 0.24071-0.45723 0.35342-0.69468 0.30008-0.63216 0.55897-1.3104 0.87627-1.9251 0.26924-0.53756 0.52841-1.074 0.87331-1.4934 0.10672-0.12972 0.22485-0.22538 0.33366-0.34946 0.60792-0.69298-0.014-0.0742 0.60298-0.66049 0.27035-0.20539 0.54566-0.36303 0.81566-0.56162 0.0785-0.0577 0.15192-0.14318 0.23076-0.19928 0.072-0.0513 0.14929-0.0613 0.21979-0.12145 0.0775-0.0664 0.14516-0.16864 0.21779-0.25294 0.0578-0.15506 0.12684-0.30355 0.17316-0.46536 0.0644-0.22546 3e-3 -0.49788 0.0719-0.72854 0.0558-1.0845-0.0453 0.62483 0.0663-0.49526 0.0415-0.41743-0.10037-0.75273-0.0879-1.1566-0.16838-1.1165-0.46628-2.1467-0.79478-3.1123-0.15946-0.75431-0.35967-1.4475-0.55084-2.1714-0.25119-0.95123-0.0721-0.31819-0.26633-1.2164-0.0347-0.16085-0.0774-0.31441-0.11617-0.47162-0.25808-1.0965 0.0739 0.23842-0.20372-0.67299-0.0802-0.2634-0.12766-0.62111-0.36706-0.60801-0.0442-0.31959-0.0983 0.0807-0.17269-0.0209-0.0813-0.1116 0.0482-0.12973-0.0817-0.0803-0.0766-0.0239-0.0409-2e-3 -0.10644-0.0674-0.0513-0.0166-0.12874 0.0195-0.1512-0.0567-0.0567 0.0955-0.0559-0.0464-0.13856-0.0167-0.12617-0.0109-0.0647 0.0208-0.17139-0.13271-0.0543-0.0109-0.11699 0.0769-0.17291 0.0747-0.22874-9e-3 -0.46954-0.3286-0.7218-0.24319-0.72045-0.36259-1.4984-0.50947-2.2547-0.73321-0.22855-0.0907-0.46506-0.15131-0.69145-0.24985-0.10212-0.0438-0.19259-0.12801-0.29646-0.16554-0.77676-0.28294 0.16524 0.16143-0.53111-0.0817-0.0627-0.0217-0.11644-0.0741-0.17452-0.11098-0.0217-6e-3 -0.0429-0.0175-0.0644-0.028 0.0394-0.25675 0.0639-0.49591 0.0267-0.52054zm-0.8069 0.68096c2.6e-4 1e-3 1e-3 3e-3 7.9e-4 8e-3 -0.03 0.1041-0.0521 0.1647-0.0677 0.20359 2.7e-4 -0.0352 4e-3 -0.0744 0.0135-0.12473 5e-3 -0.0316 0.0507-0.0947 0.055-0.0869zm1.8077 1.5019c0.0322 0.0156 0.14729 0.0714 0.43038 0.1964 0.39145 0.13333 0.79548 0.20311 1.1795 0.3667 0.12698 0.0536 0.2468 0.13177 0.37475 0.18149 0.14834 0.0575 0.53671 0.14709 0.69734 0.18593 0.33393 0.17947 0.68635 0.31321 1.052 0.34808 0.11658 8e-3 9e-3 -0.0267 0.0678 0.0789 5e-3 9e-3 0.0212-0.0288 0.0297-0.0242 9e-3 5e-3 0.0149 0.0223 0.0236 0.0305 0.0438-0.035 0.0689 0.0413 0.0983 0.0441 0.0211 2e-3 0.0451-0.036 0.0658-0.0313 0.0408 0.0109 0.0635 0.0724 0.0974 0.10427 0.0157 9e-3 0.0294 0.0378 0.0484 0.0275 0.0262-0.0125 0.0424-0.0813 0.0685-0.0871 0.0192-3e-3 0.0172 0.0531 0.0336 0.0644 0.014 9e-3 0.0353-0.0156 0.0504-8e-3 0.0199 8e-3 0.0313 0.0169 0.0421 0.0222-0.0122 5.3e-4 -0.0242 8e-5 -0.037 5e-3 -0.0219 5e-3 0.0316 3e-3 0.0584 0.0197-0.0164 9e-3 -0.1078-0.0156 3e-3 9e-3 -7e-3 9e-3 5.3e-4 0.0141 0.0122 0.0156 0.0224 0.0827 0.0155 0.18938 0.0258 0.28259 0.0147 0.13474 0.032 0.26749 0.048 0.40129 0.29847 0.71581 0.40822 1.6185 0.62229 2.4187 0.13063 0.48803 0.28196 0.95492 0.41722 1.4383 0.0611 0.23013 0.12212 0.46026 0.18325 0.69041 0.0447 0.21651 0.0816 0.44045 0.13454 0.6497 0.1683 0.66547 0.15211 0.35757 0.28104 0.99411 0.29144 1.4385-0.15444-0.50851 0.12725 0.69518 0.10483 0.23014 0.0154 0.51954 0.0203 0.79468 7e-3 0.36024 0.0435-0.0994 9e-3 0.23954-0.0169 0.0707-0.0716 0.27724-0.0655 0.35826 8e-4 8e-3 4e-3 0.0177 5e-3 0.0247-0.0161 0.0141-0.0312 0.0302-0.0469 0.0388-0.36948 0.20714-0.71516 0.49981-1.0735 0.79219-0.83822 0.65676-1.5524 1.7054-2.1537 2.8942-0.0997 0.2191-0.19467 0.44334-0.29908 0.65723-0.33604 0.68768-0.6885 1.3574-0.9916 2.083-0.77289 1.8501 0.20337-0.2887-0.61364 1.4615-0.25781 0.57822-0.58759 1.0827-0.85748 1.6441-0.0639 0.13302-0.10577 0.2871-0.16832 0.42158-0.35972 0.77235-0.0867 0.0946-0.19655 0.37332-0.0424-0.0513-0.10172-0.11988-0.20975-0.23683-0.11117-0.12036-0.23865-0.2036-0.352-0.31914-0.13076-0.13318-0.24526-0.30182-0.37967-0.42672-0.13933-0.12943-0.29645-0.21451-0.43961-0.33475-0.14311-0.12021-0.27918-0.25734-0.41876-0.38612-0.58748-0.3119-1.118-0.79525-1.731-1.0276-1.2542-0.47543 0.28665 0.23565-0.94777-0.36009-1.5331-0.53659 0.55048 0.16265-0.93067-0.24122-0.13508-0.0367-0.25825-0.12145-0.39373-0.1564-0.11942-0.0316-0.24992-8e-3 -0.36916-0.041-0.17485-0.0483-0.33428-0.15633-0.50473-0.22242-0.0373-0.0341-0.0829-0.0514-0.11158-0.10191-8e-3 -0.0141 0.0135-0.0417 0.0185-0.063 0.0121-0.0617 0.0334-0.12302 0.0389-0.18499 0.0176-0.19997 0.0122-0.39581 0.0301-0.5958 0.1891-2.141 0.0373 0.39413 0.16108-2.0475 0.26631-2.2004 0.33912-4.3874 0.19235-6.4679-0.0993-0.41295-0.0282-0.91828-0.0817-1.3547-0.0208-0.16839-0.0775-0.30815-0.11185-0.46622-0.0542-0.24977-0.0785-0.46621-0.1232-0.67976 0.06-0.0589-1e-3 0.0289 0.49114-0.61593 0.18645-0.24435 0.36267-0.51203 0.55301-0.74705 0.0232-0.0286 1.2629-1.4311 1.2845-1.4556 0.54823-0.6325 1.1318-1.1574 1.6886-1.7599 0.13704-0.14834 0.26439-0.32456 0.40061-0.47546 0.19484-0.21587 0.39816-0.40447 0.59651-0.60912 0.0444-0.0271 0.0879-0.058 0.13103-0.0902 0.11428 0.12739 0.26181 0.17972 0.42624 0.22347 0.24209 0.04 0.48088 0.12724 0.70713 0.23343 0.10105 0.0483 0.18853 0.14396 0.29557 0.16852 0.8503 0.19287 0.19225-0.10785 0.28777-0.0594zm6.2409 10.649c2.4e-4 2e-3 1e-3 5e-3 1e-3 6e-3 3e-3 0.0907-0.11496 0.43479-1e-3 -6e-3zm-6.4824 10.518c-5e-3 0.12489-0.19996 0.1463-0.15599 0.0961 0.0312-0.0356 0.0919-0.0686 0.15599-0.0961zm-16.168-29.78c-0.0507-0.0156-0.21203 0.0231-0.57045 0.13646-0.12617 0.0399-0.10482 0.21019-0.17551 0.24781-0.22228 0.21477 0.0706-0.0932-0.20152 0.32373-0.0565 0.0866-0.12536 0.14521-0.18703 0.2206-0.28334 0.34668-0.52604 0.76631-0.82249 1.0829-0.79619 1.1228-1.5893 2.244-2.4284 3.2723-0.12792 0.17732-0.25585 0.35454-0.38377 0.53181-0.10861 0.16709-0.21295 0.34252-0.3258 0.50147-0.26799 0.37752-0.55154 0.70925-0.77027 1.1752-0.43452 0.73637 0.0809 1.5305 0.51568 0.79415 0.22771-0.36861 0.44058-0.78089 0.68461-1.1205 0.11009-0.15334 0.23138-0.2809 0.34703-0.42141 0.11941-0.17608 0.23876-0.35211 0.3582-0.52818 0.32018-0.39942 0.51538-0.62739 0.8187-1.0695 0.13876-0.2023 0.26058-0.43792 0.4052-0.62786 0.1443-0.18946 0.31308-0.31423 0.45713-0.50433 0.49191-0.77848 0.23851-0.42347 0.75698-1.0716 0.35348-0.54952 0.79025-0.96003 1.1416-1.5113 0.41536 0.21889 0.83815 0.40496 1.2782 0.53953 0.93359 0.40206 1.8398 0.89302 2.768 1.314 0.16328 0.0722 0.32384 0.15458 0.48987 0.21665 0.15793 0.0591 0.32396 0.0853 0.48161 0.14553 1.0817 0.41306-0.19061-6e-3 0.82754 0.4065 1.2608 0.51163-0.41867-0.27156 0.71812 0.27302 0.47607 0.0521 0.90425 0.30708 1.3714 0.39391-0.0412 0.0836-0.0823 0.16589-0.10415 0.25294-0.037 0.14646-0.0347 0.29858-0.0525 0.44794-0.0207 0.17187-0.042 0.34361-0.063 0.51555 0.0288 0.38555-0.0501 0.80441-0.0421 1.1954 4e-3 0.22671 0.0496 0.43307 0.0588 0.65776 9e-3 0.22952-0.0136 0.4723-3e-3 0.70142 0.11576 2.5748 0.0315-1.2121 0.0767 1.3426 0.0358 0.19374 0.0716 0.38771 0.1074 0.58147 0.0173 0.17616 0.0249 0.35906 0.052 0.52868 0.0247 0.15381 0.0797 0.28259 0.10267 0.43751 0.0189 0.1277 7e-3 0.27392 0.0221 0.404 0.0178 0.1499 0.0935 0.41878 0.12954 0.55644 0.0232 0.0552 0.0556 0.10051 0.0694 0.16572 0.0108 0.0539-9e-3 0.12895 4e-3 0.18077 9e-3 0.0369 0.13361 0.23209 0.16015 0.25594 0.0174 0.0141 0.0392 0.0178 0.0596 0.0247-0.0409 0.0558-0.0817 0.11176-0.12251 0.16759-0.10889 0.14881-0.21808 0.29763-0.32711 0.44634-0.14841 0.15967-0.30445 0.29847-0.44532 0.47895-0.16098 0.20625-0.30411 0.45048-0.45614 0.67577-0.49442 0.69191-1.0292 1.2934-1.5355 1.9546-0.45428 0.59327-0.89058 1.251-1.3349 1.8676-0.50492 0.51205-0.87181 1.2895-1.3159 1.9204-0.91215 1.2959 0.3279-0.54368-0.47686 0.66043-0.0807 0.29086-0.2414 0.39865-0.37411 0.59932-0.3135-0.15707-0.62666-0.3202-0.94301-0.47593-0.11793-0.0311-0.24079-0.0431-0.35423-0.0921-0.25412-0.11004-0.48308-0.30338-0.73677-0.41483-0.73709-0.32422-0.0794 8e-3 -0.83856-0.23614-0.13929-0.0447-0.27057-0.11988-0.40585-0.17963-0.68207-0.3334-1.3964-0.54841-2.1091-0.76419-0.27837-0.10395-0.5719-0.3015-0.88216-0.2586-0.0266-0.0549-0.0648-0.0755-0.10685-0.085 8e-3 -0.15859 7e-3 -0.40507 0.0121-0.51035 2.3e-4 -0.16059 5.3e-4 -0.32121 8e-4 -0.48182 0.0162-0.21052 0.0436-0.42391 0.0484-0.63177 5e-3 -0.2479-0.0161-0.48579-0.0181-0.73107-1e-3 -0.15953 0.0108-1.5515 7e-3 -1.6918-8e-3 -0.28642-0.0359-0.56391-0.0539-0.84586 0.0613-0.80068-0.0642-1.5142-0.10645-2.2678-0.0108-0.20171 4e-3 -0.41597-0.0154-0.61346-0.0315-0.32845-0.11334-0.62213-0.16888-0.93403-0.0332-0.12223-0.0725-0.23885-0.0994-0.36681-0.0243-0.11551-0.0213-0.25353-0.0539-0.36127-0.0921-0.30584-0.33809-0.52543-0.48613-0.75472-0.2282-0.0661-0.37747-0.32109-0.57063-0.47215-0.0509-0.0331 8e-3 -0.0647-0.0304-0.10723-0.12623-0.83545-0.9085-0.2706-0.78228 0.56481 0.0412 0.37572 0.0874 0.45687 0.25519 0.68841 0.17453 0.2307 0.42095 0.2845 0.60687 0.49771 0.20152 0.21628 0.37697 0.40763 0.3842 0.88267 0.0983 0.45672 0.12144 0.89787 0.16426 1.3931 0.0188 0.21846 0.0563 0.42582 0.0707 0.64679 0.0327 0.50585-3e-3 1.0442 0.0662 1.5333 0.0108 0.55667 0.0316 1.109 0.0338 1.6688 1e-3 0.25994-0.0169 0.52652-0.0121 0.78503 4e-3 0.23104 0.0385 0.44873 0.0388 0.68127 1e-4 0.1904-0.0582 0.84196-0.0775 1.0697-0.0473 0.6265-0.11564 1.3616 0.25539 1.6145 0.10009-0.0383-0.0245-5e-3 0.0582 0.0209 0.0519 0.0156 0.0702-0.15193 0.0866 5e-3 0.0704-0.0555-5e-3 -0.0109 0.0351 9e-3 0.0311 0.0169 0.0303-0.0592 0.0633-0.0109 0.0727 0.10504-0.032 0.11754 0.0981 0.058 0.10982 3e-3 0.0544-0.0161 0.16013 0.0786 0.045 8e-3 0.0979-0.0424 0.14228-0.0308 0.0527 0.0141 0.0877 0.0857 0.13922 0.10457 0.14032 0.0499 0.30887-0.0325 0.43661 0.0811 0.30404 0.13427 0.61744 0.21988 0.92795 0.33009 0.25362 0.0908 0.49902 0.21271 0.75362 0.29963 0.13455 0.0463 0.27386 0.0724 0.41082 0.10833 0.7527 0.3546 1.5263 0.63597 2.2695 1.023 0.10388 0.0297 0.21107 0.046 0.31225 0.0864 0.33225 0.13568 0.13333 0.12317 0.40679 0.2141 0.0659 0.0219 0.1528-0.0191 0.20199 0.0466 0.018 0.0241 0.0151 0.0742 0.0228 0.11129 0.082-0.0234 0.0797 0.0617 0.16458 0.0972 0.16635 0.0699 0.28766 0.0141 0.45222-0.16311 0.0305-0.051 0.0567-0.11066 0.0916-0.15287 0.02-0.0236 0.0497-8e-3 0.0661-0.0375 0.0253-0.0452 0.0201-0.11504 0.0443-0.16147 0.13387-0.25489 0.37451-0.21001 0.43731-0.60648 0.25069-0.35183 0.46798-0.74365 0.70967-1.1116 0.32789-0.49922 0.68037-0.95456 1.0094-1.4518 0.9457-1.2569 1.8834-2.533 2.8374-3.7698 0.63088-0.82015 0.312-0.41007 0.91022-1.1718 0.40119-0.51084 0.81754-0.89932 1.001-1.6984 0.023-0.47174 0.0231-0.37403-0.139-0.66529-0.0199-0.0355 7e-3 -0.0955-0.0481-0.0702 0.0122-0.0606-0.18832-0.18635-0.25986-0.21745-0.0162-0.091-0.0327-0.22337-0.0338-0.23082-0.0707-0.26032-0.0436-0.10598-0.0616-0.47718-0.0266-0.11598-0.0939-0.188-0.1236-0.30105-0.11375-0.43268-0.11348-0.98051-0.17569-1.4485-0.039-0.85274-0.10915-1.686-0.1356-2.5453-5e-3 -0.18412-0.0241-0.36409-0.0153-0.5531 7e-3 -0.15522 0.0419-0.31364 0.0628-0.47048-3e-3 -0.56718-0.0265-0.0916 0.0497-0.53631 0.0121-0.0731 7e-3 -0.14724 0.0235-0.21938 0.0484-0.20634 0.18916-0.38259 0.20264-0.60896 0.0539-0.92449-0.12591-0.75919-0.51739-0.99317-0.47852-0.0913-0.91918-0.32522-1.3877-0.46291-0.81698-0.10629 0.1159 0.078-0.69621-0.30282-0.13171-0.0619-0.28461-0.0402-0.41716-0.0989-0.14354-0.0639-0.26344-0.20206-0.40675-0.26693-0.31403-0.14161-0.67488-0.10551-0.96353-0.34597-0.92729-0.42566-1.856-0.84556-2.7953-1.226-0.45053-0.16977-0.87828-0.4711-1.3417-0.56779 0.0858-0.10442 0.14644-0.17437 0.0959-0.18998zm7.6793 4.3326c-1e-3 0.0645-0.0159 0.12426-0.0353 0.18166 3e-3 -0.0563 0.0278-0.12317 0.0353-0.18166zm0.10078 0.42364c0.0912 0.0352 0.0601 0.0439 0 0zm0.85992 7.1114c7e-3 6e-3 9e-3 8e-3 0.0205 0.0156 7e-3 0.0141 0.0153 0.0252 0.0213 0.0397-9e-3 6e-3 -0.0195 0.0125-0.0253 6e-3 -5e-3 -6e-3 -0.0108-0.03-0.0166-0.0614zm-0.30524 1.2985c5.3e-4 1.4e-4 3e-3 1e-3 3e-3 8e-4 -5.3e-4 -1.9e-4 -3e-3 5.3e-4 -3e-3 5.3e-4 -2.3e-4 -8e-5 8e-5 -2e-3 -2e-4 -2e-3zm0.0444 0.0322c4e-3 0.0352 5.3e-4 0.1016-0.0108 0.0835-0.0108-0.0184-0.0203-0.047-0.028-0.08 0.0122-5.3e-4 0.0261-1e-3 0.0382-3e-3zm-13.188 5.9354c0.015 6e-3 0.0326 0.0438 0.0504 0.0833-0.0196 0.0109-0.0178 0.0324-0.069-0.0746 5e-3 -9e-3 0.0122-0.0125 0.0189-9e-3zm-9.3822-23.011c-0.021-0.0141-0.0609 0.0399-0.12863 0.19658-0.0971-0.042-0.18458-0.13099-0.29079-0.12786-0.0592 2e-3 -0.11489 0.10441-0.17464 0.1413-0.0264 0.0163-0.053 2.7e-4 -0.0796 0.0156-0.1651 0.0936-0.33013 0.21897-0.47014 0.42302-0.20451 0.20872-0.42039 0.37811-0.62076 0.60021-0.1392 0.15428-0.26338 0.34882-0.40079 0.5081-0.16125 0.18699-0.33078 0.34866-0.49417 0.52952-0.91118 1.0086-0.21684 0.31803-1.2177 1.2526-0.74838 0.95096-1.5216 1.8316-2.2904 2.7287-0.047-0.1163-0.0979-0.22778-0.14946-0.33472-8e-3 -0.0411-0.0168-0.0819-0.0254-0.1227-0.3163-0.66064-1.0039 0.29819-0.68753 0.95886 0.0214 0.0125 0.0433 0.0225 0.0642 0.0359-1e-3 0.0508-0.0209 0.11535-4e-3 0.15224 0.0185 0.0408 0.0696 0.0125 0.0927 0.0455 0.01 0.0125 0.0216 0.0538 0.0346 0.10551-0.36557 0.57665-0.11292 1.2608 0.24751 1.0994 0.14588 0.6295 0.20883 1.3374 0.25422 2.0331 0.0206 0.2558 0.0558 0.50449 0.0619 0.76735 7e-3 0.30201-0.0177 0.61492-0.0228 0.92132-6e-3 0.34275-4e-3 0.68307-0.01 1.026-5e-3 0.25374-0.0508 2.067-0.0701 2.292-0.0341 0.39762-0.10751 0.79824-0.16132 1.1972-0.18366 2.3008-8e-3 9e-3 -0.14998 2.1197-0.0186 0.27459-0.0712 0.55899-0.0623 0.82504 0.0206 0.62147 0.21821 1.0568 0.55145 1.2464 0.18767 0.032 0.38654 9e-3 0.56797 0.0697 0.11654 0.0385 0.21393 0.14412 0.32996 0.1845 0.1311 0.0445 0.27483 0.0305 0.40798 0.0664 0.3026 0.0813 0.58185 0.25895 0.89508 0.29753 0.86279 0.38763 1.7602 0.68219 2.5252 1.3663 0.67337 0.47401 1.3362 1.0251 1.8553 1.8371 0.0794 0.0522 0.14839 0.14302 0.23803 0.15654 0.23954 0.0363 0.53684-0.33505 0.66627-0.67894 0.25295-0.40268 0.015 1.1e-4 0.2779-0.54191 0.17937-0.36976 0.27528-0.51114 0.48465-0.86337 0.20326-0.40939 0.3373-0.88988 0.55818-1.2823 0.89726-1.7393-0.17122 0.39527 0.64983-1.452 0.10785-0.24253 0.24071-0.45725 0.35343-0.69471 0.30006-0.63213 0.55897-1.3103 0.87628-1.9251 0.26922-0.53755 0.52838-1.074 0.87328-1.4933 0.1067-0.12974 0.22486-0.2254 0.33367-0.34945 0.60793-0.69301-0.014-0.0743 0.60298-0.66051 0.27036-0.20539 0.54565-0.36301 0.81566-0.56162 0.0785-0.0577 0.15192-0.14318 0.23074-0.19928 0.0721-0.0513 0.14943-0.0613 0.21983-0.12145 0.0775-0.0664 0.14517-0.16864 0.21777-0.25292 0.0578-0.15506 0.12682-0.30359 0.17316-0.4654 0.0644-0.22544 3e-3 -0.49779 0.0719-0.72847 0.0558-1.0845-0.0452 0.62482 0.0663-0.49527 0.0416-0.41738-0.10036-0.75272-0.0879-1.1566-0.16835-1.1165-0.46625-2.1467-0.79476-3.1123-0.15945-0.7543-0.35966-1.4475-0.55083-2.1714-0.2512-0.95121-0.0721-0.3182-0.26634-1.2164-0.0347-0.16083-0.0774-0.31443-0.11613-0.47163-0.25807-1.0965 0.074 0.23844-0.20369-0.67298-0.0803-0.26339-0.12767-0.62112-0.36707-0.60802-0.0442-0.31961-0.0984 0.0807-0.17268-0.0209-0.0814-0.1116 0.0482-0.12973-0.0818-0.0802-0.0766-0.0238-0.0409-2e-3 -0.10621-0.0675-0.0514-0.0166-0.12881 0.0195-0.15122-0.0567-0.0567 0.0955-0.0559-0.0466-0.13857-0.0167-0.12617-0.0109-0.0646 0.0208-0.17138-0.13271-0.0543-0.0109-0.11691 0.0769-0.17289 0.0747-0.2288-9e-3 -0.46958-0.3286-0.72182-0.24319-0.72044-0.36259-1.4984-0.50949-2.2547-0.73323-0.22855-0.0907-0.46505-0.15131-0.69145-0.24984-0.10215-0.0438-0.19259-0.12786-0.29641-0.16569-0.77678-0.28294 0.16523 0.16144-0.53111-0.0817-0.0626-0.0217-0.11638-0.0741-0.17455-0.11082-0.0217-6e-3 -0.043-0.0175-0.0645-0.028 0.0394-0.25671 0.0639-0.49589 0.0268-0.52051zm-0.8069 0.68098c2.6e-4 1e-3 2e-3 3e-3 7.9e-4 8e-3 -0.03 0.10411-0.0521 0.16471-0.0677 0.20358 2.6e-4 -0.0352 4e-3 -0.0742 0.0134-0.12473 5e-3 -0.0316 0.0507-0.0946 0.0552-0.0869zm1.8077 1.5019c0.032 0.0156 0.14729 0.0714 0.4304 0.1964 0.39143 0.13333 0.79545 0.20311 1.1795 0.3667 0.12683 0.0536 0.24678 0.13177 0.37475 0.18149 0.14831 0.0574 0.5367 0.14709 0.69732 0.18594 0.33399 0.17916 0.68635 0.3132 1.052 0.34807 0.1166 8e-3 9e-3 -0.0266 0.0678 0.0789 6e-3 9e-3 0.0212-0.0288 0.0298-0.0242 0.01 5e-3 0.0148 0.0223 0.0235 0.0305 0.0439-0.0352 0.0689 0.0413 0.0984 0.0441 0.0211 2e-3 0.0452-0.0359 0.0658-0.0313 0.0407 0.0109 0.0636 0.0724 0.0974 0.10426 0.0158 9e-3 0.0294 0.0377 0.0483 0.0273 0.0262-0.0125 0.0424-0.0813 0.0685-0.0869 0.0192-3e-3 0.0172 0.0531 0.0337 0.0641 0.0141 9e-3 0.0352-0.0156 0.0502-8e-3 0.0199 8e-3 0.0314 0.0169 0.0421 0.0222-0.0128 5.3e-4 -0.0242 9e-5 -0.037 5e-3 -0.0218 5e-3 0.0316 3e-3 0.0584 0.0197-0.0164 9e-3 -0.10777-0.0156 3e-3 9e-3 -6e-3 9e-3 5.3e-4 0.0141 0.0119 0.0156 0.0225 0.0827 0.0155 0.1894 0.0258 0.28261 0.0147 0.13458 0.032 0.26751 0.0479 0.40131 0.29849 0.71581 0.40826 1.6184 0.62233 2.4187 0.13055 0.48802 0.28195 0.95493 0.41721 1.4383 0.0611 0.23013 0.12216 0.46028 0.18323 0.69043 0.0448 0.2165 0.0816 0.44042 0.13451 0.64968 0.16831 0.66547 0.1521 0.35757 0.28104 0.99411 0.29143 1.4385-0.15444-0.50849 0.12722 0.69518 0.10488 0.23014 0.0154 0.51953 0.0203 0.79468 6e-3 0.36023 0.0435-0.0994 9e-3 0.23954-0.0169 0.0705-0.0716 0.27723-0.0655 0.35826 7.9e-4 8e-3 4e-3 0.0177 5e-3 0.0247-0.0161 0.0141-0.0312 0.0302-0.0469 0.0388-0.36945 0.20713-0.71516 0.49982-1.0735 0.79219-0.83822 0.65676-1.5524 1.7054-2.1537 2.8942-0.0997 0.21911-0.19468 0.44332-0.29908 0.65725-0.33606 0.68766-0.68852 1.3574-0.99161 2.083-0.77289 1.8501 0.20337-0.2887-0.61363 1.4615-0.25783 0.57823-0.58761 1.0828-0.85749 1.6441-0.064 0.13302-0.10572 0.28713-0.16833 0.42158-0.35971 0.77236-0.0867 0.0946-0.19655 0.37335-0.0423-0.0513-0.10167-0.11989-0.20974-0.23684-0.11112-0.12036-0.23866-0.20359-0.352-0.31915-0.13076-0.13318-0.24526-0.3018-0.37968-0.42671-0.13932-0.12942-0.29643-0.2145-0.43959-0.33475-0.1431-0.1202-0.27919-0.25733-0.41877-0.38612-0.58748-0.31189-1.118-0.79523-1.731-1.0276-1.2542-0.47543 0.28666 0.23563-0.94776-0.36009-1.5331-0.53661 0.55048 0.16266-0.93067-0.24122-0.13506-0.0367-0.25824-0.12145-0.39368-0.15655-0.11937-0.0316-0.24993-8e-3 -0.36918-0.041-0.17483-0.0483-0.3343-0.15615-0.50472-0.22242-0.0372-0.0339-0.0829-0.0514-0.11158-0.10192-8e-3 -0.0141 0.0132-0.0417 0.0184-0.063 0.0126-0.0617 0.0334-0.12302 0.0376-0.18541 0.0177-0.19992 0.0126-0.39579 0.0301-0.59581 0.18909-2.141 0.0374 0.39414 0.1611-2.0475 0.26628-2.2003 0.33911-4.3874 0.19233-6.4679-0.0993-0.41297-0.0283-0.9183-0.0817-1.3547-0.0207-0.16838-0.0775-0.30812-0.11181-0.46621-0.0542-0.24977-0.0784-0.46622-0.12316-0.67977 0.06-0.0588-2e-3 0.0288 0.49111-0.61592 0.18648-0.24436 0.3627-0.51202 0.55303-0.74705 0.0233-0.0289 1.2628-1.4311 1.2845-1.4556 0.54824-0.63254 1.1318-1.1574 1.6886-1.76 0.13704-0.14833 0.2644-0.32456 0.4006-0.47546 0.19485-0.21589 0.39817-0.40446 0.59652-0.6091 0.0444-0.027 0.0879-0.058 0.1311-0.0905 0.11437 0.12739 0.26182 0.17972 0.42625 0.22349 0.24209 0.04 0.48083 0.12739 0.70715 0.23343 0.10102 0.0481 0.18845 0.14427 0.29555 0.1685 0.8503 0.19287 0.19225-0.10785 0.28777-0.0594zm6.2409 10.649c2.4e-4 2e-3 1e-3 5e-3 1e-3 6e-3 3e-3 0.0907-0.11498 0.43482-1e-3 -6e-3zm-6.4824 10.518c-6e-3 0.12489-0.19996 0.14631-0.15599 0.0961 0.0312-0.0356 0.0917-0.0688 0.15599-0.0961zm-16.168-29.78c-0.0504-0.0158-0.21203 0.0231-0.57047 0.13645-0.12608 0.0399-0.10481 0.21016-0.17555 0.24782-0.22228 0.21478 0.0706-0.0932-0.2015 0.32374-0.0565 0.0866-0.12537 0.14521-0.18702 0.22059-0.28335 0.34667-0.52605 0.7663-0.8225 1.0829-0.7962 1.1228-1.5892 2.244-2.4284 3.2723-0.12795 0.17731-0.25586 0.35453-0.38378 0.53181-0.10862 0.16711-0.21293 0.34254-0.32579 0.50149-0.268 0.3775-0.55154 0.70922-0.77026 1.1752-0.43454 0.73637 0.0809 1.5305 0.51568 0.79414 0.2277-0.36861 0.44056-0.78089 0.6846-1.1205 0.11014-0.15333 0.23139-0.28091 0.34703-0.4214 0.11946-0.17607 0.23875-0.35211 0.3582-0.52819 0.32018-0.39943 0.51537-0.62742 0.8187-1.0695 0.1388-0.20228 0.26056-0.43793 0.40521-0.62786 0.14429-0.1895 0.31307-0.31425 0.45711-0.50435 0.49191-0.77846 0.23852-0.42349 0.75698-1.0716 0.35348-0.54952 0.79026-0.96003 1.1416-1.5113 0.41537 0.21891 0.83816 0.40498 1.2782 0.53955 0.93357 0.40221 1.8398 0.893 2.768 1.3139 0.16327 0.0722 0.32383 0.15459 0.48986 0.21666 0.15793 0.0591 0.32395 0.0853 0.4816 0.14552 1.0817 0.41306-0.1906-6e-3 0.82755 0.4065 1.2608 0.51163-0.41867-0.27156 0.71811 0.27301 0.47608 0.0521 0.90427 0.3071 1.3714 0.39393-0.0412 0.0836-0.0823 0.16586-0.10408 0.25292-0.037 0.14646-0.0347 0.29861-0.0526 0.44795-0.0207 0.17188-0.042 0.34363-0.0631 0.51552 0.0288 0.38554-0.0501 0.80441-0.0421 1.1954 5e-3 0.2267 0.0496 0.43309 0.0588 0.65777 9e-3 0.22954-0.0136 0.47233-3e-3 0.7014 0.11578 2.5749 0.0315-1.2121 0.0768 1.3426 0.0358 0.19376 0.0716 0.38772 0.10737 0.58148 0.0173 0.17618 0.0248 0.35904 0.052 0.52865 0.0247 0.15381 0.0797 0.28259 0.10265 0.43753 0.0189 0.1277 7e-3 0.27393 0.0221 0.40399 0.0178 0.1499 0.0934 0.41878 0.12958 0.55643 0.0233 0.0552 0.0556 0.10051 0.0695 0.16573 0.0114 0.0538-0.01 0.1288 4e-3 0.18078 0.01 0.0369 0.13361 0.23207 0.16014 0.25594 0.0174 0.0141 0.0392 0.0178 0.0595 0.0247-0.041 0.056-0.0817 0.11176-0.12252 0.16761-0.10898 0.14881-0.21806 0.29763-0.32709 0.44634-0.14841 0.15969-0.30448 0.29847-0.44532 0.47893-0.16098 0.20625-0.30411 0.45051-0.45614 0.67582-0.49443 0.6919-1.0292 1.2934-1.5355 1.9546-0.45429 0.59329-0.89059 1.251-1.3349 1.8676-0.50493 0.51205-0.87182 1.2895-1.3159 1.9205-0.91213 1.2959 0.32791-0.54366-0.47685 0.66042-0.081 0.29075-0.24139 0.39865-0.37409 0.59934-0.31347-0.15722-0.62668-0.3202-0.94303-0.47593-0.11796-0.0311-0.24078-0.0431-0.35419-0.0922-0.25411-0.11004-0.48307-0.30336-0.73677-0.41482-0.7371-0.32422-0.0794 8e-3 -0.83856-0.23614-0.1393-0.0447-0.27054-0.11989-0.40585-0.17963-0.68207-0.33341-1.3964-0.54841-2.1091-0.76433-0.27837-0.10395-0.57189-0.30151-0.88217-0.2586-0.0266-0.0549-0.0649-0.0757-0.10676-0.085 8e-3 -0.1586 6e-3 -0.40509 0.0116-0.51038 2.9e-4 -0.16057 5e-4 -0.3212 7.4e-4 -0.4818 0.0161-0.21054 0.0437-0.4239 0.0483-0.63177 5e-3 -0.24791-0.016-0.48581-0.0181-0.73109-1e-3 -0.15953 0.0111-1.5515 7e-3 -1.6917-9e-3 -0.28642-0.0359-0.56393-0.0539-0.8459 0.0614-0.80063-0.0642-1.5142-0.10645-2.2678-0.0112-0.20168 4e-3 -0.41594-0.0154-0.61348-0.0315-0.32845-0.1133-0.62211-0.16889-0.93401-0.0332-0.12223-0.0725-0.23885-0.0994-0.36681-0.0243-0.11551-0.0214-0.25353-0.0538-0.36126-0.0921-0.30586-0.33806-0.52543-0.48611-0.75475-0.2282-0.0661-0.37748-0.32107-0.57063-0.47213-0.051-0.0331 8e-3 -0.0649-0.0305-0.10723-0.12624-0.83544-0.90851-0.2706-0.78228 0.56482 0.0412 0.37569 0.0874 0.45689 0.2552 0.68842 0.17453 0.23069 0.42093 0.2845 0.60685 0.4977 0.20155 0.2163 0.37697 0.40762 0.3842 0.88266 0.0983 0.45674 0.12152 0.89789 0.16426 1.3931 0.0189 0.21847 0.0564 0.42585 0.0707 0.64679 0.0327 0.50586-2e-3 1.0442 0.0662 1.5333 0.0103 0.55666 0.0316 1.109 0.0337 1.6688 9.8e-4 0.25992-0.0169 0.52652-0.0122 0.785 4e-3 0.23104 0.0385 0.44874 0.0387 0.68128 1.4e-4 0.19043-0.0583 0.84196-0.0775 1.0697-0.0474 0.62649-0.11568 1.3616 0.2554 1.6146 0.10012-0.0381-0.0246-5e-3 0.0582 0.0209 0.0517 0.0163 0.0702-0.15194 0.0864 5e-3 0.0704-0.0555-5e-3 -0.0109 0.0351 9e-3 0.0311 0.0169 0.0304-0.0592 0.0635-0.0109 0.0727 0.10504-0.0317 0.11754 0.098 0.058 0.10997 3e-3 0.0545-0.0161 0.16015 0.0786 0.045 8e-3 0.0979-0.0422 0.1423-0.0308 0.0526 0.0141 0.0877 0.086 0.13917 0.10457 0.14034 0.0499 0.30889-0.0325 0.43661 0.0811 0.30405 0.13427 0.61745 0.21988 0.92796 0.3301 0.25362 0.0908 0.499 0.2127 0.7536 0.29961 0.13467 0.0456 0.27387 0.0724 0.41084 0.10832 0.75265 0.35476 1.5262 0.63599 2.2695 1.0231 0.1039 0.0297 0.21108 0.046 0.31224 0.0864 0.33228 0.13567 0.13327 0.12317 0.40681 0.21409 0.0659 0.0219 0.1528-0.0191 0.20198 0.0464 0.0179 0.0239 0.0152 0.0744 0.0229 0.11129 0.082-0.0234 0.0797 0.0617 0.16457 0.0972 0.16637 0.0699 0.28764 0.0141 0.45224-0.16314 0.0305-0.051 0.0568-0.11066 0.0916-0.15271 0.0197-0.0238 0.0496-8e-3 0.0661-0.0374 0.0251-0.0452 0.0198-0.1152 0.0446-0.16139 0.13387-0.25489 0.3745-0.21001 0.43733-0.60649 0.25067-0.35184 0.46796-0.74364 0.70966-1.1116 0.32788-0.4992 0.68036-0.95456 1.0094-1.4518 0.9457-1.257 1.8834-2.533 2.8374-3.7698 0.63088-0.82016 0.312-0.41007 0.91023-1.1718 0.40118-0.51083 0.81755-0.89931 1.001-1.6984 0.023-0.47171 0.0232-0.374-0.13899-0.66527-0.0198-0.0355 6e-3 -0.0955-0.0481-0.0702 0.0128-0.0605-0.18834-0.18637-0.25986-0.21747-0.0162-0.0908-0.0327-0.22338-0.0337-0.23081-0.0706-0.26035-0.0436-0.10598-0.0617-0.47718-0.0266-0.11614-0.0939-0.18799-0.12365-0.30103-0.11376-0.4327-0.11339-0.98051-0.17567-1.4485-0.0391-0.85274-0.10922-1.686-0.13559-2.5454-6e-3 -0.1841-0.0241-0.36409-0.0153-0.55308 7e-3 -0.15522 0.0419-0.31362 0.0628-0.47048-3e-3 -0.56716-0.0264-0.0916 0.0497-0.53628 0.0127-0.073 6e-3 -0.14724 0.0235-0.21941 0.0489-0.20617 0.1892-0.38259 0.20257-0.60898 0.0539-0.92448-0.12589-0.75922-0.51739-0.9932-0.47852-0.0913-0.91917-0.3252-1.3877-0.46289-0.81698-0.10629 0.11604 0.078-0.6962-0.30282-0.13175-0.0617-0.28464-0.04-0.41716-0.0989-0.14356-0.0639-0.26346-0.20208-0.40676-0.26694-0.31398-0.14178-0.67487-0.10551-0.96356-0.34584-0.9273-0.42566-1.856-0.84553-2.7954-1.226-0.4505-0.16975-0.87825-0.47107-1.3416-0.56778 0.0858-0.10441 0.14645-0.17436 0.096-0.18995zm7.6792 4.3326c-2e-3 0.0644-0.016 0.12427-0.0351 0.18173 3e-3 -0.0563 0.0272-0.12333 0.0351-0.18173zm0.10077 0.42366c0.0912 0.0352 0.0601 0.0439 0 0zm0.85992 7.1114c7e-3 6e-3 0.01 8e-3 0.0206 0.0156 7e-3 0.0141 0.0153 0.0252 0.0214 0.0395-9e-3 6e-3 -0.0195 0.0125-0.0253 6e-3 -5e-3 -6e-3 -0.0107-0.0302-0.0166-0.0614zm-0.30517 1.2985c5.3e-4 1.3e-4 2e-3 8e-4 2e-3 8e-4 -8e-4 2.6e-4 -2e-3 1.4e-4 -2e-3 7.9e-4 -1.1e-4 -5.3e-4 -8e-5 -1e-3 -2e-4 -2e-3zm0.0444 0.0322c4e-3 0.0352 5.3e-4 0.1016-0.0108 0.0836-0.0112-0.0183-0.0203-0.047-0.0279-0.08 0.0131-5.3e-4 0.0261-1e-3 0.0383-3e-3zm-13.188 5.9354c0.0149 6e-3 0.0325 0.0438 0.0505 0.0833-0.0195 0.0109-0.0184 0.032-0.0691-0.0746 6e-3 -9e-3 0.012-0.0125 0.0189-9e-3z" fill="#ff9243" stroke="#fe7c1a" stroke-width=".2" style="paint-order:markers fill stroke"/>
   <path d="m151.74 291.27c-0.58456-9e-3 -0.91945 0.11667-1.4666 0.25787-0.16157 0.073-1.2069 0.53451-1.3575 0.64647-0.21373 0.15879-0.37526 0.39553-0.56947 0.58446-0.57592 0.56028-0.66507 0.52178-1.0087 1.1911-0.0613-0.0952-0.1257-0.18711-0.20102-0.26665-0.48365-0.51092-0.90255-0.56248-1.4666-0.74982-0.27987-0.0197-0.56374-0.0728-0.83974-0.0589-0.3123 0.0157-0.61401 0.088-0.91725 0.1478-1.5646 0.30896-3.0033 0.95022-4.4018 1.7131-0.4918 0.24879-1.6401 0.79465-2.1136 1.1689-0.0143-0.0225-0.0272-0.046-0.0419-0.0682-0.43876-0.66398-1.4163-1.8194-2.0908-2.1074-0.13585-0.058-1.0867-0.0655-1.2408-0.0687-1.2101 0.30709 0.0558-0.0383-1.2485 0.40102-0.77531 0.26112-1.5499 0.4964-2.1994 0.98495-0.81285 0.0262-1.5644 0.32907-2.3327 0.61185-1.2917 0.47509-0.0884-0.0491-1.2237 0.47025-0.11799 0.0991-0.85447 0.7006-0.92397 0.83096-0.34504 0.64722-0.38188 2.1604-0.30748 2.9528 2e-3 0.0265 7e-3 0.053 0.0103 0.0796-0.60339 5e-3 -1.8404 0.29943-2.3797 0.41394-1.5678 0.28234-3.0909 0.68456-4.5036 1.4247-0.27379 0.14343-0.554 0.27641-0.80719 0.4599-0.22375 0.16219-0.41131 0.38177-0.61702 0.57258-0.32197 0.49954-0.61632 0.80251-0.67282 1.5038-9e-3 0.10925-2e-3 0.22119 0.0103 0.33382-0.68754-0.30617-0.73221-0.22061-1.5322-0.29609-0.26975-0.0255-0.54423-0.10851-0.81029-0.0982-0.18756 7e-3 -1.2913 0.30287-1.463 0.34727-0.51479 0.23299-0.85462 0.34525-1.3043 0.71882-0.80294 0.66701-1.3601 1.6594-1.6325 2.8096 0.37316 3.2618-0.12202-1.398 0.1049 1.9394 0.0729 1.0724 0.15951 1.033 0.47542 2.0852 0.48377 1.6103 0.0791 0.5248 0.70849 2.0474 0.56593 1.1558 1.2814 2.5259 2.3151 3.1864 0.36198 0.2313 1.2988 0.49696 1.6733 0.61494 0.17351 0.0213 0.34815 0.0537 0.52194 0.0786 0.12584 0.79742 0.47335 1.8517 0.63872 2.4169 0.23725 0.5674 0.41709 1.1675 0.7121 1.7022 1.1173 2.0253 2.7728 3.6012 4.5842 4.5506 1.7199 0.90143 2.7228 1.014 4.5046 1.4397 0.38249 0.0284 0.76628 0.0673 1.1493 0.10128 0.14867 0.37537 0.30107 0.74904 0.43822 1.1302 1e-3 4e-3 4e-3 8e-3 5e-3 0.0124-0.26466-0.0187-0.52938-0.0366-0.79427-0.0589-0.39995-0.0336-0.80594-0.12875-1.2004-0.11213-0.35733 0.015-2.0825 0.39179-2.3978 0.51985-0.24416 0.0993-1.9641 1.1591-2.1761 1.2883-0.35843 0.26863-0.73557 0.50639-1.0749 0.80563-0.34284 0.30234-0.65024 0.65622-0.96687 0.99528-0.92008 0.98528-1.8312 2.0179-2.373 3.3941-0.15217 0.38656-0.23076 0.81892-0.34623 1.2284 0.0162 0.42561-0.0806 0.85963 0.0486 1.2769 0.39976 1.2921 1.6197 1.5847 2.4955 1.3518 0.22003-0.0585 2.3194-1.1528 2.403-1.1958 2.7711-1.94 5.8136-3.6948 7.5106-7.0786 0.0514-0.16733 0.1151-0.32888 0.17571-0.49197 0.88632 0.2649 1.7719 0.62468 2.6283 1.0449 0.99048 0.54126 0.49808 0.28871 1.4779 0.75911 1.5003 0.57272 2.6745 0.81415 4.1517 0.61598 0.20326-0.0596 0.41357-0.0991 0.60978-0.1788 0.20114-0.0811 0.38297-0.20879 0.57929-0.30179 0.41085-0.19478 0.98658-0.38629 1.3581-0.66093 0.31743-0.23468 0.98967-1.0083 1.248-1.2935 0.59088-0.85693 1.1471-2.0466 1.2986-3.2101 0.0609-0.46718 0.0192-0.96277 0.0202-1.4459 4e-3 -1.7536 0.018-1.1703-0.17415-2.9559l5.2e-4 5.1e-4c0.96966 1.5117 0.61446 1.0482 1.7172 2.4117 0.30381 0.37568 0.58216 0.78832 0.92243 1.1142 0.84747 0.81145 2.0265 1.39 3.0241 1.6872 0.38002 0.0602 1.3884 0.24096 1.7828 0.22479 0.4616-0.0189 1.0306-0.23011 1.4728-0.33589 0.21128-0.0506 0.43268-0.0653 0.64027-0.12816 0.20286-0.0609 0.3913-0.16193 0.58704-0.24286 1.2751-0.77169 2.039-1.6963 2.8489-3.083 0.4685-0.98075 0.24253-0.47511 0.6749-1.5177 0.40391-0.86458 0.86896-1.7001 1.3937-2.4624 0.14924 0.0889 0.29969 0.17534 0.44442 0.27337 3.4435 1.5725 6.9141 1.0324 10.289 0.80666 0.0921-0.0189 2.4134-0.48231 2.6216-0.57465 0.82829-0.36755 1.5956-1.3607 1.0971-2.6179-0.16101-0.40608-0.50854-0.68349-0.76275-1.0253-0.34664-0.24659-0.67887-0.53422-1.0397-0.74001-1.2848-0.73252-2.642-0.96568-3.9765-1.1565-0.45925-0.0657-0.92052-0.14885-1.3772-0.16949-0.45194-0.0204-0.8954 0.0311-1.3431 0.0465-0.24612 0.0322-2.2502 0.28443-2.5027 0.36018-0.32594 0.0979-1.9064 0.88585-2.1942 1.0981-0.31778 0.23436-0.57454 0.56332-0.86506 0.84026-0.19237 0.18336-0.38695 0.36317-0.58136 0.54364-1e-3 -4e-3 -2e-3 -8e-3 -4e-3 -0.0124-0.13207-0.38296-0.24791-0.76978-0.36742-1.1555 0.27713-0.26659 0.55175-0.537 0.83199-0.79891 1.1214-1.4487 1.8322-2.1655 2.6071-3.946 0.81613-1.8753 1.118-4.1409 0.71882-6.4192-0.10536-0.60153-0.34176-1.1817-0.51263-1.7725-0.28302-0.68283-0.82472-2.1564-1.3245-2.7446-0.39059-0.45976-0.8649-0.72305-1.356-0.84904 0.19404-1.0824-0.0659-2.3714-0.31265-3.4634-0.46425-1.5808-0.0986-0.48125-0.73122-2.0392-0.41343-1.0177-0.32142-1.0416-0.93689-1.9229-1.9155-2.7425 0.62025 1.1985-1.1338-1.5766-0.93327-0.72546-1.9897-1.1495-3.0334-1.1658zm0.50126 1.6108c0.0674 3e-3 0.13068 9e-3 0.18862 0.0202 0.1642 0.0303 0.32043 0.14214 0.48162 0.20774 0.71652 0.29164 0.28397 0.0387 0.96997 0.53278 0.17059 0.15965 0.36068 0.29214 0.5116 0.47904 0.16326 0.20213 0.28403 0.44632 0.41961 0.67438 0.63445 1.067 1.1158 2.1693 1.4423 3.3843 0.32634 1.3203 0.49169 2.3043 0.0599 3.2706-0.0338 8e-3 -0.0697 0.0136-0.10283 0.0227-0.40422 0.11168-0.77163 0.32803-1.1576 0.49197-1.0564 0.83454-1.3295 1.0338-2.1358 1.7539-1.5069 0.38965-0.7917 0.26517-1.9358 0.42529-0.82578-0.53834-1.6658-1.0152-2.5843-1.0759-0.53351-0.0353-1.039 0.0601-1.5224 0.22686 0.10627-0.13201 0.21017-0.26766 0.3111-0.40773 0.9491-1.7742 1.6988-3.3713 1.3632-5.7433-0.0717-0.77041-0.12447-1.1605-0.29094-1.5715 0.0466-0.11411 0.0957-0.22617 0.15296-0.33176 0.251-0.46302 0.85483-1.2674 1.2537-1.5632 0.32448-0.24069 0.74031-0.30851 1.0299-0.61857 0.40407-0.0466 1.0735-0.19795 1.5451-0.17776zm-7.0931 1.5704c0.2006-8e-3 0.408 0.0833 0.61185 0.12506 0.0359 0.0168 0.69284 0.31098 0.7643 0.39532 0.095 0.11214 0.13846 0.26795 0.19792 0.4098-0.81467 1.5856-1.4009 3.345-2.065 5.042-0.37911 0.95197 0.83528 1.8031 1.2144 0.85111 0.41797-0.97517 0.52494-1.1822 0.88936-2.205 0.17353-0.48707 0.3431-0.97459 0.53071-1.4485 0.0122 0.39946 0.0255 0.93178-7e-3 1.0976-0.0502 0.25707-0.19772 0.45898-0.2682 0.70591-0.0745 0.26096-0.0744 0.56137-0.16536 0.81235-0.0224 0.0618-0.81428 1.5218-0.83664 1.5632-0.4585 0.69086-0.99213 1.2356-1.5736 1.6945-0.70864-0.26627-1.4089-0.59126-2.0939-0.96533-0.91417-0.73258-1.9078-1.4806-2.6221-2.5275-0.21684-0.31779-0.36465-0.68967-0.56121-1.0242-1.2049-2.0508-0.70877-1.1409-0.95239-1.5927 0.026-0.021 0.0506-0.0443 0.077-0.0646 0.44016-0.3384 1.4791-0.83817 1.9446-1.0759 1.0655-0.49413 2.1042-1.0708 3.2329-1.4051 0.30722-0.091 0.62825-0.13558 0.94103-0.20774 0.24795-0.0572 0.48318-0.16988 0.74104-0.18035zm-10.328 0.75448c0.12394 2e-3 0.24847 0.0288 0.36277 0.11937 0.0939 0.0744 0.14574 0.20901 0.22893 0.30127 0.13036 0.14458 0.29335 0.2466 0.40979 0.40721 0.17575 0.2424 0.302 0.52654 0.4563 0.78755 0.0339 0.0573 0.0687 0.11395 0.10284 0.17105-0.15265 0.14872-0.30424 0.2988-0.4315 0.47749-0.0763 0.10708-0.71006 1.4086-0.78755 1.5663-0.0759 0.19415-0.16856 0.37822-0.23564 0.57775-0.14561-0.61955-0.37801-1.599-0.43718-1.7534-0.12809-0.33081-0.32178-0.6291-0.50023-0.93123-0.17712-0.29983-0.32992-0.63486-0.56482-0.87281-0.13749-0.13926-0.27696-0.24969-0.41859-0.34106 0.10743-0.0556 0.21503-0.11047 0.32712-0.15452 0.1806-0.0709 0.91589-0.27083 1.1296-0.33021 0.11114-6e-3 0.23418-0.0272 0.35812-0.0248zm-3.6406 1.5539c0.11597 1e-3 0.27374 3e-3 0.33486 4e-3 0.45411 0.11459 0.96846 0.23487 1.3146 0.72295 0.62515 0.8813 0.38818 1.9276 0.92294 2.8696 0.29263 1.8599 0.73371 3.7733 0.67489 5.6198-1.2035-1.4018-2.0592-3.1686-2.9972-4.8013-0.17385-1.0691-1.0146-1.7363-1.08-2.8148-0.0363-0.5973 0.28905-1.0136 0.57103-1.3875 0.0472-0.0388 0.16949-0.13856 0.2589-0.21238zm-2.0769 0.33073c-0.0531 0.16007-0.0928 0.33382-0.11265 0.52864-0.0339 0.33266 0.057 0.68942 0.10697 1.034 0.0504 0.34729 0.0862 0.7007 0.19378 1.0387 0.0507 0.15748 0.48478 1.0669 0.75965 1.6407-0.1775-0.11356-0.36518-0.19905-0.54622-0.30282-0.15927-0.0743-1.4692-0.69099-1.5958-0.72657-0.211-0.0594-0.42314-0.0812-0.6351-0.10128-9e-3 -0.066-0.0178-0.13195-0.0274-0.19794-0.0435-0.30009-0.1235-0.60063-0.1385-0.89969-0.01-0.19812 0.0532-0.37976 0.0641-0.57412 7e-3 -0.12403-0.0368-0.26143-0.0103-0.37827 0.0646-0.2844 0.32219-0.39484 0.50229-0.52554 0.20374-0.0878 0.90208-0.39325 1.0873-0.45115 0.11502-0.036 0.2333-0.0607 0.35191-0.0847zm8.1427 1.3338c0.70027 1.2021 1.3182 2.4831 2.2464 3.4804 0.46608 0.5008 1.7906 1.5492 2.2789 1.9477 0.37342 0.23558 0.75059 0.44651 1.1307 0.63873-0.79777 0.43781-1.6335 0.81783-2.4614 1.2428-2.1026 1.0282-0.12873 0.16772-2.2148 0.79891-0.6952 0.21034-1.479 0.787-2.2686 0.6537-0.0814-0.0138-0.15984-0.0531-0.23772-0.0987 0.20768-1.2635 0.0995-2.6522-0.11575-4.0318 0.0546-0.0853 0.0977-0.19193 0.12402-0.32454-0.0295-0.40547 0.1707-0.70889 0.23513-1.08 0.0329-0.18994 9e-3 -0.40211 0.0568-0.58499 0.0544-0.20685 0.17236-0.37298 0.24649-0.5679 0.0796-0.20952 0.14296-0.42963 0.21446-0.64442 0.20409-0.51432 0.46015-0.99814 0.76533-1.4299zm-11.253 3.2293c0.0333-7.4e-4 0.0669 2e-3 0.10025 2e-3 0.0933 0.5044-0.0906-0.51535 0.25631 1.8376 0.0566 0.38389 0.17434 0.76629 0.20464 1.1498 0.0998 1.2634-0.20486 2.4694-0.45785 3.6132-0.29923 0.72083-0.64165 1.4128-1.0268 2.0645-0.74046 7e-3 -1.4976-0.0831-2.2877-0.33383-0.0434-0.0182-1.5757-0.65939-1.6319-0.6935-0.22819-0.13853-0.41656-0.37256-0.6382-0.52916-0.20972-0.1482-0.45084-0.21313-0.65113-0.3819-0.12937-0.10904-0.45359-0.53274-0.69453-0.85162 0.44371 0.25181 0.88146 0.52538 1.3224 0.79632 0.92509 0.56843 1.1384 0.66291 2.0753 1.1607 0.89213 0.50401 1.3045-0.92019 0.41238-1.4242-1.5812-0.90583-3.1405-1.9093-4.7692-2.6339-0.0426-0.14766-0.10698-0.29655-0.10336-0.44339 3e-3 -0.11049 0.33091-0.75144 0.3483-0.78703 0.13262-0.16036 0.236-0.36118 0.3974-0.48059 0.20746-0.15348 0.46188-0.21368 0.69091-0.32454 0.28892-0.13985 0.56662-0.30617 0.863-0.42788 1.0889-0.44715 2.2599-0.64873 3.3998-0.93173 0.51168-0.10657 1.635-0.36864 2.19-0.38084zm1.5043 0.20619c0.50846 0.14504 1.0115 0.36076 1.4929 0.63354 0.19036 0.12253 0.37763 0.25466 0.57102 0.36793 0.17995 0.10541 0.37577 0.16076 0.54777 0.28784 0.15208 0.11237 0.2666 0.29279 0.41135 0.42013 0.28286 0.24879 0.62916 0.35965 0.86041 0.69403 0.10345 0.0866 0.20388 0.14238 0.29973 0.17465 0.69725 1.21 1.4836 2.3599 2.4376 3.2143-0.0321 0.0843-0.0687 0.16412-0.1235 0.22582-0.53163 0.59883-1.5031 0.64116-2.1766 0.9131-2.021 0.81606 0.056 0.24884-2.2267 0.76586-0.91129 0.18783-1.8006 0.41511-2.6965 0.57412 0.17552-0.38788 0.33741-0.78869 0.48059-1.2061 0.13067-0.61666 0.50477-2.2632 0.55397-2.9456 0.098-1.3588-0.224-2.7442-0.43201-4.1196zm29.839 1.0806c0.0848 4e-3 0.17905 0.0138 0.28526 0.0284 0.16531 0.0228 0.34525 0.065 0.48886 0.18759 0.35218 0.30073 1.0739 2.0644 1.2309 2.4236 0.13451 0.49186 0.31879 0.97663 0.40308 1.4759 0.46319 2.7431-0.30696 5.33-1.6459 7.2321-0.42314 0.60116-0.94909 1.0847-1.4237 1.6268-0.12647 0.12816-0.15267 0.15745-0.25684 0.26405-9e-3 -0.0454-9e-3 -0.0489-0.0202-0.10282-0.29631-1.3769-0.69612-2.7439-1.1741-4.0747-0.59804-2.0546-1.3556-4.1241-2.4892-5.902 0.20033-0.20309 0.41541-0.41523 0.67024-0.65577 0.0354-0.0334 0.0585-0.052 0.0925-0.0837 0.97621-0.2513 1.9132-0.61913 2.711-1.2609 0.23581-0.18971 0.42923-0.44167 0.64389-0.66249 0.0735-0.1102 0.20772-0.31131 0.33021-0.49506 0.0494-1e-3 0.0971-4e-3 0.15399-1e-3zm-11.334 2.6681c1.1312 0.25661 2.2724 0.36602 3.407 0.35811 0.41988-3e-3 0.83238-0.0533 1.247-0.0915-0.45768 0.54324-0.87633 1.134-1.2945 1.7224-1.496 2.1048-1.487 2.2486-2.7621 4.5816-0.75545 1.9294-1.5238 3.9024-1.9704 6.0069-0.0488-0.0841-0.0921-0.15486-0.14418-0.24495-0.63106-1.0914-1.0784-1.9951-1.4258-3.2303-0.0287-0.10186-0.0517-0.20473-0.0755-0.30747 0.0918-0.11004 0.19098-0.21799 0.30231-0.32711 0.51463-0.60552-0.0154-1.521-0.58808-1.5364-0.0574-1.958 0.31245-3.8052 1.3488-5.1878 0.65243-0.87046 1.0327-1.0646 1.851-1.6821 0.0503-0.0289 0.0599-0.0356 0.10439-0.0615zm-31.157 0.33898c0.4962-0.0195 1.4707 0.2281 1.9565 0.43151 0.1108 0.0464 0.21927 0.10358 0.32711 0.16327 0.12793 0.42455 0.33147 0.76147 0.75861 1.4067 1.2255 2.0584 2.8111 2.8327 4.6628 3.6199 0.49138 0.13542 0.97875 0.22707 1.4624 0.28319-0.34096 0.42415-0.70411 0.82243-1.0966 1.1824-0.39444 0.36174-1.6967 1.3194-2.1575 1.6629-0.5118-0.01-0.95177-8.5e-4 -1.8593 7e-3 -0.40345 0.11419-0.82532 0.17621-1.2103 0.34261-0.63016 0.27236-1.2604 0.76089-1.5989 1.4702-0.23625-7e-3 -0.49317-0.0265-0.80202-0.0692-1.4674-0.36716-2.0454-1.3383-2.7544-2.8629-0.50727-1.1513-0.82325-2.3118-0.99787-3.5409-0.0373-0.2627-0.0961-0.52824-0.0956-0.78806 4e-4 -0.24024 0.0654-0.4627 0.0982-0.69403 0.22478-0.81494 0.0462-0.34679 0.42168-1.0232 0.0845-0.15217 0.13602-0.33751 0.24495-0.46406 0.30748-0.35724 1.0569-0.71577 1.45-0.96377 0.42002 0.06 0.78641-0.1479 1.1901-0.1638zm28.04 0.44855c-0.29148 0.40627-0.59014 0.81071-0.80925 1.2826-0.37287 0.80303-0.80006 2.5397-0.84439 3.499-0.0299 0.64659 0.0865 1.3171 0.12971 1.9756 0.0554 0.23701 0.0992 0.4337 0.14624 0.64336-0.24527 0.53573-0.33151 1.1844-0.61082 1.6971-0.17166 1.3697-0.22444 2.5592-0.0884 3.7119-0.61666-0.98356-1.4032-1.8774-2.3957-2.837-0.53894-0.22428-1.0131-0.67582-1.54-0.93948-0.0745-0.15166-0.14688-0.29869-0.22789-0.46612 0.3362-0.012 0.66721-0.0747 1.0113-0.19378 0.85473-0.29588 1.2181-0.57634 1.9859-1.5343 0.81221-1.0133 1.3439-1.9365 1.5084-2.619 0.11129-0.4617 0.0989-0.55293-0.11524-0.86662-0.43426-0.63595-1.2474-1.2584-2.0996-1.6237 0.71908-0.27657 1.4358-0.55976 2.1399-0.87384 0.60995-0.26623 1.2164-0.54777 1.8097-0.85577zm8.893 0.76171c0.31421 0.48601 0.60256 0.99221 0.84491 1.5441 0.17572 0.39998 0.30852 0.81876 0.47129 1.2247 1.0333 2.5778 0.0104-0.11676 0.9648 2.4422 0.44378 1.6395 0.85835 3.2819 1.2702 4.9279-0.36733 0.36139-0.46811 0.36862-1.9342 1.4268-0.53821 0.38844-1.0314 0.86312-1.6108 1.172-0.38049 0.20288-2.5339 0.87714-3.0851 0.9126-0.40675 0.0261-0.8296-0.11102-1.2444-0.1664-0.35766-0.14319-0.73329-0.21386-1.0728-0.42942-0.25355-0.161-0.4622-0.32467-0.64596-0.49662 0.34142-2.3852 1.2531-4.5575 2.1022-6.6409 0.4016-0.76523 0.75508-1.5738 1.2046-2.2955 0.44436-0.71345 0.97212-1.3423 1.4707-1.9994 0.51841-0.68318 0.88917-1.1697 1.2645-1.6221zm-17.973 2.8241c-0.32446 0.43717-0.56453 0.88606-0.70383 1.3291-0.18348-0.11515-0.35873-0.21855-0.50746-0.29197-0.30535-0.15073-0.61935-0.25469-0.93483-0.34829 0.55834-0.17331 1.1137-0.35539 1.6686-0.53796 0.15818-0.052 0.32017-0.0958 0.47749-0.15091zm-4.2111 1.8309c0.36433 8e-3 0.73236 0.0535 1.2594 0.18809 0.88563 0.22617 1.7082 0.67025 2.4619 1.2687 0.27333 0.45905 0.68019 0.84685 1.1958 1.1384 0.22372 0.24961 0.4374 0.51515 0.64492 0.7891-0.43623 0.37121-0.27499 1.4162 0.5054 1.5653 0.15504 0.0152 0.29986 0.0375 0.44028 0.0656 0.046 0.0951 0.0928 0.18984 0.13436 0.28734 0.50372 1.1801 0.72163 2.1642 0.91416 3.4101 0.0159 0.10261 0.0267 0.18471 0.0413 0.28059-1.6673-1.3597-3.5029-2.4146-5.301-3.4442-2.456-1.0183-2.5395-1.1361-5.0245-1.8381-0.74427-0.21026-1.4905-0.42405-2.2376-0.55967 0.0376-0.23961 0.0668-0.48377 0.13488-0.70798 0.10807-0.35562 0.54195-1.2256 0.79168-1.4392 0.22421-0.19177 0.52015-0.24855 0.78135-0.37052 1.2252-0.57211 0.60794-0.37193 2.0206-0.59532 0.51236-0.016 0.8728-0.0461 1.2371-0.0382zm-8.138 4.5155c0.26168 8e-3 0.55528 0.0241 0.91002 0.0522 0.34937 0.0277 0.64985 0.0583 0.93327 0.091 0.23135 2.0958 0.93864 4.1828 1.7606 6.1583 0.46185 1.3364 1.0069 2.6524 1.6392 3.9109 0.0248 0.0494 0.0275 0.0517 0.0486 0.093-0.14787-0.0177-0.18664-0.0244-0.36535-0.045-0.70961-0.12483-1.422-0.17158-2.1286-0.37465-2.2356-0.64259-4.4574-2.1753-5.8162-4.6028-0.24729-0.4418-0.40726-0.93496-0.61081-1.4025-0.0784-0.28832-0.41102-1.4148-0.52762-2.1373 1.4324-0.26295 2.7435-1.0261 3.9951-1.7426 0.056 8.5e-4 0.10282-2e-3 0.16175-5e-4zm20.792 0.10231c0.0858 0.22003 0.17892 0.44709 0.29145 0.69556 0.44883 0.991 1.0682 2.031 1.789 2.9233-0.0996 0.94793-0.11984 1.9257-0.0331 2.9404 0.19501 1.1717 1.55 1.0838 1.355-0.0878-0.0457-0.84434-0.0341-0.45411 0.0124-1.4991 0.12954 0.10244 0.26053 0.20018 0.39325 0.28834 0.4843 0.32171 1.0207 0.45686 1.5312 0.68524 0.52531 0.0273 1.0624 0.1369 1.5761 0.0822 0.55903-0.0595 1.0923-0.23797 1.6175-0.4222 1.617-0.56766 2.0028-0.89641 3.4473-1.9224 0.53409-0.3793 1.0732-0.75194 1.5885-1.1627 0.13989 0.42391 0.30287 0.8374 0.53743 1.2325 7e-3 0.0114 0.013 0.0237 0.0196 0.0352-0.41654 0.57542-0.79183 1.196-1.1048 1.8671-0.13475 0.28887-0.22163 0.61344-0.35967 0.89969-1.1044 2.2902 0.16686-0.71607-0.72295 1.4516-0.3135 0.56111-0.67556 1.1012-1.111 1.5307-0.13121 0.12946-0.28629 0.22283-0.42065 0.34777-0.13216 0.12292-0.22883 0.29961-0.37776 0.39481-0.14928 0.0954-0.33239 0.11187-0.49919 0.1664-0.90649 0.43309-1.8835 0.80219-2.9342 0.70744-0.25005-0.0225-0.50124-0.0999-0.75189-0.14986-2.172-0.80613-3.2227-2.3977-4.6049-4.5212-0.88339-1.4831-1.3998-3.1322-1.4268-4.8395-0.0106-0.67045 0.0756-1.0989 0.1881-1.6433zm-17.539 0.26562c0.57587 0.11718 1.1701 0.26357 2.0019 0.47077 0.80034 0.19934 1.6054 0.35885 2.3988 0.63614 0.80263 0.28051 1.585 0.68858 2.3776 1.033 1.9676 1.0909 4.0399 2.2113 5.8012 3.8556-0.0354 0.24932-0.0956 0.50763-0.19223 0.79219-0.12939 0.38079-0.37801 0.6714-0.5669 1.0072-0.28843 0.30316-0.53177 0.6749-0.86506 0.90951-0.45162 0.31789-2.5519 1.1432-2.9755 1.2237-0.645 0.12251-1.3267 0.0613-1.9895 0.0961-1.8064 0.0947-1.8886 0.15216-2.4019 0.10078-0.71088-1.5404-1.4172-3.0796-2.0991-4.6349-0.86061-2.592 0.0317 0.14825-0.77928-2.5078-0.12768-0.41833-0.28717-0.82828-0.40101-1.25-0.15712-0.58182-0.24914-1.1566-0.30902-1.7322zm13.237 1.25c0.42877 0.35359 0.7647 0.63328 1.1767 1.1622 1.0492 1.3471 1.6809 2.9555 1.9224 4.6648 0.25433 2.5209 0.43342 4.4197-0.75344 6.4094-0.16399 0.19601-0.31129 0.41376-0.49196 0.58807-0.75921 0.73247-1.7513 1.0569-2.729 1.2878-0.16414 0.0621-0.31737 0.16425-0.49351 0.18346-0.17571 0.0192-0.36155-0.0574-0.54157-0.0703-0.183-0.013-0.36285 0.0114-0.54622-7e-3 -0.60854-0.0616-1.2292-0.25549-1.8252-0.4961-2.0521-1.131 0.82334 0.41445-1.4728-0.67749-0.287-0.13647-0.55832-0.33536-0.84439-0.47593-0.66448-0.32655-1.3457-0.57452-2.0309-0.76171-2e-3 -0.013-5e-3 -0.0263-7e-3 -0.0393-0.0649-0.45497-0.1977-0.88005-0.3545-1.2981 0.65906-3e-3 1.3124-0.0501 1.9663-0.0894 1.7686-0.10623 2.2756-0.0921 3.8912-0.66353 0.52465-0.18568 1.0521-0.38163 1.525-0.68574 0.43458-0.27946 0.78402-0.70102 1.1762-1.0516 0.25455-0.49794 0.58814-0.93972 0.76378-1.494 0.0481-0.15176 0.0884-0.30988 0.12506-0.47077 0.6919 0.78573 0.45593 0.47355 0.94981 1.1602 0.58256 1.0351 1.6936 0.25376 1.111-0.78134-0.56853-0.845-1.1978-1.5935-1.8697-2.2696 2e-3 -1.1473-0.16661-2.3457-0.43822-3.3993-0.0681-0.26408-0.13818-0.49935-0.20928-0.72451zm26.566 0.0656c1.9418 0.01 3.9324 0.22442 5.8033 1.3994 0.1162 0.0758 0.22518 0.17886 0.34831 0.22738 0.0601 0.0238 0.13822-0.0814 0.17828-0.0196 0.18304 0.28231-0.3265 0.51443-0.57568 0.6196-0.89472 0.37762-1.382 0.39881-2.3823 0.57775-0.5377 0.0824-1.0689 0.19473-1.6128 0.24701-2.5502 0.24493-5.2227 0.13177-7.8259-0.73951-0.0235-0.0139-0.0516-0.0284-0.0765-0.0424 0.10501-0.13451 0.21229-0.26664 0.32814-0.38759 1.3382-1.3968 3.1253-1.8485 4.9863-1.8758 0.27494-5e-3 0.55149-8e-3 0.82889-6e-3zm-37.919 12.897c0.23227 6e-4 0.46818 0.0158 0.70796 0.047 0.16616 0.0216 0.33246 0.0571 0.49868 0.0961-0.0106 0.0264-0.0235 0.0551-0.0331 0.0806-1.482 2.3107-3.4933 4.0745-5.6338 5.4824-0.45654 0.30025-0.94123 0.54562-1.4118 0.81854-0.89145 0.48765-1.2842 0.77666-2.218 1.0434-0.26005 0.0743-0.80224 0.21272-0.83664-0.12198-8e-3 -0.0733 0.119-0.0399 0.1509-0.0961 0.0655-0.11499 0.0862-0.26395 0.12919-0.39582 0.82404-2.3866 2.5557-3.8935 4.2933-5.2426 1.2837-1.0022 2.7273-1.7158 4.3532-1.7115z" fill="#00887a" stroke="#32baac" stroke-width=".5" style="paint-order:markers fill stroke"/>
   <path d="m185.64 275.14c-0.89271 0.25766 0.0292-0.0415-1.109 0.48463-0.29084 0.13444-0.60984 0.21561-0.8928 0.36373-0.32913 0.17227-0.60769 0.42007-0.93606 0.59357-1.421 0.6191-0.73017 0.27894-2.0728 1.0196-1.2451 0.70254-2.6457 1.468-3.3157 2.7356-0.0406 0.3132-0.43798 0.61734-0.25501 0.94897 0.0628 0.11364 0.26464 0.0628 0.38611 0.12023 0.23782 0.11257 0.4575 0.25738 0.68625 0.38608 2.4217 0.87918 4.9214 1.5184 7.3697 2.3195 1.3027 0.42624 3.4098 1.1561 4.7036 1.6009 2.0354 0.89522 4.1578 1.6434 6.0747 2.7723 0.48849 0.2877 0.94063 0.62808 1.4055 0.94932 0.39163 0.27062 0.79843 0.52436 1.1638 0.82615 0.30787 0.25428 0.56605 0.55755 0.84908 0.83633 0.18817 0.3062 0.44555 0.58438 0.56452 0.91861 0.60889 1.7106-0.60029 3.3919-1.8664 4.4395-0.45013 0.37245-0.96309 0.67247-1.4446 1.0087-1.629 1.1585-3.4943 1.9431-5.3337 2.7577-0.78612 0.34814-2.7019 1.2185-3.5273 1.5419-0.5329 0.20882-1.0814 0.38253-1.6221 0.57379-1.3798 0.64778-2.8288 1.1687-4.283 1.6575-0.74775 0.25133-0.32692 0.018-0.84478 0.35866-0.0469 0.02-0.13476 0.0115-0.14069 0.0599-5e-3 0.0414 0.0968 0.0238 0.13325 7.9e-4 0.0257-0.0163 1e-3 -0.11761 5e-3 -0.0882 0.0356 0.31499 0.0535 0.45661 0.22229 0.75168 0.75767 0.99363 1.9574 1.5112 3.0952 2.015 1.7443 0.77225 1.8838 0.78674 3.7758 1.4838 2.5702 0.89122 5.1626 1.6787 7.8233 2.2637 0.92798 0.20415 1.868 0.35126 2.7948 0.5607 0.87582 0.19791 1.7382 0.45075 2.6111 0.66101 0.78591 0.18929 1.5766 0.35839 2.3649 0.53762 7.6426 1.7316-2.7537-0.63942 3.6708 0.86952 0.6299 0.14795 2.3657 0.4171 2.9227 0.82684 0.20689 0.15217 0.31939 0.39239 0.47909 0.58858 0.0748 0.26201 0.20224 0.5168 0.22451 0.78602 0.0312 0.37785-0.17949 1.2264-0.34258 1.5559-0.14216 0.28645-0.35981 0.53259-0.53464 0.80192-0.20685 0.31867-0.37053 0.66495-0.61031 0.96199-0.28322 0.35086-0.63389 0.64801-0.95084 0.97201-9.3836 10.367-7.5007 4.6598-6.2399 3.5275 0.45921-0.41172 0.95184-0.78939 1.4173-1.1949 1.2371-1.0777 2.4268-2.2042 3.6411-3.3043 0.25565-0.30562 0.50777-0.61391 0.76695-0.91685 0.20757-0.24259 0.44636-0.46228 0.63315-0.71965 0.35677-0.49157 0.38917-0.73022 0.59861-1.259 0.13432-0.33928 0.0291-0.2647 0.28265-0.34706-0.13822-0.37379-1.0978-0.51349-1.3574-0.57646-1.641-0.39803-3.2944-0.75335-4.9443-1.1123-2.4823-0.60379-2.4098-0.58985-4.9865-1.2006-1.5689-0.37191-4.0599-0.93935-5.6114-1.3674-0.9-0.24833-1.7838-0.55069-2.6812-0.80788-0.83028-0.23796-1.6676-0.4516-2.5013-0.6774-1.5185-0.60088-2.4884-0.97101-3.9618-1.6028-1.0849-0.46525-1.74-0.69433-2.6384-1.4133-0.54612-0.43702-0.83711-0.89403-1.2354-1.431-0.34349-1.0224-0.46662-1.8864 0.56341-2.5476 0.55894-0.26676 1.1012-0.46986 1.689-0.67983 1.1889-0.42468 2.3336-0.95612 3.5806-1.238 1.3977-0.57089 1.8498-0.7414 3.2481-1.3725 0.58722-0.26505 1.1584-0.56026 1.7503-0.81619 0.60945-0.2635 1.2588-0.44888 1.8525-0.74145 1.1212-0.55252 2.0791-1.3634 3.2264-1.8774 1.3074-0.92375 1.1558-0.70088 2.1278-1.7814 0.39615-0.44038 1.0546-1.1354 0.81061-1.8111-0.0791-0.219-0.26905-0.3894-0.40358-0.58409-0.21454-0.23326-0.40698-0.48628-0.64363-0.69978-0.7971-0.71912-1.398-1.0398-2.3636-1.5894-0.55458-0.31565-1.1044-0.64109-1.679-0.92198-1.3522-0.66102-2.7944-1.1418-4.1319-1.8334-4.0532-1.4195-8.1977-2.5695-12.259-3.9704-0.83507-0.42258-1.2321-0.47032-1.7238-1.2404-0.50512-0.79101-0.0525-1.5497 0.24529-2.2888 0.45587-0.7914 0.6994-0.98059 1.3931-1.585 0.22384-0.19503 0.41617-0.42383 0.65985-0.59673 0.56557-0.4013 1.2788-0.60083 1.7897-1.0805 1.4534-0.72292 0.67856-0.31958 2.1121-1.1054 0.33292-0.1825 0.65233-0.38817 0.9994-0.54649 0.68323-0.31168 5.8814-2.173 9.9209-5.2709 0.49268 0.14924 1.1761 0.23624 0.97045 0.6093-0.86412 1.5677-7.3146 4.8158-8.1604 5.1509zm-5.1975-11.173c-0.88494 0.28323 0.028-0.0423-1.0947 0.51631-0.28685 0.14275-0.60338 0.23306-0.88197 0.38925-0.32403 0.18166-0.59536 0.43736-0.9186 0.62023-1.4026 0.65969-0.72185 0.29982-2.0427 1.0788-1.2244 0.73804-2.6024 1.5434-3.2357 2.8297-0.0316 0.31424-0.42005 0.62967-0.22762 0.95591 0.0659 0.11177 0.26633 0.0551 0.3894 0.10907 0.24096 0.1057 0.46471 0.24414 0.69707 0.3662 2.446 0.80922 4.963 1.3763 7.4334 2.1067 1.3144 0.38862 3.4416 1.0576 4.7477 1.465 2.0603 0.83634 4.2033 1.5232 6.1519 2.5966 0.49656 0.27354 0.95829 0.60078 1.4322 0.90852 0.39925 0.25926 0.81317 0.5012 1.1871 0.79235 0.31505 0.24533 0.58184 0.54105 0.87276 0.81158 0.19691 0.30067 0.46218 0.57134 0.5907 0.902 0.65782 1.6924-0.50254 3.4077-1.738 4.4913-0.43924 0.38524-0.94337 0.69987-1.415 1.0498-1.595 1.2048-3.437 2.0427-5.2522 2.9098-0.77579 0.37059-2.6657 1.2957-3.4815 1.6427-0.52667 0.22406-1.07 0.41346-1.6049 0.62018-1.3606 0.68717-2.794 1.2496-4.2336 1.7799-0.74023 0.27272-0.32627 0.0274-0.83413 0.38279-0.0463 0.0213-0.13437 0.0153-0.13891 0.0639-4e-3 0.0416 0.0975 0.0211 0.13322-3e-3 0.0252-0.017-2e-3 -0.1176 2e-3 -0.0883 0.0447 0.31383 0.0666 0.45487 0.24381 0.74498 0.78591 0.97143 2 1.4543 3.1518 1.9252 1.7658 0.72179 1.9056 0.73228 3.8169 1.3746 2.5947 0.81698 5.2087 1.5296 7.8851 2.0379 0.93349 0.17729 1.8773 0.29742 2.8098 0.48015 0.88114 0.17265 1.7505 0.40058 2.629 0.58568 0.79102 0.16665 1.5862 0.31294 2.3794 0.46943 7.6892 1.5112-2.7709-0.56002 3.6942 0.76365 0.63388 0.12977 2.3767 0.34893 2.9453 0.74248 0.21116 0.14616 0.33053 0.38305 0.4958 0.57457 0.0823 0.25975 0.21702 0.51077 0.24701 0.77924 0.0421 0.37679-0.14416 1.2311-0.29771 1.5651-0.13386 0.29041-0.34436 0.5427-0.51137 0.81695-0.1976 0.32448-0.35127 0.67532-0.5824 0.97914-0.27302 0.35885-0.61501 0.66596-0.92251 0.99894-2.3777 2.5084-5.0633 4.7356-7.5127 7.1788-0.37227 0.33731-0.76683 0.65412-1.1168 1.0119-0.85588 1.1487-2.0697 2.0967-2.9707 3.0308 0 0-3.4166 1.9749-1.0213-0.98676 1.2177-2.075 1.61-1.5194 3.9622-4.1014 4.2106-3.8417-1.8702 1.745 2.5234-2.428 0.44719-0.42473 0.92875-0.81641 1.3824-1.2351 1.2056-1.1129 2.3624-2.2731 3.5446-3.4076 0.24677-0.31284 0.48992-0.62825 0.74029-0.93852 0.20049-0.24846 0.43289-0.47492 0.6122-0.73755 0.34249-0.50163 0.36802-0.7411 0.56217-1.2757 0.12451-0.343 0.0215-0.26543 0.27255-0.35504-0.1489-0.36966-1.1121-0.48172-1.3734-0.53721-1.6518-0.35071-3.3147-0.65836-4.9742-0.96972-2.4986-0.5322-2.4257-0.52035-5.019-1.0568-1.579-0.32665-4.0852-0.82226-5.6484-1.2056-0.90677-0.22233-1.7989-0.49918-2.7033-0.73047-0.83678-0.21399-1.6798-0.40347-2.5198-0.60522-1.5352-0.55698-2.5153-0.89909-4.0062-1.4883-1.0979-0.43386-1.7593-0.64402-2.678-1.3369-0.55845-0.42114-0.86246-0.8696-1.276-1.3949-0.37274-1.0121-0.52065-1.8722 0.48995-2.5627 0.55104-0.28272 1.0872-0.50132 1.6688-0.7281 1.1762-0.45868 2.3052-1.0228 3.5436-1.3404 1.3807-0.61083 1.8277-0.79427 3.2073-1.4654 0.57935-0.28181 1.1418-0.59332 1.7261-0.86616 0.60162-0.2809 1.2454-0.48488 1.8304-0.79438 1.1048-0.58452 2.039-1.4226 3.1711-1.9694 1.2802-0.96094 1.1352-0.73381 2.0757-1.8418 0.38332-0.45159 1.0215-1.1653 0.75822-1.8337-0.0854-0.21663-0.28013-0.3815-0.4202-0.57225-0.22116-0.22699-0.4208-0.47437-0.6635-0.68099-0.81743-0.6959-1.4273-0.9992-2.4083-1.5208-0.56342-0.29958-1.1224-0.60908-1.7048-0.87334-1.3706-0.62188-2.826-1.061-4.1829-1.7139-4.0923-1.3024-8.2681-2.3328-12.368-3.6164-0.84687-0.3984-1.2451-0.43471-1.7588-1.1903-0.52764-0.77616-0.097-1.5475 0.1794-2.2949 0.43294-0.80417 0.67092-1.0003 1.3469-1.6244 0.21814-0.20138 0.40382-0.43562 0.64243-0.61544 0.55381-0.4174 1.261-0.63735 1.7579-1.1315 1.432-0.7644 0.6691-0.33896 2.0794-1.1657 0.32755-0.19199 0.64091-0.40675 0.98328-0.57499 0.67399-0.33119 1.4547-0.4966 2.0404-0.98086 1.0348-0.44471 1.7382 0.94676 0.70349 1.3915z" fill="#fc6671" stroke="#f91a2c" stroke-width=".34918" style="paint-order:markers fill stroke"/>
  </g>
  <g stroke-opacity="0">
   <path d="m158.5 336.73c0.21985-0.22403 0.43649-0.45134 0.65266-0.67908 0.40674-0.42803 0.78978-0.87855 1.166-1.3347 0.34706-0.41659 0.67366-0.84977 0.98354-1.2959 0.1701-0.25003 0.32938-0.50809 0.46453-0.77982 0.12633-0.27505 0.0487-0.34514 0.59759 0.0619 0.0428 0.0318-9e-3 0.10814-0.0151 0.16205-8e-3 0.0681-0.0169 0.13609-0.0255 0.20414-0.09 0.63696-0.18794 1.2726-0.27429 1.9102-0.10567 0.78387-0.18643 1.5708-0.25698 2.3588-0.0516 0.58587-0.0889 1.1729-0.1144 1.7606-0.0875 2.0166-0.64364 1.9913-0.55611-0.0253 0.026-0.59662 0.0637-1.1926 0.11618-1.7874 0.0713-0.79671 0.15305-1.5925 0.25994-2.3851 0.0861-0.63555 0.18358-1.2693 0.2735-1.9043 8e-3 -0.0624 0.0163-0.12489 0.0235-0.18747 5e-3 -0.0443-0.0296-0.12485 0.0131-0.13334 0.68174-0.13531 0.57958-0.0605 0.45398 0.22555-0.14819 0.29613-0.32041 0.57858-0.50673 0.85101-0.31893 0.45898-0.65487 0.90479-1.0119 1.3334-0.38466 0.46622-0.77628 0.92668-1.1921 1.3642-0.21792 0.22957-0.4363 0.4587-0.65788 0.68455-1.3917 1.4274-1.7853 1.0237-0.39364-0.40374z" enable-background="new" opacity=".826" style="paint-order:markers fill stroke"/>
   <path d="m167.03 373.75c-0.0826-0.18812-0.1349-0.39156-0.18123-0.59598-0.0853-0.35265-0.10246-0.71225-0.0786-1.0763 0.035-0.42213 0.17981-0.77598 0.41963-1.0804 0.28186-0.30208 0.64066-0.41306 1.0028-0.48944 0.39483-0.0707 0.77996 0.0107 1.1531 0.16469 0.3412 0.15311 0.61336 0.42552 0.84388 0.75751 0.18989 0.29391 0.29502 0.63775 0.35949 0.99763 0.0464 0.29707 0.0413 0.59915 0.0212 0.89887-0.0155 0.20522-0.0471 0.40791-0.0859 0.60844-0.0121 0.0368-0.0147 0.0771-0.0252 0.11457-4e-3 0.0117 9e-3 -0.0239 7e-3 -0.0361-7e-3 -0.0574-1e-3 -0.12332-0.0308-0.16966-0.0905-0.14553-0.11797-0.14177-0.21195-0.158 0.18887-0.0572 0.3793-0.10636 0.57025-0.15233 0.31224-0.0732 0.6273-0.12685 0.9429-0.17388 0.2824-0.049 0.56568-0.0678 0.84987-0.0373 0.36548 0.0545 0.54262 0.25818 0.68841 0.65404 0.12864 0.49967 0.14103 1.0283 0.13874 1.5474-8e-3 0.60781-0.12049 1.1982-0.2892 1.768-0.17414 0.54599-0.45006 1.0199-0.78162 1.442-0.30727 0.3789-0.69094 0.61989-1.0976 0.80436-0.32663 0.13967-0.66885 0.19581-1.0135 0.21046-0.26791 5e-3 -0.53435-0.0325-0.79916-0.0769-0.23912-0.0301-0.46612-0.11151-0.68368-0.23196-0.20956-0.12067-0.36807-0.30662-0.49212-0.53939-0.0816-0.1685-0.12136-0.3551-0.14552-0.54601-0.2765-2.3099 0.26634-2.404 0.54284-0.0941 0.0108 0.10072 0.0293 0.19996 0.0681 0.29104 0.0624 0.12801 0.14653 0.22363 0.25828 0.29017 0.16739 0.0956 0.34316 0.15392 0.52808 0.17657 0.2336 0.0394 0.46856 0.0739 0.70492 0.0709 0.28531-0.0104 0.56877-0.0555 0.83968-0.16902 0.32961-0.14678 0.6422-0.33619 0.89235-0.64112 0.2813-0.35288 0.51345-0.75196 0.66275-1.21 0.15008-0.49861 0.24782-1.0167 0.25693-1.5493 3e-3 -0.43205-6e-3 -0.87093-0.0974-1.2914-0.0449-0.15698-0.0815-0.23083-0.23254-0.24843-0.24452-0.0294-0.48834-5e-3 -0.73136 0.0352-0.30215 0.0449-0.60381 0.0962-0.90277 0.16612-0.20202 0.0485-0.40257 0.10448-0.60346 0.15905-0.32345 0.0132-0.43386-0.22203-0.34786-0.55481 0.0329-0.169 0.0599-0.33986 0.0734-0.51285 0.0165-0.23598 0.023-0.47401-0.0112-0.70851-0.0433-0.25611-0.1144-0.50215-0.24604-0.71376-0.16261-0.2422-0.35697-0.44015-0.60121-0.55404-0.28377-0.12164-0.57745-0.18721-0.87943-0.13749-0.24777 0.0503-0.50171 0.11121-0.70473 0.30164-0.15897 0.18197-0.23841 0.41057-0.26429 0.67297-0.0218 0.28751-6e-3 0.56993 0.0615 0.8486 0.0344 0.15467 0.0726 0.30905 0.13329 0.45228 0.92851 2.0488 0.44704 2.3649-0.48147 0.31605z" enable-background="new" opacity=".826" style="paint-order:markers fill stroke"/>
   <path d="m97.304 285.71c-0.0269-0.24219-0.0407-0.48629-0.0554-0.72994-0.0322-0.38409-0.0403-0.76066 0.0247-1.1394 0.1666-0.58851 0.58973-0.8921 1.0278-1.141 0.5125-0.26829 1.0549-0.37061 1.6088-0.35573 0.56828 0.0396 1.0082 0.28506 1.4293 0.73978 0.37829 0.4682 0.5493 1.0738 0.6648 1.7004 0.1214 0.74749-0.0233 1.3914-0.28346 2.0641-0.30495 0.70291-0.76166 1.2709-1.2296 1.8133-0.49322 0.56032-1.0415 1.039-1.6061 1.4848-0.46807 0.35817-0.96832 0.6461-1.4766 0.90731-0.29535 0.15304-0.60053 0.2726-0.91095 0.37006-0.22702 0.0712-0.17166 0.11105-0.1014-0.63689 8e-5 0 0.23127-0.0276 0.35003-0.0417 0.37651-0.0449 0.75399-0.0757 1.1316-0.1036 0.41353-0.03 0.82751-0.0492 1.2416-0.0641 0.32443-0.0114 0.64899-0.0163 0.97356-0.0178 0.21977 0 0.43953 3e-3 0.65928 6e-3 0.14592 3e-3 0.29184 6e-3 0.43775 0.01 0.0652 3e-3 0.0334 0 0.0954 3e-3 1.9386 0.0501 1.927 0.71919-0.0116 0.66906-0.0621-3e-3 -0.0305 0-0.0952-3e-3 -0.14472-4e-3 -0.28944-7e-3 -0.43417-0.01-0.21642-4e-3 -0.43284-7e-3 -0.64927-6e-3 -0.31988 3e-3 -0.63978 7e-3 -0.95954 0.0175-0.40841 0.0147-0.81672 0.0335-1.2246 0.0632-0.37096 0.0273-0.74184 0.0576-1.1117 0.10174-0.10082 0.012-0.35286 0.0495-0.35601 0.0424-0.28085-0.63039-0.33663-0.59709-0.0822-0.67796 0.2845-0.0892 0.56419-0.1983 0.8348-0.33877 0.47887-0.24564 0.9503-0.51612 1.3916-0.85243 0.53643-0.42294 1.0575-0.87681 1.5264-1.4082 0.41972-0.48537 0.83318-0.99052 1.1122-1.6163 0.20551-0.51762 0.33883-1.0508 0.24295-1.6307-0.0878-0.49032-0.20962-0.97325-0.49703-1.3489-0.30309-0.34398-0.65814-0.5392-1.0762-0.56738-0.46958-0.0184-0.92923 0.072-1.3649 0.29465-0.27822 0.15404-0.58175 0.32697-0.72195 0.6796-0.0636 0.31097-0.0306 0.62729-0.0129 0.94374 0.0134 0.2233 0.0263 0.44691 0.0494 0.66907 0.31878 2.3338-0.2222 2.4438-0.54097 0.11004z" enable-background="new" opacity=".826" style="paint-order:markers fill stroke"/>
   <path d="m191.6 253.42c-0.13711 0-0.27422 0.58345-0.27422 1.7504v0.99231c-1e-3 0.52682 3e-3 1.0536-3e-3 1.5804-5e-3 0.36972-0.0148 0.74048-0.0643 1.1059h-0.38c-2e-3 9e-3 -4e-3 0.0142-5e-3 0.0224-0.0102 9e-3 -0.0131 0.0285-0.0122 0.0578-0.12984 0.63527-0.24216 0.52624 0.0461 0.61201 0.0552 0.0184 0.11023 0.0364 0.15625 0.0794 0.16224 0.11129 0.33311 0.13267 0.4906-0.0102 0.0262-0.0316 0.049-0.0651 0.0701-0.0994h0.0418c0.36496 4e-3 0.72991 8e-3 1.0949 0.012 0.30792 4e-3 0.61582 6e-3 0.92374 9e-3 0.23735 0 0.47466 3e-3 0.71203 3e-3 -5.3e-4 0.34264-5e-5 0.68503 0.0144 1.0273 0.01 0.21793 0.0281 0.43522 0.055 0.65104 0.012 0.093 0.0254 0.18562 0.0449 0.27673 5e-3 0.0205 2e-3 0.011 6e-3 0.0294 0.46475 2.2657 0.99713 2.1075 0.53239-0.15826-5e-3 -0.0252-3e-3 -0.0123-8e-3 -0.0392-0.0142-0.0682-0.0242-0.13746-0.0331-0.20694-0.0245-0.19438-0.0404-0.39019-0.0494-0.58646-0.0141-0.33103-0.0148-0.6622-0.0139-0.99351h0.2423 0.58637 0.43278c0.0773 5e-5 0.0392 0 0.11397 0 1.9391-3e-3 1.9387-0.66202-2.4e-4 -0.66008-0.0748-4e-5 -0.0368 0-0.11414 0h-0.43313-0.5862c-0.0806-4e-5 -0.16106 0-0.24162 0v-1.8606c0-2.3337-0.54844-2.3337-0.54844 0v1.8604c-0.23623 0-0.47246 0-0.70868-3e-3 -0.30733-3e-3 -0.61474-5e-3 -0.92208-9e-3 -0.31834-4e-3 -0.63662-7e-3 -0.95498-0.0104 0.0422-0.36541 0.0566-0.73434 0.0602-1.1033 6e-3 -0.52955 2e-3 -1.0591 3e-3 -1.5887v-0.99212c0-1.1669-0.13711-1.7504-0.27421-1.7504z" enable-background="new" opacity=".826" style="paint-order:markers fill stroke"/>
  </g>
 </g>
</svg>
