<svg width="150.59mm" height="150.59mm" version="1.1" viewBox="0 0 150.59 150.59" xmlns="http://www.w3.org/2000/svg">
 <g transform="translate(233.34 -122.46)">
  <g fill="none" stroke="#00887a" stroke-linecap="square">
   <path d="m-155.23 242.58c6.3713-2.6303 12.609-5.5754 18.917-8.3576 2.2497-0.83874 4.5049-1.6628 6.7491-2.5162 2.3655-0.89949 4.7093-1.8556 7.0796-2.7424 7.9893-2.9888 16.069-5.7424 24.151-8.4672 5.4419-2.0464 1.9387-0.83692 6.6827-2.2696 1.364-0.41191 2.706-0.88548 4.0825-1.2535 1.4249-0.42936 2.032 1.5858 0.60719 2.0151-1.1847 0.24224-0.47747 0.0714-2.0289 0.56089-2.9073 0.9181-5.8115 1.8473-8.6731 2.9021-6.7011 2.3731-3.1858 1.1544-10.551 3.6425-9.1502 3.1939-18.231 6.5981-27.207 10.254-1.9625 0.77461-3.9445 1.5017-5.8876 2.3239-1.6165 0.6839-3.1823 1.4825-4.7874 2.1927-1.2254 0.54188-2.4789 1.0189-3.7029 1.5638-1.5308 0.68183-3.0011 1.4977-4.5883 2.0526-1.3438 0.59665-2.1876-1.304-0.84376-1.9006z" stroke-dasharray="0.58799718, 3.52798311000000009" stroke-width=".588" style="paint-order:markers fill stroke"/>
   <g stroke-width=".588">
    <path d="m-153.56 213.17c6.8552-0.72094 13.742-1.1013 20.615-1.6587 2.3777-0.33372 4.7533-0.68295 7.1331-1.0012 2.5085-0.33543 5.0248-0.61076 7.5315-0.95972 8.4488-1.1762 16.865-2.6024 25.27-4.055 5.7599-0.79184 2.1034-0.18726 6.9573-1.1865 0.02773-2.9299-2.2219-1.592-7.2987-0.85183-7.0228 1.1042-3.3512 0.50192-11.012 1.821-9.5673 1.5487-19.174 2.8794-28.807 3.9391-2.0946 0.25337-4.1838 0.55775-6.2839 0.76009-1.7472 0.16837-3.5043 0.21174-5.254 0.35152-1.3356 0.10702-2.665 0.28447-4.0009 0.3882-1.6708 0.12937-3.3523 0.11209-5.0122 0.37996-1.4658 0.11525-1.3028 2.1883 0.163 2.073z" stroke-dasharray="0.58800001, 3.52800003999999978" style="paint-order:markers fill stroke"/>
    <path d="m-138.41 163.03c2.3394 0.54038 4.6824 1.0655 7.0182 1.6211 2.4621 0.58563 4.9101 1.2302 7.3753 1.8026 8.3092 1.9291 16.678 3.6133 25.045 5.2687 5.6612 1.3246 2.0308 0.57884 6.9205 1.3851 1.4059 0.23182 2.7979 0.52763 4.2106 0.71435 1.4685 0.24125 1.8097-1.8355 0.34119-2.0768-1.2061-0.0868-0.48271-9e-3 -2.0845-0.29345-3.0017-0.53392-6.002-1.0793-8.9761-1.7546-6.9521-1.4854-3.3085-0.73216-10.934-2.2456-9.487-1.9822-18.932-4.1819-28.306-6.6443-2.0464-0.51397-4.1058-0.97834-6.1391-1.542-1.6915-0.46882-3.3475-1.0579-5.0311-1.5544-1.2853-0.37864-2.59-0.6893-3.8743-1.0711-10.544 0.64538 10.317 5.1779 14.434 6.3904z" stroke-dasharray="0.58800001, 3.52800004" style="paint-order:markers fill stroke"/>
    <path d="m-212.68 203.11c2.3709 0.37927 4.7393 0.77399 7.1126 1.1378 2.5016 0.38348 5.0122 0.70701 7.5117 1.104 8.4246 1.338 16.812 2.9254 25.188 4.5388 5.7437 0.90215 2.0994 0.22756 6.9333 1.3197 1.3898 0.31402 2.7909 0.56354 4.17 0.92189 1.4514 0.32883 0.98637 2.3814-0.46503 2.0526-1.1502-0.37326-0.45047-0.17368-2.0418-0.51219-2.9821-0.63438-5.9672-1.2576-8.9769-1.7506-7.0003-1.2386-3.341-0.5661-10.975-2.0319-9.5358-1.7319-19.115-3.2466-28.727-4.4908-2.0894-0.2935-4.1723-0.63789-6.2682-0.88047-1.7436-0.20184-3.4996-0.2789-5.2463-0.45221-9.5672-3.5675 2.1347-1.9173 11.785-0.95664z" stroke-dasharray="0.58800001, 3.52800003999999978" style="paint-order:markers fill stroke"/>
    <path d="m-161.27 241.9c-6.3493-2.6833-12.562-5.6802-18.847-8.5148-2.2427-0.85745-4.491-1.7003-6.7281-2.5724-2.358-0.91917-4.6938-1.8948-7.0567-2.8012-7.9644-3.0552-16.021-5.876-24.081-8.668-5.4248-2.0917-1.9317-0.85304-6.6638-2.3251-1.3605-0.42325-2.6986-0.90798-4.072-1.2875-1.4213-0.44122-2.0452 1.5688-0.62399 2.01 1.1826 0.25203 0.47691 0.0752 2.0243 0.57776 2.8996 0.94228 5.7961 1.8957 8.6489 2.9742 6.6812 2.4288 3.1762 1.1809 10.52 3.7302 9.1235 3.27 18.176 6.7497 27.121 10.48 1.956 0.79093 3.9319 1.5345 5.8682 2.3728 1.6108 0.69734 3.1699 1.5089 4.7691 2.2325 1.2209 0.55207 2.4704 1.0395 3.6899 1.5945 1.5251 0.69456 2.9886 1.5227 4.5711 2.0907 1.3389 0.60783 2.1985-1.2856 0.85961-1.8934z" stroke-dasharray="0.58800001, 3.52800003999999978" style="paint-order:markers fill stroke"/>
    <path d="m-211.79 189.11c2.3966-0.14632 4.7922-0.30826 7.1897-0.43896 2.527-0.13777 5.0572-0.215 7.5835-0.36641 8.515-0.51033 17.017-1.2724 25.51-2.0617 5.8043-0.3379 2.1116-0.0218 7.029-0.6375 2.8836-0.35751 2.8836-0.35751 3.9773-2.5991-1.7464 0.32546-0.62297 0.1482-2.082 0.31069-3.0298 0.34063-6.0613 0.66987-9.1048 0.86709-7.0877 0.55027-3.3802 0.23769-11.121 0.95222-9.6593 0.79398-19.341 1.3676-29.028 1.6689-2.1081 0.0884-4.2146 0.22809-6.3242 0.26518-1.755 0.0309-3.5102-0.0636-5.2654-0.0614-12.703 2.1732 1.9376 2.1163 11.636 2.101z" stroke-dasharray="0.58800002, 3.52800007999999998" style="paint-order:markers fill stroke"/>
    <path d="m-163.65 158.45c-6.7032 1.6064-13.323 3.5446-19.988 5.3108-2.3529 0.4783-4.709 0.94128-7.0587 1.4349-2.4767 0.52029-4.9409 1.0999-7.4204 1.6068-8.3574 1.7086-16.768 3.1708-25.176 4.6042-5.6943 1.1743-2.0454 0.52491-6.9548 1.2016 0 0-1.9169-1.6628 6.5968-3.237 6.989-1.301 3.3268-0.64437 10.989-1.9556 9.5361-1.7305 19.036-3.6796 28.472-5.8931 2.0592-0.45966 4.1303-0.86938 6.1777-1.379 1.7033-0.42391 3.3744-0.969 5.0705-1.4207 1.2948-0.34451 2.6073-0.62054 3.9013-0.96823 1.6183-0.43522 3.1978-1.0123 4.852-1.3133 1.4204-0.38018 1.958 1.6286 0.53766 2.0087z" stroke-dasharray="0.58800002, 3.52800008" style="paint-order:markers fill stroke"/>
   </g>
  </g>
  <g fill="#f61c2d" stroke="#fc6671" stroke-linecap="square" stroke-width=".588">
   <path d="m-158.63 197.36c-0.25393 1.5498-0.42986 3.1152-0.57436 4.6797-0.16924 2.9906-0.52622 5.991-0.43054 8.9913 0.22852 3.1373 0.16112 1.5838 0.20813 4.6602 0.31978 2.4361 0.64147 4.8992 1.3107 7.2703 0.12179 0.43145 0.27381 0.8538 0.41066 1.2807 0.24351 0.77484-0.85226 1.1192-1.0958 0.34439-0.47621-1.5201-0.94429-3.0593-1.2478-4.6255-0.12847-0.66297-0.21593-1.3333-0.30973-2.0021-0.1022-0.72878-0.18547-1.4601-0.27821-2.1902-0.0814-1.5713-0.18362-3.1728-0.18569-4.7468-1e-3 -0.82036 0.0408-1.6402 0.0587-2.4604 0.0174-0.80387 8e-3 -1.6086 0.0471-2.4117 0.0685-1.4109 0.2756-2.8131 0.30102-4.2271 0.17443-1.7024 0.22734-3.527 0.77537-5.1584 0.4211-0.71452 1.4316-0.11899 1.0105 0.59553z" style="paint-order:markers fill stroke"/>
   <path d="m-158.97 148.44c-0.912 1.7731-1.6236 3.6616-1.9705 5.6316-0.0708 0.40202-0.0996 0.81031-0.14938 1.2155-0.0625 1.4823-0.24401 3.0687 0.25856 4.5042 0.20145 0.57542 0.7893 1.5883 1.076 2.1088 0.63436 0.88424 1.2442 1.796 2.002 2.5829 0.18719 0.19439 0.39788 0.36473 0.5929 0.55126 0.65051 0.62221 0.21736 0.27754 0.83306 0.7258 0.0879 0.0516 0.17588 0.10321 0.26381 0.15482 0.71736 0.45793 0.0698 1.4724-0.6476 1.0145-0.13089-0.0664-0.26177-0.13263-0.39266-0.19895-0.51193-0.48164-1.0182-0.9716-1.5172-1.4666-0.24689-0.2449-0.51066-0.47502-0.73261-0.74272-0.18371-0.22156-1.2903-1.8522-1.421-2.0432-0.23923-0.3851-0.5149-0.74982-0.71768-1.1553-0.97073-1.9411-0.94897-4.0932-0.78189-6.2004 0.22127-1.675 0.55161-3.5197 1.2055-5.0869 0.15965-0.38269 0.377-0.73871 0.56031-1.1107 0.17192-0.34885 0.3369-0.70108 0.50535-1.0516 0.45854 0.19374 1.0485 0.53797 1.033 0.56704z" style="paint-order:markers fill stroke"/>
   <path d="m-169.22 146.79c0.21189-0.0141 0.0257-0.0265 0.28496 0.12981 0.67254 0.40552-0.0379-0.18366 0.68234 0.61795 1.1635 1.295-0.0887-0.28053 1.1323 1.3215 1.185 1.6035 2.1908 3.3532 2.8496 5.2418 0.13446 0.38542 0.22848 0.78378 0.34271 1.1757 0.29986 1.453 0.73386 2.9896 0.46845 4.4872-0.10638 0.60032-0.52387 1.6945-0.72317 2.2543-0.48406 0.97466-0.9395 1.9726-1.561 2.871-0.15352 0.22193-0.33411 0.42392-0.49663 0.63935-0.5421 0.71864-0.16995 0.30886-0.70564 0.85021-0.0785 0.065-0.15701 0.13013-0.2355 0.19519-0.63447 0.56723 0.16767 1.4645 0.80217 0.89727 0.11853-0.0865 0.23706-0.17297 0.3556-0.25945 0.4279-0.55763 0.84889-1.1226 1.2619-1.6913 0.20434-0.28138 0.4277-0.55089 0.60377-0.85077 0.14571-0.24819 0.97593-2.0354 1.0742-2.245 0.17425-0.41853 0.38774-0.8228 0.52274-1.2556 0.64627-2.0719 0.27904-4.1924-0.22441-6.2455-0.48751-1.6177-1.1099-3.3853-2.0071-4.8272-0.21907-0.35207-0.49078-0.66854-0.73146-1.0062-0.22574-0.3167-0.44517-0.63785-0.66774-0.95678-0.72285-1.0121-1.5822-2.2703-2.8886-2.5338-0.84159-0.0987-0.98114 1.0915-0.13955 1.1902z" style="paint-order:markers fill stroke"/>
   <path d="m-151.84 190.68c-0.12184-0.10068-0.32599-0.26056-0.41355-0.37956-0.4107-0.55802-0.69344-1.3454-1.0179-1.9659-0.0605-0.22841-0.11703-0.45788-0.18144-0.68521-0.19552-0.69004-0.24363-0.70617-0.37259-1.4165-0.12949-0.71324-0.17403-1.4361-0.20447-2.1586 0.0185-0.80085 0.0415-1.6012 0.34417-2.3554 0.14728-0.36697 0.34542-0.71141 0.51851-1.0669 0.41653-0.59545 0.98544-1.0066 1.5714-1.4159 0.74721-0.45284 1.3876 0.60389 0.64041 1.0567-0.49941 0.27143-0.82582 0.508-1.1822 0.96129-0.4899 0.85912-0.72227 1.8032-0.65012 2.797-0.0332 0.9904-0.0423 0.24936 0.0661 1.271 0.0238 0.22423 0.0153 0.45217 0.0541 0.6743 0.0387 0.2219 0.12656 0.43261 0.17752 0.65204 0.0487 0.20984 0.0596 0.42837 0.12128 0.63478 0.0586 0.19618 0.15843 0.37762 0.23764 0.56642 0.0556 0.1827 0.0857 0.37524 0.1669 0.54809 0.072 0.15309 0.20169 0.27246 0.28719 0.41843 0.0731 0.12493 0.11243 0.26792 0.18738 0.39176 0.14118 0.23327 0.36202 0.41859 0.49637 0.65825 0.5756 0.59866-0.27105 1.4127-0.84663 0.814z" style="paint-order:markers fill stroke"/>
   <path d="m-156.37 179.31c0.12184 0.10068 0.32599 0.26056 0.41355 0.37956 0.4107 0.55802 0.69344 1.3454 1.0179 1.9659 0.0605 0.22841 0.11703 0.45788 0.18144 0.68521 0.19552 0.69004 0.24363 0.70617 0.37259 1.4165 0.12949 0.71324 0.17403 1.4361 0.20447 2.1586-0.0185 0.80085-0.0415 1.6012-0.34417 2.3554-0.14728 0.36697-0.34542 0.71141-0.51851 1.0669-0.41653 0.59545-0.98544 1.0066-1.5714 1.4159-0.74721 0.45284-1.3876-0.60389-0.64041-1.0567 0.49941-0.27143 0.82582-0.508 1.1822-0.96129 0.4899-0.85912 0.72227-1.8032 0.65012-2.797 0.0332-0.9904 0.0423-0.24936-0.0661-1.271-0.0238-0.22423-0.0153-0.45217-0.0541-0.6743-0.0387-0.2219-0.12656-0.43261-0.17752-0.65204-0.0487-0.20984-0.0596-0.42837-0.12128-0.63478-0.0586-0.19618-0.15843-0.37762-0.23764-0.56642-0.0556-0.1827-0.0857-0.37524-0.1669-0.54809-0.072-0.15309-0.20169-0.27246-0.28719-0.41843-0.0731-0.12493-0.11243-0.26792-0.18738-0.39176-0.14118-0.23327-0.36202-0.41859-0.49637-0.65825-0.5756-0.59866 0.27105-1.4127 0.84663-0.814z" style="paint-order:markers fill stroke"/>
   <path d="m-163.42 224.35c0.25393-1.5497 0.42986-3.1152 0.57436-4.6797 0.16924-2.9906 0.52622-5.991 0.43053-8.9913-0.22851-3.1373-0.16112-1.5838-0.20812-4.6601-0.31979-2.4361-0.64147-4.8992-1.3107-7.2703-0.12179-0.43145-0.27381-0.8538-0.41067-1.2807-0.24351-0.77484 0.85226-1.1192 1.0958-0.34439 0.47622 1.5201 0.9443 3.0593 1.2478 4.6255 0.12847 0.66297 0.21593 1.3333 0.30973 2.0021 0.1022 0.72879 0.18547 1.4601 0.2782 2.1902 0.0814 1.5713 0.18363 3.1728 0.1857 4.7468 1e-3 0.82036-0.0409 1.6402-0.0587 2.4604-0.0174 0.80387-8e-3 1.6086-0.0471 2.4117-0.0685 1.4109-0.27559 2.8131-0.30101 4.2271-0.17443 1.7024-0.22734 3.527-0.77537 5.1584-0.4211 0.71453-1.4316 0.119-1.0105-0.59553z" style="paint-order:markers fill stroke"/>
  </g>
  <g fill="#51df3b" stroke="#33d917" stroke-linecap="square" stroke-width=".588">
   <path d="m-164.56 232.49c0.0249 0.0737 0.0385 0.15249 0.0748 0.22141 0.0649 0.12315 0.16606 0.22543 0.22669 0.35072 0.0853 0.1764 0.13452 0.36825 0.20897 0.54951 0.31638 0.77018 0.65038 1.5321 0.96047 2.3052 0.15709 0.8941 0.67138 1.6465 1.0134 2.4673 0.27576 0.66166 0.47105 1.3655 0.72999 2.0355 0.0284 0.50423 0.43139 1.1556 0.45059 1.6472 0.0206 0.52719-0.14417 0.0515 0.055 0.49872-0.12326 0.24368-0.0162 0.51922-0.0594 0.77018-0.0766 0.44428-0.11359-0.0245-0.0258 0.4872-0.12509 0.6949-0.24501 1.4424-0.66503 2.0343-0.10051 0.14164-0.23497 0.25582-0.35245 0.38375-0.42206 0.75077-0.98965 1.4014-1.5586 2.0404-0.5191 0.64371-1.4294-0.0904-0.91035-0.73409 0.15514-0.23043 0.46376-0.70616 0.63697-0.89268 0.10056-0.10829 0.24242-0.17268 0.34285-0.28109 0.21091-0.22765 0.32842-0.53118 0.53927-0.7589 0.29058-0.41873 0.48308-0.81586 0.66477-1.2888 0.0317-0.0824 0.0838-0.15839 0.10028-0.24515 0.0177-0.0938 2.6e-4 -0.19101 2.9e-4 -0.28651-0.0615-0.4249 0.0447-0.77634 0.038-1.1965-0.0306-0.6055-0.1643-1.2219-0.37129-1.7888-0.2228-0.66838-0.45318-1.3231-0.75358-1.962-0.12242-0.26035-0.28232-0.50365-0.38553-0.77219-1.0801-2.8103 0.64146 1.0741-0.62466-1.7003-0.27389-0.76076-0.56144-1.5466-0.89384-2.2841-0.41855-0.92873-0.13578-0.11313-0.45686-0.92898-0.0389-0.099-0.0661-0.20227-0.0992-0.30341-0.26008-0.78795 0.85424-1.1558 1.1143-0.36782z" style="paint-order:markers fill stroke"/>
   <path d="m-150.97 145.99c-0.21141 0.0201-0.0296-0.0221-0.26041 0.1739-0.59865 0.5083 8e-3 -0.18737-0.57419 0.71955-0.94034 1.4651 0.0425-0.29113-0.90528 1.4862-0.912 1.7731-1.6236 3.6616-1.9705 5.6316-0.0708 0.40202-0.0996 0.81031-0.14938 1.2155-0.0625 1.4823-0.24401 3.0687 0.25856 4.5042 0.20145 0.57541 0.7893 1.5883 1.076 2.1088 0.63436 0.88424 1.2442 1.796 2.002 2.5829 0.18719 0.19439 0.39788 0.36473 0.5929 0.55126 0.65051 0.62221 0.21736 0.27753 0.83306 0.72579 0.0879 0.0516 0.17588 0.10321 0.26381 0.15483 0.71736 0.45793 0.0698 1.4724-0.6476 1.0145-0.13089-0.0664-0.26177-0.13263-0.39266-0.19895-0.51193-0.48164-1.0182-0.9716-1.5172-1.4666-0.24689-0.2449-0.51066-0.47503-0.73261-0.74272-0.18371-0.22156-1.2903-1.8522-1.421-2.0432-0.23923-0.3851-0.5149-0.74982-0.71768-1.1553-0.97073-1.9411-0.94897-4.0932-0.78189-6.2004 0.22127-1.675 0.55161-3.5197 1.2055-5.0869 0.15965-0.38269 0.377-0.73871 0.56031-1.1107 0.17192-0.34885 0.3369-0.70108 0.50535-1.0516 0.55084-1.1151 1.1969-2.495 2.444-2.965 0.8148-0.2326 1.1438 0.91971 0.32895 1.1523z" style="paint-order:markers fill stroke"/>
   <path d="m-159.79 150.27c1.185 1.6035 1.132 1.8709 1.7908 3.7595 0.13446 0.38542 0.22848 0.78378 0.34271 1.1757 0.29986 1.453 0.73386 2.9896 0.46845 4.4873-0.10638 0.60032-0.52387 1.6945-0.72317 2.2543-0.48406 0.97467-0.9395 1.9726-1.561 2.871-0.15352 0.22192-0.33411 0.42392-0.49663 0.63935-0.5421 0.71864-0.16995 0.30886-0.70564 0.85021-0.0785 0.065-0.15701 0.13013-0.2355 0.19519-0.63447 0.56723 0.16767 1.4645 0.80217 0.89727 0.11853-0.0865 0.23706-0.17297 0.3556-0.25945 0.4279-0.55763 0.84889-1.1226 1.2619-1.6913 0.20434-0.28138 0.4277-0.5509 0.60377-0.85077 0.14571-0.24819 0.97593-2.0354 1.0742-2.245 0.17425-0.41854 0.38774-0.8228 0.52274-1.2556 0.64627-2.0719 0.27904-4.1924-0.22441-6.2455-0.48751-1.6177-1.1099-3.3853-2.0071-4.8272-0.21907-0.35207-0.4546-0.63196-0.69528-0.96963z" style="paint-order:markers fill stroke"/>
   <path d="m-158.63 190.44c-0.12184-0.10068-0.32599-0.26056-0.41355-0.37956-0.4107-0.55802-0.69344-1.3454-1.0179-1.9659-0.0605-0.22841-0.11703-0.45788-0.18144-0.68521-0.19552-0.69004-0.24363-0.70617-0.37259-1.4165-0.12949-0.71324-0.17403-1.4361-0.20447-2.1586 0.0185-0.80085 0.0415-1.6012 0.34417-2.3554 0.14728-0.36697 0.34542-0.71141 0.51851-1.0669 0.41653-0.59545 0.98544-1.0066 1.5714-1.4159 0.74721-0.45284 1.3876 0.60389 0.64041 1.0567-0.49941 0.27143-0.82582 0.508-1.1822 0.96129-0.4899 0.85912-0.72227 1.8032-0.65012 2.797-0.0332 0.9904-0.0423 0.24936 0.0661 1.271 0.0238 0.22423 0.0153 0.45217 0.0541 0.6743 0.0387 0.2219 0.12656 0.43261 0.17752 0.65204 0.0487 0.20984 0.0596 0.42837 0.12128 0.63478 0.0586 0.19618 0.15843 0.37762 0.23764 0.56642 0.0556 0.1827 0.0857 0.37524 0.1669 0.54809 0.072 0.15309 0.20169 0.27246 0.28719 0.41843 0.0731 0.12493 0.11243 0.26792 0.18738 0.39176 0.14118 0.23327 0.36202 0.41859 0.49637 0.65825 0.5756 0.59866-0.27105 1.4127-0.84663 0.814z" style="paint-order:markers fill stroke"/>
   <path d="m-162.94 178.86c0.12184 0.10068 0.32599 0.26056 0.41355 0.37956 0.4107 0.55802 0.69344 1.3454 1.0179 1.9659 0.0605 0.22841 0.11703 0.45788 0.18144 0.68521 0.19552 0.69004 0.24363 0.70617 0.37259 1.4165 0.12949 0.71324 0.17403 1.4361 0.20447 2.1586-0.0185 0.80085-0.0415 1.6012-0.34417 2.3554-0.14728 0.36697-0.34542 0.71141-0.51851 1.0669-0.41653 0.59545-0.98544 1.0066-1.5714 1.4159-0.74721 0.45284-1.3876-0.60389-0.64041-1.0567 0.49941-0.27143 0.82582-0.508 1.1822-0.96129 0.4899-0.85912 0.72227-1.8032 0.65012-2.797 0.0332-0.9904 0.0423-0.24936-0.0661-1.271-0.0238-0.22423-0.0153-0.45217-0.0541-0.6743-0.0387-0.2219-0.12656-0.43261-0.17752-0.65204-0.0487-0.20984-0.0596-0.42837-0.12128-0.63478-0.0586-0.19618-0.15843-0.37762-0.23764-0.56642-0.0556-0.1827-0.0857-0.37524-0.1669-0.54809-0.072-0.15309-0.20169-0.27246-0.28719-0.41843-0.0731-0.12493-0.11243-0.26792-0.18738-0.39176-0.14118-0.23327-0.36202-0.41859-0.49637-0.65825-0.5756-0.59866 0.27105-1.4127 0.84663-0.814z" style="paint-order:markers fill stroke"/>
   <path d="m-152.62 197.4c-0.25393 1.5498-0.42986 3.1152-0.57436 4.6797-0.16924 2.9906-0.52622 5.991-0.43054 8.9913 0.22852 3.1373 0.16112 1.5838 0.20813 4.6602 0.31978 2.4361 0.64147 4.8992 1.3107 7.2703 0.12179 0.43145 0.27381 0.8538 0.41066 1.2807 0.24351 0.77484-0.85226 1.1192-1.0958 0.34439-0.47621-1.5201-0.94429-3.0593-1.2478-4.6255-0.12847-0.66297-0.21593-1.3333-0.30973-2.0021-0.1022-0.72878-0.18547-1.4601-0.27821-2.1902-0.0814-1.5713-0.18362-3.1728-0.18569-4.7468-1e-3 -0.82036 0.0408-1.6402 0.0587-2.4604 0.0174-0.80387 8e-3 -1.6086 0.0471-2.4117 0.0685-1.4109 0.2756-2.8131 0.30102-4.2271 0.17443-1.7024 0.22734-3.527 0.77537-5.1584 0.4211-0.71452 1.4316-0.11899 1.0105 0.59553z" style="paint-order:markers fill stroke"/>
   <path d="m-157.41 224.39c0.25393-1.5497 0.42986-3.1152 0.57436-4.6797 0.16924-2.9906 0.52622-5.991 0.43053-8.9913-0.22851-3.1373-0.16112-1.5838-0.20812-4.6601-0.31979-2.4361-0.64147-4.8992-1.3107-7.2703-0.12179-0.43145-0.27381-0.8538-0.41067-1.2807-0.24351-0.77484 0.85226-1.1192 1.0958-0.34439 0.47622 1.5201 0.9443 3.0593 1.2478 4.6255 0.12847 0.66297 0.21593 1.3333 0.30973 2.0021 0.1022 0.72879 0.18547 1.4601 0.2782 2.1902 0.0814 1.5713 0.18363 3.1728 0.1857 4.7468 1e-3 0.82036-0.0409 1.6402-0.0587 2.4604-0.0174 0.80387-8e-3 1.6086-0.0471 2.4117-0.0685 1.4109-0.27559 2.8131-0.30101 4.2271-0.17443 1.7024-0.22734 3.527-0.77537 5.1584-0.4211 0.71453-1.4316 0.119-1.0105-0.59553z" style="paint-order:markers fill stroke"/>
   <path d="m-157.48 232.33c-0.0249 0.0737-0.0385 0.15249-0.0748 0.22141-0.0649 0.12315-0.16606 0.22543-0.22669 0.35072-0.0853 0.1764-0.13452 0.36825-0.20897 0.54951-0.31638 0.77018-0.65038 1.5321-0.96047 2.3052-0.15709 0.8941-0.67138 1.6465-1.0134 2.4673-0.27576 0.66166-0.47105 1.3655-0.72999 2.0355-0.0284 0.50423-0.43139 1.1556-0.45059 1.6472-0.0206 0.52719 0.14417 0.0515-0.055 0.49872 0.12326 0.24368 0.0162 0.51922 0.0594 0.77018 0.0766 0.44428 0.11359-0.0245 0.0258 0.4872 0.12509 0.6949 0.24501 1.4424 0.66503 2.0343 0.10051 0.14164 0.23497 0.25582 0.35245 0.38375 0.42206 0.75077 0.98965 1.4014 1.5586 2.0404 0.5191 0.64371 1.4294-0.0904 0.91035-0.73409-0.15514-0.23043-0.46376-0.70616-0.63697-0.89268-0.10056-0.10829-0.24242-0.17268-0.34285-0.28109-0.21091-0.22765-0.32842-0.53118-0.53927-0.7589-0.29058-0.41873-0.48308-0.81586-0.66477-1.2888-0.0317-0.0824-0.0838-0.15839-0.10028-0.24515-0.0177-0.0938-2.6e-4 -0.19101-2.9e-4 -0.28651 0.0615-0.4249-0.0447-0.77634-0.038-1.1965 0.0306-0.6055 0.1643-1.2219 0.37129-1.7888 0.2228-0.66838 0.45318-1.3231 0.75358-1.962 0.12242-0.26035 0.28232-0.50365 0.38553-0.77219 1.0801-2.8103-0.64146 1.0741 0.62466-1.7003 0.27389-0.76076 0.56144-1.5466 0.89384-2.2841 0.41855-0.92873 0.13578-0.11313 0.45686-0.92898 0.0389-0.099 0.0661-0.20227 0.0992-0.30341 0.26008-0.78795-0.85424-1.1558-1.1143-0.36782z" style="paint-order:markers fill stroke"/>
  </g>
  <path d="m-158.59 232.66c0.0249 0.0737 0.0385 0.15249 0.0748 0.22141 0.0649 0.12315 0.16606 0.22543 0.22669 0.35072 0.0853 0.1764 0.13452 0.36825 0.20897 0.54951 0.31638 0.77018 0.65038 1.5321 0.96047 2.3052 0.15709 0.8941 0.67138 1.6465 1.0134 2.4673 0.27576 0.66166 0.47105 1.3655 0.72999 2.0355 0.0284 0.50423 0.43139 1.1556 0.45059 1.6472 0.0206 0.52719-0.14417 0.0515 0.055 0.49872-0.12326 0.24368-0.0162 0.51922-0.0594 0.77018-0.0766 0.44428-0.11359-0.0245-0.0258 0.4872-0.12509 0.6949-0.24501 1.4424-0.66503 2.0343-0.10051 0.14164-0.23497 0.25582-0.35245 0.38375-0.42206 0.75077-0.98965 1.4014-1.5586 2.0404-0.5191 0.64371-1.4294-0.0904-0.91035-0.73409v0c0.15514-0.23043 0.46376-0.70616 0.63697-0.89268 0.10056-0.10829 0.24242-0.17268 0.34285-0.28109 0.21091-0.22765 0.32842-0.53118 0.53927-0.7589 0.29058-0.41873 0.48308-0.81586 0.66477-1.2888 0.0317-0.0824 0.0838-0.15839 0.10028-0.24515 0.0177-0.0938 2.6e-4 -0.19101 2.9e-4 -0.28651-0.0615-0.4249 0.0447-0.77634 0.038-1.1965-0.0306-0.6055-0.1643-1.2219-0.37129-1.7888-0.2228-0.66838-0.45318-1.3231-0.75358-1.962-0.12242-0.26035-0.28232-0.50365-0.38553-0.77219-1.0801-2.8103 0.64146 1.0741-0.62466-1.7003-0.27389-0.76076-0.56144-1.5466-0.89384-2.2841-0.41855-0.92873-0.13578-0.11313-0.45686-0.92898-0.0389-0.099-0.0661-0.20227-0.0992-0.30341-0.26008-0.78795 0.85424-1.1558 1.1143-0.36782z" fill="#f61c2d" stroke="#fc6671" stroke-linecap="square" stroke-width=".588" style="paint-order:markers fill stroke"/>
  <path d="m-151.51 232.5c-0.0249 0.0737-0.0385 0.15249-0.0748 0.22141-0.0649 0.12315-0.16606 0.22543-0.22669 0.35072-0.0853 0.1764-0.13452 0.36825-0.20897 0.54951-0.31638 0.77018-0.65038 1.5321-0.96047 2.3052-0.15709 0.8941-0.67138 1.6465-1.0134 2.4673-0.27576 0.66166-0.47105 1.3655-0.72999 2.0355-0.0284 0.50423-0.43139 1.1556-0.45059 1.6472-0.0206 0.52719 0.14417 0.0515-0.055 0.49872 0.12326 0.24368 0.0162 0.51922 0.0594 0.77018 0.0766 0.44428 0.11359-0.0245 0.0258 0.4872 0.12509 0.6949 0.24501 1.4424 0.66503 2.0343 0.10051 0.14164 0.23497 0.25582 0.35245 0.38375 0.42206 0.75077 0.98965 1.4014 1.5586 2.0404 0.5191 0.64371 1.4294-0.0904 0.91035-0.73409v0c-0.15514-0.23043-0.46376-0.70616-0.63697-0.89268-0.10056-0.10829-0.24242-0.17268-0.34285-0.28109-0.21091-0.22765-0.32842-0.53118-0.53927-0.7589-0.29058-0.41873-0.48308-0.81586-0.66477-1.2888-0.0317-0.0824-0.0838-0.15839-0.10028-0.24515-0.0177-0.0938-2.6e-4 -0.19101-2.9e-4 -0.28651 0.0615-0.4249-0.0447-0.77634-0.038-1.1965 0.0306-0.6055 0.1643-1.2219 0.37129-1.7888 0.2228-0.66838 0.45318-1.3231 0.75358-1.962 0.12242-0.26035 0.28232-0.50365 0.38553-0.77219 1.0801-2.8103-0.64146 1.0741 0.62466-1.7003 0.27389-0.76076 0.56144-1.5466 0.89384-2.2841 0.41855-0.92873 0.13578-0.11313 0.45686-0.92898 0.0389-0.099 0.0661-0.20227 0.0992-0.30341 0.26008-0.78795-0.85424-1.1558-1.1143-0.36782z" fill="#f61c2d" stroke="#fc6671" stroke-linecap="square" stroke-width=".588" style="paint-order:markers fill stroke"/>
  <g stroke="#000" stroke-linecap="square">
   <path d="m-127.89 137.89c0.21985-0.22403 0.43649-0.45134 0.65266-0.67908 0.40674-0.42803 0.78978-0.87855 1.166-1.3347 0.34707-0.41659 0.67367-0.84977 0.98355-1.2959 0.1701-0.25003 0.32938-0.50809 0.46453-0.77982 0.12633-0.27505 0.0487-0.34514 0.59758 0.0619 0.0428 0.0318-9e-3 0.10814-0.0151 0.16205-8e-3 0.0681-0.0169 0.13609-0.0255 0.20414-0.09 0.63696-0.18794 1.2726-0.27428 1.9102-0.10567 0.78387-0.18644 1.5708-0.25698 2.3588-0.0516 0.58587-0.0889 1.1729-0.1144 1.7606-0.0875 2.0166-0.64364 1.9913-0.55611-0.0253 0.026-0.59663 0.0637-1.1926 0.11618-1.7874 0.0713-0.79671 0.15305-1.5925 0.25994-2.3851 0.0861-0.63555 0.18358-1.2693 0.2735-1.9043 8e-3 -0.0624 0.0163-0.12489 0.0235-0.18748 5e-3 -0.0443-0.0296-0.12485 0.0131-0.13333 0.68172-0.13531 0.57956-0.0605 0.45396 0.22555-0.14819 0.29613-0.3204 0.57858-0.50672 0.851-0.31893 0.45898-0.65487 0.90478-1.0119 1.3334-0.38466 0.46622-0.77628 0.92668-1.1921 1.3642-0.21793 0.22957-0.43631 0.4587-0.65789 0.68455-1.3917 1.4274-1.7853 1.0237-0.39364-0.40374z" stroke-width=".3" style="paint-order:markers fill stroke"/>
   <path d="m-127.89 173.42c-0.0269-0.2422-0.0407-0.4863-0.0554-0.72993-0.0322-0.3841-0.0403-0.76068 0.0246-1.1394 0.1666-0.58851 0.58972-0.8921 1.0278-1.141 0.5125-0.26829 1.055-0.3706 1.6088-0.35573 0.56829 0.0396 1.0082 0.28506 1.4293 0.73977 0.3783 0.46821 0.5493 1.0738 0.66482 1.7004 0.12139 0.74748-0.0233 1.3914-0.28348 2.0641-0.30495 0.70292-0.76165 1.2709-1.2295 1.8134-0.49324 0.56031-1.0414 1.039-1.6061 1.4848-0.46808 0.35816-0.96832 0.64608-1.4766 0.9073-0.29535 0.15304-0.60055 0.2726-0.91096 0.37005-0.22701 0.0712-0.17166 0.11107-0.10142-0.63688 8e-5 0 0.23128-0.0276 0.35005-0.0417 0.3765-0.0449 0.75398-0.0757 1.1315-0.10358 0.41355-0.03 0.82751-0.0492 1.2416-0.0641 0.32443-0.0114 0.64899-0.0164 0.97356-0.0177 0.21976 0 0.43952 3e-3 0.65926 6e-3 0.14592 3e-3 0.29183 6e-3 0.43775 0.0101 0.0652 3e-3 0.0334 0 0.0954 3e-3 1.9386 0.0501 1.927 0.71919-0.0116 0.66908-0.0621-3e-3 -0.0305 0-0.0952-3e-3 -0.14473-4e-3 -0.28945-7e-3 -0.43418-0.0101-0.2164-4e-3 -0.43282-7e-3 -0.64926-6e-3 -0.31988 3e-3 -0.63976 7e-3 -0.95954 0.0175-0.40841 0.0148-0.81671 0.0335-1.2246 0.0632-0.37096 0.0273-0.74185 0.0576-1.1118 0.10174-0.10081 0.0119-0.35285 0.0495-0.35603 0.0424-0.28082-0.63039-0.3366-0.59708-0.0822-0.67797 0.28448-0.0892 0.56418-0.19827 0.8348-0.33877 0.47886-0.24564 0.9503-0.51609 1.3916-0.85243 0.5364-0.42294 1.0575-0.87681 1.5264-1.4082 0.41971-0.48535 0.83317-0.99052 1.1122-1.6163 0.2055-0.51764 0.33882-1.0508 0.24294-1.6307-0.0878-0.49033-0.20962-0.97324-0.49702-1.3489-0.30311-0.34399-0.65815-0.53922-1.0762-0.5674-0.46958-0.0183-0.92924 0.072-1.3649 0.29466-0.27823 0.15404-0.58176 0.32698-0.72197 0.67961-0.0636 0.31097-0.0306 0.62728-0.013 0.94375 0.0135 0.22328 0.0265 0.4469 0.0494 0.66905 0.31877 2.3338-0.22222 2.4438-0.54099 0.11004z" stroke-width=".3" style="paint-order:markers fill stroke"/>
   <path d="m-126.61 259.85c-0.0826-0.18812-0.13491-0.39156-0.18123-0.59597-0.0853-0.35267-0.10245-0.71226-0.0786-1.0763 0.035-0.42214 0.17981-0.776 0.41965-1.0804 0.28184-0.30208 0.64064-0.41307 1.0028-0.48943 0.39484-0.0707 0.77997 0.0106 1.1531 0.16468 0.34117 0.15311 0.61335 0.42553 0.84385 0.75752 0.18989 0.2939 0.29504 0.63773 0.35949 0.99762 0.0464 0.29707 0.0413 0.59914 0.0212 0.89886-0.0156 0.20524-0.0471 0.40791-0.0859 0.60847-0.0122 0.0368-0.0148 0.0771-0.0251 0.11456-4e-3 0.0116 9e-3 -0.0238 7e-3 -0.0361-7e-3 -0.0574 0-0.12332-0.0308-0.16967-0.0905-0.14553-0.11798-0.14177-0.21196-0.15801 0.18889-0.0572 0.37931-0.10634 0.57026-0.15232 0.31224-0.0732 0.6273-0.12685 0.9429-0.17389 0.28241-0.049 0.56568-0.0678 0.84986-0.0373 0.36549 0.0545 0.54264 0.25819 0.68842 0.65405 0.12864 0.49967 0.14103 1.0283 0.13875 1.5474-8e-3 0.6078-0.12049 1.1982-0.28921 1.768-0.17413 0.54599-0.45006 1.0199-0.78162 1.442-0.30728 0.37891-0.69095 0.61989-1.0976 0.80436-0.32665 0.13967-0.66886 0.19581-1.0135 0.21047-0.26792 5e-3 -0.53436-0.0325-0.79918-0.0769-0.23913-0.0301-0.46611-0.11152-0.68368-0.23196-0.20955-0.1207-0.36806-0.30662-0.49213-0.5394-0.0816-0.16852-0.12133-0.35513-0.14552-0.54602-0.27649-2.3099 0.26636-2.404 0.54285-0.0941 0.0109 0.1007 0.0293 0.19995 0.0681 0.29102 0.0624 0.12803 0.14653 0.22365 0.25829 0.29019 0.16737 0.0956 0.34316 0.15391 0.52808 0.17656 0.23361 0.0394 0.46856 0.0739 0.70493 0.0709 0.2853-0.0103 0.56876-0.0555 0.83965-0.16902 0.32962-0.14679 0.6422-0.33621 0.89236-0.64114 0.28131-0.35287 0.51347-0.75194 0.66276-1.21 0.15007-0.49863 0.24781-1.0167 0.25691-1.5493 3e-3 -0.43204-6e-3 -0.87093-0.0974-1.2914-0.0449-0.15698-0.0815-0.23085-0.23255-0.24844-0.24452-0.0294-0.48831-5e-3 -0.73133 0.0352-0.30218 0.0449-0.60381 0.0962-0.90279 0.16611-0.202 0.0485-0.40256 0.10448-0.60346 0.15907-0.32342 0.0132-0.43386-0.22204-0.34784-0.55481 0.0329-0.16899 0.0599-0.33986 0.0734-0.51284 0.0164-0.23601 0.023-0.47403-0.0111-0.70853-0.0433-0.25612-0.11438-0.50215-0.24604-0.71377-0.16261-0.24217-0.35697-0.44016-0.60121-0.55401-0.28377-0.12165-0.57745-0.18722-0.87942-0.1375-0.24778 0.0503-0.50171 0.1112-0.70472 0.30162-0.15899 0.18198-0.23842 0.41058-0.26429 0.673-0.0217 0.28749-6e-3 0.56991 0.0615 0.84857 0.0344 0.15468 0.0726 0.30906 0.13329 0.45231 0.92851 2.0487 0.44704 2.3648-0.48148 0.31604z" stroke-width=".3" style="paint-order:markers fill stroke"/>
   <path d="m-143.27 258.07c-0.0659-0.16275-0.10632-0.33241-0.15217-0.49987-0.0922-0.35125-0.18263-0.70284-0.2692-1.0551-0.0943-0.39024-0.2045-0.77769-0.31625-1.1647-0.0994-0.33766-0.21235-0.67224-0.31929-1.0082-0.0729-0.23125-0.15059-0.46365-0.17177-0.70224-0.01-0.1427 0.0359-0.25693 0.12256-0.36266 0.13081-0.14106 0.30441-0.23347 0.47875-0.31864 0.24429-0.11077 0.5051-0.1865 0.76731-0.25536 0.3067-0.0782 0.61883-0.13936 0.93169-0.19694 0.3122-0.0552 0.62648-0.10145 0.94247-0.13999 0.29011-0.0367 0.58045-0.0722 0.8711-0.10616 0.25521-0.0283 0.51039-0.057 0.76629-0.0816 0.15067-0.0136 0.0761-7e-3 0.22367-0.0198 2.768-0.23833 2.6438-0.99721-0.12416-0.75889-0.15255 0.0131-0.0753 6e-3 -0.2316 0.0205-0.26139 0.0251-0.52205 0.0543-0.78272 0.0833-0.29201 0.0341-0.58372 0.0698-0.87519 0.10665-0.33189 0.0406-0.66203 0.0891-0.98992 0.14724-0.33219 0.0612-0.66356 0.12638-0.98913 0.20977-0.31139 0.0822-0.62059 0.17394-0.90933 0.30838-0.27554 0.13704-0.54154 0.29382-0.73446 0.53048-0.18192 0.25424-0.28463 0.53267-0.25605 0.85745 0.0327 0.28993 0.10887 0.57386 0.20375 0.85475 0.1048 0.32926 0.21545 0.65718 0.31318 0.98805 0.10889 0.37706 0.21641 0.75453 0.30825 1.1348 0.0882 0.35874 0.18022 0.71686 0.27426 1.0746 0.057 0.20832 0.10859 0.41922 0.19594 0.62013 1.1566 2.524 1.8786 2.258 0.72204-0.26605z" enable-background="new" stroke-width=".23896" style="paint-order:markers fill stroke"/>
   <path d="m-142.36 255.37c0.15907 0.13601 0.32741 0.25762 0.49552 0.37934 0.32726 0.23444 0.66197 0.45668 0.99728 0.67787 0.37826 0.24887 0.75956 0.49268 1.142 0.7346 0.38553 0.24394 0.77308 0.48443 1.1666 0.71483 0.38464 0.22772 0.78111 0.43468 1.1791 0.63883 0.39275 0.20112 0.79935 0.37675 1.2071 0.54995 0.37001 0.15579 0.74089 0.30992 1.1104 0.46663 0.32485 0.13758 0.64679 0.28063 0.96712 0.42668 0.27926 0.12778 0.55614 0.25996 0.83244 0.39319 0.22577 0.10915 0.45006 0.22102 0.67375 0.33394 0.17511 0.0885 0.34949 0.17823 0.52363 0.26844 0.13211 0.0682 0.26342 0.13769 0.39468 0.20731 0.0996 0.0529 0.19922 0.10572 0.29817 0.1597 0.0415 0.0228 0.0835 0.0447 0.12503 0.0675 1.5212 0.82887 1.9524 0.0682 0.43092-0.76077-0.0418-0.023-0.0835-0.0459-0.12575-0.0679-0.0998-0.0541-0.20002-0.10734-0.30013-0.16084-0.13187-0.0703-0.26429-0.13969-0.39699-0.20853-0.17504-0.0906-0.35026-0.18087-0.52623-0.26982-0.22519-0.11367-0.45096-0.22628-0.67822-0.33618-0.27813-0.13405-0.55678-0.26713-0.83786-0.39573-0.3226-0.14702-0.64676-0.29112-0.97386-0.42965-0.36945-0.15673-0.74031-0.31082-1.1103-0.46657-0.40164-0.17057-0.80215-0.34346-1.189-0.54148-0.39347-0.20176-0.78551-0.40617-1.1656-0.63151-0.39072-0.22892-0.77565-0.46767-1.1585-0.70995-0.38097-0.24096-0.76082-0.48382-1.1376-0.73173-0.33195-0.21903-0.66335-0.43901-0.9874-0.67103-0.16325-0.1181-0.3267-0.23609-0.4811-0.36813-1.347-1.1156-1.8222-0.38492-0.47524 0.73074z" enable-background="new" stroke-width=".20149" style="paint-order:markers fill stroke"/>
  </g>
  <g>
   <g transform="matrix(.944 0 0 .74147 -313.96 101.68)" enable-background="new" fill="#fa424e">
    <path d="m170.56 171.45-1.1e-4 -1e-4v0c-0.54698-0.48165-1.1485-0.8422-1.7558-1.1745-1.2688-0.68424-2.6202-0.93411-3.9817-1.034-1.8217-0.12942-3.5363 0.4672-5.1907 1.3929-1.8536 1.0599-3.3895 2.6848-4.7411 4.6104-1.5255 2.3352-2.5983 5.0626-3.4523 7.8957-0.79933 2.7498-0.70804 5.5255-0.20621 8.3339 0.57273 2.7216 1.7764 5.0304 3.1398 7.1821 1.373 2.1288 3.0956 3.7402 4.9187 5.1526 1.8864 1.4003 3.8937 2.4722 5.9739 3.2729 1.567 0.57925 3.1796 0.78634 4.7855 0.41151 1.412-0.4599 2.6165-1.5203 3.7712-2.6258 1.2235-1.2278 2.2946-2.6745 3.3194-4.1697 0.86445-1.253 1.5584-2.6699 2.1833-4.1363 0.55695-1.3311 1.0154-2.7248 1.4324-4.1376 0.33465-1.1462 0.62507-2.3118 0.83217-3.5077 0.10686-0.80546 0.1399-1.6265 0.0639-2.4382-2.2285-6.7075-6.5813-10.837-11.092-15.028z" fill="none" opacity=".826" stroke="#55cdc1" stroke-linecap="square" stroke-opacity=".82745" stroke-width="2.3032" style="paint-order:markers fill stroke"/>
   </g>
   <path d="m-138.21 150.49c-0.17332 0.0281-0.34772 0.0299-0.52117 0.0374-0.36296 0.0119-0.72585 0.0221-1.0885 0.0283-0.40145 5e-3 -0.80369 0.0268-1.2058 0.0498-0.3513 0.022-0.70261 0.0578-1.0539 0.0876-0.24165 0.0198-0.4855 0.0439-0.72285 0.0116-0.14136-0.0219-0.24255-0.092-0.3264-0.20001-0.10847-0.15886-0.16011-0.34863-0.20445-0.53752-0.0538-0.26279-0.0697-0.5339-0.0787-0.80485-8e-3 -0.31641 1e-3 -0.63433 0.0148-0.95216 0.0154-0.31666 0.0401-0.63338 0.0727-0.95004 0.0286-0.29103 0.0584-0.582 0.0898-0.87293 0.029-0.25511 0.0577-0.51032 0.0905-0.76529 0.0202-0.14993 0.0101-0.0757 0.0303-0.22248 0.38201-2.7518-0.3855-2.7992-0.76752-0.0474v0c-0.0211 0.15164-0.0108 0.0748-0.0315 0.23037-0.0335 0.26044-0.0629 0.52108-0.0925 0.78169-0.0315 0.29229-0.0615 0.58465-0.0903 0.87703-0.0341 0.33262-0.0601 0.66529-0.0762 0.9979-0.014 0.33748-0.0241 0.67506-0.015 1.011 0.0111 0.32185 0.0319 0.64372 0.0988 0.95509 0.0726 0.29906 0.16632 0.59324 0.35421 0.83389 0.20753 0.23382 0.45622 0.39576 0.77923 0.43999 0.28997 0.0325 0.58371 0.0212 0.87866-9e-3 0.3443-0.0291 0.68861-0.0642 1.0329-0.0861 0.39184-0.0224 0.78375-0.0435 1.1749-0.0487 0.36937-6e-3 0.73898-0.0166 1.1087-0.0289 0.21577-9e-3 0.43287-0.0128 0.64815-0.0534 2.7178-0.56743 2.6186-1.3305-0.0991-0.76308z" enable-background="new" stroke="#000" stroke-linecap="square" stroke-width=".23896" style="paint-order:markers fill stroke"/>
   <path d="m-140.68 149.1c0.16334-0.10494 0.31501-0.2202 0.46674-0.33525 0.29298-0.22441 0.576-0.45719 0.85815-0.69067 0.31768-0.26351 0.63122-0.53046 0.94319-0.79867 0.31458-0.27038 0.62632-0.54306 0.92976-0.82248 0.299-0.27268 0.58086-0.55893 0.86039-0.84695 0.27552-0.28428 0.52985-0.58467 0.78215-0.88647 0.22762-0.27411 0.45386-0.54925 0.68225-0.82277 0.2006-0.2405 0.40576-0.4776 0.61342-0.71281 0.18146-0.20499 0.3666-0.40719 0.55259-0.60873 0.15227-0.16462 0.30677-0.32753 0.46215-0.48974 0.12173-0.12697 0.24447-0.25312 0.36762-0.37897 0.0932-0.0955 0.18745-0.19015 0.28181-0.28472 0.0717-0.0718 0.14327-0.14351 0.21582-0.21451 0.0305-0.0298 0.0605-0.0601 0.091-0.0899 1.1145-1.0918 0.48617-1.587-0.62845-0.49497v0c-0.0308 0.0299-0.0616 0.0598-0.0915 0.0904-0.0728 0.0717-0.14497 0.14387-0.21733 0.21591-0.0951 0.0949-0.18952 0.1905-0.28345 0.28639-0.12371 0.12651-0.24714 0.25324-0.3695 0.38083-0.15641 0.16331-0.31193 0.32729-0.46523 0.49299-0.18717 0.20289-0.37353 0.40638-0.55617 0.61269-0.20907 0.2369-0.41571 0.47562-0.6177 0.71779-0.2284 0.27347-0.45459 0.5486-0.68216 0.82268-0.24848 0.29727-0.4989 0.59318-0.7702 0.87321-0.27629 0.28475-0.55478 0.56784-0.85054 0.83725-0.30144 0.27744-0.61097 0.54831-0.92339 0.8168-0.31076 0.2672-0.62308 0.53313-0.93953 0.79562-0.27939 0.23114-0.55955 0.46164-0.84954 0.68387-0.14723 0.11176-0.29443 0.22365-0.45297 0.32552-1.3488 0.89554-0.75844 1.4213 0.59039 0.52569z" enable-background="new" stroke="#000" stroke-linecap="square" stroke-width=".18216" style="paint-order:markers fill stroke"/>
  </g>
  <g stroke-linecap="square" stroke-width=".588">
   <path d="m-149.86 183.72c6.8906 0.18137 9.7213 0.0207 16.616 0.0377 2.3966 0.14632 4.7922 0.30826 7.1897 0.43896 2.527 0.13777 5.0572 0.215 7.5835 0.36641 8.515 0.51033 17.017 1.2724 25.51 2.0617 5.8043 0.3379 2.1116 0.0218 7.0289 0.6375 2.5895 3.3241-2.0927 1.7612-7.2095 1.4213-7.0877-0.55027-3.3802-0.23769-11.121-0.95222-9.6593-0.79398-19.341-1.3676-29.028-1.6689-2.1081-0.0884-4.2146-0.22809-6.3242-0.26518-1.755-0.0309-3.5102 0.0636-5.2654 0.0614-1.3399-2e-3 -2.6791-0.0747-4.019-0.0734-1.6758 2e-3 -1.0081 0.15103-2.6839 0.0141-1.4704 0 0.25217-2.0794 1.7226-2.0794z" fill="none" stroke="#00887a" stroke-dasharray="0.58800003, 3.52800012" style="paint-order:markers fill stroke"/>
   <path d="m-159.79 147.48c0.55084-1.1151 1.0675-2.2362 2.3146-2.7062 0.8148-0.2326 1.1438 0.91971 0.32895 1.1523-0.21141 0.0201-0.0296-0.0221-0.26041 0.1739-0.92595 0.94904-1.3654 2.2204-1.5814 2.6254-0.0995 0.1935-0.70718-1.4416-0.80172-1.2454" fill="#51df3b" stroke="#33d917" style="paint-order:markers fill stroke"/>
   <path d="m-163.12 145.24c-0.70569 0.0498-0.77917 1.1017 0.01 1.1942 0.21189-0.0141 0.026-0.0266 0.28526 0.1297 0.67254 0.40552-0.0381-0.18356 0.68212 0.61805 1.1635 1.295-0.0888-0.28063 1.1322 1.3214 0.15916 0.21538 1.0613 1.5377 1.2136 1.7584l0.57362-1.2146c-0.20407-0.28836-0.65645-0.97957-0.85862-1.2693-0.72285-1.0121-1.5823-2.2707-2.8887-2.5342-0.0526-6e-3 -0.1023-7e-3 -0.14935-4e-3z" fill="#f61c2d" stroke="#fc6671" style="paint-order:markers fill stroke"/>
  </g>
  <g transform="matrix(.78946 0 0 .74147 -297.46 42.373)" enable-background="new" fill="none">
   <path d="m184.32 180.94-5e-5 -5e-5v0c-0.252-0.30305-0.52914-0.52991-0.80893-0.739-0.58454-0.43052-1.2072-0.58775-1.8344-0.65059-0.83926-0.0814-1.6292 0.29396-2.3914 0.87642-0.85397 0.66689-1.5616 1.6893-2.1843 2.9009-0.70281 1.4693-1.197 3.1853-1.5905 4.968-0.36824 1.7302-0.32619 3.4766-0.095 5.2437 0.26388 1.7125 0.81841 3.1652 1.4466 4.519 0.63255 1.3394 1.4262 2.3533 2.2661 3.242 0.86907 0.88105 1.7939 1.5555 2.7522 2.0593 0.72193 0.36446 1.4648 0.49477 2.2047 0.25892 0.65051-0.28937 1.2054-0.95657 1.7374-1.6521 0.56365-0.7725 1.0571-1.6828 1.5293-2.6236 0.39826-0.78837 0.71794-1.6799 1.0058-2.6026 0.25658-0.83751 0.46782-1.7144 0.6599-2.6034 0.15418-0.72121 0.28797-1.4546 0.38339-2.207 0.0493-0.5068 0.0644-1.0234 0.0294-1.5341-1.0267-4.2203-3.032-6.8188-5.1102-9.4556z" fill="none" opacity=".826" stroke="#55cdc1" stroke-linecap="square" stroke-opacity=".82745" stroke-width="1.7421" style="paint-order:markers fill stroke"/>
  </g>
  <path d="m-141.85 180.61c-0.16599-0.0573-0.32049-0.13817-0.47685-0.21362-0.3254-0.16124-0.64993-0.32394-0.97236-0.49006-0.35604-0.18552-0.72073-0.35662-1.0859-0.52661-0.3199-0.14682-0.64635-0.28149-0.96995-0.42145-0.22226-0.0969-0.4485-0.19102-0.64232-0.33177-0.11418-0.0862-0.17016-0.1958-0.19294-0.33062-0.0204-0.19127 0.0239-0.38289 0.0742-0.57028 0.0769-0.25698 0.19119-0.50335 0.31145-0.74631 0.14265-0.28254 0.30099-0.55837 0.46352-0.83185 0.16338-0.2717 0.33499-0.53904 0.51353-0.8026 0.16288-0.24286 0.3268-0.48511 0.49211-0.72656 0.14624-0.21104 0.29227-0.4223 0.44179-0.63141 0.0887-0.12253 0.0447-0.0619 0.13196-0.18167 1.6385-2.2436 0.98472-2.6485-0.65376-0.40488v0c-0.0903 0.12361-0.0449 0.0608-0.13675 0.18805-0.15273 0.2136-0.30194 0.42932-0.45132 0.64491-0.16603 0.2426-0.33078 0.48598-0.49449 0.72994-0.18741 0.27691-0.3677 0.55769-0.53925 0.8431-0.172 0.2907-0.34061 0.58333-0.49154 0.88362-0.1425 0.28881-0.27645 0.58221-0.36483 0.88818-0.0775 0.29782-0.13414 0.60134-0.0825 0.90224 0.0722 0.30418 0.21469 0.56451 0.47833 0.7563 0.24009 0.16582 0.50422 0.29484 0.77836 0.40778 0.3171 0.13725 0.63704 0.26923 0.95073 0.41283 0.35581 0.16565 0.71107 0.33247 1.0581 0.51294 0.32825 0.16947 0.65889 0.335 0.9904 0.49906 0.19435 0.0942 0.38741 0.19352 0.59629 0.25961 2.6629 0.78593 2.9365 0.0667 0.27371-0.71916z" enable-background="new" stroke="#000" stroke-linecap="square" stroke-width=".23896" style="paint-order:markers fill stroke"/>
  <path d="m-143.37 178.21c0.19355-0.0152 0.3817-0.045 0.56981-0.0745 0.36428-0.0591 0.72375-0.13027 1.0828-0.20248 0.40455-0.0818 0.80708-0.1687 1.2088-0.25739 0.40506-0.0894 0.80871-0.18212 1.2082-0.28473 0.39243-0.0988 0.77618-0.2176 1.1587-0.3391 0.37723-0.1201 0.74341-0.26442 1.1085-0.41094 0.33021-0.1338 0.6597-0.26916 0.99032-0.40208 0.29052-0.11697 0.58344-0.22879 0.87767-0.33777 0.25685-0.0947 0.51562-0.18529 0.77483-0.27485 0.21203-0.073 0.42522-0.14342 0.63886-0.21281 0.16731-0.0543 0.33513-0.10734 0.50316-0.15995 0.1273-0.04 0.25511-0.0788 0.38298-0.11751 0.0971-0.0293 0.19412-0.0587 0.29163-0.0869 0.041-0.0118 0.0817-0.0243 0.1227-0.0361 1.4984-0.43463 1.1791-1.1681-0.31948-0.73339v0c-0.0413 0.0118-0.0826 0.0235-0.12339 0.0363-0.0981 0.0287-0.19578 0.0582-0.29361 0.0874-0.12869 0.0386-0.2571 0.0782-0.38522 0.1182-0.16884 0.0529-0.33754 0.10618-0.5057 0.1607-0.21507 0.0699-0.42966 0.14076-0.64311 0.21422-0.26089 0.0902-0.52135 0.1813-0.77986 0.27665-0.29627 0.10979-0.59126 0.22234-0.88379 0.34013-0.33061 0.13287-0.66005 0.26824-0.99021 0.40204-0.35955 0.14434-0.72017 0.28656-1.0917 0.40491-0.37813 0.12015-0.75742 0.23779-1.1454 0.33521-0.39683 0.10181-0.79768 0.19401-1.2 0.28274-0.4002 0.0884-0.80117 0.1749-1.2042 0.25644-0.35549 0.0714-0.71137 0.14197-1.072 0.20056-0.18258 0.0288-0.36521 0.0577-0.55308 0.0725-1.612 0.15082-1.3406 0.8933 0.27143 0.74245z" enable-background="new" stroke="#000" stroke-linecap="square" stroke-width=".18216" style="paint-order:markers fill stroke"/>
  <g transform="matrix(.77412 0 0 1.0815 -292.35 -50.847)" enable-background="new" fill="none">
   <path d="m184.32 180.94-5e-5 -5e-5v0c-0.252-0.30305-0.52914-0.52991-0.80893-0.739-0.58454-0.43052-1.2072-0.58775-1.8344-0.65059-0.83926-0.0814-1.6292 0.29396-2.3914 0.87642-0.85397 0.66689-1.5616 1.6893-2.1843 2.9009-0.70281 1.4693-1.197 3.1853-1.5905 4.968-0.36824 1.7302-0.32619 3.4766-0.095 5.2437 0.26388 1.7125 0.81841 3.1652 1.4466 4.519 0.63255 1.3394 1.4262 2.3533 2.2661 3.242 0.86907 0.88105 1.7939 1.5555 2.7522 2.0593 0.72193 0.36446 1.4648 0.49477 2.2047 0.25892 0.65051-0.28937 1.2054-0.95657 1.7374-1.6521 0.56365-0.7725 1.0571-1.6828 1.5293-2.6236 0.39826-0.78837 0.71794-1.6799 1.0058-2.6026 0.25658-0.83751 0.46782-1.7144 0.6599-2.6034 0.15418-0.72121 0.28797-1.4546 0.38339-2.207 0.0493-0.5068 0.0644-1.0234 0.0294-1.5341-1.0267-4.2203-3.032-6.8188-5.1102-9.4556z" fill="none" opacity=".826" stroke="#55cdc1" stroke-linecap="square" stroke-opacity=".82745" stroke-width="1.7421" style="paint-order:markers fill stroke"/>
  </g>
 </g>
</svg>
