<?xml version="1.0" encoding="UTF-8" standalone="no"?>
<!-- Created with Inkscape (http://www.inkscape.org/) -->

<svg
   xmlns:dc="http://purl.org/dc/elements/1.1/"
   xmlns:cc="http://creativecommons.org/ns#"
   xmlns:rdf="http://www.w3.org/1999/02/22-rdf-syntax-ns#"
   xmlns:svg="http://www.w3.org/2000/svg"
   xmlns="http://www.w3.org/2000/svg"
   xmlns:sodipodi="http://sodipodi.sourceforge.net/DTD/sodipodi-0.dtd"
   xmlns:inkscape="http://www.inkscape.org/namespaces/inkscape"
   width="150.588mm"
   height="150.588mm"
   viewBox="0 0 150.588 150.588"
   version="1.1"
   id="svg1861"
   inkscape:version="0.92.3 (2405546, 2018-03-11)"
   sodipodi:docname="meiozis1.svg">
  <defs
     id="defs1855" />
  <sodipodi:namedview
     id="base"
     pagecolor="#ffffff"
     bordercolor="#666666"
     borderopacity="1.0"
     inkscape:pageopacity="0.0"
     inkscape:pageshadow="2"
     inkscape:zoom="1.26"
     inkscape:cx="138.54336"
     inkscape:cy="282.07687"
     inkscape:document-units="mm"
     inkscape:current-layer="layer1"
     showgrid="false"
     inkscape:window-width="1366"
     inkscape:window-height="719"
     inkscape:window-x="0"
     inkscape:window-y="25"
     inkscape:window-maximized="1" />
  <metadata
     id="metadata1858">
    <rdf:RDF>
      <cc:Work
         rdf:about="">
        <dc:format>image/svg+xml</dc:format>
        <dc:type
           rdf:resource="http://purl.org/dc/dcmitype/StillImage" />
        <dc:title />
      </cc:Work>
    </rdf:RDF>
  </metadata>
  <g
     inkscape:label="Layer 1"
     inkscape:groupmode="layer"
     id="layer1"
     transform="translate(233.34446,-122.45531)">
    <path
       style="opacity:1;fill:none;fill-opacity:1;fill-rule:nonzero;stroke:#00887a;stroke-width:0.5879972;stroke-linecap:square;stroke-miterlimit:4;stroke-dasharray:0.58799718, 3.52798311000000009;stroke-dashoffset:0;stroke-opacity:1;paint-order:markers fill stroke"
       id="path2692"
       d="m -155.22916,242.57955 c 6.37127,-2.63034 12.60853,-5.57543 18.91675,-8.35763 2.2497,-0.83874 4.5049,-1.66285 6.74906,-2.51624 2.36549,-0.89949 4.70932,-1.85564 7.07961,-2.74236 7.98929,-2.9888 16.06925,-5.74237 24.151436,-8.46724 5.441907,-2.04644 1.938723,-0.83692 6.682749,-2.26955 1.363984,-0.41191 2.705977,-0.88548 4.082506,-1.25354 1.424851,-0.42936 2.032041,1.58578 0.607189,2.01514 v 0 c -1.184655,0.24224 -0.477473,0.0714 -2.028937,0.56089 -2.907252,0.9181 -5.811539,1.84734 -8.673107,2.90207 -6.701066,2.37313 -3.185806,1.15439 -10.550516,3.64246 -9.15022,3.1939 -18.23114,6.59813 -27.20685,10.25361 -1.96253,0.77461 -3.94448,1.50174 -5.88757,2.32387 -1.61649,0.6839 -3.18228,1.48249 -4.78739,2.19274 -1.22538,0.54188 -2.47887,1.01886 -3.70292,1.56376 -1.53078,0.68183 -3.00113,1.49772 -4.58827,2.05258 -1.34385,0.59665 -2.18761,-1.30395 -0.84376,-1.9006 z"
       inkscape:connector-curvature="0" />
    <path
       style="opacity:1;fill:none;fill-opacity:1;fill-rule:nonzero;stroke:#00887a;stroke-width:0.588;stroke-linecap:square;stroke-miterlimit:4;stroke-dasharray:0.58800001, 3.52800004;stroke-dashoffset:0;stroke-opacity:1;paint-order:markers fill stroke"
       id="path2692-8"
       d="m -152.92167,216.82688 c 6.85523,-0.72094 13.74249,-1.1013 20.61457,-1.65869 2.37772,-0.33372 4.7533,-0.68295 7.13313,-1.00117 2.50846,-0.33543 5.02485,-0.61076 7.53147,-0.95972 8.44875,-1.17621 16.86525,-2.60244 25.270021,-4.05497 5.759933,-0.79184 2.103378,-0.18726 6.957344,-1.18651 0.02773,-2.92989 -2.221919,-1.59204 -7.298709,-0.85183 -7.022758,1.10415 -3.351203,0.50192 -11.012316,1.82103 -9.5673,1.54868 -19.17383,2.87939 -28.80748,3.93909 -2.09464,0.25337 -4.18375,0.55775 -6.28394,0.76009 -1.74716,0.16837 -3.50434,0.21174 -5.25403,0.35152 -1.3356,0.10702 -2.665,0.28447 -4.00087,0.3882 -1.6708,0.12937 -3.35229,0.11209 -5.01219,0.37996 -1.46585,0.11525 -1.30285,2.1883 0.163,2.07304 z"
       inkscape:connector-curvature="0"
       sodipodi:nodetypes="ccccccccccccccc" />
    <path
       style="opacity:1;fill:none;fill-opacity:1;fill-rule:nonzero;stroke:#00887a;stroke-width:0.588;stroke-linecap:square;stroke-miterlimit:4;stroke-dasharray:0.58800002, 3.52800008;stroke-dashoffset:0;stroke-opacity:1;paint-order:markers fill stroke"
       id="path2692-8-2"
       d="m -151.10056,185.81778 c 6.89065,0.18137 9.72132,0.0207 16.61595,0.0377 2.39656,0.14632 4.79221,0.30826 7.18966,0.43896 2.52703,0.13777 5.05726,0.215 7.58352,0.36641 8.51496,0.51033 17.01737,1.27244 25.510125,2.06169 5.80428,0.3379 2.11158,0.0218 7.02894,0.6375 2.589539,3.32407 -2.092735,1.76116 -7.20948,1.42132 -7.087695,-0.55027 -3.38023,-0.23769 -11.121175,-0.95222 -9.65926,-0.79398 -19.34054,-1.36758 -29.02761,-1.66888 -2.10806,-0.0884 -4.2146,-0.22809 -6.32419,-0.26518 -1.75498,-0.0309 -3.51015,0.0636 -5.26541,0.0614 -1.33988,-0.002 -2.6791,-0.0747 -4.01899,-0.0734 -1.6758,0.002 -1.0081,0.15103 -2.68389,0.0141 -1.47038,0 0.25217,-2.07944 1.72255,-2.07944 z"
       inkscape:connector-curvature="0"
       sodipodi:nodetypes="ccccccccccccccc" />
    <path
       style="opacity:1;fill:none;fill-opacity:1;fill-rule:nonzero;stroke:#00887a;stroke-width:0.588;stroke-linecap:square;stroke-miterlimit:4;stroke-dasharray:0.58800001, 3.52800004;stroke-dashoffset:0;stroke-opacity:1;paint-order:markers fill stroke"
       id="path2692-1"
       d="m -138.4087,163.03265 c 2.33942,0.54038 4.68241,1.06553 7.01824,1.62114 2.4621,0.58563 4.91006,1.23023 7.37528,1.80256 8.30925,1.92913 16.67795,3.61327 25.04513,5.26866 5.661218,1.32456 2.03082,0.57884 6.92054,1.38513 1.405871,0.23182 2.797923,0.52763 4.21056,0.71435 1.468488,0.24125 1.809679,-1.83551 0.341186,-2.07676 v 0 c -1.206079,-0.0868 -0.482714,-0.009 -2.084538,-0.29345 -3.001733,-0.53392 -6.001973,-1.07927 -8.976098,-1.75458 -6.9521,-1.48545 -3.30854,-0.73216 -10.93362,-2.24565 -9.48699,-1.98217 -18.93249,-4.18189 -28.3062,-6.64434 -2.04635,-0.51397 -4.10582,-0.97834 -6.13906,-1.54195 -1.69148,-0.46882 -3.34753,-1.05794 -5.03113,-1.55436 -1.28527,-0.37864 -2.58999,-0.6893 -3.87433,-1.07111 -10.54445,0.64538 10.31725,5.17794 14.43404,6.39036 z"
       inkscape:connector-curvature="0"
       sodipodi:nodetypes="ccccsccccccccccc" />
    <path
       style="opacity:1;fill:none;fill-opacity:1;fill-rule:nonzero;stroke:#00887a;stroke-width:0.588;stroke-linecap:square;stroke-miterlimit:4;stroke-dasharray:0.58800001, 3.52800004;stroke-dashoffset:0;stroke-opacity:1;paint-order:markers fill stroke"
       id="path2692-4"
       d="m -216.20395,204.87206 c 2.37088,0.37927 4.73933,0.77399 7.11262,1.13779 2.50157,0.38348 5.01221,0.70701 7.51168,1.10398 8.42465,1.33803 16.81224,2.9254 25.18762,4.53885 5.74369,0.90215 2.09939,0.22756 6.9333,1.31972 1.38983,0.31402 2.79092,0.56354 4.17004,0.92189 1.45139,0.32883 0.98637,2.38141 -0.46503,2.05258 v 0 c -1.15015,-0.37326 -0.45047,-0.17368 -2.04183,-0.51219 -2.98212,-0.63438 -5.96715,-1.2576 -8.97688,-1.75058 -7.00029,-1.23863 -3.34096,-0.5661 -10.97536,-2.03189 -9.53585,-1.73188 -19.1151,-3.24658 -28.72665,-4.49083 -2.0894,-0.2935 -4.17229,-0.63789 -6.26821,-0.88047 -1.74361,-0.20184 -3.49963,-0.2789 -5.24632,-0.45221 -9.56724,-3.56754 2.13472,-1.91732 11.78502,-0.95664 z"
       inkscape:connector-curvature="0"
       sodipodi:nodetypes="ccccccccccccccc" />
    <path
       style="opacity:1;fill:none;fill-opacity:1;fill-rule:nonzero;stroke:#00887a;stroke-width:0.588;stroke-linecap:square;stroke-miterlimit:4;stroke-dasharray:0.58800001, 3.52800004;stroke-dashoffset:0;stroke-opacity:1;paint-order:markers fill stroke"
       id="path2692-7"
       d="m -162.40318,242.43746 c -6.34931,-2.6833 -11.42715,-6.21392 -17.71214,-9.04854 -2.2427,-0.85745 -4.49102,-1.70031 -6.72807,-2.57235 -2.35797,-0.91917 -4.69381,-1.89479 -7.0567,-2.80122 -7.96435,-3.05522 -16.02133,-5.876 -24.08075,-8.66805 -5.42482,-2.09169 -1.93174,-0.85304 -6.6638,-2.32513 -1.36054,-0.42325 -2.69858,-0.90798 -4.07204,-1.2875 -1.42126,-0.44122 -2.04525,1.56877 -0.62399,2.00998 v 0 c 1.18265,0.25203 0.47691,0.0752 2.02426,0.57776 2.89959,0.94228 5.79612,1.89567 8.64889,2.9742 6.68124,2.42884 3.17616,1.18088 10.52012,3.73019 9.12354,3.26998 18.17604,6.74972 27.12123,10.47979 1.95605,0.79093 3.93193,1.53454 5.86816,2.37282 1.6108,0.69734 3.16992,1.50893 4.76909,2.23251 1.22087,0.55207 2.47036,1.03947 3.68987,1.59453 1.52509,0.69456 1.61059,1.17815 3.1931,1.7462 0,0 0,0 1.10277,-1.01519 z"
       inkscape:connector-curvature="0"
       sodipodi:nodetypes="cccccccccccccccccc" />
    <path
       style="opacity:1;fill:none;fill-opacity:1;fill-rule:nonzero;stroke:#00887a;stroke-width:0.588;stroke-linecap:square;stroke-miterlimit:4;stroke-dasharray:0.58800002, 3.52800008;stroke-dashoffset:0;stroke-opacity:1;paint-order:markers fill stroke"
       id="path2692-4-0"
       d="m -213.55617,191.57996 c 2.39656,-0.14632 4.79221,-0.30826 7.18966,-0.43896 2.52704,-0.13777 5.05725,-0.215 7.58351,-0.36641 8.51498,-0.51033 17.01737,-1.27244 25.51013,-2.06169 5.80429,-0.3379 2.11159,-0.0218 7.02895,-0.6375 2.88359,-0.35751 0.80155,-0.0468 1.8953,-2.28841 -1.74643,0.32546 0,0 -1.37804,0.0689 -3.02976,0.34063 -4.68329,0.60097 -7.72674,0.79819 -7.0877,0.55027 -3.38024,0.23769 -11.12117,0.95222 -9.65927,0.79398 -19.34055,1.36758 -29.02762,1.66888 -2.10806,0.0884 -4.2146,0.22809 -6.32419,0.26518 -1.75498,0.0309 -3.51015,-0.0636 -5.26541,-0.0614 -12.70301,2.17323 1.93763,2.1163 11.63562,2.101 z"
       inkscape:connector-curvature="0"
       sodipodi:nodetypes="ccccccccccccc" />
    <path
       style="opacity:1;fill:#fc6671;fill-opacity:1;fill-rule:nonzero;stroke:#fc6671;stroke-width:0.588;stroke-linecap:square;stroke-miterlimit:4;stroke-dasharray:none;stroke-dashoffset:0;stroke-opacity:1;paint-order:markers fill stroke"
       id="path2541"
       d="m -19.330249,224.87002 c -0.25393,1.54975 -0.42986,3.1152 -0.57436,4.6797 -0.16924,2.99056 -0.52622,5.99099 -0.43054,8.99129 0.22852,3.13731 0.16112,1.58385 0.20813,4.66015 0.31978,2.43611 0.64147,4.89915 1.31068,7.27033 0.12179,0.43145 0.27381,0.8538 0.41066,1.28072 0.24351,0.77484 -0.85226,1.11922 -1.09578,0.34439 v 0 c -0.47621,-1.52014 -0.94429,-3.05931 -1.24779,-4.62549 -0.12847,-0.66297 -0.21593,-1.33333 -0.30973,-2.00209 -0.1022,-0.72878 -0.18547,-1.4601 -0.27821,-2.19015 -0.0814,-1.57129 -0.18362,-3.17277 -0.18569,-4.7468 -0.001,-0.82036 0.0408,-1.64021 0.0587,-2.46038 0.0174,-0.80387 0.008,-1.6086 0.0471,-2.41171 0.0685,-1.41094 0.2756,-2.81307 0.30102,-4.22709 0.17443,-1.7024 0.22734,-3.52697 0.77537,-5.1584 0.4211,-0.71452 1.43159,-0.11899 1.01049,0.59553 z"
       inkscape:connector-curvature="0" />
    <path
       style="opacity:1;fill:#ff9242;fill-opacity:0.82745098;fill-rule:nonzero;stroke:#fc6671;stroke-width:0.588;stroke-linecap:square;stroke-miterlimit:4;stroke-dasharray:none;stroke-dashoffset:0;stroke-opacity:1;paint-order:markers fill stroke"
       d="m -20.303879,175.43068 c 0.007,-0.0155 0.0149,-0.031 0.0223,-0.0465 0.55084,-1.11512 1.19689,-2.49496 2.44398,-2.96495 0.8148,-0.2326 1.14375,0.91971 0.32895,1.15232 v 0 c -0.21141,0.0201 -0.0296,-0.0221 -0.26041,0.1739 -0.92595,0.94904 -1.64264,2.59006 -1.85865,2.99496 -0.0995,0.1935 -0.58163,-1.50594 -0.67617,-1.30973"
       id="path11538"
       inkscape:connector-curvature="0"
       sodipodi:nodetypes="cccccccc" />
    <path
       style="opacity:1;fill:#fc6671;fill-opacity:1;fill-rule:nonzero;stroke:#fc6671;stroke-width:0.588;stroke-linecap:square;stroke-miterlimit:4;stroke-dasharray:none;stroke-dashoffset:0;stroke-opacity:1;paint-order:markers fill stroke"
       id="path2545-1"
       d="m -29.914379,174.30003 c 0.21189,-0.0141 0.0257,-0.0265 0.28496,0.12981 0.67254,0.40552 -0.0379,-0.18366 0.68234,0.61795 1.1635,1.29497 -0.0887,-0.28053 1.1323,1.32147 1.18501,1.60354 2.19079,3.35323 2.84962,5.24185 0.13446,0.38542 0.22848,0.78378 0.34271,1.17568 0.29986,1.45302 0.73386,2.98961 0.46845,4.48725 -0.10638,0.60032 -0.52387,1.69447 -0.72317,2.25427 -0.48406,0.97466 -0.9395,1.97256 -1.56099,2.87101 -0.15352,0.22193 -0.33411,0.42392 -0.49663,0.63935 -0.5421,0.71864 -0.16995,0.30886 -0.70564,0.85021 -0.0785,0.065 -0.15701,0.13013 -0.2355,0.19519 -0.63447,0.56723 0.16767,1.4645 0.80217,0.89727 v 0 c 0.11853,-0.0865 0.23706,-0.17297 0.3556,-0.25945 0.4279,-0.55763 0.84889,-1.12257 1.26186,-1.6913 0.20434,-0.28138 0.4277,-0.55089 0.60377,-0.85077 0.14571,-0.24819 0.97593,-2.0354 1.07421,-2.24499 0.17425,-0.41853 0.38774,-0.8228 0.52274,-1.2556 0.64627,-2.07189 0.27904,-4.19245 -0.22441,-6.24547 -0.48751,-1.61772 -1.10991,-3.38531 -2.00706,-4.82715 -0.21907,-0.35207 -0.49078,-0.66854 -0.73146,-1.00621 -0.22574,-0.3167 -0.44517,-0.63785 -0.66774,-0.95678 -0.72285,-1.01214 -1.58219,-2.27026 -2.88858,-2.53379 -0.84159,-0.0987 -0.98114,1.09152 -0.13955,1.1902 z"
       inkscape:connector-curvature="0" />
    <path
       style="opacity:1;fill:#fc6671;fill-opacity:1;fill-rule:nonzero;stroke:#fc6671;stroke-width:0.588;stroke-linecap:square;stroke-miterlimit:4;stroke-dasharray:none;stroke-dashoffset:0;stroke-opacity:1;paint-order:markers fill stroke"
       id="path2614-2"
       d="m -15.093989,217.9777 c -0.12184,-0.10068 -0.32599,-0.26056 -0.41355,-0.37956 -0.4107,-0.55802 -0.69344,-1.34538 -1.01791,-1.96591 -0.0605,-0.22841 -0.11703,-0.45788 -0.18144,-0.68521 -0.19552,-0.69004 -0.24363,-0.70617 -0.37259,-1.4165 -0.12949,-0.71324 -0.17403,-1.43609 -0.20447,-2.15859 0.0185,-0.80085 0.0415,-1.60121 0.34417,-2.35539 0.14728,-0.36697 0.34542,-0.71141 0.51851,-1.06694 0.41653,-0.59545 0.98544,-1.0066 1.57142,-1.41593 0.74721,-0.45284 1.38764,0.60389 0.64041,1.05674 v 0 c -0.49941,0.27143 -0.82582,0.508 -1.18225,0.96129 -0.4899,0.85912 -0.72227,1.80321 -0.65012,2.797 -0.0332,0.9904 -0.0423,0.24936 0.0661,1.27095 0.0238,0.22423 0.0153,0.45217 0.0541,0.6743 0.0387,0.2219 0.12656,0.43261 0.17752,0.65204 0.0487,0.20984 0.0596,0.42837 0.12128,0.63478 0.0586,0.19618 0.15843,0.37762 0.23764,0.56642 0.0556,0.1827 0.0857,0.37524 0.1669,0.54809 0.072,0.15309 0.20169,0.27246 0.28719,0.41843 0.0731,0.12493 0.11243,0.26792 0.18738,0.39176 0.14118,0.23327 0.36202,0.41859 0.49637,0.65825 0.5756,0.59866 -0.27105,1.41266 -0.84663,0.814 z"
       inkscape:connector-curvature="0" />
    <path
       style="opacity:1;fill:#fc6671;fill-opacity:1;fill-rule:nonzero;stroke:#fc6671;stroke-width:0.588;stroke-linecap:square;stroke-miterlimit:4;stroke-dasharray:none;stroke-dashoffset:0;stroke-opacity:1;paint-order:markers fill stroke"
       id="path2614-9"
       d="m -19.404569,206.39564 c 0.12184,0.10068 0.32599,0.26056 0.41355,0.37956 0.4107,0.55802 0.69344,1.34538 1.01791,1.96591 0.0605,0.22841 0.11703,0.45788 0.18144,0.68521 0.19552,0.69004 0.24363,0.70617 0.37259,1.4165 0.12949,0.71324 0.17403,1.43609 0.20447,2.15859 -0.0185,0.80085 -0.0415,1.60121 -0.34417,2.35539 -0.14728,0.36697 -0.34542,0.71141 -0.51851,1.06694 -0.41653,0.59545 -0.98544,1.0066 -1.57142,1.41593 -0.74721,0.45284 -1.38764,-0.60389 -0.64041,-1.05674 v 0 c 0.49941,-0.27143 0.82582,-0.508 1.18225,-0.96129 0.4899,-0.85912 0.72227,-1.80321 0.65012,-2.797 0.0332,-0.9904 0.0423,-0.24936 -0.0661,-1.27095 -0.0238,-0.22423 -0.0153,-0.45217 -0.0541,-0.6743 -0.0387,-0.2219 -0.12656,-0.43261 -0.17752,-0.65204 -0.0487,-0.20984 -0.0596,-0.42837 -0.12128,-0.63478 -0.0586,-0.19618 -0.15843,-0.37762 -0.23764,-0.56642 -0.0556,-0.1827 -0.0857,-0.37524 -0.1669,-0.54809 -0.072,-0.15309 -0.20169,-0.27246 -0.28719,-0.41843 -0.0731,-0.12493 -0.11243,-0.26792 -0.18738,-0.39176 -0.14118,-0.23327 -0.36202,-0.41859 -0.49637,-0.65825 -0.5756,-0.59866 0.27105,-1.41266 0.84663,-0.814 z"
       inkscape:connector-curvature="0" />
    <path
       style="opacity:1;fill:#fc6671;fill-opacity:1;fill-rule:nonzero;stroke:#fc6671;stroke-width:0.588;stroke-linecap:square;stroke-miterlimit:4;stroke-dasharray:none;stroke-dashoffset:0;stroke-opacity:1;paint-order:markers fill stroke"
       id="path2541-3"
       d="m -24.121799,251.86119 c 0.25393,-1.54974 0.42986,-3.11519 0.57436,-4.6797 0.16924,-2.99055 0.52622,-5.99098 0.43053,-8.99129 -0.22851,-3.13731 -0.16112,-1.58384 -0.20812,-4.66014 -0.31979,-2.43612 -0.64147,-4.89916 -1.31068,-7.27034 -0.12179,-0.43145 -0.27381,-0.8538 -0.41067,-1.28072 -0.24351,-0.77484 0.85226,-1.11921 1.09578,-0.34439 v 0 c 0.47622,1.52014 0.9443,3.05931 1.2478,4.62549 0.12847,0.66297 0.21593,1.33333 0.30973,2.00209 0.1022,0.72879 0.18547,1.46011 0.2782,2.19016 0.0814,1.57128 0.18363,3.17277 0.1857,4.74679 0.001,0.82036 -0.0409,1.64022 -0.0587,2.46038 -0.0174,0.80387 -0.008,1.6086 -0.0471,2.41171 -0.0685,1.41094 -0.27559,2.81307 -0.30101,4.2271 -0.17443,1.70239 -0.22734,3.52696 -0.77537,5.15839 -0.4211,0.71453 -1.43159,0.119 -1.01049,-0.59553 z"
       inkscape:connector-curvature="0" />
    <path
       style="opacity:1;fill:#fc6671;fill-opacity:1;fill-rule:nonzero;stroke:#fc6671;stroke-width:0.588;stroke-linecap:square;stroke-miterlimit:4;stroke-dasharray:none;stroke-dashoffset:0;stroke-opacity:1;paint-order:markers fill stroke"
       id="path2673"
       d="m -12.482089,281.2605 c -0.0249,-0.0737 -0.0385,-0.15249 -0.0748,-0.22141 -0.0649,-0.12315 -0.16606,-0.22543 -0.22669,-0.35072 -0.0853,-0.1764 -0.13452,-0.36825 -0.20897,-0.54951 -0.31638,-0.77018 -0.65038,-1.53209 -0.96047,-2.30522 -0.15709,-0.8941 -0.67138,-1.64651 -1.01345,-2.46728 -0.27576,-0.66166 -0.47105,-1.36553 -0.72999,-2.03548 -0.0284,-0.50423 -0.43139,-1.15564 -0.45059,-1.64724 -0.0206,-0.52719 0.14417,-0.0515 -0.055,-0.49872 0.12326,-0.24368 0.0162,-0.51922 0.0594,-0.77018 0.0766,-0.44428 0.11359,0.0245 0.0258,-0.4872 0.12509,-0.6949 0.24501,-1.44243 0.66503,-2.03431 0.10051,-0.14164 0.23497,-0.25582 0.35245,-0.38375 0.42206,-0.75077 0.98965,-1.40144 1.55861,-2.0404 0.5191,-0.64371 1.42944,0.0904 0.91035,0.73409 v 0 c -0.15514,0.23043 -0.46376,0.70616 -0.63697,0.89268 -0.10056,0.10829 -0.24242,0.17268 -0.34285,0.28109 -0.21091,0.22765 -0.32842,0.53118 -0.53927,0.7589 -0.29058,0.41873 -0.48308,0.81586 -0.66477,1.28879 -0.0317,0.0824 -0.0838,0.15839 -0.10028,0.24515 -0.0177,0.0938 -2.6e-4,0.19101 -2.9e-4,0.28651 0.0615,0.4249 -0.0447,0.77634 -0.038,1.19654 0.0306,0.6055 0.1643,1.22191 0.37129,1.78883 0.2228,0.66838 0.45318,1.32311 0.75358,1.962 0.12242,0.26035 0.28232,0.50365 0.38553,0.77219 1.08012,2.81027 -0.64146,-1.07408 0.62466,1.70033 0.27389,0.76076 0.56144,1.54657 0.89384,2.28412 0.41855,0.92873 0.13578,0.11313 0.45686,0.92898 0.0389,0.099 0.0661,0.20227 0.0992,0.30341 0.26008,0.78795 -0.85424,1.15576 -1.11432,0.36782 z"
       inkscape:connector-curvature="0" />
    <path
       style="opacity:1;fill:#ff9242;fill-opacity:0.82745098;fill-rule:nonzero;stroke:#fc6671;stroke-width:0.588;stroke-linecap:square;stroke-miterlimit:4;stroke-dasharray:none;stroke-dashoffset:0;stroke-opacity:1;paint-order:markers fill stroke"
       id="path2545-6-4"
       d="m -11.664589,173.49373 c -0.21141,0.0201 -0.0296,-0.0221 -0.26041,0.1739 -0.59865,0.5083 0.008,-0.18737 -0.57419,0.71955 -0.94034,1.46508 0.0425,-0.29113 -0.90528,1.48622 -0.912,1.7731 -1.62361,3.66164 -1.97046,5.63157 -0.0708,0.40202 -0.0996,0.81031 -0.14938,1.21546 -0.0625,1.48232 -0.24401,3.06869 0.25856,4.50424 0.20145,0.57541 0.7893,1.58829 1.07595,2.10879 0.63436,0.88424 1.24421,1.796 2.00197,2.58293 0.18719,0.19439 0.39788,0.36473 0.5929,0.55126 0.65051,0.62221 0.21736,0.27753 0.83306,0.72579 0.0879,0.0516 0.17588,0.10321 0.26381,0.15483 0.71736,0.45793 0.0698,1.47241 -0.6476,1.01449 v 0 c -0.13089,-0.0664 -0.26177,-0.13263 -0.39266,-0.19895 -0.51193,-0.48164 -1.01822,-0.9716 -1.51719,-1.4666 -0.24689,-0.2449 -0.51066,-0.47503 -0.73261,-0.74272 -0.18371,-0.22156 -1.29028,-1.85216 -1.42095,-2.04324 -0.23923,-0.3851 -0.5149,-0.74982 -0.71768,-1.15531 -0.97073,-1.94114 -0.94897,-4.09316 -0.78189,-6.20039 0.22127,-1.67504 0.55161,-3.51966 1.20546,-5.0869 0.15965,-0.38269 0.377,-0.73871 0.56031,-1.11066 0.17192,-0.34885 0.3369,-0.70108 0.50535,-1.05163 0.55084,-1.11512 1.19689,-2.49496 2.44398,-2.96495 0.8148,-0.2326 1.14375,0.91971 0.32895,1.15232 z"
       inkscape:connector-curvature="0" />
    <path
       style="opacity:1;fill:#ff9242;fill-opacity:0.82745098;fill-rule:nonzero;stroke:#fc6671;stroke-width:0.588;stroke-linecap:square;stroke-miterlimit:4;stroke-dasharray:none;stroke-dashoffset:0;stroke-opacity:1;paint-order:markers fill stroke"
       id="path2614-2-6"
       d="m -20.174009,217.73334 c -0.12184,-0.10068 -0.32599,-0.26056 -0.41355,-0.37956 -0.4107,-0.55802 -0.69344,-1.34538 -1.01791,-1.96591 -0.0605,-0.22841 -0.11703,-0.45788 -0.18144,-0.68521 -0.19552,-0.69004 -0.24363,-0.70617 -0.37259,-1.4165 -0.12949,-0.71324 -0.17403,-1.43609 -0.20447,-2.15859 0.0185,-0.80085 0.0415,-1.60121 0.34417,-2.35539 0.14728,-0.36697 0.34542,-0.71141 0.51851,-1.06694 0.41653,-0.59545 0.98544,-1.0066 1.57142,-1.41593 0.74721,-0.45284 1.38764,0.60389 0.64041,1.05674 v 0 c -0.49941,0.27143 -0.82582,0.508 -1.18225,0.96129 -0.4899,0.85912 -0.72227,1.80321 -0.65012,2.797 -0.0332,0.9904 -0.0423,0.24936 0.0661,1.27095 0.0238,0.22423 0.0153,0.45217 0.0541,0.6743 0.0387,0.2219 0.12656,0.43261 0.17752,0.65204 0.0487,0.20984 0.0596,0.42837 0.12128,0.63478 0.0586,0.19618 0.15843,0.37762 0.23764,0.56642 0.0556,0.1827 0.0857,0.37524 0.1669,0.54809 0.072,0.15309 0.20169,0.27246 0.28719,0.41843 0.0731,0.12493 0.11243,0.26792 0.18738,0.39176 0.14118,0.23327 0.36202,0.41859 0.49637,0.65825 0.5756,0.59866 -0.27105,1.41266 -0.84663,0.814 z"
       inkscape:connector-curvature="0" />
    <path
       style="opacity:1;fill:#ff9242;fill-opacity:0.82745098;fill-rule:nonzero;stroke:#fc6671;stroke-width:0.588;stroke-linecap:square;stroke-miterlimit:4;stroke-dasharray:none;stroke-dashoffset:0;stroke-opacity:1;paint-order:markers fill stroke"
       id="path2614-9-1"
       d="m -24.484589,206.15128 c 0.12184,0.10068 0.32599,0.26056 0.41355,0.37956 0.4107,0.55802 0.69344,1.34538 1.01791,1.96591 0.0605,0.22841 0.11703,0.45788 0.18144,0.68521 0.19552,0.69004 0.24363,0.70617 0.37259,1.4165 0.12949,0.71324 0.17403,1.43609 0.20447,2.15859 -0.0185,0.80085 -0.0415,1.60121 -0.34417,2.35539 -0.14728,0.36697 -0.34542,0.71141 -0.51851,1.06694 -0.41653,0.59545 -0.98544,1.0066 -1.57142,1.41593 -0.74721,0.45284 -1.38764,-0.60389 -0.64041,-1.05674 v 0 c 0.49941,-0.27143 0.82582,-0.508 1.18225,-0.96129 0.4899,-0.85912 0.72227,-1.80321 0.65012,-2.797 0.0332,-0.9904 0.0423,-0.24936 -0.0661,-1.27095 -0.0238,-0.22423 -0.0153,-0.45217 -0.0541,-0.6743 -0.0387,-0.2219 -0.12656,-0.43261 -0.17752,-0.65204 -0.0487,-0.20984 -0.0596,-0.42837 -0.12128,-0.63478 -0.0586,-0.19618 -0.15843,-0.37762 -0.23764,-0.56642 -0.0556,-0.1827 -0.0857,-0.37524 -0.1669,-0.54809 -0.072,-0.15309 -0.20169,-0.27246 -0.28719,-0.41843 -0.0731,-0.12493 -0.11243,-0.26792 -0.18738,-0.39176 -0.14118,-0.23327 -0.36202,-0.41859 -0.49637,-0.65825 -0.5756,-0.59866 0.27105,-1.41266 0.84663,-0.814 z"
       inkscape:connector-curvature="0" />
    <path
       style="opacity:1;fill:#ff9242;fill-opacity:0.82745098;fill-rule:nonzero;stroke:#fc6671;stroke-width:0.588;stroke-linecap:square;stroke-miterlimit:4;stroke-dasharray:none;stroke-dashoffset:0;stroke-opacity:1;paint-order:markers fill stroke"
       id="path2541-0"
       d="m -13.320709,224.90576 c -0.25393,1.54975 -0.42986,3.1152 -0.57436,4.6797 -0.16924,2.99056 -0.52622,5.99099 -0.43054,8.99129 0.22852,3.13731 0.16112,1.58385 0.20813,4.66015 0.31978,2.43611 0.64147,4.89915 1.31068,7.27033 0.12179,0.43145 0.27381,0.8538 0.41066,1.28072 0.24351,0.77484 -0.85226,1.11922 -1.09578,0.34439 v 0 c -0.47621,-1.52014 -0.94429,-3.05931 -1.24779,-4.62549 -0.12847,-0.66297 -0.21593,-1.33333 -0.30973,-2.00209 -0.1022,-0.72878 -0.18547,-1.4601 -0.27821,-2.19015 -0.0814,-1.57129 -0.18362,-3.17277 -0.18569,-4.7468 -10e-4,-0.82036 0.0408,-1.64021 0.0587,-2.46038 0.0174,-0.80387 0.008,-1.6086 0.0471,-2.41171 0.0685,-1.41094 0.2756,-2.81307 0.30102,-4.22709 0.17443,-1.7024 0.22734,-3.52697 0.77537,-5.1584 0.4211,-0.71452 1.43159,-0.11899 1.01049,0.59553 z"
       inkscape:connector-curvature="0" />
    <path
       style="opacity:1;fill:#ff9242;fill-opacity:0.82745098;fill-rule:nonzero;stroke:#fc6671;stroke-width:0.588;stroke-linecap:square;stroke-miterlimit:4;stroke-dasharray:none;stroke-dashoffset:0;stroke-opacity:1;paint-order:markers fill stroke"
       id="path2541-3-6"
       d="m -18.112259,251.89693 c 0.25393,-1.54974 0.42986,-3.11519 0.57436,-4.6797 0.16924,-2.99055 0.52622,-5.99098 0.43053,-8.99129 -0.22851,-3.13731 -0.16112,-1.58384 -0.20812,-4.66014 -0.31979,-2.43612 -0.64147,-4.89916 -1.31068,-7.27034 -0.12179,-0.43145 -0.27381,-0.8538 -0.41067,-1.28072 -0.24351,-0.77484 0.85226,-1.11921 1.09578,-0.34439 v 0 c 0.47622,1.52014 0.9443,3.05931 1.2478,4.62549 0.12847,0.66297 0.21593,1.33333 0.30973,2.00209 0.1022,0.72879 0.18547,1.46011 0.2782,2.19016 0.0814,1.57128 0.18363,3.17277 0.1857,4.74679 0.001,0.82036 -0.0409,1.64022 -0.0587,2.46038 -0.0174,0.80387 -0.008,1.6086 -0.0471,2.41171 -0.0685,1.41094 -0.27559,2.81307 -0.30101,4.2271 -0.17443,1.70239 -0.22734,3.52696 -0.77537,5.15839 -0.4211,0.71453 -1.43159,0.119 -1.01049,-0.59553 z"
       inkscape:connector-curvature="0" />
    <path
       style="opacity:1;fill:#fc6671;fill-opacity:1;fill-rule:nonzero;stroke:#fc6671;stroke-width:0.588;stroke-linecap:square;stroke-miterlimit:4;stroke-dasharray:none;stroke-dashoffset:0;stroke-opacity:1;paint-order:markers fill stroke"
       id="path2673-3"
       d="m -19.561559,281.42028 c 0.0249,-0.0737 0.0385,-0.15249 0.0748,-0.22141 0.0649,-0.12315 0.16606,-0.22543 0.22669,-0.35072 0.0853,-0.1764 0.13452,-0.36825 0.20897,-0.54951 0.31638,-0.77018 0.65038,-1.53209 0.96047,-2.30522 0.15709,-0.8941 0.67138,-1.64651 1.01345,-2.46728 0.27576,-0.66166 0.47105,-1.36553 0.72999,-2.03548 0.0284,-0.50423 0.43139,-1.15564 0.45059,-1.64724 0.0206,-0.52719 -0.14417,-0.0515 0.055,-0.49872 -0.12326,-0.24368 -0.0162,-0.51922 -0.0594,-0.77018 -0.0766,-0.44428 -0.11359,0.0245 -0.0258,-0.4872 -0.12509,-0.6949 -0.24501,-1.44243 -0.66503,-2.03431 -0.10051,-0.14164 -0.23497,-0.25582 -0.35245,-0.38375 -0.42206,-0.75077 -0.98965,-1.40144 -1.55861,-2.0404 -0.5191,-0.64371 -1.42944,0.0904 -0.91035,0.73409 v 0 c 0.15514,0.23043 0.46376,0.70616 0.63697,0.89268 0.10056,0.10829 0.24242,0.17268 0.34285,0.28109 0.21091,0.22765 0.32842,0.53118 0.53927,0.7589 0.29058,0.41873 0.48308,0.81586 0.66477,1.28879 0.0317,0.0824 0.0838,0.15839 0.10028,0.24515 0.0177,0.0938 2.6e-4,0.19101 2.9e-4,0.28651 -0.0615,0.4249 0.0447,0.77634 0.038,1.19654 -0.0306,0.6055 -0.1643,1.22191 -0.37129,1.78883 -0.2228,0.66838 -0.45318,1.32311 -0.75358,1.962 -0.12242,0.26035 -0.28232,0.50365 -0.38553,0.77219 -1.08012,2.81027 0.64146,-1.07408 -0.62466,1.70033 -0.27389,0.76076 -0.56144,1.54657 -0.89384,2.28412 -0.41855,0.92873 -0.13578,0.11313 -0.45686,0.92898 -0.0389,0.099 -0.0661,0.20227 -0.0992,0.30341 -0.26008,0.78795 0.85424,1.15576 1.11432,0.36782 z"
       inkscape:connector-curvature="0" />
    <path
       style="opacity:1;fill:#ff9242;fill-opacity:0.82745098;fill-rule:nonzero;stroke:#fc6671;stroke-width:0.588;stroke-linecap:square;stroke-miterlimit:4;stroke-dasharray:none;stroke-dashoffset:0;stroke-opacity:1;paint-order:markers fill stroke"
       id="path2673-7"
       d="m -18.454079,281.0897 c -0.0249,-0.0737 -0.0385,-0.15249 -0.0748,-0.22141 -0.0649,-0.12315 -0.16606,-0.22543 -0.22669,-0.35072 -0.0853,-0.1764 -0.13452,-0.36825 -0.20897,-0.54951 -0.31638,-0.77018 -0.65038,-1.53209 -0.96047,-2.30522 -0.15709,-0.8941 -0.67138,-1.64651 -1.01345,-2.46728 -0.27576,-0.66166 -0.47105,-1.36553 -0.72999,-2.03548 -0.0284,-0.50423 -0.43139,-1.15564 -0.45059,-1.64724 -0.0206,-0.52719 0.14417,-0.0515 -0.055,-0.49872 0.12326,-0.24368 0.0162,-0.51922 0.0594,-0.77018 0.0766,-0.44428 0.11359,0.0245 0.0258,-0.4872 0.12509,-0.6949 0.24501,-1.44243 0.66503,-2.03431 0.10051,-0.14164 0.23497,-0.25582 0.35245,-0.38375 0.42206,-0.75077 0.98965,-1.40144 1.55861,-2.0404 0.5191,-0.64371 1.42944,0.0904 0.91035,0.73409 v 0 c -0.15514,0.23043 -0.46376,0.70616 -0.63697,0.89268 -0.10056,0.10829 -0.24242,0.17268 -0.34285,0.28109 -0.21091,0.22765 -0.32842,0.53118 -0.53927,0.7589 -0.29058,0.41873 -0.48308,0.81586 -0.66477,1.28879 -0.0317,0.0824 -0.0838,0.15839 -0.10028,0.24515 -0.0177,0.0938 -2.6e-4,0.19101 -2.9e-4,0.28651 0.0615,0.4249 -0.0447,0.77634 -0.038,1.19654 0.0306,0.6055 0.1643,1.22191 0.37129,1.78883 0.2228,0.66838 0.45318,1.32311 0.75358,1.962 0.12242,0.26035 0.28232,0.50365 0.38553,0.77219 1.08012,2.81027 -0.64146,-1.07408 0.62466,1.70033 0.27389,0.76076 0.56144,1.54657 0.89384,2.28412 0.41855,0.92873 0.13578,0.11313 0.45686,0.92898 0.0389,0.099 0.0661,0.20227 0.0992,0.30341 0.26008,0.78795 -0.85424,1.15576 -1.11432,0.36782 z"
       inkscape:connector-curvature="0" />
    <path
       style="opacity:1;fill:#ff9242;fill-opacity:0.82745098;fill-rule:nonzero;stroke:#fc6671;stroke-width:0.588;stroke-linecap:square;stroke-miterlimit:4;stroke-dasharray:none;stroke-dashoffset:0;stroke-opacity:1;paint-order:markers fill stroke"
       id="path2673-3-9"
       d="m -25.533549,281.24948 c 0.0249,-0.0737 0.0385,-0.15249 0.0748,-0.22141 0.0649,-0.12315 0.16606,-0.22543 0.22669,-0.35072 0.0853,-0.1764 0.13452,-0.36825 0.20897,-0.54951 0.31638,-0.77018 0.65038,-1.53209 0.96047,-2.30522 0.15709,-0.8941 0.67138,-1.64651 1.01345,-2.46728 0.27576,-0.66166 0.47105,-1.36553 0.72999,-2.03548 0.0284,-0.50423 0.43139,-1.15564 0.45059,-1.64724 0.0206,-0.52719 -0.14417,-0.0515 0.055,-0.49872 -0.12326,-0.24368 -0.0162,-0.51922 -0.0594,-0.77018 -0.0766,-0.44428 -0.11359,0.0245 -0.0258,-0.4872 -0.12509,-0.6949 -0.24501,-1.44243 -0.66503,-2.03431 -0.10051,-0.14164 -0.23497,-0.25582 -0.35245,-0.38375 -0.42206,-0.75077 -0.98965,-1.40144 -1.55861,-2.0404 -0.5191,-0.64371 -1.42944,0.0904 -0.91035,0.73409 v 0 c 0.15514,0.23043 0.46376,0.70616 0.63697,0.89268 0.10056,0.10829 0.24242,0.17268 0.34285,0.28109 0.21091,0.22765 0.32842,0.53118 0.53927,0.7589 0.29058,0.41873 0.48308,0.81586 0.66477,1.28879 0.0317,0.0824 0.0838,0.15839 0.10028,0.24515 0.0177,0.0938 2.6e-4,0.19101 2.9e-4,0.28651 -0.0615,0.4249 0.0447,0.77634 0.038,1.19654 -0.0306,0.6055 -0.1643,1.22191 -0.37129,1.78883 -0.2228,0.66838 -0.45318,1.32311 -0.75358,1.962 -0.12242,0.26035 -0.28232,0.50365 -0.38553,0.77219 -1.08012,2.81027 0.64146,-1.07408 -0.62466,1.70033 -0.27389,0.76076 -0.56144,1.54657 -0.89384,2.28412 -0.41855,0.92873 -0.13578,0.11313 -0.45686,0.92898 -0.0389,0.099 -0.0661,0.20227 -0.0992,0.30341 -0.26008,0.78795 0.85424,1.15576 1.11432,0.36782 z"
       inkscape:connector-curvature="0" />
    <path
       style="opacity:1;fill:#fc6671;fill-opacity:1;fill-rule:nonzero;stroke:#fc6671;stroke-width:0.588;stroke-linecap:square;stroke-miterlimit:4;stroke-dasharray:none;stroke-dashoffset:0;stroke-opacity:1;paint-order:markers fill stroke"
       id="path2545-6-9"
       d="m -21.228789,182.05341 c -0.0708,0.40202 -0.0996,0.81031 -0.14938,1.21547 -0.0625,1.48232 -0.24401,3.06868 0.25856,4.50423 0.20145,0.57542 0.7893,1.58829 1.07595,2.10879 0.63436,0.88424 1.24421,1.796 2.00197,2.58293 0.18719,0.19439 0.39788,0.36473 0.5929,0.55126 0.65051,0.62221 0.21736,0.27754 0.83306,0.7258 0.0879,0.0516 0.17588,0.10321 0.26381,0.15482 0.71736,0.45793 0.0698,1.47241 -0.6476,1.01449 v 0 c -0.13089,-0.0664 -0.26177,-0.13263 -0.39266,-0.19895 -0.51193,-0.48164 -1.01822,-0.9716 -1.51719,-1.4666 -0.24689,-0.2449 -0.51066,-0.47502 -0.73261,-0.74272 -0.18371,-0.22156 -1.29028,-1.85216 -1.42095,-2.04324 -0.23923,-0.3851 -0.5149,-0.74982 -0.71768,-1.15531 -0.97073,-1.94114 -0.94897,-4.09316 -0.78189,-6.20039 0.22127,-1.67504 0.76286,-4.44914 1.41671,-6.01638 0.95847,0.45859 0.83854,0.84918 -0.083,4.9658 z"
       inkscape:connector-curvature="0"
       sodipodi:nodetypes="cccccccccccccccccc" />
    <path
       style="opacity:1;fill:#ff9242;fill-opacity:0.82745098;fill-rule:nonzero;stroke:#fc6671;stroke-width:0.588;stroke-linecap:square;stroke-miterlimit:4;stroke-dasharray:none;stroke-dashoffset:0;stroke-opacity:1;paint-order:markers fill stroke"
       id="path2545-1-5-5"
       d="m -24.043969,173.43406 c 0.21189,-0.0141 0.0257,-0.0265 0.28496,0.12981 0.67254,0.40552 -0.0379,-0.18366 0.68234,0.61795 1.1635,1.29497 -0.0887,-0.28053 1.1323,1.32147 1.18501,1.60354 2.19079,3.35323 2.84962,5.24185 0.13446,0.38542 0.22848,0.78378 0.34271,1.17567 0.29986,1.45303 0.73386,2.98962 0.46845,4.48726 -0.10638,0.60032 -0.52387,1.69447 -0.72317,2.25426 -0.48406,0.97467 -0.9395,1.97256 -1.56099,2.87102 -0.15352,0.22192 -0.33411,0.42392 -0.49663,0.63935 -0.5421,0.71864 -0.16995,0.30886 -0.70564,0.85021 -0.0785,0.065 -0.15701,0.13013 -0.2355,0.19519 -0.63447,0.56723 0.16767,1.4645 0.80217,0.89727 v 0 c 0.11853,-0.0865 0.23706,-0.17297 0.3556,-0.25945 0.4279,-0.55763 0.84889,-1.12257 1.26186,-1.6913 0.20434,-0.28138 0.4277,-0.5509 0.60377,-0.85077 0.14571,-0.24819 0.97593,-2.0354 1.07421,-2.24499 0.17425,-0.41854 0.38774,-0.8228 0.52274,-1.2556 0.64627,-2.07189 0.27904,-4.19245 -0.22441,-6.24547 -0.48751,-1.61772 -1.10991,-3.38531 -2.00706,-4.82715 -0.21907,-0.35207 -0.49078,-0.66854 -0.73146,-1.00621 -0.22574,-0.3167 -0.44517,-0.63785 -0.66774,-0.95678 -0.72285,-1.01214 -1.58219,-2.27026 -2.88858,-2.53379 -0.84159,-0.0987 -0.98114,1.09152 -0.13955,1.1902 z"
       inkscape:connector-curvature="0" />
    <path
       style="opacity:1;fill:#fc6671;fill-opacity:1;fill-rule:nonzero;stroke:#fc6671;stroke-width:0.588;stroke-linecap:square;stroke-miterlimit:4;stroke-dasharray:none;stroke-dashoffset:0;stroke-opacity:1;paint-order:markers fill stroke"
       d="m -23.863089,172.1504 c -0.70569,0.0498 -0.77917,1.10173 0.01,1.19425 0.21189,-0.0141 0.026,-0.0266 0.28526,0.1297 0.67254,0.40552 -0.0381,-0.18356 0.68212,0.61805 1.1635,1.29497 -0.0888,-0.28063 1.13224,1.32137 0.15916,0.21538 1.41386,1.9118 1.56615,2.13243 l 0.43286,-1.05929 c -0.20407,-0.28836 -0.86822,-1.50898 -1.07039,-1.79868 -0.72285,-1.01214 -1.58232,-2.27068 -2.88871,-2.53421 -0.0526,-0.006 -0.1023,-0.007 -0.14935,-0.004 z"
       id="path11564"
       inkscape:connector-curvature="0"
       sodipodi:nodetypes="ccccccccccc" />
    <path
       style="opacity:1;fill:#f61c2d;fill-opacity:1;fill-rule:nonzero;stroke:#fc6671;stroke-width:0.588;stroke-linecap:square;stroke-miterlimit:4;stroke-dasharray:none;stroke-dashoffset:0;stroke-opacity:1;paint-order:markers fill stroke"
       id="path2541-1"
       d="m -159.89759,199.3628 c -0.25393,1.54975 -0.42986,3.11521 -0.57436,4.6797 -0.16924,2.99056 -0.52622,5.99099 -0.43054,8.9913 0.22852,3.13731 0.16112,1.58384 0.20813,4.66014 0.31978,2.43612 0.64147,4.89915 1.31068,7.27033 0.12179,0.43145 0.27381,0.8538 0.41066,1.28072 0.24351,0.77484 -0.85226,1.11922 -1.09578,0.34439 v 0 c -0.47621,-1.52014 -0.94429,-3.0593 -1.24779,-4.62548 -0.12847,-0.66298 -0.21593,-1.33333 -0.30973,-2.0021 -0.1022,-0.72877 -0.18547,-1.4601 -0.27821,-2.19015 -0.0814,-1.57129 -0.18362,-3.17276 -0.18569,-4.74679 -0.001,-0.82037 0.0408,-1.64022 0.0587,-2.46039 0.0174,-0.80387 0.008,-1.6086 0.0471,-2.41171 0.0685,-1.41094 0.2756,-2.81307 0.30102,-4.22709 0.17443,-1.7024 0.22734,-3.52697 0.77537,-5.1584 0.4211,-0.71452 1.43159,-0.11899 1.01049,0.59553 z"
       inkscape:connector-curvature="0" />
    <path
       style="opacity:1;fill:#f61c2d;fill-opacity:1;fill-rule:nonzero;stroke:#fc6671;stroke-width:0.588;stroke-linecap:square;stroke-miterlimit:4;stroke-dasharray:none;stroke-dashoffset:0;stroke-opacity:1;paint-order:markers fill stroke"
       id="path2545-6"
       d="m -160.23836,150.44403 c -0.912,1.7731 -1.62361,3.66164 -1.97046,5.63157 -0.0708,0.40202 -0.0996,0.81031 -0.14938,1.21547 -0.0625,1.48232 -0.24401,3.06868 0.25856,4.50423 0.20145,0.57542 0.7893,1.58829 1.07595,2.10879 0.63436,0.88424 1.24421,1.796 2.00197,2.58293 0.18719,0.19439 0.39788,0.36473 0.5929,0.55126 0.65051,0.62221 0.21736,0.27754 0.83306,0.7258 0.0879,0.0516 0.17588,0.10321 0.26381,0.15482 0.71736,0.45793 0.0698,1.47241 -0.6476,1.01449 v 0 c -0.13089,-0.0664 -0.26177,-0.13263 -0.39266,-0.19895 -0.51193,-0.48164 -1.01822,-0.9716 -1.51719,-1.4666 -0.24689,-0.2449 -0.51066,-0.47502 -0.73261,-0.74272 -0.18371,-0.22156 -1.29028,-1.85216 -1.42095,-2.04324 -0.23923,-0.3851 -0.5149,-0.74982 -0.71768,-1.15531 -0.97073,-1.94114 -0.94897,-4.09316 -0.78189,-6.20039 0.22127,-1.67504 0.55161,-3.51966 1.20546,-5.0869 0.15965,-0.38269 0.377,-0.73871 0.56031,-1.11066 0.17192,-0.34885 0.3369,-0.70108 0.50535,-1.05163 0.45854,0.19374 1.04853,0.53797 1.03305,0.56704 z"
       inkscape:connector-curvature="0"
       sodipodi:nodetypes="ccccccccccccccccccccc" />
    <path
       style="opacity:1;fill:#f61c2d;fill-opacity:1;fill-rule:nonzero;stroke:#fc6671;stroke-width:0.588;stroke-linecap:square;stroke-miterlimit:4;stroke-dasharray:none;stroke-dashoffset:0;stroke-opacity:1;paint-order:markers fill stroke"
       id="path2545-1-9"
       d="m -170.48172,148.79281 c 0.21189,-0.0141 0.0257,-0.0265 0.28496,0.12981 0.67254,0.40552 -0.0379,-0.18366 0.68234,0.61795 1.1635,1.29497 -0.0887,-0.28053 1.1323,1.32147 1.18501,1.60354 2.19079,3.35323 2.84962,5.24185 0.13446,0.38542 0.22848,0.78378 0.34271,1.17568 0.29986,1.45302 0.73386,2.98961 0.46845,4.48725 -0.10638,0.60032 -0.52387,1.69447 -0.72317,2.25427 -0.48406,0.97466 -0.9395,1.97256 -1.56099,2.87101 -0.15352,0.22193 -0.33411,0.42392 -0.49663,0.63935 -0.5421,0.71864 -0.16995,0.30886 -0.70564,0.85021 -0.0785,0.065 -0.15701,0.13013 -0.2355,0.19519 -0.63447,0.56723 0.16767,1.4645 0.80217,0.89727 v 0 c 0.11853,-0.0865 0.23706,-0.17297 0.3556,-0.25945 0.4279,-0.55763 0.84889,-1.12257 1.26186,-1.6913 0.20434,-0.28138 0.4277,-0.55089 0.60377,-0.85077 0.14571,-0.24819 0.97593,-2.0354 1.07421,-2.24499 0.17425,-0.41853 0.38774,-0.8228 0.52274,-1.2556 0.64627,-2.07189 0.27904,-4.19245 -0.22441,-6.24547 -0.48751,-1.61772 -1.10991,-3.38531 -2.00706,-4.82715 -0.21907,-0.35207 -0.49078,-0.66854 -0.73146,-1.00621 -0.22574,-0.3167 -0.44517,-0.63785 -0.66774,-0.95678 -0.72285,-1.01214 -1.58219,-2.27026 -2.88858,-2.53379 -0.84159,-0.0987 -0.98114,1.09152 -0.13955,1.1902 z"
       inkscape:connector-curvature="0" />
    <path
       style="opacity:1;fill:#f61c2d;fill-opacity:1;fill-rule:nonzero;stroke:#fc6671;stroke-width:0.588;stroke-linecap:square;stroke-miterlimit:4;stroke-dasharray:none;stroke-dashoffset:0;stroke-opacity:1;paint-order:markers fill stroke"
       id="path2614-2-4"
       d="m -153.10755,192.68329 c -0.12184,-0.10067 -0.32599,-0.26055 -0.41355,-0.37956 -0.4107,-0.55802 -0.69344,-1.34538 -1.01791,-1.96591 -0.0605,-0.22841 -0.11703,-0.45788 -0.18144,-0.68521 -0.19552,-0.69003 -0.24363,-0.70617 -0.37259,-1.4165 -0.12949,-0.71324 -0.17403,-1.43609 -0.20447,-2.15859 0.0185,-0.80085 0.0415,-1.60121 0.34417,-2.35539 0.14728,-0.36697 0.34542,-0.71141 0.51851,-1.06694 0.41653,-0.59545 0.98544,-1.0066 1.57142,-1.41593 0.74721,-0.45284 1.38764,0.60389 0.64041,1.05674 v 0 c -0.49941,0.27143 -0.82582,0.508 -1.18225,0.96129 -0.4899,0.85912 -0.72227,1.80321 -0.65012,2.797 -0.0332,0.9904 -0.0423,0.24936 0.0661,1.27095 0.0238,0.22423 0.0153,0.45217 0.0541,0.6743 0.0387,0.2219 0.12656,0.43261 0.17752,0.65204 0.0487,0.20985 0.0596,0.42838 0.12128,0.63478 0.0586,0.19619 0.15843,0.37762 0.23764,0.56642 0.0556,0.1827 0.0857,0.37524 0.1669,0.54809 0.072,0.15309 0.20169,0.27246 0.28719,0.41843 0.0731,0.12493 0.11243,0.26792 0.18738,0.39177 0.14118,0.23327 0.36202,0.41858 0.49637,0.65824 0.5756,0.59866 -0.27105,1.41266 -0.84663,0.814 z"
       inkscape:connector-curvature="0" />
    <path
       style="opacity:1;fill:#f61c2d;fill-opacity:1;fill-rule:nonzero;stroke:#fc6671;stroke-width:0.588;stroke-linecap:square;stroke-miterlimit:4;stroke-dasharray:none;stroke-dashoffset:0;stroke-opacity:1;paint-order:markers fill stroke"
       id="path2614-9-7"
       d="m -157.63095,181.31405 c 0.12184,0.10067 0.32599,0.26055 0.41355,0.37955 0.4107,0.55802 0.69344,1.34538 1.01791,1.96591 0.0605,0.22842 0.11703,0.45788 0.18144,0.68521 0.19552,0.69004 0.24363,0.70617 0.37259,1.4165 0.12949,0.71324 0.17403,1.43609 0.20447,2.1586 -0.0185,0.80084 -0.0415,1.6012 -0.34417,2.35538 -0.14728,0.36697 -0.34542,0.71141 -0.51851,1.06695 -0.41653,0.59545 -0.98544,1.00659 -1.57142,1.41592 -0.74721,0.45284 -1.38764,-0.60389 -0.64041,-1.05674 v 0 c 0.49941,-0.27143 0.82582,-0.508 1.18225,-0.96129 0.4899,-0.85912 0.72227,-1.80321 0.65012,-2.797 0.0332,-0.9904 0.0423,-0.24936 -0.0661,-1.27095 -0.0238,-0.22423 -0.0153,-0.45217 -0.0541,-0.6743 -0.0387,-0.2219 -0.12656,-0.4326 -0.17752,-0.65204 -0.0487,-0.20984 -0.0596,-0.42837 -0.12128,-0.63477 -0.0586,-0.19619 -0.15843,-0.37763 -0.23764,-0.56642 -0.0556,-0.1827 -0.0857,-0.37524 -0.1669,-0.5481 -0.072,-0.15309 -0.20169,-0.27246 -0.28719,-0.41843 -0.0731,-0.12493 -0.11243,-0.26791 -0.18738,-0.39176 -0.14118,-0.23327 -0.36202,-0.41859 -0.49637,-0.65825 -0.5756,-0.59866 0.27105,-1.41266 0.84663,-0.814 z"
       inkscape:connector-curvature="0" />
    <path
       style="opacity:1;fill:#f61c2d;fill-opacity:1;fill-rule:nonzero;stroke:#fc6671;stroke-width:0.588;stroke-linecap:square;stroke-miterlimit:4;stroke-dasharray:none;stroke-dashoffset:0;stroke-opacity:1;paint-order:markers fill stroke"
       id="path2541-3-8"
       d="m -164.68914,226.35397 c 0.25393,-1.54974 0.42986,-3.11518 0.57436,-4.6797 0.16924,-2.99055 0.52622,-5.99098 0.43053,-8.99129 -0.22851,-3.13731 -0.16112,-1.58384 -0.20812,-4.66014 -0.31979,-2.43612 -0.64147,-4.89916 -1.31068,-7.27034 -0.12179,-0.43145 -0.27381,-0.8538 -0.41067,-1.28072 -0.24351,-0.77483 0.85226,-1.11921 1.09578,-0.34439 v 0 c 0.47622,1.52014 0.9443,3.05931 1.2478,4.62549 0.12847,0.66297 0.21593,1.33333 0.30973,2.00209 0.1022,0.7288 0.18547,1.46011 0.2782,2.19016 0.0814,1.57128 0.18363,3.17278 0.1857,4.74679 0.001,0.82036 -0.0409,1.64023 -0.0587,2.46038 -0.0174,0.80387 -0.008,1.6086 -0.0471,2.41172 -0.0685,1.41093 -0.27559,2.81306 -0.30101,4.22709 -0.17443,1.70239 -0.22734,3.52696 -0.77537,5.1584 -0.4211,0.71452 -1.43159,0.11899 -1.01049,-0.59554 z"
       inkscape:connector-curvature="0" />
    <path
       style="opacity:1;fill:#51df3b;fill-opacity:1;fill-rule:nonzero;stroke:#33d917;stroke-width:0.588;stroke-linecap:square;stroke-miterlimit:4;stroke-dasharray:none;stroke-dashoffset:0;stroke-opacity:1;paint-order:markers fill stroke"
       id="path2673-4"
       d="m -165.82562,234.49354 c 0.0249,0.0737 0.0385,0.15249 0.0748,0.22141 0.0649,0.12316 0.16606,0.22544 0.22669,0.35072 0.0853,0.1764 0.13452,0.36826 0.20897,0.54951 0.31638,0.77018 0.65038,1.53209 0.96047,2.30522 0.15709,0.8941 0.67138,1.64651 1.01345,2.46729 0.27576,0.66165 0.47105,1.36553 0.72999,2.03547 0.0284,0.50423 0.43139,1.15564 0.45059,1.64724 0.0206,0.52719 -0.14417,0.0515 0.055,0.49873 -0.12326,0.24367 -0.0162,0.51921 -0.0594,0.77017 -0.0766,0.44428 -0.11359,-0.0245 -0.0258,0.48721 -0.12509,0.69489 -0.24501,1.44242 -0.66503,2.0343 -0.10051,0.14164 -0.23497,0.25583 -0.35245,0.38375 -0.42206,0.75078 -0.98965,1.40144 -1.55861,2.0404 -0.5191,0.64371 -1.42944,-0.0904 -0.91035,-0.73408 v 0 c 0.15514,-0.23044 0.46376,-0.70616 0.63697,-0.89268 0.10056,-0.1083 0.24242,-0.17269 0.34285,-0.2811 0.21091,-0.22765 0.32842,-0.53118 0.53927,-0.75889 0.29058,-0.41873 0.48308,-0.81587 0.66477,-1.2888 0.0317,-0.0824 0.0838,-0.15839 0.10028,-0.24515 0.0177,-0.0938 2.6e-4,-0.19101 2.9e-4,-0.2865 -0.0615,-0.4249 0.0447,-0.77634 0.038,-1.19655 -0.0306,-0.60549 -0.1643,-1.2219 -0.37129,-1.78882 -0.2228,-0.66838 -0.45318,-1.32311 -0.75358,-1.962 -0.12242,-0.26035 -0.28232,-0.50365 -0.38553,-0.7722 -1.08012,-2.81027 0.64146,1.07409 -0.62466,-1.70032 -0.27389,-0.76077 -0.56144,-1.54658 -0.89384,-2.28413 -0.41855,-0.92873 -0.13578,-0.11312 -0.45686,-0.92897 -0.0389,-0.099 -0.0661,-0.20228 -0.0992,-0.30342 -0.26008,-0.78795 0.85424,-1.15576 1.11432,-0.36781 z"
       inkscape:connector-curvature="0" />
    <path
       style="opacity:1;fill:#51df3b;fill-opacity:1;fill-rule:nonzero;stroke:#33d917;stroke-width:0.588;stroke-linecap:square;stroke-miterlimit:4;stroke-dasharray:none;stroke-dashoffset:0;stroke-opacity:1;paint-order:markers fill stroke"
       id="path2545-6-4-5"
       d="m -152.23193,147.98651 c -0.21141,0.0201 -0.0296,-0.0221 -0.26041,0.1739 -0.59865,0.5083 0.008,-0.18737 -0.57419,0.71955 -0.94034,1.46508 0.0425,-0.29113 -0.90528,1.48622 -0.912,1.7731 -1.62361,3.66164 -1.97046,5.63157 -0.0708,0.40202 -0.0996,0.81031 -0.14938,1.21546 -0.0625,1.48232 -0.24401,3.06869 0.25856,4.50424 0.20145,0.57541 0.7893,1.58829 1.07595,2.10879 0.63436,0.88424 1.24421,1.796 2.00197,2.58293 0.18719,0.19439 0.39788,0.36473 0.5929,0.55126 0.65051,0.62221 0.21736,0.27753 0.83306,0.72579 0.0879,0.0516 0.17588,0.10321 0.26381,0.15483 0.71736,0.45793 0.0698,1.47241 -0.6476,1.01449 v 0 c -0.13089,-0.0664 -0.26177,-0.13263 -0.39266,-0.19895 -0.51193,-0.48164 -1.01822,-0.9716 -1.51719,-1.4666 -0.24689,-0.2449 -0.51066,-0.47503 -0.73261,-0.74272 -0.18371,-0.22156 -1.29028,-1.85216 -1.42095,-2.04324 -0.23923,-0.3851 -0.5149,-0.74982 -0.71768,-1.15531 -0.97073,-1.94114 -0.94897,-4.09316 -0.78189,-6.20039 0.22127,-1.67504 0.55161,-3.51966 1.20546,-5.0869 0.15965,-0.38269 0.377,-0.73871 0.56031,-1.11066 0.17192,-0.34885 0.3369,-0.70108 0.50535,-1.05163 0.55084,-1.11512 1.19689,-2.49496 2.44398,-2.96495 0.8148,-0.2326 1.14375,0.91971 0.32895,1.15232 z"
       inkscape:connector-curvature="0" />
    <path
       style="opacity:1;fill:#51df3b;fill-opacity:1;fill-rule:nonzero;stroke:#33d917;stroke-width:0.588;stroke-linecap:square;stroke-miterlimit:4;stroke-dasharray:none;stroke-dashoffset:0;stroke-opacity:1;paint-order:markers fill stroke"
       id="path2545-1-5"
       d="m -161.05674,152.26655 c 1.18501,1.60354 1.13196,1.87087 1.79079,3.75949 0.13446,0.38542 0.22848,0.78378 0.34271,1.17567 0.29986,1.45303 0.73386,2.98962 0.46845,4.48726 -0.10638,0.60032 -0.52387,1.69447 -0.72317,2.25426 -0.48406,0.97467 -0.9395,1.97256 -1.56099,2.87102 -0.15352,0.22192 -0.33411,0.42392 -0.49663,0.63935 -0.5421,0.71864 -0.16995,0.30886 -0.70564,0.85021 -0.0785,0.065 -0.15701,0.13013 -0.2355,0.19519 -0.63447,0.56723 0.16767,1.4645 0.80217,0.89727 v 0 c 0.11853,-0.0865 0.23706,-0.17297 0.3556,-0.25945 0.4279,-0.55763 0.84889,-1.12257 1.26186,-1.6913 0.20434,-0.28138 0.4277,-0.5509 0.60377,-0.85077 0.14571,-0.24819 0.97593,-2.0354 1.07421,-2.24499 0.17425,-0.41854 0.38774,-0.8228 0.52274,-1.2556 0.64627,-2.07189 0.27904,-4.19245 -0.22441,-6.24547 -0.48751,-1.61772 -1.10991,-3.38531 -2.00706,-4.82715 -0.21907,-0.35207 -0.4546,-0.63196 -0.69528,-0.96963 z"
       inkscape:connector-curvature="0"
       sodipodi:nodetypes="cccccccccccccccscccc" />
    <path
       style="opacity:1;fill:#51df3b;fill-opacity:1;fill-rule:nonzero;stroke:#33d917;stroke-width:0.588;stroke-linecap:square;stroke-miterlimit:4;stroke-dasharray:none;stroke-dashoffset:0;stroke-opacity:1;paint-order:markers fill stroke"
       id="path2614-2-6-0"
       d="m -159.89009,192.43893 c -0.12184,-0.10068 -0.32599,-0.26056 -0.41355,-0.37955 -0.4107,-0.55803 -0.69344,-1.34538 -1.01791,-1.96591 -0.0605,-0.22842 -0.11703,-0.45788 -0.18144,-0.68521 -0.19552,-0.69005 -0.24363,-0.70617 -0.37259,-1.41651 -0.12949,-0.71324 -0.17403,-1.43609 -0.20447,-2.15859 0.0185,-0.80085 0.0415,-1.60121 0.34417,-2.35539 0.14728,-0.36697 0.34542,-0.71141 0.51851,-1.06694 0.41653,-0.59545 0.98544,-1.0066 1.57142,-1.41593 0.74721,-0.45283 1.38764,0.6039 0.64041,1.05674 v 0 c -0.49941,0.27143 -0.82582,0.508 -1.18225,0.96129 -0.4899,0.85912 -0.72227,1.80321 -0.65012,2.79701 -0.0332,0.99039 -0.0423,0.24935 0.0661,1.27095 0.0238,0.22422 0.0153,0.45216 0.0541,0.67429 0.0387,0.2219 0.12656,0.43261 0.17752,0.65204 0.0487,0.20984 0.0596,0.42837 0.12128,0.63478 0.0586,0.19618 0.15843,0.37762 0.23764,0.56642 0.0556,0.1827 0.0857,0.37524 0.1669,0.54809 0.072,0.15309 0.20169,0.27246 0.28719,0.41843 0.0731,0.12493 0.11243,0.26792 0.18738,0.39176 0.14118,0.23327 0.36202,0.41859 0.49637,0.65825 0.5756,0.59867 -0.27105,1.41266 -0.84663,0.814 z"
       inkscape:connector-curvature="0" />
    <path
       style="opacity:1;fill:#51df3b;fill-opacity:1;fill-rule:nonzero;stroke:#33d917;stroke-width:0.588;stroke-linecap:square;stroke-miterlimit:4;stroke-dasharray:none;stroke-dashoffset:0;stroke-opacity:1;paint-order:markers fill stroke"
       id="path2614-9-1-3"
       d="m -164.20067,180.85687 c 0.12184,0.10068 0.32599,0.26056 0.41355,0.37957 0.4107,0.55801 0.69344,1.34537 1.01791,1.9659 0.0605,0.22841 0.11703,0.45788 0.18144,0.68521 0.19552,0.69004 0.24363,0.70617 0.37259,1.4165 0.12949,0.71324 0.17403,1.43609 0.20447,2.15859 -0.0185,0.80085 -0.0415,1.60122 -0.34417,2.35539 -0.14728,0.36697 -0.34542,0.71141 -0.51851,1.06694 -0.41653,0.59545 -0.98544,1.0066 -1.57142,1.41594 -0.74721,0.45283 -1.38764,-0.6039 -0.64041,-1.05675 v 0 c 0.49941,-0.27143 0.82582,-0.508 1.18225,-0.96128 0.4899,-0.85913 0.72227,-1.80322 0.65012,-2.79701 0.0332,-0.9904 0.0423,-0.24936 -0.0661,-1.27095 -0.0238,-0.22423 -0.0153,-0.45217 -0.0541,-0.6743 -0.0387,-0.2219 -0.12656,-0.43261 -0.17752,-0.65204 -0.0487,-0.20984 -0.0596,-0.42837 -0.12128,-0.63478 -0.0586,-0.19618 -0.15843,-0.37762 -0.23764,-0.56642 -0.0556,-0.1827 -0.0857,-0.37524 -0.1669,-0.54809 -0.072,-0.15309 -0.20169,-0.27246 -0.28719,-0.41843 -0.0731,-0.12493 -0.11243,-0.26792 -0.18738,-0.39176 -0.14118,-0.23327 -0.36202,-0.41859 -0.49637,-0.65825 -0.5756,-0.59866 0.27105,-1.41266 0.84663,-0.814 z"
       inkscape:connector-curvature="0" />
    <path
       style="opacity:1;fill:#51df3b;fill-opacity:1;fill-rule:nonzero;stroke:#33d917;stroke-width:0.588;stroke-linecap:square;stroke-miterlimit:4;stroke-dasharray:none;stroke-dashoffset:0;stroke-opacity:1;paint-order:markers fill stroke"
       id="path2541-0-6"
       d="m -153.88805,199.39854 c -0.25393,1.54975 -0.42986,3.11521 -0.57436,4.6797 -0.16924,2.99056 -0.52622,5.99099 -0.43054,8.9913 0.22852,3.13731 0.16112,1.58384 0.20813,4.66014 0.31978,2.43612 0.64147,4.89915 1.31068,7.27033 0.12179,0.43145 0.27381,0.85381 0.41066,1.28072 0.24351,0.77484 -0.85226,1.11922 -1.09578,0.34439 v 0 c -0.47621,-1.52014 -0.94429,-3.0593 -1.24779,-4.62548 -0.12847,-0.66298 -0.21593,-1.33334 -0.30973,-2.0021 -0.1022,-0.72877 -0.18547,-1.4601 -0.27821,-2.19015 -0.0814,-1.57129 -0.18362,-3.17276 -0.18569,-4.74679 -0.001,-0.82037 0.0408,-1.64022 0.0587,-2.46039 0.0174,-0.80387 0.008,-1.6086 0.0471,-2.41171 0.0685,-1.41094 0.2756,-2.81307 0.30102,-4.22709 0.17443,-1.7024 0.22734,-3.52697 0.77537,-5.1584 0.4211,-0.71452 1.43159,-0.11899 1.01049,0.59553 z"
       inkscape:connector-curvature="0" />
    <path
       style="opacity:1;fill:#51df3b;fill-opacity:1;fill-rule:nonzero;stroke:#33d917;stroke-width:0.588;stroke-linecap:square;stroke-miterlimit:4;stroke-dasharray:none;stroke-dashoffset:0;stroke-opacity:1;paint-order:markers fill stroke"
       id="path2541-3-6-1"
       d="m -158.6796,226.38971 c 0.25393,-1.54974 0.42986,-3.11518 0.57436,-4.6797 0.16924,-2.99055 0.52622,-5.99098 0.43053,-8.99129 -0.22851,-3.13731 -0.16112,-1.58384 -0.20812,-4.66014 -0.31979,-2.43612 -0.64147,-4.89916 -1.31068,-7.27034 -0.12179,-0.43145 -0.27381,-0.8538 -0.41067,-1.28072 -0.24351,-0.77483 0.85226,-1.11921 1.09578,-0.34439 v 0 c 0.47622,1.52014 0.9443,3.05931 1.2478,4.62549 0.12847,0.66297 0.21593,1.33333 0.30973,2.00209 0.1022,0.7288 0.18547,1.46011 0.2782,2.19016 0.0814,1.57128 0.18363,3.17278 0.1857,4.74679 0.001,0.82036 -0.0409,1.64023 -0.0587,2.46038 -0.0174,0.80387 -0.008,1.6086 -0.0471,2.41171 -0.0685,1.41094 -0.27559,2.81307 -0.30101,4.2271 -0.17443,1.70239 -0.22734,3.52696 -0.77537,5.1584 -0.4211,0.71452 -1.43159,0.11899 -1.01049,-0.59554 z"
       inkscape:connector-curvature="0" />
    <path
       style="opacity:1;fill:#51df3b;fill-opacity:1;fill-rule:nonzero;stroke:#33d917;stroke-width:0.588;stroke-linecap:square;stroke-miterlimit:4;stroke-dasharray:none;stroke-dashoffset:0;stroke-opacity:1;paint-order:markers fill stroke"
       id="path2673-3-0"
       d="m -158.74615,234.33376 c -0.0249,0.0737 -0.0385,0.15249 -0.0748,0.22142 -0.0649,0.12314 -0.16606,0.22542 -0.22669,0.35071 -0.0853,0.1764 -0.13452,0.36825 -0.20897,0.54951 -0.31638,0.77019 -0.65038,1.5321 -0.96047,2.30522 -0.15709,0.89411 -0.67138,1.64651 -1.01345,2.46728 -0.27576,0.66167 -0.47105,1.36553 -0.72999,2.03549 -0.0284,0.50422 -0.43139,1.15563 -0.45059,1.64724 -0.0206,0.52719 0.14417,0.0515 -0.055,0.49871 0.12326,0.24369 0.0162,0.51922 0.0594,0.77018 0.0766,0.44429 0.11359,-0.0245 0.0258,0.48721 0.12509,0.69489 0.24501,1.44242 0.66503,2.03431 0.10051,0.14164 0.23497,0.25581 0.35245,0.38374 0.42206,0.75078 0.98965,1.40144 1.55861,2.04041 0.5191,0.64371 1.42944,-0.0904 0.91035,-0.7341 v 0 c -0.15514,-0.23042 -0.46376,-0.70616 -0.63697,-0.89267 -0.10056,-0.1083 -0.24242,-0.17268 -0.34285,-0.28109 -0.21091,-0.22766 -0.32842,-0.53119 -0.53927,-0.75891 -0.29058,-0.41873 -0.48308,-0.81586 -0.66477,-1.28878 -0.0317,-0.0824 -0.0838,-0.15839 -0.10028,-0.24515 -0.0177,-0.0938 -2.6e-4,-0.19102 -2.9e-4,-0.28652 0.0615,-0.4249 -0.0447,-0.77633 -0.038,-1.19653 0.0306,-0.60551 0.1643,-1.22191 0.37129,-1.78883 0.2228,-0.66839 0.45318,-1.32312 0.75358,-1.96201 0.12242,-0.26035 0.28232,-0.50365 0.38553,-0.77219 1.08012,-2.81026 -0.64146,1.07408 0.62466,-1.70033 0.27389,-0.76076 0.56144,-1.54657 0.89384,-2.28412 0.41855,-0.92873 0.13578,-0.11313 0.45686,-0.92898 0.0389,-0.099 0.0661,-0.20227 0.0992,-0.30341 0.26008,-0.78795 -0.85424,-1.15576 -1.11432,-0.36782 z"
       inkscape:connector-curvature="0" />
    <path
       style="opacity:1;fill:#f61c2d;fill-opacity:1;fill-rule:nonzero;stroke:#fc6671;stroke-width:0.588;stroke-linecap:square;stroke-miterlimit:4;stroke-dasharray:none;stroke-dashoffset:0;stroke-opacity:1;paint-order:markers fill stroke"
       id="path2673-7-6"
       d="m -159.85363,234.66435 c 0.0249,0.0737 0.0385,0.15249 0.0748,0.2214 0.0649,0.12315 0.16606,0.22543 0.22669,0.35073 0.0853,0.1764 0.13452,0.36824 0.20897,0.54951 0.31638,0.77017 0.65038,1.53208 0.96047,2.30521 0.15709,0.8941 0.67138,1.64652 1.01345,2.46728 0.27576,0.66166 0.47105,1.36553 0.72999,2.03548 0.0284,0.50424 0.43139,1.15565 0.45059,1.64724 0.0206,0.52719 -0.14417,0.0515 0.055,0.49872 -0.12326,0.24368 -0.0162,0.51923 -0.0594,0.77019 -0.0766,0.44427 -0.11359,-0.0245 -0.0258,0.48719 -0.12509,0.69491 -0.24501,1.44244 -0.66503,2.03431 -0.10051,0.14164 -0.23497,0.25582 -0.35245,0.38376 -0.42206,0.75076 -0.98965,1.40144 -1.55861,2.04039 -0.5191,0.64371 -1.42944,-0.0904 -0.91035,-0.73409 v 0 c 0.15514,-0.23043 0.46376,-0.70616 0.63697,-0.89268 0.10056,-0.10828 0.24242,-0.17268 0.34285,-0.28109 0.21091,-0.22764 0.32842,-0.53117 0.53927,-0.7589 0.29058,-0.41873 0.48308,-0.81585 0.66477,-1.28879 0.0317,-0.0824 0.0838,-0.15839 0.10028,-0.24515 0.0177,-0.0938 2.6e-4,-0.19101 2.9e-4,-0.28651 -0.0615,-0.4249 0.0447,-0.77634 0.038,-1.19654 -0.0306,-0.6055 -0.1643,-1.22191 -0.37129,-1.78883 -0.2228,-0.66838 -0.45318,-1.32311 -0.75358,-1.962 -0.12242,-0.26035 -0.28232,-0.50365 -0.38553,-0.77218 -1.08012,-2.81028 0.64146,1.07407 -0.62466,-1.70034 -0.27389,-0.76075 -0.56144,-1.54656 -0.89384,-2.28411 -0.41855,-0.92873 -0.13578,-0.11314 -0.45686,-0.92899 -0.0389,-0.099 -0.0661,-0.20226 -0.0992,-0.30341 -0.26008,-0.78794 0.85424,-1.15575 1.11432,-0.36782 z"
       inkscape:connector-curvature="0" />
    <path
       style="opacity:1;fill:#f61c2d;fill-opacity:1;fill-rule:nonzero;stroke:#fc6671;stroke-width:0.588;stroke-linecap:square;stroke-miterlimit:4;stroke-dasharray:none;stroke-dashoffset:0;stroke-opacity:1;paint-order:markers fill stroke"
       id="path2673-3-9-3"
       d="m -152.77416,234.50456 c -0.0249,0.0737 -0.0385,0.15249 -0.0748,0.22141 -0.0649,0.12316 -0.16606,0.22544 -0.22669,0.35072 -0.0853,0.1764 -0.13452,0.36826 -0.20897,0.54951 -0.31638,0.77018 -0.65038,1.53209 -0.96047,2.30523 -0.15709,0.89409 -0.67138,1.64651 -1.01345,2.46728 -0.27576,0.66165 -0.47105,1.36553 -0.72999,2.03547 -0.0284,0.50423 -0.43139,1.15564 -0.45059,1.64724 -0.0206,0.52719 0.14417,0.0515 -0.055,0.49873 0.12326,0.24367 0.0162,0.51921 0.0594,0.77017 0.0766,0.44428 0.11359,-0.0245 0.0258,0.48721 0.12509,0.69489 0.24501,1.44242 0.66503,2.0343 0.10051,0.14164 0.23497,0.25583 0.35245,0.38375 0.42206,0.75077 0.98965,1.40144 1.55861,2.0404 0.5191,0.64371 1.42944,-0.0904 0.91035,-0.73408 v 0 c -0.15514,-0.23044 -0.46376,-0.70616 -0.63697,-0.89269 -0.10056,-0.10829 -0.24242,-0.17268 -0.34285,-0.28109 -0.21091,-0.22765 -0.32842,-0.53118 -0.53927,-0.75889 -0.29058,-0.41873 -0.48308,-0.81587 -0.66477,-1.2888 -0.0317,-0.0824 -0.0838,-0.15839 -0.10028,-0.24515 -0.0177,-0.0938 -2.6e-4,-0.19101 -2.9e-4,-0.2865 0.0615,-0.4249 -0.0447,-0.77635 -0.038,-1.19655 0.0306,-0.60549 0.1643,-1.22191 0.37129,-1.78883 0.2228,-0.66837 0.45318,-1.3231 0.75358,-1.96199 0.12242,-0.26035 0.28232,-0.50365 0.38553,-0.7722 1.08012,-2.81027 -0.64146,1.07409 0.62466,-1.70032 0.27389,-0.76077 0.56144,-1.54658 0.89384,-2.28413 0.41855,-0.92873 0.13578,-0.11312 0.45686,-0.92897 0.0389,-0.099 0.0661,-0.20228 0.0992,-0.30342 0.26008,-0.78795 -0.85424,-1.15576 -1.11432,-0.36781 z"
       inkscape:connector-curvature="0" />
    <path
       style="opacity:1;fill:#f61c2d;fill-opacity:1;fill-rule:nonzero;stroke:#fc6671;stroke-width:0.588;stroke-linecap:square;stroke-miterlimit:4;stroke-dasharray:none;stroke-dashoffset:0;stroke-opacity:1;paint-order:markers fill stroke"
       d="m -164.37998,147.24481 c -0.70569,0.0498 -0.77917,1.10173 0.01,1.19425 0.21189,-0.0141 0.026,-0.0266 0.28526,0.1297 0.67254,0.40552 -0.0381,-0.18356 0.68212,0.61805 1.1635,1.29497 -0.0888,-0.28063 1.13224,1.32137 0.15916,0.21538 1.06133,1.53774 1.21362,1.75837 l 0.57362,-1.21464 c -0.20407,-0.28836 -0.65645,-0.97957 -0.85862,-1.26927 -0.72285,-1.01214 -1.58232,-2.27068 -2.88871,-2.53421 -0.0526,-0.006 -0.1023,-0.007 -0.14935,-0.004 z"
       id="path11564-2"
       inkscape:connector-curvature="0"
       sodipodi:nodetypes="ccccccccccc" />
    <path
       style="opacity:1;fill:#51df3b;fill-opacity:1;fill-rule:nonzero;stroke:#33d917;stroke-width:0.588;stroke-linecap:square;stroke-miterlimit:4;stroke-dasharray:none;stroke-dashoffset:0;stroke-opacity:1;paint-order:markers fill stroke"
       d="m -161.05294,149.47877 c 0.55084,-1.11512 1.06753,-2.23623 2.31462,-2.70622 0.8148,-0.2326 1.14375,0.91971 0.32895,1.15232 v 0 c -0.21141,0.0201 -0.0296,-0.0221 -0.26041,0.1739 -0.92595,0.94904 -1.36543,2.22045 -1.58144,2.62535 -0.0995,0.1935 -0.70718,-1.44156 -0.80172,-1.24535"
       id="path11538-0"
       inkscape:connector-curvature="0"
       sodipodi:nodetypes="ccccccc" />
    <path
       style="opacity:1;fill:none;fill-opacity:1;fill-rule:nonzero;stroke:#00887a;stroke-width:0.588;stroke-linecap:square;stroke-miterlimit:4;stroke-dasharray:0.58800003, 3.52800012;stroke-dashoffset:0;stroke-opacity:1;paint-order:markers fill stroke"
       id="path2692-7-6"
       d="m -165.44426,159.52589 c -6.70323,1.60642 -12.53097,3.30697 -19.19555,5.0732 -2.3529,0.4783 -4.70896,0.94128 -7.05868,1.4349 -2.47673,0.52029 -4.94088,1.09989 -7.42038,1.60681 -8.35738,1.70862 -16.76772,3.17078 -25.17576,4.60421 -5.69427,1.17433 -1.4277,1.52755 -6.33704,2.20419 0,0 -2.53466,-2.66548 5.97912,-4.23968 6.98897,-1.301 3.32675,-0.64437 10.98922,-1.9556 9.5361,-1.73049 19.03649,-3.67955 28.47206,-5.89314 2.05923,-0.45966 4.13026,-0.86938 6.1777,-1.379 1.7033,-0.42391 3.37435,-0.969 5.07049,-1.42071 1.29484,-0.34451 2.60732,-0.62054 3.90131,-0.96823 1.6183,-0.43522 1.53434,-0.69542 3.18855,-0.99643 1.42038,-0.38018 0.8713,-0.0793 1.40896,1.92948 z"
       inkscape:connector-curvature="0"
       sodipodi:nodetypes="cccscccccccccc" />
  </g>
</svg>
