<svg width="150.59mm" height="150.59mm" version="1.1" viewBox="0 0 150.59 150.59" xmlns="http://www.w3.org/2000/svg">
 <g transform="translate(233.34 -122.46)" stroke-linecap="square">
  <g fill="none" stroke="#00887a">
   <path d="m-155.23 242.58c6.3713-2.6303 12.609-5.5754 18.917-8.3576 2.2497-0.83874 4.5049-1.6628 6.7491-2.5162 2.3655-0.89949 4.7093-1.8556 7.0796-2.7424 7.9893-2.9888 16.069-5.7424 24.151-8.4672 5.4419-2.0464 1.9387-0.83692 6.6827-2.2696 1.364-0.41191 2.706-0.88548 4.0825-1.2535 1.4249-0.42936 2.032 1.5858 0.60719 2.0151-1.1847 0.24224-0.47747 0.0714-2.0289 0.56089-2.9073 0.9181-5.8115 1.8473-8.6731 2.9021-6.7011 2.3731-3.1858 1.1544-10.551 3.6425-9.1502 3.1939-18.231 6.5981-27.207 10.254-1.9625 0.77461-3.9445 1.5017-5.8876 2.3239-1.6165 0.6839-3.1823 1.4825-4.7874 2.1927-1.2254 0.54188-2.4789 1.0189-3.7029 1.5638-1.5308 0.68183-3.0011 1.4977-4.5883 2.0526-1.3438 0.59665-2.1876-1.304-0.84376-1.9006z" stroke-dasharray="0.58799718, 3.52798311000000009" stroke-width=".588" style="paint-order:markers fill stroke"/>
   <path d="m-152.92 216.83c6.8552-0.72094 13.742-1.1013 20.615-1.6587 2.3777-0.33372 4.7533-0.68295 7.1331-1.0012 2.5085-0.33543 5.0248-0.61076 7.5315-0.95972 8.4488-1.1762 16.865-2.6024 25.27-4.055 5.7599-0.79184 2.1034-0.18726 6.9573-1.1865 0.02773-2.9299-2.2219-1.592-7.2987-0.85183-7.0228 1.1042-3.3512 0.50192-11.012 1.821-9.5673 1.5487-19.174 2.8794-28.807 3.9391-2.0946 0.25337-4.1838 0.55775-6.2839 0.76009-1.7472 0.16837-3.5043 0.21174-5.254 0.35152-1.3356 0.10702-2.665 0.28447-4.0009 0.3882-1.6708 0.12937-3.3523 0.11209-5.0122 0.37996-1.4658 0.11525-1.3028 2.1883 0.163 2.073z" stroke-dasharray="0.58800001, 3.52800004" stroke-width=".588" style="paint-order:markers fill stroke"/>
   <path d="m-151.1 185.82c6.8906 0.18137 9.7213 0.0207 16.616 0.0377 2.3966 0.14632 4.7922 0.30826 7.1897 0.43896 2.527 0.13777 5.0573 0.215 7.5835 0.36641 8.515 0.51033 17.017 1.2724 25.51 2.0617 5.8043 0.3379 2.1116 0.0218 7.0289 0.6375 2.5895 3.3241-2.0927 1.7612-7.2095 1.4213-7.0877-0.55027-3.3802-0.23769-11.121-0.95222-9.6593-0.79398-19.341-1.3676-29.028-1.6689-2.1081-0.0884-4.2146-0.22809-6.3242-0.26518-1.755-0.0309-3.5102 0.0636-5.2654 0.0614-1.3399-2e-3 -2.6791-0.0747-4.019-0.0734-1.6758 2e-3 -1.0081 0.15103-2.6839 0.0141-1.4704 0 0.25217-2.0794 1.7226-2.0794z" stroke-dasharray="0.58800002, 3.52800008" stroke-width=".588" style="paint-order:markers fill stroke"/>
   <g stroke-dasharray="0.58800001, 3.52800004" stroke-width=".588">
    <path d="m-138.41 163.03c2.3394 0.54038 4.6824 1.0655 7.0182 1.6211 2.4621 0.58563 4.9101 1.2302 7.3753 1.8026 8.3092 1.9291 16.678 3.6133 25.045 5.2687 5.6612 1.3246 2.0308 0.57884 6.9205 1.3851 1.4059 0.23182 2.7979 0.52763 4.2106 0.71435 1.4685 0.24125 1.8097-1.8355 0.34119-2.0768-1.2061-0.0868-0.48271-9e-3 -2.0845-0.29345-3.0017-0.53392-6.002-1.0793-8.9761-1.7546-6.9521-1.4854-3.3085-0.73216-10.934-2.2456-9.487-1.9822-18.932-4.1819-28.306-6.6443-2.0464-0.51397-4.1058-0.97834-6.1391-1.542-1.6915-0.46882-3.3475-1.0579-5.0311-1.5544-1.2853-0.37864-2.59-0.6893-3.8743-1.0711-10.544 0.64538 10.317 5.1779 14.434 6.3904z" style="paint-order:markers fill stroke"/>
    <path d="m-216.2 204.87c2.3709 0.37927 4.7393 0.77399 7.1126 1.1378 2.5016 0.38348 5.0122 0.70701 7.5117 1.104 8.4246 1.338 16.812 2.9254 25.188 4.5388 5.7437 0.90215 2.0994 0.22756 6.9333 1.3197 1.3898 0.31402 2.7909 0.56354 4.17 0.92189 1.4514 0.32883 0.98637 2.3814-0.46503 2.0526-1.1502-0.37326-0.45047-0.17368-2.0418-0.51219-2.9821-0.63438-5.9672-1.2576-8.9769-1.7506-7.0003-1.2386-3.341-0.5661-10.975-2.0319-9.5358-1.7319-19.115-3.2466-28.727-4.4908-2.0894-0.2935-4.1723-0.63789-6.2682-0.88047-1.7436-0.20184-3.4996-0.2789-5.2463-0.45221-9.5672-3.5675 2.1347-1.9173 11.785-0.95664z" style="paint-order:markers fill stroke"/>
    <path d="m-162.4 242.44c-6.3493-2.6833-11.427-6.2139-17.712-9.0485-2.2427-0.85745-4.491-1.7003-6.7281-2.5724-2.358-0.91917-4.6938-1.8948-7.0567-2.8012-7.9644-3.0552-16.021-5.876-24.081-8.668-5.4248-2.0917-1.9317-0.85304-6.6638-2.3251-1.3605-0.42325-2.6986-0.90798-4.072-1.2875-1.4213-0.44122-2.0452 1.5688-0.62399 2.01 1.1826 0.25203 0.47691 0.0752 2.0243 0.57776 2.8996 0.94228 5.7961 1.8957 8.6489 2.9742 6.6812 2.4288 3.1762 1.1809 10.52 3.7302 9.1235 3.27 18.176 6.7497 27.121 10.48 1.956 0.79093 3.9319 1.5345 5.8682 2.3728 1.6108 0.69734 3.1699 1.5089 4.7691 2.2325 1.2209 0.55207 2.4704 1.0395 3.6899 1.5945 1.5251 0.69456 1.6106 1.1782 3.1931 1.7462l1.1028-1.0152z" style="paint-order:markers fill stroke"/>
   </g>
   <path d="m-213.56 191.58c2.3966-0.14632 4.7922-0.30826 7.1897-0.43896 2.527-0.13777 5.0572-0.215 7.5835-0.36641 8.515-0.51033 17.017-1.2724 25.51-2.0617 5.8043-0.3379 2.1116-0.0218 7.029-0.6375 2.8836-0.35751 0.80155-0.0468 1.8953-2.2884-1.7464 0.32546 0 0-1.378 0.0689-3.0298 0.34063-4.6833 0.60097-7.7267 0.79819-7.0877 0.55027-3.3802 0.23769-11.121 0.95222-9.6593 0.79398-19.341 1.3676-29.028 1.6689-2.1081 0.0884-4.2146 0.22809-6.3242 0.26518-1.755 0.0309-3.5102-0.0636-5.2654-0.0614-12.703 2.1732 1.9376 2.1163 11.636 2.101z" stroke-dasharray="0.58800002, 3.52800008" stroke-width=".588" style="paint-order:markers fill stroke"/>
  </g>
  <path d="m-19.33 224.87c-0.25393 1.5498-0.42986 3.1152-0.57436 4.6797-0.16924 2.9906-0.52622 5.991-0.43054 8.9913 0.22852 3.1373 0.16112 1.5838 0.20813 4.6602 0.31978 2.4361 0.64147 4.8992 1.3107 7.2703 0.12179 0.43145 0.27381 0.8538 0.41066 1.2807 0.24351 0.77484-0.85226 1.1192-1.0958 0.34439-0.47621-1.5201-0.94429-3.0593-1.2478-4.6255-0.12847-0.66297-0.21593-1.3333-0.30973-2.0021-0.1022-0.72878-0.18547-1.4601-0.27821-2.1902-0.0814-1.5713-0.18362-3.1728-0.18569-4.7468-1e-3 -0.82036 0.0408-1.6402 0.0587-2.4604 0.0174-0.80387 8e-3 -1.6086 0.0471-2.4117 0.0685-1.4109 0.2756-2.8131 0.30102-4.2271 0.17443-1.7024 0.22734-3.527 0.77537-5.1584 0.4211-0.71452 1.4316-0.11899 1.0105 0.59553z" fill="#fc6671" stroke="#fc6671" stroke-width=".588" style="paint-order:markers fill stroke"/>
  <path d="m-20.304 175.43c7e-3 -0.0155 0.0149-0.031 0.0223-0.0465 0.55084-1.1151 1.1969-2.495 2.444-2.965 0.8148-0.2326 1.1438 0.91971 0.32895 1.1523-0.21141 0.0201-0.0296-0.0221-0.26041 0.1739-0.92595 0.94904-1.6426 2.5901-1.8586 2.995-0.0995 0.1935-0.58163-1.5059-0.67617-1.3097" fill="#ff9242" fill-opacity=".82745" stroke="#fc6671" stroke-width=".588" style="paint-order:markers fill stroke"/>
  <g fill="#fc6671" stroke="#fc6671" stroke-width=".588">
   <path d="m-29.914 174.3c0.21189-0.0141 0.0257-0.0265 0.28496 0.12981 0.67254 0.40552-0.0379-0.18366 0.68234 0.61795 1.1635 1.295-0.0887-0.28053 1.1323 1.3215 1.185 1.6035 2.1908 3.3532 2.8496 5.2418 0.13446 0.38542 0.22848 0.78378 0.34271 1.1757 0.29986 1.453 0.73386 2.9896 0.46845 4.4872-0.10638 0.60032-0.52387 1.6945-0.72317 2.2543-0.48406 0.97466-0.9395 1.9726-1.561 2.871-0.15352 0.22193-0.33411 0.42392-0.49663 0.63935-0.5421 0.71864-0.16995 0.30886-0.70564 0.85021-0.0785 0.065-0.15701 0.13013-0.2355 0.19519-0.63447 0.56723 0.16767 1.4645 0.80217 0.89727 0.11853-0.0865 0.23706-0.17297 0.3556-0.25945 0.4279-0.55763 0.84889-1.1226 1.2619-1.6913 0.20434-0.28138 0.4277-0.55089 0.60377-0.85077 0.14571-0.24819 0.97593-2.0354 1.0742-2.245 0.17425-0.41853 0.38774-0.8228 0.52274-1.2556 0.64627-2.0719 0.27904-4.1924-0.22441-6.2455-0.48751-1.6177-1.1099-3.3853-2.0071-4.8272-0.21907-0.35207-0.49078-0.66854-0.73146-1.0062-0.22574-0.3167-0.44517-0.63785-0.66774-0.95678-0.72285-1.0121-1.5822-2.2703-2.8886-2.5338-0.84159-0.0987-0.98114 1.0915-0.13955 1.1902z" style="paint-order:markers fill stroke"/>
   <path d="m-15.094 217.98c-0.12184-0.10068-0.32599-0.26056-0.41355-0.37956-0.4107-0.55802-0.69344-1.3454-1.0179-1.9659-0.0605-0.22841-0.11703-0.45788-0.18144-0.68521-0.19552-0.69004-0.24363-0.70617-0.37259-1.4165-0.12949-0.71324-0.17403-1.4361-0.20447-2.1586 0.0185-0.80085 0.0415-1.6012 0.34417-2.3554 0.14728-0.36697 0.34542-0.71141 0.51851-1.0669 0.41653-0.59545 0.98544-1.0066 1.5714-1.4159 0.74721-0.45284 1.3876 0.60389 0.64041 1.0567-0.49941 0.27143-0.82582 0.508-1.1822 0.96129-0.4899 0.85912-0.72227 1.8032-0.65012 2.797-0.0332 0.9904-0.0423 0.24936 0.0661 1.271 0.0238 0.22423 0.0153 0.45217 0.0541 0.6743 0.0387 0.2219 0.12656 0.43261 0.17752 0.65204 0.0487 0.20984 0.0596 0.42837 0.12128 0.63478 0.0586 0.19618 0.15843 0.37762 0.23764 0.56642 0.0556 0.1827 0.0857 0.37524 0.1669 0.54809 0.072 0.15309 0.20169 0.27246 0.28719 0.41843 0.0731 0.12493 0.11243 0.26792 0.18738 0.39176 0.14118 0.23327 0.36202 0.41859 0.49637 0.65825 0.5756 0.59866-0.27105 1.4127-0.84663 0.814z" style="paint-order:markers fill stroke"/>
   <path d="m-19.405 206.4c0.12184 0.10068 0.32599 0.26056 0.41355 0.37956 0.4107 0.55802 0.69344 1.3454 1.0179 1.9659 0.0605 0.22841 0.11703 0.45788 0.18144 0.68521 0.19552 0.69004 0.24363 0.70617 0.37259 1.4165 0.12949 0.71324 0.17403 1.4361 0.20447 2.1586-0.0185 0.80085-0.0415 1.6012-0.34417 2.3554-0.14728 0.36697-0.34542 0.71141-0.51851 1.0669-0.41653 0.59545-0.98544 1.0066-1.5714 1.4159-0.74721 0.45284-1.3876-0.60389-0.64041-1.0567 0.49941-0.27143 0.82582-0.508 1.1822-0.96129 0.4899-0.85912 0.72227-1.8032 0.65012-2.797 0.0332-0.9904 0.0423-0.24936-0.0661-1.271-0.0238-0.22423-0.0153-0.45217-0.0541-0.6743-0.0387-0.2219-0.12656-0.43261-0.17752-0.65204-0.0487-0.20984-0.0596-0.42837-0.12128-0.63478-0.0586-0.19618-0.15843-0.37762-0.23764-0.56642-0.0556-0.1827-0.0857-0.37524-0.1669-0.54809-0.072-0.15309-0.20169-0.27246-0.28719-0.41843-0.0731-0.12493-0.11243-0.26792-0.18738-0.39176-0.14118-0.23327-0.36202-0.41859-0.49637-0.65825-0.5756-0.59866 0.27105-1.4127 0.84663-0.814z" style="paint-order:markers fill stroke"/>
   <path d="m-24.122 251.86c0.25393-1.5497 0.42986-3.1152 0.57436-4.6797 0.16924-2.9906 0.52622-5.991 0.43053-8.9913-0.22851-3.1373-0.16112-1.5838-0.20812-4.6601-0.31979-2.4361-0.64147-4.8992-1.3107-7.2703-0.12179-0.43145-0.27381-0.8538-0.41067-1.2807-0.24351-0.77484 0.85226-1.1192 1.0958-0.34439 0.47622 1.5201 0.9443 3.0593 1.2478 4.6255 0.12847 0.66297 0.21593 1.3333 0.30973 2.0021 0.1022 0.72879 0.18547 1.4601 0.2782 2.1902 0.0814 1.5713 0.18363 3.1728 0.1857 4.7468 1e-3 0.82036-0.0409 1.6402-0.0587 2.4604-0.0174 0.80387-8e-3 1.6086-0.0471 2.4117-0.0685 1.4109-0.27559 2.8131-0.30101 4.2271-0.17443 1.7024-0.22734 3.527-0.77537 5.1584-0.4211 0.71453-1.4316 0.119-1.0105-0.59553z" style="paint-order:markers fill stroke"/>
   <path d="m-12.482 281.26c-0.0249-0.0737-0.0385-0.15249-0.0748-0.22141-0.0649-0.12315-0.16606-0.22543-0.22669-0.35072-0.0853-0.1764-0.13452-0.36825-0.20897-0.54951-0.31638-0.77018-0.65038-1.5321-0.96047-2.3052-0.15709-0.8941-0.67138-1.6465-1.0134-2.4673-0.27576-0.66166-0.47105-1.3655-0.72999-2.0355-0.0284-0.50423-0.43139-1.1556-0.45059-1.6472-0.0206-0.52719 0.14417-0.0515-0.055-0.49872 0.12326-0.24368 0.0162-0.51922 0.0594-0.77018 0.0766-0.44428 0.11359 0.0245 0.0258-0.4872 0.12509-0.6949 0.24501-1.4424 0.66503-2.0343 0.10051-0.14164 0.23497-0.25582 0.35245-0.38375 0.42206-0.75077 0.98965-1.4014 1.5586-2.0404 0.5191-0.64371 1.4294 0.0904 0.91035 0.73409-0.15514 0.23043-0.46376 0.70616-0.63697 0.89268-0.10056 0.10829-0.24242 0.17268-0.34285 0.28109-0.21091 0.22765-0.32842 0.53118-0.53927 0.7589-0.29058 0.41873-0.48308 0.81586-0.66477 1.2888-0.0317 0.0824-0.0838 0.15839-0.10028 0.24515-0.0177 0.0938-2.6e-4 0.19101-2.9e-4 0.28651 0.0615 0.4249-0.0447 0.77634-0.038 1.1965 0.0306 0.6055 0.1643 1.2219 0.37129 1.7888 0.2228 0.66838 0.45318 1.3231 0.75358 1.962 0.12242 0.26035 0.28232 0.50365 0.38553 0.77219 1.0801 2.8103-0.64146-1.0741 0.62466 1.7003 0.27389 0.76076 0.56144 1.5466 0.89384 2.2841 0.41855 0.92873 0.13578 0.11313 0.45686 0.92898 0.0389 0.099 0.0661 0.20227 0.0992 0.30341 0.26008 0.78795-0.85424 1.1558-1.1143 0.36782z" style="paint-order:markers fill stroke"/>
  </g>
  <g fill="#ff9242" fill-opacity=".82745" stroke="#fc6671" stroke-width=".588">
   <path d="m-11.665 173.49c-0.21141 0.0201-0.0296-0.0221-0.26041 0.1739-0.59865 0.5083 8e-3 -0.18737-0.57419 0.71955-0.94034 1.4651 0.0425-0.29113-0.90528 1.4862-0.912 1.7731-1.6236 3.6616-1.9705 5.6316-0.0708 0.40202-0.0996 0.81031-0.14938 1.2155-0.0625 1.4823-0.24401 3.0687 0.25856 4.5042 0.20145 0.57541 0.7893 1.5883 1.076 2.1088 0.63436 0.88424 1.2442 1.796 2.002 2.5829 0.18719 0.19439 0.39788 0.36473 0.5929 0.55126 0.65051 0.62221 0.21736 0.27753 0.83306 0.72579 0.0879 0.0516 0.17588 0.10321 0.26381 0.15483 0.71736 0.45793 0.0698 1.4724-0.6476 1.0145-0.13089-0.0664-0.26177-0.13263-0.39266-0.19895-0.51193-0.48164-1.0182-0.9716-1.5172-1.4666-0.24689-0.2449-0.51066-0.47503-0.73261-0.74272-0.18371-0.22156-1.2903-1.8522-1.421-2.0432-0.23923-0.3851-0.5149-0.74982-0.71768-1.1553-0.97073-1.9411-0.94897-4.0932-0.78189-6.2004 0.22127-1.675 0.55161-3.5197 1.2055-5.0869 0.15965-0.38269 0.377-0.73871 0.56031-1.1107 0.17192-0.34885 0.3369-0.70108 0.50535-1.0516 0.55084-1.1151 1.1969-2.495 2.444-2.965 0.8148-0.2326 1.1438 0.91971 0.32895 1.1523z" style="paint-order:markers fill stroke"/>
   <path d="m-20.174 217.73c-0.12184-0.10068-0.32599-0.26056-0.41355-0.37956-0.4107-0.55802-0.69344-1.3454-1.0179-1.9659-0.0605-0.22841-0.11703-0.45788-0.18144-0.68521-0.19552-0.69004-0.24363-0.70617-0.37259-1.4165-0.12949-0.71324-0.17403-1.4361-0.20447-2.1586 0.0185-0.80085 0.0415-1.6012 0.34417-2.3554 0.14728-0.36697 0.34542-0.71141 0.51851-1.0669 0.41653-0.59545 0.98544-1.0066 1.5714-1.4159 0.74721-0.45284 1.3876 0.60389 0.64041 1.0567-0.49941 0.27143-0.82582 0.508-1.1822 0.96129-0.4899 0.85912-0.72227 1.8032-0.65012 2.797-0.0332 0.9904-0.0423 0.24936 0.0661 1.271 0.0238 0.22423 0.0153 0.45217 0.0541 0.6743 0.0387 0.2219 0.12656 0.43261 0.17752 0.65204 0.0487 0.20984 0.0596 0.42837 0.12128 0.63478 0.0586 0.19618 0.15843 0.37762 0.23764 0.56642 0.0556 0.1827 0.0857 0.37524 0.1669 0.54809 0.072 0.15309 0.20169 0.27246 0.28719 0.41843 0.0731 0.12493 0.11243 0.26792 0.18738 0.39176 0.14118 0.23327 0.36202 0.41859 0.49637 0.65825 0.5756 0.59866-0.27105 1.4127-0.84663 0.814z" style="paint-order:markers fill stroke"/>
   <path d="m-24.485 206.15c0.12184 0.10068 0.32599 0.26056 0.41355 0.37956 0.4107 0.55802 0.69344 1.3454 1.0179 1.9659 0.0605 0.22841 0.11703 0.45788 0.18144 0.68521 0.19552 0.69004 0.24363 0.70617 0.37259 1.4165 0.12949 0.71324 0.17403 1.4361 0.20447 2.1586-0.0185 0.80085-0.0415 1.6012-0.34417 2.3554-0.14728 0.36697-0.34542 0.71141-0.51851 1.0669-0.41653 0.59545-0.98544 1.0066-1.5714 1.4159-0.74721 0.45284-1.3876-0.60389-0.64041-1.0567 0.49941-0.27143 0.82582-0.508 1.1822-0.96129 0.4899-0.85912 0.72227-1.8032 0.65012-2.797 0.0332-0.9904 0.0423-0.24936-0.0661-1.271-0.0238-0.22423-0.0153-0.45217-0.0541-0.6743-0.0387-0.2219-0.12656-0.43261-0.17752-0.65204-0.0487-0.20984-0.0596-0.42837-0.12128-0.63478-0.0586-0.19618-0.15843-0.37762-0.23764-0.56642-0.0556-0.1827-0.0857-0.37524-0.1669-0.54809-0.072-0.15309-0.20169-0.27246-0.28719-0.41843-0.0731-0.12493-0.11243-0.26792-0.18738-0.39176-0.14118-0.23327-0.36202-0.41859-0.49637-0.65825-0.5756-0.59866 0.27105-1.4127 0.84663-0.814z" style="paint-order:markers fill stroke"/>
   <path d="m-13.321 224.91c-0.25393 1.5498-0.42986 3.1152-0.57436 4.6797-0.16924 2.9906-0.52622 5.991-0.43054 8.9913 0.22852 3.1373 0.16112 1.5838 0.20813 4.6602 0.31978 2.4361 0.64147 4.8992 1.3107 7.2703 0.12179 0.43145 0.27381 0.8538 0.41066 1.2807 0.24351 0.77484-0.85226 1.1192-1.0958 0.34439-0.47621-1.5201-0.94429-3.0593-1.2478-4.6255-0.12847-0.66297-0.21593-1.3333-0.30973-2.0021-0.1022-0.72878-0.18547-1.4601-0.27821-2.1902-0.0814-1.5713-0.18362-3.1728-0.18569-4.7468-1e-3 -0.82036 0.0408-1.6402 0.0587-2.4604 0.0174-0.80387 8e-3 -1.6086 0.0471-2.4117 0.0685-1.4109 0.2756-2.8131 0.30102-4.2271 0.17443-1.7024 0.22734-3.527 0.77537-5.1584 0.4211-0.71452 1.4316-0.11899 1.0105 0.59553z" style="paint-order:markers fill stroke"/>
   <path d="m-18.112 251.9c0.25393-1.5497 0.42986-3.1152 0.57436-4.6797 0.16924-2.9906 0.52622-5.991 0.43053-8.9913-0.22851-3.1373-0.16112-1.5838-0.20812-4.6601-0.31979-2.4361-0.64147-4.8992-1.3107-7.2703-0.12179-0.43145-0.27381-0.8538-0.41067-1.2807-0.24351-0.77484 0.85226-1.1192 1.0958-0.34439 0.47622 1.5201 0.9443 3.0593 1.2478 4.6255 0.12847 0.66297 0.21593 1.3333 0.30973 2.0021 0.1022 0.72879 0.18547 1.4601 0.2782 2.1902 0.0814 1.5713 0.18363 3.1728 0.1857 4.7468 1e-3 0.82036-0.0409 1.6402-0.0587 2.4604-0.0174 0.80387-8e-3 1.6086-0.0471 2.4117-0.0685 1.4109-0.27559 2.8131-0.30101 4.2271-0.17443 1.7024-0.22734 3.527-0.77537 5.1584-0.4211 0.71453-1.4316 0.119-1.0105-0.59553z" style="paint-order:markers fill stroke"/>
  </g>
  <g stroke="#fc6671" stroke-width=".588">
   <path d="m-19.562 281.42c0.0249-0.0737 0.0385-0.15249 0.0748-0.22141 0.0649-0.12315 0.16606-0.22543 0.22669-0.35072 0.0853-0.1764 0.13452-0.36825 0.20897-0.54951 0.31638-0.77018 0.65038-1.5321 0.96047-2.3052 0.15709-0.8941 0.67138-1.6465 1.0134-2.4673 0.27576-0.66166 0.47105-1.3655 0.72999-2.0355 0.0284-0.50423 0.43139-1.1556 0.45059-1.6472 0.0206-0.52719-0.14417-0.0515 0.055-0.49872-0.12326-0.24368-0.0162-0.51922-0.0594-0.77018-0.0766-0.44428-0.11359 0.0245-0.0258-0.4872-0.12509-0.6949-0.24501-1.4424-0.66503-2.0343-0.10051-0.14164-0.23497-0.25582-0.35245-0.38375-0.42206-0.75077-0.98965-1.4014-1.5586-2.0404-0.5191-0.64371-1.4294 0.0904-0.91035 0.73409 0.15514 0.23043 0.46376 0.70616 0.63697 0.89268 0.10056 0.10829 0.24242 0.17268 0.34285 0.28109 0.21091 0.22765 0.32842 0.53118 0.53927 0.7589 0.29058 0.41873 0.48308 0.81586 0.66477 1.2888 0.0317 0.0824 0.0838 0.15839 0.10028 0.24515 0.0177 0.0938 2.6e-4 0.19101 2.9e-4 0.28651-0.0615 0.4249 0.0447 0.77634 0.038 1.1965-0.0306 0.6055-0.1643 1.2219-0.37129 1.7888-0.2228 0.66838-0.45318 1.3231-0.75358 1.962-0.12242 0.26035-0.28232 0.50365-0.38553 0.77219-1.0801 2.8103 0.64146-1.0741-0.62466 1.7003-0.27389 0.76076-0.56144 1.5466-0.89384 2.2841-0.41855 0.92873-0.13578 0.11313-0.45686 0.92898-0.0389 0.099-0.0661 0.20227-0.0992 0.30341-0.26008 0.78795 0.85424 1.1558 1.1143 0.36782z" fill="#fc6671" style="paint-order:markers fill stroke"/>
   <path d="m-18.454 281.09c-0.0249-0.0737-0.0385-0.15249-0.0748-0.22141-0.0649-0.12315-0.16606-0.22543-0.22669-0.35072-0.0853-0.1764-0.13452-0.36825-0.20897-0.54951-0.31638-0.77018-0.65038-1.5321-0.96047-2.3052-0.15709-0.8941-0.67138-1.6465-1.0134-2.4673-0.27576-0.66166-0.47105-1.3655-0.72999-2.0355-0.0284-0.50423-0.43139-1.1556-0.45059-1.6472-0.0206-0.52719 0.14417-0.0515-0.055-0.49872 0.12326-0.24368 0.0162-0.51922 0.0594-0.77018 0.0766-0.44428 0.11359 0.0245 0.0258-0.4872 0.12509-0.6949 0.24501-1.4424 0.66503-2.0343 0.10051-0.14164 0.23497-0.25582 0.35245-0.38375 0.42206-0.75077 0.98965-1.4014 1.5586-2.0404 0.5191-0.64371 1.4294 0.0904 0.91035 0.73409-0.15514 0.23043-0.46376 0.70616-0.63697 0.89268-0.10056 0.10829-0.24242 0.17268-0.34285 0.28109-0.21091 0.22765-0.32842 0.53118-0.53927 0.7589-0.29058 0.41873-0.48308 0.81586-0.66477 1.2888-0.0317 0.0824-0.0838 0.15839-0.10028 0.24515-0.0177 0.0938-2.6e-4 0.19101-2.9e-4 0.28651 0.0615 0.4249-0.0447 0.77634-0.038 1.1965 0.0306 0.6055 0.1643 1.2219 0.37129 1.7888 0.2228 0.66838 0.45318 1.3231 0.75358 1.962 0.12242 0.26035 0.28232 0.50365 0.38553 0.77219 1.0801 2.8103-0.64146-1.0741 0.62466 1.7003 0.27389 0.76076 0.56144 1.5466 0.89384 2.2841 0.41855 0.92873 0.13578 0.11313 0.45686 0.92898 0.0389 0.099 0.0661 0.20227 0.0992 0.30341 0.26008 0.78795-0.85424 1.1558-1.1143 0.36782z" fill="#ff9242" fill-opacity=".82745" style="paint-order:markers fill stroke"/>
   <path d="m-25.534 281.25c0.0249-0.0737 0.0385-0.15249 0.0748-0.22141 0.0649-0.12315 0.16606-0.22543 0.22669-0.35072 0.0853-0.1764 0.13452-0.36825 0.20897-0.54951 0.31638-0.77018 0.65038-1.5321 0.96047-2.3052 0.15709-0.8941 0.67138-1.6465 1.0134-2.4673 0.27576-0.66166 0.47105-1.3655 0.72999-2.0355 0.0284-0.50423 0.43139-1.1556 0.45059-1.6472 0.0206-0.52719-0.14417-0.0515 0.055-0.49872-0.12326-0.24368-0.0162-0.51922-0.0594-0.77018-0.0766-0.44428-0.11359 0.0245-0.0258-0.4872-0.12509-0.6949-0.24501-1.4424-0.66503-2.0343-0.10051-0.14164-0.23497-0.25582-0.35245-0.38375-0.42206-0.75077-0.98965-1.4014-1.5586-2.0404-0.5191-0.64371-1.4294 0.0904-0.91035 0.73409 0.15514 0.23043 0.46376 0.70616 0.63697 0.89268 0.10056 0.10829 0.24242 0.17268 0.34285 0.28109 0.21091 0.22765 0.32842 0.53118 0.53927 0.7589 0.29058 0.41873 0.48308 0.81586 0.66477 1.2888 0.0317 0.0824 0.0838 0.15839 0.10028 0.24515 0.0177 0.0938 2.6e-4 0.19101 2.9e-4 0.28651-0.0615 0.4249 0.0447 0.77634 0.038 1.1965-0.0306 0.6055-0.1643 1.2219-0.37129 1.7888-0.2228 0.66838-0.45318 1.3231-0.75358 1.962-0.12242 0.26035-0.28232 0.50365-0.38553 0.77219-1.0801 2.8103 0.64146-1.0741-0.62466 1.7003-0.27389 0.76076-0.56144 1.5466-0.89384 2.2841-0.41855 0.92873-0.13578 0.11313-0.45686 0.92898-0.0389 0.099-0.0661 0.20227-0.0992 0.30341-0.26008 0.78795 0.85424 1.1558 1.1143 0.36782z" fill="#ff9242" fill-opacity=".82745" style="paint-order:markers fill stroke"/>
   <path d="m-21.229 182.05c-0.0708 0.40202-0.0996 0.81031-0.14938 1.2155-0.0625 1.4823-0.24401 3.0687 0.25856 4.5042 0.20145 0.57542 0.7893 1.5883 1.076 2.1088 0.63436 0.88424 1.2442 1.796 2.002 2.5829 0.18719 0.19439 0.39788 0.36473 0.5929 0.55126 0.65051 0.62221 0.21736 0.27754 0.83306 0.7258 0.0879 0.0516 0.17588 0.10321 0.26381 0.15482 0.71736 0.45793 0.0698 1.4724-0.6476 1.0145-0.13089-0.0664-0.26177-0.13263-0.39266-0.19895-0.51193-0.48164-1.0182-0.9716-1.5172-1.4666-0.24689-0.2449-0.51066-0.47502-0.73261-0.74272-0.18371-0.22156-1.2903-1.8522-1.421-2.0432-0.23923-0.3851-0.5149-0.74982-0.71768-1.1553-0.97073-1.9411-0.94897-4.0932-0.78189-6.2004 0.22127-1.675 0.76286-4.4491 1.4167-6.0164 0.95847 0.45859 0.83854 0.84918-0.083 4.9658z" fill="#fc6671" style="paint-order:markers fill stroke"/>
   <path d="m-24.044 173.43c0.21189-0.0141 0.0257-0.0265 0.28496 0.12981 0.67254 0.40552-0.0379-0.18366 0.68234 0.61795 1.1635 1.295-0.0887-0.28053 1.1323 1.3215 1.185 1.6035 2.1908 3.3532 2.8496 5.2418 0.13446 0.38542 0.22848 0.78378 0.34271 1.1757 0.29986 1.453 0.73386 2.9896 0.46845 4.4873-0.10638 0.60032-0.52387 1.6945-0.72317 2.2543-0.48406 0.97467-0.9395 1.9726-1.561 2.871-0.15352 0.22192-0.33411 0.42392-0.49663 0.63935-0.5421 0.71864-0.16995 0.30886-0.70564 0.85021-0.0785 0.065-0.15701 0.13013-0.2355 0.19519-0.63447 0.56723 0.16767 1.4645 0.80217 0.89727 0.11853-0.0865 0.23706-0.17297 0.3556-0.25945 0.4279-0.55763 0.84889-1.1226 1.2619-1.6913 0.20434-0.28138 0.4277-0.5509 0.60377-0.85077 0.14571-0.24819 0.97593-2.0354 1.0742-2.245 0.17425-0.41854 0.38774-0.8228 0.52274-1.2556 0.64627-2.0719 0.27904-4.1924-0.22441-6.2455-0.48751-1.6177-1.1099-3.3853-2.0071-4.8272-0.21907-0.35207-0.49078-0.66854-0.73146-1.0062-0.22574-0.3167-0.44517-0.63785-0.66774-0.95678-0.72285-1.0121-1.5822-2.2703-2.8886-2.5338-0.84159-0.0987-0.98114 1.0915-0.13955 1.1902z" fill="#ff9242" fill-opacity=".82745" style="paint-order:markers fill stroke"/>
   <path d="m-23.863 172.15c-0.70569 0.0498-0.77917 1.1017 0.01 1.1942 0.21189-0.0141 0.026-0.0266 0.28526 0.1297 0.67254 0.40552-0.0381-0.18356 0.68212 0.61805 1.1635 1.295-0.0888-0.28063 1.1322 1.3214 0.15916 0.21538 1.4139 1.9118 1.5662 2.1324l0.43286-1.0593c-0.20407-0.28836-0.86822-1.509-1.0704-1.7987-0.72285-1.0121-1.5823-2.2707-2.8887-2.5342-0.0526-6e-3 -0.1023-7e-3 -0.14935-4e-3z" fill="#fc6671" style="paint-order:markers fill stroke"/>
  </g>
  <g fill="#f61c2d" stroke="#fc6671" stroke-width=".588">
   <path d="m-159.9 199.36c-0.25393 1.5498-0.42986 3.1152-0.57436 4.6797-0.16924 2.9906-0.52622 5.991-0.43054 8.9913 0.22852 3.1373 0.16112 1.5838 0.20813 4.6601 0.31978 2.4361 0.64147 4.8992 1.3107 7.2703 0.12179 0.43145 0.27381 0.8538 0.41066 1.2807 0.24351 0.77484-0.85226 1.1192-1.0958 0.34439-0.47621-1.5201-0.94429-3.0593-1.2478-4.6255-0.12847-0.66298-0.21593-1.3333-0.30973-2.0021-0.1022-0.72877-0.18547-1.4601-0.27821-2.1902-0.0814-1.5713-0.18362-3.1728-0.18569-4.7468-1e-3 -0.82037 0.0408-1.6402 0.0587-2.4604 0.0174-0.80387 8e-3 -1.6086 0.0471-2.4117 0.0685-1.4109 0.2756-2.8131 0.30102-4.2271 0.17443-1.7024 0.22734-3.527 0.77537-5.1584 0.4211-0.71452 1.4316-0.11899 1.0105 0.59553z" style="paint-order:markers fill stroke"/>
   <path d="m-160.24 150.44c-0.912 1.7731-1.6236 3.6616-1.9705 5.6316-0.0708 0.40202-0.0996 0.81031-0.14938 1.2155-0.0625 1.4823-0.24401 3.0687 0.25856 4.5042 0.20145 0.57542 0.7893 1.5883 1.076 2.1088 0.63436 0.88424 1.2442 1.796 2.002 2.5829 0.18719 0.19439 0.39788 0.36473 0.5929 0.55126 0.65051 0.62221 0.21736 0.27754 0.83306 0.7258 0.0879 0.0516 0.17588 0.10321 0.26381 0.15482 0.71736 0.45793 0.0698 1.4724-0.6476 1.0145-0.13089-0.0664-0.26177-0.13263-0.39266-0.19895-0.51193-0.48164-1.0182-0.9716-1.5172-1.4666-0.24689-0.2449-0.51066-0.47502-0.73261-0.74272-0.18371-0.22156-1.2903-1.8522-1.421-2.0432-0.23923-0.3851-0.5149-0.74982-0.71768-1.1553-0.97073-1.9411-0.94897-4.0932-0.78189-6.2004 0.22127-1.675 0.55161-3.5197 1.2055-5.0869 0.15965-0.38269 0.377-0.73871 0.56031-1.1107 0.17192-0.34885 0.3369-0.70108 0.50535-1.0516 0.45854 0.19374 1.0485 0.53797 1.033 0.56704z" style="paint-order:markers fill stroke"/>
   <path d="m-170.48 148.79c0.21189-0.0141 0.0257-0.0265 0.28496 0.12981 0.67254 0.40552-0.0379-0.18366 0.68234 0.61795 1.1635 1.295-0.0887-0.28053 1.1323 1.3215 1.185 1.6035 2.1908 3.3532 2.8496 5.2418 0.13446 0.38542 0.22848 0.78378 0.34271 1.1757 0.29986 1.453 0.73386 2.9896 0.46845 4.4872-0.10638 0.60032-0.52387 1.6945-0.72317 2.2543-0.48406 0.97466-0.9395 1.9726-1.561 2.871-0.15352 0.22193-0.33411 0.42392-0.49663 0.63935-0.5421 0.71864-0.16995 0.30886-0.70564 0.85021-0.0785 0.065-0.15701 0.13013-0.2355 0.19519-0.63447 0.56723 0.16767 1.4645 0.80217 0.89727 0.11853-0.0865 0.23706-0.17297 0.3556-0.25945 0.4279-0.55763 0.84889-1.1226 1.2619-1.6913 0.20434-0.28138 0.4277-0.55089 0.60377-0.85077 0.14571-0.24819 0.97593-2.0354 1.0742-2.245 0.17425-0.41853 0.38774-0.8228 0.52274-1.2556 0.64627-2.0719 0.27904-4.1924-0.22441-6.2455-0.48751-1.6177-1.1099-3.3853-2.0071-4.8272-0.21907-0.35207-0.49078-0.66854-0.73146-1.0062-0.22574-0.3167-0.44517-0.63785-0.66774-0.95678-0.72285-1.0121-1.5822-2.2703-2.8886-2.5338-0.84159-0.0987-0.98114 1.0915-0.13955 1.1902z" style="paint-order:markers fill stroke"/>
   <path d="m-153.11 192.68c-0.12184-0.10067-0.32599-0.26055-0.41355-0.37956-0.4107-0.55802-0.69344-1.3454-1.0179-1.9659-0.0605-0.22841-0.11703-0.45788-0.18144-0.68521-0.19552-0.69003-0.24363-0.70617-0.37259-1.4165-0.12949-0.71324-0.17403-1.4361-0.20447-2.1586 0.0185-0.80085 0.0415-1.6012 0.34417-2.3554 0.14728-0.36697 0.34542-0.71141 0.51851-1.0669 0.41653-0.59545 0.98544-1.0066 1.5714-1.4159 0.74721-0.45284 1.3876 0.60389 0.64041 1.0567-0.49941 0.27143-0.82582 0.508-1.1822 0.96129-0.4899 0.85912-0.72227 1.8032-0.65012 2.797-0.0332 0.9904-0.0423 0.24936 0.0661 1.271 0.0238 0.22423 0.0153 0.45217 0.0541 0.6743 0.0387 0.2219 0.12656 0.43261 0.17752 0.65204 0.0487 0.20985 0.0596 0.42838 0.12128 0.63478 0.0586 0.19619 0.15843 0.37762 0.23764 0.56642 0.0556 0.1827 0.0857 0.37524 0.1669 0.54809 0.072 0.15309 0.20169 0.27246 0.28719 0.41843 0.0731 0.12493 0.11243 0.26792 0.18738 0.39177 0.14118 0.23327 0.36202 0.41858 0.49637 0.65824 0.5756 0.59866-0.27105 1.4127-0.84663 0.814z" style="paint-order:markers fill stroke"/>
   <path d="m-157.63 181.31c0.12184 0.10067 0.32599 0.26055 0.41355 0.37955 0.4107 0.55802 0.69344 1.3454 1.0179 1.9659 0.0605 0.22842 0.11703 0.45788 0.18144 0.68521 0.19552 0.69004 0.24363 0.70617 0.37259 1.4165 0.12949 0.71324 0.17403 1.4361 0.20447 2.1586-0.0185 0.80084-0.0415 1.6012-0.34417 2.3554-0.14728 0.36697-0.34542 0.71141-0.51851 1.067-0.41653 0.59545-0.98544 1.0066-1.5714 1.4159-0.74721 0.45284-1.3876-0.60389-0.64041-1.0567 0.49941-0.27143 0.82582-0.508 1.1822-0.96129 0.4899-0.85912 0.72227-1.8032 0.65012-2.797 0.0332-0.9904 0.0423-0.24936-0.0661-1.271-0.0238-0.22423-0.0153-0.45217-0.0541-0.6743-0.0387-0.2219-0.12656-0.4326-0.17752-0.65204-0.0487-0.20984-0.0596-0.42837-0.12128-0.63477-0.0586-0.19619-0.15843-0.37763-0.23764-0.56642-0.0556-0.1827-0.0857-0.37524-0.1669-0.5481-0.072-0.15309-0.20169-0.27246-0.28719-0.41843-0.0731-0.12493-0.11243-0.26791-0.18738-0.39176-0.14118-0.23327-0.36202-0.41859-0.49637-0.65825-0.5756-0.59866 0.27105-1.4127 0.84663-0.814z" style="paint-order:markers fill stroke"/>
   <path d="m-164.69 226.35c0.25393-1.5497 0.42986-3.1152 0.57436-4.6797 0.16924-2.9906 0.52622-5.991 0.43053-8.9913-0.22851-3.1373-0.16112-1.5838-0.20812-4.6601-0.31979-2.4361-0.64147-4.8992-1.3107-7.2703-0.12179-0.43145-0.27381-0.8538-0.41067-1.2807-0.24351-0.77483 0.85226-1.1192 1.0958-0.34439 0.47622 1.5201 0.9443 3.0593 1.2478 4.6255 0.12847 0.66297 0.21593 1.3333 0.30973 2.0021 0.1022 0.7288 0.18547 1.4601 0.2782 2.1902 0.0814 1.5713 0.18363 3.1728 0.1857 4.7468 1e-3 0.82036-0.0409 1.6402-0.0587 2.4604-0.0174 0.80387-8e-3 1.6086-0.0471 2.4117-0.0685 1.4109-0.27559 2.8131-0.30101 4.2271-0.17443 1.7024-0.22734 3.527-0.77537 5.1584-0.4211 0.71452-1.4316 0.11899-1.0105-0.59554z" style="paint-order:markers fill stroke"/>
  </g>
  <g fill="#51df3b" stroke="#33d917" stroke-width=".588">
   <path d="m-165.83 234.49c0.0249 0.0737 0.0385 0.15249 0.0748 0.22141 0.0649 0.12316 0.16606 0.22544 0.22669 0.35072 0.0853 0.1764 0.13452 0.36826 0.20897 0.54951 0.31638 0.77018 0.65038 1.5321 0.96047 2.3052 0.15709 0.8941 0.67138 1.6465 1.0134 2.4673 0.27576 0.66165 0.47105 1.3655 0.72999 2.0355 0.0284 0.50423 0.43139 1.1556 0.45059 1.6472 0.0206 0.52719-0.14417 0.0515 0.055 0.49873-0.12326 0.24367-0.0162 0.51921-0.0594 0.77017-0.0766 0.44428-0.11359-0.0245-0.0258 0.48721-0.12509 0.69489-0.24501 1.4424-0.66503 2.0343-0.10051 0.14164-0.23497 0.25583-0.35245 0.38375-0.42206 0.75078-0.98965 1.4014-1.5586 2.0404-0.5191 0.64371-1.4294-0.0904-0.91035-0.73408 0.15514-0.23044 0.46376-0.70616 0.63697-0.89268 0.10056-0.1083 0.24242-0.17269 0.34285-0.2811 0.21091-0.22765 0.32842-0.53118 0.53927-0.75889 0.29058-0.41873 0.48308-0.81587 0.66477-1.2888 0.0317-0.0824 0.0838-0.15839 0.10028-0.24515 0.0177-0.0938 2.6e-4 -0.19101 2.9e-4 -0.2865-0.0615-0.4249 0.0447-0.77634 0.038-1.1966-0.0306-0.60549-0.1643-1.2219-0.37129-1.7888-0.2228-0.66838-0.45318-1.3231-0.75358-1.962-0.12242-0.26035-0.28232-0.50365-0.38553-0.7722-1.0801-2.8103 0.64146 1.0741-0.62466-1.7003-0.27389-0.76077-0.56144-1.5466-0.89384-2.2841-0.41855-0.92873-0.13578-0.11312-0.45686-0.92897-0.0389-0.099-0.0661-0.20228-0.0992-0.30342-0.26008-0.78795 0.85424-1.1558 1.1143-0.36781z" style="paint-order:markers fill stroke"/>
   <path d="m-152.23 147.99c-0.21141 0.0201-0.0296-0.0221-0.26041 0.1739-0.59865 0.5083 8e-3 -0.18737-0.57419 0.71955-0.94034 1.4651 0.0425-0.29113-0.90528 1.4862-0.912 1.7731-1.6236 3.6616-1.9705 5.6316-0.0708 0.40202-0.0996 0.81031-0.14938 1.2155-0.0625 1.4823-0.24401 3.0687 0.25856 4.5042 0.20145 0.57541 0.7893 1.5883 1.076 2.1088 0.63436 0.88424 1.2442 1.796 2.002 2.5829 0.18719 0.19439 0.39788 0.36473 0.5929 0.55126 0.65051 0.62221 0.21736 0.27753 0.83306 0.72579 0.0879 0.0516 0.17588 0.10321 0.26381 0.15483 0.71736 0.45793 0.0698 1.4724-0.6476 1.0145-0.13089-0.0664-0.26177-0.13263-0.39266-0.19895-0.51193-0.48164-1.0182-0.9716-1.5172-1.4666-0.24689-0.2449-0.51066-0.47503-0.73261-0.74272-0.18371-0.22156-1.2903-1.8522-1.421-2.0432-0.23923-0.3851-0.5149-0.74982-0.71768-1.1553-0.97073-1.9411-0.94897-4.0932-0.78189-6.2004 0.22127-1.675 0.55161-3.5197 1.2055-5.0869 0.15965-0.38269 0.377-0.73871 0.56031-1.1107 0.17192-0.34885 0.3369-0.70108 0.50535-1.0516 0.55084-1.1151 1.1969-2.495 2.444-2.965 0.8148-0.2326 1.1438 0.91971 0.32895 1.1523z" style="paint-order:markers fill stroke"/>
   <path d="m-161.06 152.27c1.185 1.6035 1.132 1.8709 1.7908 3.7595 0.13446 0.38542 0.22848 0.78378 0.34271 1.1757 0.29986 1.453 0.73386 2.9896 0.46845 4.4873-0.10638 0.60032-0.52387 1.6945-0.72317 2.2543-0.48406 0.97467-0.9395 1.9726-1.561 2.871-0.15352 0.22192-0.33411 0.42392-0.49663 0.63935-0.5421 0.71864-0.16995 0.30886-0.70564 0.85021-0.0785 0.065-0.15701 0.13013-0.2355 0.19519-0.63447 0.56723 0.16767 1.4645 0.80217 0.89727 0.11853-0.0865 0.23706-0.17297 0.3556-0.25945 0.4279-0.55763 0.84889-1.1226 1.2619-1.6913 0.20434-0.28138 0.4277-0.5509 0.60377-0.85077 0.14571-0.24819 0.97593-2.0354 1.0742-2.245 0.17425-0.41854 0.38774-0.8228 0.52274-1.2556 0.64627-2.0719 0.27904-4.1924-0.22441-6.2455-0.48751-1.6177-1.1099-3.3853-2.0071-4.8272-0.21907-0.35207-0.4546-0.63196-0.69528-0.96963z" style="paint-order:markers fill stroke"/>
   <path d="m-159.89 192.44c-0.12184-0.10068-0.32599-0.26056-0.41355-0.37955-0.4107-0.55803-0.69344-1.3454-1.0179-1.9659-0.0605-0.22842-0.11703-0.45788-0.18144-0.68521-0.19552-0.69005-0.24363-0.70617-0.37259-1.4165-0.12949-0.71324-0.17403-1.4361-0.20447-2.1586 0.0185-0.80085 0.0415-1.6012 0.34417-2.3554 0.14728-0.36697 0.34542-0.71141 0.51851-1.0669 0.41653-0.59545 0.98544-1.0066 1.5714-1.4159 0.74721-0.45283 1.3876 0.6039 0.64041 1.0567-0.49941 0.27143-0.82582 0.508-1.1822 0.96129-0.4899 0.85912-0.72227 1.8032-0.65012 2.797-0.0332 0.99039-0.0423 0.24935 0.0661 1.271 0.0238 0.22422 0.0153 0.45216 0.0541 0.67429 0.0387 0.2219 0.12656 0.43261 0.17752 0.65204 0.0487 0.20984 0.0596 0.42837 0.12128 0.63478 0.0586 0.19618 0.15843 0.37762 0.23764 0.56642 0.0556 0.1827 0.0857 0.37524 0.1669 0.54809 0.072 0.15309 0.20169 0.27246 0.28719 0.41843 0.0731 0.12493 0.11243 0.26792 0.18738 0.39176 0.14118 0.23327 0.36202 0.41859 0.49637 0.65825 0.5756 0.59867-0.27105 1.4127-0.84663 0.814z" style="paint-order:markers fill stroke"/>
   <path d="m-164.2 180.86c0.12184 0.10068 0.32599 0.26056 0.41355 0.37957 0.4107 0.55801 0.69344 1.3454 1.0179 1.9659 0.0605 0.22841 0.11703 0.45788 0.18144 0.68521 0.19552 0.69004 0.24363 0.70617 0.37259 1.4165 0.12949 0.71324 0.17403 1.4361 0.20447 2.1586-0.0185 0.80085-0.0415 1.6012-0.34417 2.3554-0.14728 0.36697-0.34542 0.71141-0.51851 1.0669-0.41653 0.59545-0.98544 1.0066-1.5714 1.4159-0.74721 0.45283-1.3876-0.6039-0.64041-1.0568 0.49941-0.27143 0.82582-0.508 1.1822-0.96128 0.4899-0.85913 0.72227-1.8032 0.65012-2.797 0.0332-0.9904 0.0423-0.24936-0.0661-1.271-0.0238-0.22423-0.0153-0.45217-0.0541-0.6743-0.0387-0.2219-0.12656-0.43261-0.17752-0.65204-0.0487-0.20984-0.0596-0.42837-0.12128-0.63478-0.0586-0.19618-0.15843-0.37762-0.23764-0.56642-0.0556-0.1827-0.0857-0.37524-0.1669-0.54809-0.072-0.15309-0.20169-0.27246-0.28719-0.41843-0.0731-0.12493-0.11243-0.26792-0.18738-0.39176-0.14118-0.23327-0.36202-0.41859-0.49637-0.65825-0.5756-0.59866 0.27105-1.4127 0.84663-0.814z" style="paint-order:markers fill stroke"/>
   <path d="m-153.89 199.4c-0.25393 1.5498-0.42986 3.1152-0.57436 4.6797-0.16924 2.9906-0.52622 5.991-0.43054 8.9913 0.22852 3.1373 0.16112 1.5838 0.20813 4.6601 0.31978 2.4361 0.64147 4.8992 1.3107 7.2703 0.12179 0.43145 0.27381 0.85381 0.41066 1.2807 0.24351 0.77484-0.85226 1.1192-1.0958 0.34439-0.47621-1.5201-0.94429-3.0593-1.2478-4.6255-0.12847-0.66298-0.21593-1.3333-0.30973-2.0021-0.1022-0.72877-0.18547-1.4601-0.27821-2.1902-0.0814-1.5713-0.18362-3.1728-0.18569-4.7468-1e-3 -0.82037 0.0408-1.6402 0.0587-2.4604 0.0174-0.80387 8e-3 -1.6086 0.0471-2.4117 0.0685-1.4109 0.2756-2.8131 0.30102-4.2271 0.17443-1.7024 0.22734-3.527 0.77537-5.1584 0.4211-0.71452 1.4316-0.11899 1.0105 0.59553z" style="paint-order:markers fill stroke"/>
   <path d="m-158.68 226.39c0.25393-1.5497 0.42986-3.1152 0.57436-4.6797 0.16924-2.9906 0.52622-5.991 0.43053-8.9913-0.22851-3.1373-0.16112-1.5838-0.20812-4.6601-0.31979-2.4361-0.64147-4.8992-1.3107-7.2703-0.12179-0.43145-0.27381-0.8538-0.41067-1.2807-0.24351-0.77483 0.85226-1.1192 1.0958-0.34439 0.47622 1.5201 0.9443 3.0593 1.2478 4.6255 0.12847 0.66297 0.21593 1.3333 0.30973 2.0021 0.1022 0.7288 0.18547 1.4601 0.2782 2.1902 0.0814 1.5713 0.18363 3.1728 0.1857 4.7468 1e-3 0.82036-0.0409 1.6402-0.0587 2.4604-0.0174 0.80387-8e-3 1.6086-0.0471 2.4117-0.0685 1.4109-0.27559 2.8131-0.30101 4.2271-0.17443 1.7024-0.22734 3.527-0.77537 5.1584-0.4211 0.71452-1.4316 0.11899-1.0105-0.59554z" style="paint-order:markers fill stroke"/>
   <path d="m-158.75 234.33c-0.0249 0.0737-0.0385 0.15249-0.0748 0.22142-0.0649 0.12314-0.16606 0.22542-0.22669 0.35071-0.0853 0.1764-0.13452 0.36825-0.20897 0.54951-0.31638 0.77019-0.65038 1.5321-0.96047 2.3052-0.15709 0.89411-0.67138 1.6465-1.0134 2.4673-0.27576 0.66167-0.47105 1.3655-0.72999 2.0355-0.0284 0.50422-0.43139 1.1556-0.45059 1.6472-0.0206 0.52719 0.14417 0.0515-0.055 0.49871 0.12326 0.24369 0.0162 0.51922 0.0594 0.77018 0.0766 0.44429 0.11359-0.0245 0.0258 0.48721 0.12509 0.69489 0.24501 1.4424 0.66503 2.0343 0.10051 0.14164 0.23497 0.25581 0.35245 0.38374 0.42206 0.75078 0.98965 1.4014 1.5586 2.0404 0.5191 0.64371 1.4294-0.0904 0.91035-0.7341-0.15514-0.23042-0.46376-0.70616-0.63697-0.89267-0.10056-0.1083-0.24242-0.17268-0.34285-0.28109-0.21091-0.22766-0.32842-0.53119-0.53927-0.75891-0.29058-0.41873-0.48308-0.81586-0.66477-1.2888-0.0317-0.0824-0.0838-0.15839-0.10028-0.24515-0.0177-0.0938-2.6e-4 -0.19102-2.9e-4 -0.28652 0.0615-0.4249-0.0447-0.77633-0.038-1.1965 0.0306-0.60551 0.1643-1.2219 0.37129-1.7888 0.2228-0.66839 0.45318-1.3231 0.75358-1.962 0.12242-0.26035 0.28232-0.50365 0.38553-0.77219 1.0801-2.8103-0.64146 1.0741 0.62466-1.7003 0.27389-0.76076 0.56144-1.5466 0.89384-2.2841 0.41855-0.92873 0.13578-0.11313 0.45686-0.92898 0.0389-0.099 0.0661-0.20227 0.0992-0.30341 0.26008-0.78795-0.85424-1.1558-1.1143-0.36782z" style="paint-order:markers fill stroke"/>
  </g>
  <g fill="#f61c2d" stroke="#fc6671" stroke-width=".588">
   <path d="m-159.85 234.66c0.0249 0.0737 0.0385 0.15249 0.0748 0.2214 0.0649 0.12315 0.16606 0.22543 0.22669 0.35073 0.0853 0.1764 0.13452 0.36824 0.20897 0.54951 0.31638 0.77017 0.65038 1.5321 0.96047 2.3052 0.15709 0.8941 0.67138 1.6465 1.0134 2.4673 0.27576 0.66166 0.47105 1.3655 0.72999 2.0355 0.0284 0.50424 0.43139 1.1556 0.45059 1.6472 0.0206 0.52719-0.14417 0.0515 0.055 0.49872-0.12326 0.24368-0.0162 0.51923-0.0594 0.77019-0.0766 0.44427-0.11359-0.0245-0.0258 0.48719-0.12509 0.69491-0.24501 1.4424-0.66503 2.0343-0.10051 0.14164-0.23497 0.25582-0.35245 0.38376-0.42206 0.75076-0.98965 1.4014-1.5586 2.0404-0.5191 0.64371-1.4294-0.0904-0.91035-0.73409 0.15514-0.23043 0.46376-0.70616 0.63697-0.89268 0.10056-0.10828 0.24242-0.17268 0.34285-0.28109 0.21091-0.22764 0.32842-0.53117 0.53927-0.7589 0.29058-0.41873 0.48308-0.81585 0.66477-1.2888 0.0317-0.0824 0.0838-0.15839 0.10028-0.24515 0.0177-0.0938 2.6e-4 -0.19101 2.9e-4 -0.28651-0.0615-0.4249 0.0447-0.77634 0.038-1.1965-0.0306-0.6055-0.1643-1.2219-0.37129-1.7888-0.2228-0.66838-0.45318-1.3231-0.75358-1.962-0.12242-0.26035-0.28232-0.50365-0.38553-0.77218-1.0801-2.8103 0.64146 1.0741-0.62466-1.7003-0.27389-0.76075-0.56144-1.5466-0.89384-2.2841-0.41855-0.92873-0.13578-0.11314-0.45686-0.92899-0.0389-0.099-0.0661-0.20226-0.0992-0.30341-0.26008-0.78794 0.85424-1.1558 1.1143-0.36782z" style="paint-order:markers fill stroke"/>
   <path d="m-152.77 234.5c-0.0249 0.0737-0.0385 0.15249-0.0748 0.22141-0.0649 0.12316-0.16606 0.22544-0.22669 0.35072-0.0853 0.1764-0.13452 0.36826-0.20897 0.54951-0.31638 0.77018-0.65038 1.5321-0.96047 2.3052-0.15709 0.89409-0.67138 1.6465-1.0134 2.4673-0.27576 0.66165-0.47105 1.3655-0.72999 2.0355-0.0284 0.50423-0.43139 1.1556-0.45059 1.6472-0.0206 0.52719 0.14417 0.0515-0.055 0.49873 0.12326 0.24367 0.0162 0.51921 0.0594 0.77017 0.0766 0.44428 0.11359-0.0245 0.0258 0.48721 0.12509 0.69489 0.24501 1.4424 0.66503 2.0343 0.10051 0.14164 0.23497 0.25583 0.35245 0.38375 0.42206 0.75077 0.98965 1.4014 1.5586 2.0404 0.5191 0.64371 1.4294-0.0904 0.91035-0.73408-0.15514-0.23044-0.46376-0.70616-0.63697-0.89269-0.10056-0.10829-0.24242-0.17268-0.34285-0.28109-0.21091-0.22765-0.32842-0.53118-0.53927-0.75889-0.29058-0.41873-0.48308-0.81587-0.66477-1.2888-0.0317-0.0824-0.0838-0.15839-0.10028-0.24515-0.0177-0.0938-2.6e-4 -0.19101-2.9e-4 -0.2865 0.0615-0.4249-0.0447-0.77635-0.038-1.1966 0.0306-0.60549 0.1643-1.2219 0.37129-1.7888 0.2228-0.66837 0.45318-1.3231 0.75358-1.962 0.12242-0.26035 0.28232-0.50365 0.38553-0.7722 1.0801-2.8103-0.64146 1.0741 0.62466-1.7003 0.27389-0.76077 0.56144-1.5466 0.89384-2.2841 0.41855-0.92873 0.13578-0.11312 0.45686-0.92897 0.0389-0.099 0.0661-0.20228 0.0992-0.30342 0.26008-0.78795-0.85424-1.1558-1.1143-0.36781z" style="paint-order:markers fill stroke"/>
   <path d="m-164.38 147.24c-0.70569 0.0498-0.77917 1.1017 0.01 1.1942 0.21189-0.0141 0.026-0.0266 0.28526 0.1297 0.67254 0.40552-0.0381-0.18356 0.68212 0.61805 1.1635 1.295-0.0888-0.28063 1.1322 1.3214 0.15916 0.21538 1.0613 1.5377 1.2136 1.7584l0.57362-1.2146c-0.20407-0.28836-0.65645-0.97957-0.85862-1.2693-0.72285-1.0121-1.5823-2.2707-2.8887-2.5342-0.0526-6e-3 -0.1023-7e-3 -0.14935-4e-3z" style="paint-order:markers fill stroke"/>
  </g>
  <path d="m-161.05 149.48c0.55084-1.1151 1.0675-2.2362 2.3146-2.7062 0.8148-0.2326 1.1438 0.91971 0.32895 1.1523-0.21141 0.0201-0.0296-0.0221-0.26041 0.1739-0.92595 0.94904-1.3654 2.2204-1.5814 2.6254-0.0995 0.1935-0.70718-1.4416-0.80172-1.2454" fill="#51df3b" stroke="#33d917" stroke-width=".588" style="paint-order:markers fill stroke"/>
  <path d="m-165.44 159.53c-6.7032 1.6064-12.531 3.307-19.196 5.0732-2.3529 0.4783-4.709 0.94128-7.0587 1.4349-2.4767 0.52029-4.9409 1.0999-7.4204 1.6068-8.3574 1.7086-16.768 3.1708-25.176 4.6042-5.6943 1.1743-1.4277 1.5276-6.337 2.2042 0 0-2.5347-2.6655 5.9791-4.2397 6.989-1.301 3.3268-0.64437 10.989-1.9556 9.5361-1.7305 19.036-3.6796 28.472-5.8931 2.0592-0.45966 4.1303-0.86938 6.1777-1.379 1.7033-0.42391 3.3744-0.969 5.0705-1.4207 1.2948-0.34451 2.6073-0.62054 3.9013-0.96823 1.6183-0.43522 1.5343-0.69542 3.1886-0.99643 1.4204-0.38018 0.8713-0.0793 1.409 1.9295z" fill="none" stroke="#00887a" stroke-dasharray="0.58800003, 3.52800012" stroke-width=".588" style="paint-order:markers fill stroke"/>
 </g>
</svg>
