<?xml version="1.0" encoding="UTF-8" standalone="no"?>
<!-- Created with Inkscape (http://www.inkscape.org/) -->

<svg
   xmlns:dc="http://purl.org/dc/elements/1.1/"
   xmlns:cc="http://creativecommons.org/ns#"
   xmlns:rdf="http://www.w3.org/1999/02/22-rdf-syntax-ns#"
   xmlns:svg="http://www.w3.org/2000/svg"
   xmlns="http://www.w3.org/2000/svg"
   xmlns:sodipodi="http://sodipodi.sourceforge.net/DTD/sodipodi-0.dtd"
   xmlns:inkscape="http://www.inkscape.org/namespaces/inkscape"
   width="150.588mm"
   height="150.588mm"
   viewBox="0 0 150.588 150.588"
   version="1.1"
   id="svg1861"
   inkscape:version="0.92.3 (2405546, 2018-03-11)"
   sodipodi:docname="meiozis.svg">
  <defs
     id="defs1855" />
  <sodipodi:namedview
     id="base"
     pagecolor="#ffffff"
     bordercolor="#666666"
     borderopacity="1.0"
     inkscape:pageopacity="0.0"
     inkscape:pageshadow="2"
     inkscape:zoom="1.0074671"
     inkscape:cx="208.34343"
     inkscape:cy="291.14486"
     inkscape:document-units="mm"
     inkscape:current-layer="layer1"
     showgrid="false"
     inkscape:window-width="1366"
     inkscape:window-height="719"
     inkscape:window-x="0"
     inkscape:window-y="25"
     inkscape:window-maximized="1" />
  <metadata
     id="metadata1858">
    <rdf:RDF>
      <cc:Work
         rdf:about="">
        <dc:format>image/svg+xml</dc:format>
        <dc:type
           rdf:resource="http://purl.org/dc/dcmitype/StillImage" />
        <dc:title />
      </cc:Work>
    </rdf:RDF>
  </metadata>
  <g
     inkscape:label="Layer 1"
     inkscape:groupmode="layer"
     id="layer1"
     transform="translate(233.34446,-122.45531)">
    <path
       style="opacity:1;fill:none;fill-opacity:1;fill-rule:nonzero;stroke:#00887a;stroke-width:0.5879972;stroke-linecap:square;stroke-miterlimit:4;stroke-dasharray:0.58799718, 3.52798311000000009;stroke-dashoffset:0;stroke-opacity:1;paint-order:markers fill stroke"
       id="path2692"
       d="m -155.22916,242.57955 c 6.37127,-2.63034 12.60853,-5.57543 18.91675,-8.35763 2.2497,-0.83874 4.5049,-1.66285 6.74906,-2.51624 2.36549,-0.89949 4.70932,-1.85564 7.07961,-2.74236 7.98929,-2.9888 16.06925,-5.74237 24.151436,-8.46724 5.441907,-2.04644 1.938723,-0.83692 6.682749,-2.26955 1.363984,-0.41191 2.705977,-0.88548 4.082506,-1.25354 1.424851,-0.42936 2.032041,1.58578 0.607189,2.01514 v 0 c -1.184655,0.24224 -0.477473,0.0714 -2.028937,0.56089 -2.907252,0.9181 -5.811539,1.84734 -8.673107,2.90207 -6.701066,2.37313 -3.185806,1.15439 -10.550516,3.64246 -9.15022,3.1939 -18.23114,6.59813 -27.20685,10.25361 -1.96253,0.77461 -3.94448,1.50174 -5.88757,2.32387 -1.61649,0.6839 -3.18228,1.48249 -4.78739,2.19274 -1.22538,0.54188 -2.47887,1.01886 -3.70292,1.56376 -1.53078,0.68183 -3.00113,1.49772 -4.58827,2.05258 -1.34385,0.59665 -2.18761,-1.30395 -0.84376,-1.9006 z"
       inkscape:connector-curvature="0" />
    <path
       style="opacity:1;fill:none;fill-opacity:1;fill-rule:nonzero;stroke:#00887a;stroke-width:0.588;stroke-linecap:square;stroke-miterlimit:4;stroke-dasharray:0.58800001, 3.52800003999999978;stroke-dashoffset:0;stroke-opacity:1;paint-order:markers fill stroke"
       id="path2692-8"
       d="m -153.55606,213.17086 c 6.85523,-0.72094 13.74249,-1.1013 20.61457,-1.65869 2.37772,-0.33372 4.7533,-0.68295 7.13313,-1.00117 2.50846,-0.33543 5.02485,-0.61076 7.53147,-0.95972 8.44875,-1.17621 16.86525,-2.60244 25.270023,-4.05497 5.759933,-0.79184 2.103378,-0.18726 6.957344,-1.18651 0.02773,-2.92989 -2.221919,-1.59204 -7.298709,-0.85183 -7.022758,1.10415 -3.351203,0.50192 -11.012318,1.82103 -9.5673,1.54868 -19.17383,2.87939 -28.80748,3.93909 -2.09464,0.25337 -4.18375,0.55775 -6.28394,0.76009 -1.74716,0.16837 -3.50434,0.21174 -5.25403,0.35152 -1.3356,0.10702 -2.665,0.28447 -4.00087,0.3882 -1.6708,0.12937 -3.35229,0.11209 -5.01219,0.37996 -1.46585,0.11525 -1.30285,2.1883 0.163,2.07304 z"
       inkscape:connector-curvature="0"
       sodipodi:nodetypes="ccccccccccccccc" />
    <path
       style="opacity:1;fill:none;fill-opacity:1;fill-rule:nonzero;stroke:#00887a;stroke-width:0.588;stroke-linecap:square;stroke-miterlimit:4;stroke-dasharray:0.58800001, 3.52800004;stroke-dashoffset:0;stroke-opacity:1;paint-order:markers fill stroke"
       id="path2692-1"
       d="m -138.4087,163.03265 c 2.33942,0.54038 4.68241,1.06553 7.01824,1.62114 2.4621,0.58563 4.91006,1.23023 7.37528,1.80256 8.30925,1.92913 16.67795,3.61327 25.04513,5.26866 5.661218,1.32456 2.03082,0.57884 6.92054,1.38513 1.405871,0.23182 2.797923,0.52763 4.21056,0.71435 1.468488,0.24125 1.809679,-1.83551 0.341186,-2.07676 v 0 c -1.206079,-0.0868 -0.482714,-0.009 -2.084538,-0.29345 -3.001733,-0.53392 -6.001973,-1.07927 -8.976098,-1.75458 -6.9521,-1.48545 -3.30854,-0.73216 -10.93362,-2.24565 -9.48699,-1.98217 -18.93249,-4.18189 -28.3062,-6.64434 -2.04635,-0.51397 -4.10582,-0.97834 -6.13906,-1.54195 -1.69148,-0.46882 -3.34753,-1.05794 -5.03113,-1.55436 -1.28527,-0.37864 -2.58999,-0.6893 -3.87433,-1.07111 -10.54445,0.64538 10.31725,5.17794 14.43404,6.39036 z"
       inkscape:connector-curvature="0"
       sodipodi:nodetypes="ccccsccccccccccc" />
    <path
       style="opacity:1;fill:none;fill-opacity:1;fill-rule:nonzero;stroke:#00887a;stroke-width:0.588;stroke-linecap:square;stroke-miterlimit:4;stroke-dasharray:0.58800001, 3.52800003999999978;stroke-dashoffset:0;stroke-opacity:1;paint-order:markers fill stroke"
       id="path2692-4"
       d="m -212.67731,203.10874 c 2.37088,0.37927 4.73933,0.77399 7.11262,1.13779 2.50157,0.38348 5.01221,0.70701 7.51168,1.10398 8.42465,1.33803 16.81224,2.9254 25.18762,4.53885 5.74369,0.90215 2.09939,0.22756 6.9333,1.31972 1.38983,0.31402 2.79092,0.56354 4.17004,0.92189 1.45139,0.32883 0.98637,2.38141 -0.46503,2.05258 v 0 c -1.15015,-0.37326 -0.45047,-0.17368 -2.04183,-0.51219 -2.98212,-0.63438 -5.96715,-1.2576 -8.97688,-1.75058 -7.00029,-1.23863 -3.34096,-0.5661 -10.97536,-2.03189 -9.53585,-1.73188 -19.1151,-3.24658 -28.72665,-4.49083 -2.0894,-0.2935 -4.17229,-0.63789 -6.26821,-0.88047 -1.74361,-0.20184 -3.49963,-0.2789 -5.24632,-0.45221 -9.56724,-3.56754 2.13472,-1.91732 11.78502,-0.95664 z"
       inkscape:connector-curvature="0"
       sodipodi:nodetypes="ccccccccccccccc" />
    <path
       style="opacity:1;fill:none;fill-opacity:1;fill-rule:nonzero;stroke:#00887a;stroke-width:0.588;stroke-linecap:square;stroke-miterlimit:4;stroke-dasharray:0.58800001, 3.52800003999999978;stroke-dashoffset:0;stroke-opacity:1;paint-order:markers fill stroke"
       id="path2692-7"
       d="m -161.26833,241.90375 c -6.34931,-2.6833 -12.562,-5.68021 -18.84699,-8.51483 -2.2427,-0.85745 -4.49102,-1.70031 -6.72807,-2.57235 -2.35797,-0.91917 -4.69381,-1.89479 -7.0567,-2.80122 -7.96435,-3.05522 -16.02133,-5.876 -24.08075,-8.66805 -5.42482,-2.09169 -1.93174,-0.85304 -6.6638,-2.32513 -1.36054,-0.42325 -2.69858,-0.90798 -4.07204,-1.2875 -1.42126,-0.44122 -2.04525,1.56877 -0.62399,2.00998 v 0 c 1.18265,0.25203 0.47691,0.0752 2.02426,0.57776 2.89959,0.94228 5.79612,1.89567 8.64889,2.9742 6.68124,2.42884 3.17616,1.18088 10.52012,3.73019 9.12354,3.26998 18.17604,6.74972 27.12123,10.47979 1.95605,0.79093 3.93193,1.53454 5.86816,2.37282 1.6108,0.69734 3.16992,1.50893 4.76909,2.23251 1.22087,0.55207 2.47036,1.03947 3.68987,1.59453 1.52509,0.69456 2.98863,1.52266 4.57114,2.09071 1.33887,0.60783 2.19847,-1.28562 0.85961,-1.89345 z"
       inkscape:connector-curvature="0" />
    <path
       style="opacity:1;fill:none;fill-opacity:1;fill-rule:nonzero;stroke:#00887a;stroke-width:0.588;stroke-linecap:square;stroke-miterlimit:4;stroke-dasharray:0.58800002, 3.52800007999999998;stroke-dashoffset:0;stroke-opacity:1;paint-order:markers fill stroke"
       id="path2692-4-0"
       d="m -211.79285,189.11131 c 2.39656,-0.14632 4.79221,-0.30826 7.18966,-0.43896 2.52704,-0.13777 5.05725,-0.215 7.58351,-0.36641 8.51498,-0.51033 17.01737,-1.27244 25.51013,-2.06169 5.80429,-0.3379 2.11159,-0.0218 7.02895,-0.6375 2.88359,-0.35751 2.88359,-0.35751 3.97734,-2.5991 -1.74643,0.32546 -0.62297,0.1482 -2.08204,0.31069 -3.02976,0.34063 -6.06133,0.66987 -9.10478,0.86709 -7.0877,0.55027 -3.38024,0.23769 -11.12117,0.95222 -9.65927,0.79398 -19.34055,1.36758 -29.02762,1.66888 -2.10806,0.0884 -4.2146,0.22809 -6.32419,0.26518 -1.75498,0.0309 -3.51015,-0.0636 -5.26541,-0.0614 -12.70301,2.17323 1.93763,2.1163 11.63562,2.101 z"
       inkscape:connector-curvature="0"
       sodipodi:nodetypes="ccccccccccccc" />
    <path
       style="opacity:1;fill:none;fill-opacity:1;fill-rule:nonzero;stroke:#00887a;stroke-width:0.588;stroke-linecap:square;stroke-miterlimit:4;stroke-dasharray:0.58800002, 3.52800008;stroke-dashoffset:0;stroke-opacity:1;paint-order:markers fill stroke"
       id="path2692-7-6"
       d="m -163.64616,158.45304 c -6.70323,1.60642 -13.32308,3.5446 -19.98766,5.31083 -2.3529,0.4783 -4.70896,0.94128 -7.05868,1.4349 -2.47673,0.52029 -4.94088,1.09989 -7.42038,1.60681 -8.35738,1.70862 -16.76772,3.17078 -25.17576,4.60421 -5.69427,1.17433 -2.04542,0.52491 -6.95476,1.20155 0,0 -1.91694,-1.66284 6.59684,-3.23704 6.98897,-1.301 3.32675,-0.64437 10.98922,-1.9556 9.5361,-1.73049 19.03649,-3.67955 28.47206,-5.89314 2.05923,-0.45966 4.13026,-0.86938 6.1777,-1.379 1.7033,-0.42391 3.37435,-0.969 5.07049,-1.42071 1.29484,-0.34451 2.60732,-0.62054 3.90131,-0.96823 1.6183,-0.43522 3.19777,-1.01226 4.85198,-1.31327 1.42038,-0.38018 1.95804,1.62855 0.53766,2.00873 z"
       inkscape:connector-curvature="0"
       sodipodi:nodetypes="cccsccccccccccc" />
    <path
       style="opacity:1;fill:#f61c2d;fill-opacity:1;fill-rule:nonzero;stroke:#fc6671;stroke-width:0.588;stroke-linecap:square;stroke-miterlimit:4;stroke-dasharray:none;stroke-dashoffset:0;stroke-opacity:1;paint-order:markers fill stroke"
       id="path2541"
       d="m -158.63263,197.36221 c -0.25393,1.54975 -0.42986,3.1152 -0.57436,4.6797 -0.16924,2.99056 -0.52622,5.99099 -0.43054,8.99129 0.22852,3.13731 0.16112,1.58385 0.20813,4.66015 0.31978,2.43611 0.64147,4.89915 1.31068,7.27033 0.12179,0.43145 0.27381,0.8538 0.41066,1.28072 0.24351,0.77484 -0.85226,1.11922 -1.09578,0.34439 v 0 c -0.47621,-1.52014 -0.94429,-3.05931 -1.24779,-4.62549 -0.12847,-0.66297 -0.21593,-1.33333 -0.30973,-2.00209 -0.1022,-0.72878 -0.18547,-1.4601 -0.27821,-2.19015 -0.0814,-1.57129 -0.18362,-3.17277 -0.18569,-4.7468 -0.001,-0.82036 0.0408,-1.64021 0.0587,-2.46038 0.0174,-0.80387 0.008,-1.6086 0.0471,-2.41171 0.0685,-1.41094 0.2756,-2.81307 0.30102,-4.22709 0.17443,-1.7024 0.22734,-3.52697 0.77537,-5.1584 0.4211,-0.71452 1.43159,-0.11899 1.01049,0.59553 z"
       inkscape:connector-curvature="0" />
    <path
       style="opacity:1;fill:#f61c2d;fill-opacity:1;fill-rule:nonzero;stroke:#fc6671;stroke-width:0.588;stroke-linecap:square;stroke-miterlimit:4;stroke-dasharray:none;stroke-dashoffset:0;stroke-opacity:1;paint-order:markers fill stroke"
       id="path2545-6"
       d="m -158.9734,148.44344 c -0.912,1.7731 -1.62361,3.66164 -1.97046,5.63157 -0.0708,0.40202 -0.0996,0.81031 -0.14938,1.21547 -0.0625,1.48232 -0.24401,3.06868 0.25856,4.50423 0.20145,0.57542 0.7893,1.58829 1.07595,2.10879 0.63436,0.88424 1.24421,1.796 2.00197,2.58293 0.18719,0.19439 0.39788,0.36473 0.5929,0.55126 0.65051,0.62221 0.21736,0.27754 0.83306,0.7258 0.0879,0.0516 0.17588,0.10321 0.26381,0.15482 0.71736,0.45793 0.0698,1.47241 -0.6476,1.01449 v 0 c -0.13089,-0.0664 -0.26177,-0.13263 -0.39266,-0.19895 -0.51193,-0.48164 -1.01822,-0.9716 -1.51719,-1.4666 -0.24689,-0.2449 -0.51066,-0.47502 -0.73261,-0.74272 -0.18371,-0.22156 -1.29028,-1.85216 -1.42095,-2.04324 -0.23923,-0.3851 -0.5149,-0.74982 -0.71768,-1.15531 -0.97073,-1.94114 -0.94897,-4.09316 -0.78189,-6.20039 0.22127,-1.67504 0.55161,-3.51966 1.20546,-5.0869 0.15965,-0.38269 0.377,-0.73871 0.56031,-1.11066 0.17192,-0.34885 0.3369,-0.70108 0.50535,-1.05163 0.45854,0.19374 1.04853,0.53797 1.03305,0.56704 z"
       inkscape:connector-curvature="0"
       sodipodi:nodetypes="ccccccccccccccccccccc" />
    <path
       style="opacity:1;fill:#f61c2d;fill-opacity:1;fill-rule:nonzero;stroke:#fc6671;stroke-width:0.588;stroke-linecap:square;stroke-miterlimit:4;stroke-dasharray:none;stroke-dashoffset:0;stroke-opacity:1;paint-order:markers fill stroke"
       id="path2545-1"
       d="m -169.21676,146.79222 c 0.21189,-0.0141 0.0257,-0.0265 0.28496,0.12981 0.67254,0.40552 -0.0379,-0.18366 0.68234,0.61795 1.1635,1.29497 -0.0887,-0.28053 1.1323,1.32147 1.18501,1.60354 2.19079,3.35323 2.84962,5.24185 0.13446,0.38542 0.22848,0.78378 0.34271,1.17568 0.29986,1.45302 0.73386,2.98961 0.46845,4.48725 -0.10638,0.60032 -0.52387,1.69447 -0.72317,2.25427 -0.48406,0.97466 -0.9395,1.97256 -1.56099,2.87101 -0.15352,0.22193 -0.33411,0.42392 -0.49663,0.63935 -0.5421,0.71864 -0.16995,0.30886 -0.70564,0.85021 -0.0785,0.065 -0.15701,0.13013 -0.2355,0.19519 -0.63447,0.56723 0.16767,1.4645 0.80217,0.89727 v 0 c 0.11853,-0.0865 0.23706,-0.17297 0.3556,-0.25945 0.4279,-0.55763 0.84889,-1.12257 1.26186,-1.6913 0.20434,-0.28138 0.4277,-0.55089 0.60377,-0.85077 0.14571,-0.24819 0.97593,-2.0354 1.07421,-2.24499 0.17425,-0.41853 0.38774,-0.8228 0.52274,-1.2556 0.64627,-2.07189 0.27904,-4.19245 -0.22441,-6.24547 -0.48751,-1.61772 -1.10991,-3.38531 -2.00706,-4.82715 -0.21907,-0.35207 -0.49078,-0.66854 -0.73146,-1.00621 -0.22574,-0.3167 -0.44517,-0.63785 -0.66774,-0.95678 -0.72285,-1.01214 -1.58219,-2.27026 -2.88858,-2.53379 -0.84159,-0.0987 -0.98114,1.09152 -0.13955,1.1902 z"
       inkscape:connector-curvature="0" />
    <path
       style="opacity:1;fill:#f61c2d;fill-opacity:1;fill-rule:nonzero;stroke:#fc6671;stroke-width:0.588;stroke-linecap:square;stroke-miterlimit:4;stroke-dasharray:none;stroke-dashoffset:0;stroke-opacity:1;paint-order:markers fill stroke"
       id="path2614-2"
       d="m -154.39637,190.46989 c -0.12184,-0.10068 -0.32599,-0.26056 -0.41355,-0.37956 -0.4107,-0.55802 -0.69344,-1.34538 -1.01791,-1.96591 -0.0605,-0.22841 -0.11703,-0.45788 -0.18144,-0.68521 -0.19552,-0.69004 -0.24363,-0.70617 -0.37259,-1.4165 -0.12949,-0.71324 -0.17403,-1.43609 -0.20447,-2.15859 0.0185,-0.80085 0.0415,-1.60121 0.34417,-2.35539 0.14728,-0.36697 0.34542,-0.71141 0.51851,-1.06694 0.41653,-0.59545 0.98544,-1.0066 1.57142,-1.41593 0.74721,-0.45284 1.38764,0.60389 0.64041,1.05674 v 0 c -0.49941,0.27143 -0.82582,0.508 -1.18225,0.96129 -0.4899,0.85912 -0.72227,1.80321 -0.65012,2.797 -0.0332,0.9904 -0.0423,0.24936 0.0661,1.27095 0.0238,0.22423 0.0153,0.45217 0.0541,0.6743 0.0387,0.2219 0.12656,0.43261 0.17752,0.65204 0.0487,0.20984 0.0596,0.42837 0.12128,0.63478 0.0586,0.19618 0.15843,0.37762 0.23764,0.56642 0.0556,0.1827 0.0857,0.37524 0.1669,0.54809 0.072,0.15309 0.20169,0.27246 0.28719,0.41843 0.0731,0.12493 0.11243,0.26792 0.18738,0.39176 0.14118,0.23327 0.36202,0.41859 0.49637,0.65825 0.5756,0.59866 -0.27105,1.41266 -0.84663,0.814 z"
       inkscape:connector-curvature="0" />
    <path
       style="opacity:1;fill:#f61c2d;fill-opacity:1;fill-rule:nonzero;stroke:#fc6671;stroke-width:0.588;stroke-linecap:square;stroke-miterlimit:4;stroke-dasharray:none;stroke-dashoffset:0;stroke-opacity:1;paint-order:markers fill stroke"
       id="path2614-9"
       d="m -158.70695,178.88783 c 0.12184,0.10068 0.32599,0.26056 0.41355,0.37956 0.4107,0.55802 0.69344,1.34538 1.01791,1.96591 0.0605,0.22841 0.11703,0.45788 0.18144,0.68521 0.19552,0.69004 0.24363,0.70617 0.37259,1.4165 0.12949,0.71324 0.17403,1.43609 0.20447,2.15859 -0.0185,0.80085 -0.0415,1.60121 -0.34417,2.35539 -0.14728,0.36697 -0.34542,0.71141 -0.51851,1.06694 -0.41653,0.59545 -0.98544,1.0066 -1.57142,1.41593 -0.74721,0.45284 -1.38764,-0.60389 -0.64041,-1.05674 v 0 c 0.49941,-0.27143 0.82582,-0.508 1.18225,-0.96129 0.4899,-0.85912 0.72227,-1.80321 0.65012,-2.797 0.0332,-0.9904 0.0423,-0.24936 -0.0661,-1.27095 -0.0238,-0.22423 -0.0153,-0.45217 -0.0541,-0.6743 -0.0387,-0.2219 -0.12656,-0.43261 -0.17752,-0.65204 -0.0487,-0.20984 -0.0596,-0.42837 -0.12128,-0.63478 -0.0586,-0.19618 -0.15843,-0.37762 -0.23764,-0.56642 -0.0556,-0.1827 -0.0857,-0.37524 -0.1669,-0.54809 -0.072,-0.15309 -0.20169,-0.27246 -0.28719,-0.41843 -0.0731,-0.12493 -0.11243,-0.26792 -0.18738,-0.39176 -0.14118,-0.23327 -0.36202,-0.41859 -0.49637,-0.65825 -0.5756,-0.59866 0.27105,-1.41266 0.84663,-0.814 z"
       inkscape:connector-curvature="0" />
    <path
       style="opacity:1;fill:#f61c2d;fill-opacity:1;fill-rule:nonzero;stroke:#fc6671;stroke-width:0.588;stroke-linecap:square;stroke-miterlimit:4;stroke-dasharray:none;stroke-dashoffset:0;stroke-opacity:1;paint-order:markers fill stroke"
       id="path2541-3"
       d="m -163.42418,224.35338 c 0.25393,-1.54974 0.42986,-3.11519 0.57436,-4.6797 0.16924,-2.99055 0.52622,-5.99098 0.43053,-8.99129 -0.22851,-3.13731 -0.16112,-1.58384 -0.20812,-4.66014 -0.31979,-2.43612 -0.64147,-4.89916 -1.31068,-7.27034 -0.12179,-0.43145 -0.27381,-0.8538 -0.41067,-1.28072 -0.24351,-0.77484 0.85226,-1.11921 1.09578,-0.34439 v 0 c 0.47622,1.52014 0.9443,3.05931 1.2478,4.62549 0.12847,0.66297 0.21593,1.33333 0.30973,2.00209 0.1022,0.72879 0.18547,1.46011 0.2782,2.19016 0.0814,1.57128 0.18363,3.17277 0.1857,4.74679 0.001,0.82036 -0.0409,1.64022 -0.0587,2.46038 -0.0174,0.80387 -0.008,1.6086 -0.0471,2.41171 -0.0685,1.41094 -0.27559,2.81307 -0.30101,4.2271 -0.17443,1.70239 -0.22734,3.52696 -0.77537,5.15839 -0.4211,0.71453 -1.43159,0.119 -1.01049,-0.59553 z"
       inkscape:connector-curvature="0" />
    <path
       style="opacity:1;fill:#51df3b;fill-opacity:1;fill-rule:nonzero;stroke:#33d917;stroke-width:0.588;stroke-linecap:square;stroke-miterlimit:4;stroke-dasharray:none;stroke-dashoffset:0;stroke-opacity:1;paint-order:markers fill stroke"
       id="path2673"
       d="m -164.56066,232.49295 c 0.0249,0.0737 0.0385,0.15249 0.0748,0.22141 0.0649,0.12315 0.16606,0.22543 0.22669,0.35072 0.0853,0.1764 0.13452,0.36825 0.20897,0.54951 0.31638,0.77018 0.65038,1.53209 0.96047,2.30522 0.15709,0.8941 0.67138,1.64651 1.01345,2.46728 0.27576,0.66166 0.47105,1.36553 0.72999,2.03548 0.0284,0.50423 0.43139,1.15564 0.45059,1.64724 0.0206,0.52719 -0.14417,0.0515 0.055,0.49872 -0.12326,0.24368 -0.0162,0.51922 -0.0594,0.77018 -0.0766,0.44428 -0.11359,-0.0245 -0.0258,0.4872 -0.12509,0.6949 -0.24501,1.44243 -0.66503,2.03431 -0.10051,0.14164 -0.23497,0.25582 -0.35245,0.38375 -0.42206,0.75077 -0.98965,1.40144 -1.55861,2.0404 -0.5191,0.64371 -1.42944,-0.0904 -0.91035,-0.73409 v 0 c 0.15514,-0.23043 0.46376,-0.70616 0.63697,-0.89268 0.10056,-0.10829 0.24242,-0.17268 0.34285,-0.28109 0.21091,-0.22765 0.32842,-0.53118 0.53927,-0.7589 0.29058,-0.41873 0.48308,-0.81586 0.66477,-1.28879 0.0317,-0.0824 0.0838,-0.15839 0.10028,-0.24515 0.0177,-0.0938 2.6e-4,-0.19101 2.9e-4,-0.28651 -0.0615,-0.4249 0.0447,-0.77634 0.038,-1.19654 -0.0306,-0.6055 -0.1643,-1.22191 -0.37129,-1.78883 -0.2228,-0.66838 -0.45318,-1.32311 -0.75358,-1.962 -0.12242,-0.26035 -0.28232,-0.50365 -0.38553,-0.77219 -1.08012,-2.81027 0.64146,1.07408 -0.62466,-1.70033 -0.27389,-0.76076 -0.56144,-1.54657 -0.89384,-2.28412 -0.41855,-0.92873 -0.13578,-0.11313 -0.45686,-0.92898 -0.0389,-0.099 -0.0661,-0.20227 -0.0992,-0.30341 -0.26008,-0.78795 0.85424,-1.15576 1.11432,-0.36782 z"
       inkscape:connector-curvature="0" />
    <path
       style="opacity:1;fill:#51df3b;fill-opacity:1;fill-rule:nonzero;stroke:#33d917;stroke-width:0.588;stroke-linecap:square;stroke-miterlimit:4;stroke-dasharray:none;stroke-dashoffset:0;stroke-opacity:1;paint-order:markers fill stroke"
       id="path2545-6-4"
       d="m -150.96697,145.98592 c -0.21141,0.0201 -0.0296,-0.0221 -0.26041,0.1739 -0.59865,0.5083 0.008,-0.18737 -0.57419,0.71955 -0.94034,1.46508 0.0425,-0.29113 -0.90528,1.48622 -0.912,1.7731 -1.62361,3.66164 -1.97046,5.63157 -0.0708,0.40202 -0.0996,0.81031 -0.14938,1.21546 -0.0625,1.48232 -0.24401,3.06869 0.25856,4.50424 0.20145,0.57541 0.7893,1.58829 1.07595,2.10879 0.63436,0.88424 1.24421,1.796 2.00197,2.58293 0.18719,0.19439 0.39788,0.36473 0.5929,0.55126 0.65051,0.62221 0.21736,0.27753 0.83306,0.72579 0.0879,0.0516 0.17588,0.10321 0.26381,0.15483 0.71736,0.45793 0.0698,1.47241 -0.6476,1.01449 v 0 c -0.13089,-0.0664 -0.26177,-0.13263 -0.39266,-0.19895 -0.51193,-0.48164 -1.01822,-0.9716 -1.51719,-1.4666 -0.24689,-0.2449 -0.51066,-0.47503 -0.73261,-0.74272 -0.18371,-0.22156 -1.29028,-1.85216 -1.42095,-2.04324 -0.23923,-0.3851 -0.5149,-0.74982 -0.71768,-1.15531 -0.97073,-1.94114 -0.94897,-4.09316 -0.78189,-6.20039 0.22127,-1.67504 0.55161,-3.51966 1.20546,-5.0869 0.15965,-0.38269 0.377,-0.73871 0.56031,-1.11066 0.17192,-0.34885 0.3369,-0.70108 0.50535,-1.05163 0.55084,-1.11512 1.19689,-2.49496 2.44398,-2.96495 0.8148,-0.2326 1.14375,0.91971 0.32895,1.15232 z"
       inkscape:connector-curvature="0" />
    <path
       style="opacity:1;fill:#51df3b;fill-opacity:1;fill-rule:nonzero;stroke:#33d917;stroke-width:0.588;stroke-linecap:square;stroke-miterlimit:4;stroke-dasharray:none;stroke-dashoffset:0;stroke-opacity:1;paint-order:markers fill stroke"
       id="path2545-1-5"
       d="m -159.79178,150.26596 c 1.18501,1.60354 1.13196,1.87087 1.79079,3.75949 0.13446,0.38542 0.22848,0.78378 0.34271,1.17567 0.29986,1.45303 0.73386,2.98962 0.46845,4.48726 -0.10638,0.60032 -0.52387,1.69447 -0.72317,2.25426 -0.48406,0.97467 -0.9395,1.97256 -1.56099,2.87102 -0.15352,0.22192 -0.33411,0.42392 -0.49663,0.63935 -0.5421,0.71864 -0.16995,0.30886 -0.70564,0.85021 -0.0785,0.065 -0.15701,0.13013 -0.2355,0.19519 -0.63447,0.56723 0.16767,1.4645 0.80217,0.89727 v 0 c 0.11853,-0.0865 0.23706,-0.17297 0.3556,-0.25945 0.4279,-0.55763 0.84889,-1.12257 1.26186,-1.6913 0.20434,-0.28138 0.4277,-0.5509 0.60377,-0.85077 0.14571,-0.24819 0.97593,-2.0354 1.07421,-2.24499 0.17425,-0.41854 0.38774,-0.8228 0.52274,-1.2556 0.64627,-2.07189 0.27904,-4.19245 -0.22441,-6.24547 -0.48751,-1.61772 -1.10991,-3.38531 -2.00706,-4.82715 -0.21907,-0.35207 -0.4546,-0.63196 -0.69528,-0.96963 z"
       inkscape:connector-curvature="0"
       sodipodi:nodetypes="cccccccccccccccscccc" />
    <path
       style="opacity:1;fill:#51df3b;fill-opacity:1;fill-rule:nonzero;stroke:#33d917;stroke-width:0.588;stroke-linecap:square;stroke-miterlimit:4;stroke-dasharray:none;stroke-dashoffset:0;stroke-opacity:1;paint-order:markers fill stroke"
       id="path2614-2-6"
       d="m -159.47639,190.22553 c -0.12184,-0.10068 -0.32599,-0.26056 -0.41355,-0.37956 -0.4107,-0.55802 -0.69344,-1.34538 -1.01791,-1.96591 -0.0605,-0.22841 -0.11703,-0.45788 -0.18144,-0.68521 -0.19552,-0.69004 -0.24363,-0.70617 -0.37259,-1.4165 -0.12949,-0.71324 -0.17403,-1.43609 -0.20447,-2.15859 0.0185,-0.80085 0.0415,-1.60121 0.34417,-2.35539 0.14728,-0.36697 0.34542,-0.71141 0.51851,-1.06694 0.41653,-0.59545 0.98544,-1.0066 1.57142,-1.41593 0.74721,-0.45284 1.38764,0.60389 0.64041,1.05674 v 0 c -0.49941,0.27143 -0.82582,0.508 -1.18225,0.96129 -0.4899,0.85912 -0.72227,1.80321 -0.65012,2.797 -0.0332,0.9904 -0.0423,0.24936 0.0661,1.27095 0.0238,0.22423 0.0153,0.45217 0.0541,0.6743 0.0387,0.2219 0.12656,0.43261 0.17752,0.65204 0.0487,0.20984 0.0596,0.42837 0.12128,0.63478 0.0586,0.19618 0.15843,0.37762 0.23764,0.56642 0.0556,0.1827 0.0857,0.37524 0.1669,0.54809 0.072,0.15309 0.20169,0.27246 0.28719,0.41843 0.0731,0.12493 0.11243,0.26792 0.18738,0.39176 0.14118,0.23327 0.36202,0.41859 0.49637,0.65825 0.5756,0.59866 -0.27105,1.41266 -0.84663,0.814 z"
       inkscape:connector-curvature="0" />
    <path
       style="opacity:1;fill:#51df3b;fill-opacity:1;fill-rule:nonzero;stroke:#33d917;stroke-width:0.588;stroke-linecap:square;stroke-miterlimit:4;stroke-dasharray:none;stroke-dashoffset:0;stroke-opacity:1;paint-order:markers fill stroke"
       id="path2614-9-1"
       d="m -163.78697,178.64347 c 0.12184,0.10068 0.32599,0.26056 0.41355,0.37956 0.4107,0.55802 0.69344,1.34538 1.01791,1.96591 0.0605,0.22841 0.11703,0.45788 0.18144,0.68521 0.19552,0.69004 0.24363,0.70617 0.37259,1.4165 0.12949,0.71324 0.17403,1.43609 0.20447,2.15859 -0.0185,0.80085 -0.0415,1.60121 -0.34417,2.35539 -0.14728,0.36697 -0.34542,0.71141 -0.51851,1.06694 -0.41653,0.59545 -0.98544,1.0066 -1.57142,1.41593 -0.74721,0.45284 -1.38764,-0.60389 -0.64041,-1.05674 v 0 c 0.49941,-0.27143 0.82582,-0.508 1.18225,-0.96129 0.4899,-0.85912 0.72227,-1.80321 0.65012,-2.797 0.0332,-0.9904 0.0423,-0.24936 -0.0661,-1.27095 -0.0238,-0.22423 -0.0153,-0.45217 -0.0541,-0.6743 -0.0387,-0.2219 -0.12656,-0.43261 -0.17752,-0.65204 -0.0487,-0.20984 -0.0596,-0.42837 -0.12128,-0.63478 -0.0586,-0.19618 -0.15843,-0.37762 -0.23764,-0.56642 -0.0556,-0.1827 -0.0857,-0.37524 -0.1669,-0.54809 -0.072,-0.15309 -0.20169,-0.27246 -0.28719,-0.41843 -0.0731,-0.12493 -0.11243,-0.26792 -0.18738,-0.39176 -0.14118,-0.23327 -0.36202,-0.41859 -0.49637,-0.65825 -0.5756,-0.59866 0.27105,-1.41266 0.84663,-0.814 z"
       inkscape:connector-curvature="0" />
    <path
       style="opacity:1;fill:#51df3b;fill-opacity:1;fill-rule:nonzero;stroke:#33d917;stroke-width:0.588;stroke-linecap:square;stroke-miterlimit:4;stroke-dasharray:none;stroke-dashoffset:0;stroke-opacity:1;paint-order:markers fill stroke"
       id="path2541-0"
       d="m -152.62309,197.39795 c -0.25393,1.54975 -0.42986,3.1152 -0.57436,4.6797 -0.16924,2.99056 -0.52622,5.99099 -0.43054,8.99129 0.22852,3.13731 0.16112,1.58385 0.20813,4.66015 0.31978,2.43611 0.64147,4.89915 1.31068,7.27033 0.12179,0.43145 0.27381,0.8538 0.41066,1.28072 0.24351,0.77484 -0.85226,1.11922 -1.09578,0.34439 v 0 c -0.47621,-1.52014 -0.94429,-3.05931 -1.24779,-4.62549 -0.12847,-0.66297 -0.21593,-1.33333 -0.30973,-2.00209 -0.1022,-0.72878 -0.18547,-1.4601 -0.27821,-2.19015 -0.0814,-1.57129 -0.18362,-3.17277 -0.18569,-4.7468 -0.001,-0.82036 0.0408,-1.64021 0.0587,-2.46038 0.0174,-0.80387 0.008,-1.6086 0.0471,-2.41171 0.0685,-1.41094 0.2756,-2.81307 0.30102,-4.22709 0.17443,-1.7024 0.22734,-3.52697 0.77537,-5.1584 0.4211,-0.71452 1.43159,-0.11899 1.01049,0.59553 z"
       inkscape:connector-curvature="0" />
    <path
       style="opacity:1;fill:#51df3b;fill-opacity:1;fill-rule:nonzero;stroke:#33d917;stroke-width:0.588;stroke-linecap:square;stroke-miterlimit:4;stroke-dasharray:none;stroke-dashoffset:0;stroke-opacity:1;paint-order:markers fill stroke"
       id="path2541-3-6"
       d="m -157.41464,224.38912 c 0.25393,-1.54974 0.42986,-3.11519 0.57436,-4.6797 0.16924,-2.99055 0.52622,-5.99098 0.43053,-8.99129 -0.22851,-3.13731 -0.16112,-1.58384 -0.20812,-4.66014 -0.31979,-2.43612 -0.64147,-4.89916 -1.31068,-7.27034 -0.12179,-0.43145 -0.27381,-0.8538 -0.41067,-1.28072 -0.24351,-0.77484 0.85226,-1.11921 1.09578,-0.34439 v 0 c 0.47622,1.52014 0.9443,3.05931 1.2478,4.62549 0.12847,0.66297 0.21593,1.33333 0.30973,2.00209 0.1022,0.72879 0.18547,1.46011 0.2782,2.19016 0.0814,1.57128 0.18363,3.17277 0.1857,4.74679 0.001,0.82036 -0.0409,1.64022 -0.0587,2.46038 -0.0174,0.80387 -0.008,1.6086 -0.0471,2.41171 -0.0685,1.41094 -0.27559,2.81307 -0.30101,4.2271 -0.17443,1.70239 -0.22734,3.52696 -0.77537,5.15839 -0.4211,0.71453 -1.43159,0.119 -1.01049,-0.59553 z"
       inkscape:connector-curvature="0" />
    <path
       style="opacity:1;fill:#51df3b;fill-opacity:1;fill-rule:nonzero;stroke:#33d917;stroke-width:0.588;stroke-linecap:square;stroke-miterlimit:4;stroke-dasharray:none;stroke-dashoffset:0;stroke-opacity:1;paint-order:markers fill stroke"
       id="path2673-3"
       d="m -157.48119,232.33317 c -0.0249,0.0737 -0.0385,0.15249 -0.0748,0.22141 -0.0649,0.12315 -0.16606,0.22543 -0.22669,0.35072 -0.0853,0.1764 -0.13452,0.36825 -0.20897,0.54951 -0.31638,0.77018 -0.65038,1.53209 -0.96047,2.30522 -0.15709,0.8941 -0.67138,1.64651 -1.01345,2.46728 -0.27576,0.66166 -0.47105,1.36553 -0.72999,2.03548 -0.0284,0.50423 -0.43139,1.15564 -0.45059,1.64724 -0.0206,0.52719 0.14417,0.0515 -0.055,0.49872 0.12326,0.24368 0.0162,0.51922 0.0594,0.77018 0.0766,0.44428 0.11359,-0.0245 0.0258,0.4872 0.12509,0.6949 0.24501,1.44243 0.66503,2.03431 0.10051,0.14164 0.23497,0.25582 0.35245,0.38375 0.42206,0.75077 0.98965,1.40144 1.55861,2.0404 0.5191,0.64371 1.42944,-0.0904 0.91035,-0.73409 v 0 c -0.15514,-0.23043 -0.46376,-0.70616 -0.63697,-0.89268 -0.10056,-0.10829 -0.24242,-0.17268 -0.34285,-0.28109 -0.21091,-0.22765 -0.32842,-0.53118 -0.53927,-0.7589 -0.29058,-0.41873 -0.48308,-0.81586 -0.66477,-1.28879 -0.0317,-0.0824 -0.0838,-0.15839 -0.10028,-0.24515 -0.0177,-0.0938 -2.6e-4,-0.19101 -2.9e-4,-0.28651 0.0615,-0.4249 -0.0447,-0.77634 -0.038,-1.19654 0.0306,-0.6055 0.1643,-1.22191 0.37129,-1.78883 0.2228,-0.66838 0.45318,-1.32311 0.75358,-1.962 0.12242,-0.26035 0.28232,-0.50365 0.38553,-0.77219 1.08012,-2.81027 -0.64146,1.07408 0.62466,-1.70033 0.27389,-0.76076 0.56144,-1.54657 0.89384,-2.28412 0.41855,-0.92873 0.13578,-0.11313 0.45686,-0.92898 0.0389,-0.099 0.0661,-0.20227 0.0992,-0.30341 0.26008,-0.78795 -0.85424,-1.15576 -1.11432,-0.36782 z"
       inkscape:connector-curvature="0" />
    <path
       style="opacity:1;fill:#f61c2d;fill-opacity:1;fill-rule:nonzero;stroke:#fc6671;stroke-width:0.588;stroke-linecap:square;stroke-miterlimit:4;stroke-dasharray:none;stroke-dashoffset:0;stroke-opacity:1;paint-order:markers fill stroke"
       id="path2673-7"
       d="m -158.58867,232.66375 c 0.0249,0.0737 0.0385,0.15249 0.0748,0.22141 0.0649,0.12315 0.16606,0.22543 0.22669,0.35072 0.0853,0.1764 0.13452,0.36825 0.20897,0.54951 0.31638,0.77018 0.65038,1.53209 0.96047,2.30522 0.15709,0.8941 0.67138,1.64651 1.01345,2.46728 0.27576,0.66166 0.47105,1.36553 0.72999,2.03548 0.0284,0.50423 0.43139,1.15564 0.45059,1.64724 0.0206,0.52719 -0.14417,0.0515 0.055,0.49872 -0.12326,0.24368 -0.0162,0.51922 -0.0594,0.77018 -0.0766,0.44428 -0.11359,-0.0245 -0.0258,0.4872 -0.12509,0.6949 -0.24501,1.44243 -0.66503,2.03431 -0.10051,0.14164 -0.23497,0.25582 -0.35245,0.38375 -0.42206,0.75077 -0.98965,1.40144 -1.55861,2.0404 -0.5191,0.64371 -1.42944,-0.0904 -0.91035,-0.73409 v 0 c 0.15514,-0.23043 0.46376,-0.70616 0.63697,-0.89268 0.10056,-0.10829 0.24242,-0.17268 0.34285,-0.28109 0.21091,-0.22765 0.32842,-0.53118 0.53927,-0.7589 0.29058,-0.41873 0.48308,-0.81586 0.66477,-1.28879 0.0317,-0.0824 0.0838,-0.15839 0.10028,-0.24515 0.0177,-0.0938 2.6e-4,-0.19101 2.9e-4,-0.28651 -0.0615,-0.4249 0.0447,-0.77634 0.038,-1.19654 -0.0306,-0.6055 -0.1643,-1.22191 -0.37129,-1.78883 -0.2228,-0.66838 -0.45318,-1.32311 -0.75358,-1.962 -0.12242,-0.26035 -0.28232,-0.50365 -0.38553,-0.77219 -1.08012,-2.81027 0.64146,1.07408 -0.62466,-1.70033 -0.27389,-0.76076 -0.56144,-1.54657 -0.89384,-2.28412 -0.41855,-0.92873 -0.13578,-0.11313 -0.45686,-0.92898 -0.0389,-0.099 -0.0661,-0.20227 -0.0992,-0.30341 -0.26008,-0.78795 0.85424,-1.15576 1.11432,-0.36782 z"
       inkscape:connector-curvature="0" />
    <path
       style="opacity:1;fill:#f61c2d;fill-opacity:1;fill-rule:nonzero;stroke:#fc6671;stroke-width:0.588;stroke-linecap:square;stroke-miterlimit:4;stroke-dasharray:none;stroke-dashoffset:0;stroke-opacity:1;paint-order:markers fill stroke"
       id="path2673-3-9"
       d="m -151.5092,232.50397 c -0.0249,0.0737 -0.0385,0.15249 -0.0748,0.22141 -0.0649,0.12315 -0.16606,0.22543 -0.22669,0.35072 -0.0853,0.1764 -0.13452,0.36825 -0.20897,0.54951 -0.31638,0.77018 -0.65038,1.53209 -0.96047,2.30522 -0.15709,0.8941 -0.67138,1.64651 -1.01345,2.46728 -0.27576,0.66166 -0.47105,1.36553 -0.72999,2.03548 -0.0284,0.50423 -0.43139,1.15564 -0.45059,1.64724 -0.0206,0.52719 0.14417,0.0515 -0.055,0.49872 0.12326,0.24368 0.0162,0.51922 0.0594,0.77018 0.0766,0.44428 0.11359,-0.0245 0.0258,0.4872 0.12509,0.6949 0.24501,1.44243 0.66503,2.03431 0.10051,0.14164 0.23497,0.25582 0.35245,0.38375 0.42206,0.75077 0.98965,1.40144 1.55861,2.0404 0.5191,0.64371 1.42944,-0.0904 0.91035,-0.73409 v 0 c -0.15514,-0.23043 -0.46376,-0.70616 -0.63697,-0.89268 -0.10056,-0.10829 -0.24242,-0.17268 -0.34285,-0.28109 -0.21091,-0.22765 -0.32842,-0.53118 -0.53927,-0.7589 -0.29058,-0.41873 -0.48308,-0.81586 -0.66477,-1.28879 -0.0317,-0.0824 -0.0838,-0.15839 -0.10028,-0.24515 -0.0177,-0.0938 -2.6e-4,-0.19101 -2.9e-4,-0.28651 0.0615,-0.4249 -0.0447,-0.77634 -0.038,-1.19654 0.0306,-0.6055 0.1643,-1.22191 0.37129,-1.78883 0.2228,-0.66838 0.45318,-1.32311 0.75358,-1.962 0.12242,-0.26035 0.28232,-0.50365 0.38553,-0.77219 1.08012,-2.81027 -0.64146,1.07408 0.62466,-1.70033 0.27389,-0.76076 0.56144,-1.54657 0.89384,-2.28412 0.41855,-0.92873 0.13578,-0.11313 0.45686,-0.92898 0.0389,-0.099 0.0661,-0.20227 0.0992,-0.30341 0.26008,-0.78795 -0.85424,-1.15576 -1.11432,-0.36782 z"
       inkscape:connector-curvature="0" />
    <path
       inkscape:connector-curvature="0"
       d="m -141.71855,130.65859 c 0.21985,-0.22403 0.43649,-0.45134 0.65266,-0.67908 0.40674,-0.42803 0.78978,-0.87855 1.16601,-1.33468 0.34707,-0.41659 0.67367,-0.84977 0.98355,-1.29593 0.1701,-0.25003 0.32938,-0.50809 0.46453,-0.77982 0.12633,-0.27505 0.0487,-0.34514 0.59758,0.0619 0.0428,0.0318 -0.009,0.10814 -0.0151,0.16205 -0.008,0.0681 -0.0169,0.13609 -0.0255,0.20414 -0.09,0.63696 -0.18794,1.27265 -0.27428,1.91019 -0.10567,0.78387 -0.18644,1.57084 -0.25698,2.35875 -0.0516,0.58587 -0.0889,1.17291 -0.1144,1.76057 -0.0875,2.01664 -0.64364,1.99126 -0.55611,-0.0253 v 0 c 0.026,-0.59663 0.0637,-1.19263 0.11618,-1.7874 0.0713,-0.79671 0.15305,-1.59247 0.25994,-2.3851 0.0861,-0.63555 0.18358,-1.26932 0.2735,-1.90427 0.008,-0.0624 0.0163,-0.12489 0.0235,-0.18748 0.005,-0.0443 -0.0296,-0.12485 0.0131,-0.13333 0.68172,-0.13531 0.57956,-0.0605 0.45396,0.22555 -0.14819,0.29613 -0.3204,0.57858 -0.50672,0.851 -0.31893,0.45898 -0.65487,0.90478 -1.01194,1.33342 -0.38466,0.46622 -0.77628,0.92668 -1.19209,1.36417 -0.21793,0.22957 -0.43631,0.4587 -0.65789,0.68455 -1.39168,1.4274 -1.7853,1.02366 -0.39364,-0.40374 z"
       id="path3690"
       style="opacity:1;fill:#000000;fill-opacity:1;stroke:#000000;stroke-width:0.3;stroke-linecap:square;stroke-miterlimit:4;stroke-dasharray:none;stroke-dashoffset:0;stroke-opacity:1;paint-order:markers fill stroke" />
    <path
       inkscape:connector-curvature="0"
       d="m -133.85231,196.61464 c -0.0269,-0.2422 -0.0407,-0.4863 -0.0554,-0.72993 -0.0322,-0.3841 -0.0403,-0.76068 0.0246,-1.13943 0.1666,-0.58851 0.58972,-0.8921 1.02777,-1.14096 0.5125,-0.26829 1.05495,-0.3706 1.60875,-0.35573 0.56829,0.0396 1.00819,0.28506 1.4293,0.73977 0.3783,0.46821 0.5493,1.07376 0.66482,1.70045 0.12139,0.74748 -0.0233,1.39139 -0.28348,2.06409 -0.30495,0.70292 -0.76165,1.27093 -1.22954,1.81335 -0.49324,0.56031 -1.04145,1.039 -1.6061,1.48477 -0.46808,0.35816 -0.96832,0.64608 -1.47664,0.9073 -0.29535,0.15304 -0.60055,0.2726 -0.91096,0.37005 -0.22701,0.0712 -0.17166,0.11107 -0.10142,-0.63688 8e-5,0 0.23128,-0.0276 0.35005,-0.0417 0.3765,-0.0449 0.75398,-0.0757 1.13154,-0.10358 0.41355,-0.03 0.82751,-0.0492 1.24159,-0.0641 0.32443,-0.0114 0.64899,-0.0164 0.97356,-0.0177 0.21976,0 0.43952,0.003 0.65926,0.006 0.14592,0.003 0.29183,0.006 0.43775,0.0101 0.0652,0.003 0.0334,0 0.0954,0.003 1.93857,0.0501 1.92695,0.71919 -0.0116,0.66908 v 0 c -0.0621,-0.003 -0.0305,0 -0.0952,-0.003 -0.14473,-0.004 -0.28945,-0.007 -0.43418,-0.0101 -0.2164,-0.004 -0.43282,-0.007 -0.64926,-0.006 -0.31988,0.003 -0.63976,0.007 -0.95954,0.0175 -0.40841,0.0148 -0.81671,0.0335 -1.22457,0.0632 -0.37096,0.0273 -0.74185,0.0576 -1.11175,0.10174 -0.10081,0.0119 -0.35285,0.0495 -0.35603,0.0424 -0.28082,-0.63039 -0.3366,-0.59708 -0.0822,-0.67797 0.28448,-0.0892 0.56418,-0.19827 0.8348,-0.33877 0.47886,-0.24564 0.9503,-0.51609 1.39158,-0.85243 0.5364,-0.42294 1.05747,-0.87681 1.52637,-1.40825 0.41971,-0.48535 0.83317,-0.99052 1.11215,-1.61628 0.2055,-0.51764 0.33882,-1.05082 0.24294,-1.63071 -0.0878,-0.49033 -0.20962,-0.97324 -0.49702,-1.34887 -0.30311,-0.34399 -0.65815,-0.53922 -1.07617,-0.5674 -0.46958,-0.0183 -0.92924,0.072 -1.36493,0.29466 -0.27823,0.15404 -0.58176,0.32698 -0.72197,0.67961 -0.0636,0.31097 -0.0306,0.62728 -0.013,0.94375 0.0135,0.22328 0.0265,0.4469 0.0494,0.66905 0.31877,2.33381 -0.22222,2.44379 -0.54099,0.11004 z"
       id="path3680-3"
       style="opacity:1;fill:#000000;fill-opacity:1;stroke:#000000;stroke-width:0.27253917;stroke-linecap:square;stroke-miterlimit:4;stroke-dasharray:none;stroke-dashoffset:0;stroke-opacity:1;paint-order:markers fill stroke" />
    <path
       inkscape:connector-curvature="0"
       d="m -126.08275,261.43254 c -0.0826,-0.18812 -0.13491,-0.39156 -0.18123,-0.59597 -0.0853,-0.35267 -0.10245,-0.71226 -0.0786,-1.0763 0.035,-0.42214 0.17981,-0.776 0.41965,-1.08037 0.28184,-0.30208 0.64064,-0.41307 1.0028,-0.48943 0.39484,-0.0707 0.77997,0.0106 1.15309,0.16468 0.34117,0.15311 0.61335,0.42553 0.84385,0.75752 0.18989,0.2939 0.29504,0.63773 0.35949,0.99762 0.0464,0.29707 0.0413,0.59914 0.0212,0.89886 -0.0156,0.20524 -0.0471,0.40791 -0.0859,0.60847 -0.0122,0.0368 -0.0148,0.0771 -0.0251,0.11456 -0.004,0.0116 0.009,-0.0238 0.007,-0.0361 -0.007,-0.0574 0,-0.12332 -0.0308,-0.16967 -0.0905,-0.14553 -0.11798,-0.14177 -0.21196,-0.15801 0.18889,-0.0572 0.37931,-0.10634 0.57026,-0.15232 0.31224,-0.0732 0.6273,-0.12685 0.9429,-0.17389 0.28241,-0.049 0.56568,-0.0678 0.84986,-0.0373 0.36549,0.0545 0.54264,0.25819 0.68842,0.65405 0.12864,0.49967 0.14103,1.02831 0.13875,1.54737 -0.008,0.6078 -0.12049,1.19816 -0.28921,1.76797 -0.17413,0.54599 -0.45006,1.01989 -0.78162,1.44201 -0.30728,0.37891 -0.69095,0.61989 -1.09759,0.80436 -0.32665,0.13967 -0.66886,0.19581 -1.01348,0.21047 -0.26792,0.005 -0.53436,-0.0325 -0.79918,-0.0769 -0.23913,-0.0301 -0.46611,-0.11152 -0.68368,-0.23196 -0.20955,-0.1207 -0.36806,-0.30662 -0.49213,-0.5394 -0.0816,-0.16852 -0.12133,-0.35513 -0.14552,-0.54602 -0.27649,-2.3099 0.26636,-2.40401 0.54285,-0.0941 v 0 c 0.0109,0.1007 0.0293,0.19995 0.0681,0.29102 0.0624,0.12803 0.14653,0.22365 0.25829,0.29019 0.16737,0.0956 0.34316,0.15391 0.52808,0.17656 0.23361,0.0394 0.46856,0.0739 0.70493,0.0709 0.2853,-0.0103 0.56876,-0.0555 0.83965,-0.16902 0.32962,-0.14679 0.6422,-0.33621 0.89236,-0.64114 0.28131,-0.35287 0.51347,-0.75194 0.66276,-1.21002 0.15007,-0.49863 0.24781,-1.01669 0.25691,-1.54932 0.003,-0.43204 -0.006,-0.87093 -0.0974,-1.29135 -0.0449,-0.15698 -0.0815,-0.23085 -0.23255,-0.24844 -0.24452,-0.0294 -0.48831,-0.005 -0.73133,0.0352 -0.30218,0.0449 -0.60381,0.0962 -0.90279,0.16611 -0.202,0.0485 -0.40256,0.10448 -0.60346,0.15907 -0.32342,0.0132 -0.43386,-0.22204 -0.34784,-0.55481 0.0329,-0.16899 0.0599,-0.33986 0.0734,-0.51284 0.0164,-0.23601 0.023,-0.47403 -0.0111,-0.70853 -0.0433,-0.25612 -0.11438,-0.50215 -0.24604,-0.71377 -0.16261,-0.24217 -0.35697,-0.44016 -0.60121,-0.55401 -0.28377,-0.12165 -0.57745,-0.18722 -0.87942,-0.1375 -0.24778,0.0503 -0.50171,0.1112 -0.70472,0.30162 -0.15899,0.18198 -0.23842,0.41058 -0.26429,0.673 -0.0217,0.28749 -0.006,0.56991 0.0615,0.84857 0.0344,0.15468 0.0726,0.30906 0.13329,0.45231 0.92851,2.04874 0.44704,2.36484 -0.48148,0.31604 z"
       id="path3682-6"
       style="opacity:1;fill:#000000;fill-opacity:1;stroke:#000000;stroke-width:0.3;stroke-linecap:square;stroke-miterlimit:4;stroke-dasharray:none;stroke-dashoffset:0;stroke-opacity:1;paint-order:markers fill stroke" />
    <path
       style="opacity:1;fill:#000000;fill-opacity:1;stroke:#000000;stroke-width:0.23896395;stroke-linecap:square;stroke-miterlimit:4;stroke-dasharray:none;stroke-dashoffset:0;stroke-opacity:1;paint-order:markers fill stroke;enable-background:new"
       id="path1838"
       d="m -142.74208,259.65605 c -0.0659,-0.16275 -0.10632,-0.33241 -0.15217,-0.49987 -0.0922,-0.35125 -0.18263,-0.70284 -0.2692,-1.05506 -0.0943,-0.39024 -0.2045,-0.77769 -0.31625,-1.16467 -0.0994,-0.33766 -0.21235,-0.67224 -0.31929,-1.00819 -0.0729,-0.23125 -0.15059,-0.46365 -0.17177,-0.70224 -0.01,-0.1427 0.0359,-0.25693 0.12256,-0.36266 0.13081,-0.14106 0.30441,-0.23347 0.47875,-0.31864 0.24429,-0.11077 0.5051,-0.1865 0.76731,-0.25536 0.3067,-0.0782 0.61883,-0.13936 0.93169,-0.19694 0.3122,-0.0552 0.62648,-0.10145 0.94247,-0.13999 0.29011,-0.0367 0.58045,-0.0722 0.8711,-0.10616 0.25521,-0.0283 0.51039,-0.057 0.76629,-0.0816 0.15067,-0.0136 0.0761,-0.007 0.22367,-0.0198 2.76797,-0.23833 2.64383,-0.99721 -0.12416,-0.75889 v 0 c -0.15255,0.0131 -0.0753,0.006 -0.2316,0.0205 -0.26139,0.0251 -0.52205,0.0543 -0.78272,0.0833 -0.29201,0.0341 -0.58372,0.0698 -0.87519,0.10665 -0.33189,0.0406 -0.66203,0.0891 -0.98992,0.14724 -0.33219,0.0612 -0.66356,0.12638 -0.98913,0.20977 -0.31139,0.0822 -0.62059,0.17394 -0.90933,0.30838 -0.27554,0.13704 -0.54154,0.29382 -0.73446,0.53048 -0.18192,0.25424 -0.28463,0.53267 -0.25605,0.85745 0.0327,0.28993 0.10887,0.57386 0.20375,0.85475 0.1048,0.32926 0.21545,0.65718 0.31318,0.98805 0.10889,0.37706 0.21641,0.75453 0.30825,1.13476 0.0882,0.35874 0.18022,0.71686 0.27426,1.07459 0.057,0.20832 0.10859,0.41922 0.19594,0.62013 1.15658,2.52405 1.8786,2.25799 0.72204,-0.26605 z"
       inkscape:connector-curvature="0" />
    <path
       style="opacity:1;fill:#000000;fill-opacity:1;stroke:#000000;stroke-width:0.2014931;stroke-linecap:square;stroke-miterlimit:4;stroke-dasharray:none;stroke-dashoffset:0;stroke-opacity:1;paint-order:markers fill stroke;enable-background:new"
       id="path1840"
       d="m -141.82866,256.96241 c 0.15907,0.13601 0.32741,0.25762 0.49552,0.37934 0.32726,0.23444 0.66197,0.45668 0.99728,0.67787 0.37826,0.24887 0.75956,0.49268 1.14198,0.7346 0.38553,0.24394 0.77308,0.48443 1.16656,0.71483 0.38464,0.22772 0.78111,0.43468 1.17911,0.63883 0.39275,0.20112 0.79935,0.37675 1.20712,0.54995 0.37001,0.15579 0.74089,0.30992 1.1104,0.46663 0.32485,0.13758 0.64679,0.28063 0.96712,0.42668 0.27926,0.12778 0.55614,0.25996 0.83244,0.39319 0.22577,0.10915 0.45006,0.22102 0.67375,0.33394 0.17511,0.0885 0.34949,0.17823 0.52363,0.26844 0.13211,0.0682 0.26342,0.13769 0.39468,0.20731 0.0996,0.0529 0.19922,0.10572 0.29817,0.1597 0.0415,0.0228 0.0835,0.0447 0.12503,0.0675 1.52124,0.82887 1.9524,0.0682 0.43092,-0.76077 v 0 c -0.0418,-0.023 -0.0835,-0.0459 -0.12575,-0.0679 -0.0998,-0.0541 -0.20002,-0.10734 -0.30013,-0.16084 -0.13187,-0.0703 -0.26429,-0.13969 -0.39699,-0.20853 -0.17504,-0.0906 -0.35026,-0.18087 -0.52623,-0.26982 -0.22519,-0.11367 -0.45096,-0.22628 -0.67822,-0.33618 -0.27813,-0.13405 -0.55678,-0.26713 -0.83786,-0.39573 -0.3226,-0.14702 -0.64676,-0.29112 -0.97386,-0.42965 -0.36945,-0.15673 -0.74031,-0.31082 -1.11028,-0.46657 -0.40164,-0.17057 -0.80215,-0.34346 -1.189,-0.54148 -0.39347,-0.20176 -0.78551,-0.40617 -1.16562,-0.63151 -0.39072,-0.22892 -0.77565,-0.46767 -1.1585,-0.70995 -0.38097,-0.24096 -0.76082,-0.48382 -1.13763,-0.73173 -0.33195,-0.21903 -0.66335,-0.43901 -0.9874,-0.67103 -0.16325,-0.1181 -0.3267,-0.23609 -0.4811,-0.36813 -1.34695,-1.11564 -1.82224,-0.38492 -0.47524,0.73074 z"
       inkscape:connector-curvature="0" />
    <g
       id="g5473"
       transform="matrix(0.94400109,0,0,0.74147367,-313.96163,101.68034)"
       style="fill:#fa424e;fill-opacity:1;enable-background:new">
      <path
         sodipodi:nodetypes="cccccccccccccccccccc"
         inkscape:connector-curvature="0"
         id="path2016"
         d="m 170.56063,171.45389 -1.1e-4,-1e-4 v 0 c -0.54698,-0.48165 -1.14854,-0.8422 -1.75583,-1.17451 -1.26879,-0.68424 -2.62022,-0.93411 -3.98169,-1.03398 -1.82169,-0.12942 -3.53626,0.4672 -5.19073,1.3929 -1.8536,1.05991 -3.38951,2.68485 -4.74114,4.61041 -1.5255,2.33516 -2.59828,5.06256 -3.4523,7.89571 -0.79933,2.74983 -0.70804,5.52553 -0.20621,8.33387 0.57273,2.72165 1.77639,5.03044 3.13981,7.18213 1.37302,2.12878 3.09563,3.74017 4.9187,5.15257 1.88637,1.40027 3.8937,2.47216 5.97387,3.27288 1.567,0.57925 3.17956,0.78634 4.78552,0.41151 1.41198,-0.4599 2.61649,-1.52031 3.77125,-2.62575 1.22346,-1.22775 2.29457,-2.67448 3.31939,-4.16973 0.86445,-1.25296 1.55835,-2.66991 2.18327,-4.13631 0.55695,-1.33109 1.01545,-2.72475 1.43237,-4.13765 0.33465,-1.14624 0.62507,-2.3118 0.83217,-3.50768 0.10686,-0.80546 0.1399,-1.62651 0.0639,-2.4382 -2.22846,-6.70746 -6.58127,-10.8373 -11.09214,-15.02807 z"
         style="opacity:0.82599996;fill:none;fill-opacity:1;stroke:#55cdc1;stroke-width:2.30320573;stroke-linecap:square;stroke-miterlimit:4;stroke-dasharray:none;stroke-dashoffset:0;stroke-opacity:0.82745098;paint-order:markers fill stroke" />
    </g>
    <path
       style="opacity:1;fill:#000000;fill-opacity:1;stroke:#000000;stroke-width:0.23896395;stroke-linecap:square;stroke-miterlimit:4;stroke-dasharray:none;stroke-dashoffset:0;stroke-opacity:1;paint-order:markers fill stroke;enable-background:new"
       id="path1838-2"
       d="m -150.76675,142.18775 c -0.17332,0.0281 -0.34772,0.0299 -0.52117,0.0374 -0.36296,0.0119 -0.72585,0.0221 -1.0885,0.0283 -0.40145,0.005 -0.80369,0.0268 -1.20581,0.0498 -0.3513,0.022 -0.70261,0.0578 -1.05392,0.0876 -0.24165,0.0198 -0.4855,0.0439 -0.72285,0.0116 -0.14136,-0.0219 -0.24255,-0.092 -0.3264,-0.20001 -0.10847,-0.15886 -0.16011,-0.34863 -0.20445,-0.53752 -0.0538,-0.26279 -0.0697,-0.5339 -0.0787,-0.80485 -0.008,-0.31641 0.001,-0.63433 0.0148,-0.95216 0.0154,-0.31666 0.0401,-0.63338 0.0727,-0.95004 0.0286,-0.29103 0.0584,-0.582 0.0898,-0.87293 0.029,-0.25511 0.0577,-0.51032 0.0905,-0.76529 0.0202,-0.14993 0.0101,-0.0757 0.0303,-0.22248 0.38201,-2.75183 -0.3855,-2.79923 -0.76752,-0.0474 v 0 c -0.0211,0.15164 -0.0108,0.0748 -0.0315,0.23037 -0.0335,0.26044 -0.0629,0.52108 -0.0925,0.78169 -0.0315,0.29229 -0.0615,0.58465 -0.0903,0.87703 -0.0341,0.33262 -0.0601,0.66529 -0.0762,0.9979 -0.014,0.33748 -0.0241,0.67506 -0.015,1.01103 0.0111,0.32185 0.0319,0.64372 0.0988,0.95509 0.0726,0.29906 0.16632,0.59324 0.35421,0.83389 0.20753,0.23382 0.45622,0.39576 0.77923,0.43999 0.28997,0.0325 0.58371,0.0212 0.87866,-0.009 0.3443,-0.0291 0.68861,-0.0642 1.03291,-0.0861 0.39184,-0.0224 0.78375,-0.0435 1.17488,-0.0487 0.36937,-0.006 0.73898,-0.0166 1.10866,-0.0289 0.21577,-0.009 0.43287,-0.0128 0.64815,-0.0534 2.71782,-0.56743 2.61865,-1.33053 -0.0991,-0.76308 z"
       inkscape:connector-curvature="0" />
    <path
       style="opacity:1;fill:#000000;fill-opacity:1;stroke:#000000;stroke-width:0.18215846;stroke-linecap:square;stroke-miterlimit:4;stroke-dasharray:none;stroke-dashoffset:0;stroke-opacity:1;paint-order:markers fill stroke;enable-background:new"
       id="path1840-0"
       d="m -153.23825,140.79702 c 0.16334,-0.10494 0.31501,-0.2202 0.46674,-0.33525 0.29298,-0.22441 0.576,-0.45719 0.85815,-0.69067 0.31768,-0.26351 0.63122,-0.53046 0.94319,-0.79867 0.31458,-0.27038 0.62632,-0.54306 0.92976,-0.82248 0.299,-0.27268 0.58086,-0.55893 0.86039,-0.84695 0.27552,-0.28428 0.52985,-0.58467 0.78215,-0.88647 0.22762,-0.27411 0.45386,-0.54925 0.68225,-0.82277 0.2006,-0.2405 0.40576,-0.4776 0.61342,-0.71281 0.18146,-0.20499 0.3666,-0.40719 0.55259,-0.60873 0.15227,-0.16462 0.30677,-0.32753 0.46215,-0.48974 0.12173,-0.12697 0.24447,-0.25312 0.36762,-0.37897 0.0932,-0.0955 0.18745,-0.19015 0.28181,-0.28472 0.0717,-0.0718 0.14327,-0.14351 0.21582,-0.21451 0.0305,-0.0298 0.0605,-0.0601 0.091,-0.0899 1.11447,-1.09183 0.48617,-1.58698 -0.62845,-0.49497 v 0 c -0.0308,0.0299 -0.0616,0.0598 -0.0915,0.0904 -0.0728,0.0717 -0.14497,0.14387 -0.21733,0.21591 -0.0951,0.0949 -0.18952,0.1905 -0.28345,0.28639 -0.12371,0.12651 -0.24714,0.25324 -0.3695,0.38083 -0.15641,0.16331 -0.31193,0.32729 -0.46523,0.49299 -0.18717,0.20289 -0.37353,0.40638 -0.55617,0.61269 -0.20907,0.2369 -0.41571,0.47562 -0.6177,0.71779 -0.2284,0.27347 -0.45459,0.5486 -0.68216,0.82268 -0.24848,0.29727 -0.4989,0.59318 -0.7702,0.87321 -0.27629,0.28475 -0.55478,0.56784 -0.85054,0.83725 -0.30144,0.27744 -0.61097,0.54831 -0.92339,0.8168 -0.31076,0.2672 -0.62308,0.53313 -0.93953,0.79562 -0.27939,0.23114 -0.55955,0.46164 -0.84954,0.68387 -0.14723,0.11176 -0.29443,0.22365 -0.45297,0.32552 -1.34882,0.89554 -0.75844,1.42126 0.59039,0.52569 z"
       inkscape:connector-curvature="0" />
    <path
       style="opacity:1;fill:#000000;fill-opacity:1;stroke:#000000;stroke-width:0.23896395;stroke-linecap:square;stroke-miterlimit:4;stroke-dasharray:none;stroke-dashoffset:0;stroke-opacity:1;paint-order:markers fill stroke;enable-background:new"
       id="path1838-23"
       d="m -146.18395,208.22155 c -0.17556,-0.003 -0.34754,-0.0318 -0.51962,-0.0549 -0.35939,-0.0522 -0.71839,-0.10606 -1.07648,-0.16377 -0.3961,-0.0654 -0.79584,-0.11513 -1.19575,-0.16322 -0.34968,-0.0402 -0.70181,-0.0667 -1.05286,-0.0994 -0.24137,-0.0231 -0.48566,-0.0422 -0.71361,-0.11583 -0.13529,-0.0465 -0.22256,-0.13329 -0.2861,-0.25434 -0.0788,-0.17548 -0.0962,-0.37137 -0.1066,-0.56512 -0.007,-0.26815 0.0254,-0.53784 0.0643,-0.80613 0.0477,-0.31291 0.11312,-0.62416 0.18217,-0.93469 0.071,-0.309 0.15101,-0.61642 0.23881,-0.9224 0.0794,-0.28144 0.15999,-0.56262 0.24212,-0.84348 0.0735,-0.24603 0.14665,-0.49218 0.22384,-0.7374 0.0463,-0.14404 0.0232,-0.0728 0.069,-0.21367 0.8605,-2.64159 0.11333,-2.82337 -0.74719,-0.18177 v 0 c -0.0474,0.14558 -0.0238,0.0717 -0.0715,0.22125 -0.0789,0.25047 -0.15368,0.50186 -0.22868,0.75319 -0.0825,0.28217 -0.16348,0.56469 -0.24327,0.84744 -0.0921,0.32143 -0.17625,0.64432 -0.25065,0.96891 -0.0732,0.32974 -0.14252,0.66028 -0.19277,0.99259 -0.0458,0.31878 -0.082,0.63927 -0.0708,0.95758 0.0187,0.30717 0.0593,0.61325 0.20188,0.88322 0.16312,0.26669 0.37941,0.4699 0.6896,0.5703 0.27971,0.083 0.57086,0.12365 0.8665,0.14588 0.34406,0.032 0.68916,0.058 1.03194,0.0971 0.38966,0.0469 0.77916,0.0951 1.16509,0.15891 0.36472,0.0588 0.73037,0.11375 1.09644,0.16673 0.21404,0.0288 0.42836,0.0636 0.64743,0.0615 2.77526,-0.0802 2.81198,-0.84876 0.0367,-0.76862 z"
       inkscape:connector-curvature="0" />
    <path
       style="opacity:1;fill:#000000;fill-opacity:1;stroke:#000000;stroke-width:0.20149311;stroke-linecap:square;stroke-miterlimit:4;stroke-dasharray:none;stroke-dashoffset:0;stroke-opacity:1;paint-order:markers fill stroke;enable-background:new"
       id="path1840-7"
       d="m -148.30774,206.32959 c 0.1873,-0.0934 0.36495,-0.20095 0.54261,-0.30825 0.34354,-0.20986 0.67876,-0.43133 1.01324,-0.65377 0.37673,-0.25119 0.74998,-0.50714 1.12193,-0.76487 0.37503,-0.2598 0.74766,-0.52281 1.11332,-0.79522 0.35974,-0.26531 0.70499,-0.54961 1.04824,-0.83642 0.33841,-0.28315 0.65876,-0.58901 0.97733,-0.89689 0.2878,-0.2799 0.57442,-0.56125 0.86288,-0.84034 0.25341,-0.24543 0.51073,-0.48604 0.77019,-0.724 0.22661,-0.20728 0.45634,-0.41064 0.68681,-0.61307 0.18858,-0.16529 0.37909,-0.32816 0.57034,-0.49006 0.14981,-0.12671 0.30046,-0.25226 0.45146,-0.3774 0.11434,-0.095 0.22955,-0.18883 0.34487,-0.28252 0.0876,-0.0711 0.17507,-0.14218 0.26338,-0.21223 0.0372,-0.0293 0.0737,-0.0594 0.11093,-0.0888 1.3567,-1.07729 0.82453,-1.77106 -0.53236,-0.69359 v 0 c -0.0375,0.0295 -0.0748,0.059 -0.11158,0.0893 -0.0888,0.0708 -0.17687,0.14229 -0.26519,0.21359 -0.11618,0.094 -0.23173,0.18884 -0.34689,0.28417 -0.15171,0.12582 -0.30319,0.25193 -0.45375,0.37925 -0.19252,0.163 -0.38429,0.32694 -0.57414,0.49331 -0.23195,0.20379 -0.4632,0.40843 -0.69127,0.61706 -0.26123,0.23968 -0.52038,0.48193 -0.77555,0.72906 -0.28846,0.27902 -0.57503,0.56037 -0.86278,0.84025 -0.31375,0.30326 -0.6292,0.60458 -0.96246,0.88351 -0.33929,0.28357 -0.68045,0.56479 -1.03624,0.82686 -0.36321,0.27044 -0.73323,0.53171 -1.10568,0.78969 -0.3705,0.25677 -0.74231,0.51176 -1.11759,0.76199 -0.33118,0.22019 -0.66302,0.4395 -1.00309,0.64734 -0.17243,0.10424 -0.34484,0.2087 -0.52666,0.29935 -1.55274,0.80493 -1.06537,1.52764 0.48742,0.72267 z"
       inkscape:connector-curvature="0" />
    <path
       style="opacity:1;fill:none;fill-opacity:1;fill-rule:nonzero;stroke:#00887a;stroke-width:0.588;stroke-linecap:square;stroke-miterlimit:4;stroke-dasharray:0.58800003, 3.52800012;stroke-dashoffset:0;stroke-opacity:1;paint-order:markers fill stroke"
       id="path2692-8-2"
       d="m -151.56155,183.71506 c 6.89065,0.18137 9.72133,0.0207 16.61596,0.0377 2.39656,0.14632 4.79221,0.30826 7.18966,0.43896 2.52703,0.13777 5.05725,0.215 7.58351,0.36641 8.51497,0.51033 17.01737,1.27244 25.510123,2.06169 5.804276,0.3379 2.11158,0.0218 7.028936,0.6375 2.58954,3.32407 -2.09273,1.76116 -7.209476,1.42132 -7.087683,-0.55027 -3.38023,-0.23769 -11.121163,-0.95222 -9.65926,-0.79398 -19.34054,-1.36758 -29.02762,-1.66888 -2.10806,-0.0884 -4.2146,-0.22809 -6.32418,-0.26518 -1.75499,-0.0309 -3.51015,0.0636 -5.26542,0.0614 -1.33988,-0.002 -2.6791,-0.0747 -4.01898,-0.0734 -1.67581,0.002 -1.00811,0.15103 -2.6839,0.0141 -1.47038,0 0.25217,-2.07944 1.72255,-2.07944 z"
       inkscape:connector-curvature="0"
       sodipodi:nodetypes="ccccccccccccccc" />
    <path
       style="opacity:1;fill:#f61c2d;fill-opacity:1;fill-rule:nonzero;stroke:#fc6671;stroke-width:0.588;stroke-linecap:square;stroke-miterlimit:4;stroke-dasharray:none;stroke-dashoffset:0;stroke-opacity:1;paint-order:markers fill stroke"
       d="m -163.11502,145.24422 c -0.70569,0.0498 -0.77917,1.10173 0.01,1.19425 0.21189,-0.0141 0.026,-0.0266 0.28526,0.1297 0.67254,0.40552 -0.0381,-0.18356 0.68212,0.61805 1.1635,1.29497 -0.0888,-0.28063 1.13224,1.32137 0.15916,0.21538 1.06133,1.53774 1.21362,1.75837 l 0.57362,-1.21464 c -0.20407,-0.28836 -0.65645,-0.97957 -0.85862,-1.26927 -0.72285,-1.01214 -1.58232,-2.27068 -2.88871,-2.53421 -0.0526,-0.006 -0.1023,-0.007 -0.14935,-0.004 z"
       id="path11564"
       inkscape:connector-curvature="0"
       sodipodi:nodetypes="ccccccccccc" />
    <path
       style="opacity:1;fill:#51df3b;fill-opacity:1;fill-rule:nonzero;stroke:#33d917;stroke-width:0.588;stroke-linecap:square;stroke-miterlimit:4;stroke-dasharray:none;stroke-dashoffset:0;stroke-opacity:1;paint-order:markers fill stroke"
       d="m -159.78798,147.47818 c 0.55084,-1.11512 1.06753,-2.23623 2.31462,-2.70622 0.8148,-0.2326 1.14375,0.91971 0.32895,1.15232 v 0 c -0.21141,0.0201 -0.0296,-0.0221 -0.26041,0.1739 -0.92595,0.94904 -1.36543,2.22045 -1.58144,2.62535 -0.0995,0.1935 -0.70718,-1.44156 -0.80172,-1.24535"
       id="path11538"
       inkscape:connector-curvature="0"
       sodipodi:nodetypes="ccccccc" />
    <path
       inkscape:connector-curvature="0"
       id="path3684-4"
       d="m -215.24582,242.59296 c -0.13711,0 -0.27422,0.58345 -0.27422,1.75035 v 0.99231 c -0.001,0.52682 0.003,1.05364 -0.003,1.5804 -0.005,0.36972 -0.0148,0.74048 -0.0643,1.10594 -0.12668,0 -0.25332,0 -0.38,0 -0.002,0.009 -0.004,0.0142 -0.005,0.0224 -0.0102,0.009 -0.0131,0.0285 -0.0122,0.0578 -0.12984,0.63527 -0.24216,0.52624 0.0461,0.61201 0.0552,0.0184 0.11023,0.0364 0.15625,0.0794 0.16224,0.11129 0.33311,0.13267 0.4906,-0.0102 0.0262,-0.0316 0.049,-0.0651 0.0701,-0.0994 0.014,0 0.0278,0 0.0418,0 0.36496,0.004 0.72991,0.008 1.09486,0.012 0.30792,0.004 0.61582,0.006 0.92374,0.009 0.23735,0 0.47466,0.003 0.71203,0.003 -5.3e-4,0.34264 -5e-5,0.68503 0.0144,1.02731 0.01,0.21793 0.0281,0.43522 0.055,0.65104 0.012,0.093 0.0254,0.18562 0.0449,0.27673 0.005,0.0205 0.002,0.011 0.006,0.0294 0.46475,2.26573 0.99713,2.10746 0.53239,-0.15826 -0.005,-0.0252 -0.003,-0.0123 -0.008,-0.0392 -0.0142,-0.0682 -0.0242,-0.13746 -0.0331,-0.20694 -0.0245,-0.19438 -0.0404,-0.39019 -0.0494,-0.58646 -0.0141,-0.33103 -0.0148,-0.6622 -0.0139,-0.99351 0.0808,0 0.16153,0 0.2423,0 0.19547,0 0.39089,0 0.58637,0 0.14424,0 0.28853,0 0.43278,0 0.0773,5e-5 0.0392,0 0.11397,0 1.93906,-0.003 1.93869,-0.66202 -2.4e-4,-0.66008 -0.0748,-4e-5 -0.0368,0 -0.11414,0 -0.14434,0 -0.28878,0 -0.43313,0 -0.19539,0 -0.3908,0 -0.5862,0 -0.0806,-4e-5 -0.16106,0 -0.24162,0 v -0.96216 -0.89842 c 0,-2.33373 -0.54844,-2.33373 -0.54844,0 v 0.89842 0.96193 c -0.23623,0 -0.47246,0 -0.70868,-0.003 -0.30733,-0.003 -0.61474,-0.005 -0.92208,-0.009 -0.31834,-0.004 -0.63662,-0.007 -0.95498,-0.0104 0.0422,-0.36541 0.0566,-0.73434 0.0602,-1.10332 0.006,-0.52955 0.002,-1.05908 0.003,-1.58866 v -0.99212 c 0,-1.16688 -0.13711,-1.75036 -0.27421,-1.75036 z"
       style="opacity:1;fill:#000000;fill-opacity:1;stroke:#000000;stroke-width:0.3;stroke-linecap:square;stroke-miterlimit:4;stroke-dasharray:none;stroke-dashoffset:0;stroke-opacity:1;paint-order:markers fill stroke;enable-background:new" />
    <path
       style="opacity:1;fill:#000000;fill-opacity:1;stroke:#000000;stroke-width:0.23896395;stroke-linecap:square;stroke-miterlimit:4;stroke-dasharray:none;stroke-dashoffset:0;stroke-opacity:1;paint-order:markers fill stroke;enable-background:new"
       id="path1838-2-2"
       d="m -201.42296,233.73832 c 0.17332,-0.0281 0.34772,-0.0299 0.52117,-0.0374 0.36296,-0.0119 0.72585,-0.0221 1.0885,-0.0283 0.40145,-0.005 0.80369,-0.0268 1.20581,-0.0498 0.3513,-0.022 0.70261,-0.0578 1.05392,-0.0876 0.24165,-0.0198 0.4855,-0.0439 0.72285,-0.0116 0.14136,0.0219 0.24255,0.092 0.3264,0.2 0.10847,0.15886 0.16011,0.34863 0.20445,0.53752 0.0538,0.26279 0.0697,0.5339 0.0787,0.80485 0.008,0.31641 -0.001,0.63433 -0.0148,0.95216 -0.0154,0.31666 -0.0401,0.63338 -0.0727,0.95004 -0.0286,0.29103 -0.0584,0.582 -0.0898,0.87293 -0.029,0.25511 -0.0577,0.51032 -0.0905,0.76529 -0.0202,0.14993 -0.0101,0.0757 -0.0303,0.22248 -0.38201,2.75183 0.3855,2.79923 0.76752,0.0474 v 0 c 0.0211,-0.15164 0.0108,-0.0748 0.0315,-0.23037 0.0335,-0.26044 0.0629,-0.52108 0.0925,-0.78169 0.0315,-0.29229 0.0615,-0.58465 0.0903,-0.87703 0.0341,-0.33262 0.0601,-0.66529 0.0762,-0.9979 0.014,-0.33748 0.0241,-0.67506 0.015,-1.01103 -0.0111,-0.32185 -0.0319,-0.64372 -0.0988,-0.95509 -0.0726,-0.29906 -0.16632,-0.59324 -0.35421,-0.83389 -0.20753,-0.23382 -0.45622,-0.39576 -0.77923,-0.43999 -0.28997,-0.0325 -0.58371,-0.0212 -0.87866,0.009 -0.3443,0.0291 -0.68861,0.0642 -1.03291,0.0861 -0.39184,0.0224 -0.78375,0.0435 -1.17488,0.0487 -0.36937,0.006 -0.73898,0.0166 -1.10866,0.0289 -0.21577,0.009 -0.43287,0.0128 -0.64815,0.0534 -2.71782,0.56743 -2.61865,1.33053 0.0991,0.76308 z"
       inkscape:connector-curvature="0" />
    <path
       style="opacity:1;fill:#000000;fill-opacity:1;stroke:#000000;stroke-width:0.18215846;stroke-linecap:square;stroke-miterlimit:4;stroke-dasharray:none;stroke-dashoffset:0;stroke-opacity:1;paint-order:markers fill stroke;enable-background:new"
       id="path1840-0-8"
       d="m -198.95146,235.12905 c -0.16334,0.10494 -0.31501,0.2202 -0.46674,0.33525 -0.29298,0.22441 -0.576,0.45719 -0.85815,0.69067 -0.31768,0.26351 -0.63122,0.53046 -0.94319,0.79867 -0.31458,0.27038 -0.62632,0.54306 -0.92976,0.82248 -0.299,0.27268 -0.58086,0.55893 -0.86039,0.84695 -0.27552,0.28428 -0.52985,0.58467 -0.78215,0.88647 -0.22762,0.27411 -0.45386,0.54925 -0.68225,0.82277 -0.2006,0.2405 -0.40576,0.4776 -0.61342,0.71281 -0.18146,0.20499 -0.3666,0.40719 -0.55259,0.60873 -0.15227,0.16462 -0.30677,0.32753 -0.46215,0.48974 -0.12173,0.12697 -0.24447,0.25312 -0.36762,0.37897 -0.0932,0.0955 -0.18745,0.19015 -0.28181,0.28472 -0.0717,0.0718 -0.14327,0.14351 -0.21582,0.21451 -0.0305,0.0298 -0.0605,0.0601 -0.091,0.0899 -1.11447,1.09183 -0.48617,1.58698 0.62845,0.49497 v 0 c 0.0308,-0.0299 0.0616,-0.0598 0.0915,-0.0904 0.0728,-0.0717 0.14497,-0.14387 0.21733,-0.21591 0.0951,-0.0949 0.18952,-0.1905 0.28345,-0.28639 0.12371,-0.12651 0.24714,-0.25324 0.3695,-0.38083 0.15641,-0.16331 0.31193,-0.32729 0.46523,-0.49299 0.18717,-0.20289 0.37353,-0.40638 0.55617,-0.61269 0.20907,-0.2369 0.41571,-0.47562 0.6177,-0.71779 0.2284,-0.27347 0.45459,-0.5486 0.68216,-0.82268 0.24848,-0.29727 0.4989,-0.59318 0.7702,-0.87321 0.27629,-0.28475 0.55478,-0.56784 0.85054,-0.83725 0.30144,-0.27744 0.61097,-0.54831 0.92339,-0.8168 0.31076,-0.2672 0.62308,-0.53313 0.93953,-0.79562 0.27939,-0.23114 0.55955,-0.46164 0.84954,-0.68387 0.14723,-0.11176 0.29443,-0.22365 0.45297,-0.32552 1.34882,-0.89554 0.75844,-1.42126 -0.59039,-0.52569 z"
       inkscape:connector-curvature="0" />
  </g>
</svg>
