<?xml version="1.0" encoding="UTF-8" standalone="no"?>
<svg
   xmlns:dc="http://purl.org/dc/elements/1.1/"
   xmlns:cc="http://creativecommons.org/ns#"
   xmlns:rdf="http://www.w3.org/1999/02/22-rdf-syntax-ns#"
   xmlns:svg="http://www.w3.org/2000/svg"
   xmlns="http://www.w3.org/2000/svg"
   xmlns:sodipodi="http://sodipodi.sourceforge.net/DTD/sodipodi-0.dtd"
   xmlns:inkscape="http://www.inkscape.org/namespaces/inkscape"
   sodipodi:docname="mendelianinheritance.svg"
   inkscape:version="1.0 (4035a4fb49, 2020-05-01)"
   id="svg3124"
   version="1.1"
   viewBox="0 0 150.52 150.52"
   height="150.52mm"
   width="150.52mm">
  <defs
     id="defs3118" />
  <sodipodi:namedview
     inkscape:window-maximized="1"
     inkscape:window-y="34"
     inkscape:window-x="0"
     inkscape:window-height="838"
     inkscape:window-width="1600"
     showgrid="false"
     inkscape:document-rotation="0"
     inkscape:current-layer="layer1"
     inkscape:document-units="mm"
     inkscape:cy="259.86759"
     inkscape:cx="312.82422"
     inkscape:zoom="0.94236332"
     inkscape:pageshadow="2"
     inkscape:pageopacity="0.0"
     borderopacity="1.0"
     bordercolor="#666666"
     pagecolor="#ffffff"
     id="base" />
  <metadata
     id="metadata3121">
    <rdf:RDF>
      <cc:Work
         rdf:about="">
        <dc:format>image/svg+xml</dc:format>
        <dc:type
           rdf:resource="http://purl.org/dc/dcmitype/StillImage" />
        <dc:title></dc:title>
      </cc:Work>
    </rdf:RDF>
  </metadata>
  <g
     transform="translate(168.48365,43.538167)"
     id="layer1"
     inkscape:groupmode="layer"
     inkscape:label="Layer 1">
    <path
       sodipodi:nodetypes="sccccccccccccss"
       inkscape:connector-curvature="0"
       d="m -128.64841,46.472724 h 4.16021 11.65007 16.030268 15.12192 11.950488 8.152208 c 11.353747,0.165714 11.314774,0.991473 0,0.991473 h -8.152208 -11.950488 -15.12192 -16.030268 -11.65007 -4.16021 c -3.25514,0 -3.25514,-0.991473 0,-0.991473 z"
       id="path1801-5-3-9-8-9"
       style="opacity:1;fill:#ffa669;fill-opacity:1;stroke:#ff9243;stroke-width:1;stroke-linecap:square;stroke-miterlimit:4;stroke-dasharray:none;stroke-dashoffset:0;stroke-opacity:1;paint-order:markers fill stroke;enable-background:new" />
    <path
       sodipodi:nodetypes="ccccccccccccccccccccccccc"
       style="opacity:1;fill:#000000;fill-opacity:1;stroke:#000000;stroke-width:0.366294;stroke-linecap:square;stroke-miterlimit:4;stroke-dasharray:none;stroke-dashoffset:0;stroke-opacity:1;paint-order:markers fill stroke"
       id="path3690-7-9-0"
       d="m -81.714196,-2.7142181 c 0.206465,-0.200043 0.409918,-0.4030241 0.612927,-0.60638 0.381989,-0.3822001 0.74171,-0.7844741 1.095037,-1.1917752 0.32594,-0.3719771 0.632649,-0.7587761 0.923664,-1.157166 0.159745,-0.223258 0.309328,-0.453688 0.43626,-0.6963251 0.118624,-0.2456 0.04574,-0.308194 0.561201,0.05527 0.04019,0.0284 -0.0084,0.09658 -0.01418,0.14471 -0.0075,0.06081 -0.01587,0.121528 -0.02395,0.182292 -0.08453,0.5687499 -0.176489,1.1363859 -0.257592,1.7056641 -0.09923,0.699941 -0.17509,1.402649 -0.241327,2.1061981 -0.04846,0.523132 -0.08349,1.047326 -0.107445,1.57206497 -0.172384,3.03029763 -0.634528,3.00763563 -0.522255,-0.02259 v 0 c 0.02441,-0.53273997 0.05982,-1.06493497 0.109122,-1.59602297 0.06696,-0.711406 0.143732,-1.4219631 0.244116,-2.1297271 0.08085,-0.5675002 0.172404,-1.1334032 0.256849,-1.7003791 0.0075,-0.05572 0.0153,-0.111521 0.02206,-0.167406 0.0048,-0.03955 -0.02779,-0.111471 0.0123,-0.1190551 0.640229,-0.120827 0.544279,-0.05402 0.426326,0.2014011 -0.139166,0.264423 -0.300897,0.516631 -0.475883,0.7598909 -0.299504,0.409828 -0.615003,0.8079061 -0.950326,1.1906422 -0.361243,0.416302 -0.729022,0.827461 -1.119518,1.2181081 -0.204664,0.20499 -0.40975,0.4095869 -0.61784,0.6112549 -1.306956,1.2745681 -1.676613,0.914058 -0.369677,-0.3605099 z"
       inkscape:connector-curvature="0" />
    <path
       style="opacity:1;fill:#000000;fill-opacity:1;stroke:#000000;stroke-width:0.366294;stroke-linecap:square;stroke-miterlimit:4;stroke-dasharray:none;stroke-dashoffset:0;stroke-opacity:1;paint-order:markers fill stroke"
       id="path3680-5-7-8"
       d="m -72.582409,35.806256 c -0.02526,-0.216268 -0.03822,-0.434232 -0.05202,-0.651785 -0.03024,-0.342975 -0.03784,-0.679226 0.0232,-1.017431 0.156458,-0.525498 0.55383,-0.796582 0.965222,-1.018788 0.481291,-0.239573 0.990708,-0.330929 1.510813,-0.317642 0.533685,0.03536 0.946804,0.25453 1.342278,0.660572 0.35528,0.41806 0.51587,0.958783 0.624319,1.518364 0.114027,0.667447 -0.02188,1.242413 -0.266185,1.843105 -0.286384,0.627649 -0.7153,1.134851 -1.154706,1.619176 -0.463204,0.500327 -0.97806,0.927754 -1.508307,1.325804 -0.439594,0.319812 -0.909381,0.576914 -1.386765,0.810155 -0.27737,0.136664 -0.563971,0.243413 -0.855483,0.330438 -0.213211,0.06358 -0.161229,0.09916 -0.09525,-0.568689 7.4e-5,0 0.2172,-0.02464 0.328711,-0.03723 0.353608,-0.04009 0.708118,-0.0676 1.062683,-0.0925 0.388346,-0.02678 0.777124,-0.04393 1.165987,-0.05723 0.304679,-0.0102 0.6095,-0.01456 0.914282,-0.0159 0.206409,0 0.412792,0.0027 0.619155,0.0054 0.137042,0.0027 0.274073,0.0054 0.411101,0.0089 0.06123,0.0027 0.03137,0 0.08959,0.0027 1.820564,0.04474 1.809652,0.642194 -0.0109,0.597424 v 0 c -0.05833,-0.0027 -0.02865,0 -0.0894,-0.0027 -0.135924,-0.0036 -0.271837,-0.0062 -0.407767,-0.0089 -0.203226,-0.0036 -0.406452,-0.0062 -0.609715,-0.0054 -0.300435,0.0027 -0.600823,0.0062 -0.901116,0.01563 -0.383539,0.01313 -0.766992,0.02992 -1.150051,0.05643 -0.348367,0.02437 -0.696659,0.05143 -1.044069,0.09083 -0.09466,0.01071 -0.331351,0.04421 -0.334337,0.03786 -0.263716,-0.562894 -0.316109,-0.53316 -0.07719,-0.605371 0.267189,-0.07965 0.529852,-0.177068 0.783997,-0.302498 0.449709,-0.219339 0.89243,-0.46086 1.306845,-0.76117 0.503755,-0.377655 0.993123,-0.782921 1.433459,-1.257459 0.394159,-0.433402 0.782467,-0.884464 1.044445,-1.443251 0.193,-0.462189 0.318194,-0.938308 0.228151,-1.456092 -0.08246,-0.43783 -0.19686,-0.869043 -0.466763,-1.204454 -0.284649,-0.30715 -0.618075,-0.481485 -1.010646,-0.506639 -0.440994,-0.01643 -0.87267,0.06429 -1.281847,0.263111 -0.261283,0.137546 -0.546334,0.291952 -0.677998,0.606834 -0.05973,0.277675 -0.02875,0.560127 -0.01216,0.842693 0.01258,0.199392 0.02471,0.39906 0.04639,0.597433 0.299373,2.083919 -0.208673,2.182141 -0.508038,0.09825 z"
       inkscape:connector-curvature="0" />
    <path
       style="opacity:1;fill:#000000;fill-opacity:1;stroke:#000000;stroke-width:0.366294;stroke-linecap:square;stroke-miterlimit:4;stroke-dasharray:none;stroke-dashoffset:0;stroke-opacity:1;paint-order:markers fill stroke"
       id="path3682-3-7-8"
       d="m -101.73821,85.006251 c -0.0776,-0.167968 -0.12675,-0.349635 -0.1702,-0.532159 -0.0801,-0.314892 -0.0963,-0.635989 -0.0738,-0.961061 0.0328,-0.376923 0.16888,-0.692895 0.39409,-0.964685 0.2647,-0.269735 0.60168,-0.368834 0.94176,-0.437027 0.37079,-0.06313 0.732478,0.0096 1.082868,0.147057 0.32045,0.136708 0.57603,0.379951 0.79253,0.676403 0.17832,0.262442 0.27706,0.569457 0.3376,0.890804 0.0436,0.265263 0.0388,0.534999 0.02,0.802629 -0.0145,0.183246 -0.0442,0.364234 -0.0806,0.543302 -0.0112,0.03286 -0.014,0.06884 -0.0236,0.102306 -0.004,0.01045 0.008,-0.02134 0.007,-0.03224 -0.007,-0.05125 -9.4e-4,-0.110119 -0.0289,-0.151503 -0.085,-0.129948 -0.11081,-0.126588 -0.19904,-0.141084 0.17738,-0.05108 0.35622,-0.09498 0.53555,-0.13602 0.29323,-0.06536 0.58911,-0.113267 0.88549,-0.155262 0.2652,-0.04376 0.53125,-0.06053 0.79813,-0.03331 0.343229,0.04867 0.509588,0.230537 0.646518,0.584013 0.120734,0.44617 0.132472,0.918189 0.130236,1.381673 -0.007,0.542733 -0.113188,1.069882 -0.271596,1.578664 -0.163536,0.487531 -0.422648,0.910682 -0.734028,1.287605 -0.28856,0.338332 -0.64888,0.553519 -1.03079,0.718227 -0.30674,0.124715 -0.62813,0.174845 -0.95178,0.187936 -0.2516,0.0045 -0.50183,-0.02902 -0.75052,-0.06867 -0.22458,-0.02687 -0.43773,-0.09958 -0.642058,-0.207124 -0.19679,-0.107749 -0.34567,-0.273782 -0.46217,-0.481629 -0.0766,-0.150467 -0.11403,-0.317097 -0.13667,-0.487557 -0.25967,-2.06256 0.25014,-2.146593 0.5098,-0.08403 v 0 c 0.01,0.08993 0.0275,0.178541 0.064,0.259869 0.0585,0.114313 0.13764,0.199695 0.242558,0.25911 0.1572,0.08536 0.32226,0.137431 0.49593,0.157665 0.21937,0.03518 0.44005,0.06599 0.66201,0.06331 0.26795,-0.0093 0.53415,-0.04956 0.78857,-0.150923 0.30954,-0.131072 0.6031,-0.300202 0.83803,-0.572474 0.26417,-0.315106 0.48219,-0.671439 0.62239,-1.080462 0.14096,-0.445234 0.232752,-0.907815 0.24129,-1.383434 0.0028,-0.385773 -0.0056,-0.777662 -0.09139,-1.153076 -0.0422,-0.140164 -0.0766,-0.206124 -0.2184,-0.221831 -0.22963,-0.02626 -0.45859,-0.0045 -0.68681,0.03143 -0.28378,0.04009 -0.56705,0.0859 -0.84782,0.148334 -0.18973,0.0433 -0.37807,0.09329 -0.56673,0.142029 -0.30375,0.01173 -0.40746,-0.198258 -0.32668,-0.495425 0.0309,-0.150896 0.0563,-0.303452 0.0689,-0.45792 0.0155,-0.210723 0.0217,-0.423267 -0.0112,-0.632659 -0.0407,-0.228687 -0.10746,-0.448385 -0.23105,-0.637338 -0.1527,-0.216258 -0.33525,-0.393031 -0.56461,-0.49471 -0.26651,-0.108628 -0.542298,-0.167173 -0.825898,-0.122776 -0.23269,0.04492 -0.47117,0.0993 -0.66184,0.269334 -0.1493,0.162494 -0.22389,0.36661 -0.24821,0.600932 -0.0205,0.256727 -0.006,0.508899 0.0577,0.757731 0.0323,0.13811 0.0682,0.275951 0.1252,0.403855 0.87198,1.829398 0.41983,2.111653 -0.45215,0.282219 z"
       inkscape:connector-curvature="0" />
    <path
       sodipodi:nodetypes="cccccccccscc"
       inkscape:connector-curvature="0"
       d="M -114.6405,98.456193 V 93.561749 76.778627 56.852537 c -0.005,-4.927025 0.007,-9.85407 -0.005,-14.781081 -0.26614,-16.622767 0.83849,-15.335559 0.90217,-0.0021 0.0131,4.927922 6.7e-4,9.855864 0.005,14.783785 v 19.926103 16.783136 4.894443 c 0,3.403627 -0.90224,3.403627 -0.90224,0 z"
       id="path1803-7-6-8-6-5"
       style="opacity:1;fill:#ffa669;fill-opacity:1;stroke:#ff9243;stroke-width:1;stroke-linecap:square;stroke-miterlimit:4;stroke-dasharray:none;stroke-dashoffset:0;stroke-opacity:1;paint-order:markers fill stroke;enable-background:new" />
    <text
       transform="scale(0.97947789,1.0209521)"
       xml:space="preserve"
       style="font-style:normal;font-variant:normal;font-weight:bold;font-stretch:normal;font-size:11.2889px;line-height:1.25;font-family:Purisa;-inkscape-font-specification:'Purisa, Bold';font-variant-ligatures:normal;font-variant-caps:normal;font-variant-numeric:normal;font-variant-east-asian:normal;fill:#1db301;fill-opacity:1;stroke:none;stroke-width:0.0799735"
       x="-130.10631"
       y="62.316883"
       id="text1728-9-6-83-4-0"><tspan
         style="font-style:normal;font-variant:normal;font-weight:bold;font-stretch:normal;font-size:11.2889px;font-family:Purisa;-inkscape-font-specification:'Purisa, Bold';font-variant-ligatures:normal;font-variant-caps:normal;font-variant-numeric:normal;font-variant-east-asian:normal;stroke-width:0.0799735"
         y="62.316883"
         x="-130.10631"
         sodipodi:role="line"
         id="tspan3083">A</tspan></text>
    <path
       style="opacity:1;fill:#ffa669;fill-opacity:1;stroke:#ff9243;stroke-width:1;stroke-linecap:square;stroke-miterlimit:4;stroke-dasharray:none;stroke-dashoffset:0;stroke-opacity:1;paint-order:markers fill stroke;enable-background:new"
       id="path1803-7-6-9-8-0-3"
       d="M -85.819065,98.456193 V 93.561749 76.778627 56.852537 c -0.005,-4.927025 0.007,-9.85407 -0.005,-14.781081 -0.26615,-16.622767 0.83849,-15.335559 0.90217,-0.0021 0.0131,4.927922 6.7e-4,9.855864 0.005,14.783785 v 19.926103 16.783136 4.894443 c 0,3.403627 -0.90224,3.403627 -0.90224,0 z"
       inkscape:connector-curvature="0"
       sodipodi:nodetypes="cccccccccscc" />
    <path
       style="opacity:1;fill:#ffa669;fill-opacity:1;stroke:#ff9243;stroke-width:1;stroke-linecap:square;stroke-miterlimit:4;stroke-dasharray:none;stroke-dashoffset:0;stroke-opacity:1;paint-order:markers fill stroke;enable-background:new"
       id="path1801-5-3-1-9-3-8"
       d="m -128.64841,73.156345 h 4.16021 11.65007 16.030268 15.12192 11.950488 8.152208 c 11.353747,0.165714 11.314774,0.991466 0,0.991466 h -8.152208 -11.950488 -15.12192 -16.030268 -11.65007 -4.16021 c -3.25514,0 -3.25514,-0.991466 0,-0.991466 z"
       inkscape:connector-curvature="0"
       sodipodi:nodetypes="sccccccccccccss" />
    <text
       transform="scale(0.97947789,1.0209521)"
       id="text1728-9-6-8-3-2-5"
       y="88.580956"
       x="-130.34705"
       style="font-style:normal;font-variant:normal;font-weight:bold;font-stretch:normal;font-size:11.2889px;line-height:1.25;font-family:Purisa;-inkscape-font-specification:'Purisa, Bold';font-variant-ligatures:normal;font-variant-caps:normal;font-variant-numeric:normal;font-variant-east-asian:normal;fill:#1db301;fill-opacity:1;stroke:none;stroke-width:0.0799735"
       xml:space="preserve"><tspan
         style="font-style:normal;font-variant:normal;font-weight:bold;font-stretch:normal;font-size:11.2889px;font-family:Purisa;-inkscape-font-specification:'Purisa, Bold';font-variant-ligatures:normal;font-variant-caps:normal;font-variant-numeric:normal;font-variant-east-asian:normal;stroke-width:0.0799735"
         y="88.580956"
         x="-130.34705"
         sodipodi:role="line"
         id="tspan3085">a</tspan></text>
    <text
       transform="scale(0.97947789,1.0209521)"
       id="text1728-9-6-8-1-8-3-4-1"
       y="40.244881"
       x="-106.4101"
       style="font-style:normal;font-variant:normal;font-weight:bold;font-stretch:normal;font-size:11.2889px;line-height:1.25;font-family:Purisa;-inkscape-font-specification:'Purisa, Bold';font-variant-ligatures:normal;font-variant-caps:normal;font-variant-numeric:normal;font-variant-east-asian:normal;fill:#1db301;fill-opacity:1;stroke:none;stroke-width:0.0799735"
       xml:space="preserve"><tspan
         style="font-style:normal;font-variant:normal;font-weight:bold;font-stretch:normal;font-size:11.2889px;font-family:Purisa;-inkscape-font-specification:'Purisa, Bold';font-variant-ligatures:normal;font-variant-caps:normal;font-variant-numeric:normal;font-variant-east-asian:normal;stroke-width:0.0799735"
         y="40.244881"
         x="-106.4101"
         sodipodi:role="line"
         id="tspan3087">A</tspan></text>
    <text
       transform="scale(0.97947789,1.0209521)"
       id="text1728-9-6-83-4-2-8"
       y="62.316883"
       x="-110.506"
       style="font-style:normal;font-variant:normal;font-weight:bold;font-stretch:normal;font-size:11.2889px;line-height:1.25;font-family:Purisa;-inkscape-font-specification:'Purisa, Bold';font-variant-ligatures:normal;font-variant-caps:normal;font-variant-numeric:normal;font-variant-east-asian:normal;fill:#1db301;fill-opacity:1;stroke:none;stroke-width:0.0799735"
       xml:space="preserve"><tspan
         style="font-style:normal;font-variant:normal;font-weight:bold;font-stretch:normal;font-size:11.2889px;font-family:Purisa;-inkscape-font-specification:'Purisa, Bold';font-variant-ligatures:normal;font-variant-caps:normal;font-variant-numeric:normal;font-variant-east-asian:normal;stroke-width:0.0799735"
         y="62.316883"
         x="-110.506"
         sodipodi:role="line"
         id="tspan3081">AA</tspan></text>
    <text
       transform="scale(0.97947789,1.0209521)"
       xml:space="preserve"
       style="font-style:normal;font-variant:normal;font-weight:bold;font-stretch:normal;font-size:11.2889px;line-height:1.25;font-family:Purisa;-inkscape-font-specification:'Purisa, Bold';font-variant-ligatures:normal;font-variant-caps:normal;font-variant-numeric:normal;font-variant-east-asian:normal;fill:#1db301;fill-opacity:1;stroke:none;stroke-width:0.0799735"
       x="-80.680191"
       y="88.580956"
       id="text1728-9-6-83-4-2-7-0"><tspan
         style="font-style:normal;font-variant:normal;font-weight:bold;font-stretch:normal;font-size:11.2889px;font-family:Purisa;-inkscape-font-specification:'Purisa, Bold';font-variant-ligatures:normal;font-variant-caps:normal;font-variant-numeric:normal;font-variant-east-asian:normal;stroke-width:0.0799735"
         y="88.580956"
         x="-80.680191"
         sodipodi:role="line"
         id="tspan3089">aa</tspan></text>
    <path
       sodipodi:nodetypes="sscsssscccsssscssssccsssccscsssssss"
       id="path1307-2-4"
       d="m -130.68795,-24.103224 c -0.12858,-0.131731 -0.172,-0.362782 -0.172,-0.915348 v -0.73914 h -0.57634 c -0.47334,0 -0.62192,-0.04224 -0.83143,-0.236501 -0.32171,-0.298258 -0.32171,-0.481316 0,-0.779574 0.20951,-0.194238 0.35809,-0.2365 0.83143,-0.2365 h 0.57634 l -1.1e-4,-0.602204 -1e-4,-0.602197 -0.59758,-0.162785 c -0.76065,-0.207205 -1.64757,-0.731379 -2.07896,-1.236338 -0.45875,-0.536999 -0.9456,-1.405476 -1.08276,-2.127391 -0.32167,-1.69301 0.7763,-3.571215 2.53309,-4.333143 0.71202,-0.308801 0.82611,-0.329129 1.85007,-0.329683 1.03832,-7e-4 1.12908,0.01618 1.87072,0.344695 1.62324,0.719029 2.2742,1.91164 2.56842,3.342959 0.20966,1.019963 -0.28574,2.095329 -1.07817,2.928324 -0.50693,0.532881 -1.18833,1.145565 -2.03889,1.389729 -0.65912,0.189209 -0.73822,0.301348 -0.67975,0.963635 l 0.007,0.567675 0.68473,-0.142905 c 0.68429,-0.142813 0.95606,0.219366 0.94938,0.620242 -0.007,0.409381 -0.26786,0.57225 -0.98495,0.614589 l -0.67463,0.03979 v 0.744654 c 0,1.496109 -0.27427,1.251644 -0.42716,1.379922 -0.251,0.210602 -0.64798,-0.492553 -0.64798,-0.492553 z m 1.52372,-5.469263 c 0.65045,-0.205468 1.45229,-0.891951 1.79058,-1.532978 0.62349,-1.181459 0.21957,-2.713413 -0.92705,-3.515992 -1.33866,-0.937015 -3.04388,-0.832281 -4.18922,0.304555 -2.12032,2.104576 -0.92735,3.9571 1.15442,4.699624 0.64727,0.230868 1.52491,0.248976 2.17127,0.04476 z"
       style="fill:#fa414f;fill-opacity:1;stroke-width:0.100069" />
    <path
       sodipodi:nodetypes="ssssscssssssssccccssssssssssss"
       id="path1307-8-4"
       d="m -62.111776,-23.587628 c -1.43715,-0.200571 -2.96629,-1.321835 -3.58531,-2.628988 -0.49937,-1.054491 -0.70041,-2.139167 -0.37934,-3.172467 0.36915,-1.188037 1.38062,-2.289239 2.62466,-2.883632 1.41365,-0.675422 3.14538,-0.624214 4.49653,0.132986 l 0.47745,0.267568 c 0.41119,-0.724927 0.85854,-0.831545 1.28781,-1.247308 0.7083,-0.68602 1.23151,-1.247307 1.1627,-1.247307 -0.0688,0 -0.34298,0.05303 -0.60922,0.11784 -0.72717,0.17702 -1.44465,-0.0049 -1.28519,-0.594057 0.0801,-0.296219 0.66726,-0.757816 2.6088,-1.249374 2.69736,-0.68291 2.78403,-0.501154 2.09005,1.941924 -0.25463,0.896378 -0.53454,1.795425 -0.62205,1.997873 -0.19833,0.458872 -0.60706,0.587641 -1.02499,0.322909 -0.27788,-0.176025 -0.28793,-0.215401 -0.21646,-0.848252 0.018,-0.266763 0.23182,-1.46011 -0.0986,-0.710098 l -1.07342,1.24674 -1.24695,1.200297 0.28258,0.472412 c 0.73885,1.235175 0.79997,2.470861 0.39855,3.63562 -0.68888,1.99877 -2.76393,3.597525 -5.28762,3.245314 z m 1.97827,-1.541559 c 0.89103,-0.354271 1.35846,-0.76377 1.77495,-1.55498 0.3052,-0.579788 0.35836,-0.796162 0.35796,-1.456866 -10e-4,-2.06981 -1.52035,-3.672187 -3.63387,-3.464267 -1.16825,0.114926 -2.68753,1.199876 -2.96894,2.041613 -0.14701,0.43979 -0.22802,1.030527 -0.19497,1.593327 0.0271,0.461443 0.24157,0.913141 0.43372,1.29144 0.39556,0.778747 0.97886,1.535205 1.77726,1.804167 0.74139,0.249754 1.68331,0.05191 2.45389,-0.254434 z"
       style="fill:#fa414f;fill-opacity:1;stroke-width:0.109757" />
    <text
       xml:space="preserve"
       style="font-style:normal;font-variant:normal;font-weight:bold;font-stretch:normal;font-size:11.2889px;line-height:1.25;font-family:Purisa;-inkscape-font-specification:'Purisa, Bold';font-variant-ligatures:normal;font-variant-caps:normal;font-variant-numeric:normal;font-variant-east-asian:normal;fill:#00887a;fill-opacity:1;stroke:none;stroke-width:0.0799735"
       x="-163.5069"
       y="46.298325"
       id="text1728-9-6-8-1-8-3-4-1-0"
       transform="scale(0.97947789,1.0209521)"><tspan
         y="46.298325"
         x="-163.5069"
         id="tspan3749"
         sodipodi:role="line">F2</tspan></text>
    <text
       transform="scale(0.97947789,1.0209521)"
       id="text1728-9-6-8-1-8-3-4-1-0-0"
       y="2.0626631"
       x="-161.31302"
       style="font-style:normal;font-variant:normal;font-weight:bold;font-stretch:normal;font-size:11.2889px;line-height:1.25;font-family:Purisa;-inkscape-font-specification:'Purisa, Bold';font-variant-ligatures:normal;font-variant-caps:normal;font-variant-numeric:normal;font-variant-east-asian:normal;fill:#00887a;fill-opacity:1;stroke:none;stroke-width:0.0799735"
       xml:space="preserve"><tspan
         y="2.0626631"
         x="-161.31302"
         id="tspan3769"
         sodipodi:role="line">F1</tspan></text>
    <text
       transform="scale(0.97947789,1.0209521)"
       id="text1728-9-6-8-1-8-3-4-1-0-2"
       y="-25.172827"
       x="-161.05882"
       style="font-style:normal;font-variant:normal;font-weight:bold;font-stretch:normal;font-size:11.2889px;line-height:1.25;font-family:Purisa;-inkscape-font-specification:'Purisa, Bold';font-variant-ligatures:normal;font-variant-caps:normal;font-variant-numeric:normal;font-variant-east-asian:normal;fill:#00887a;fill-opacity:1;stroke:none;stroke-width:0.0799735"
       xml:space="preserve"><tspan
         y="-25.172827"
         x="-161.05882"
         id="tspan3779"
         sodipodi:role="line">P</tspan></text>
    <text
       xml:space="preserve"
       style="font-style:normal;font-variant:normal;font-weight:bold;font-stretch:normal;font-size:11.2889px;line-height:1.25;font-family:Purisa;-inkscape-font-specification:'Purisa, Bold';font-variant-ligatures:normal;font-variant-caps:normal;font-variant-numeric:normal;font-variant-east-asian:normal;fill:#1db301;fill-opacity:1;stroke:none;stroke-width:0.0799735"
       x="-123.52194"
       y="1.774796"
       id="text1728-9-6-8-1-8-3-4-1-4"
       transform="scale(0.97947789,1.0209521)"><tspan
         id="tspan3087-0"
         sodipodi:role="line"
         x="-123.52194"
         y="1.774796"
         style="font-style:normal;font-variant:normal;font-weight:bold;font-stretch:normal;font-size:11.2889px;font-family:Purisa;-inkscape-font-specification:'Purisa, Bold';font-variant-ligatures:normal;font-variant-caps:normal;font-variant-numeric:normal;font-variant-east-asian:normal;stroke-width:0.0799735">Aa x </tspan></text>
    <text
       transform="scale(0.97947789,1.0209521)"
       id="text1728-9-6-8-1-8-3-4-1-4-5"
       y="-25.195404"
       x="-126.10941"
       style="font-style:normal;font-variant:normal;font-weight:bold;font-stretch:normal;font-size:11.2889px;line-height:1.25;font-family:Purisa;-inkscape-font-specification:'Purisa, Bold';font-variant-ligatures:normal;font-variant-caps:normal;font-variant-numeric:normal;font-variant-east-asian:normal;fill:#1db301;fill-opacity:1;stroke:none;stroke-width:0.0799735"
       xml:space="preserve"><tspan
         style="font-style:normal;font-variant:normal;font-weight:bold;font-stretch:normal;font-size:11.2889px;font-family:Purisa;-inkscape-font-specification:'Purisa, Bold';font-variant-ligatures:normal;font-variant-caps:normal;font-variant-numeric:normal;font-variant-east-asian:normal;stroke-width:0.0799735"
         y="-25.195404"
         x="-126.10941"
         sodipodi:role="line"
         id="tspan3087-0-9">AA x aa </tspan></text>
    <path
       inkscape:connector-curvature="0"
       id="path3684-3"
       d="m -73.8083,55.642705 c -0.13052,0 -0.26105,0.54239 -0.26105,1.62716 v 0.92248 c -9.5e-4,0.48974 0.003,0.97948 -0.003,1.46917 -0.005,0.3437 -0.0141,0.68836 -0.0612,1.0281 -0.12059,0 -0.24115,0 -0.36173,0 -0.002,0.008 -0.004,0.0132 -0.005,0.0208 -0.01,0.008 -0.0125,0.0265 -0.0116,0.0537 -0.12359,0.59056 -0.23053,0.4892 0.0439,0.56893 0.0526,0.0171 0.10493,0.0338 0.14873,0.0738 0.15446,0.10345 0.31712,0.12333 0.46705,-0.009 0.0249,-0.0294 0.0466,-0.0605 0.0667,-0.0924 0.0133,0 0.0265,0 0.0398,0 0.34742,0.004 0.69484,0.007 1.04227,0.0112 0.29312,0.004 0.58624,0.006 0.87936,0.008 0.22596,0 0.45187,0.003 0.67784,0.003 -5.6e-4,0.31852 -4e-5,0.63682 0.0137,0.955 0.01,0.20259 0.0268,0.4046 0.0524,0.60523 0.0114,0.0864 0.0242,0.17256 0.0427,0.25724 0.005,0.0191 0.002,0.0102 0.006,0.0273 0.44243,2.10627 0.94924,1.95914 0.50682,-0.14713 -0.005,-0.0234 -0.003,-0.0114 -0.008,-0.0364 -0.0135,-0.0634 -0.023,-0.12779 -0.0315,-0.19238 -0.0233,-0.18069 -0.0385,-0.36272 -0.047,-0.54518 -0.0134,-0.30774 -0.0141,-0.61559 -0.0132,-0.9236 0.0769,0 0.15377,0 0.23065,0 0.18609,0 0.37211,0 0.5582,0 0.13732,0 0.27468,0 0.41201,0 0.0736,6e-5 0.0373,0 0.10849,0 1.84592,-0.003 1.84556,-0.61541 -2.4e-4,-0.61362 -0.0712,-3e-5 -0.035,0 -0.10864,0 -0.13742,0 -0.27491,0 -0.41233,0 -0.186,0 -0.37204,0 -0.55804,0 -0.0767,-3e-5 -0.15334,0 -0.23002,0 v -0.89443 -0.83519 c 0,-2.16949 -0.52209,-2.16949 -0.52209,0 v 0.83519 0.89423 c -0.22489,0 -0.44977,0 -0.67464,-0.003 -0.29257,-0.003 -0.58522,-0.005 -0.87779,-0.008 -0.30306,-0.004 -0.60606,-0.007 -0.90911,-0.01 0.0402,-0.33969 0.0539,-0.68266 0.0573,-1.02568 0.006,-0.49227 0.002,-0.98452 0.003,-1.47683 v -0.922309 c 0,-1.08473 -0.13052,-1.62714 -0.26104,-1.62714 z"
       style="opacity:1;fill:#000000;fill-opacity:1;stroke:#000000;stroke-width:0.282218;stroke-linecap:square;stroke-miterlimit:4;stroke-dasharray:none;stroke-dashoffset:0;stroke-opacity:1;paint-order:markers fill stroke;enable-background:new" />
    <path
       style="fill:#fa414f;fill-opacity:1;stroke-width:0.100069"
       d="m -130.57813,3.4320518 c -0.12858,-0.131731 -0.172,-0.362782 -0.172,-0.915348 v -0.73914 h -0.57634 c -0.47334,0 -0.62192,-0.04224 -0.83143,-0.2365009 -0.32171,-0.2982581 -0.32171,-0.481316 0,-0.77957402 0.20951,-0.19423797 0.35809,-0.23649997 0.83143,-0.23649997 h 0.57634 l -1.1e-4,-0.60220397 -1e-4,-0.60219697 -0.59758,-0.162785 c -0.76065,-0.20720497 -1.64757,-0.73137897 -2.07896,-1.23633797 -0.45875,-0.536999 -0.9456,-1.405476 -1.08276,-2.1273911 -0.32167,-1.6930092 0.7763,-3.5712124 2.53309,-4.3331398 0.71202,-0.308801 0.82611,-0.329129 1.85007,-0.329683 1.03832,-7.01e-4 1.12908,0.01618 1.87072,0.344695 1.62324,0.7190284 2.2742,1.9116379 2.56842,3.342956 0.20966,1.0199628 -0.28574,2.0953289 -1.07817,2.9283239 -0.50693,0.532881 -1.18833,1.145565 -2.03889,1.38972897 -0.65912,0.189209 -0.73822,0.301348 -0.67975,0.96363494 l 0.007,0.56767497 0.68473,-0.14290497 c 0.68429,-0.142813 0.95606,0.21936597 0.94938,0.62024189 -0.007,0.4093811 -0.26786,0.57225 -0.98495,0.614589 l -0.67463,0.03979 v 0.744654 c 0,1.496109 -0.27427,1.251644 -0.42716,1.379922 -0.251,0.210602 -0.64798,-0.492553 -0.64798,-0.492553 z m 1.52372,-5.4692628 c 0.65045,-0.205468 1.45229,-0.891951 1.79058,-1.532978 0.62349,-1.1814589 0.21957,-2.7134123 -0.92705,-3.5159907 -1.33866,-0.9370135 -3.04388,-0.8322795 -4.18922,0.3045547 -2.12032,2.1045748 -0.92735,3.957099 1.15442,4.699623 0.64727,0.230868 1.52491,0.248976 2.17127,0.04476 z"
       id="path1307-2-4-7"
       sodipodi:nodetypes="sscsssscccsssscssssccsssccscsssssss" />
    <path
       style="fill:#fa414f;fill-opacity:1;stroke-width:0.109757"
       d="m -62.001944,3.9476477 c -1.43715,-0.2005709 -2.966291,-1.3218349 -3.58531,-2.628988 -0.499371,-1.05449089 -0.700411,-2.13916683 -0.379342,-3.1724669 0.36915,-1.188037 1.38062,-2.289239 2.624662,-2.8836318 1.41365,-0.6754217 3.14538,-0.6242137 4.49653,0.1329857 l 0.477449,0.267568 c 0.411191,-0.7249267 0.858541,-0.8315447 1.287811,-1.2473074 0.708298,-0.6860187 1.231509,-1.2473051 1.162699,-1.2473051 -0.0688,0 -0.34298,0.05303 -0.609219,0.1178397 -0.727171,0.17702 -1.444652,-0.0049 -1.28519,-0.5940567 0.0801,-0.2962187 0.667258,-0.7578154 2.6088,-1.2493731 2.69736,-0.6829097 2.78403,-0.5011537 2.090049,1.9419228 -0.25463,0.8963774 -0.53454,1.7954231 -0.622049,1.9978708 -0.198331,0.4588721 -0.60706,0.5876411 -1.02499,0.322909 -0.277881,-0.176025 -0.28793,-0.215401 -0.216461,-0.8482517 0.01799,-0.2667627 0.23182,-1.4601081 -0.0986,-0.7100964 l -1.073419,1.2467381 -1.24695,1.2002971 0.28258,0.472412 c 0.738849,1.235175 0.799968,2.47086104 0.39855,3.63561998 -0.68888,1.99877002 -2.76393,3.59752492 -5.287621,3.24531392 z m 1.978269,-1.541559 c 0.891029,-0.354271 1.35846,-0.7637699 1.774949,-1.55497992 0.305202,-0.57978797 0.358362,-0.79616194 0.35796,-1.45686591 -0.0011,-2.06981007 -1.520349,-3.67218717 -3.63387,-3.46426707 -1.168249,0.114926 -2.687529,1.199876 -2.968939,2.041613 -0.147011,0.4397901 -0.228021,1.03052707 -0.194969,1.59332704 0.0271,0.461443 0.24157,0.91314097 0.433718,1.29143994 0.39556,0.77874702 0.97886,1.53520492 1.777262,1.80416702 0.741389,0.2497539 1.683308,0.05191 2.453889,-0.2544341 z"
       id="path1307-8-4-5"
       sodipodi:nodetypes="ssssscssssssssccccssssssssssss" />
    <path
       sodipodi:nodetypes="sscsssscccsssscssssccsssccscsssssss"
       id="path1307-2-4-7-2"
       d="m -139.43797,81.580192 c -0.12858,-0.131731 -0.172,-0.362782 -0.172,-0.915348 v -0.73914 h -0.57634 c -0.47334,0 -0.62192,-0.04224 -0.83143,-0.236501 -0.32171,-0.298258 -0.32171,-0.481316 0,-0.779574 0.20951,-0.194238 0.35809,-0.2365 0.83143,-0.2365 h 0.57634 l -1.1e-4,-0.602204 -1e-4,-0.602197 -0.59758,-0.162785 c -0.76065,-0.207205 -1.64757,-0.731379 -2.07896,-1.236338 -0.45875,-0.536999 -0.9456,-1.405476 -1.08276,-2.127391 -0.32167,-1.693009 0.7763,-3.571213 2.53309,-4.33314 0.71202,-0.308801 0.82611,-0.329129 1.85007,-0.329683 1.03832,-7.01e-4 1.12908,0.01618 1.87072,0.344695 1.62324,0.719028 2.2742,1.911638 2.56842,3.342956 0.20966,1.019963 -0.28574,2.095329 -1.07817,2.928324 -0.50693,0.532881 -1.18833,1.145565 -2.03889,1.389729 -0.65912,0.189209 -0.73822,0.301348 -0.67975,0.963635 l 0.007,0.567675 0.68473,-0.142905 c 0.68429,-0.142813 0.95606,0.219366 0.94938,0.620242 -0.007,0.409381 -0.26786,0.57225 -0.98495,0.614589 l -0.67464,0.03979 v 0.744654 c 0,1.496109 -0.27427,1.251644 -0.42716,1.379922 -0.251,0.210602 -0.64798,-0.492553 -0.64798,-0.492553 z m 1.52372,-5.469263 c 0.65045,-0.205468 1.45229,-0.891951 1.79058,-1.532978 0.62349,-1.181459 0.21957,-2.713412 -0.92705,-3.515991 -1.33866,-0.937013 -3.04388,-0.832279 -4.18922,0.304555 -2.12032,2.104575 -0.92735,3.957099 1.15442,4.699623 0.64727,0.230868 1.52491,0.248976 2.17127,0.04476 z"
       style="fill:#fa414f;fill-opacity:1;stroke-width:0.100069" />
    <path
       sodipodi:nodetypes="ssssscssssssssccccssssssssssss"
       id="path1307-8-4-5-8"
       d="m -86.466897,27.525848 c -1.43715,-0.20057 -2.96629,-1.321834 -3.58531,-2.628988 -0.49937,-1.05449 -0.70041,-2.139167 -0.37934,-3.172467 0.36915,-1.188036 1.38062,-2.289239 2.62466,-2.883631 1.41365,-0.675422 3.14538,-0.624214 4.49653,0.132985 l 0.47745,0.267568 c 0.41119,-0.724926 0.85854,-0.831544 1.28781,-1.247307 0.7083,-0.686019 1.23151,-1.247305 1.1627,-1.247305 -0.0688,0 -0.34298,0.05303 -0.60922,0.11784 -0.72717,0.17702 -1.44465,-0.0049 -1.28519,-0.594057 0.0801,-0.296219 0.66726,-0.757815 2.6088,-1.249372 2.69736,-0.68291 2.78403,-0.501154 2.09005,1.941922 -0.25463,0.896377 -0.53454,1.795423 -0.62205,1.99787 -0.19833,0.458872 -0.60706,0.587641 -1.02499,0.322909 -0.27788,-0.176025 -0.28793,-0.215401 -0.21646,-0.848251 0.018,-0.266763 0.23182,-1.460108 -0.0986,-0.710097 l -1.07342,1.246738 -1.24695,1.200297 0.28258,0.472413 c 0.73885,1.235175 0.79997,2.470861 0.39855,3.63562 -0.68888,1.99877 -2.76393,3.597524 -5.28762,3.245313 z m 1.97827,-1.541559 c 0.89103,-0.354271 1.35846,-0.763769 1.77495,-1.554979 0.3052,-0.579789 0.35836,-0.796162 0.35796,-1.456866 -0.001,-2.06981 -1.52035,-3.672188 -3.63387,-3.464267 -1.16825,0.114926 -2.68753,1.199875 -2.96894,2.041613 -0.14701,0.43979 -0.22802,1.030527 -0.19497,1.593327 0.0271,0.461443 0.24157,0.913141 0.43372,1.29144 0.39556,0.778747 0.97886,1.535204 1.77726,1.804167 0.74139,0.249754 1.68331,0.05191 2.45389,-0.254435 z"
       style="fill:#fa414f;fill-opacity:1;stroke-width:0.109757" />
  </g>
</svg>
