<svg width="150.52mm" height="150.52mm" version="1.1" viewBox="0 0 150.52 150.52" xmlns="http://www.w3.org/2000/svg">
 <g transform="translate(168.48 43.538)">
  <path d="m-128.65 46.473h67.065c11.354 0.16571 11.315 0.99147 0 0.99147h-67.065c-3.2551 0-3.2551-0.99147 0-0.99147z" enable-background="new" fill="#ffa669" stroke="#ff9243" stroke-linecap="square" style="paint-order:markers fill stroke"/>
  <g stroke="#000" stroke-linecap="square" stroke-width=".36629">
   <path d="m-81.714-2.7142c0.20646-0.20004 0.40992-0.40302 0.61293-0.60638 0.38199-0.3822 0.74171-0.78447 1.095-1.1918 0.32594-0.37198 0.63265-0.75878 0.92366-1.1572 0.15974-0.22326 0.30933-0.45369 0.43626-0.69633 0.11862-0.2456 0.04574-0.30819 0.5612 0.05527 0.04019 0.0284-0.0084 0.09658-0.01418 0.14471-0.0075 0.06081-0.01587 0.12153-0.02395 0.18229-0.08453 0.56875-0.17649 1.1364-0.25759 1.7057-0.09923 0.69994-0.17509 1.4026-0.24133 2.1062-0.04846 0.52313-0.08349 1.0473-0.10744 1.5721-0.17238 3.0303-0.63453 3.0076-0.52226-0.02259 0.02441-0.53274 0.05982-1.0649 0.10912-1.596 0.06696-0.71141 0.14373-1.422 0.24412-2.1297 0.08085-0.5675 0.1724-1.1334 0.25685-1.7004 0.0075-0.05572 0.0153-0.11152 0.02206-0.16741 0.0048-0.03955-0.02779-0.11147 0.0123-0.11906 0.64023-0.12083 0.54428-0.05402 0.42633 0.2014-0.13917 0.26442-0.3009 0.51663-0.47588 0.75989-0.2995 0.40983-0.615 0.80791-0.95033 1.1906-0.36124 0.4163-0.72902 0.82746-1.1195 1.2181-0.20466 0.20499-0.40975 0.40959-0.61784 0.61125-1.307 1.2746-1.6766 0.91406-0.36968-0.36051z" style="paint-order:markers fill stroke"/>
   <path d="m-72.582 35.806c-0.02526-0.21627-0.03822-0.43423-0.05202-0.65178-0.03024-0.34298-0.03784-0.67923 0.0232-1.0174 0.15646-0.5255 0.55383-0.79658 0.96522-1.0188 0.48129-0.23957 0.99071-0.33093 1.5108-0.31764 0.53368 0.03536 0.9468 0.25453 1.3423 0.66057 0.35528 0.41806 0.51587 0.95878 0.62432 1.5184 0.11403 0.66745-0.02188 1.2424-0.26618 1.8431-0.28638 0.62765-0.7153 1.1349-1.1547 1.6192-0.4632 0.50033-0.97806 0.92775-1.5083 1.3258-0.43959 0.31981-0.90938 0.57691-1.3868 0.81016-0.27737 0.13666-0.56397 0.24341-0.85548 0.33044-0.21321 0.06358-0.16123 0.09916-0.09525-0.56869 7.4e-5 0 0.2172-0.02464 0.32871-0.03723 0.35361-0.04009 0.70812-0.0676 1.0627-0.0925 0.38835-0.02678 0.77712-0.04393 1.166-0.05723 0.30468-0.0102 0.6095-0.01456 0.91428-0.0159 0.20641 0 0.41279 0.0027 0.61916 0.0054 0.13704 0.0027 0.27407 0.0054 0.4111 0.0089 0.06123 0.0027 0.03137 0 0.08959 0.0027 1.8206 0.04474 1.8097 0.64219-0.0109 0.59742-0.05833-0.0027-0.02865 0-0.0894-0.0027-0.13592-0.0036-0.27184-0.0062-0.40777-0.0089-0.20323-0.0036-0.40645-0.0062-0.60972-0.0054-0.30044 0.0027-0.60082 0.0062-0.90112 0.01563-0.38354 0.01313-0.76699 0.02992-1.1501 0.05643-0.34837 0.02437-0.69666 0.05143-1.0441 0.09083-0.09466 0.01071-0.33135 0.04421-0.33434 0.03786-0.26372-0.56289-0.31611-0.53316-0.07719-0.60537 0.26719-0.07965 0.52985-0.17707 0.784-0.3025 0.44971-0.21934 0.89243-0.46086 1.3068-0.76117 0.50376-0.37766 0.99312-0.78292 1.4335-1.2575 0.39416-0.4334 0.78247-0.88446 1.0444-1.4433 0.193-0.46219 0.31819-0.93831 0.22815-1.4561-0.08246-0.43783-0.19686-0.86904-0.46676-1.2045-0.28465-0.30715-0.61808-0.48148-1.0106-0.50664-0.44099-0.01643-0.87267 0.06429-1.2818 0.26311-0.26128 0.13755-0.54633 0.29195-0.678 0.60683-0.05973 0.27768-0.02875 0.56013-0.01216 0.84269 0.01258 0.19939 0.02471 0.39906 0.04639 0.59743 0.29937 2.0839-0.20867 2.1821-0.50804 0.09825z" style="paint-order:markers fill stroke"/>
   <path d="m-101.74 85.006c-0.0776-0.16797-0.12675-0.34964-0.1702-0.53216-0.0801-0.31489-0.0963-0.63599-0.0738-0.96106 0.0328-0.37692 0.16888-0.6929 0.39409-0.96468 0.2647-0.26974 0.60168-0.36883 0.94176-0.43703 0.37079-0.06313 0.73248 0.0096 1.0829 0.14706 0.32045 0.13671 0.57603 0.37995 0.79253 0.6764 0.17832 0.26244 0.27706 0.56946 0.3376 0.8908 0.0436 0.26526 0.0388 0.535 0.02 0.80263-0.0145 0.18325-0.0442 0.36423-0.0806 0.5433-0.0112 0.03286-0.014 0.06884-0.0236 0.10231-4e-3 0.01045 8e-3 -0.02134 7e-3 -0.03224-7e-3 -0.05125-9.4e-4 -0.11012-0.0289-0.1515-0.085-0.12995-0.11081-0.12659-0.19904-0.14108 0.17738-0.05108 0.35622-0.09498 0.53555-0.13602 0.29323-0.06536 0.58911-0.11327 0.88549-0.15526 0.2652-0.04376 0.53125-0.06053 0.79813-0.03331 0.34323 0.04867 0.50959 0.23054 0.64652 0.58401 0.12073 0.44617 0.13247 0.91819 0.13024 1.3817-7e-3 0.54273-0.11319 1.0699-0.2716 1.5787-0.16354 0.48753-0.42265 0.91068-0.73403 1.2876-0.28856 0.33833-0.64888 0.55352-1.0308 0.71823-0.30674 0.12472-0.62813 0.17484-0.95178 0.18794-0.2516 0.0045-0.50183-0.02902-0.75052-0.06867-0.22458-0.02687-0.43773-0.09958-0.64206-0.20712-0.19679-0.10775-0.34567-0.27378-0.46217-0.48163-0.0766-0.15047-0.11403-0.3171-0.13667-0.48756-0.25967-2.0626 0.25014-2.1466 0.5098-0.08403 0.01 0.08993 0.0275 0.17854 0.064 0.25987 0.0585 0.11431 0.13764 0.1997 0.24256 0.25911 0.1572 0.08536 0.32226 0.13743 0.49593 0.15766 0.21937 0.03518 0.44005 0.06599 0.66201 0.06331 0.26795-0.0093 0.53415-0.04956 0.78857-0.15092 0.30954-0.13107 0.6031-0.3002 0.83803-0.57247 0.26417-0.31511 0.48219-0.67144 0.62239-1.0805 0.14096-0.44523 0.23275-0.90782 0.24129-1.3834 0.0028-0.38577-0.0056-0.77766-0.09139-1.1531-0.0422-0.14016-0.0766-0.20612-0.2184-0.22183-0.22963-0.02626-0.45859-0.0045-0.68681 0.03143-0.28378 0.04009-0.56705 0.0859-0.84782 0.14833-0.18973 0.0433-0.37807 0.09329-0.56673 0.14203-0.30375 0.01173-0.40746-0.19826-0.32668-0.49542 0.0309-0.1509 0.0563-0.30345 0.0689-0.45792 0.0155-0.21072 0.0217-0.42327-0.0112-0.63266-0.0407-0.22869-0.10746-0.44838-0.23105-0.63734-0.1527-0.21626-0.33525-0.39303-0.56461-0.49471-0.26651-0.10863-0.5423-0.16717-0.8259-0.12278-0.23269 0.04492-0.47117 0.0993-0.66184 0.26933-0.1493 0.16249-0.22389 0.36661-0.24821 0.60093-0.0205 0.25673-6e-3 0.5089 0.0577 0.75773 0.0323 0.13811 0.0682 0.27595 0.1252 0.40386 0.87198 1.8294 0.41983 2.1117-0.45215 0.28222z" style="paint-order:markers fill stroke"/>
  </g>
  <path d="m-114.64 98.456v-41.604c-5e-3 -4.927 7e-3 -9.8541-5e-3 -14.781-0.26614-16.623 0.83849-15.336 0.90217-0.0021 0.0131 4.9279 6.7e-4 9.8559 5e-3 14.784v41.604c0 3.4036-0.90224 3.4036-0.90224 0z" enable-background="new" fill="#ffa669" stroke="#ff9243" stroke-linecap="square" style="paint-order:markers fill stroke"/>
  <g transform="scale(.97948 1.021)" fill="#1db301" style="font-variant-caps:normal;font-variant-east-asian:normal;font-variant-ligatures:normal;font-variant-numeric:normal" aria-label="A">
   <path d="m-128.85 62.667q-0.14676 0-0.31609-0.06773t-0.16933-0.21449q0-0.21449 0.23706-0.55316 0.23707-0.34996 0.23707-0.46284 0-0.4064 0.24836-0.54187 0.0452-0.02258 0.13546-0.25964 0.1016-0.24836 0.23707-0.56444 0.13547-0.31609 0.27093-0.46284 0.3048-0.31609 1.1628-2.3481 0.37253-0.86924 1.0386-2.0884 0.66604-1.2192 0.86925-1.3998 0.27093-0.09031 0.32737-0.09031 0.18063 0 0.37254 0.11289 0.19191 0.22578 0.67733 1.3547 0.49671 1.1176 0.49671 1.4337 0.0113 0.22578 0.21449 1.016 0.2032 0.77893 0.28222 1.2418 0.0564 0.42898 0.34996 1.445 0.29351 1.016 0.29351 1.2756 0 0.12418-0.0564 0.18062-0.0564 0.05644-0.24836 0.05644-0.14675 0-0.41769-0.12418-0.18062-0.09031-0.28222-0.23707-0.0903-0.14676-0.13547-0.3048-0.0339-0.15804-0.14675-0.6096-0.1016-0.45156-0.22578-0.88054l-0.21449-0.73378-0.48542 0.05644q-0.7112 0.09031-1.5353 0.14676l-0.8128 0.05644-0.32738 0.48542q-0.88054 1.2869-1.3772 2.4723-0.25964 0.6096-0.69991 0.6096zm4.7188-4.9332q0-0.21449-0.2032-1.0837-0.19191-0.88053-0.33867-1.2305-0.3048 0.42898-0.62089 1.095t-0.48542 1.1176l-0.16933 0.45156 0.74506-0.04516q0.69992-0.04516 0.88054-0.09031 0.19191-0.04516 0.19191-0.21449z" stroke-width=".079974" style="font-variant-caps:normal;font-variant-east-asian:normal;font-variant-ligatures:normal;font-variant-numeric:normal"/>
  </g>
  <path d="m-85.819 98.456v-41.604c-5e-3 -4.927 7e-3 -9.8541-5e-3 -14.781-0.26615-16.623 0.83849-15.336 0.90217-0.0021 0.0131 4.9279 6.7e-4 9.8559 5e-3 14.784v41.604c0 3.4036-0.90224 3.4036-0.90224 0z" enable-background="new" fill="#ffa669" stroke="#ff9243" stroke-linecap="square" style="paint-order:markers fill stroke"/>
  <path d="m-128.65 73.156h67.065c11.354 0.16571 11.315 0.99147 0 0.99147h-67.065c-3.2551 0-3.2551-0.99147 0-0.99147z" enable-background="new" fill="#ffa669" stroke="#ff9243" stroke-linecap="square" style="paint-order:markers fill stroke"/>
  <g fill="#1db301">
   <g transform="scale(.97948 1.021)" style="font-variant-caps:normal;font-variant-east-asian:normal;font-variant-ligatures:normal;font-variant-numeric:normal" aria-label="a">
    <path d="m-126.24 87.283q0-0.13547 0.37254-0.45156 0.37253-0.31609 0.38382-0.4064 0-0.04516-0.0677-0.12418-0.0677-0.07902-0.36125-0.18062-0.28222-0.1016-0.74507-0.1016-0.49671 0-0.86924 0.14676-0.36125 0.14676-0.54187 0.36124t-0.25964 0.39511q-0.079 0.18062-0.079 0.31609 0 0.22578 0.0339 0.29351 0.0452 0.05644 0.21449 0.13547 0.25965 0.1016 0.41769 0.1016 0.24836 0 0.62089-0.12418t0.63218-0.23707zm2.032 0.72249q-0.0226 0.25964-0.2032 0.45156-0.16934 0.18062-0.28223 0.18062-0.0677 0-0.13546-0.02258-0.0564-0.02258-0.11289-0.07902-0.0452-0.06773-0.0903-0.11289-0.0339-0.05644-0.0677-0.15804-0.0226-0.1016-0.0451-0.15804-0.0226-0.06773-0.0452-0.19191-0.0226-0.12418-0.0339-0.18062 0-0.05645-0.0226-0.18062-0.0226-0.12418-0.0226-0.15804-0.36125 0.41769-1.0724 0.8128-0.69991 0.38382-1.1966 0.38382-0.31609 0-0.75636-0.1016-0.44026-0.1016-0.64346-0.24836-0.34996-0.25964-0.34996-1.1063 0-0.49671 0.28222-0.85796 0.28223-0.36124 1.016-0.72249 0.82409-0.41769 1.5466-0.41769 0.31609 0 0.51929 0.07902 0.21449 0.07902 0.32738 0.19191 0.12418 0.1016 0.13547 0.1016 0.18062 0.03387 0.31609 0.14676 0-0.74507-0.0677-1.2418-0.0564-0.508-0.16933-0.74507-0.11289-0.23707-0.22578-0.32738-0.11289-0.09031-0.27093-0.09031-0.54187 0-1.174 0.21449-0.62089 0.21449-1.1289 0.44027-0.49671 0.21449-0.72249 0.21449-0.28222 0-0.28222-0.25964 0-0.15804 0.0677-0.28222 0.0677-0.13547 0.15805-0.22578 0.1016-0.09031 0.3048-0.18062 0.21449-0.1016 0.38382-0.15804 0.18062-0.06773 0.51929-0.18062 0.33867-0.12418 0.58702-0.21449 0.67734-0.23707 1.1853-0.23707 0.9144 0 1.366 0.85796 0.2032 0.38382 0.23706 0.69991 0.0452 0.31609 0.0677 1.8401 0.0226 1.4337 0.1016 2.2239z" stroke-width=".079974" style="font-variant-caps:normal;font-variant-east-asian:normal;font-variant-ligatures:normal;font-variant-numeric:normal"/>
   </g>
   <g transform="scale(.97948 1.021)" style="font-variant-caps:normal;font-variant-east-asian:normal;font-variant-ligatures:normal;font-variant-numeric:normal" aria-label="A">
    <path d="m-105.16 40.595q-0.14676 0-0.31609-0.06773-0.16934-0.06773-0.16934-0.21449 0-0.21449 0.23707-0.55316 0.23707-0.34996 0.23707-0.46284 0-0.4064 0.24835-0.54187 0.0452-0.02258 0.13547-0.25964 0.1016-0.24836 0.23707-0.56444 0.13546-0.31609 0.27093-0.46284 0.3048-0.31609 1.1628-2.3481 0.37253-0.86924 1.0386-2.0884 0.66605-1.2192 0.86925-1.3998 0.27093-0.09031 0.32738-0.09031 0.18062 0 0.37253 0.11289 0.19191 0.22578 0.67734 1.3547 0.49671 1.1176 0.49671 1.4337 0.01129 0.22578 0.21449 1.016 0.2032 0.77893 0.28222 1.2418 0.05644 0.42898 0.34996 1.445 0.29351 1.016 0.29351 1.2756 0 0.12418-0.05644 0.18062-0.05644 0.05644-0.24836 0.05644-0.14676 0-0.41769-0.12418-0.18062-0.09031-0.28222-0.23707-0.09031-0.14676-0.13547-0.3048-0.03387-0.15804-0.14676-0.6096-0.1016-0.45156-0.22578-0.88053l-0.21449-0.73378-0.48542 0.05645q-0.7112 0.09031-1.5353 0.14676l-0.8128 0.05644-0.32738 0.48542q-0.88053 1.2869-1.3772 2.4723-0.25965 0.6096-0.69991 0.6096zm4.7188-4.9332q0-0.21449-0.2032-1.0837-0.19192-0.88054-0.33867-1.2305-0.3048 0.42898-0.62089 1.095t-0.48542 1.1176l-0.16934 0.45156 0.74507-0.04516q0.69991-0.04515 0.88053-0.09031 0.19192-0.04516 0.19192-0.21449z" stroke-width=".079974" style="font-variant-caps:normal;font-variant-east-asian:normal;font-variant-ligatures:normal;font-variant-numeric:normal"/>
   </g>
   <g transform="scale(.97948 1.021)" stroke-width=".079974" style="font-variant-caps:normal;font-variant-east-asian:normal;font-variant-ligatures:normal;font-variant-numeric:normal" aria-label="AA">
    <path d="m-109.25 62.667q-0.14675 0-0.31609-0.06773-0.16933-0.06773-0.16933-0.21449 0-0.21449 0.23707-0.55316 0.23706-0.34996 0.23706-0.46284 0-0.4064 0.24836-0.54187 0.0452-0.02258 0.13546-0.25964 0.10161-0.24836 0.23707-0.56444 0.13547-0.31609 0.27094-0.46284 0.3048-0.31609 1.1628-2.3481 0.37254-0.86924 1.0386-2.0884 0.66605-1.2192 0.86925-1.3998 0.27093-0.09031 0.32737-0.09031 0.18063 0 0.37254 0.11289 0.19191 0.22578 0.67733 1.3547 0.49671 1.1176 0.49671 1.4337 0.0113 0.22578 0.21449 1.016 0.2032 0.77893 0.28223 1.2418 0.0564 0.42898 0.34995 1.445 0.29351 1.016 0.29351 1.2756 0 0.12418-0.0564 0.18062-0.0564 0.05644-0.24836 0.05644-0.14675 0-0.41769-0.12418-0.18062-0.09031-0.28222-0.23707-0.0903-0.14676-0.13547-0.3048-0.0339-0.15804-0.14675-0.6096-0.1016-0.45156-0.22578-0.88054l-0.21449-0.73378-0.48542 0.05644q-0.7112 0.09031-1.5353 0.14676l-0.8128 0.05644-0.32738 0.48542q-0.88054 1.2869-1.3772 2.4723-0.25964 0.6096-0.69991 0.6096zm4.7188-4.9332q0-0.21449-0.2032-1.0837-0.19191-0.88053-0.33867-1.2305-0.3048 0.42898-0.62089 1.095-0.31608 0.66604-0.48542 1.1176l-0.16933 0.45156 0.74507-0.04516q0.69991-0.04516 0.88053-0.09031 0.19191-0.04516 0.19191-0.21449z" style="font-variant-caps:normal;font-variant-east-asian:normal;font-variant-ligatures:normal;font-variant-numeric:normal"/>
    <path d="m-100.04 62.667q-0.14675 0-0.31609-0.06773-0.16933-0.06773-0.16933-0.21449 0-0.21449 0.23707-0.55316 0.23706-0.34996 0.23706-0.46284 0-0.4064 0.24836-0.54187 0.04515-0.02258 0.13547-0.25964 0.1016-0.24836 0.23707-0.56444 0.13547-0.31609 0.27093-0.46284 0.3048-0.31609 1.1628-2.3481 0.37253-0.86924 1.0386-2.0884 0.66605-1.2192 0.86925-1.3998 0.27093-0.09031 0.32738-0.09031 0.18062 0 0.37253 0.11289 0.19191 0.22578 0.67733 1.3547 0.49671 1.1176 0.49671 1.4337 0.01129 0.22578 0.21449 1.016 0.2032 0.77893 0.28222 1.2418 0.05644 0.42898 0.34996 1.445 0.29351 1.016 0.29351 1.2756 0 0.12418-0.05644 0.18062-0.05644 0.05644-0.24836 0.05644-0.14676 0-0.41769-0.12418-0.18062-0.09031-0.28222-0.23707-0.09031-0.14676-0.13547-0.3048-0.03387-0.15804-0.14676-0.6096-0.1016-0.45156-0.22578-0.88054l-0.21449-0.73378-0.48542 0.05644q-0.7112 0.09031-1.5353 0.14676l-0.8128 0.05644-0.32738 0.48542q-0.88053 1.2869-1.3772 2.4723-0.25964 0.6096-0.69992 0.6096zm4.7188-4.9332q0-0.21449-0.2032-1.0837-0.19191-0.88053-0.33867-1.2305-0.3048 0.42898-0.62089 1.095t-0.48542 1.1176l-0.16933 0.45156 0.74507-0.04516q0.69991-0.04516 0.88054-0.09031 0.19191-0.04516 0.19191-0.21449z" style="font-variant-caps:normal;font-variant-east-asian:normal;font-variant-ligatures:normal;font-variant-numeric:normal"/>
   </g>
   <g transform="scale(.97948 1.021)" stroke-width=".079974" style="font-variant-caps:normal;font-variant-east-asian:normal;font-variant-ligatures:normal;font-variant-numeric:normal" aria-label="aa">
    <path d="m-76.571 87.283q0-0.13547 0.37253-0.45156 0.37253-0.31609 0.38382-0.4064 0-0.04516-0.06773-0.12418-0.06773-0.07902-0.36124-0.18062-0.28222-0.1016-0.74507-0.1016-0.49671 0-0.86924 0.14676-0.36124 0.14676-0.54187 0.36124-0.18062 0.21449-0.25964 0.39511-0.07902 0.18062-0.07902 0.31609 0 0.22578 0.03387 0.29351 0.04516 0.05644 0.21449 0.13547 0.25964 0.1016 0.41769 0.1016 0.24836 0 0.62089-0.12418 0.37253-0.12418 0.63218-0.23707zm2.032 0.72249q-0.02258 0.25964-0.2032 0.45156-0.16933 0.18062-0.28222 0.18062-0.06773 0-0.13547-0.02258-0.05644-0.02258-0.11289-0.07902-0.04516-0.06773-0.09031-0.11289-0.03387-0.05644-0.06773-0.15804-0.02258-0.1016-0.04516-0.15804-0.02258-0.06773-0.04516-0.19191-0.02258-0.12418-0.03387-0.18062 0-0.05645-0.02258-0.18062-0.02258-0.12418-0.02258-0.15804-0.36124 0.41769-1.0724 0.8128-0.69991 0.38382-1.1966 0.38382-0.31609 0-0.75636-0.1016t-0.64347-0.24836q-0.34996-0.25964-0.34996-1.1063 0-0.49671 0.28222-0.85796 0.28222-0.36124 1.016-0.72249 0.82409-0.41769 1.5466-0.41769 0.31609 0 0.51929 0.07902 0.21449 0.07902 0.32738 0.19191 0.12418 0.1016 0.13547 0.1016 0.18062 0.03387 0.31609 0.14676 0-0.74507-0.06773-1.2418-0.05644-0.508-0.16933-0.74507-0.11289-0.23707-0.22578-0.32738-0.11289-0.09031-0.27093-0.09031-0.54187 0-1.174 0.21449-0.62089 0.21449-1.1289 0.44027-0.49671 0.21449-0.72249 0.21449-0.28222 0-0.28222-0.25964 0-0.15804 0.06773-0.28222 0.06773-0.13547 0.15804-0.22578 0.1016-0.09031 0.3048-0.18062 0.21449-0.1016 0.38382-0.15804 0.18062-0.06773 0.51929-0.18062 0.33867-0.12418 0.58702-0.21449 0.67733-0.23707 1.1853-0.23707 0.9144 0 1.366 0.85796 0.2032 0.38382 0.23707 0.69991 0.04516 0.31609 0.06773 1.8401 0.02258 1.4337 0.1016 2.2239z" style="font-variant-caps:normal;font-variant-east-asian:normal;font-variant-ligatures:normal;font-variant-numeric:normal"/>
    <path d="m-69.707 87.283q0-0.13547 0.37253-0.45156 0.37253-0.31609 0.38382-0.4064 0-0.04516-0.06773-0.12418-0.06773-0.07902-0.36124-0.18062-0.28222-0.1016-0.74507-0.1016-0.49671 0-0.86925 0.14676-0.36124 0.14676-0.54187 0.36124-0.18062 0.21449-0.25964 0.39511-0.07902 0.18062-0.07902 0.31609 0 0.22578 0.03387 0.29351 0.04516 0.05644 0.21449 0.13547 0.25964 0.1016 0.41769 0.1016 0.24836 0 0.62089-0.12418t0.63218-0.23707zm2.032 0.72249q-0.02258 0.25964-0.2032 0.45156-0.16933 0.18062-0.28222 0.18062-0.06773 0-0.13547-0.02258-0.05645-0.02258-0.11289-0.07902-0.04516-0.06773-0.09031-0.11289-0.03387-0.05644-0.06773-0.15804-0.02258-0.1016-0.04516-0.15804-0.02258-0.06773-0.04516-0.19191-0.02258-0.12418-0.03387-0.18062 0-0.05645-0.02258-0.18062-0.02258-0.12418-0.02258-0.15804-0.36124 0.41769-1.0724 0.8128-0.69991 0.38382-1.1966 0.38382-0.31609 0-0.75636-0.1016t-0.64347-0.24836q-0.34996-0.25964-0.34996-1.1063 0-0.49671 0.28222-0.85796 0.28222-0.36124 1.016-0.72249 0.82409-0.41769 1.5466-0.41769 0.31609 0 0.51929 0.07902 0.21449 0.07902 0.32738 0.19191 0.12418 0.1016 0.13547 0.1016 0.18062 0.03387 0.31609 0.14676 0-0.74507-0.06773-1.2418-0.05644-0.508-0.16933-0.74507-0.11289-0.23707-0.22578-0.32738-0.11289-0.09031-0.27093-0.09031-0.54187 0-1.174 0.21449-0.62089 0.21449-1.1289 0.44027-0.49671 0.21449-0.72249 0.21449-0.28222 0-0.28222-0.25964 0-0.15804 0.06773-0.28222 0.06773-0.13547 0.15804-0.22578 0.1016-0.09031 0.3048-0.18062 0.21449-0.1016 0.38382-0.15804 0.18062-0.06773 0.51929-0.18062 0.33867-0.12418 0.58702-0.21449 0.67733-0.23707 1.1853-0.23707 0.9144 0 1.366 0.85796 0.2032 0.38382 0.23707 0.69991 0.04515 0.31609 0.06773 1.8401 0.02258 1.4337 0.1016 2.2239z" style="font-variant-caps:normal;font-variant-east-asian:normal;font-variant-ligatures:normal;font-variant-numeric:normal"/>
   </g>
  </g>
  <path d="m-130.69-24.103c-0.12858-0.13173-0.172-0.36278-0.172-0.91535v-0.73914h-0.57634c-0.47334 0-0.62192-0.04224-0.83143-0.2365-0.32171-0.29826-0.32171-0.48132 0-0.77957 0.20951-0.19424 0.35809-0.2365 0.83143-0.2365h0.57634l-1.1e-4 -0.6022-1e-4 -0.6022-0.59758-0.16278c-0.76065-0.2072-1.6476-0.73138-2.079-1.2363-0.45875-0.537-0.9456-1.4055-1.0828-2.1274-0.32167-1.693 0.7763-3.5712 2.5331-4.3331 0.71202-0.3088 0.82611-0.32913 1.8501-0.32968 1.0383-7e-4 1.1291 0.01618 1.8707 0.3447 1.6232 0.71903 2.2742 1.9116 2.5684 3.343 0.20966 1.02-0.28574 2.0953-1.0782 2.9283-0.50693 0.53288-1.1883 1.1456-2.0389 1.3897-0.65912 0.18921-0.73822 0.30135-0.67975 0.96364l7e-3 0.56768 0.68473-0.1429c0.68429-0.14281 0.95606 0.21937 0.94938 0.62024-7e-3 0.40938-0.26786 0.57225-0.98495 0.61459l-0.67463 0.03979v0.74465c0 1.4961-0.27427 1.2516-0.42716 1.3799-0.251 0.2106-0.64798-0.49255-0.64798-0.49255zm1.5237-5.4693c0.65045-0.20547 1.4523-0.89195 1.7906-1.533 0.62349-1.1815 0.21957-2.7134-0.92705-3.516-1.3387-0.93702-3.0439-0.83228-4.1892 0.30456-2.1203 2.1046-0.92735 3.9571 1.1544 4.6996 0.64727 0.23087 1.5249 0.24898 2.1713 0.04476z" fill="#fa414f" stroke-width=".10007"/>
  <path d="m-62.112-23.588c-1.4372-0.20057-2.9663-1.3218-3.5853-2.629-0.49937-1.0545-0.70041-2.1392-0.37934-3.1725 0.36915-1.188 1.3806-2.2892 2.6247-2.8836 1.4136-0.67542 3.1454-0.62421 4.4965 0.13299l0.47745 0.26757c0.41119-0.72493 0.85854-0.83154 1.2878-1.2473 0.7083-0.68602 1.2315-1.2473 1.1627-1.2473-0.0688 0-0.34298 0.05303-0.60922 0.11784-0.72717 0.17702-1.4446-0.0049-1.2852-0.59406 0.0801-0.29622 0.66726-0.75782 2.6088-1.2494 2.6974-0.68291 2.784-0.50115 2.09 1.9419-0.25463 0.89638-0.53454 1.7954-0.62205 1.9979-0.19833 0.45887-0.60706 0.58764-1.025 0.32291-0.27788-0.17602-0.28793-0.2154-0.21646-0.84825 0.018-0.26676 0.23182-1.4601-0.0986-0.7101l-1.0734 1.2467-1.247 1.2003 0.28258 0.47241c0.73885 1.2352 0.79997 2.4709 0.39855 3.6356-0.68888 1.9988-2.7639 3.5975-5.2876 3.2453zm1.9783-1.5416c0.89103-0.35427 1.3585-0.76377 1.775-1.555 0.3052-0.57979 0.35836-0.79616 0.35796-1.4569-1e-3 -2.0698-1.5204-3.6722-3.6339-3.4643-1.1682 0.11493-2.6875 1.1999-2.9689 2.0416-0.14701 0.43979-0.22802 1.0305-0.19497 1.5933 0.0271 0.46144 0.24157 0.91314 0.43372 1.2914 0.39556 0.77875 0.97886 1.5352 1.7773 1.8042 0.74139 0.24975 1.6833 0.05191 2.4539-0.25443z" fill="#fa414f" stroke-width=".10976"/>
  <g fill="#00887a" stroke-width=".079974">
   <g transform="scale(.97948 1.021)" style="font-variant-caps:normal;font-variant-east-asian:normal;font-variant-ligatures:normal;font-variant-numeric:normal" aria-label="F2">
    <path d="m-160.62 45.26q0 0.56444-0.0903 0.74507-0.079 0.18062-0.37253 0.18062-0.44027 0-0.56445-0.22578-0.0677-0.19191-0.0677-0.74507 0-0.51929-0.2032-2.0094-0.19191-1.4901-0.19191-3.048v-1.874l0.93698-0.32738q0.93697-0.29351 1.5127-0.29351 0.37253 0 0.75635-0.13547 0.38383-0.13547 1.0386-0.13547 1.0047 0 1.0047 0.36124 0 0.12418-0.0226 0.21449-0.0113 0.07902-0.079 0.14676-0.0565 0.06773-0.13547 0.12418-0.0677 0.04516-0.21449 0.09031-0.14676 0.04516-0.29351 0.07902-0.14676 0.03387-0.4064 0.07902-0.24836 0.04516-0.49671 0.09031-0.23707 0.03387-0.62089 0.11289-0.38383 0.06773-0.74507 0.13547l-1.1289 0.21449v0.64347q0 0.92569 0.079 1.366l0.0677 0.36124 0.64347-0.06773q0.75636-0.09031 1.5014-0.09031 1.0386 0 1.0386 0.31609 0 0.18062-0.3048 0.34996-0.29351 0.15804-0.73377 0.27093-0.42898 0.1016-0.69992 0.15804-0.27093 0.05645-0.41769 0.07902l-0.92569 0.14676 0.1016 1.6595q0.0339 0.84667 0.0339 1.0273z"/>
    <path d="m-148.56 45.113q0.54187 0 0.80151 0.09031 0.27093 0.07902 0.27093 0.36124 0 0.19191-0.079 0.28222-0.079 0.07902-0.3048 0.11289-0.22578 0.02258-0.508 0.02258-0.27093 0-0.80151 0.04516t-1.0837 0.13547q-0.66605 0.11289-1.3321 0.19191-0.65476 0.07902-0.93698 0.11289-0.27094 0.03387-0.34996 0.1016-0.15804 0.11289-0.4064 0.11289-0.25964 0-0.48542-0.13547-0.21449-0.13547-0.21449-0.31609 0-0.23707 0.47413-0.74507 0.47414-0.508 0.79023-0.72249 0.41768-0.29351 1.1853-1.6482 0.77893-1.366 0.77893-2.2126 0-0.27093-0.16933-0.37253-0.15804-0.1016-0.68862-0.1016-0.55316 0-1.0837 0.2032-0.51929 0.2032-0.89182 0.49671-0.37253 0.29351-0.67733 0.58702t-0.51929 0.49671q-0.21449 0.2032-0.3048 0.2032-0.0113-0.02258-0.0565-0.03387t-0.079-0.03387q-0.0226-0.02258-0.0452-0.13547-0.0226-0.12418-0.0226-0.32738 0-0.25964 0.079-0.41769 0.0903-0.15804 0.19191-0.21449 0.11289-0.05644 0.2032-0.12418 0.1016-0.06773 0.12418-0.15804 0.0113-0.07902 0.0564-0.14676 0.0564-0.07902 0.15805-0.15804 0.1016-0.09031 0.19191-0.15804 0.1016-0.06773 0.29351-0.2032 0.19191-0.13547 0.32738-0.22578 0.25964-0.2032 0.85795-0.4064 0.59832-0.21449 1.2982-0.21449 1.1628 0 1.5692 0.6096 0.19192 0.29351 0.19192 0.76764 0 0.89182-0.44027 1.7724-0.99342 1.9643-1.874 2.8448 2.1675-0.33867 3.5108-0.33867z"/>
   </g>
   <g transform="scale(.97948 1.021)" style="font-variant-caps:normal;font-variant-east-asian:normal;font-variant-ligatures:normal;font-variant-numeric:normal" aria-label="F1">
    <path d="m-158.42 1.0241q0 0.56445-0.0903 0.74507-0.079 0.18062-0.37254 0.18062-0.44026 0-0.56444-0.22578-0.0677-0.19191-0.0677-0.74507 0-0.51929-0.2032-2.0094-0.19192-1.4901-0.19192-3.048v-1.874l0.93698-0.32738q0.93698-0.29351 1.5127-0.29351 0.37253 0 0.75635-0.13547 0.38383-0.13547 1.0386-0.13547 1.0047 0 1.0047 0.36124 0 0.12418-0.0226 0.21449-0.0113 0.079022-0.079 0.14676-0.0564 0.067733-0.13546 0.12418-0.0677 0.045156-0.21449 0.090311-0.14676 0.045156-0.29351 0.079022-0.14676 0.033867-0.4064 0.079022-0.24836 0.045156-0.49672 0.090311-0.23706 0.033867-0.62089 0.11289-0.38382 0.067733-0.74506 0.13547l-1.1289 0.21449v0.64347q0 0.92569 0.079 1.366l0.0677 0.36124 0.64347-0.067733q0.75636-0.090311 1.5014-0.090311 1.0386 0 1.0386 0.31609 0 0.18062-0.3048 0.34996-0.29351 0.15804-0.73378 0.27093-0.42897 0.1016-0.69991 0.15804-0.27093 0.056445-0.41769 0.079022l-0.92569 0.14676 0.1016 1.6595q0.0339 0.84667 0.0339 1.0273z"/>
    <path d="m-150.78 2.0401q-0.19191 0-0.29351-0.11289t-0.18063-0.47413q-0.0677-0.36124-0.1016-0.95956-0.0226-0.6096-0.0226-1.6708 0-1.5917-0.0677-2.0997-0.0564 0.056445-0.36124 0.45156-0.29351 0.39511-0.55316 0.63218-0.24835 0.22578-0.45155 0.22578-0.15805 0-0.28223-0.11289-0.11289-0.11289-0.11289-0.29351 0-0.14676 0.0677-0.24836t0.24835-0.29351q0.19191-0.19191 0.31609-0.34996l0.38382-0.49671q0.13547-0.15804 0.33867-0.53058 0.21449-0.37253 0.38382-0.56445 0.18063-0.2032 0.40641-0.2032 0.0113 0 0.0339 0.011289 0.0226 0 0.0452 0 0.29351 0.079022 0.37253 0.7112 0.0565 0.47413 0.13547 2.3481 0.079 1.874 0.079 2.9916 0 0.66605-0.0452 0.82409-0.13546 0.21449-0.33866 0.21449z"/>
   </g>
   <g transform="scale(.97948 1.021)" style="font-variant-caps:normal;font-variant-east-asian:normal;font-variant-ligatures:normal;font-variant-numeric:normal" aria-label="P">
    <path d="m-154.69-32.296q0-0.508-0.98214-0.7112-0.64346-0.13547-0.85795-0.13547-0.2032 0-1.0837 0.16933-0.58702 0.11289-0.7112 0.24836t-0.12418 0.73378q0 0.6096 0.0677 1.3321 0.079 0.7112 0.15804 0.85796 0.0339 0.01129 0.13547 0.01129 0.34995 0 0.99342-0.14676 0.64347-0.14676 1.0612-0.36124 0.21449-0.11289 0.36124-0.25964 0.14676-0.15804 0.15805-0.24836 0.0339-0.28222 0.42898-0.75636 0.39511-0.48542 0.39511-0.73378zm-3.6012-1.8514q0.37253 0 0.93698-0.09031 0.56444-0.1016 0.94826-0.1016 0.15805 0 0.24836 0.01129 0.42898 0.05644 0.6096 0.07902t0.508 0.09031q0.33867 0.06773 0.47414 0.13547 0.14675 0.06773 0.34995 0.19191 0.2032 0.12418 0.28222 0.29351 0.0903 0.15804 0.15805 0.39511 0.0677 0.23707 0.0677 0.54187 0 0.48542-0.14675 1.0837-0.13547 0.58702-0.39512 0.59831-0.0113 0.02258-0.0226 0.09031 0 0.06773 0 0.07902-0.12418 0.34996-0.82409 0.92569-0.69992 0.57573-1.1289 0.65476-0.24836 0.06773-0.34996 0.1016-0.0903 0.03387-0.13547 0.09031-0.0451 0.04516-0.0564 0.04516-0.22578 0.14676-0.85796 0.14676h-0.54186l0.1016 1.8175q0.0564 0.95956 0.0564 1.3547 0 0.55316-0.1016 0.80151t-0.38382 0.37253q-0.079 0.03387-0.16934 0.03387-0.38382 0-0.46284-0.63218-0.12418-0.85796-0.29351-3.206-0.15805-2.3481-0.15805-3.1722v-0.89182l-0.11289 0.06773q-0.24835 0.18062-0.47413 0.18062-0.12418 0-0.24836-0.11289-0.11288-0.11289-0.11288-0.29351 0-0.34996 0.68862-1.0612 0.36124-0.37253 0.56444-0.508 0.21449-0.14676 0.45156-0.14676 0.0903 0 0.22578 0.02258 0.13546 0.01129 0.3048 0.01129z"/>
   </g>
  </g>
  <g transform="scale(.97948 1.021)" fill="#1db301" stroke-width=".079974" style="font-variant-caps:normal;font-variant-east-asian:normal;font-variant-ligatures:normal;font-variant-numeric:normal" aria-label="Aa x ">
   <path d="m-122.27 2.1248q-0.14676 0-0.31609-0.067733-0.16934-0.067733-0.16934-0.21449 0-0.21449 0.23707-0.55316 0.23707-0.34996 0.23707-0.46284 0-0.4064 0.24835-0.54187 0.0452-0.022578 0.13547-0.25964 0.1016-0.24836 0.23707-0.56445 0.13546-0.31609 0.27093-0.46284 0.3048-0.31609 1.1628-2.3481 0.37253-0.86925 1.0386-2.0884 0.66604-1.2192 0.86924-1.3998 0.27093-0.090311 0.32738-0.090311 0.18062 0 0.37253 0.11289 0.19191 0.22578 0.67734 1.3547 0.49671 1.1176 0.49671 1.4337 0.0113 0.22578 0.21449 1.016 0.2032 0.77893 0.28222 1.2418 0.0564 0.42898 0.34996 1.445 0.29351 1.016 0.29351 1.2756 0 0.12418-0.0564 0.18062-0.0564 0.056445-0.24835 0.056445-0.14676 0-0.41769-0.12418-0.18062-0.090311-0.28222-0.23707-0.0903-0.14676-0.13547-0.3048-0.0339-0.15804-0.14676-0.6096-0.1016-0.45156-0.22578-0.88053l-0.21448-0.73378-0.48543 0.056445q-0.7112 0.090311-1.5353 0.14676l-0.8128 0.056445-0.32738 0.48542q-0.88053 1.2869-1.3772 2.4723-0.25965 0.6096-0.69991 0.6096zm4.7188-4.9332q0-0.21449-0.2032-1.0837-0.19192-0.88053-0.33867-1.2305-0.3048 0.42898-0.62089 1.095t-0.48542 1.1176l-0.16934 0.45156 0.74507-0.045156q0.69991-0.045156 0.88053-0.090311 0.19192-0.045156 0.19192-0.21449z" style="font-variant-caps:normal;font-variant-east-asian:normal;font-variant-ligatures:normal;font-variant-numeric:normal"/>
   <path d="m-110.2 0.47657q0-0.13547 0.37253-0.45156 0.37254-0.31609 0.38383-0.4064 0-0.045156-0.0677-0.12418-0.0677-0.079022-0.36124-0.18062-0.28222-0.1016-0.74507-0.1016-0.49671 0-0.86924 0.14676-0.36125 0.14676-0.54187 0.36124t-0.25965 0.39511q-0.079 0.18062-0.079 0.31609 0 0.22578 0.0339 0.29351 0.0451 0.056444 0.21449 0.13547 0.25964 0.1016 0.41769 0.1016 0.24835 0 0.62089-0.12418 0.37253-0.12418 0.63217-0.23707zm2.032 0.72249q-0.0226 0.25964-0.2032 0.45156-0.16933 0.18062-0.28222 0.18062-0.0677 0-0.13547-0.022578-0.0564-0.022578-0.11289-0.079022-0.0451-0.067733-0.0903-0.11289-0.0339-0.056445-0.0677-0.15804-0.0226-0.1016-0.0452-0.15804-0.0226-0.067733-0.0451-0.19191-0.0226-0.12418-0.0339-0.18062 0-0.056444-0.0226-0.18062-0.0226-0.12418-0.0226-0.15804-0.36125 0.41769-1.0724 0.8128-0.69991 0.38382-1.1966 0.38382-0.31609 0-0.75636-0.1016t-0.64347-0.24836q-0.34995-0.25964-0.34995-1.1063 0-0.49671 0.28222-0.85796t1.016-0.72249q0.82409-0.41769 1.5466-0.41769 0.31609 0 0.51929 0.079022 0.21449 0.079022 0.32738 0.19191 0.12418 0.1016 0.13546 0.1016 0.18063 0.033867 0.31609 0.14676 0-0.74507-0.0677-1.2418-0.0564-0.508-0.16933-0.74507-0.11289-0.23707-0.22578-0.32738-0.11289-0.090311-0.27094-0.090311-0.54186 0-1.174 0.21449-0.62089 0.21449-1.1289 0.44027-0.49671 0.21449-0.72249 0.21449-0.28222 0-0.28222-0.25964 0-0.15804 0.0677-0.28222 0.0677-0.13547 0.15805-0.22578 0.1016-0.090311 0.3048-0.18062 0.21448-0.1016 0.38382-0.15804 0.18062-0.067733 0.51929-0.18062 0.33866-0.12418 0.58702-0.21449 0.67733-0.23707 1.1853-0.23707 0.91441 0 1.366 0.85796 0.2032 0.38382 0.23707 0.69991 0.0451 0.31609 0.0677 1.8401 0.0226 1.4337 0.1016 2.2239z" style="font-variant-caps:normal;font-variant-east-asian:normal;font-variant-ligatures:normal;font-variant-numeric:normal"/>
   <path d="m-98.19 1.8312q-0.12418 0-0.3048-0.090311-0.16933-0.090311-0.16933-0.28222 0-0.24836 0.80151-1.3208l0.8128-1.0724-0.45156-0.42898q-0.14676-0.13547-0.45156-0.4064-0.3048-0.28222-0.51929-0.48542t-0.45156-0.45156-0.36124-0.45156q-0.12418-0.21449-0.12418-0.37253 0.02258-0.25964 0.16933-0.44027 0.15804-0.19191 0.34996-0.19191 0.28222 0 0.45156 0.39511 0.07902 0.18062 0.89182 1.016 0.8128 0.83538 1.1402 1.0724 0.27093-0.33867 0.508-0.69991l0.84667-1.2869q0.32738-0.47413 0.57573-0.47413 0.15804 0 0.31609 0.15804 0.15804 0.14676 0.15804 0.31609 0 0.15804-0.28222 0.508-0.27093 0.33867-0.32738 0.508-0.06773 0.22578-0.51929 0.85796-0.44027 0.63218-0.47413 0.68862 0.07902 0.090311 1.016 0.90311 0.94827 0.8128 1.0047 0.99342 0.04516 0.15804 0.04516 0.21449 0 0.18062-0.11289 0.29351-0.1016 0.11289-0.28222 0.11289-0.32738 0-0.64347-0.33867-0.28222-0.28222-0.84667-0.72249-0.55316-0.44027-0.80151-0.58702-0.16933 0.14676-0.57573 0.69991-0.39511 0.54187-0.76764 0.95956-0.37253 0.4064-0.62089 0.4064z" style="font-variant-caps:normal;font-variant-east-asian:normal;font-variant-ligatures:normal;font-variant-numeric:normal"/>
  </g>
  <g transform="scale(.97948 1.021)" fill="#1db301" stroke-width=".079974" style="font-variant-caps:normal;font-variant-east-asian:normal;font-variant-ligatures:normal;font-variant-numeric:normal" aria-label="AA x aa ">
   <path d="m-124.86-24.845q-0.14675 0-0.31608-0.06773-0.16934-0.06773-0.16934-0.21449 0-0.21449 0.23707-0.55316 0.23707-0.34996 0.23707-0.46284 0-0.4064 0.24835-0.54187 0.0452-0.02258 0.13547-0.25964 0.1016-0.24836 0.23707-0.56444 0.13546-0.31609 0.27093-0.46284 0.3048-0.31609 1.1628-2.3481 0.37253-0.86924 1.0386-2.0884 0.66605-1.2192 0.86925-1.3998 0.27093-0.09031 0.32738-0.09031 0.18062 0 0.37253 0.11289 0.19191 0.22578 0.67734 1.3547 0.49671 1.1176 0.49671 1.4337 0.0113 0.22578 0.21449 1.016 0.2032 0.77893 0.28222 1.2418 0.0564 0.42898 0.34995 1.445 0.29352 1.016 0.29352 1.2756 0 0.12418-0.0564 0.18062-0.0564 0.05644-0.24835 0.05644-0.14676 0-0.41769-0.12418-0.18063-0.09031-0.28223-0.23707-0.0903-0.14676-0.13546-0.3048-0.0339-0.15804-0.14676-0.6096-0.1016-0.45156-0.22578-0.88053l-0.21449-0.73378-0.48542 0.05644q-0.7112 0.09031-1.5353 0.14676l-0.8128 0.05644-0.32738 0.48542q-0.88053 1.2869-1.3772 2.4723-0.25965 0.6096-0.69992 0.6096zm4.7188-4.9332q0-0.21449-0.20321-1.0837-0.19191-0.88053-0.33866-1.2305-0.3048 0.42898-0.62089 1.095t-0.48542 1.1176l-0.16934 0.45156 0.74507-0.04516q0.69991-0.04516 0.88053-0.09031 0.19192-0.04516 0.19192-0.21449z" style="font-variant-caps:normal;font-variant-east-asian:normal;font-variant-ligatures:normal;font-variant-numeric:normal"/>
   <path d="m-115.64-24.845q-0.14676 0-0.31609-0.06773-0.16934-0.06773-0.16934-0.21449 0-0.21449 0.23707-0.55316 0.23707-0.34996 0.23707-0.46284 0-0.4064 0.24835-0.54187 0.0452-0.02258 0.13547-0.25964 0.1016-0.24836 0.23707-0.56444 0.13546-0.31609 0.27093-0.46284 0.3048-0.31609 1.1628-2.3481 0.37253-0.86924 1.0386-2.0884 0.66604-1.2192 0.86924-1.3998 0.27094-0.09031 0.32738-0.09031 0.18062 0 0.37253 0.11289 0.19192 0.22578 0.67734 1.3547 0.49671 1.1176 0.49671 1.4337 0.0113 0.22578 0.21449 1.016 0.2032 0.77893 0.28222 1.2418 0.0564 0.42898 0.34996 1.445 0.29351 1.016 0.29351 1.2756 0 0.12418-0.0564 0.18062-0.0564 0.05644-0.24835 0.05644-0.14676 0-0.41769-0.12418-0.18062-0.09031-0.28222-0.23707-0.0903-0.14676-0.13547-0.3048-0.0339-0.15804-0.14676-0.6096-0.1016-0.45156-0.22577-0.88053l-0.21449-0.73378-0.48543 0.05644q-0.7112 0.09031-1.5353 0.14676l-0.8128 0.05644-0.32738 0.48542q-0.88053 1.2869-1.3772 2.4723-0.25965 0.6096-0.69991 0.6096zm4.7188-4.9332q0-0.21449-0.2032-1.0837-0.19191-0.88053-0.33867-1.2305-0.3048 0.42898-0.62089 1.095t-0.48542 1.1176l-0.16934 0.45156 0.74507-0.04516q0.69991-0.04516 0.88054-0.09031 0.19191-0.04516 0.19191-0.21449z" style="font-variant-caps:normal;font-variant-east-asian:normal;font-variant-ligatures:normal;font-variant-numeric:normal"/>
   <path d="m-98.429-25.139q-0.12418 0-0.3048-0.09031-0.16933-0.09031-0.16933-0.28222 0-0.24836 0.80151-1.3208l0.8128-1.0724-0.45156-0.42898q-0.14676-0.13547-0.45156-0.4064-0.3048-0.28222-0.51929-0.48542-0.21449-0.2032-0.45156-0.45156-0.23707-0.24836-0.36124-0.45156-0.12418-0.21449-0.12418-0.37253 0.02258-0.25964 0.16933-0.44027 0.15804-0.19191 0.34996-0.19191 0.28222 0 0.45156 0.39511 0.07902 0.18062 0.89182 1.016 0.8128 0.83538 1.1402 1.0724 0.27093-0.33867 0.508-0.69991l0.84667-1.2869q0.32738-0.47413 0.57573-0.47413 0.15804 0 0.31609 0.15804 0.15804 0.14676 0.15804 0.31609 0 0.15804-0.28222 0.508-0.27093 0.33867-0.32738 0.508-0.06773 0.22578-0.51929 0.85796-0.44027 0.63218-0.47413 0.68862 0.07902 0.09031 1.016 0.90311 0.94827 0.8128 1.0047 0.99342 0.04516 0.15804 0.04516 0.21449 0 0.18062-0.11289 0.29351-0.1016 0.11289-0.28222 0.11289-0.32738 0-0.64347-0.33867-0.28222-0.28222-0.84667-0.72249-0.55316-0.44027-0.80151-0.58702-0.16933 0.14676-0.57573 0.69991-0.39511 0.54187-0.76764 0.95956-0.37253 0.4064-0.62089 0.4064z" style="font-variant-caps:normal;font-variant-east-asian:normal;font-variant-ligatures:normal;font-variant-numeric:normal"/>
   <path d="m-81.801-26.494q0-0.13547 0.37253-0.45156 0.37253-0.31609 0.38382-0.4064 0-0.04516-0.06773-0.12418-0.06773-0.07902-0.36124-0.18062-0.28222-0.1016-0.74507-0.1016-0.49671 0-0.86925 0.14676-0.36124 0.14676-0.54187 0.36124t-0.25964 0.39511q-0.07902 0.18062-0.07902 0.31609 0 0.22578 0.03387 0.29351 0.04515 0.05645 0.21449 0.13547 0.25964 0.1016 0.41769 0.1016 0.24836 0 0.62089-0.12418 0.37253-0.12418 0.63218-0.23707zm2.032 0.72249q-0.02258 0.25964-0.2032 0.45156-0.16933 0.18062-0.28222 0.18062-0.06773 0-0.13547-0.02258-0.05644-0.02258-0.11289-0.07902-0.04515-0.06773-0.09031-0.11289-0.03387-0.05644-0.06773-0.15804-0.02258-0.1016-0.04516-0.15804-0.02258-0.06773-0.04515-0.19191-0.02258-0.12418-0.03387-0.18062 0-0.05644-0.02258-0.18062-0.02258-0.12418-0.02258-0.15804-0.36124 0.41769-1.0724 0.8128-0.69991 0.38382-1.1966 0.38382-0.31609 0-0.75636-0.1016t-0.64347-0.24836q-0.34996-0.25964-0.34996-1.1063 0-0.49671 0.28222-0.85796 0.28222-0.36124 1.016-0.72249 0.82409-0.41769 1.5466-0.41769 0.31609 0 0.51929 0.07902 0.21449 0.07902 0.32738 0.19191 0.12418 0.1016 0.13547 0.1016 0.18062 0.03387 0.31609 0.14676 0-0.74507-0.06773-1.2418-0.05644-0.508-0.16933-0.74507-0.11289-0.23707-0.22578-0.32738-0.11289-0.09031-0.27093-0.09031-0.54187 0-1.174 0.21449-0.62089 0.21449-1.1289 0.44027-0.49671 0.21449-0.72249 0.21449-0.28222 0-0.28222-0.25964 0-0.15804 0.06773-0.28222 0.06773-0.13547 0.15804-0.22578 0.1016-0.09031 0.3048-0.18062 0.21449-0.1016 0.38382-0.15804 0.18062-0.06773 0.51929-0.18062 0.33867-0.12418 0.58702-0.21449 0.67733-0.23707 1.1853-0.23707 0.9144 0 1.366 0.85796 0.2032 0.38382 0.23707 0.69991 0.04515 0.31609 0.06773 1.8401 0.02258 1.4337 0.1016 2.2239z" style="font-variant-caps:normal;font-variant-east-asian:normal;font-variant-ligatures:normal;font-variant-numeric:normal"/>
   <path d="m-74.937-26.494q0-0.13547 0.37253-0.45156 0.37253-0.31609 0.38382-0.4064 0-0.04516-0.06773-0.12418-0.06773-0.07902-0.36124-0.18062-0.28222-0.1016-0.74507-0.1016-0.49671 0-0.86924 0.14676-0.36124 0.14676-0.54187 0.36124-0.18062 0.21449-0.25964 0.39511-0.07902 0.18062-0.07902 0.31609 0 0.22578 0.03387 0.29351 0.04516 0.05645 0.21449 0.13547 0.25964 0.1016 0.41769 0.1016 0.24836 0 0.62089-0.12418t0.63218-0.23707zm2.032 0.72249q-0.02258 0.25964-0.2032 0.45156-0.16933 0.18062-0.28222 0.18062-0.06773 0-0.13547-0.02258-0.05644-0.02258-0.11289-0.07902-0.04516-0.06773-0.09031-0.11289-0.03387-0.05644-0.06773-0.15804-0.02258-0.1016-0.04516-0.15804-0.02258-0.06773-0.04516-0.19191-0.02258-0.12418-0.03387-0.18062 0-0.05644-0.02258-0.18062-0.02258-0.12418-0.02258-0.15804-0.36124 0.41769-1.0724 0.8128-0.69991 0.38382-1.1966 0.38382-0.31609 0-0.75636-0.1016-0.44027-0.1016-0.64347-0.24836-0.34996-0.25964-0.34996-1.1063 0-0.49671 0.28222-0.85796 0.28222-0.36124 1.016-0.72249 0.82409-0.41769 1.5466-0.41769 0.31609 0 0.51929 0.07902 0.21449 0.07902 0.32738 0.19191 0.12418 0.1016 0.13547 0.1016 0.18062 0.03387 0.31609 0.14676 0-0.74507-0.06773-1.2418-0.05644-0.508-0.16933-0.74507-0.11289-0.23707-0.22578-0.32738-0.11289-0.09031-0.27093-0.09031-0.54187 0-1.174 0.21449-0.62089 0.21449-1.1289 0.44027-0.49671 0.21449-0.72249 0.21449-0.28222 0-0.28222-0.25964 0-0.15804 0.06773-0.28222 0.06773-0.13547 0.15804-0.22578 0.1016-0.09031 0.3048-0.18062 0.21449-0.1016 0.38382-0.15804 0.18062-0.06773 0.51929-0.18062 0.33867-0.12418 0.58702-0.21449 0.67733-0.23707 1.1853-0.23707 0.9144 0 1.366 0.85796 0.2032 0.38382 0.23707 0.69991 0.04516 0.31609 0.06773 1.8401 0.02258 1.4337 0.1016 2.2239z" style="font-variant-caps:normal;font-variant-east-asian:normal;font-variant-ligatures:normal;font-variant-numeric:normal"/>
  </g>
  <path d="m-73.808 55.643c-0.13052 0-0.26105 0.54239-0.26105 1.6272v0.92248c-9.5e-4 0.48974 3e-3 0.97948-3e-3 1.4692-5e-3 0.3437-0.0141 0.68836-0.0612 1.0281h-0.36173c-2e-3 8e-3 -4e-3 0.0132-5e-3 0.0208-0.01 8e-3 -0.0125 0.0265-0.0116 0.0537-0.12359 0.59056-0.23053 0.4892 0.0439 0.56893 0.0526 0.0171 0.10493 0.0338 0.14873 0.0738 0.15446 0.10345 0.31712 0.12333 0.46705-9e-3 0.0249-0.0294 0.0466-0.0605 0.0667-0.0924h0.0398c0.34742 4e-3 0.69484 7e-3 1.0423 0.0112 0.29312 4e-3 0.58624 6e-3 0.87936 8e-3 0.22596 0 0.45187 3e-3 0.67784 3e-3 -5.6e-4 0.31852-4e-5 0.63682 0.0137 0.955 0.01 0.20259 0.0268 0.4046 0.0524 0.60523 0.0114 0.0864 0.0242 0.17256 0.0427 0.25724 5e-3 0.0191 2e-3 0.0102 6e-3 0.0273 0.44243 2.1063 0.94924 1.9591 0.50682-0.14713-5e-3 -0.0234-3e-3 -0.0114-8e-3 -0.0364-0.0135-0.0634-0.023-0.12779-0.0315-0.19238-0.0233-0.18069-0.0385-0.36272-0.047-0.54518-0.0134-0.30774-0.0141-0.61559-0.0132-0.9236h0.23065 0.5582 0.41201c0.0736 6e-5 0.0373 0 0.10849 0 1.8459-3e-3 1.8456-0.61541-2.4e-4 -0.61362-0.0712-3e-5 -0.035 0-0.10864 0h-0.41233-0.55804c-0.0767-3e-5 -0.15334 0-0.23002 0v-1.7296c0-2.1695-0.52209-2.1695-0.52209 0v1.7294c-0.22489 0-0.44977 0-0.67464-3e-3 -0.29257-3e-3 -0.58522-5e-3 -0.87779-8e-3 -0.30306-4e-3 -0.60606-7e-3 -0.90911-0.01 0.0402-0.33969 0.0539-0.68266 0.0573-1.0257 6e-3 -0.49227 2e-3 -0.98452 3e-3 -1.4768v-0.92231c0-1.0847-0.13052-1.6271-0.26104-1.6271z" enable-background="new" stroke="#000" stroke-linecap="square" stroke-width=".28222" style="paint-order:markers fill stroke"/>
  <g fill="#fa414f">
   <path d="m-130.58 3.4321c-0.12858-0.13173-0.172-0.36278-0.172-0.91535v-0.73914h-0.57634c-0.47334 0-0.62192-0.04224-0.83143-0.2365-0.32171-0.29826-0.32171-0.48132 0-0.77957 0.20951-0.19424 0.35809-0.2365 0.83143-0.2365h0.57634l-1.1e-4 -0.6022-1e-4 -0.6022-0.59758-0.16278c-0.76065-0.2072-1.6476-0.73138-2.079-1.2363-0.45875-0.537-0.9456-1.4055-1.0828-2.1274-0.32167-1.693 0.7763-3.5712 2.5331-4.3331 0.71202-0.3088 0.82611-0.32913 1.8501-0.32968 1.0383-7.01e-4 1.1291 0.01618 1.8707 0.3447 1.6232 0.71903 2.2742 1.9116 2.5684 3.343 0.20966 1.02-0.28574 2.0953-1.0782 2.9283-0.50693 0.53288-1.1883 1.1456-2.0389 1.3897-0.65912 0.18921-0.73822 0.30135-0.67975 0.96363l7e-3 0.56767 0.68473-0.1429c0.68429-0.14281 0.95606 0.21937 0.94938 0.62024-7e-3 0.40938-0.26786 0.57225-0.98495 0.61459l-0.67463 0.03979v0.74465c0 1.4961-0.27427 1.2516-0.42716 1.3799-0.251 0.2106-0.64798-0.49255-0.64798-0.49255zm1.5237-5.4693c0.65045-0.20547 1.4523-0.89195 1.7906-1.533 0.62349-1.1815 0.21957-2.7134-0.92705-3.516-1.3387-0.93701-3.0439-0.83228-4.1892 0.30455-2.1203 2.1046-0.92735 3.9571 1.1544 4.6996 0.64727 0.23087 1.5249 0.24898 2.1713 0.04476z" stroke-width=".10007"/>
   <path d="m-62.002 3.9476c-1.4372-0.20057-2.9663-1.3218-3.5853-2.629-0.49937-1.0545-0.70041-2.1392-0.37934-3.1725 0.36915-1.188 1.3806-2.2892 2.6247-2.8836 1.4136-0.67542 3.1454-0.62421 4.4965 0.13299l0.47745 0.26757c0.41119-0.72493 0.85854-0.83154 1.2878-1.2473 0.7083-0.68602 1.2315-1.2473 1.1627-1.2473-0.0688 0-0.34298 0.05303-0.60922 0.11784-0.72717 0.17702-1.4447-0.0049-1.2852-0.59406 0.0801-0.29622 0.66726-0.75782 2.6088-1.2494 2.6974-0.68291 2.784-0.50115 2.09 1.9419-0.25463 0.89638-0.53454 1.7954-0.62205 1.9979-0.19833 0.45887-0.60706 0.58764-1.025 0.32291-0.27788-0.17602-0.28793-0.2154-0.21646-0.84825 0.01799-0.26676 0.23182-1.4601-0.0986-0.7101l-1.0734 1.2467-1.247 1.2003 0.28258 0.47241c0.73885 1.2352 0.79997 2.4709 0.39855 3.6356-0.68888 1.9988-2.7639 3.5975-5.2876 3.2453zm1.9783-1.5416c0.89103-0.35427 1.3585-0.76377 1.7749-1.555 0.3052-0.57979 0.35836-0.79616 0.35796-1.4569-0.0011-2.0698-1.5203-3.6722-3.6339-3.4643-1.1682 0.11493-2.6875 1.1999-2.9689 2.0416-0.14701 0.43979-0.22802 1.0305-0.19497 1.5933 0.0271 0.46144 0.24157 0.91314 0.43372 1.2914 0.39556 0.77875 0.97886 1.5352 1.7773 1.8042 0.74139 0.24975 1.6833 0.05191 2.4539-0.25443z" stroke-width=".10976"/>
   <path d="m-139.44 81.58c-0.12858-0.13173-0.172-0.36278-0.172-0.91535v-0.73914h-0.57634c-0.47334 0-0.62192-0.04224-0.83143-0.2365-0.32171-0.29826-0.32171-0.48132 0-0.77957 0.20951-0.19424 0.35809-0.2365 0.83143-0.2365h0.57634l-1.1e-4 -0.6022-1e-4 -0.6022-0.59758-0.16278c-0.76065-0.2072-1.6476-0.73138-2.079-1.2363-0.45875-0.537-0.9456-1.4055-1.0828-2.1274-0.32167-1.693 0.7763-3.5712 2.5331-4.3331 0.71202-0.3088 0.82611-0.32913 1.8501-0.32968 1.0383-7.01e-4 1.1291 0.01618 1.8707 0.3447 1.6232 0.71903 2.2742 1.9116 2.5684 3.343 0.20966 1.02-0.28574 2.0953-1.0782 2.9283-0.50693 0.53288-1.1883 1.1456-2.0389 1.3897-0.65912 0.18921-0.73822 0.30135-0.67975 0.96364l7e-3 0.56768 0.68473-0.1429c0.68429-0.14281 0.95606 0.21937 0.94938 0.62024-7e-3 0.40938-0.26786 0.57225-0.98495 0.61459l-0.67464 0.03979v0.74465c0 1.4961-0.27427 1.2516-0.42716 1.3799-0.251 0.2106-0.64798-0.49255-0.64798-0.49255zm1.5237-5.4693c0.65045-0.20547 1.4523-0.89195 1.7906-1.533 0.62349-1.1815 0.21957-2.7134-0.92705-3.516-1.3387-0.93701-3.0439-0.83228-4.1892 0.30456-2.1203 2.1046-0.92735 3.9571 1.1544 4.6996 0.64727 0.23087 1.5249 0.24898 2.1713 0.04476z" stroke-width=".10007"/>
   <path d="m-86.467 27.526c-1.4372-0.20057-2.9663-1.3218-3.5853-2.629-0.49937-1.0545-0.70041-2.1392-0.37934-3.1725 0.36915-1.188 1.3806-2.2892 2.6247-2.8836 1.4136-0.67542 3.1454-0.62421 4.4965 0.13298l0.47745 0.26757c0.41119-0.72493 0.85854-0.83154 1.2878-1.2473 0.7083-0.68602 1.2315-1.2473 1.1627-1.2473-0.0688 0-0.34298 0.05303-0.60922 0.11784-0.72717 0.17702-1.4446-0.0049-1.2852-0.59406 0.0801-0.29622 0.66726-0.75782 2.6088-1.2494 2.6974-0.68291 2.784-0.50115 2.09 1.9419-0.25463 0.89638-0.53454 1.7954-0.62205 1.9979-0.19833 0.45887-0.60706 0.58764-1.025 0.32291-0.27788-0.17602-0.28793-0.2154-0.21646-0.84825 0.018-0.26676 0.23182-1.4601-0.0986-0.7101l-1.0734 1.2467-1.247 1.2003 0.28258 0.47241c0.73885 1.2352 0.79997 2.4709 0.39855 3.6356-0.68888 1.9988-2.7639 3.5975-5.2876 3.2453zm1.9783-1.5416c0.89103-0.35427 1.3585-0.76377 1.775-1.555 0.3052-0.57979 0.35836-0.79616 0.35796-1.4569-1e-3 -2.0698-1.5204-3.6722-3.6339-3.4643-1.1682 0.11493-2.6875 1.1999-2.9689 2.0416-0.14701 0.43979-0.22802 1.0305-0.19497 1.5933 0.0271 0.46144 0.24157 0.91314 0.43372 1.2914 0.39556 0.77875 0.97886 1.5352 1.7773 1.8042 0.74139 0.24975 1.6833 0.05191 2.4539-0.25444z" stroke-width=".10976"/>
  </g>
 </g>
</svg>
