<svg width="150.59mm" height="150.59mm" version="1.1" viewBox="0 0 150.59 150.59" xmlns="http://www.w3.org/2000/svg">
 <g transform="translate(83.609 -46.325)">
  <g stroke="#000" stroke-linecap="square" stroke-width=".4">
   <path d="m21.127 161.77c-0.0269-0.2422-0.0407-0.4863-0.0554-0.72994-0.0322-0.3841-0.0403-0.76068 0.0247-1.1394 0.1666-0.58851 0.58973-0.8921 1.0278-1.141 0.5125-0.2683 1.0549-0.37061 1.6088-0.35572 0.56828 0.0396 1.0082 0.28505 1.4293 0.73977 0.37829 0.46819 0.5493 1.0738 0.6648 1.7004 0.1214 0.74748-0.0233 1.3914-0.28346 2.0641-0.30495 0.70291-0.76166 1.2709-1.2296 1.8133-0.49322 0.56032-1.0414 1.039-1.6061 1.4848-0.46807 0.35816-0.96832 0.64609-1.4766 0.9073-0.29535 0.15305-0.60053 0.2726-0.91095 0.37006-0.22702 0.0712-0.17166 0.11105-0.1014-0.63688 8e-5 0 0.23127-0.0276 0.35002-0.0417 0.37652-0.0449 0.754-0.0757 1.1316-0.1036 0.41353-0.03 0.82751-0.0492 1.2416-0.0641 0.32443-0.0114 0.64899-0.0163 0.97355-0.0178 0.21977 0 0.43953 3e-3 0.65928 6e-3 0.14592 3e-3 0.29184 6e-3 0.43775 0.01 0.0652 3e-3 0.0334 0 0.0954 3e-3 1.9386 0.0501 1.927 0.7192-0.0116 0.66906-0.0621-3e-3 -0.0305 0-0.0952-3e-3 -0.14472-4e-3 -0.28944-7e-3 -0.43418-0.01-0.21641-4e-3 -0.43282-7e-3 -0.64925-6e-3 -0.3199 3e-3 -0.63978 7e-3 -0.95953 0.0175-0.40841 0.0147-0.81672 0.0335-1.2246 0.0632-0.37095 0.0273-0.74183 0.0576-1.1117 0.10173-0.10081 0.012-0.35284 0.0495-0.35601 0.0424-0.28083-0.63039-0.33662-0.59709-0.0822-0.67796 0.2845-0.0892 0.56419-0.1983 0.83481-0.33877 0.47886-0.24565 0.95028-0.51612 1.3916-0.85244 0.53642-0.42295 1.0575-0.8768 1.5264-1.4082 0.41971-0.48536 0.83319-0.99052 1.1122-1.6163 0.20551-0.5176 0.33883-1.0508 0.24295-1.6307-0.0878-0.49033-0.20963-0.97325-0.49703-1.3489-0.3031-0.34398-0.65814-0.53922-1.0762-0.56739-0.46958-0.0184-0.92924 0.072-1.3649 0.29466-0.27822 0.15404-0.58175 0.32696-0.72195 0.6796-0.0636 0.31096-0.0306 0.62728-0.0129 0.94373 0.0134 0.2233 0.0263 0.44691 0.0494 0.66907 0.31878 2.3338-0.2222 2.4438-0.54097 0.11004z" style="paint-order:markers fill stroke"/>
   <path d="m-46.732 161.88c0.21985-0.22403 0.43649-0.45133 0.65266-0.67908 0.40674-0.42803 0.78978-0.87855 1.166-1.3347 0.34707-0.41659 0.67367-0.84977 0.98355-1.2959 0.1701-0.25004 0.32938-0.50809 0.46453-0.77982 0.12633-0.27504 0.0487-0.34513 0.59759 0.0619 0.0428 0.0318-9e-3 0.10813-0.0151 0.16205-8e-3 0.0681-0.0169 0.13608-0.0255 0.20413-0.09 0.63696-0.18794 1.2726-0.27429 1.9102-0.10567 0.78388-0.18644 1.5708-0.25698 2.3588-0.0516 0.58587-0.0889 1.1729-0.1144 1.7606-0.18357 3.3936-0.67566 3.3683-0.55611-0.0253 0.026-0.59662 0.0637-1.1926 0.11618-1.7874 0.0713-0.79671 0.15305-1.5925 0.25994-2.3851 0.0861-0.63555 0.18358-1.2693 0.2735-1.9043 8e-3 -0.0624 0.0163-0.12489 0.0235-0.18748 5e-3 -0.0443-0.0296-0.12484 0.0131-0.13333 0.68173-0.13531 0.57957-0.0605 0.45397 0.22555-0.14819 0.29613-0.32041 0.57858-0.50673 0.85101-0.31893 0.45897-0.65487 0.90478-1.0119 1.3334-0.38466 0.46621-0.77628 0.92668-1.1921 1.3642-0.21793 0.22957-0.43631 0.4587-0.65789 0.68455-1.3917 1.4274-1.7853 1.0237-0.39364-0.40374z" style="paint-order:markers fill stroke"/>
   <path d="m4.7952 80.585c-0.1371 0-0.27422 0.58345-0.27422 1.7504v0.99231c-1e-3 0.52682 3e-3 1.0536-3e-3 1.5804-5e-3 0.36972-0.0148 0.74048-0.0643 1.1059h-0.37999c-2e-3 9e-3 -4e-3 0.0142-5e-3 0.0224-0.0102 9e-3 -0.0131 0.0285-0.0122 0.0578-0.12983 0.63527-0.24216 0.52624 0.0461 0.61201 0.0552 0.0184 0.11023 0.0364 0.15624 0.0794 0.16225 0.11129 0.33312 0.13267 0.49061-0.0102 0.0262-0.0316 0.049-0.0651 0.0701-0.0994h0.0418c0.36495 4e-3 0.7299 8e-3 1.0949 0.012 0.30791 4e-3 0.61582 6e-3 0.92373 9e-3 0.23736 0 0.47467 3e-3 0.71204 3e-3 -5.3e-4 0.34263-5e-5 0.68503 0.0144 1.0273 0.01 0.21793 0.0281 0.43523 0.055 0.65105 0.012 0.093 0.0254 0.18562 0.0449 0.27672 5e-3 0.0205 2e-3 0.011 6e-3 0.0294 0.46475 2.2657 0.99713 2.1075 0.53239-0.15826-5e-3 -0.0252-3e-3 -0.0123-8e-3 -0.0392-0.0142-0.0682-0.0242-0.13747-0.0331-0.20695-0.0245-0.19437-0.0404-0.39018-0.0494-0.58645-0.0141-0.33104-0.0148-0.6622-0.0139-0.99352h0.24229 0.58637 0.43279c0.0773 6e-5 0.0392 0 0.11397 0 1.9391-3e-3 1.9387-0.66201-2.5e-4 -0.66008-0.0748-3e-5 -0.0368 0-0.11413 0h-0.43313-0.5862c-0.0806-3e-5 -0.16107 0-0.24162 0v-1.8606c0-2.3337-0.54844-2.3337-0.54844 0v1.8604c-0.23623 0-0.47246 0-0.70868-3e-3 -0.30733-3e-3 -0.61474-5e-3 -0.92208-9e-3 -0.31835-4e-3 -0.63663-7e-3 -0.95498-0.0104 0.0422-0.36542 0.0566-0.73435 0.0602-1.1033 6e-3 -0.52955 2e-3 -1.0591 3e-3 -1.5886v-0.99213c0-1.1669-0.13711-1.7503-0.27421-1.7503z" enable-background="new" style="paint-order:markers fill stroke"/>
   <path d="m-58.739 83.034c-0.0826-0.18811-0.1349-0.39156-0.18122-0.59597-0.0853-0.35265-0.10246-0.71225-0.0786-1.0763 0.035-0.42212 0.17981-0.77598 0.41962-1.0804 0.28187-0.30208 0.64066-0.41306 1.0028-0.48943 0.39483-0.0707 0.77996 0.0107 1.1531 0.16469 0.3412 0.1531 0.61336 0.42551 0.84388 0.75751 0.18989 0.29391 0.29502 0.63774 0.35949 0.99762 0.0464 0.29707 0.0413 0.59915 0.0212 0.89887-0.0155 0.20523-0.0471 0.40791-0.0859 0.60845-0.0121 0.0368-0.0147 0.0771-0.0252 0.11457-4e-3 0.0117 9e-3 -0.0239 7e-3 -0.0361-7e-3 -0.0574-1e-3 -0.12332-0.0308-0.16967-0.0905-0.14553-0.11797-0.14176-0.21195-0.158 0.18887-0.0572 0.3793-0.10635 0.57025-0.15233 0.31224-0.0732 0.6273-0.12685 0.9429-0.17388 0.2824-0.049 0.56568-0.0678 0.84987-0.0373 0.36548 0.0545 0.54262 0.25818 0.68842 0.65404 0.12863 0.49967 0.14102 1.0283 0.13873 1.5474-8e-3 0.60781-0.12049 1.1982-0.2892 1.768-0.17414 0.54599-0.45006 1.0199-0.78162 1.442-0.30727 0.3789-0.69094 0.61989-1.0976 0.80435-0.32663 0.13967-0.66885 0.19581-1.0135 0.21047-0.2679 5e-3 -0.53435-0.0325-0.79916-0.0769-0.23912-0.0301-0.46612-0.11152-0.68368-0.23196-0.20955-0.12067-0.36807-0.30661-0.49212-0.53938-0.0816-0.16851-0.12136-0.35512-0.14551-0.54602-0.27651-2.3099 0.26634-2.404 0.54283-0.0941 0.0108 0.10071 0.0293 0.19995 0.0681 0.29103 0.0624 0.12802 0.14653 0.22364 0.25828 0.29018 0.16739 0.0956 0.34316 0.15391 0.52808 0.17657 0.2336 0.0394 0.46856 0.0739 0.70492 0.0709 0.28531-0.0104 0.56877-0.0555 0.83968-0.16902 0.32961-0.14679 0.6422-0.3362 0.89235-0.64112 0.2813-0.35289 0.51345-0.75195 0.66275-1.21 0.15008-0.49862 0.24783-1.0167 0.25693-1.5493 3e-3 -0.43203-6e-3 -0.87091-0.0974-1.2913-0.0449-0.15697-0.0815-0.23084-0.23254-0.24843-0.24452-0.0294-0.48833-5e-3 -0.73135 0.0352-0.30216 0.0449-0.6038 0.0962-0.90277 0.16612-0.20202 0.0485-0.40257 0.10448-0.60346 0.15906-0.32344 0.0132-0.43387-0.22203-0.34786-0.55483 0.0329-0.16899 0.0599-0.33984 0.0734-0.51283 0.0165-0.23599 0.023-0.47402-0.0112-0.70852-0.0433-0.25611-0.11439-0.50215-0.24603-0.71376-0.16261-0.24219-0.35697-0.44016-0.60121-0.55403-0.28377-0.12166-0.57745-0.18722-0.87943-0.1375-0.24777 0.0503-0.50171 0.11121-0.70473 0.30163-0.15897 0.18198-0.23841 0.41057-0.26429 0.67299-0.0218 0.28751-6e-3 0.56992 0.0615 0.84859 0.0344 0.15467 0.0726 0.30904 0.13329 0.45228 0.92851 2.0488 0.44704 2.3649-0.48147 0.31606z" style="paint-order:markers fill stroke"/>
  </g>
  <path d="m-51.508 76.254c-0.20341-0.38635-0.34174-1.3551-0.34933-2.4466-9e-3 -1.2896-0.16815-3.3141-0.27303-3.4728-0.0446-0.06729-0.34507-0.16872-0.6818-0.23009-0.33124-0.06036-0.68763-0.16326-0.79198-0.22867-0.17791-0.11152-0.17155-0.12873 0.10211-0.27628 0.64593-0.34827 3.5372-0.51618 3.8316-0.22252 0.10061 0.1003 0.0375 0.176-0.35552 0.42705-0.26276 0.16783-0.52778 0.41448-0.58892 0.54811-0.0612 0.13364-0.11247 1.0848-0.11407 2.1137-3e-3 1.8777-0.10896 2.9934-0.34387 3.6178-0.15945 0.42377-0.27744 0.46993-0.43523 0.17026z" fill="#ff9243" stroke="#ff9243" stroke-linecap="square" stroke-width=".58601" style="paint-order:markers fill stroke"/>
  <path d="m-12.13 59.592c-0.12556-0.52309-0.20454-2.9343-0.16071-4.906l0.0443-1.9986 0.6837-0.04518c1.0413-0.06879 1.6997-0.05429 1.8205 0.04015 0.15237 0.11909 0.13644 0.51938-0.0248 0.62399-0.0737 0.04781-0.43184 0.1077-0.79588 0.13311l-0.66189 0.0462v0.85306c0 1.1283 0.0322 1.2067 0.53704 1.306 0.39049 0.07684 0.40575 0.0904 0.50372 0.4475 0.11416 0.416 0.0742 0.47798-0.38532 0.59663-0.42324 0.1093-0.62411 0.47429-0.67657 1.2294-0.0548 0.78848 0.0461 0.89351 0.92956 0.96745 0.66891 0.05599 0.73759 0.10984 0.64296 0.50409-0.0763 0.31827-0.20243 0.35537-1.4261 0.41986l-0.96618 0.05092z" stroke="#000" stroke-linecap="square" stroke-width=".52773" style="paint-order:markers fill stroke"/>
  <g fill="none">
   <path d="m-0.6153 70.096c7.1832-5.3366 16.123-8.2658 25.072-8.2147 8.9485 0.05108 17.855 3.0822 24.977 8.5005 6.5525 4.9851 11.621 12.071 13.553 20.075 0.7015 2.9064 0.99162 5.9269 0.67597 8.9-0.31565 2.9731-1.249 5.899-2.866 8.4139-2.1825 3.3945-5.5533 5.9377-9.2827 7.4796-3.7294 1.5419-7.8068 2.1234-11.842 2.0953-8.0709-0.0562-15.911-2.4766-23.851-3.9211-3.1101-0.56573-6.252-0.98405-9.314-1.7696s-6.0725-1.9607-8.5781-3.888c-3.9363-3.0279-6.3605-7.7819-7.0587-12.699s0.23147-9.9747 2.1026-14.575c1.5413-3.7893 3.7187-7.319 6.4135-10.397z" stroke="#32baac" stroke-width="2.3447"/>
   <path d="m0.98188 142.66c5.8894-4.7549 13.448-7.3996 21.017-7.3539 7.5691 0.0457 15.095 2.7813 20.926 7.607 5.3138 4.3971 9.1839 10.459 11.175 17.062 0.75782 2.5132 1.2538 5.1242 1.2157 7.7488-0.03806 2.6247-0.62737 5.2694-1.929 7.5489-1.6138 2.8263-4.2686 4.98-7.2417 6.3039-2.9731 1.3239-6.2539 1.8567-9.5082 1.904-6.5084 0.0948-12.885-1.6914-19.356-2.3944-2.8703-0.31186-5.7644-0.41088-8.6183-0.84777-2.8539-0.43688-5.7051-1.2336-8.1206-2.8151-1.969-1.2892-3.5972-3.0757-4.7786-5.1113s-1.9213-4.3158-2.2517-6.646c-0.66087-4.6605 0.31201-9.4416 2.0954-13.798 1.3509-3.2998 3.1659-6.4093 5.3749-9.2083z" stroke="#f61c2d" stroke-width="2.0201"/>
   <path d="m-18.051 142.4c-5.8894-4.7549-13.448-7.3996-21.017-7.3539-7.5691 0.0457-15.095 2.7813-20.926 7.607-5.3138 4.3971-9.1839 10.459-11.175 17.062-0.75782 2.5132-1.2538 5.1242-1.2157 7.7488 0.03806 2.6247 0.62737 5.2694 1.929 7.5489 1.6138 2.8263 4.2686 4.98 7.2417 6.3039 2.9731 1.3239 6.2539 1.8567 9.5082 1.904 6.5084 0.0948 12.885-1.6914 19.356-2.3944 2.8703-0.31186 5.7644-0.41088 8.6183-0.84777 2.8539-0.43688 5.7051-1.2336 8.1206-2.8151 1.969-1.2892 3.5972-3.0757 4.7786-5.1113 1.1814-2.0356 1.9213-4.3158 2.2517-6.646 0.66087-4.6605-0.31201-9.4416-2.0954-13.798-1.3509-3.2998-3.1659-6.4093-5.3749-9.2083z" stroke="#00887a" stroke-width="2.0201"/>
  </g>
  <g stroke="#000">
   <g stroke-linecap="square">
    <path d="m-8.289 59.627c-0.13115-0.24506-0.15291-1.0738-0.10381-3.9541 0 0-0.0779-2.4445 0.0496-2.7337 0.28662-0.28419 1.1121-0.19134 1.451-0.0237 0.42685 0.21525 0.53206 0.47086 0.57804 1.4043 0.0689 1.3992-0.16254 2.0067-0.89805 2.3572-0.47993 0.22873-0.54303 0.39379-0.59104 1.5461-0.051 1.2244-0.25942 1.8268-0.48571 1.404zm1.2259-3.7586c0.3735-0.3735 0.49843-1.6178 0.21821-2.1734-0.16424-0.32562-0.38202-0.44485-0.67721-0.37077-0.29844 0.0749-0.38168 0.38979-0.39374 1.4897-0.0102 0.93296-7e-3 0.96177 0.14658 1.0856 0.21643 0.17525 0.51281 0.16217 0.70616-0.0312z" enable-background="new" stroke-width=".75462" style="paint-order:markers fill stroke"/>
    <path d="m-0.93889 53.736c-0.0446-0.0673-0.72347 6e-3 -1.0602-0.0555-0.33124-0.0604-0.64396-0.0177-0.74831-0.0831-0.17791-0.11152-0.11334-0.44891 0.16032-0.59646 0.64593-0.34827 3.9447-0.48707 4.2391-0.19341 0.10061 0.10029 0.21215 0.45252-0.18087 0.70356-0.26276 0.16783-1.1099 0.10885-1.1711 0.24249-0.0612 0.13363-0.11247 1.0848-0.11407 2.1137-3e-3 1.8777-0.10896 2.9934-0.34387 3.6178-0.15945 0.42377-0.27744 0.46993-0.43523 0.17026-0.44818-1.4558-0.12923-4.2605-0.34584-5.9193z" enable-background="new" stroke-width=".58601" style="paint-order:markers fill stroke"/>
    <path d="m-4.9107 57.712c0.13456-0.74259 0.17002-2.2512 0.22111-3.0323 0.10937-1.6721 0.1385-1.8268 0.35662-1.8931 0.29199-0.0888 0.34724 0.32323 0.28673 2.138-0.0977 2.9285 0.11395 4.7152-0.33387 4.8092-0.97103 0.5451-0.60353-1.4324-0.53059-2.0218z" stroke-width=".61493" style="paint-order:markers fill stroke"/>
    <path d="m-18.954 59.592c-0.12556-0.52309-0.20454-2.9343-0.16071-4.906l0.0443-1.9986 0.6837-0.0452c1.0413-0.0688 1.6997-0.0543 1.8205 0.0402 0.15237 0.11909 0.13644 0.51938-0.0248 0.62399-0.0737 0.0478-0.43184 0.1077-0.79588 0.13311l-0.66189 0.0462v0.85307c0 1.1283 0.0322 1.2067 0.53704 1.306 0.39049 0.0768 0.40575 0.0904 0.50372 0.4475 0.11416 0.416 0.0742 0.47799-0.38532 0.59663-0.42324 0.1093-0.62411 0.4743-0.67657 1.2294-0.0548 0.78849 0.0461 0.89351 0.92956 0.96746 0.66891 0.056 0.73759 0.10983 0.64296 0.50408-0.0763 0.31827-0.20243 0.35538-1.4261 0.41986l-0.96618 0.0509z" stroke-width=".528" style="paint-order:markers fill stroke"/>
    <path d="m-15.188 59.727c-0.0377-0.0634-0.0822-1.6134-0.0988-3.4444l-0.0302-3.3292 0.20024-0.058c0.11013-0.0319 0.28647-0.0586 0.39187-0.0593 0.19072-1e-3 0.19162 6e-3 0.19037 1.4509-7.9e-4 0.79871-0.0388 2.0467-0.0846 2.7733-0.1052 1.668-0.0412 1.8542 0.63945 1.8599 0.49666 4e-3 0.60004 0.1021 0.50124 0.47506-0.0696 0.26262-0.12963 0.31586-0.41898 0.37145-0.55538 0.1067-1.2155 0.0864-1.2906-0.0397z" stroke-width=".6" style="paint-order:markers fill stroke"/>
   </g>
   <path d="m-23.103 59.566c-0.06669-0.16357-0.12251-1.7684-0.12402-3.5664l-0.0027-3.269 0.46585-0.07684c0.25621-0.04226 0.91236-0.05827 1.4581-0.03556 0.848 0.03527 1.0015 0.08384 1.0556 0.33402 0.06469 0.29903-0.15718 0.37404-1.3706 0.46335-0.44609 0.03283-0.50963 0.10651-0.56338 0.65332-0.2144 1.6346 0.19567 1.4868 0.67664 1.5467 0.82018 0.1022 0.9676 0.75016 0.19604 0.87743-1.1363 0.13732-0.74535 0.44931-0.86333 2.0155-0.0887 1.1774-0.14822 1.3549-0.45448 1.3549-0.19546 0-0.40643-0.13246-0.47369-0.29741z" stroke-linecap="round" stroke-width=".54311" style="paint-order:markers fill stroke"/>
   <path d="m3.269 59.365c-0.42048-0.6418-0.41494-3.6382 0.0096576-5.0912 0.49139-1.6824 1.3983-2.0581 2.0282-0.84016 0.60647 1.1728 0.21492 5.3461-0.57576 6.1368-0.43893 0.43894-1.1006 0.34593-1.4619-0.20548zm1.2726-0.46133c0.44173-0.32299 0.64334-1.378 0.6483-3.3923 0.00483-1.9366-0.20379-2.4099-0.94307-2.1403-0.58694 0.2141-0.82581 1.1317-0.83721 3.2161-0.012941 2.3621 0.27205 2.9453 1.132 2.3165z" stroke-linecap="square" stroke-width=".67603" style="paint-order:markers fill stroke"/>
  </g>
  <g stroke="#000" stroke-linecap="round">
   <path d="m-11.328 51.816c-0.0271-0.04384 0.20386-0.43029 0.35977-0.602 0.17608-0.19392 0.49534-0.40296 0.72262-0.47317 0.09742-0.03009 0.27604-0.06296 0.39693-0.07304 0.27654-0.02307 0.28162-5.3e-4 0.05805 0.25815-0.41217 0.47678-0.78887 0.74264-1.2225 0.86281-0.22883 0.06341-0.28924 0.06864-0.31482 0.02725z" fill="#00887a" stroke-width=".6" style="paint-order:markers fill stroke"/>
   <path d="m3.6126 51.916c-0.0271-0.04384 0.20385-0.43029 0.35977-0.602 0.17608-0.19392 0.49533-0.40296 0.72261-0.47317 0.0974-0.03009 0.27604-0.06296 0.39693-0.07304 0.27654-0.02307 0.28162-5.3e-4 0.0581 0.25815-0.41217 0.47678-0.78887 0.74264-1.2225 0.86281-0.22883 0.06341-0.28924 0.06864-0.31482 0.02725z" stroke-width=".4" style="paint-order:markers fill stroke"/>
   <path d="m5.0563 51.916c-0.0271-0.04384 0.20385-0.43029 0.35977-0.602 0.17608-0.19392 0.49533-0.40296 0.72261-0.47317 0.0974-0.03009 0.27604-0.06296 0.39693-0.07304 0.27654-0.02307 0.28162-5.3e-4 0.0581 0.25815-0.41217 0.47678-0.78887 0.74264-1.2225 0.86281-0.22883 0.06341-0.28924 0.06864-0.31482 0.02725z" stroke-width=".4" style="paint-order:markers fill stroke"/>
   <path d="m-4.5118 51.816c-0.0271-0.04384 0.20386-0.43029 0.35977-0.602 0.17609-0.19392 0.49534-0.40296 0.72262-0.47317 0.0974-0.03009 0.27604-0.06296 0.39693-0.07304 0.27653-0.02307 0.28162-5.3e-4 0.0581 0.25815-0.41218 0.47678-0.78888 0.74264-1.2225 0.86281-0.22883 0.06341-0.28924 0.06864-0.31483 0.02725z" fill="#00887a" stroke-width=".6" style="paint-order:markers fill stroke"/>
  </g>
  <g stroke="#000">
   <g stroke-linecap="square">
    <path d="m-8.8829 132.74c-0.10226-0.0809-0.11627-0.18823-0.13505-1.034-0.0217-0.97795 0.0878-5.3007 0.14744-5.8202 0.0266-0.23187 0.0646-0.3105 0.17687-0.36587 0.32335-0.15949 0.64628-0.0385 0.80953 0.30327 0.046 0.0964 0.22005 0.66011 0.38671 1.2528 0.32222 1.1459 0.51111 1.6821 0.5926 1.6821 0.0744 0 0.20455-0.30798 0.28223-0.66809 0.0378-0.17498 0.10496-0.76194 0.14936-1.3044 0.0444-0.54242 0.10002-1.0385 0.1236-1.1024 0.0456-0.12353 0.25398-0.23372 0.44207-0.23372 0.11016 0 0.11369 0.0654 0.1126 2.0838-1e-3 2.3318-0.0791 4.2089-0.18984 4.576-0.0698 0.23144-0.0874 0.24478-0.34608 0.26291-0.25329 0.0177-0.28087 4e-3 -0.39021-0.19088-0.0647-0.1155-0.28214-0.71072-0.48319-1.3227-0.3649-1.1108-0.77782-2.1005-0.87638-2.1005-0.0287 0-0.0691 0.3937-0.0899 0.87488-0.0907 2.0974-0.18199 2.8569-0.3708 3.086-0.11126 0.13494-0.19136 0.13989-0.34153 0.0211z" stroke-width=".6" style="paint-order:markers fill stroke"/>
    <path d="m-20.509 132.58c-0.12556-0.52309-0.20454-2.9343-0.16071-4.906l0.0443-1.9986 0.6837-0.0452c1.0413-0.0688 1.6997-0.0543 1.8205 0.0402 0.15237 0.11909 0.13644 0.51938-0.02479 0.624-0.0737 0.0478-0.43184 0.10769-0.79588 0.13311l-0.66189 0.0462v0.85307c0 1.1283 0.0322 1.2066 0.53704 1.306 0.39049 0.0768 0.40575 0.0904 0.50372 0.44749 0.11416 0.416 0.0742 0.47799-0.38532 0.59663-0.42324 0.10931-0.62411 0.4743-0.67657 1.2294-0.0548 0.7885 0.0461 0.89352 0.92956 0.96747 0.66891 0.056 0.73759 0.10982 0.64296 0.50407-0.0763 0.31828-0.20243 0.35539-1.4261 0.41987l-0.96618 0.0509z" stroke-width=".52773" style="paint-order:markers fill stroke"/>
    <path d="m-23.627 132.71c-0.0377-0.0634-0.0822-1.6134-0.0988-3.4444l-0.0302-3.3292 0.20024-0.058c0.11013-0.0319 0.28647-0.0586 0.39186-0.0593 0.19073-1e-3 0.19163 6e-3 0.19037 1.4509-7.9e-4 0.7987-0.0388 2.0467-0.0846 2.7733-0.10519 1.668-0.0412 1.8542 0.63945 1.8599 0.49666 4e-3 0.60005 0.1021 0.50124 0.47507-0.0696 0.26261-0.12963 0.31586-0.41897 0.37145-0.55539 0.1067-1.2155 0.0864-1.2906-0.0397z" stroke-width=".6" style="paint-order:markers fill stroke"/>
    <path d="m-16.385 132.6-0.42585-0.2217 0.01961-1.8578c0.01079-1.0218 0.0555-2.4016 0.0993-3.0663 0.0984-1.4915 0.0597-1.775 1.2238-1.7253 0.45743 0.0195 0.85986 0.39022 0.89428 0.42314 0.13968 0.13362 0.0181 1.0998-0.23132 1.8389-0.14284 0.42318-0.2597 0.83028-0.2597 0.90469 0 0.0744 0.13336 0.37982 0.29637 0.67869 0.38002 0.69676 0.48025 1.4279 0.41122 2.0352-0.0482 0.42413-0.22736 0.97044-1.4577 1.2141-0.0793-1e-3 -0.33582-0.10165-0.57004-0.22359zm1.0565-0.22499c0.36798-0.29386 0.47755-0.73597 0.35579-1.4357-0.16269-0.93492-0.5611-1.4547-0.96223-1.2552-0.23329 0.11597-0.34775 0.68176-0.35661 1.7629l-8e-3 1.0059 0.21292 0.057c0.37172 0.0995 0.49161 0.0782 0.75838-0.13487zm-0.29968-3.8571c0.18797-0.13043 0.47817-1.1008 0.47817-1.5988 0-0.43644-0.37163-0.45146-0.66513-0.36305-0.31648 0.0953-0.26767 0.13538-0.32215 0.98654-0.0443 0.69196-0.0311 0.82925 0.0905 0.94473 0.17127 0.16253 0.22301 0.16632 0.41856 0.0306z" stroke-width=".6" style="paint-order:markers fill stroke"/>
    <path d="m-2.6574 126.72c-0.0446-0.0673-0.72347 6e-3 -1.0602-0.0555-0.33124-0.0604-0.64396-0.0177-0.74831-0.0831-0.17791-0.11152-0.11334-0.44891 0.16032-0.59646 0.64593-0.34827 3.9447-0.48707 4.2392-0.19341 0.10061 0.10029 0.21214 0.45252-0.18088 0.70356-0.26275 0.16782-1.1099 0.10885-1.1711 0.24249-0.0612 0.13363-0.11247 1.0848-0.11407 2.1137-3e-3 1.8778-0.10896 2.9934-0.34387 3.6178-0.15945 0.42377-0.27744 0.46993-0.43523 0.17026-0.44818-1.4558-0.12923-4.2605-0.34584-5.9193z" enable-background="new" stroke-width=".58601" style="paint-order:markers fill stroke"/>
    <path d="m-12.726 132.27c-0.43539-0.66456-0.42965-3.7672 0.01-5.2717 0.50881-1.7421 1.4479-2.1311 2.1001-0.86995 0.62797 1.2144 0.22254 5.5357-0.59617 6.3544-0.45449 0.4545-1.1396 0.35819-1.5137-0.21277zm1.3177-0.47769c0.45739-0.33443 0.66615-1.4268 0.67129-3.5126 5e-3 -2.0053-0.21102-2.4954-0.97651-2.2161-0.60776 0.2217-0.85509 1.1718-0.8669 3.3301-0.0134 2.4459 0.2817 3.0497 1.1721 2.3986z" stroke-width=".7" style="paint-order:markers fill stroke"/>
    <path d="m1.6339 132.27c-0.4354-0.66456-0.42966-3.7672 0.01-5.2717 0.50881-1.7421 1.4479-2.1311 2.1001-0.86995 0.62797 1.2144 0.22254 5.5357-0.59617 6.3544-0.45449 0.4545-1.1396 0.35819-1.5137-0.21277zm1.3177-0.47769c0.45739-0.33445 0.66615-1.4268 0.67129-3.5126 5e-3 -2.0053-0.21102-2.4954-0.97651-2.2161-0.60775 0.2217-0.85509 1.1718-0.8669 3.3301-0.0134 2.4459 0.2817 3.0497 1.1721 2.3986z" stroke-width=".7" style="paint-order:markers fill stroke"/>
   </g>
   <path d="m2.7516 124.59c-0.0271-0.0438 0.20385-0.4303 0.35977-0.60201 0.17608-0.19392 0.49533-0.40296 0.72261-0.47316 0.0974-0.0301 0.27604-0.063 0.39693-0.073 0.27654-0.0231 0.28162-5.3e-4 0.0581 0.25815-0.41217 0.47678-0.78887 0.74263-1.2225 0.8628-0.22883 0.0634-0.28924 0.0686-0.31482 0.0273z" stroke-linecap="round" stroke-width=".4" style="paint-order:markers fill stroke"/>
  </g>
  <g fill="#00887a" stroke="#00887a" stroke-linecap="square">
   <path d="m-50.593 144.93c9.21e-4 -2.5533 0.11064-4.0083 0.33884-4.4925 0.21698-0.46044 0.60393-0.75306 1.0712-0.81008 0.33781-0.0412 0.40093-0.0155 0.66594 0.27142 0.16375 0.17725 0.33495 0.48653 0.38849 0.70179 0.1019 0.40967 0.21411 1.9418 0.3102 4.2354 0.0636 1.5171 0.0282 1.6845-0.35551 1.6845-0.26887 0-0.34435-0.19477-0.4-1.0321-0.0259-0.39019-0.0987-0.82585-0.16168-0.96814-0.097-0.219-0.16627-0.25871-0.45155-0.25871-0.48153 0-0.55217 0.20291-0.55372 1.5905 0.0523 0.7537-0.23379 0.9124-0.53113 0.90645-0.29734-6e-3 -0.32132-1.1044-0.32109-1.8285zm1.4674-1.4568c0.17512-0.0526 0.35717-0.17416 0.40456-0.27003 0.1213-0.24537 0.10477-1.2412-0.031-1.8656-0.1579-0.72636-0.34382-1.0135-0.6328-0.97723-0.38002 0.0477-0.47969 0.41219-0.48253 1.7648-2e-3 1.0664 0.0138 1.1959 0.16284 1.3139 0.19674 0.15574 0.17804 0.15464 0.5789 0.0341z" stroke-width=".6" style="paint-order:markers fill stroke"/>
   <path d="m-46.488 146.52c-0.12556-0.52309-0.20454-2.9343-0.16071-4.906l0.0443-1.9986 0.6837-0.0452c1.0413-0.0688 1.6997-0.0543 1.8205 0.0402 0.15237 0.11909 0.13644 0.51938-0.02479 0.62399-0.0737 0.0478-0.43184 0.1077-0.79588 0.13311l-0.66189 0.0462v0.85307c0 1.1283 0.0322 1.2067 0.53704 1.306 0.39049 0.0768 0.40575 0.0904 0.50372 0.4475 0.11416 0.416 0.0742 0.47799-0.38532 0.59663-0.42324 0.1093-0.62411 0.4743-0.67657 1.2294-0.0548 0.78849 0.0461 0.89351 0.92956 0.96746 0.66891 0.056 0.73759 0.10983 0.64296 0.50408-0.0763 0.31827-0.20243 0.35538-1.4261 0.41986l-0.96618 0.0509z" stroke-width=".52773" style="paint-order:markers fill stroke"/>
   <path d="m-42.756 146.49c-0.13369-0.31806-0.1557-3.0098-0.044-5.3798 0.20752-1.054-0.26645-1.5269 1.0496-1.5544 1.0954 0.0346 1.6582 0.19959 1.9167 0.56189 0.0849 0.11894 0.17096 0.60418 0.20274 1.1426 0.0845 1.4324-0.24922 1.9816-1.4103 2.3209-0.19988 0.0584 2.2459 3.0112 1.3536 3.1142-0.4239 0.0489-2.0422-3.6538-2.2718-1.3972-0.0951 1.0477-0.2486 1.4712-0.53325 1.4712-0.0801 0-0.19861-0.12574-0.26321-0.27941zm1.9051-3.6674c0.30213-0.10683 0.5833-0.63947 0.6501-1.2316 0.10108-0.89619-0.28886-1.4541-1.0149-1.4518-0.19918 7.3e-4 -0.42649 0.0281-0.50516 0.0611-0.25712 0.10783-0.36446 0.55408-0.36446 1.5152 0 0.75989 0.0347 0.9681 0.17722 1.0622 0.19876 0.13132 0.74672 0.15451 1.0572 0.0447z" stroke-width=".58624" style="paint-order:markers fill stroke"/>
   <path d="m-33.898 146.54-0.42585-0.22169 0.0196-1.8578c0.0108-1.0218 0.0555-2.4016 0.0993-3.0663 0.0984-1.4915 0.0597-1.775 1.2238-1.7253 0.45743 0.0195 0.85986 0.39022 0.89428 0.42314 0.13968 0.13362 0.0181 1.0998-0.23132 1.8389-0.14284 0.42318-0.2597 0.83029-0.2597 0.9047 0 0.0744 0.13336 0.37981 0.29637 0.67868 0.38002 0.69676 0.48025 1.4279 0.41122 2.0352-0.0482 0.42413-0.22736 0.97044-1.4577 1.2141-0.0793-1e-3 -0.33582-0.10165-0.57004-0.22359zm1.0565-0.22498c0.36798-0.29386 0.47755-0.73598 0.35579-1.4357-0.16269-0.93493-0.5611-1.4546-0.96223-1.2552-0.23329 0.11597-0.34775 0.68177-0.35661 1.7629l-8e-3 1.0059 0.21292 0.057c0.37172 0.0995 0.49161 0.0782 0.75838-0.13487zm-0.29968-3.8571c0.18797-0.13044 0.47817-1.1008 0.47817-1.5988 0-0.43645-0.37163-0.45146-0.66513-0.36305-0.31648 0.0953-0.26767 0.13538-0.32215 0.98654-0.0443 0.69197-0.0311 0.82926 0.0905 0.94474 0.17127 0.16252 0.22301 0.16632 0.41856 0.0306z" stroke-width=".6" style="paint-order:markers fill stroke"/>
   <path d="m-37.974 146.23c-0.42464-0.64814-0.41904-3.6741 0.0098-5.1414 0.49624-1.699 1.4121-2.0785 2.0482-0.84846 0.61245 1.1844 0.21704 5.3989-0.58144 6.1974-0.44326 0.44326-1.1115 0.34933-1.4763-0.20752zm1.2851-0.46588c0.44609-0.32619 0.64969-1.3916 0.6547-3.4258 0.0048-1.9557-0.2058-2.4337-0.95238-2.1614-0.59273 0.21622-0.83396 1.1429-0.84548 3.2478-0.01307 2.3854 0.27474 2.9744 1.1432 2.3394z" stroke-width=".6827" style="paint-order:markers fill stroke"/>
  </g>
  <g fill="#f61c2d" stroke="#f61c2d" stroke-linecap="square">
   <path d="m6.9543 146.48c9.21e-4 -2.5533 0.11064-4.0083 0.33884-4.4925 0.21698-0.46044 0.60393-0.75306 1.0712-0.81008 0.33781-0.0412 0.40093-0.0155 0.66594 0.27142 0.16375 0.17725 0.33495 0.48653 0.38849 0.70179 0.1019 0.40967 0.21411 1.9418 0.3102 4.2354 0.0636 1.5171 0.0282 1.6845-0.35551 1.6845-0.26887 0-0.34435-0.19477-0.4-1.0321-0.0259-0.39019-0.0987-0.82585-0.16168-0.96814-0.097-0.219-0.16627-0.25871-0.45155-0.25871-0.48153 0-0.55217 0.20291-0.55372 1.5905 0.0523 0.7537-0.23379 0.9124-0.53113 0.90645-0.29734-6e-3 -0.32132-1.1044-0.32109-1.8285zm1.4674-1.4568c0.17512-0.0526 0.35717-0.17416 0.40456-0.27003 0.1213-0.24537 0.10477-1.2412-0.031-1.8656-0.1579-0.72636-0.34382-1.0135-0.6328-0.97723-0.38002 0.0477-0.47969 0.41219-0.48253 1.7648-2e-3 1.0664 0.0138 1.1959 0.16284 1.3139 0.19674 0.15574 0.17804 0.15464 0.5789 0.0341z" stroke-width=".6" style="paint-order:markers fill stroke"/>
   <path d="m19.473 148.07c-0.12556-0.52309-0.20454-2.9343-0.16071-4.906l0.0443-1.9986 0.6837-0.0452c1.0413-0.0688 1.6997-0.0543 1.8205 0.0402 0.15237 0.11909 0.13644 0.51938-0.02479 0.62399-0.0737 0.0478-0.43184 0.1077-0.79588 0.13311l-0.66189 0.0462v0.85307c0 1.1283 0.0322 1.2067 0.53704 1.306 0.39049 0.0768 0.40575 0.0904 0.50372 0.4475 0.11416 0.416 0.0742 0.47799-0.38532 0.59663-0.42324 0.1093-0.62411 0.4743-0.67657 1.2294-0.0548 0.78849 0.0461 0.89351 0.92956 0.96746 0.66891 0.056 0.73759 0.10983 0.64296 0.50408-0.0763 0.31827-0.20243 0.35538-1.4261 0.41986l-0.96618 0.0509z" stroke-width=".52773" style="paint-order:markers fill stroke"/>
   <path d="m23.223 148.04c-0.13369-0.31806-0.1557-3.0098-0.044-5.3798 0.20752-1.054-0.26645-1.5269 1.0496-1.5544 1.0954 0.0346 1.6582 0.19959 1.9167 0.56189 0.0849 0.11894 0.17096 0.60418 0.20274 1.1426 0.0845 1.4324-0.24922 1.9816-1.4103 2.3209-0.19988 0.0584 2.2459 3.0112 1.3536 3.1142-0.4239 0.0489-2.0422-3.6538-2.2718-1.3972-0.0951 1.0477-0.2486 1.4712-0.53325 1.4712-0.0801 0-0.19861-0.12574-0.26321-0.27941zm1.9051-3.6674c0.30213-0.10683 0.5833-0.63947 0.6501-1.2316 0.10108-0.89619-0.28886-1.4541-1.0149-1.4518-0.19918 7.3e-4 -0.42649 0.0281-0.50516 0.0611-0.25712 0.10782-0.36446 0.55408-0.36446 1.5152 0 0.75989 0.0347 0.9681 0.17722 1.0622 0.19876 0.13132 0.74672 0.15451 1.0572 0.0447z" stroke-width=".58624" style="paint-order:markers fill stroke"/>
   <path d="m32.117 148.09-0.42585-0.22169 0.0196-1.8578c0.0108-1.0218 0.0555-2.4016 0.0993-3.0663 0.0984-1.4915 0.0597-1.775 1.2238-1.7253 0.45743 0.0195 0.85986 0.39022 0.89428 0.42314 0.13968 0.13362 0.0181 1.0998-0.23132 1.8389-0.14284 0.42318-0.2597 0.83029-0.2597 0.9047 0 0.0744 0.13336 0.37981 0.29637 0.67868 0.38002 0.69676 0.48025 1.4279 0.41122 2.0352-0.0482 0.42413-0.22736 0.97044-1.4577 1.2141-0.0793-1e-3 -0.33582-0.10165-0.57004-0.22359zm1.0565-0.22498c0.36798-0.29386 0.47755-0.73598 0.35579-1.4357-0.16269-0.93493-0.5611-1.4546-0.96223-1.2553-0.23329 0.11598-0.34775 0.68177-0.35661 1.7629l-8e-3 1.0059 0.21292 0.057c0.37172 0.0995 0.49161 0.0782 0.75838-0.13487zm-0.29968-3.8571c0.18797-0.13043 0.47817-1.1008 0.47817-1.5988 0-0.43644-0.37163-0.45145-0.66513-0.36304-0.31648 0.0953-0.26767 0.13538-0.32215 0.98654-0.0443 0.69197-0.0311 0.82926 0.0905 0.94473 0.17127 0.16253 0.22301 0.16633 0.41856 0.0306z" stroke-width=".6" style="paint-order:markers fill stroke"/>
   <path d="m28.016 147.79c-0.42049-0.64179-0.41494-3.6382 0.0097-5.0912 0.49139-1.6824 1.3983-2.0581 2.0282-0.84015 0.60647 1.1728 0.21492 5.3461-0.57575 6.1368-0.43893 0.43894-1.1006 0.34594-1.4619-0.20548zm1.2726-0.46133c0.44173-0.323 0.64334-1.378 0.6483-3.3923 0.0048-1.9366-0.20379-2.4099-0.94307-2.1403-0.58694 0.21411-0.82581 1.1317-0.83722 3.2161-0.01294 2.3621 0.27206 2.9453 1.132 2.3165z" stroke-width=".67603" style="paint-order:markers fill stroke"/>
   <path d="m15.35 146.48c9.21e-4 -2.5533 0.11064-4.0083 0.33884-4.4925 0.21698-0.46044 0.60393-0.75306 1.0712-0.81008 0.33781-0.0412 0.40093-0.0155 0.66594 0.27142 0.16375 0.17725 0.33495 0.48653 0.38849 0.70179 0.1019 0.40967 0.21411 1.9418 0.3102 4.2354 0.0636 1.5171 0.0282 1.6845-0.35551 1.6845-0.26887 0-0.34435-0.19477-0.4-1.0321-0.0259-0.39019-0.0987-0.82585-0.16168-0.96814-0.097-0.219-0.16627-0.25871-0.45155-0.25871-0.48153 0-0.55217 0.20291-0.55372 1.5905 0.0523 0.7537-0.23379 0.9124-0.53113 0.90645-0.29734-6e-3 -0.32132-1.1044-0.32109-1.8285zm1.4674-1.4568c0.17512-0.0526 0.35717-0.17416 0.40456-0.27003 0.1213-0.24537 0.10477-1.2412-0.031-1.8656-0.1579-0.72636-0.34382-1.0135-0.6328-0.97723-0.38002 0.0477-0.47969 0.41219-0.48253 1.7648-2e-3 1.0664 0.0138 1.1959 0.16284 1.3139 0.19674 0.15574 0.17804 0.15464 0.5789 0.0341z" stroke-width=".6" style="paint-order:markers fill stroke"/>
   <path d="m11.078 148.23c-0.10225-0.0809-0.11627-0.18823-0.13505-1.034-0.0217-0.97795 0.0878-5.3007 0.14744-5.8202 0.0266-0.23187 0.0646-0.3105 0.17688-0.36587 0.32335-0.15949 0.64627-0.0385 0.80953 0.30327 0.046 0.0964 0.22004 0.66011 0.3867 1.2528 0.32223 1.1459 0.51111 1.6821 0.59261 1.6821 0.0744 0 0.20454-0.30797 0.28222-0.66809 0.0378-0.17497 0.10496-0.76194 0.14936-1.3044 0.0444-0.54242 0.10002-1.0385 0.1236-1.1024 0.0456-0.12353 0.25398-0.23372 0.44207-0.23372 0.11016 0 0.11369 0.0654 0.1126 2.0838-1e-3 2.3318-0.0791 4.2089-0.18983 4.576-0.0698 0.23144-0.0874 0.24478-0.34609 0.26291-0.25329 0.0177-0.28087 4e-3 -0.39021-0.19088-0.0647-0.1155-0.28214-0.71072-0.48319-1.3227-0.3649-1.1108-0.77782-2.1005-0.87637-2.1005-0.0287 0-0.0691 0.3937-0.0899 0.87488-0.0907 2.0974-0.182 2.8569-0.37081 3.086-0.11125 0.13494-0.19135 0.13989-0.34152 0.0211z" stroke-width=".6" style="paint-order:markers fill stroke"/>
  </g>
  <g fill="none" stroke-width="1.0342">
   <path d="m-46.55 82.019c-2.183-2.3213-5.3381-3.6981-8.5245-3.7199s-6.3601 1.3117-8.5746 3.603c-2.343 2.4242-3.5302 5.7037-4.7672 8.84-0.69589 1.7644-1.4323 3.5334-1.7413 5.4047-0.30908 1.8713-0.15249 3.8893 0.84203 5.5043 0.82409 1.3382 2.1585 2.2978 3.5858 2.9555 1.4273 0.65776 2.9615 1.0434 4.4744 1.4689 2.0737 0.58329 4.1434 1.2514 6.2895 1.4383 2.1461 0.18687 4.4214-0.1556 6.16-1.4274 1.1968-0.87546 2.0684-2.1394 2.6699-3.4947 0.60151-1.3553 0.94988-2.8078 1.2556-4.2587 0.7323-3.4751 1.2378-7.0764 0.58816-10.568-0.37871-2.0354-1.1495-3.9972-2.2578-5.7459z" stroke="#18b600"/>
   <path d="m-17.235 82.019c-2.183-2.3213-5.3381-3.6981-8.5245-3.7199s-6.3601 1.3117-8.5746 3.603c-2.343 2.4242-3.5302 5.7037-4.7672 8.84-0.69589 1.7644-1.4323 3.5334-1.7413 5.4047-0.30908 1.8713-0.1525 3.8893 0.84203 5.5043 0.82409 1.3382 2.1585 2.2978 3.5858 2.9555 1.4273 0.65776 2.9615 1.0434 4.4744 1.4689 2.0737 0.58329 4.1434 1.2514 6.2895 1.4383 2.1461 0.18688 4.4214-0.15559 6.16-1.4274 1.1968-0.87546 2.0684-2.1394 2.6699-3.4947 0.60151-1.3553 0.94987-2.8078 1.2556-4.2587 0.73229-3.4751 1.2378-7.0764 0.58816-10.568-0.37871-2.0354-1.1495-3.9972-2.2578-5.7459z" stroke="#fa424e"/>
   <path d="m28.061 82.019c2.183-2.3213 5.3381-3.6981 8.5245-3.7199 3.1864-0.02179 6.3601 1.3117 8.5746 3.603 2.343 2.4242 3.5302 5.7037 4.7672 8.84 0.69589 1.7644 1.4323 3.5334 1.7413 5.4047 0.30908 1.8713 0.15249 3.8893-0.84203 5.5043-0.82409 1.3382-2.1585 2.2978-3.5858 2.9555-1.4273 0.65777-2.9615 1.0434-4.4744 1.469-2.0737 0.58329-4.1434 1.2514-6.2895 1.4383s-4.4214-0.15559-6.16-1.4274c-1.1968-0.87546-2.0684-2.1394-2.6699-3.4947-0.60151-1.3553-0.94988-2.8078-1.2556-4.2587-0.73229-3.4751-1.2378-7.0764-0.58816-10.568 0.37871-2.0354 1.1495-3.9972 2.2578-5.7459z" stroke="#fa424e"/>
   <path d="m-1.2545 82.019c2.183-2.3213 5.3381-3.6981 8.5245-3.7199 3.1864-0.02179 6.3601 1.3117 8.5746 3.603 2.343 2.4242 3.5302 5.7037 4.7672 8.84 0.69589 1.7644 1.4323 3.5334 1.7413 5.4047 0.30908 1.8713 0.15249 3.8893-0.84203 5.5043-0.82409 1.3382-2.1585 2.2978-3.5858 2.9555-1.4273 0.65776-2.9615 1.0434-4.4744 1.4689-2.0737 0.58329-4.1434 1.2514-6.2895 1.4383s-4.4214-0.15559-6.16-1.4274c-1.1968-0.87546-2.0684-2.1394-2.6699-3.4947-0.60151-1.3553-0.94988-2.8078-1.2556-4.2587-0.73229-3.4751-1.2378-7.0764-0.58816-10.568 0.37871-2.0354 1.1495-3.9972 2.2578-5.7459z" stroke="#18b600"/>
  </g>
  <g fill="#ff9243" stroke="#ff9243" stroke-linecap="square">
   <path d="m-56.856 76.312c-0.51324-0.31208-0.81888-0.55531-0.9522-1.7724 0.078-0.0058-0.29651-1.8204 0.0058-5.1252 0.07618-0.23072 0.6429-0.27094 0.74417-0.02648 0.08079 0.20403-0.06994 1.6877-0.05584 3.165 0.03214 0.70958 0.09412 1.3886 0.14776 1.6187 0.35482 1.5229 1.0359 1.2323 1.2542-0.53502 0.04442-0.35985 0.18704-1.1928 0.11807-1.8436-0.2223-2.0976-0.03828-2.6428 0.42644-2.5438 0.16028 0.03416 0.23214 0.14346 0.27042 0.56837 0.04538 0.50387 0.13981 3.2987 0.02984 4.2797-0.15587 1.3895-0.5439 1.7713-1.0371 2.1264-0.3716 0.26753-0.61913 0.29048-0.95171 0.08827z" stroke-width=".57567" style="paint-order:markers fill stroke"/>
   <path d="m-61.822 74.605c9.21e-4 -2.5533 0.11064-4.0083 0.33884-4.4925 0.21698-0.46044 0.60393-0.75306 1.0712-0.81008 0.33781-0.0412 0.40093-0.0155 0.66594 0.27141 0.16375 0.17726 0.33495 0.48654 0.38849 0.7018 0.1019 0.40967 0.21411 1.9418 0.3102 4.2354 0.0636 1.5171 0.0282 1.6845-0.35551 1.6845-0.26887 0-0.34435-0.19477-0.4-1.0321-0.0259-0.39019-0.0987-0.82585-0.16168-0.96814-0.097-0.219-0.16627-0.25871-0.45155-0.25871-0.48153 0-0.55217 0.20291-0.55372 1.5905 0.0523 0.7537-0.23379 0.9124-0.53113 0.90645-0.29734-6e-3 -0.32132-1.1044-0.32109-1.8285zm1.4674-1.4568c0.17512-0.0526 0.35717-0.17416 0.40456-0.27003 0.1213-0.24537 0.10477-1.2412-0.031-1.8656-0.1579-0.72636-0.34382-1.0135-0.6328-0.97724-0.38002 0.0477-0.47969 0.41219-0.48253 1.7648-2e-3 1.0664 0.0138 1.1959 0.16284 1.3139 0.19674 0.15574 0.17804 0.15464 0.5789 0.0341z" stroke-width=".6" style="paint-order:markers fill stroke"/>
   <path d="m-48.176 75.914c-0.42048-0.6418-0.41494-3.6382 0.0097-5.0912 0.49139-1.6824 1.3983-2.0581 2.0282-0.84016 0.60647 1.1728 0.21492 5.3461-0.57576 6.1368-0.43893 0.43894-1.1006 0.34593-1.4619-0.20548zm1.2726-0.46133c0.44173-0.32299 0.64334-1.378 0.6483-3.3923 0.0048-1.9366-0.20379-2.4099-0.94307-2.1403-0.58694 0.2141-0.82581 1.1317-0.83722 3.2161-0.01294 2.3621 0.27205 2.9453 1.132 2.3165z" stroke-width=".67603" style="paint-order:markers fill stroke"/>
  </g>
  <g fill="#32baac" stroke="#32baac">
   <path d="m3.1495 76.799c-0.13303-0.34666 0.05096-6.3141 0.20736-6.7255 0.07624-0.20052 0.20126-0.36458 0.27783-0.36458 0.27129 0 0.39794 0.69935 0.39794 2.1973v1.5168l0.49743-2e-3c0.27359-1e-3 0.56879-0.04739 0.65601-0.10285 0.09743-0.06194 0.20622-0.74638 0.28213-1.775 0.13203-1.7891 0.17985-1.9669 0.52882-1.967 0.20604-3.5e-5 0.22052 0.27809 0.17774 3.4157-0.02561 1.8787-0.10427 3.5238-0.17479 3.6559-0.26926 0.5044-0.44186 0.13714-0.51036-1.0859-0.07569-1.3515-0.18685-1.5316-0.86007-1.3935-0.58407 0.11989-0.59604 0.13741-0.60675 0.88737-0.0054 0.37872-0.05018 0.95719-0.09949 1.2855-0.07288 0.48525-0.1456 0.60486-0.38871 0.63939-0.18674 0.02651-0.33137-0.04176-0.38511-0.18179z" stroke-linecap="round" stroke-width=".6" style="paint-order:markers fill stroke"/>
   <g stroke-linecap="square">
    <path d="m7.4022 76.741c-0.12556-0.52309-0.20454-2.9343-0.16071-4.906l0.0443-1.9986 0.6837-0.0452c1.0413-0.0688 1.6997-0.0543 1.8205 0.0402 0.15237 0.11909 0.13644 0.51938-0.02479 0.62399-0.0737 0.0478-0.43184 0.1077-0.79588 0.13311l-0.66189 0.0462v0.85307c0 1.1283 0.0322 1.2067 0.53704 1.306 0.39049 0.0768 0.40575 0.0904 0.50372 0.4475 0.11416 0.416 0.0742 0.47799-0.38532 0.59663-0.42324 0.1093-0.62411 0.4743-0.67657 1.2294-0.0548 0.78849 0.0461 0.89351 0.92956 0.96746 0.66891 0.056 0.73759 0.10983 0.64296 0.50408-0.0763 0.31827-0.20243 0.35538-1.4261 0.41986l-0.96618 0.0509z" stroke-width=".52773" style="paint-order:markers fill stroke"/>
    <path d="m12.83 70.885c-0.0446-0.0673-0.72347 6e-3 -1.0602-0.0555-0.33124-0.0604-0.64396-0.0177-0.74831-0.0831-0.17791-0.11152-0.11334-0.44891 0.16032-0.59646 0.64593-0.34827 3.9447-0.48707 4.2392-0.19341 0.10061 0.10029 0.21214 0.45252-0.18088 0.70356-0.26275 0.16783-1.1099 0.10885-1.1711 0.24249-0.0612 0.13363-0.11247 1.0848-0.11407 2.1137-3e-3 1.8777-0.10896 2.9934-0.34387 3.6178-0.15945 0.42377-0.27744 0.46993-0.43523 0.17026-0.44818-1.4558-0.12923-4.2605-0.34584-5.9193z" enable-background="new" stroke-width=".58601" style="paint-order:markers fill stroke"/>
    <path d="m16.718 76.741c-0.12556-0.52309-0.20454-2.9343-0.16071-4.906l0.0443-1.9986 0.6837-0.0452c1.0413-0.0688 1.6997-0.0543 1.8205 0.0402 0.15237 0.11909 0.13644 0.51938-0.02479 0.62399-0.0737 0.0478-0.43184 0.1077-0.79588 0.13311l-0.66189 0.0462v0.85307c0 1.1283 0.0322 1.2067 0.53704 1.306 0.39049 0.0768 0.40575 0.0904 0.50372 0.4475 0.11416 0.416 0.0742 0.47799-0.38532 0.59663-0.42324 0.1093-0.62411 0.4743-0.67657 1.2294-0.0548 0.78849 0.0461 0.89351 0.92956 0.96746 0.66891 0.056 0.73759 0.10983 0.64296 0.50408-0.0763 0.31827-0.20243 0.35538-1.4261 0.41986l-0.96618 0.0509z" stroke-width=".52773" style="paint-order:markers fill stroke"/>
    <path d="m20.356 76.712c-0.13369-0.31806-0.1557-3.0098-0.044-5.3798 0.20752-1.054-0.26645-1.5269 1.0496-1.5544 1.0954 0.0346 1.6582 0.19959 1.9167 0.56189 0.0849 0.11894 0.17096 0.60418 0.20274 1.1426 0.0845 1.4324-0.24922 1.9816-1.4103 2.3209-0.19988 0.0584 2.2459 3.0112 1.3536 3.1142-0.4239 0.0489-2.0422-3.6538-2.2718-1.3972-0.0951 1.0477-0.2486 1.4712-0.53325 1.4712-0.0801 0-0.19861-0.12574-0.26321-0.27941zm1.9051-3.6674c0.30213-0.10683 0.5833-0.63947 0.6501-1.2316 0.10108-0.8962-0.28886-1.4541-1.0149-1.4518-0.19918 7.3e-4 -0.42649 0.0281-0.50516 0.0611-0.25712 0.10782-0.36446 0.55408-0.36446 1.5152 0 0.75989 0.0347 0.96811 0.17722 1.0622 0.19876 0.13133 0.74672 0.15452 1.0572 0.0447z" stroke-width=".58624" style="paint-order:markers fill stroke"/>
    <path d="m25.036 76.464c-0.42049-0.6418-0.41494-3.6382 0.0097-5.0912 0.49139-1.6824 1.3983-2.0581 2.0282-0.84016 0.60646 1.1728 0.21492 5.3461-0.57575 6.1368-0.43893 0.43894-1.1006 0.34593-1.4619-0.20548zm1.2726-0.46133c0.44173-0.323 0.64334-1.378 0.6483-3.3923 0.0048-1.9366-0.20379-2.4099-0.94307-2.1403-0.58694 0.21411-0.82581 1.1317-0.83722 3.2161-0.01294 2.3621 0.27206 2.9453 1.132 2.3165z" stroke-width=".67603" style="paint-order:markers fill stroke"/>
   </g>
  </g>
  <g fill="#18b600" stroke="#18b600">
   <path d="m4.4449 98.738c-0.42048-0.6418-0.41494-3.6382 0.0097-5.0912 0.49139-1.6824 1.3983-2.0581 2.0282-0.84016 0.60647 1.1728 0.21492 5.3461-0.57576 6.1368-0.43893 0.43894-1.1006 0.34593-1.4619-0.20548zm1.2726-0.46133c0.44173-0.32299 0.64334-1.378 0.6483-3.3923 0.0048-1.9366-0.20379-2.4099-0.94307-2.1403-0.58694 0.2141-0.82581 1.1317-0.83722 3.2161-0.01294 2.3621 0.27205 2.9453 1.132 2.3165z" stroke-linecap="square" stroke-width=".67603" style="paint-order:markers fill stroke"/>
   <path d="m0.38801 98.989c-0.06669-0.16357-0.12251-1.7684-0.12402-3.5664l-0.0027-3.269 0.46585-0.07684c0.25621-0.04226 0.91236-0.05827 1.4581-0.03556 0.848 0.03527 1.0015 0.08384 1.0556 0.33402 0.06469 0.29903-0.15718 0.37404-1.3706 0.46335-0.44609 0.03283-0.50963 0.10651-0.56338 0.65332-0.2144 1.6346 0.19567 1.4868 0.67664 1.5467 0.82018 0.1022 0.9676 0.75016 0.19604 0.87743-1.1363 0.13732-0.74535 0.44931-0.86333 2.0155-0.0887 1.1774-0.14822 1.3549-0.45448 1.3549-0.19546 0-0.40643-0.13246-0.47369-0.29741z" stroke-linecap="round" stroke-width=".54311" style="paint-order:markers fill stroke"/>
   <path d="m9.5894 93.159c-0.0446-0.0673-0.72347 6e-3 -1.0602-0.0555-0.33124-0.0604-0.64396-0.0177-0.74831-0.0831-0.17791-0.11152-0.11334-0.44891 0.16032-0.59646 0.64593-0.34827 3.9447-0.48707 4.2391-0.19341 0.10061 0.10029 0.21215 0.45252-0.18087 0.70356-0.26276 0.16783-1.1099 0.10885-1.1711 0.24249-0.0612 0.13363-0.11247 1.0848-0.11407 2.1137-3e-3 1.8777-0.10896 2.9934-0.34387 3.6178-0.15945 0.42377-0.27744 0.46993-0.43523 0.17026-0.44818-1.4558-0.12923-4.2605-0.34584-5.9193z" enable-background="new" stroke-linecap="square" stroke-width=".58601" style="paint-order:markers fill stroke"/>
   <path d="m13.493 98.738c-0.42048-0.6418-0.41494-3.6382 0.0097-5.0912 0.49139-1.6824 1.3983-2.0581 2.0282-0.84016 0.60647 1.1728 0.21492 5.3461-0.57576 6.1368-0.43893 0.43894-1.1006 0.34593-1.4619-0.20548zm1.2726-0.46133c0.44173-0.32299 0.64334-1.378 0.6483-3.3923 0.0048-1.9366-0.20379-2.4099-0.94307-2.1403-0.58694 0.2141-0.82581 1.1317-0.83722 3.2161-0.01294 2.3621 0.27205 2.9453 1.132 2.3165z" stroke-linecap="square" stroke-width=".67603" style="paint-order:markers fill stroke"/>
  </g>
  <g fill="#fa424e" fill-opacity=".99608" stroke="#fa424e" stroke-linecap="square">
   <path d="m30.379 96.766c0.13835-2.8933 0.35452-4.6893 0.58507-4.8608 0.0893-0.0665 0.25559-0.078 0.36945-0.0257 0.15305 0.0704 0.17733 0.4159 0.0931 1.3254-0.0951 1.027-0.07 1.2629 0.15195 1.428 0.52872 0.39333 0.91582 0.0167 1.2775-1.2427 0.35756-1.2452 0.51895-1.5774 0.7663-1.5774 0.40114 0 0.30552 1.1134-0.19724 2.2965l-0.44517 1.0476 0.45513 0.64712c0.69912 0.99405 1.0204 3.0133 0.5029 3.1611-0.37442 0.10688-0.51405-0.11035-0.638-0.99247-0.1814-1.2911-0.97534-2.2356-1.6272-1.9359-0.28196 0.12963-0.51479 0.97525-0.51578 1.8732-9.61e-4 0.92975-0.19493 1.3483-0.62467 1.3483-0.24507 0-0.26051-0.25089-0.15333-2.4923z" stroke-width=".6" style="paint-order:markers fill stroke"/>
   <path d="m35.675 99.014c-0.12556-0.52309-0.20454-2.9343-0.16071-4.906l0.0443-1.9986 0.6837-0.0452c1.0413-0.0688 1.6997-0.0543 1.8205 0.0402 0.15237 0.11909 0.13644 0.51938-0.02479 0.62399-0.0737 0.0478-0.43184 0.1077-0.79588 0.13311l-0.66189 0.0462v0.85307c0 1.1283 0.0322 1.2067 0.53704 1.306 0.39049 0.0768 0.40575 0.0904 0.50372 0.4475 0.11416 0.416 0.0742 0.47799-0.38532 0.59663-0.42324 0.1093-0.62411 0.4743-0.67657 1.2294-0.0548 0.78849 0.0461 0.89351 0.92956 0.96746 0.66891 0.056 0.73759 0.10983 0.64296 0.50408-0.0763 0.31827-0.20243 0.35538-1.4261 0.41986l-0.96618 0.0509z" stroke-width=".52773" style="paint-order:markers fill stroke"/>
   <path d="m39.481 99.202c0-0.57346 0.36859-5.9721 0.43135-6.318 0.10613-0.58481 0.30827-0.822 0.6255-0.73397 0.2782 0.0772 0.34104 0.2047 0.61127 1.2402 0.1184 0.4537 0.27306 0.88846 0.34369 0.96614 0.11421 0.1256 0.14626 0.11718 0.28961-0.0761 0.0887-0.11951 0.26182-0.58558 0.3848-1.0357 0.29506-1.0799 0.39432-1.2421 0.76009-1.2421 0.1601 0 0.31239 0.0381 0.33841 0.0846 0.0563 0.10083 0.18489 2.4732 0.26703 4.9291l0.059 1.7654s-0.18542 0.48502-0.38192 0.47268c-0.17962-0.0113-0.29746-0.47268-0.29746-0.47268l-0.0499-1.8596c-0.0518-1.928-0.11695-2.4245-0.31821-2.4245-0.13697 0-0.2362 0.19826-0.59689 1.1925-0.14401 0.39696-0.32195 0.74723-0.39544 0.77841-0.18937 0.0803-0.36721-0.11485-0.36932-0.40533-2e-3 -0.23441-0.36242-1.4818-0.45955-1.5891-0.10215-0.11293-0.29569 0.20109-0.38008 0.61668-0.0494 0.24341-0.11131 1.0993-0.13751 1.902-0.0662 2.0265-0.12002 2.2597-0.52195 2.2597-0.11138 0-0.2025-0.0227-0.2025-0.0505z" stroke-width=".60631" style="paint-order:markers fill stroke"/>
   <path d="m45.291 98.738c-0.42049-0.6418-0.41494-3.6382 0.0097-5.0912 0.49139-1.6824 1.3983-2.0581 2.0282-0.84016 0.60646 1.1728 0.21492 5.3461-0.57575 6.1368-0.43893 0.43894-1.1006 0.34593-1.4619-0.20548zm1.2726-0.46133c0.44173-0.323 0.64334-1.378 0.6483-3.3923 0.0048-1.9366-0.20379-2.4099-0.94307-2.1403-0.58694 0.21411-0.82581 1.1317-0.83722 3.2161-0.01294 2.3621 0.27206 2.9453 1.132 2.3165z" stroke-width=".67603" style="paint-order:markers fill stroke"/>
  </g>
  <g fill="#18b600" stroke="#18b600">
   <path d="m-62.274 98.738c-0.42048-0.6418-0.41494-3.6382 0.0097-5.0912 0.49139-1.6824 1.3983-2.0581 2.0282-0.84016 0.60647 1.1728 0.21492 5.3461-0.57576 6.1368-0.43893 0.43894-1.1006 0.34593-1.4619-0.20548zm1.2726-0.46133c0.44173-0.32299 0.64334-1.378 0.6483-3.3923 0.0048-1.9366-0.20379-2.4099-0.94307-2.1403-0.58694 0.2141-0.82581 1.1317-0.83722 3.2161-0.01294 2.3621 0.27205 2.9453 1.132 2.3165z" stroke-linecap="square" stroke-width=".67603" style="paint-order:markers fill stroke"/>
   <path d="m-66.331 98.989c-0.06669-0.16357-0.12251-1.7684-0.12402-3.5664l-0.0027-3.269 0.46585-0.07684c0.25621-0.04226 0.91236-0.05827 1.4581-0.03556 0.848 0.03527 1.0015 0.08384 1.0556 0.33402 0.06469 0.29903-0.15718 0.37404-1.3706 0.46335-0.44609 0.03283-0.50963 0.10651-0.56338 0.65332-0.2144 1.6346 0.19567 1.4868 0.67664 1.5467 0.82018 0.1022 0.9676 0.75016 0.19604 0.87743-1.1363 0.13732-0.74535 0.44931-0.86333 2.0155-0.0887 1.1774-0.14822 1.3549-0.45448 1.3549-0.19546 0-0.40643-0.13246-0.47369-0.29741z" stroke-linecap="round" stroke-width=".54311" style="paint-order:markers fill stroke"/>
   <path d="m-57.129 93.159c-0.0446-0.0673-0.72347 6e-3 -1.0602-0.0555-0.33124-0.0604-0.64396-0.0177-0.74831-0.0831-0.17791-0.11152-0.11334-0.44891 0.16032-0.59646 0.64593-0.34827 3.9447-0.48707 4.2391-0.19341 0.10061 0.10029 0.21215 0.45252-0.18087 0.70356-0.26276 0.16783-1.1099 0.10885-1.1711 0.24249-0.0612 0.13363-0.11247 1.0848-0.11407 2.1137-3e-3 1.8777-0.10896 2.9934-0.34387 3.6178-0.15945 0.42377-0.27744 0.46993-0.43523 0.17026-0.44818-1.4558-0.12923-4.2605-0.34584-5.9193z" enable-background="new" stroke-linecap="square" stroke-width=".58601" style="paint-order:markers fill stroke"/>
   <path d="m-53.226 98.738c-0.42048-0.6418-0.41494-3.6382 0.0097-5.0912 0.49139-1.6824 1.3983-2.0581 2.0282-0.84016 0.60647 1.1728 0.21492 5.3461-0.57576 6.1368-0.43893 0.43894-1.1006 0.34593-1.4619-0.20548zm1.2726-0.46133c0.44173-0.32299 0.64334-1.378 0.6483-3.3923 0.0048-1.9366-0.20379-2.4099-0.94307-2.1403-0.58694 0.2141-0.82581 1.1317-0.83722 3.2161-0.01294 2.3621 0.27205 2.9453 1.132 2.3165z" stroke-linecap="square" stroke-width=".67603" style="paint-order:markers fill stroke"/>
  </g>
  <g fill="#fa424e" stroke="#fa424e" stroke-linecap="square">
   <path d="m-36.339 96.766c0.13835-2.8933 0.35452-4.6893 0.58507-4.8608 0.0893-0.0665 0.25559-0.078 0.36945-0.0257 0.15305 0.0704 0.17733 0.4159 0.0931 1.3254-0.0951 1.027-0.07 1.2629 0.15195 1.428 0.52872 0.39333 0.91582 0.0167 1.2775-1.2427 0.35756-1.2452 0.51895-1.5774 0.7663-1.5774 0.40114 0 0.30552 1.1134-0.19724 2.2965l-0.44517 1.0476 0.45513 0.64712c0.69912 0.99405 1.0204 3.0133 0.5029 3.1611-0.37442 0.10688-0.51405-0.11035-0.638-0.99247-0.1814-1.2911-0.97534-2.2356-1.6272-1.9359-0.28196 0.12963-0.51479 0.97525-0.51578 1.8732-0.0011 0.92975-0.19493 1.3483-0.62467 1.3483-0.24507 0-0.26051-0.25089-0.15333-2.4923z" stroke-width=".6" style="paint-order:markers fill stroke"/>
   <path d="m-31.044 99.014c-0.12556-0.52309-0.20454-2.9343-0.16071-4.906l0.0443-1.9986 0.6837-0.0452c1.0413-0.0688 1.6997-0.0543 1.8205 0.0402 0.15237 0.11909 0.13644 0.51938-0.02479 0.62399-0.0737 0.0478-0.43184 0.1077-0.79588 0.13311l-0.66189 0.0462v0.85307c0 1.1283 0.0322 1.2067 0.53704 1.306 0.39049 0.0768 0.40575 0.0904 0.50372 0.4475 0.11416 0.416 0.0742 0.47799-0.38532 0.59663-0.42324 0.1093-0.62411 0.4743-0.67657 1.2294-0.0548 0.78849 0.0461 0.89351 0.92956 0.96746 0.66891 0.056 0.73759 0.10983 0.64296 0.50408-0.0763 0.31827-0.20243 0.35538-1.4261 0.41986l-0.96618 0.0509z" stroke-width=".52773" style="paint-order:markers fill stroke"/>
   <path d="m-27.238 99.202c0-0.57346 0.36859-5.9721 0.43135-6.318 0.10613-0.58481 0.30827-0.822 0.6255-0.73397 0.2782 0.0772 0.34104 0.2047 0.61127 1.2402 0.1184 0.4537 0.27306 0.88846 0.34369 0.96614 0.11421 0.1256 0.14626 0.11718 0.28961-0.0761 0.0887-0.11951 0.26182-0.58558 0.3848-1.0357 0.29506-1.0799 0.39432-1.2421 0.76009-1.2421 0.1601 0 0.31239 0.0381 0.33841 0.0846 0.0563 0.10083 0.18489 2.4732 0.26703 4.9291l0.059 1.7654s-0.18542 0.48502-0.38192 0.47268c-0.17962-0.0113-0.29746-0.47268-0.29746-0.47268l-0.0499-1.8596c-0.0518-1.928-0.11695-2.4245-0.31821-2.4245-0.13697 0-0.2362 0.19826-0.59689 1.1925-0.14401 0.39696-0.32195 0.74723-0.39544 0.77841-0.18937 0.0803-0.36721-0.11485-0.36932-0.40533-0.0021-0.23441-0.36242-1.4818-0.45955-1.5891-0.10215-0.11293-0.29569 0.20109-0.38008 0.61668-0.0494 0.24341-0.11131 1.0993-0.13751 1.902-0.0662 2.0265-0.12002 2.2597-0.52195 2.2597-0.11138 0-0.2025-0.0227-0.2025-0.0505z" stroke-width=".60631" style="paint-order:markers fill stroke"/>
   <path d="m-21.428 98.738c-0.42049-0.6418-0.41494-3.6382 0.0097-5.0912 0.49139-1.6824 1.3983-2.0581 2.0282-0.84016 0.60646 1.1728 0.21492 5.3461-0.57576 6.1368-0.43893 0.43894-1.1006 0.34593-1.4619-0.20548zm1.2726-0.46133c0.44173-0.323 0.64334-1.378 0.6483-3.3923 0.0048-1.9366-0.2038-2.4099-0.94307-2.1403-0.58694 0.21411-0.82581 1.1317-0.83722 3.2161-0.01294 2.3621 0.27206 2.9453 1.132 2.3165z" stroke-width=".67603" style="paint-order:markers fill stroke"/>
  </g>
  <path d="m-18.82 69.787c-6.7065-5.0844-15.086-7.923-23.502-7.9612-8.4159-0.03824-16.821 2.724-23.573 7.7473-6.417 4.7737-11.296 11.522-14.075 19.022-1.0748 2.9004-1.8489 5.9367-1.9779 9.0271-0.12905 3.0904 0.40906 6.2446 1.8366 8.9886 1.7754 3.4128 4.8629 6.0438 8.3555 7.6566s7.3744 2.2579 11.221 2.3086c7.6932 0.10151 15.218-2.0947 22.866-2.9266 3.3172-0.36081 6.6624-0.46515 9.9625-0.9583 3.3001-0.49314 6.5998-1.4007 9.3951-3.2227 2.2527-1.4683 4.1192-3.5028 5.4775-5.8235 1.3583-2.3206 2.2141-4.9224 2.6011-7.5833 0.77392-5.3219-0.32442-10.79-2.3715-15.763-1.5547-3.777-3.6552-7.3288-6.2158-10.511z" fill="none" stroke="#ff9243" stroke-width="2.3209"/>
  <g fill="#ff9243" stroke="#ff9243">
   <g stroke-linecap="square">
    <path d="m-42.796 70.335c-0.0446-0.0673-0.72347 6e-3 -1.0602-0.0555-0.33124-0.0604-0.64396-0.0177-0.74831-0.0831-0.17791-0.11152-0.11334-0.44891 0.16032-0.59646 0.64593-0.34827 3.9447-0.48707 4.2391-0.19341 0.10061 0.10029 0.21215 0.45252-0.18087 0.70356-0.26276 0.16783-1.1099 0.10885-1.1711 0.24249-0.0612 0.13363-0.11247 1.0848-0.11407 2.1137-3e-3 1.8777-0.10896 2.9934-0.34387 3.6178-0.15945 0.42377-0.27744 0.46993-0.43523 0.17026-0.44818-1.4558-0.12923-4.2605-0.34584-5.9193z" enable-background="new" stroke-width=".58601" style="paint-order:markers fill stroke"/>
    <path d="m-38.898 76.162c-0.13369-0.31806-0.1557-3.0098-0.044-5.3798 0.20752-1.054-0.26645-1.5269 1.0496-1.5544 1.0954 0.0346 1.6582 0.19959 1.9167 0.56189 0.0849 0.11894 0.17096 0.60418 0.20274 1.1426 0.0845 1.4324-0.24922 1.9816-1.4103 2.3209-0.19988 0.0584 2.2459 3.0112 1.3536 3.1142-0.4239 0.0489-2.0422-3.6538-2.2718-1.3972-0.0951 1.0477-0.2486 1.4712-0.53325 1.4712-0.0801 0-0.19861-0.12574-0.26321-0.27941zm1.9051-3.6674c0.30213-0.10683 0.5833-0.63947 0.6501-1.2316 0.10108-0.89619-0.28886-1.4541-1.0149-1.4518-0.19918 7.3e-4 -0.42649 0.0281-0.50516 0.0611-0.25712 0.10783-0.36446 0.55408-0.36446 1.5152 0 0.75989 0.0347 0.9681 0.17722 1.0622 0.19876 0.13132 0.74672 0.15451 1.0572 0.0447z" stroke-width=".58624" style="paint-order:markers fill stroke"/>
    <path d="m-34.156 75.885c-0.4354-0.66456-0.42966-3.7672 0.01-5.2717 0.50881-1.7421 1.4479-2.1311 2.1001-0.86995 0.62797 1.2144 0.22254 5.5357-0.59617 6.3544-0.45449 0.4545-1.1396 0.35819-1.5137-0.21277zm1.3177-0.47769c0.45739-0.33445 0.66615-1.4268 0.67129-3.5126 5e-3 -2.0053-0.21102-2.4954-0.97651-2.2161-0.60775 0.2217-0.85509 1.1718-0.8669 3.3301-0.0134 2.4459 0.2817 3.0497 1.1721 2.3986z" stroke-width=".7" style="paint-order:markers fill stroke"/>
   </g>
   <path d="m-33.193 68.253c-0.0271-0.0438 0.20385-0.4303 0.35977-0.60201 0.17608-0.19392 0.49533-0.40296 0.72261-0.47316 0.0974-0.0301 0.27604-0.063 0.39693-0.073 0.27654-0.0231 0.28162-5.3e-4 0.0581 0.25815-0.41217 0.47678-0.78887 0.74263-1.2225 0.8628-0.22883 0.0634-0.28924 0.0686-0.31482 0.0273z" stroke-linecap="round" stroke-width=".4" style="paint-order:markers fill stroke"/>
   <path d="m-30.482 76.165c-0.06669-0.16357-0.12251-1.7684-0.12402-3.5664l-0.0027-3.269 0.46585-0.07684c0.25621-0.04226 0.91236-0.05827 1.4581-0.03556 0.848 0.03527 1.0015 0.08384 1.0556 0.33402 0.06469 0.29903-0.15718 0.37404-1.3706 0.46335-0.44609 0.03283-0.50963 0.10651-0.56338 0.65332-0.2144 1.6346 0.19567 1.4868 0.67664 1.5467 0.82018 0.1022 0.9676 0.75016 0.19604 0.87743-1.1363 0.13732-0.74535 0.44931-0.86333 2.0155-0.0887 1.1774-0.14822 1.3549-0.45448 1.3549-0.19546 0-0.40643-0.13246-0.47369-0.29741z" stroke-linecap="round" stroke-width=".54311" style="paint-order:markers fill stroke"/>
  </g>
  <g fill="#32baac" stroke="#32baac">
   <g stroke-linecap="square">
    <path d="m30.379 70.636c-0.0446-0.0673-0.72347 6e-3 -1.0602-0.0555-0.33124-0.0604-0.64396-0.0177-0.74831-0.0831-0.17791-0.11152-0.11334-0.44891 0.16032-0.59646 0.64593-0.34827 3.9447-0.48707 4.2391-0.19341 0.10061 0.10029 0.21215 0.45252-0.18087 0.70356-0.26276 0.16783-1.1099 0.10885-1.1711 0.24249-0.0612 0.13363-0.11247 1.0848-0.11407 2.1137-3e-3 1.8777-0.10896 2.9934-0.34387 3.6178-0.15945 0.42377-0.27744 0.46993-0.43523 0.17026-0.44818-1.4558-0.12923-4.2605-0.34584-5.9193z" enable-background="new" stroke-width=".58601" style="paint-order:markers fill stroke"/>
    <path d="m34.238 76.463c-0.13369-0.31806-0.1557-3.0098-0.044-5.3798 0.20752-1.054-0.26645-1.5269 1.0496-1.5544 1.0954 0.0346 1.6582 0.19959 1.9167 0.56189 0.0849 0.11894 0.17096 0.60418 0.20274 1.1426 0.0845 1.4324-0.24922 1.9816-1.4103 2.3209-0.19988 0.0584 2.2459 3.0112 1.3536 3.1142-0.4239 0.0489-2.0422-3.6538-2.2718-1.3972-0.0951 1.0477-0.2486 1.4712-0.53325 1.4712-0.0801 0-0.19861-0.12574-0.26321-0.27941zm1.9051-3.6674c0.30213-0.10683 0.5833-0.63947 0.6501-1.2316 0.10108-0.89619-0.28886-1.4541-1.0149-1.4518-0.19918 7.41e-4 -0.42649 0.0281-0.50516 0.0611-0.25712 0.10783-0.36446 0.55408-0.36446 1.5152 0 0.75989 0.0347 0.9681 0.17722 1.0622 0.19876 0.13132 0.74672 0.15451 1.0572 0.0447z" stroke-width=".58624" style="paint-order:markers fill stroke"/>
    <path d="m38.942 76.186c-0.4354-0.66456-0.42966-3.7672 0.01-5.2717 0.50881-1.7421 1.4479-2.1311 2.1001-0.86995 0.62797 1.2144 0.22254 5.5357-0.59617 6.3544-0.45449 0.4545-1.1396 0.35819-1.5137-0.21277zm1.3177-0.47769c0.45739-0.33445 0.66615-1.4268 0.67129-3.5126 5e-3 -2.0053-0.21102-2.4954-0.97651-2.2161-0.60775 0.2217-0.85509 1.1718-0.8669 3.3301-0.0134 2.4459 0.2817 3.0497 1.1721 2.3986z" stroke-width=".7" style="paint-order:markers fill stroke"/>
   </g>
   <path d="m39.867 68.554c-0.0271-0.0438 0.20385-0.4303 0.35977-0.60201 0.17608-0.19392 0.49533-0.40296 0.72261-0.47316 0.0974-0.0301 0.27604-0.063 0.39693-0.073 0.27654-0.0231 0.28162-5.3e-4 0.0581 0.25815-0.41217 0.47678-0.78887 0.74263-1.2225 0.8628-0.22883 0.0634-0.28924 0.0686-0.31482 0.0273z" stroke-linecap="round" stroke-width=".4" style="paint-order:markers fill stroke"/>
   <path d="m42.578 76.466c-0.06669-0.16357-0.12251-1.7684-0.12402-3.5664l-0.0027-3.269 0.46585-0.07684c0.25621-0.04226 0.91236-0.05827 1.4581-0.03556 0.848 0.03527 1.0015 0.08384 1.0556 0.33402 0.06469 0.29903-0.15718 0.37404-1.3706 0.46335-0.44609 0.03283-0.50963 0.10651-0.56338 0.65332-0.2144 1.6346 0.19567 1.4868 0.67664 1.5467 0.82018 0.1022 0.9676 0.75016 0.19604 0.87743-1.1363 0.13732-0.74535 0.44931-0.86333 2.0155-0.0887 1.1774-0.14822 1.3549-0.45448 1.3549-0.19546 0-0.40643-0.13246-0.47369-0.29741z" stroke-linecap="round" stroke-width=".54311" style="paint-order:markers fill stroke"/>
  </g>
 </g>
</svg>
