<svg width="150.59mm" height="150.59mm" version="1.1" viewBox="0 0 150.59 150.59" xmlns="http://www.w3.org/2000/svg">
 <g transform="translate(203.81 -85.635)">
  <g stroke="#000" stroke-linecap="square">
   <g stroke-width=".3">
    <path d="m-198.36 194.3c-0.0269-0.2422-0.0407-0.4863-0.0554-0.72994-0.0322-0.3841-0.0403-0.76067 0.0247-1.1394 0.1666-0.58851 0.58973-0.8921 1.0278-1.141 0.5125-0.2683 1.0549-0.37061 1.6088-0.35573 0.56828 0.0396 1.0082 0.28505 1.4293 0.73978 0.37829 0.46819 0.5493 1.0738 0.6648 1.7004 0.1214 0.74748-0.0233 1.3914-0.28346 2.0641-0.30495 0.70291-0.76166 1.2709-1.2296 1.8133-0.49322 0.56032-1.0414 1.039-1.6061 1.4848-0.46807 0.35816-0.96832 0.64609-1.4766 0.9073-0.29535 0.15305-0.60053 0.2726-0.91095 0.37006-0.22702 0.0712-0.17166 0.11105-0.1014-0.63688 8e-5 0 0.23127-0.0276 0.35002-0.0417 0.37652-0.0449 0.754-0.0757 1.1316-0.1036 0.41353-0.03 0.82751-0.0492 1.2416-0.0641 0.32443-0.0114 0.64899-0.0163 0.97355-0.0178 0.21977 0 0.43953 3e-3 0.65928 6e-3 0.14592 3e-3 0.29184 6e-3 0.43775 0.01 0.0652 3e-3 0.0334 0 0.0954 3e-3 1.9386 0.0501 1.927 0.7192-0.0116 0.66906-0.0621-3e-3 -0.0305 0-0.0952-3e-3 -0.14472-4e-3 -0.28944-7e-3 -0.43418-0.01-0.21641-4e-3 -0.43282-7e-3 -0.64925-6e-3 -0.3199 3e-3 -0.63978 7e-3 -0.95953 0.0175-0.40841 0.0147-0.81672 0.0335-1.2246 0.0632-0.37095 0.0273-0.74183 0.0576-1.1117 0.10173-0.10081 0.012-0.35284 0.0495-0.35601 0.0424-0.28083-0.63039-0.33662-0.59709-0.0822-0.67796 0.2845-0.0892 0.56419-0.1983 0.83481-0.33877 0.47886-0.24564 0.95028-0.51612 1.3916-0.85244 0.53642-0.42294 1.0575-0.8768 1.5264-1.4082 0.41971-0.48537 0.83319-0.99052 1.1122-1.6163 0.20551-0.51761 0.33883-1.0508 0.24295-1.6307-0.0878-0.49033-0.20963-0.97325-0.49703-1.3489-0.3031-0.34398-0.65814-0.53922-1.0762-0.56739-0.46958-0.0184-0.92924 0.072-1.3649 0.29466-0.27822 0.15404-0.58175 0.32696-0.72195 0.6796-0.0636 0.31097-0.0306 0.62729-0.0129 0.94374 0.0134 0.2233 0.0263 0.44691 0.0494 0.66907 0.31878 2.3338-0.2222 2.4438-0.54097 0.11004z" style="paint-order:markers fill stroke"/>
    <path d="m-197.72 123.02c0.21985-0.22403 0.43649-0.45134 0.65266-0.67908 0.40674-0.42803 0.78978-0.87855 1.166-1.3347 0.34707-0.41659 0.67367-0.84977 0.98355-1.2959 0.1701-0.25003 0.32938-0.50809 0.46453-0.77982 0.12633-0.27505 0.0487-0.34514 0.59759 0.0619 0.0428 0.0318-9e-3 0.10814-0.0151 0.16205-8e-3 0.0681-0.0169 0.13609-0.0255 0.20414-0.09 0.63696-0.18794 1.2726-0.27429 1.9102-0.10567 0.78387-0.18644 1.5708-0.25698 2.3588-0.0516 0.58587-0.0889 1.1729-0.1144 1.7606-0.0875 2.0166-0.64364 1.9913-0.55611-0.0253 0.026-0.59662 0.0637-1.1926 0.11618-1.7874 0.0713-0.79671 0.15305-1.5925 0.25994-2.3851 0.0861-0.63555 0.18358-1.2693 0.2735-1.9043 8e-3 -0.0624 0.0163-0.12489 0.0235-0.18748 5e-3 -0.0443-0.0296-0.12484 0.0131-0.13333 0.68173-0.13531 0.57957-0.0605 0.45397 0.22555-0.14819 0.29613-0.32041 0.57858-0.50673 0.85101-0.31893 0.45897-0.65487 0.90478-1.0119 1.3334-0.38466 0.46622-0.77628 0.92668-1.1921 1.3642-0.21793 0.22957-0.43631 0.4587-0.65789 0.68455-1.3917 1.4274-1.7853 1.0237-0.39364-0.40374z" style="paint-order:markers fill stroke"/>
    <path d="m-82.809 165.35c-0.99396-6e-3 -0.75268 0.46399 0.80694 0.72536 0.18927 0.0282 0.37976 0.0431 0.57016 0.0569-0.0456 0.28302-0.0762 0.68418-0.0762 1.2141v2.0475c-2e-3 0.34128-0.0132 0.68303 0.0598 1.0156 0.17003 0.47653 0.49499 0.40358 0.83199 0.24447 0.33772-0.18805 0.66938-0.39013 1.009-0.57367 0.34696-0.18882 0.70788-0.33622 1.0758-0.45679 0.30699-0.0976 0.62031-0.15626 0.93845-0.15077 0.20894 0.01 0.39693 0.0845 0.54041 0.26486 0.14468 0.21919 0.17854 0.4966 0.20837 0.76362 0.0339 0.39061 0.0179 0.78343-2e-3 1.1744-0.0105 0.38141-0.0736 0.75231-0.18716 1.1089-0.10644 0.33247-0.29278 0.59251-0.52085 0.81848-0.30008 0.26772-0.653 0.42887-1.0068 0.56992-0.3634 0.13793-0.74057 0.2092-1.1192 0.25684-0.26066 0.0307-0.52268 0.0347-0.78405 0.0175-9e-3 0.0292-0.19103-0.047-0.15473-0.0575 0.0136 3e-3 0.0109 6e-3 0.0127-0.0162-0.22846-2.2591-0.77305-2.1834-0.54459 0.0757 0.0149 0.11729 0.0338 0.22717 0.0934 0.32703 0.14681 0.2058 0.33373 0.30185 0.56297 0.31348 0.29107 0.0184 0.58304 0.0144 0.87328-0.0202 0.41887-0.0534 0.83575-0.13367 1.2374-0.28762 0.41944-0.16859 0.83512-0.36542 1.1866-0.69047 0.29603-0.30146 0.54042-0.64763 0.6786-1.0846 0.12941-0.41668 0.20777-0.84774 0.21991-1.2926 0.022-0.43245 0.0382-0.86714-2e-3 -1.299-0.0485-0.41148-0.12378-0.81965-0.36845-1.1379-0.25819-0.28325-0.56064-0.43884-0.91857-0.44797-0.36992-3e-3 -0.73481 0.0585-1.0917 0.17467-0.39574 0.13037-0.78408 0.28873-1.1574 0.49208-0.3329 0.18019-0.65887 0.37621-0.98892 0.56329-0.0632 0.0319-0.0985 0.0415-0.12098 0.0488-0.0344-0.2326 3e-3 -0.4821-0.0129-0.7142v-2.0476c0-0.5161-0.0289-0.90887-0.0726-1.1908 0.29778 0.0153 0.59569 0.027 0.89366 0.0356 0.41832 0.0117 0.83669 0.0169 1.2551 0.0209 0.28196 3e-3 0.5639 3e-3 0.84587 0 0.12949 0 0.25904-4e-3 0.38852-6e-3 0.0296 0 0.0592 0 0.0889-3e-3 1.9381-0.0711 1.921-0.71427-0.017-0.64325-0.0278 0-0.0558 0-0.0837 3e-3 -0.1266 4e-3 -0.25319 5e-3 -0.37982 6e-3 -0.27959 3e-3 -0.55912 3e-3 -0.83869 0-0.41522-4e-3 -0.83042-0.01-1.2456-0.0205-0.39388-0.0114-0.78784-0.0245-1.1812-0.0507-0.20635-0.0147-0.41302-0.0289-0.61826-0.0588v-2e-4c-0.35994-0.0603-0.65513-0.0871-0.8845-0.0884zm1.8784 4.841c2e-3 3e-3 2e-3 3e-3 3e-3 4e-3 0.0578 0.0844 0.0213 0.0514 8e-3 0.0402-4e-3 -0.0144-7e-3 -0.0294-0.0102-0.0441z" enable-background="new" style="paint-order:markers fill stroke"/>
   </g>
   <path d="m-78.77 210.15c5e-3 0.10506 0.60172 1.1106 0.66018 1.2004 0.13508 0.17775 0.35023 0.28577 0.5615 0.38553 0.28841 0.13168 0.60546 0.19314 0.92428 0.24066 0.30342 0.0393 0.60933 0.0679 0.91266 0.0187 0.26082-0.0484 0.48787-0.16133 0.68493-0.31303 0.21172-0.18099 0.34159-0.41122 0.45079-0.64667 0.11962-0.27161 0.16753-0.55901 0.19907-0.84654 0.0281-0.29971 0.0182-0.60057 5e-3 -0.90058-5e-3 -0.27024-0.0342-0.53579-0.12599-0.79458-0.0887-0.21115-0.24685-0.37401-0.45953-0.49908-0.31576-0.15145-0.67635-0.19983-1.0296-0.24057-1.7248-0.0855-3.0154 0.80239-3.0317 1.4538-0.0122 0.50342-0.0804 0.56918-0.19266-1.3464-0.93579-0.72516 0.39236-2.9722 1.4-3.7444 0.70334-0.53949 1.8572-1.2025 2.5876-1.1831 1.2926 0.0584 2.8019 0.71915-0.0212 0.59508-3.1132 1.0275-3.3132 2.6542-3.2369 4.6647-1.235 0.0806 0.8194-0.78962 1.2291-0.9307 0.44294-0.12979 0.89431-0.15909 1.3586-0.0989 0.46498 0.0549 0.93422 0.12922 1.3391 0.34647 0.33176 0.21041 0.58696 0.47104 0.71938 0.81285 0.10443 0.3073 0.15033 0.62063 0.1544 0.94102 0.0152 0.32693 0.0248 0.65478-7e-3 0.9813-0.0389 0.34455-0.10023 0.68822-0.2463 1.0128-0.15253 0.32206-0.33975 0.63198-0.63833 0.87305-0.29762 0.21863-0.63261 0.38468-1.021 0.45027-0.38325 0.0532-0.76584 0.0375-1.1484-0.019-0.39443-0.0598-0.7851-0.14121-1.1405-0.3065-0.32649-0.15744-0.64035-0.33833-0.83419-0.62299-0.87719-0.96358-1.0869-2.2564-0.99092-2.652 0.10851-0.4473 0.10742-1.6436 0.19437-1.9199 0.48909-1.5544 0.85305 0.25138 0.57805 1.8868z" stroke-width=".3" style="paint-order:markers fill stroke"/>
  </g>
  <g stroke="#000" stroke-width="2">
   <path d="m-117.82 227.48c-9.5859 1.5315-19.396 1.6513-29.017 0.35425-11.512-1.552-23.1-5.3394-31.688-13.161-3.3238-3.0274-6.1576-6.644-7.978-10.755-1.8204-4.1109-2.5949-8.7317-1.8644-13.168 0.91327-5.5461 4.1389-10.55 8.3539-14.268 4.215-3.7185 9.373-6.2362 14.699-8.0332 16.096-5.4314 33.679-4.4978 50.392-1.4498 6.66 1.2146 13.363 2.7924 19.278 6.0869 2.9571 1.6472 5.694 3.7206 7.9407 6.2524 2.2467 2.5318 3.995 5.5311 4.9103 8.7899 1.2082 4.3015 0.92788 8.9491-0.4143 13.211-1.3422 4.2616-3.7106 8.1537-6.5774 11.581-5.2507 6.2766-12.313 11.107-20.201 13.283-2.5551 0.70506-5.1863 1.1341-7.833 1.2773z" fill="#f61c2d"/>
   <path d="m-120.6 218.1c-1.5346-1.1494-2.4798-2.9373-3.0273-4.7747-0.5476-1.8374-0.74299-3.7577-1.072-5.6465-0.32903-1.8888-0.81071-3.7943-1.8556-5.4018-0.52247-0.80373-1.1841-1.5236-1.9769-2.0625s-1.7197-0.89246-2.676-0.95887c-1.2989-0.0902-2.6072 0.35765-3.6538 1.1322s-1.8406 1.8598-2.3771 3.0462c-1.0728 2.3727-1.1284 5.0637-1.1253 7.6677 3e-3 2.604 0.0344 5.2799-0.88928 7.7146-0.46187 1.2173-1.1667 2.3568-2.1368 3.2252-0.9701 0.8684-2.216 1.4528-3.516 1.524-1.0078 0.0552-2.024-0.19809-2.9126-0.6769-0.88857-0.47882-1.6509-1.1782-2.2456-1.9938-1.1893-1.6312-1.6906-3.681-1.7797-5.6978-0.17819-4.0335 1.1796-8.0468 0.77121-12.064-0.11873-1.1679-0.38896-2.326-0.86921-3.3972-0.48025-1.0712-1.175-2.0544-2.074-2.8092s-2.0065-1.2746-3.1724-1.4116c-1.1659-0.13698-2.3864 0.12162-3.3584 0.77985-0.90295 0.61147-1.5644 1.5435-1.9452 2.5654s-0.4923 2.1306-0.43202 3.2195c0.12057 2.1777 0.905 4.2542 1.4628 6.3627 0.27887 1.0542 0.50291 2.1284 0.55731 3.2176s-0.0652 2.1975-0.45512 3.2159c-0.38994 1.0184-1.0618 1.9437-1.9724 2.5438-0.91057 0.60005-2.0665 0.8523-3.124 0.586-0.75956-0.19128-1.4438-0.63937-1.9654-1.2237-0.52164-0.58431-0.88497-1.3003-1.1036-2.0525-0.43721-1.5043-0.30231-3.1134-0.0513-4.6597 0.251-1.5463 0.61522-3.0853 0.62651-4.6518 6e-3 -0.78326-0.0785-1.5712-0.30527-2.3209-0.22676-0.74973-0.59957-1.4613-1.13-2.0376-0.6879-0.74738-1.6117-1.2401-2.5642-1.5929-0.95253-0.3528-1.9467-0.5785-2.9171-0.87867s-1.9324-0.68348-2.7332-1.3084c-0.8008-0.6249-1.431-1.5197-1.5608-2.5271-0.0905-0.70224 0.0675-1.4271 0.40163-2.0514 0.33412-0.62425 0.83881-1.1497 1.4236-1.5489 1.1695-0.79848 2.617-1.0838 4.0309-1.1634s2.8341 0.0278 4.2467-0.072c1.4126-0.0997 2.8565-0.42825 3.9908-1.2759 0.90174-0.67386 1.5529-1.6369 2.0264-2.6582s0.78319-2.109 1.1165-3.1843c0.33326-1.0752 0.6958-2.1515 1.2632-3.1238 0.56742-0.97225 1.3582-1.8434 2.3701-2.3366 0.82348-0.40131 1.7676-0.53581 2.677-0.4254 0.90939 0.1104 1.7832 0.46052 2.544 0.97089 1.5214 1.0207 2.5576 2.6451 3.1895 4.3648 1.2638 3.4394 1.0474 7.2831 2.2924 10.729 0.5209 1.4419 1.3105 2.8128 2.4538 3.8342s2.6657 1.6664 4.1957 1.5694c1.2306-0.078 2.4086-0.63098 3.3275-1.4532 0.91894-0.8222 1.5874-1.902 2.0158-3.0583 0.8568-2.3125 0.7671-4.8567 0.58064-7.3158-0.18646-2.4591-0.45567-4.9604 0.0729-7.3692 0.26426-1.2044 0.73217-2.3748 1.4613-3.3692 0.72908-0.99443 1.7288-1.8068 2.8909-2.2191 1.0018-0.35546 2.1036-0.4057 3.1436-0.18574 1.04 0.21997 2.0176 0.70532 2.8499 1.3665 1.6647 1.3224 2.7128 3.3096 3.2043 5.378 0.98304 4.1368-0.11344 8.4436-0.37198 12.688-0.0889 1.4588-0.0717 2.9595 0.434 4.3308 0.25286 0.68563 0.62845 1.331 1.1363 1.8564 0.50789 0.52543 1.1513 0.9276 1.8596 1.1074 0.60631 0.15391 1.251 0.14267 1.8573-0.0113 0.60629-0.15401 1.174-0.44881 1.6627-0.83926 0.97743-0.78091 1.6212-1.9276 1.9454-3.136 0.64847-2.4167 0.0836-4.9668-0.27184-7.4436-0.17771-1.2384-0.30238-2.4935-0.19324-3.7398 0.10913-1.2463 0.46334-2.4914 1.1753-3.5202s1.8064-1.8233 3.0416-2.0217c0.61762-0.0992 1.2615-0.0483 1.8487 0.16729 0.58722 0.21558 1.1154 0.5977 1.4869 1.101 0.5336 0.72301 0.7205 1.652 0.71836 2.5506-2e-3 0.89859-0.17761 1.7863-0.30118 2.6764-0.12358 0.89006-0.19447 1.8051 0.01 2.6802 0.10201 0.43757 0.27339 0.86139 0.52746 1.232 0.25407 0.37057 0.59261 0.68674 0.99275 0.89109 0.40421 0.20643 0.86266 0.29487 1.3165 0.29308 0.45387-2e-3 0.90414-0.0914 1.3378-0.22547 0.86721-0.26821 1.6696-0.71171 2.5218-1.0244 2.3241-0.85287 5.028-0.66073 7.1645 0.58984 1.0683 0.62528 1.9901 1.5016 2.6585 2.5434s1.0814 2.2479 1.1799 3.4818c0.09846 1.2339-0.119 2.4931-0.63645 3.6176-0.51746 1.1244-1.3349 2.1109-2.3505 2.8184-1.0156 0.70757-2.2274 1.1332-3.4632 1.2042-1.2358 0.071-2.4916-0.21427-3.5696-0.82259-1.0297-0.58104-1.8907-1.4432-2.964-1.9391-1.3693-0.63271-2.9966-0.60111-4.4053-0.0618-1.4087 0.53934-2.605 1.5555-3.5046 2.7662-1.7992 2.4215-2.4134 5.4945-3.0244 8.4487-0.29682 1.4353-0.61402 2.8954-1.3453 4.1656-0.36563 0.63513-0.83454 1.2164-1.4129 1.6665-0.5784 0.45004-1.2694 0.76532-1.9968 0.85452-1.1605 0.14231-2.3368-0.30028-3.2727-1.0012z" fill="#fd939d"/>
   <path d="m-117.03 155.72c-9.6236 1.597-19.49 1.7208-29.151 0.36581-11.608-1.628-23.259-5.6006-31.834-13.591-3.3806-3.1497-6.2416-6.9056-8.0652-11.151-1.8235-4.2454-2.5783-8.9941-1.8227-13.552 0.93449-5.6374 4.142-10.749 8.363-14.601 4.221-3.8519 9.4103-6.5196 14.796-8.4287 16.107-5.7095 33.861-4.816 50.624-1.4971 6.7126 1.3289 13.449 3.0727 19.371 6.5017 5.9217 3.429 11.007 8.7429 12.906 15.317 1.2789 4.4279 1.0502 9.2233-0.29091 13.633-1.3412 4.4095-3.7598 8.4461-6.7332 11.968-7.0328 8.3295-17.329 13.827-28.164 15.036z" fill="#33d917"/>
   <path d="m-120.01 151.04c-8.5465 1.3594-17.291 1.4658-25.868 0.31481-10.258-1.3766-20.589-4.7361-28.25-11.696-2.9589-2.688-5.4837-5.8997-7.1071-9.5528-1.6234-3.6531-2.3163-7.7617-1.6673-11.706 0.81234-4.9378 3.6913-9.3902 7.4504-12.693 3.759-3.3032 8.3566-5.5335 13.101-7.125 14.356-4.8156 30.022-3.9786 44.924-1.2884 5.9353 1.0715 11.911 2.4616 17.186 5.3864 2.6373 1.4624 5.0788 3.3058 7.0823 5.5597 2.0035 2.2539 3.5617 4.9263 4.3743 7.8304 1.0284 3.6754 0.83369 7.6386-0.25588 11.296-1.0896 3.6578-3.0467 7.0212-5.4496 9.9864-6.2404 7.7008-15.652 12.749-25.52 13.687z" fill="#9af28c"/>
  </g>
  <g fill="#33d917" stroke="#000">
   <path d="m-142.5 121.87c-1.6296 0.31156-3.3203 0.30048-4.9456-0.0324-1.252-0.25644-2.483-0.70345-3.761-0.69263-0.639 5e-3 -1.2857 0.13063-1.8473 0.43555-0.56158 0.30493-1.0323 0.80021-1.2385 1.405-0.14845 0.43541-0.15599 0.91414-0.0449 1.3605 0.1111 0.44641 0.33811 0.86054 0.63618 1.2109 0.60179 0.7074 1.4792 1.144 2.3882 1.3348 0.90893 0.1908 1.852 0.15157 2.7724 0.0277 1.8409-0.24776 3.6799-0.83072 5.5193-0.57205 1.4273 0.20071 2.7722 0.90238 4.2134 0.91982 0.72061 9e-3 1.4644-0.16962 2.0261-0.62111 0.28084-0.22575 0.51114-0.5174 0.64908-0.85028 0.13794-0.33289 0.18115-0.70711 0.10522-1.0594-0.06-0.27859-0.19284-0.53919-0.36976-0.76262s-0.39721-0.4105-0.63739-0.56391c-0.48036-0.30681-1.0331-0.4778-1.5813-0.63392-1.2791-0.36429-2.5758-0.6668-3.8841-0.90612z"/>
   <path d="m-118.22 123.13c-1.6296 0.31147-3.3202 0.30038-4.9456-0.0324-1.252-0.25637-2.483-0.70324-3.7609-0.69238-0.63897 5e-3 -1.2856 0.13063-1.8472 0.43551-0.56157 0.30488-1.0323 0.80007-1.2387 1.4048-0.14859 0.43553-0.15622 0.91443-0.0451 1.361 0.11109 0.44657 0.33816 0.86086 0.63635 1.2114 0.6018 0.70739 1.4792 1.144 2.3882 1.3348 0.90894 0.19079 1.852 0.15157 2.7724 0.0277 1.8409-0.24775 3.6799-0.83069 5.5193-0.57201 1.4273 0.20072 2.7722 0.90238 4.2134 0.9198 0.72061 9e-3 1.4644-0.16964 2.0261-0.62115 0.28084-0.22575 0.51113-0.5174 0.64906-0.85029s0.18113-0.70711 0.10519-1.0594c-0.0601-0.27859-0.19286-0.53918-0.36978-0.7626-0.17693-0.22343-0.39721-0.41049-0.6374-0.5639-0.48036-0.30681-1.0331-0.4778-1.5813-0.63397-1.2791-0.3644-2.5758-0.66718-3.884-0.90694z"/>
   <path d="m-130.66 118.14c-1.6296 0.31156-3.3202 0.30047-4.9456-0.0324-1.252-0.25644-2.483-0.70344-3.761-0.69262-0.639 5e-3 -1.2857 0.13062-1.8473 0.43554s-1.0323 0.8002-1.2385 1.405c-0.14846 0.43542-0.15601 0.91416-0.0449 1.3606 0.11109 0.44642 0.33811 0.86056 0.63619 1.211 0.60179 0.7074 1.4792 1.144 2.3882 1.3348 0.90893 0.19079 1.852 0.15156 2.7724 0.0277 1.8409-0.24775 3.6799-0.83071 5.5193-0.57203 1.4273 0.20072 2.7722 0.90241 4.2134 0.91985 0.72061 9e-3 1.4644-0.16962 2.0261-0.62111 0.28084-0.22575 0.51115-0.5174 0.64908-0.85029 0.13793-0.33288 0.18114-0.70711 0.10521-1.0594-0.0601-0.27859-0.19285-0.53919-0.36977-0.76262-0.17693-0.22342-0.39722-0.41049-0.6374-0.5639-0.48037-0.3068-1.0331-0.47779-1.5813-0.63391-1.2791-0.36429-2.5758-0.66684-3.8841-0.90622z"/>
   <path d="m-160.83 124.08c-1.6296 0.31155-3.3203 0.30046-4.9456-0.0324-1.252-0.25643-2.483-0.70343-3.761-0.6926-0.639 5e-3 -1.2857 0.13063-1.8473 0.43554-0.56158 0.30492-1.0323 0.80019-1.2385 1.405-0.14847 0.43543-0.15602 0.91418-0.0449 1.3606 0.1111 0.44643 0.33812 0.86059 0.63621 1.211 0.60179 0.70739 1.4792 1.144 2.3882 1.3348s1.852 0.15155 2.7724 0.0277c1.8409-0.24777 3.6799-0.83073 5.5193-0.57205 1.4273 0.20073 2.7722 0.90243 4.2134 0.91988 0.72061 9e-3 1.4644-0.1696 2.0261-0.62109 0.28085-0.22574 0.51116-0.5174 0.64909-0.85028 0.13794-0.33288 0.18115-0.70711 0.10522-1.0594-0.0601-0.27859-0.19285-0.53919-0.36977-0.76262s-0.39722-0.4105-0.6374-0.5639c-0.48037-0.30681-1.0331-0.47779-1.5813-0.63392-1.2791-0.3643-2.5758-0.66686-3.8841-0.90628z"/>
   <path d="m-159.05 101.71c-1.6296 0.31155-3.3203 0.30046-4.9457-0.0324-1.252-0.25644-2.483-0.70343-3.761-0.6926-0.63899 5e-3 -1.2857 0.13063-1.8473 0.43555-0.56158 0.30492-1.0323 0.80019-1.2385 1.405-0.14845 0.43541-0.15601 0.91413-0.0449 1.3605 0.11109 0.44641 0.33808 0.86055 0.63615 1.2109 0.60177 0.70742 1.4792 1.1441 2.3882 1.3349 0.90894 0.19081 1.852 0.15158 2.7724 0.0277 1.8409-0.24777 3.6799-0.83075 5.5193-0.57209 1.4273 0.20071 2.7722 0.90237 4.2134 0.9198 0.7206 9e-3 1.4644-0.16962 2.0261-0.62111 0.28085-0.22575 0.51115-0.5174 0.64908-0.85028 0.13794-0.33288 0.18115-0.7071 0.10522-1.0593-0.06-0.27859-0.19284-0.53919-0.36977-0.76262-0.17692-0.22343-0.3972-0.4105-0.63739-0.5639-0.48036-0.30681-1.0331-0.4778-1.5813-0.63392-1.2791-0.36429-2.5758-0.6668-3.884-0.90613z"/>
   <path d="m-159.92 107.03c-1.6296 0.31156-3.3203 0.30047-4.9456-0.0324-1.252-0.25644-2.483-0.70345-3.761-0.69262-0.639 5e-3 -1.2857 0.13062-1.8473 0.43555-0.56158 0.30492-1.0323 0.8002-1.2385 1.405-0.14845 0.43541-0.156 0.91414-0.0449 1.3606 0.11109 0.44641 0.3381 0.86054 0.63617 1.2109 0.60178 0.7074 1.4792 1.144 2.3882 1.3348 0.90894 0.1908 1.852 0.15157 2.7724 0.0277 1.8409-0.24776 3.6799-0.83073 5.5193-0.57206 1.4273 0.20072 2.7722 0.90239 4.2134 0.91982 0.72061 9e-3 1.4644-0.16962 2.0261-0.62111 0.28085-0.22575 0.51115-0.5174 0.64908-0.85028 0.13794-0.33288 0.18115-0.70711 0.10522-1.0594-0.06-0.27859-0.19285-0.53919-0.36977-0.76262s-0.39721-0.4105-0.63739-0.5639c-0.48037-0.30681-1.0331-0.4778-1.5813-0.63392-1.2791-0.36429-2.5758-0.6668-3.8841-0.90613z"/>
   <path d="m-159.92 110.44c-1.6296 0.31149-3.3203 0.3004-4.9457-0.0324-1.252-0.25638-2.483-0.70328-3.761-0.69242-0.63898 5e-3 -1.2857 0.13063-1.8472 0.43551-0.56158 0.30489-1.0323 0.8001-1.2386 1.4049-0.14858 0.43553-0.15619 0.91442-0.0451 1.361 0.1111 0.44656 0.33818 0.86084 0.63637 1.2113 0.60182 0.70737 1.4793 1.144 2.3882 1.3348s1.852 0.15157 2.7724 0.0277c1.8409-0.24773 3.6799-0.83063 5.5193-0.57193 1.4273 0.20074 2.7722 0.90242 4.2134 0.91985 0.7206 9e-3 1.4644-0.16963 2.0261-0.62113 0.28084-0.22575 0.51114-0.51741 0.64907-0.8503 0.13793-0.33288 0.18113-0.70711 0.10519-1.0594-0.0601-0.27859-0.19286-0.53918-0.36978-0.76261-0.17693-0.22342-0.39722-0.41049-0.6374-0.56389-0.48036-0.30681-1.0331-0.47781-1.5813-0.63398-1.2791-0.36441-2.5758-0.66722-3.884-0.90701z"/>
   <path d="m-160.56 114.51c-1.6296 0.31156-3.3203 0.30047-4.9456-0.0324-1.252-0.25644-2.483-0.70345-3.761-0.69263-0.639 5e-3 -1.2857 0.13062-1.8473 0.43555-0.56158 0.30492-1.0323 0.8002-1.2385 1.405-0.14845 0.43541-0.156 0.91414-0.0449 1.3606 0.11109 0.44641 0.3381 0.86054 0.63617 1.2109 0.60178 0.7074 1.4792 1.1441 2.3882 1.3349 0.90893 0.19081 1.852 0.15159 2.7724 0.0277 1.8409-0.24774 3.6799-0.83069 5.5193-0.57201 1.4273 0.20072 2.7722 0.90239 4.2134 0.91983 0.72061 9e-3 1.4644-0.16963 2.0261-0.62112 0.28085-0.22574 0.51115-0.51739 0.64908-0.85027 0.13794-0.33288 0.18115-0.70711 0.10523-1.0594-0.06-0.2786-0.19284-0.5392-0.36976-0.76263-0.17693-0.22343-0.39722-0.41051-0.6374-0.56392-0.48037-0.30681-1.0331-0.4778-1.5813-0.63393-1.2791-0.3643-2.5758-0.66682-3.8841-0.90617z"/>
  </g>
  <path d="m-160.88 118.78c-1.6296 0.31155-3.3202 0.30046-4.9456-0.0324-1.252-0.25643-2.483-0.70342-3.761-0.69259-0.639 5e-3 -1.2857 0.13062-1.8473 0.43554s-1.0323 0.80019-1.2385 1.405c-0.14846 0.43541-0.15602 0.91415-0.0449 1.3606 0.11109 0.44642 0.33809 0.86056 0.63616 1.211 0.60178 0.70741 1.4792 1.1441 2.3882 1.3349s1.852 0.15155 2.7724 0.0277c1.8409-0.2478 3.6799-0.83079 5.5193-0.57211 1.4273 0.20073 2.7722 0.90243 4.2134 0.9199 0.72061 9e-3 1.4644-0.1696 2.0261-0.62109 0.28085-0.22574 0.51115-0.51739 0.64909-0.85027 0.13793-0.33288 0.18114-0.70711 0.10521-1.0594-0.0601-0.27859-0.19285-0.53919-0.36977-0.76261-0.17693-0.22343-0.39722-0.41049-0.6374-0.5639-0.48037-0.3068-1.0331-0.47778-1.5813-0.6339-1.2791-0.36429-2.5758-0.66684-3.8841-0.90624z" fill="#18b600" stroke="#000"/>
  <g fill="#33d917" stroke="#000">
   <path d="m-128.69 96.356c-1.6296 0.31156-3.3203 0.30047-4.9456-0.03244-1.252-0.25644-2.483-0.70345-3.761-0.69263-0.639 0.0054-1.2857 0.13062-1.8473 0.43555s-1.0323 0.80021-1.2385 1.405c-0.14845 0.43541-0.156 0.91414-0.0449 1.3605 0.11109 0.44641 0.3381 0.86054 0.63617 1.2109 0.60178 0.7074 1.4792 1.144 2.3882 1.3348 0.90893 0.1908 1.852 0.15157 2.7724 0.0277 1.8409-0.24776 3.6799-0.83073 5.5193-0.57206 1.4273 0.20072 2.7722 0.90239 4.2135 0.91983 0.7206 9e-3 1.4644-0.16962 2.0261-0.62112 0.28084-0.22575 0.51114-0.5174 0.64908-0.85028 0.13793-0.33289 0.18114-0.70712 0.10521-1.0594-0.0601-0.27859-0.19285-0.53919-0.36977-0.76262-0.17692-0.22343-0.39721-0.4105-0.6374-0.5639-0.48037-0.30681-1.0331-0.47779-1.5813-0.63391-1.2791-0.36428-2.5758-0.6668-3.8841-0.90613z"/>
   <path d="m-129.57 101.67c-1.6296 0.31156-3.3203 0.30047-4.9456-0.0324-1.252-0.25644-2.483-0.70345-3.761-0.69263-0.639 5e-3 -1.2857 0.13063-1.8473 0.43556-0.56158 0.30492-1.0323 0.8002-1.2385 1.405-0.14845 0.43541-0.15599 0.91414-0.0449 1.3606 0.1111 0.44641 0.3381 0.86054 0.63618 1.2109 0.60178 0.7074 1.4792 1.144 2.3882 1.3348 0.90893 0.1908 1.852 0.15157 2.7724 0.0277 1.8409-0.24776 3.6799-0.83072 5.5193-0.57205 1.4273 0.20072 2.7722 0.90239 4.2135 0.91982 0.72061 9e-3 1.4644-0.16962 2.0261-0.62112 0.28084-0.22575 0.51114-0.5174 0.64908-0.85029 0.13793-0.33288 0.18114-0.70711 0.10521-1.0594-0.0601-0.27859-0.19285-0.53919-0.36977-0.76261-0.17692-0.22343-0.3972-0.4105-0.63738-0.5639-0.48037-0.30681-1.0331-0.4778-1.5813-0.63392-1.2791-0.36429-2.5758-0.6668-3.8841-0.90613z"/>
   <path d="m-129.57 105.09c-1.6296 0.31148-3.3202 0.30039-4.9456-0.0324-1.252-0.25637-2.483-0.70325-3.7609-0.69239-0.63898 5e-3 -1.2857 0.13063-1.8472 0.43551-0.56157 0.30488-1.0323 0.80008-1.2386 1.4048-0.14858 0.43552-0.1562 0.91441-0.0451 1.361 0.11109 0.44656 0.33815 0.86084 0.63633 1.2113 0.6018 0.70739 1.4792 1.144 2.3882 1.3348 0.90894 0.19079 1.852 0.15157 2.7724 0.0277 1.8409-0.24773 3.6799-0.83066 5.5193-0.57196 1.4273 0.20074 2.7722 0.90242 4.2134 0.91985 0.72061 9e-3 1.4644-0.16963 2.0261-0.62113 0.28085-0.22575 0.51115-0.5174 0.64908-0.85029 0.13792-0.33288 0.18113-0.70711 0.10519-1.0594-0.0601-0.27859-0.19286-0.53918-0.36978-0.76261-0.17693-0.22342-0.39721-0.41049-0.6374-0.56389-0.48036-0.30681-1.0331-0.47781-1.5813-0.63398-1.2791-0.36441-2.5758-0.66722-3.884-0.90701z"/>
   <path d="m-130.21 109.15c-1.6296 0.31156-3.3203 0.30048-4.9456-0.0324-1.252-0.25644-2.483-0.70345-3.761-0.69263-0.639 5e-3 -1.2857 0.13062-1.8473 0.43554-0.56158 0.30493-1.0323 0.80021-1.2385 1.405-0.14845 0.43541-0.15599 0.91414-0.0449 1.3606 0.1111 0.44641 0.3381 0.86054 0.63618 1.2109 0.60178 0.7074 1.4792 1.144 2.3882 1.3349 0.90893 0.1908 1.852 0.15159 2.7724 0.0277 1.8409-0.24774 3.6799-0.83068 5.5193-0.57201 1.4273 0.20072 2.7722 0.90238 4.2134 0.91981 0.7206 9e-3 1.4644-0.16963 2.0261-0.62112 0.28085-0.22574 0.51115-0.51739 0.64909-0.85027 0.13793-0.33289 0.18114-0.70711 0.10522-1.0594-0.0601-0.2786-0.19284-0.53919-0.36976-0.76263-0.17692-0.22343-0.3972-0.4105-0.63739-0.56391-0.48036-0.30682-1.0331-0.47781-1.5813-0.63394-1.2791-0.36431-2.5758-0.66683-3.8841-0.90617z"/>
  </g>
  <g stroke="#000">
   <path d="m-130.53 113.43c-1.6296 0.31156-3.3203 0.30047-4.9456-0.0324-1.252-0.25644-2.483-0.70345-3.761-0.69263-0.639 5e-3 -1.2857 0.13062-1.8473 0.43555-0.56158 0.30492-1.0323 0.8002-1.2385 1.405-0.14845 0.43541-0.156 0.91414-0.0449 1.3606s0.3381 0.86054 0.63618 1.2109c0.60179 0.7074 1.4792 1.144 2.3882 1.3348 0.90894 0.1908 1.852 0.15157 2.7724 0.0277 1.8409-0.24776 3.6799-0.83072 5.5193-0.57203 1.4273 0.20073 2.7722 0.90242 4.2134 0.91988 0.72061 9e-3 1.4644-0.16961 2.0261-0.62111 0.28085-0.22574 0.51115-0.51739 0.64909-0.85028 0.13793-0.33288 0.18114-0.70711 0.10521-1.0594-0.06-0.27859-0.19285-0.53919-0.36977-0.76262-0.17693-0.22342-0.39722-0.41049-0.6374-0.5639-0.48037-0.3068-1.0331-0.47779-1.5813-0.63391-1.2791-0.36429-2.5758-0.66683-3.8841-0.90621z" fill="#18b600"/>
   <path d="m-117.98 128.09c-1.6296 0.31156-3.3203 0.30047-4.9457-0.0324-1.2521-0.25644-2.483-0.70345-3.761-0.69263-0.639 5e-3 -1.2857 0.13062-1.8473 0.43555-0.56158 0.30492-1.0323 0.8002-1.2385 1.405-0.14845 0.43542-0.156 0.91416-0.0449 1.3606 0.11109 0.44642 0.33811 0.86056 0.63619 1.211 0.60179 0.70739 1.4792 1.144 2.3882 1.3348s1.852 0.15155 2.7724 0.0277c1.8409-0.24777 3.6799-0.83074 5.5193-0.57207 1.4273 0.20072 2.7722 0.9024 4.2134 0.91985 0.7206 9e-3 1.4644-0.16961 2.0261-0.6211 0.28085-0.22575 0.51115-0.5174 0.64909-0.85028s0.18115-0.70711 0.10522-1.0594c-0.06-0.27859-0.19284-0.53919-0.36976-0.76262-0.17692-0.22342-0.39721-0.41049-0.63739-0.5639-0.48036-0.30681-1.0331-0.4778-1.5813-0.63392-1.2791-0.36429-2.5758-0.6668-3.884-0.90613z" fill="#33d917"/>
   <path d="m-118.85 132.88c-1.6296 0.31155-3.3202 0.30047-4.9456-0.0324-1.252-0.25643-2.483-0.70343-3.761-0.6926-0.639 5e-3 -1.2857 0.13062-1.8473 0.43554s-1.0323 0.80019-1.2385 1.405c-0.14846 0.43541-0.15602 0.91415-0.0449 1.3606 0.11109 0.44642 0.33809 0.86056 0.63616 1.211 0.60178 0.70742 1.4792 1.1441 2.3882 1.3349s1.852 0.15157 2.7724 0.0277c1.8409-0.24778 3.6799-0.83077 5.5193-0.57211 1.4273 0.20071 2.7722 0.90238 4.2134 0.91982 0.72061 9e-3 1.4644-0.16961 2.0261-0.62111 0.28085-0.22574 0.51115-0.51739 0.64909-0.85027 0.13793-0.33288 0.18115-0.70711 0.10522-1.0594-0.0601-0.2786-0.19285-0.53919-0.36977-0.76262s-0.39721-0.41051-0.63739-0.56391c-0.48037-0.30681-1.0331-0.4778-1.5813-0.63392-1.2791-0.36429-2.5758-0.6668-3.8841-0.90613z" fill="#18b600"/>
  </g>
  <g fill="#33d917" stroke="#000">
   <path d="m-118.85 136.82c-1.6296 0.31149-3.3202 0.3004-4.9456-0.0324-1.252-0.25638-2.483-0.70326-3.761-0.69241-0.63898 5e-3 -1.2857 0.13063-1.8472 0.43551s-1.0323 0.80008-1.2386 1.4049c-0.14858 0.43554-0.1562 0.91444-0.0451 1.361s0.33818 0.86085 0.63638 1.2114c0.60182 0.70736 1.4793 1.144 2.3882 1.3348 0.90893 0.19078 1.852 0.15156 2.7724 0.0277 1.8409-0.24774 3.6799-0.83064 5.5193-0.57194 1.4273 0.20074 2.7723 0.90243 4.2135 0.91987 0.72062 9e-3 1.4644-0.16963 2.0261-0.62114 0.28085-0.22575 0.51115-0.51741 0.64908-0.8503s0.18113-0.70712 0.10519-1.0594c-0.0601-0.27859-0.19286-0.53919-0.36979-0.76261s-0.39722-0.41049-0.6374-0.5639c-0.48037-0.3068-1.0331-0.4778-1.5813-0.63397-1.2791-0.36441-2.5758-0.66721-3.8841-0.90701z"/>
   <path d="m-119.49 140.89c-1.6296 0.31155-3.3202 0.30047-4.9456-0.0324-1.252-0.25643-2.483-0.70343-3.761-0.6926-0.63899 5e-3 -1.2857 0.13062-1.8473 0.43554s-1.0323 0.80019-1.2385 1.405c-0.14846 0.43542-0.15602 0.91415-0.0449 1.3606 0.11109 0.44641 0.33809 0.86056 0.63616 1.211 0.60177 0.70742 1.4792 1.1441 2.3882 1.3349 0.90894 0.1908 1.852 0.15158 2.7724 0.0277 1.8409-0.24776 3.6799-0.83074 5.5193-0.57207 1.4273 0.20071 2.7722 0.90236 4.2134 0.9198 0.7206 9e-3 1.4644-0.16963 2.0261-0.62111 0.28084-0.22574 0.51114-0.51739 0.64908-0.85027 0.13794-0.33287 0.18115-0.70709 0.10523-1.0593-0.06-0.2786-0.19284-0.5392-0.36976-0.76263-0.17691-0.22343-0.3972-0.41051-0.63738-0.56392-0.48037-0.30682-1.0331-0.47781-1.5813-0.63394-1.2791-0.3643-2.5758-0.66683-3.884-0.90618z"/>
   <path d="m-119.81 145.16c-1.6296 0.31155-3.3202 0.30047-4.9456-0.0324-1.252-0.25643-2.483-0.70342-3.761-0.6926-0.639 5e-3 -1.2857 0.13063-1.8473 0.43555-0.56158 0.30492-1.0323 0.80019-1.2385 1.405-0.14846 0.43541-0.15602 0.91414-0.0449 1.3606 0.11108 0.44641 0.33808 0.86055 0.63615 1.211 0.60178 0.70742 1.4792 1.1441 2.3882 1.3349s1.852 0.15156 2.7724 0.0277c1.8409-0.24778 3.6799-0.83077 5.5193-0.5721 1.4273 0.20071 2.7722 0.90239 4.2134 0.91984 0.7206 9e-3 1.4644-0.16961 2.0261-0.62109 0.28085-0.22574 0.51115-0.51739 0.64909-0.85026 0.13794-0.33288 0.18115-0.7071 0.10523-1.0593-0.0601-0.27859-0.19284-0.53919-0.36976-0.76262s-0.3972-0.4105-0.63739-0.56391c-0.48036-0.30682-1.0331-0.4778-1.5813-0.63393-1.2791-0.3643-2.5758-0.66683-3.884-0.90618z"/>
   <path d="m-143.66 127.16c-1.6296 0.31156-3.3203 0.30047-4.9457-0.0324-1.252-0.25644-2.483-0.70344-3.761-0.69262-0.63899 5e-3 -1.2857 0.13063-1.8473 0.43555-0.56158 0.30493-1.0323 0.80021-1.2385 1.405-0.14845 0.43542-0.15601 0.91416-0.0449 1.3606 0.1111 0.44642 0.33811 0.86056 0.63619 1.211 0.60179 0.7074 1.4792 1.144 2.3882 1.3348s1.852 0.15155 2.7724 0.0277c1.8409-0.24777 3.6799-0.83075 5.5193-0.57208 1.4273 0.20071 2.7722 0.90239 4.2134 0.91983 0.7206 9e-3 1.4644-0.16962 2.0261-0.62111 0.28085-0.22574 0.51115-0.51739 0.64909-0.85027 0.13794-0.33289 0.18115-0.70711 0.10522-1.0594-0.06-0.27859-0.19284-0.53919-0.36976-0.76261-0.17692-0.22343-0.3972-0.4105-0.63738-0.56391-0.48036-0.30681-1.0331-0.4778-1.5813-0.63392-1.2791-0.36429-2.5758-0.6668-3.8841-0.90612z"/>
   <path d="m-144.53 132.48c-1.6296 0.31155-3.3203 0.30046-4.9456-0.0324-1.252-0.25643-2.483-0.70343-3.761-0.6926-0.639 5e-3 -1.2857 0.13062-1.8473 0.43554s-1.0323 0.80019-1.2385 1.405c-0.14846 0.43541-0.15602 0.91415-0.0449 1.3606 0.11109 0.44642 0.33809 0.86056 0.63616 1.211 0.60178 0.70742 1.4792 1.1441 2.3882 1.3349s1.852 0.15156 2.7725 0.0277c1.8409-0.24778 3.6799-0.83078 5.5193-0.57212 1.4273 0.20071 2.7722 0.90238 4.2134 0.91983 0.72061 9e-3 1.4644-0.16962 2.0261-0.62111 0.28085-0.22575 0.51115-0.5174 0.64908-0.85028 0.13794-0.33288 0.18115-0.70711 0.10522-1.0594-0.06-0.27859-0.19285-0.53919-0.36977-0.76262-0.17692-0.22342-0.39721-0.41049-0.63739-0.5639-0.48037-0.30681-1.0331-0.47779-1.5813-0.63391-1.2791-0.36428-2.5758-0.66679-3.8841-0.90612z"/>
   <path d="m-144.53 135.89c-1.6296 0.31149-3.3202 0.3004-4.9456-0.0324-1.252-0.25638-2.483-0.70327-3.761-0.69242-0.63897 5e-3 -1.2857 0.13063-1.8472 0.43552-0.56158 0.30488-1.0323 0.80008-1.2386 1.4049-0.14858 0.43553-0.15619 0.91442-0.0451 1.361 0.1111 0.44656 0.33818 0.86084 0.63637 1.2113 0.60181 0.70737 1.4792 1.144 2.3882 1.3348 0.90892 0.19079 1.852 0.15157 2.7724 0.0277 1.8409-0.24772 3.6799-0.83062 5.5193-0.57193 1.4273 0.20073 2.7722 0.90241 4.2135 0.91984 0.72061 9e-3 1.4644-0.16963 2.0261-0.62113 0.28085-0.22575 0.51115-0.5174 0.64908-0.85029 0.13793-0.33288 0.18114-0.70711 0.10521-1.0594-0.0601-0.2786-0.19285-0.53919-0.36977-0.76262s-0.39721-0.41051-0.63739-0.56392c-0.48036-0.30682-1.0331-0.47783-1.5813-0.634-1.2792-0.36442-2.5758-0.6672-3.8841-0.90694z"/>
  </g>
  <g stroke="#000">
   <path d="m-145.17 139.96c-1.6296 0.31155-3.3203 0.30046-4.9457-0.0324-1.252-0.25643-2.483-0.70342-3.761-0.69259-0.639 5e-3 -1.2857 0.13063-1.8473 0.43555-0.56157 0.30492-1.0323 0.8002-1.2385 1.405-0.14845 0.43541-0.15601 0.91413-0.0449 1.3605 0.11108 0.4464 0.33808 0.86054 0.63614 1.2109 0.60177 0.70742 1.4792 1.1441 2.3882 1.3349 0.90893 0.19081 1.852 0.15159 2.7724 0.0277 1.8409-0.24775 3.6799-0.83073 5.5193-0.57206 1.4273 0.20071 2.7722 0.90236 4.2134 0.91979 0.7206 9e-3 1.4644-0.16963 2.0261-0.62111 0.28085-0.22575 0.51115-0.51739 0.64908-0.85027 0.13794-0.33288 0.18115-0.7071 0.10523-1.0593-0.06-0.2786-0.19284-0.5392-0.36976-0.76263s-0.39721-0.4105-0.63739-0.56391c-0.48036-0.30682-1.0331-0.47781-1.5813-0.63394-1.2791-0.3643-2.5758-0.66682-3.884-0.90616z" fill="#18b600"/>
   <path d="m-145.49 144.23c-1.6296 0.31155-3.3203 0.30046-4.9456-0.0324-1.252-0.25643-2.483-0.70342-3.761-0.6926-0.63899 5e-3 -1.2857 0.13063-1.8473 0.43555-0.56158 0.30491-1.0323 0.80018-1.2385 1.405-0.14846 0.43542-0.15603 0.91415-0.0449 1.3606 0.11108 0.44642 0.33808 0.86057 0.63616 1.211 0.60178 0.70741 1.4792 1.1441 2.3882 1.3349 0.90894 0.19079 1.852 0.15156 2.7725 0.0277 1.8409-0.24779 3.6799-0.83078 5.5193-0.5721 1.4273 0.20072 2.7722 0.90241 4.2134 0.91987 0.7206 9e-3 1.4644-0.16961 2.0261-0.62109 0.28085-0.22575 0.51115-0.51739 0.64909-0.85027 0.13793-0.33289 0.18115-0.70711 0.10522-1.0594-0.0601-0.2786-0.19285-0.5392-0.36977-0.76263s-0.39722-0.4105-0.6374-0.5639c-0.48038-0.30681-1.0331-0.4778-1.5813-0.63392-1.2791-0.36429-2.5758-0.66683-3.884-0.90621z" fill="#33d917"/>
   <path d="m-98.412 109.02c-1.6296 0.31156-3.3203 0.30047-4.9457-0.0324-1.2521-0.25645-2.483-0.70346-3.7611-0.69264-0.639 5e-3 -1.2857 0.13062-1.8473 0.43555s-1.0323 0.80022-1.2385 1.4051c-0.14844 0.43541-0.15599 0.91414-0.0449 1.3605s0.3381 0.86053 0.63617 1.2109c0.60178 0.7074 1.4792 1.144 2.3882 1.3348s1.852 0.15157 2.7724 0.0277c1.8409-0.24776 3.6799-0.83072 5.5193-0.57205 1.4273 0.20071 2.7722 0.90239 4.2135 0.91982 0.72061 9e-3 1.4644-0.16962 2.0261-0.62112 0.28085-0.22574 0.51115-0.5174 0.64908-0.85028 0.13793-0.33288 0.18114-0.70711 0.10522-1.0594-0.06005-0.27859-0.19284-0.53919-0.36976-0.76262-0.17692-0.22342-0.39721-0.41049-0.63739-0.5639-0.48036-0.30681-1.0331-0.4778-1.5813-0.63392-1.2791-0.36429-2.5758-0.66679-3.884-0.90611z" fill="#18b600"/>
  </g>
  <g fill="#33d917" stroke="#000">
   <path d="m-99.29 114.34c-1.6296 0.31155-3.3203 0.30046-4.9456-0.0324-1.252-0.25644-2.483-0.70344-3.761-0.69262-0.639 5e-3 -1.2857 0.13063-1.8473 0.43555s-1.0323 0.8002-1.2385 1.405c-0.14845 0.43541-0.15601 0.91413-0.0449 1.3605 0.11108 0.4464 0.33807 0.86054 0.63614 1.2109 0.60177 0.70742 1.4792 1.1441 2.3882 1.3349 0.90894 0.1908 1.852 0.15157 2.7725 0.0277 1.8409-0.24777 3.6799-0.83076 5.5193-0.57209 1.4273 0.20071 2.7722 0.90238 4.2135 0.91982 0.72061 9e-3 1.4644-0.16962 2.0261-0.62112 0.28085-0.22574 0.51115-0.51739 0.64908-0.85028 0.13793-0.33288 0.18114-0.70711 0.10522-1.0594-0.06006-0.2786-0.19285-0.5392-0.36977-0.76262-0.17692-0.22343-0.39722-0.4105-0.6374-0.56391-0.48037-0.30681-1.0331-0.47779-1.5813-0.63391-1.2791-0.36428-2.5758-0.66678-3.8841-0.90611z"/>
   <path d="m-99.29 117.76c-1.6296 0.31149-3.3202 0.30041-4.9456-0.0324-1.252-0.25638-2.483-0.70327-3.7609-0.69242-0.63898 5e-3 -1.2857 0.13063-1.8472 0.43551s-1.0323 0.80008-1.2386 1.4049c-0.14858 0.43553-0.15619 0.91443-0.0451 1.361 0.1111 0.44657 0.33818 0.86085 0.63637 1.2113 0.60181 0.70737 1.4792 1.144 2.3882 1.3348s1.852 0.15157 2.7724 0.0277c1.8409-0.24773 3.6799-0.83063 5.5193-0.57194 1.4273 0.20073 2.7723 0.90241 4.2135 0.91983 0.72061 9e-3 1.4644-0.16965 2.0261-0.62116 0.28085-0.22576 0.51114-0.51742 0.64907-0.85031s0.18113-0.70712 0.10518-1.0594c-0.06006-0.27859-0.19286-0.53918-0.36979-0.76261-0.17693-0.22342-0.39722-0.41049-0.6374-0.56389-0.48037-0.30681-1.0331-0.47781-1.5813-0.63397-1.2791-0.3644-2.5758-0.66718-3.8841-0.90694z"/>
   <path d="m-99.93 121.82c-1.6296 0.31155-3.3203 0.30047-4.9456-0.0324-1.252-0.25643-2.483-0.70342-3.761-0.69259-0.639 5e-3 -1.2857 0.13062-1.8473 0.43554s-1.0323 0.80019-1.2385 1.405c-0.14846 0.43542-0.15602 0.91415-0.0449 1.3606 0.11109 0.44641 0.33809 0.86056 0.63616 1.211 0.60178 0.70742 1.4792 1.1441 2.3882 1.3349 0.90894 0.1908 1.852 0.15157 2.7725 0.0277 1.8409-0.24776 3.6799-0.83074 5.5193-0.57207 1.4273 0.20071 2.7722 0.90236 4.2134 0.9198 0.7206 9e-3 1.4644-0.16962 2.0261-0.6211 0.28084-0.22575 0.51114-0.51739 0.64908-0.85027 0.13794-0.33287 0.18115-0.70709 0.10523-1.0593-0.06005-0.2786-0.19284-0.5392-0.36976-0.76263s-0.39721-0.41051-0.63739-0.56392c-0.48036-0.30682-1.0331-0.47781-1.5813-0.63394-1.2791-0.3643-2.5758-0.66683-3.884-0.90619z"/>
   <path d="m-100.25 126.1c-1.6296 0.31155-3.3203 0.30047-4.9456-0.0324-1.252-0.25643-2.483-0.70343-3.761-0.6926-0.639 5e-3 -1.2857 0.13063-1.8473 0.43555s-1.0323 0.80019-1.2385 1.405c-0.14846 0.43541-0.15602 0.91414-0.0449 1.3606 0.11108 0.44641 0.33808 0.86055 0.63615 1.211 0.60178 0.70742 1.4792 1.1441 2.3882 1.3349s1.852 0.15156 2.7725 0.0277c1.8409-0.24778 3.6799-0.83078 5.5193-0.5721 1.4273 0.20072 2.7722 0.9024 4.2134 0.91985 0.7206 9e-3 1.4644-0.1696 2.0261-0.62109 0.28085-0.22574 0.51115-0.51738 0.64908-0.85026 0.13794-0.33288 0.18115-0.7071 0.10522-1.0593-0.06005-0.27859-0.19284-0.53919-0.36976-0.76262-0.17692-0.22342-0.39721-0.41049-0.63739-0.5639-0.48036-0.30681-1.0331-0.47779-1.5813-0.63392-1.2791-0.3643-2.5758-0.66683-3.884-0.90621z"/>
  </g>
  <g stroke-linecap="square">
   <path d="m-98.16 153.3c-0.1371 0-0.27422 0.58345-0.27422 1.7504v0.99231c-1e-3 0.52682 3e-3 1.0536-3e-3 1.5804-5e-3 0.36972-0.0148 0.74048-0.0643 1.1059h-0.37999c-2e-3 9e-3 -4e-3 0.0142-5e-3 0.0224-0.0102 9e-3 -0.0131 0.0285-0.0122 0.0578-0.12983 0.63527-0.24216 0.52624 0.0461 0.61201 0.0552 0.0184 0.11023 0.0364 0.15624 0.0794 0.16225 0.11129 0.33312 0.13267 0.49061-0.0102 0.0262-0.0316 0.049-0.0651 0.0701-0.0994h0.0418c0.36495 4e-3 0.7299 8e-3 1.0949 0.012 0.30791 4e-3 0.61582 6e-3 0.92373 9e-3 0.23736 0 0.47467 3e-3 0.71204 3e-3 -5.8e-4 0.34263-5e-5 0.68503 0.0144 1.0273 0.01 0.21793 0.0281 0.43523 0.055 0.65105 0.012 0.093 0.0254 0.18562 0.0449 0.27672 5e-3 0.0205 2e-3 0.011 6e-3 0.0294 0.46475 2.2657 0.99713 2.1075 0.53239-0.15826-5e-3 -0.0252-3e-3 -0.0123-8e-3 -0.0392-0.0142-0.0682-0.0242-0.13747-0.0331-0.20695-0.0245-0.19437-0.0404-0.39018-0.0494-0.58645-0.0141-0.33104-0.0148-0.6622-0.0139-0.99352h0.24229 0.58637 0.43279c0.0773 6e-5 0.0392 0 0.11397 0 1.9391-3e-3 1.9387-0.66201-2.5e-4 -0.66008-0.0748-3e-5 -0.0368 0-0.11413 0h-0.43313-0.5862c-0.0806-3e-5 -0.16107 0-0.24162 0v-1.8606c0-2.3337-0.54844-2.3337-0.54844 0v1.8604c-0.23623 0-0.47246 0-0.70868-3e-3 -0.30733-3e-3 -0.61474-5e-3 -0.92208-9e-3 -0.31835-4e-3 -0.63663-7e-3 -0.95498-0.0104 0.0422-0.36542 0.0566-0.73435 0.0602-1.1033 6e-3 -0.52955 2e-3 -1.0591 3e-3 -1.5886v-0.99213c0-1.1669-0.13711-1.7503-0.27421-1.7503z" enable-background="new" stroke="#000" stroke-width=".3" style="paint-order:markers fill stroke"/>
   <path d="m-89.318 182.65c-0.17332 0.0281-0.34772 0.0299-0.52117 0.0374-0.36296 0.0119-0.72585 0.0221-1.0885 0.0283-0.40145 5e-3 -0.80369 0.0268-1.2058 0.0498-0.3513 0.022-0.70261 0.0578-1.0539 0.0876-0.24165 0.0198-0.4855 0.0439-0.72285 0.0116-0.14136-0.0219-0.24255-0.092-0.3264-0.20001-0.10847-0.15886-0.16011-0.34863-0.20445-0.53751-0.0538-0.2628-0.0697-0.5339-0.0787-0.80485-8e-3 -0.31642 1e-3 -0.63434 0.0148-0.95216 0.0154-0.31666 0.0401-0.63338 0.0727-0.95005 0.0286-0.29103 0.0584-0.582 0.0898-0.87293 0.029-0.25511 0.0577-0.51032 0.0905-0.76528 0.0202-0.14994 0.0101-0.0757 0.0303-0.22249 0.38201-2.7518-0.3855-2.7992-0.76752-0.0474-0.0211 0.15164-0.0108 0.0748-0.0315 0.23037-0.0335 0.26045-0.0629 0.52108-0.0925 0.78169-0.0315 0.2923-0.0615 0.58465-0.0903 0.87704-0.0341 0.33261-0.0601 0.66528-0.0762 0.99789-0.014 0.33748-0.0241 0.67506-0.015 1.011 0.0111 0.32185 0.0319 0.64372 0.0988 0.95509 0.0726 0.29906 0.16632 0.59325 0.35421 0.83389 0.20753 0.23382 0.45622 0.39576 0.77923 0.44 0.28997 0.0325 0.58371 0.0212 0.87866-9e-3 0.3443-0.0291 0.68861-0.0642 1.0329-0.0861 0.39184-0.0224 0.78375-0.0435 1.1749-0.0487 0.36937-6e-3 0.73898-0.0166 1.1087-0.0289 0.21577-9e-3 0.43287-0.0128 0.64815-0.0534 2.7178-0.56743 2.6186-1.3305-0.0991-0.76308z" enable-background="new" fill="#54cec1" stroke="#24857b" stroke-width=".6" style="paint-order:markers fill stroke"/>
   <path d="m-91.789 181.26c0.16334-0.10495 0.31501-0.2202 0.46674-0.33526 0.29298-0.22441 0.576-0.45718 0.85815-0.69066 0.31768-0.26352 0.63122-0.53047 0.94319-0.79868 0.31458-0.27037 0.62632-0.54306 0.92976-0.82248 0.299-0.27268 0.58086-0.55893 0.86039-0.84695 0.27552-0.28428 0.52985-0.58467 0.78215-0.88647 0.22762-0.27411 0.45386-0.54925 0.68225-0.82277 0.2006-0.2405 0.40576-0.4776 0.61342-0.71281 0.18146-0.20499 0.3666-0.40719 0.55259-0.60873 0.15227-0.16462 0.30677-0.32753 0.46215-0.48974 0.12173-0.12697 0.24447-0.25312 0.36762-0.37897 0.0932-0.0955 0.18745-0.19015 0.28181-0.28472 0.0717-0.0718 0.14327-0.14351 0.21582-0.21451 0.0305-0.0298 0.0605-0.0601 0.091-0.0899 1.1145-1.0918 0.48617-1.587-0.62845-0.49497-0.0308 0.0299-0.0616 0.0598-0.0915 0.0904-0.0728 0.0717-0.14497 0.14387-0.21733 0.21591-0.0951 0.0949-0.18952 0.1905-0.28345 0.28639-0.12371 0.12651-0.24714 0.25324-0.3695 0.38083-0.15641 0.16331-0.31193 0.32729-0.46523 0.49299-0.18717 0.20289-0.37353 0.40638-0.55617 0.61269-0.20907 0.2369-0.41571 0.47562-0.6177 0.71779-0.2284 0.27347-0.45459 0.5486-0.68216 0.82268-0.24848 0.29727-0.4989 0.59318-0.7702 0.87321-0.27629 0.28475-0.55478 0.56784-0.85054 0.83725-0.30144 0.27744-0.61097 0.54832-0.92339 0.8168-0.31076 0.26721-0.62308 0.53313-0.93953 0.79563-0.27939 0.23114-0.55955 0.46163-0.84954 0.68386-0.14723 0.11176-0.29443 0.22366-0.45297 0.32552-1.3488 0.89554-0.75844 1.4213 0.59039 0.52569z" enable-background="new" fill="#54cec1" stroke="#24857b" stroke-width=".6" style="paint-order:markers fill stroke"/>
   <path d="m-90.171 93.519c-0.0826-0.18811-0.1349-0.39156-0.18123-0.59597-0.0853-0.35265-0.10246-0.71225-0.0786-1.0763 0.035-0.42212 0.17981-0.77598 0.41963-1.0804 0.28186-0.30208 0.64066-0.41306 1.0028-0.48943 0.39483-0.0707 0.77996 0.0107 1.1531 0.16469 0.3412 0.1531 0.61336 0.42551 0.84388 0.75751 0.18989 0.29391 0.29502 0.63774 0.35949 0.99762 0.0464 0.29707 0.0413 0.59915 0.0212 0.89887-0.0155 0.20523-0.0471 0.40791-0.0859 0.60845-0.0121 0.0368-0.0147 0.0771-0.0252 0.11457-4e-3 0.0117 9e-3 -0.0239 7e-3 -0.0361-7e-3 -0.0574-1e-3 -0.12332-0.0308-0.16967-0.0905-0.14553-0.11797-0.14176-0.21195-0.158 0.18887-0.0572 0.3793-0.10635 0.57025-0.15233 0.31224-0.0732 0.6273-0.12685 0.9429-0.17388 0.2824-0.049 0.56568-0.0678 0.84987-0.0373 0.36548 0.0545 0.54262 0.25818 0.68842 0.65404 0.12863 0.49967 0.14102 1.0283 0.13873 1.5474-8e-3 0.60781-0.12049 1.1982-0.2892 1.768-0.17414 0.54599-0.45006 1.0199-0.78162 1.442-0.30727 0.3789-0.69094 0.61989-1.0976 0.80436-0.32663 0.13967-0.66885 0.19581-1.0135 0.21047-0.2679 5e-3 -0.53435-0.0325-0.79916-0.0769-0.23912-0.0301-0.46612-0.11152-0.68368-0.23196-0.20955-0.12068-0.36807-0.30662-0.49212-0.53939-0.0816-0.16851-0.12136-0.35512-0.14551-0.54602-0.27651-2.3099 0.26634-2.404 0.54283-0.0941 0.0108 0.10071 0.0293 0.19995 0.0681 0.29103 0.0624 0.12802 0.14653 0.22364 0.25828 0.29018 0.16739 0.0956 0.34316 0.15391 0.52808 0.17657 0.2336 0.0394 0.46856 0.0739 0.70492 0.0709 0.28531-0.0104 0.56877-0.0555 0.83968-0.16902 0.32961-0.14679 0.6422-0.3362 0.89235-0.64112 0.2813-0.35289 0.51345-0.75196 0.66275-1.21 0.15008-0.49863 0.24783-1.0167 0.25693-1.5493 3e-3 -0.43204-6e-3 -0.87092-0.0974-1.2913-0.0449-0.15697-0.0815-0.23084-0.23254-0.24843-0.24452-0.0294-0.48833-5e-3 -0.73135 0.0352-0.30216 0.0449-0.6038 0.0962-0.90277 0.16612-0.20202 0.0485-0.40257 0.10448-0.60346 0.15906-0.32344 0.0132-0.43387-0.22203-0.34786-0.55483 0.0329-0.16899 0.0599-0.33984 0.0734-0.51283 0.0165-0.23599 0.023-0.47402-0.0112-0.70852-0.0433-0.25611-0.11439-0.50215-0.24603-0.71376-0.16261-0.24219-0.35697-0.44016-0.60121-0.55403-0.28377-0.12166-0.57745-0.18722-0.87943-0.1375-0.24777 0.0503-0.50171 0.11121-0.70473 0.30163-0.15897 0.18198-0.23841 0.41057-0.26429 0.67299-0.0218 0.28751-6e-3 0.56992 0.0615 0.84859 0.0344 0.15467 0.0726 0.30904 0.13329 0.45228 0.92851 2.0488 0.44704 2.3649-0.48147 0.31606z" stroke="#000" stroke-width=".3" style="paint-order:markers fill stroke"/>
  </g>
  <g fill="#54cec1" stroke="#24857b" stroke-linecap="square" stroke-width=".6">
   <path d="m-103.18 104.33c-0.17362-0.0262-0.34024-0.0777-0.50769-0.12354-0.34926-0.0995-0.69793-0.20061-1.0452-0.30545-0.3838-0.11783-0.77349-0.2199-1.1634-0.3208-0.34124-0.0863-0.6867-0.15951-1.0303-0.23842-0.23615-0.0549-0.47572-0.10645-0.69186-0.20969-0.12792-0.064-0.20287-0.16167-0.24974-0.29013-0.0548-0.1844-0.046-0.38087-0.0305-0.57427 0.029-0.26668 0.0967-0.52968 0.17084-0.79044 0.089-0.30375 0.19466-0.60373 0.30486-0.90216 0.11136-0.29683 0.2316-0.59088 0.35934-0.88246 0.11611-0.2684 0.23334-0.53637 0.35208-0.80381 0.10552-0.23407 0.21078-0.46832 0.31988-0.70109 0.065-0.13661 0.0327-0.069 0.0968-0.20261 1.2041-2.5037 0.48772-2.7832-0.71638-0.27952-0.0664 0.13795-0.0331 0.06793-0.10035 0.20975-0.11143 0.23778-0.21902 0.47698-0.32679 0.7161-0.11925 0.26872-0.23709 0.53794-0.35381 0.80757-0.13404 0.30631-0.26038 0.61515-0.37728 0.92696-0.11639 0.31708-0.2291 0.63545-0.32303 0.95815-0.0877 0.30987-0.1662 0.62272-0.19758 0.93964-0.0222 0.30695-0.0228 0.61571 0.0827 0.90223 0.12621 0.28602 0.31357 0.51617 0.60764 0.65694 0.2662 0.11949 0.54936 0.19843 0.83944 0.25974 0.33674 0.0774 0.67532 0.14915 1.0099 0.23344 0.37997 0.0983 0.7596 0.19791 1.1336 0.3124 0.35356 0.10708 0.70875 0.20986 1.0645 0.31103 0.20821 0.0573 0.4161 0.12 0.6335 0.14708 2.7613 0.28962 2.8999-0.46731 0.13866-0.75689z" enable-background="new" style="paint-order:markers fill stroke"/>
   <path d="m-105.11 102.26c0.18758-0.0501 0.3672-0.11348 0.54682-0.17671 0.34751-0.12423 0.6881-0.25945 1.0281-0.39562 0.38297-0.15392 0.76306-0.31237 1.142-0.4725 0.38212-0.16139 0.76224-0.32586 1.1365-0.49927 0.36799-0.16835 0.7238-0.35486 1.0779-0.54376 0.34917-0.18656 0.68308-0.39494 1.0155-0.60528 0.30045-0.19151 0.59991-0.38442 0.90091-0.57513 0.26446-0.16775 0.53223-0.33088 0.80179-0.49144 0.23539-0.13979 0.47344-0.27579 0.71209-0.41091 0.19526-0.11026 0.39213-0.2182 0.58962-0.32522 0.15469-0.08373 0.31009-0.16637 0.46579-0.2486 0.11791-0.06248 0.23656-0.12382 0.35529-0.18506 0.0902-0.04648 0.18025-0.0929 0.27102-0.13836 0.0381-0.01906 0.076-0.03875 0.11411-0.05782 1.3946-0.69934 0.94756-1.3627-0.44729-0.66324-0.0385 0.01907-0.0769 0.03813-0.11473 0.05814-0.0912 0.04604-0.18198 0.09273-0.27288 0.13923-0.11954 0.06133-0.23864 0.12352-0.35737 0.18615-0.15643 0.08269-0.31266 0.16567-0.46814 0.2498-0.19881 0.10775-0.39698 0.2164-0.59355 0.32737-0.24019 0.13604-0.47979 0.2729-0.71671 0.41358-0.27142 0.16174-0.54109 0.32596-0.80738 0.49488-0.301 0.19066-0.60041 0.38358-0.9008 0.57507-0.32739 0.20719-0.65621 0.4125-1.0001 0.5963-0.35004 0.18678-0.70168 0.3713-1.0656 0.53752-0.37177 0.17214-0.74923 0.33556-1.1287 0.49581-0.37752 0.15955-0.75612 0.31739-1.1376 0.47072-0.33663 0.13478-0.67379 0.2687-1.0178 0.39176-0.17432 0.0615-0.34866 0.12307-0.53074 0.17165-1.5579 0.44087-1.1562 1.1218 0.40166 0.68087z" enable-background="new" style="paint-order:markers fill stroke"/>
   <path d="m-115.57 152.64c-0.0581-0.16572-0.0903-0.33712-0.1281-0.50656-0.0753-0.35527-0.14898-0.71075-0.21859-1.0667-0.0752-0.39436-0.16723-0.78655-0.26034-1.1784-0.0833-0.342-0.18002-0.68162-0.27092-1.0223-0.0618-0.23444-0.12835-0.47029-0.13808-0.70963-3e-3 -0.14303 0.0481-0.25493 0.13975-0.35637 0.13741-0.13462 0.31518-0.21872 0.49338-0.29548 0.24929-0.0991 0.51342-0.16217 0.7786-0.21852 0.31011-0.0634 0.6247-0.11021 0.94001-0.15228 0.31447-0.0403 0.63062-0.0715 0.9481-0.0949 0.29154-0.0227 0.58323-0.0443 0.87512-0.065 0.25625-0.0161 0.51256-0.0323 0.76927-0.0455 0.15111-7e-3 0.0762-3e-3 0.22438-9e-3 2.7762-0.10607 2.6884-0.87005-0.0878-0.76394-0.15297 6e-3 -0.0755 2e-3 -0.23232 9e-3 -0.2623 0.0126-0.52406 0.0291-0.78582 0.0456-0.2933 0.0202-0.58639 0.0419-0.87926 0.0653-0.33345 0.0246-0.66551 0.0575-0.99581 0.0998-0.33471 0.0453-0.66883 0.0946-0.998 0.1624-0.31493 0.0673-0.62818 0.14423-0.92301 0.26463-0.28171 0.12388-0.55492 0.26771-0.75892 0.49486-0.19383 0.2453-0.3097 0.5185-0.29664 0.84428 0.0186 0.29119 0.0815 0.57838 0.16283 0.86348 0.089 0.33387 0.18388 0.66671 0.26577 1.0018 0.0907 0.38185 0.18017 0.764 0.25383 1.1482 0.0706 0.3626 0.14585 0.72463 0.22273 1.0864 0.0467 0.21086 0.0885 0.42392 0.16615 0.62876 1.0349 2.5763 1.7688 2.345 0.73391-0.23128z" enable-background="new" style="paint-order:markers fill stroke"/>
   <path d="m-114.21 150.28c0.13196 0.14241 0.27201 0.27153 0.41188 0.40076 0.27229 0.24911 0.55103 0.48697 0.83032 0.72387 0.31511 0.26658 0.63285 0.52853 0.95162 0.78863 0.32131 0.26231 0.64441 0.52146 0.97266 0.77126 0.32089 0.24656 0.65208 0.47393 0.98462 0.69866 0.32816 0.22145 0.66845 0.41921 1.0098 0.61467 0.30974 0.17609 0.6203 0.35056 0.92959 0.52753 0.27193 0.15534 0.54132 0.31576 0.80929 0.47897 0.23361 0.14274 0.46516 0.28955 0.69618 0.43734 0.18875 0.12107 0.37624 0.24458 0.56316 0.36915 0.14639 0.0975 0.29203 0.19635 0.43756 0.29548 0.11031 0.0751 0.22019 0.15104 0.32949 0.22784 0.0832 0.0579 0.16648 0.1158 0.24923 0.17458 0.0346 0.0248 0.0696 0.0492 0.10472 0.0735 1.2702 0.90591 1.6476 0.20056 0.37719-0.70546-0.0349-0.0251-0.0697-0.0502-0.10529-0.0739-0.0833-0.0592-0.16708-0.11747-0.2509-0.1758-0.10993-0.0772-0.221-0.15286-0.33138-0.22921-0.14612-0.0998-0.29265-0.19891-0.4397-0.29703-0.1882-0.12537-0.3769-0.24975-0.5669-0.37162-0.23252-0.14875-0.46557-0.29652-0.70066-0.44021-0.26986-0.16434-0.54108-0.32597-0.81494-0.48234-0.30925-0.17697-0.61979-0.35142-0.9295-0.52744-0.3362-0.19256-0.67141-0.38725-0.99466-0.60526-0.32875-0.22213-0.65628-0.4467-0.97331-0.69071-0.32568-0.24855-0.64688-0.50547-0.96599-0.76594-0.31756-0.25909-0.63407-0.52002-0.94795-0.78559-0.27654-0.23453-0.55252-0.47002-0.82213-0.71657-0.13585-0.12533-0.27178-0.25072-0.39985-0.38895-1.118-1.171-1.5322-0.49764-0.41412 0.67336z" enable-background="new" style="paint-order:markers fill stroke"/>
   <path d="m-92.682 201.53c-0.0462-0.1694-0.0663-0.34265-0.092-0.51434-0.05-0.3597-0.0984-0.7195-0.1427-1.0795-0.0472-0.39869-0.11124-0.79641-0.17644-1.1939-0.0589-0.34703-0.13143-0.69263-0.19804-1.0388-0.0451-0.23822-0.0948-0.47818-0.0876-0.71761 7e-3 -0.14288 0.066-0.25089 0.16455-0.34564 0.14656-0.12459 0.32984-0.19591 0.51301-0.25989 0.25567-0.0812 0.5236-0.1255 0.79209-0.16297 0.31382-0.0413 0.63093-0.0658 0.94843-0.0855 0.31652-0.018 0.63409-0.0268 0.95243-0.0277 0.29242-2e-3 0.58491-3e-3 0.87753-3e-3 0.25675 2e-3 0.51356 4e-3 0.77055 9e-3 0.15124 4e-3 0.0763 2e-3 0.22445 7e-3 2.7768 0.0903 2.7431-0.67797-0.0336-0.76824-0.15302-5e-3 -0.0755-3e-3 -0.23241-7e-3 -0.26253-6e-3 -0.5248-8e-3 -0.78708-0.01-0.29399-5.6e-4 -0.58788 3.8e-4 -0.88167 3e-3 -0.33436 1e-3 -0.66791 0.0103-1.0004 0.0292-0.33708 0.0216-0.67385 0.0471-1.007 0.0915-0.31889 0.0449-0.63678 0.0995-0.93938 0.19877-0.28976 0.10367-0.57245 0.22784-0.79198 0.44001-0.21068 0.23099-0.34555 0.49534-0.35554 0.82121-2e-3 0.29178 0.0403 0.5827 0.10143 0.87283 0.0652 0.33933 0.13631 0.67803 0.19433 1.0181 0.0635 0.38731 0.12575 0.77482 0.17209 1.1632 0.0448 0.36669 0.0943 0.73313 0.14542 1.0995 0.0317 0.21363 0.0583 0.42912 0.12132 0.63893 0.85033 2.643 1.5988 2.4641 0.74841-0.17886z" enable-background="new" style="paint-order:markers fill stroke"/>
   <path d="m-91.559 198.92c0.12155 0.15139 0.25213 0.29008 0.38252 0.42886 0.254 0.26774 0.51526 0.52468 0.77714 0.78069 0.29549 0.28818 0.59396 0.57189 0.89351 0.85389 0.30198 0.28438 0.60597 0.56569 0.91577 0.83804 0.30264 0.26864 0.61696 0.5188 0.9328 0.76647 0.3117 0.24407 0.63719 0.46537 0.96387 0.6845 0.29655 0.19751 0.59397 0.39353 0.89001 0.59187 0.26028 0.17417 0.51765 0.35324 0.77341 0.53499 0.22295 0.15887 0.44351 0.3217 0.66351 0.48545 0.17973 0.1341 0.358 0.27059 0.53566 0.40804 0.13908 0.10769 0.27745 0.21647 0.41556 0.32569 0.10478 0.0826 0.20882 0.16639 0.3128 0.25028 0.079 0.0637 0.15779 0.12737 0.23603 0.19204 0.0328 0.0272 0.0661 0.0538 0.099 0.081 1.2031 0.99337 1.6293 0.31645 0.42608-0.67705-0.033-0.0275-0.0659-0.055-0.0995-0.0815-0.079-0.0649-0.15833-0.12902-0.23759-0.1934-0.10438-0.0846-0.20939-0.16841-0.31463-0.25173-0.13883-0.10971-0.27784-0.21911-0.4176-0.32737-0.17887-0.13835-0.35831-0.27575-0.53922-0.41075-0.22146-0.16478-0.44344-0.32869-0.66782-0.4886-0.25759-0.18298-0.51674-0.36334-0.77882-0.53872-0.29599-0.19835-0.5934-0.39433-0.88991-0.59179-0.32177-0.21581-0.64239-0.43369-0.94942-0.67401-0.31225-0.24479-0.62308-0.49194-0.92212-0.7577-0.30762-0.27057-0.60958-0.54987-0.90945-0.83229-0.29843-0.28091-0.59575-0.56351-0.89009-0.85058-0.25927-0.25351-0.51796-0.50785-0.76948-0.77284-0.12664-0.13465-0.25341-0.26926-0.37139-0.4162-1.0325-1.2471-1.4932-0.60464-0.46063 0.64244z" enable-background="new" style="paint-order:markers fill stroke"/>
  </g>
 </g>
</svg>
