<svg width="150.5mm" height="150.5mm" version="1.1" viewBox="0 0 150.5 150.5" xmlns="http://www.w3.org/2000/svg">
 <g transform="translate(.77053 .21062)">
  <g fill="#ffa669" stroke="#ff9243" stroke-linecap="square">
   <path d="m19.541 117.6h100.74c17.054 0.41367 16.996 2.4754 0 2.4754h-100.74c-4.8896 0-4.8896-2.4754 0-2.4754z" enable-background="new" stroke-width=".60093" style="paint-order:markers fill stroke"/>
   <path d="m15.592 116.56v-59.965c-0.01194-7.1015 0.01828-14.203-0.01343-21.304-0.61161-23.959 1.927-22.104 2.0733-0.0039 0.03008 7.1028 0.0015 14.206 0.01344 21.308v59.965c0 4.9057-2.0735 4.9057-2.0735 0z" enable-background="new" stroke-width=".60217" style="paint-order:markers fill stroke"/>
   <path d="m21.729 20.788c-0.17171-0.32774-0.37342-0.61149-0.56768-0.90366-0.41055-0.60474-0.82301-1.2063-1.2394-1.8006-0.46263-0.6552-0.90876-1.3397-1.353-2.0269-0.38613-0.60347-0.75724-1.2311-1.135-1.8479-0.26063-0.42317-0.519-0.85753-0.83085-1.1833-0.18857-0.1892-0.38249-0.23031-0.59703-0.17788-0.29829 0.10154-0.56359 0.348-0.81949 0.60477-0.34677 0.36992-0.65842 0.81518-0.9617 1.2714-0.35156 0.53644-0.68391 1.1042-1.0119 1.6777-0.32414 0.57499-0.63769 1.1648-0.942 1.7672-0.28112 0.55155-0.56086 1.105-0.83866 1.6608-0.2419 0.48989-0.48423 0.97931-0.7215 1.475-0.13854 0.29291-0.07034 0.1478-0.20496 0.43533-2.5286 5.3947-3.4753 4.242-0.94673-1.1527 0.13944-0.29735 0.06846-0.14709 0.21226-0.45076 0.2424-0.50631 0.4898-1.0063 0.7369-1.5066 0.27918-0.55846 0.56017-1.1145 0.84263-1.6687 0.31973-0.63262 0.64904-1.2522 0.98974-1.8559 0.34838-0.60885 0.70156-1.2113 1.0752-1.7803 0.36079-0.5413 0.73292-1.0669 1.1476-1.4999 0.40782-0.40291 0.83521-0.76288 1.3146-0.87851 0.49484-0.07226 0.96005 0.04656 1.3847 0.48961 0.37343 0.41011 0.70401 0.9024 1.0155 1.4294 0.37023 0.6046 0.73402 1.2196 1.1121 1.8116 0.43285 0.66954 0.86738 1.3368 1.3182 1.9751 0.42403 0.60546 0.84424 1.2179 1.2623 1.8341 0.24165 0.3635 0.49115 0.71879 0.6985 1.1357 2.5577 5.359 1.6172 6.5249-0.94043 1.1659z" enable-background="new" stroke-width=".46373" style="paint-order:markers fill stroke"/>
  </g>
  <g stroke-linecap="round">
   <g stroke-width=".66431">
    <path d="m47.089 58.011h-14.589v58.982h14.884l-0.16552-34.88c-0.06278-13.164-0.09429-18.092-0.12965-24.102z" fill="#33d917" stroke="#33d917" style="paint-order:markers fill stroke"/>
    <path d="m32.5 46.315c-0.54977 0.5491 0 11.264 0 11.264h14.589c-0.01537-2.7482-0.0556-11.311-0.0597-11.353-0.01281-0.13353-5.0354-0.57472-7.194-0.57472-2.3907 0-6.7854 0.11455-7.3352 0.66366z" fill="#9af28c" stroke="#9af28c" style="paint-order:markers fill stroke"/>
   </g>
   <g transform="translate(-1.5431e-6 1.013)">
    <path d="m103.14 88.462v-27.556h7.253c3.9892 0 7.4542-0.15831 7.467-0.05356s-0.0927 12.749-1e-3 27.8l0.16604 27.366h-14.885z" fill="#33d917" stroke="#33d917" stroke-width=".58842" style="paint-order:markers fill stroke"/>
    <path d="m103.18 45.657c-0.61315 0.58068 0.0392 14.793 0.0392 14.793l14.55-0.0073c-0.0154-3.552 0.27175-13.563-0.0597-14.471-0.33363-0.91445-5.278-1.0065-7.6029-0.97765-2.3296 0.02891-6.4798 0.24068-6.9263 0.66357z" fill="#9af28c" stroke="#9af28c" stroke-width=".75523" style="paint-order:markers fill stroke"/>
   </g>
   <g transform="translate(3.738 .57057)">
    <path d="m90.345 46.209s-0.04371-1.0844-7.4413-1.0003c-6.5804 0.07477-7.0952 1.0003-7.0952 1.0003v67.496h14.831l-0.16501-39.915c-0.06252-15.065-0.09404-20.703-0.12914-27.581z" fill="#f81b2c" stroke="#f81b2c" stroke-width=".70936" style="paint-order:markers fill stroke"/>
    <path d="m75.59 108.01 0.03612 8.3753 15.256 0.0796c-0.01536-2.0532-0.0023-8.2419-0.0077-8.2733-0.01282-0.0994-3.5763-0.14169-7.6736-0.14169z" fill="#9af28c" stroke="#9af28c" stroke-width=".58192" style="paint-order:markers fill stroke"/>
   </g>
   <g transform="translate(2.0404 .00052934)">
    <path d="m61.213 45.045c-2.5192 0.01536-5.952-0.68669-7.0777 1.0003-1.1205 1.6794 0 24.414 0 24.414v35.122h14.898l-0.16578-34.879c-0.0627-13.164-0.6396-21.124-0.12965-24.101 0.40046-2.3381-5.0059-1.5714-7.5251-1.556z" fill="#f81b2c" stroke="#f81b2c" stroke-width=".66461" style="paint-order:markers fill stroke"/>
    <path d="m54.135 105.58 0.15143 11.414 14.665-5e-3c-0.0154-2.6734 0.0858-11.368 0.0817-11.409-0.0128-0.12989-3.4561 0.28099-7.4769 0.28099z" fill="#9af28c" stroke="#9af28c" stroke-width=".65779" style="paint-order:markers fill stroke"/>
   </g>
   <g stroke-width=".19408">
    <path d="m94.773 5.7066s-0.0255-0.13888-4.3489-0.12812c-3.8458 0.0096-4.1467 0.12812-4.1467 0.12812v8.6449h8.6676l-0.0964-5.1123c-0.0365-1.9295-0.0549-2.6517-0.0755-3.5326z" fill="#33d917" stroke="#33d917" style="paint-order:markers fill stroke"/>
    <path d="m94.773 15.768s-0.0255-0.13888-4.3489-0.12812c-3.8458 0.0096-4.1467 0.12812-4.1467 0.12812v8.6449h8.6676l-0.0964-5.1123c-0.0365-1.9295-0.0549-2.6517-0.0755-3.5326z" fill="#9af28c" stroke="#9af28c" style="paint-order:markers fill stroke"/>
    <path d="m94.773 25.829s-0.0255-0.13888-4.3489-0.12812c-3.8458 0.0096-4.1467 0.12812-4.1467 0.12812v8.6449h8.6676l-0.0964-5.1123c-0.0365-1.9295-0.0549-2.6517-0.0755-3.5326z" fill="#f81b2c" stroke="#f81b2c" style="paint-order:markers fill stroke"/>
   </g>
  </g>
  <g stroke-width=".26458">
   <g style="font-feature-settings:normal;font-variant-caps:normal;font-variant-ligatures:normal;font-variant-numeric:normal" aria-label="egészséges">
    <path d="m101.13 9.7495q0.0388 0 0.0388 0.062089 0 0.1397-0.20955 0.45014-0.20179 0.31044-0.43462 0.51223-0.81492 0.72178-1.6298 0.72178-0.31044 0-0.62089-0.1397-0.30268-0.14746-0.56656-0.41134t-0.42686-0.70626q-0.16298-0.44238-0.16298-0.98566 0-0.33373 0.07761-0.56656 0.15522-0.47343 0.65969-1.0012 0.51223-0.52776 0.96238-0.52776 0.12418 0 0.37253 0.023283 0.37253 0.031045 0.51999 0.077611 0.15522 0.046567 0.34925 0.19403 0.24836 0.18627 0.42686 0.48119 0.18627 0.28716 0.18627 0.48119 0 0.24836-0.19403 0.38029-0.19403 0.12418-0.75283 0.24836-0.72954 0.16298-1.428 0.20179l-0.72178 0.038806v0.31044q0 0.57432 0.53552 1.0866 0.40358 0.38806 0.8382 0.38806 0.33373 0 0.70626-0.20179 0.3803-0.20955 0.64417-0.45791 0.26388-0.24836 0.50448-0.45014 0.24059-0.20955 0.32596-0.20955zm-1.2495-1.8937q-0.24059-0.21731-0.36477-0.27164-0.11642-0.062089-0.31044-0.062089-0.38806 0-0.58208 0.077611-0.18627 0.06985-0.38029 0.29492-0.58984 0.67522-0.58984 0.90029 0 0.10089 0.18627 0.10089 0.70626 0 2.0024-0.29492 0.38805-0.093133 0.38805-0.32597 0-0.10866-0.34925-0.4191z" style="font-feature-settings:normal;font-variant-caps:normal;font-variant-ligatures:normal;font-variant-numeric:normal"/>
    <path d="m105.49 12.885q0.3803 0 0.3803-0.33373 0-0.56656-0.0466-1.0012-0.0388-0.42686-0.10089-0.72178-0.0543-0.29492-0.0621-0.42686-0.0543-0.79163-0.10866-0.79163-0.031 0-0.11642 0.1397-0.19402 0.28716-0.62865 0.64417-0.43462 0.35701-0.72178 0.46567-0.33373 0.13194-0.7373 0.13194-0.24836 0-0.39582-0.06209-0.1397-0.06209-0.37253-0.26388-0.22508-0.20179-0.31821-0.35701-0.0931-0.15522-0.14746-0.44238-0.0543-0.28716-0.0543-0.48895 0-0.14746 0.0233-0.21731 0.0543-0.20955 0.28717-0.65193 0.23283-0.44238 0.42686-0.69074 0.16298-0.21731 0.60536-0.50447 0.45015-0.29492 0.79164-0.40358 0.35701-0.11642 0.81491-0.11642 0.57433 0 0.95462 0.20179 0.38029 0.19403 0.38029 0.60537 0 0.23283-0.11641 0.57432-0.10866 0.34149-0.10866 0.59761 0 0.13194 0.17851 2.5689l0.11641 1.6066-0.27163 0.21731q-0.21732 0.1785-0.44239 0.1785-0.41134 0-1.0012-0.20955-0.58985-0.20179-1.0167-0.47343-0.42686-0.26388-0.42686-0.43462 0-0.20179 0.20955-0.49671 0.21731-0.29492 0.36477-0.29492 0.17075 0 0.17075 0.11642 0 0.06985-0.0699 0.20955t-0.0699 0.27164q0 0.21731 0.28716 0.38029t0.48895 0.16298q0.11642 0 0.38029 0.15522 0.27164 0.15522 0.47343 0.15522zm-2.9492-3.5235q0 0.45014 0.23283 0.82268 0.23284 0.37253 0.58209 0.37253 0.47342 0 1.0167-0.42686 0.55104-0.43462 0.89253-1.0788 0.18627-0.36477 0.31821-0.83044 0.1397-0.47343 0.1397-0.74507 0-0.15522-0.0543-0.18627-0.17851-0.093133-0.56656-0.093133-0.35701 0-0.61313 0.077611-0.67522 0.19403-1.3116 0.90805-0.63641 0.71402-0.63641 1.1797z" style="font-feature-settings:normal;font-variant-caps:normal;font-variant-ligatures:normal;font-variant-numeric:normal"/>
    <path d="m111.38 9.7495q0.0388 0 0.0388 0.062089 0 0.1397-0.20955 0.45014-0.20179 0.31044-0.43462 0.51223-0.81492 0.72178-1.6298 0.72178-0.31045 0-0.62089-0.1397-0.30269-0.14746-0.56656-0.41134-0.26388-0.26388-0.42687-0.70626-0.16298-0.44238-0.16298-0.98566 0-0.33373 0.0776-0.56656 0.15522-0.47343 0.6597-1.0012 0.51223-0.52776 0.96237-0.52776 0.12418 0 0.37254 0.023283 0.37253 0.031045 0.51999 0.077611 0.15522 0.046567 0.34925 0.19403 0.24836 0.18627 0.42686 0.48119 0.18627 0.28716 0.18627 0.48119 0 0.24836-0.19403 0.38029-0.19403 0.12418-0.75283 0.24836-0.72954 0.16298-1.428 0.20179l-0.72178 0.038806v0.31044q0 0.57432 0.53551 1.0866 0.40358 0.38806 0.8382 0.38806 0.33373 0 0.70626-0.20179 0.3803-0.20955 0.64418-0.45791 0.26387-0.24836 0.50447-0.45014 0.24059-0.20955 0.32597-0.20955zm-1.2495-1.8937q-0.2406-0.21731-0.36478-0.27164-0.11641-0.062089-0.31044-0.062089-0.38806 0-0.58208 0.077611-0.18627 0.06985-0.3803 0.29492-0.58984 0.67522-0.58984 0.90029 0 0.10089 0.18626 0.10089 0.70627 0 2.0024-0.29492 0.38806-0.093133 0.38806-0.32597 0-0.10866-0.34925-0.4191zm-0.40358-2.3749q0.0466 0 0.11642 0.06985 0.0776 0.062089 0.0776 0.11642 0 0.093133-0.44239 0.54328-0.43462 0.44238-0.58208 0.44238-0.11642 0-0.11642-0.1397 0-0.085372 0.0854-0.19403 0.0854-0.10866 0.34148-0.36477 0.45015-0.47343 0.52-0.47343z" style="font-feature-settings:normal;font-variant-caps:normal;font-variant-ligatures:normal;font-variant-numeric:normal"/>
    <path d="m113.18 9.5942q-0.11641 0-0.49671-0.2794-0.38029-0.28716-0.38029-0.58208 0-0.2794 0.39582-0.76835 0.39581-0.49671 0.95461-0.63641 0.25612-0.06985 0.67522-0.06985 0.1785 0 0.26388 0.046567 0.0854 0.046567 0.23283 0.20955 0.24059 0.27164 0.24059 0.37253 0 0.093133-0.10089 0.093133-0.12418 0-0.20955-0.085372-0.0854-0.093133-0.20955-0.18627-0.12418-0.093133-0.33373-0.093133-0.27164 0-0.58208 0.14746-0.31045 0.14746-0.55104 0.41134-0.34149 0.36477-0.34149 0.49671t0.20179 0.31821q0.20179 0.17851 0.67522 0.34149 0.74506 0.25612 1.0089 0.48119 0.26388 0.22507 0.26388 0.60537 0 0.35701-0.12418 0.65193-0.0854 0.22507-0.36477 0.50447-0.2794 0.2794-0.55104 0.2794-0.20955 0-0.54328-0.06985-0.33373-0.06209-0.50447-0.14746-0.1397-0.06985-0.25612-0.27164-0.11641-0.20955-0.11641-0.37253 0-0.08537 0.0388-0.14746 0.0466-0.06985 0.10866-0.06985 0.11641 0 0.21731 0.21731 0.0931 0.19403 0.37253 0.34925 0.28716 0.15522 0.53552 0.15522 0.33373 0 0.58984-0.39582 0.25612-0.40358 0.25612-0.62865 0-0.05433-0.031-0.13194-0.0233-0.08537-0.13194-0.20179-0.10866-0.11642-0.2794-0.1785-0.16299-0.054328-0.3803-0.14746-0.21731-0.093133-0.36477-0.15522-0.1397-0.062089-0.17851-0.062089z" style="font-feature-settings:normal;font-variant-caps:normal;font-variant-ligatures:normal;font-variant-numeric:normal"/>
    <path d="m116.28 8.3602q-0.0931 0-0.18626-0.038806-0.0931-0.038806-0.0931-0.10089 0-0.21731 0.7994-0.51999 0.80715-0.30268 1.1797-0.38806 0.10865-0.023283 0.22507-0.023283 0.20955 0 0.41134 0.062089 0.20179 0.054328 0.2794 0.1397 0.10089 0.10866 0.10089 0.38029 0 0.41134-0.22507 0.90029l-0.17074 0.35701 0.28716 0.038805q0.34925 0.023283 0.34925 0.10866 0 0.062089-0.17075 0.1397-0.17074 0.077611-0.39581 0.10866-0.20955 0.031045-0.33373 0.10089-0.11642 0.06985-0.30268 0.26388-0.19403 0.20179-0.42687 0.58984-0.23283 0.3803-0.23283 0.48119 0 0.03105 0.0388 0.03105 0.0233 0 0.69074-0.12418 0.67521-0.13194 1.071-0.13194 0.41134 0 0.41134 0.1397 0 0.08537-0.15522 0.14746-0.15523 0.05433-0.62865 0.14746-1.4591 0.28716-1.7773 0.28716-0.25612 0-0.25612-0.1397 0-0.14746 0.26388-0.65193t0.4191-0.69074q0.20179-0.24836 0.20179-0.29492 0-0.054328-0.3182-0.054328-0.38806 0-0.38806-0.12418 0-0.093133 0.17851-0.15522 0.18626-0.062089 0.46566-0.062089t0.36477-0.031045q0.0931-0.031044 0.18627-0.16298 0.18627-0.2794 0.31045-0.62089 0.13193-0.34925 0.13193-0.58984 0-0.13194-0.0388-0.16298-0.0388-0.031044-0.19403-0.031044-0.37253 0.00776-1.04 0.20955-0.66745 0.20179-0.81491 0.35701-0.0854 0.10866-0.21732 0.10866z" style="font-feature-settings:normal;font-variant-caps:normal;font-variant-ligatures:normal;font-variant-numeric:normal"/>
    <path d="m121.29 9.5942q-0.11642 0-0.49671-0.2794-0.38029-0.28716-0.38029-0.58208 0-0.2794 0.39581-0.76835 0.39582-0.49671 0.95462-0.63641 0.25612-0.06985 0.67522-0.06985 0.1785 0 0.26387 0.046567 0.0854 0.046567 0.23284 0.20955 0.24059 0.27164 0.24059 0.37253 0 0.093133-0.10089 0.093133-0.12418 0-0.20955-0.085372-0.0854-0.093133-0.20955-0.18627-0.12418-0.093133-0.33373-0.093133-0.27164 0-0.58208 0.14746-0.31045 0.14746-0.55104 0.41134-0.34149 0.36477-0.34149 0.49671t0.20179 0.31821q0.20179 0.17851 0.67521 0.34149 0.74507 0.25612 1.009 0.48119 0.26388 0.22507 0.26388 0.60537 0 0.35701-0.12418 0.65193-0.0854 0.22507-0.36477 0.50447-0.2794 0.2794-0.55104 0.2794-0.20955 0-0.54328-0.06985-0.33373-0.06209-0.50447-0.14746-0.1397-0.06985-0.25612-0.27164-0.11642-0.20955-0.11642-0.37253 0-0.08537 0.0388-0.14746 0.0466-0.06985 0.10865-0.06985 0.11642 0 0.21732 0.21731 0.0931 0.19403 0.37253 0.34925 0.28716 0.15522 0.53552 0.15522 0.33372 0 0.58984-0.39582 0.25612-0.40358 0.25612-0.62865 0-0.05433-0.031-0.13194-0.0233-0.08537-0.13194-0.20179-0.10865-0.11642-0.2794-0.1785-0.16298-0.054328-0.38029-0.14746-0.21731-0.093133-0.36477-0.15522-0.1397-0.062089-0.17851-0.062089z" style="font-feature-settings:normal;font-variant-caps:normal;font-variant-ligatures:normal;font-variant-numeric:normal"/>
    <path d="m128.11 9.7495q0.0388 0 0.0388 0.062089 0 0.1397-0.20955 0.45014-0.20179 0.31044-0.43462 0.51223-0.81492 0.72178-1.6298 0.72178-0.31044 0-0.62089-0.1397-0.30268-0.14746-0.56656-0.41134t-0.42686-0.70626q-0.16298-0.44238-0.16298-0.98566 0-0.33373 0.0776-0.56656 0.15522-0.47343 0.65969-1.0012 0.51224-0.52776 0.96238-0.52776 0.12418 0 0.37253 0.023283 0.37254 0.031045 0.52 0.077611 0.15522 0.046567 0.34925 0.19403 0.24835 0.18627 0.42686 0.48119 0.18627 0.28716 0.18627 0.48119 0 0.24836-0.19403 0.38029-0.19403 0.12418-0.75283 0.24836-0.72954 0.16298-1.428 0.20179l-0.72179 0.038806v0.31044q0 0.57432 0.53552 1.0866 0.40358 0.38806 0.8382 0.38806 0.33373 0 0.70626-0.20179 0.3803-0.20955 0.64417-0.45791 0.26388-0.24836 0.50448-0.45014 0.24059-0.20955 0.32596-0.20955zm-1.2495-1.8937q-0.24059-0.21731-0.36477-0.27164-0.11642-0.062089-0.31044-0.062089-0.38806 0-0.58209 0.077611-0.18626 0.06985-0.38029 0.29492-0.58985 0.67522-0.58985 0.90029 0 0.10089 0.18627 0.10089 0.70626 0 2.0024-0.29492 0.38805-0.093133 0.38805-0.32597 0-0.10866-0.34925-0.4191zm-0.40357-2.3749q0.0466 0 0.11641 0.06985 0.0776 0.062089 0.0776 0.11642 0 0.093133-0.44238 0.54328-0.43462 0.44238-0.58208 0.44238-0.11642 0-0.11642-0.1397 0-0.085372 0.0854-0.19403 0.0854-0.10866 0.34149-0.36477 0.45015-0.47343 0.52-0.47343z" style="font-feature-settings:normal;font-variant-caps:normal;font-variant-ligatures:normal;font-variant-numeric:normal"/>
    <path d="m132.48 12.885q0.38029 0 0.38029-0.33373 0-0.56656-0.0466-1.0012-0.0388-0.42686-0.1009-0.72178-0.0543-0.29492-0.0621-0.42686-0.0543-0.79163-0.10865-0.79163-0.031 0-0.11642 0.1397-0.19403 0.28716-0.62865 0.64417t-0.72178 0.46567q-0.33373 0.13194-0.73731 0.13194-0.24835 0-0.39581-0.06209-0.1397-0.06209-0.37254-0.26388-0.22507-0.20179-0.3182-0.35701-0.0931-0.15522-0.14746-0.44238-0.0543-0.28716-0.0543-0.48895 0-0.14746 0.0233-0.21731 0.0543-0.20955 0.28716-0.65193 0.23284-0.44238 0.42686-0.69074 0.16299-0.21731 0.60537-0.50447 0.45015-0.29492 0.79163-0.40358 0.35702-0.11642 0.81492-0.11642 0.57432 0 0.95462 0.20179 0.38029 0.19403 0.38029 0.60537 0 0.23283-0.11641 0.57432-0.10866 0.34149-0.10866 0.59761 0 0.13194 0.17851 2.5689l0.11641 1.6066-0.27164 0.21731q-0.21731 0.1785-0.44238 0.1785-0.41134 0-1.0012-0.20955-0.58985-0.20179-1.0167-0.47343-0.42686-0.26388-0.42686-0.43462 0-0.20179 0.20955-0.49671 0.21731-0.29492 0.36477-0.29492 0.17075 0 0.17075 0.11642 0 0.06985-0.0699 0.20955t-0.0699 0.27164q0 0.21731 0.28716 0.38029t0.48895 0.16298q0.11641 0 0.38029 0.15522 0.27164 0.15522 0.47343 0.15522zm-2.9492-3.5235q0 0.45014 0.23283 0.82268 0.23283 0.37253 0.58208 0.37253 0.47343 0 1.0167-0.42686 0.55104-0.43462 0.89253-1.0788 0.18626-0.36477 0.3182-0.83044 0.1397-0.47343 0.1397-0.74507 0-0.15522-0.0543-0.18627-0.17851-0.093133-0.56657-0.093133-0.35701 0-0.61312 0.077611-0.67522 0.19403-1.3116 0.90805-0.63641 0.71402-0.63641 1.1797z" style="font-feature-settings:normal;font-variant-caps:normal;font-variant-ligatures:normal;font-variant-numeric:normal"/>
    <path d="m138.37 9.7495q0.0388 0 0.0388 0.062089 0 0.1397-0.20955 0.45014-0.20179 0.31044-0.43462 0.51223-0.81492 0.72178-1.6298 0.72178-0.31044 0-0.62089-0.1397-0.30268-0.14746-0.56656-0.41134-0.26387-0.26388-0.42686-0.70626-0.16298-0.44238-0.16298-0.98566 0-0.33373 0.0776-0.56656 0.15522-0.47343 0.65969-1.0012 0.51224-0.52776 0.96238-0.52776 0.12418 0 0.37254 0.023283 0.37253 0.031045 0.51999 0.077611 0.15522 0.046567 0.34925 0.19403 0.24836 0.18627 0.42686 0.48119 0.18627 0.28716 0.18627 0.48119 0 0.24836-0.19403 0.38029-0.19403 0.12418-0.75283 0.24836-0.72954 0.16298-1.428 0.20179l-0.72179 0.038806v0.31044q0 0.57432 0.53552 1.0866 0.40358 0.38806 0.8382 0.38806 0.33373 0 0.70626-0.20179 0.3803-0.20955 0.64417-0.45791 0.26388-0.24836 0.50448-0.45014 0.24059-0.20955 0.32596-0.20955zm-1.2495-1.8937q-0.24059-0.21731-0.36477-0.27164-0.11641-0.062089-0.31044-0.062089-0.38806 0-0.58209 0.077611-0.18626 0.06985-0.38029 0.29492-0.58984 0.67522-0.58984 0.90029 0 0.10089 0.18626 0.10089 0.70626 0 2.0024-0.29492 0.38805-0.093133 0.38805-0.32597 0-0.10866-0.34925-0.4191z" style="font-feature-settings:normal;font-variant-caps:normal;font-variant-ligatures:normal;font-variant-numeric:normal"/>
    <path d="m140.16 9.5942q-0.11642 0-0.49672-0.2794-0.38029-0.28716-0.38029-0.58208 0-0.2794 0.39582-0.76835 0.39581-0.49671 0.95461-0.63641 0.25612-0.06985 0.67522-0.06985 0.17851 0 0.26388 0.046567 0.0854 0.046567 0.23283 0.20955 0.2406 0.27164 0.2406 0.37253 0 0.093133-0.1009 0.093133-0.12418 0-0.20955-0.085372-0.0854-0.093133-0.20955-0.18627-0.12418-0.093133-0.33373-0.093133-0.27164 0-0.58208 0.14746t-0.55104 0.41134q-0.34149 0.36477-0.34149 0.49671t0.20179 0.31821q0.20179 0.17851 0.67522 0.34149 0.74506 0.25612 1.0089 0.48119 0.26388 0.22507 0.26388 0.60537 0 0.35701-0.12418 0.65193-0.0854 0.22507-0.36477 0.50447-0.2794 0.2794-0.55104 0.2794-0.20955 0-0.54328-0.06985-0.33372-0.06209-0.50447-0.14746-0.1397-0.06985-0.25612-0.27164-0.11641-0.20955-0.11641-0.37253 0-0.08537 0.0388-0.14746 0.0466-0.06985 0.10866-0.06985 0.11642 0 0.21731 0.21731 0.0931 0.19403 0.37253 0.34925 0.28716 0.15522 0.53552 0.15522 0.33373 0 0.58984-0.39582 0.25612-0.40358 0.25612-0.62865 0-0.05433-0.031-0.13194-0.0233-0.08537-0.13194-0.20179-0.10866-0.11642-0.2794-0.1785-0.16299-0.054328-0.3803-0.14746-0.21731-0.093133-0.36477-0.15522-0.1397-0.062089-0.1785-0.062089z" style="font-feature-settings:normal;font-variant-caps:normal;font-variant-ligatures:normal;font-variant-numeric:normal"/>
   </g>
   <g style="font-feature-settings:normal;font-variant-caps:normal;font-variant-ligatures:normal;font-variant-numeric:normal" aria-label="fakó levelű">
    <path d="m98.328 19.866q-0.09313 0-0.39582 0.08537-0.29492 0.07761-0.47343 0.07761-0.34149 0-0.34149-0.21731 0-0.08537 0.12418-0.15522 0.13194-0.06985 0.50447-0.17851l0.62865-0.18627 0.01552-0.67522q0.01552-0.72178 0.10866-1.591 0.06985-0.64417 0.12418-0.81492 0.05433-0.17074 0.2406-0.35701 0.15522-0.15522 0.24836-0.20179 0.1009-0.04657 0.2794-0.04657 0.13194 0 0.5588 0.0388 0.32597 0.03105 0.46567 0.09313 0.1397 0.05433 0.31821 0.23283 0.26388 0.26388 0.26388 0.48119 0 0.15522-0.12418 0.32597-0.11642 0.16298-0.17851 0.16298-0.0931 0-0.0931-0.26388 0-0.24836-0.1397-0.38029-0.13194-0.1397-0.52-0.26388-0.25612-0.07761-0.39582-0.07761-0.33373 0-0.51999 0.38806-0.06985 0.15522-0.13194 0.89253-0.05433 0.72954-0.05433 1.3427 0 0.44238 0.03105 0.5588 0.0388 0.10866 0.19403 0.10866 0.09313 0 0.38806-0.05433 0.29492-0.05433 0.48895-0.05433 0.10865 0 0.1785 0.03881 0.0699 0.03104 0.0699 0.07761 0 0.13194-0.66745 0.33373l-0.66746 0.19403-0.02328 1.234q0 0.09313-0.0078 0.25612 0 0.15522 0 0.21731 0 0.58208 0.05433 0.90029t0.10866 0.45791q0.05433 0.1397 0.05433 0.30268 0 0.23283-0.21731 0.23283-0.41134 0-0.41134-2.1654 0-1.2961-0.04657-1.3427-0.0078-0.0078-0.0388-0.0078z" style="font-feature-settings:normal;font-variant-caps:normal;font-variant-ligatures:normal;font-variant-numeric:normal"/>
    <path d="m104.24 19.493q-0.35701 0-0.76058 0.14746-0.39582 0.14746-0.70627 0.30268-0.31044 0.14746-0.45014 0.14746-0.0931 0-0.0931-0.07761 0-0.10866 0.0466-0.18627t0.17075-0.14746q0.12418-0.06985 0.23283-0.11642 0.11642-0.04657 0.36477-0.13194 0.24836-0.09313 0.42686-0.17074 0.4191-0.16298 0.70627-0.16298 0.51223 0 0.79939 0.5588 0.1397 0.27164 0.16298 0.50447 0.0233 0.22507 0.0388 1.2806 8e-3 0.58984 0.0233 0.99342 0.0155 0.39582 0.0311 0.50447l0.0155 0.10089q0 0.10866-0.1009 0.23283-0.0931 0.12418-0.1397 0.12418-0.15522 0-0.24059-0.48895-0.0854-0.49671-0.0931-0.49671-0.0233 0-0.0699 0.08537-0.15523 0.25612-0.62865 0.56656-0.46567 0.30268-0.78388 0.30268-0.19402 0-0.4579-0.06985-0.25612-0.07761-0.37253-0.16298-0.0854-0.06985-0.14747-0.2794-0.0543-0.20955-0.0543-0.42686 0-0.32597 0.17074-0.5588 0.17851-0.2406 0.62865-0.48895 0.48895-0.28716 0.94686-0.28716 0.18626 0 0.31044 0.06209t0.18627 0.13194q0.0621 0.06209 0.10089 0.06209 0.031 0 0.14746 0.08537 0.11642 0.07761 0.12418 0.07761 0.031 0 0.031-0.17074 0-1.04-0.14747-1.4436-0.1397-0.40358-0.4191-0.40358zm0.34925 2.4059q0-0.03104-0.0233-0.06985-0.0155-0.04657-0.0776-0.10089-0.0543-0.06209-0.14746-0.10866-0.0854-0.05433-0.2406-0.08537-0.15522-0.03881-0.34925-0.03881-0.33372 0-0.58984 0.11642-0.24836 0.11642-0.37253 0.29492-0.12418 0.17851-0.18627 0.33373-0.0543 0.14746-0.0543 0.26388 0 0.19403 0.031 0.26388 0.0388 0.06985 0.1785 0.14746 0.17075 0.08537 0.31045 0.08537 0.26387 0 0.65193-0.18627 0.39582-0.19403 0.39582-0.2794 0-0.06209 0.23283-0.29492 0.24059-0.2406 0.24059-0.34149z" style="font-feature-settings:normal;font-variant-caps:normal;font-variant-ligatures:normal;font-variant-numeric:normal"/>
    <path d="m106.15 17.483q0-0.2794 0.1785-0.2794 0.14746 0 0.21731 0.1785 0.0466 0.10866 0.1009 0.66746 0.0621 0.5588 0.12418 1.2573 0.0699 0.6985 0.11641 0.99342l0.0621 0.45014 0.88477-0.88477q0.47343-0.47343 0.66745-0.63641 0.19403-0.17074 0.28717-0.17074 0.0543 0 0.11641 0.07761 0.0699 0.07761 0.0699 0.15522 0 0.05433-0.031 0.09313-0.0233 0.03104-0.0699 0.06209-0.0388 0.02328-0.13194 0.12418-0.0931 0.10089-0.20179 0.24836-0.36477 0.52-1.2263 1.2107-0.31044 0.24059-0.31044 0.40358 0 0.10866 0.1397 0.17851l0.83044 0.38806q0.57432 0.27164 0.95462 0.54328 0.38029 0.27164 0.38029 0.4191 0 0.16298-0.15522 0.16298-0.1397 0-0.41134-0.18627-0.27164-0.19403-0.34149-0.19403-0.0931 0-0.0931-0.06209 0-0.08537-0.94686-0.43462l-0.41134-0.15522 0.0543 0.64417q0.0233 0.25612 0.0233 0.40358 0 0.32597-0.16298 0.32597-0.24836 0-0.31821-0.34149-0.0621-0.34925-0.11641-1.7618-0.0466-1.2495-0.11642-1.6298-0.0699-0.37253-0.11642-1.0788-0.0466-0.70626-0.0466-1.1719z" style="font-feature-settings:normal;font-variant-caps:normal;font-variant-ligatures:normal;font-variant-numeric:normal"/>
    <path d="m113.72 16.839q0 0.09313-0.44239 0.54328-0.43462 0.44238-0.58208 0.44238-0.11642 0-0.11642-0.1397 0-0.06209 0.0621-0.16298 0.0931-0.13194 0.45791-0.49671 0.37253-0.37253 0.42686-0.37253 0.0466 0 0.11641 0.06985 0.0776 0.06209 0.0776 0.11642zm-2.7474 3.0346q0.60537-0.56656 1.0167-0.74507 0.4191-0.18627 1.0555-0.18627 0.96238 0 1.203 0.57432 0.14746 0.34149 0.14746 0.8382 0 0.82268-0.36477 1.6686-0.36477 0.8382-0.90029 1.1642-0.51999 0.3182-1.0943 0.3182-0.79939 0-1.2806-0.55104-0.33373-0.38806-0.43462-0.65193-0.1009-0.27164-0.1009-0.76835 0-0.9391 0.75283-1.6609zm1.2495 3.1898q0.65193 0 1.1797-0.89253 0.53552-0.90029 0.53552-2.0334 0-0.17074-0.0388-0.25612-0.0388-0.08537-0.1397-0.17074-0.28716-0.2406-0.61313-0.2406-0.0543 0-0.12417 0.01552-0.0621 0.0078-0.20955 0.03104-0.14747 0.01552-0.34925 0.0388-0.27164 0.03881-0.43463 0.12418-0.15522 0.07761-0.39581 0.30268-0.45791 0.43462-0.65194 0.80716-0.19402 0.36477-0.19402 0.7994 0 0.64417 0.39581 1.0555 0.40358 0.41134 1.04 0.4191z" style="font-feature-settings:normal;font-variant-caps:normal;font-variant-ligatures:normal;font-variant-numeric:normal"/>
    <path d="m120.6 17.157q0-0.5976 0.0311-0.90805 0.031-0.31821 0.0776-0.40358t0.13194-0.08537q0.0776 0 0.12417 0.06985 0.0466 0.07761 0.2794 3.5934 0.2406 3.5158 0.2406 3.6555 0 0.10089-0.0466 0.1397-0.0466 0.03104-0.15522 0.03104-0.18627 0-0.2406-0.26388-0.0543-0.27164-0.15522-1.6842-0.12418-1.7074-0.24059-3.0501-0.0466-0.50447-0.0466-1.0943z" style="font-feature-settings:normal;font-variant-caps:normal;font-variant-ligatures:normal;font-variant-numeric:normal"/>
    <path d="m126.58 21.689q0.0388 0 0.0388 0.06209 0 0.1397-0.20955 0.45014-0.20179 0.31044-0.43463 0.51223-0.81491 0.72178-1.6298 0.72178-0.31044 0-0.62089-0.1397-0.30268-0.14746-0.56656-0.41134t-0.42686-0.70626-0.16298-0.98566q0-0.33373 0.0776-0.56656 0.15522-0.47343 0.65969-1.0012 0.51224-0.52776 0.96238-0.52776 0.12418 0 0.37253 0.02328 0.37254 0.03104 0.52 0.07761 0.15522 0.04657 0.34925 0.19403 0.24835 0.18627 0.42686 0.48119 0.18627 0.28716 0.18627 0.48119 0 0.24836-0.19403 0.38029-0.19403 0.12418-0.75283 0.24836-0.72954 0.16298-1.428 0.20179l-0.72179 0.0388v0.31044q0 0.57432 0.53552 1.0866 0.40358 0.38806 0.8382 0.38806 0.33373 0 0.70626-0.20179 0.38029-0.20955 0.64417-0.4579 0.26388-0.24836 0.50447-0.45014 0.2406-0.20955 0.32597-0.20955zm-1.2495-1.8937q-0.24059-0.21731-0.36477-0.27164-0.11642-0.06209-0.31044-0.06209-0.38806 0-0.58209 0.07761-0.18626 0.06985-0.38029 0.29492-0.58985 0.67522-0.58985 0.90029 0 0.1009 0.18627 0.1009 0.70626 0 2.0024-0.29492 0.38805-0.09313 0.38805-0.32597 0-0.10866-0.34925-0.4191z" style="font-feature-settings:normal;font-variant-caps:normal;font-variant-ligatures:normal;font-variant-numeric:normal"/>
    <path d="m130.59 19.578q0-0.17851 0.10866-0.35701 0.11641-0.17851 0.26388-0.17851 0.17074 0 0.17074 0.20179 0 0.36477-0.96238 2.988-0.19403 0.53552-0.49671 0.98566t-0.46567 0.45014q-0.12417 0-0.24059-0.1397-0.10866-0.1397-0.22507-0.45014-0.11642-0.31044-0.20179-0.58984-0.0854-0.2794-0.23283-0.78387-0.1397-0.51223-0.23284-0.80716-0.4579-1.5212-0.4579-1.7152 0-0.06985 0.0621-0.06985 0.0466 0 0.0776 0.0078 0.22507 0.03881 0.5588 1.0012 0.34149 0.96238 0.60536 1.9092 0.26388 0.94686 0.30269 0.94686 0.0854 0 0.36477-0.57432 0.28716-0.57432 0.43462-1.0555 0.10866-0.34149 0.26388-0.76835 0.15522-0.43462 0.22507-0.65969 0.0776-0.22507 0.0776-0.34149z" style="font-feature-settings:normal;font-variant-caps:normal;font-variant-ligatures:normal;font-variant-numeric:normal"/>
    <path d="m135.95 21.689q0.0388 0 0.0388 0.06209 0 0.1397-0.20955 0.45014-0.20179 0.31044-0.43462 0.51223-0.81492 0.72178-1.6298 0.72178-0.31045 0-0.62089-0.1397-0.30269-0.14746-0.56656-0.41134-0.26388-0.26388-0.42687-0.70626-0.16298-0.44238-0.16298-0.98566 0-0.33373 0.0776-0.56656 0.15522-0.47343 0.6597-1.0012 0.51223-0.52776 0.96237-0.52776 0.12418 0 0.37254 0.02328 0.37253 0.03104 0.51999 0.07761 0.15523 0.04657 0.34925 0.19403 0.24836 0.18627 0.42686 0.48119 0.18627 0.28716 0.18627 0.48119 0 0.24836-0.19403 0.38029-0.19402 0.12418-0.75282 0.24836-0.72955 0.16298-1.428 0.20179l-0.72178 0.0388v0.31044q0 0.57432 0.53551 1.0866 0.40358 0.38806 0.8382 0.38806 0.33373 0 0.70627-0.20179 0.38029-0.20955 0.64417-0.4579 0.26388-0.24836 0.50447-0.45014 0.24059-0.20955 0.32597-0.20955zm-1.2495-1.8937q-0.2406-0.21731-0.36477-0.27164-0.11642-0.06209-0.31045-0.06209-0.38806 0-0.58208 0.07761-0.18627 0.06985-0.3803 0.29492-0.58984 0.67522-0.58984 0.90029 0 0.1009 0.18626 0.1009 0.70627 0 2.0024-0.29492 0.38806-0.09313 0.38806-0.32597 0-0.10866-0.34925-0.4191z" style="font-feature-settings:normal;font-variant-caps:normal;font-variant-ligatures:normal;font-variant-numeric:normal"/>
    <path d="m137.08 17.157q0-0.5976 0.031-0.90805 0.031-0.31821 0.0776-0.40358t0.13194-0.08537q0.0776 0 0.12418 0.06985 0.0466 0.07761 0.2794 3.5934 0.24059 3.5158 0.24059 3.6555 0 0.10089-0.0466 0.1397-0.0466 0.03104-0.15522 0.03104-0.18626 0-0.24059-0.26388-0.0543-0.27164-0.15522-1.6842-0.12418-1.7074-0.2406-3.0501-0.0466-0.50447-0.0466-1.0943z" style="font-feature-settings:normal;font-variant-caps:normal;font-variant-ligatures:normal;font-variant-numeric:normal"/>
    <path d="m141.34 18.174q0-0.09313 0.44238-0.54328 0.44239-0.45014 0.58985-0.45014 0.10865 0 0.10865 0.15522 0 0.13194-0.45014 0.58208-0.45015 0.44238-0.49671 0.44238-0.0466 0-0.12418-0.06209-0.0699-0.06985-0.0699-0.12418zm-0.89253-0.04657q0-0.09313 0.43462-0.54328 0.44239-0.45014 0.58985-0.45014 0.10865 0 0.10865 0.15522 0 0.1397-0.45014 0.58208-0.44238 0.44238-0.49671 0.44238-0.0388 0-0.11642-0.06209-0.0699-0.06985-0.0699-0.12418zm-1.2107 2.4991q0-1.4513 0.21731-1.4513 0.0388 0 0.0776 0.01552 0.0466 0.01552 0.10866 0.11642 0.0621 0.09313 0.0621 0.26388 0 0.07761-0.0155 0.26388-0.0155 0.17851-0.0155 0.40358 0 0.62865 0.0699 1.5289t0.14746 1.1797q0.0776 0.30268 0.26388 0.30268 0.1785 0 0.54328-0.3182 0.45014-0.39582 0.86148-1.234 0.4191-0.8382 0.58208-1.6764 0.15523-0.82268 0.25612-0.877 0.0776-0.05433 0.16298-0.05433 0.18627 0 0.18627 0.21731 0 0.10866-0.11642 0.90805-0.10865 0.79939-0.10865 1.1486 0 0.48895 0.19403 1.2185 0.20178 0.72954 0.20178 0.82268 0 0.07761-0.0621 0.12418t-0.10866 0.05433q-0.0388 0.01552-0.0621 0.01552-0.1397 0-0.2794-0.39582-0.13194-0.39582-0.24059-0.79163-0.1009-0.39582-0.17851-0.39582-0.0155 0-0.031 0.0078t-0.0388 0.03104q-0.0155 0.01552-0.031 0.03881-0.0155 0.02328-0.0466 0.06209-0.0233 0.0388-0.0466 0.06985-0.0155 0.03104-0.0543 0.09313t-0.0621 0.1009q-0.34149 0.53552-0.76059 0.89253-0.41134 0.35701-0.6985 0.35701-0.32597 0-0.48895-0.14746-0.16299-0.1397-0.26388-0.51223-0.0931-0.37253-0.17074-1.1797-0.0543-0.51223-0.0543-1.203z" style="font-feature-settings:normal;font-variant-caps:normal;font-variant-ligatures:normal;font-variant-numeric:normal"/>
   </g>
   <g style="font-feature-settings:normal;font-variant-caps:normal;font-variant-ligatures:normal;font-variant-numeric:normal" aria-label="meghalt">
    <path d="m97.117 29.625q0-0.45014 0.12418-0.45014 0.1009 0 0.21731 0.70626 0.12418 0.70626 0.17074 0.70626 0.01552 0 0.05433-0.09313 0.0388-0.10089 0.08537-0.21731 0.04657-0.12418 0.07761-0.15522 0.07761-0.1009 0.20955-0.3803 0.16298-0.33373 0.24836-0.40358 0.08537-0.07761 0.30268-0.07761 0.24059 0 0.52776 0.33373 0.18627 0.21731 0.24836 0.40358 0.06985 0.1785 0.14746 0.65193l0.12418 0.72954 0.13194-0.46567q0.19403-0.67522 0.5588-1.1642 0.36477-0.48895 0.67521-0.48895 0.19403 0 0.35702 0.22507 0.16298 0.21731 0.23283 0.5588 0.0699 0.31044 0.0699 1.4048 0 0.81492-8e-3 1.2573t-0.0388 0.64417q-0.0233 0.19403-0.0466 0.22507-0.0233 0.03881-0.0854 0.04657-0.0233 0.0078-0.0543 0.0078-0.0699 0-0.0854-0.21731t-0.0233-1.2185q0-2.4448-0.37253-2.4448-0.20179 0-0.52776 0.66746-0.27164 0.55104-0.4579 1.3427-0.18627 0.79163-0.22507 1.5988-0.0078 0.19403-0.04657 0.26388-0.03104 0.06985-0.10866 0.06985-0.09313 0-0.12418-0.16298-0.02328-0.15522-0.05433-0.8382-0.05433-1.2573-0.15522-1.7618-0.10089-0.51223-0.37253-0.92357-0.20179-0.28716-0.29492-0.28716-0.10866 0-0.2406 0.27164-0.13194 0.26388-0.43462 1.0167-0.1397 0.36477-0.1397 0.66746 0 0.1785-0.06985 0.39582-0.06209 0.20955-0.08537 1.0478-0.01552 0.78387-0.06209 0.89253-0.03104 0.09313-0.12418 0.09313-0.12418 0-0.17074-0.37253-0.03881-0.37253-0.03881-1.4901 0-0.90029-0.06209-1.6531-0.05433-0.75283-0.05433-0.96238z" style="font-feature-settings:normal;font-variant-caps:normal;font-variant-ligatures:normal;font-variant-numeric:normal"/>
    <path d="m106.96 31.86q0.0388 0 0.0388 0.06209 0 0.1397-0.20955 0.45014-0.20179 0.31044-0.43462 0.51223-0.81492 0.72178-1.6298 0.72178-0.31044 0-0.62088-0.1397-0.30269-0.14746-0.56657-0.41134-0.26387-0.26388-0.42686-0.70626-0.16298-0.44238-0.16298-0.98566 0-0.33373 0.0776-0.56656 0.15522-0.47343 0.6597-1.0012 0.51223-0.52776 0.96237-0.52776 0.12418 0 0.37254 0.02328 0.37253 0.03104 0.51999 0.07761 0.15522 0.04657 0.34925 0.19403 0.24836 0.18627 0.42686 0.48119 0.18627 0.28716 0.18627 0.48119 0 0.24836-0.19403 0.3803-0.19403 0.12418-0.75283 0.24836-0.72954 0.16298-1.428 0.20179l-0.72178 0.03881v0.31044q0 0.57432 0.53551 1.0866 0.40358 0.38806 0.8382 0.38806 0.33373 0 0.70626-0.20179 0.3803-0.20955 0.64418-0.45791 0.26387-0.24836 0.50447-0.45014 0.24059-0.20955 0.32596-0.20955zm-1.2495-1.8937q-0.2406-0.21731-0.36478-0.27164-0.11641-0.06209-0.31044-0.06209-0.38806 0-0.58208 0.07761-0.18627 0.06985-0.3803 0.29492-0.58984 0.67522-0.58984 0.90029 0 0.10089 0.18626 0.10089 0.70626 0 2.0024-0.29492 0.38806-0.09313 0.38806-0.32597 0-0.10866-0.34925-0.4191z" style="font-feature-settings:normal;font-variant-caps:normal;font-variant-ligatures:normal;font-variant-numeric:normal"/>
    <path d="m111.31 34.995q0.3803 0 0.3803-0.33373 0-0.56656-0.0466-1.0012-0.0388-0.42686-0.10089-0.72178-0.0543-0.29492-0.0621-0.42686-0.0543-0.79163-0.10866-0.79163-0.031 0-0.11641 0.1397-0.19403 0.28716-0.62865 0.64417-0.43463 0.35701-0.72179 0.46567-0.33373 0.13194-0.7373 0.13194-0.24836 0-0.39582-0.06209-0.1397-0.06209-0.37253-0.26388-0.22508-0.20179-0.31821-0.35701-0.0931-0.15522-0.14746-0.44238-0.0543-0.28716-0.0543-0.48895 0-0.14746 0.0233-0.21731 0.0543-0.20955 0.28716-0.65193 0.23283-0.44238 0.42686-0.69074 0.16298-0.21731 0.60536-0.50447 0.45015-0.29492 0.79164-0.40358 0.35701-0.11642 0.81491-0.11642 0.57433 0 0.95462 0.20179 0.3803 0.19403 0.3803 0.60537 0 0.23283-0.11642 0.57432-0.10866 0.34149-0.10866 0.59761 0 0.13194 0.17851 2.5689l0.11642 1.6066-0.27164 0.21731q-0.21731 0.1785-0.44239 0.1785-0.41134 0-1.0012-0.20955-0.58984-0.20179-1.0167-0.47343-0.42686-0.26388-0.42686-0.43462 0-0.20179 0.20955-0.49671 0.21731-0.29492 0.36478-0.29492 0.17074 0 0.17074 0.11642 0 0.06985-0.0699 0.20955t-0.0699 0.27164q0 0.21731 0.28716 0.3803 0.28716 0.16298 0.48895 0.16298 0.11642 0 0.3803 0.15522 0.27163 0.15522 0.47342 0.15522zm-2.9492-3.5235q0 0.45014 0.23283 0.82268 0.23284 0.37253 0.58209 0.37253 0.47343 0 1.0167-0.42686 0.55104-0.43462 0.89253-1.0788 0.18627-0.36477 0.31821-0.83044 0.1397-0.47343 0.1397-0.74507 0-0.15522-0.0543-0.18627-0.17851-0.09313-0.56656-0.09313-0.35701 0-0.61313 0.07761-0.67522 0.19403-1.3116 0.90805t-0.63641 1.1797z" style="font-feature-settings:normal;font-variant-caps:normal;font-variant-ligatures:normal;font-variant-numeric:normal"/>
    <path d="m113.53 32.861q0-0.62089-0.15522-2.4991-0.14746-1.886-0.14746-2.6 0-0.41134 0.0466-0.49671 0.0931-0.16298 0.17851-0.16298 0.1397 0 0.17851 0.27164 0.0466 0.27164 0.12417 1.3737 0.0233 0.27164 0.0311 0.44238 0.0155 0.16298 0.031 0.46567 0.0233 0.29492 0.0466 0.57432l0.0699 0.91581 0.1397-0.30268q0.15522-0.34925 0.76059-0.91581 0.60536-0.56656 0.81491-0.56656 0.19403 0 0.42687 0.21731 0.23283 0.21731 0.30268 0.46567 0.0621 0.20955 0.0621 1.886 0 1.2107-0.0233 1.4358-0.0233 0.21731-0.14746 0.21731-0.12417 0-0.16298-0.22507-0.031-0.22507-0.0621-1.2961-0.0466-1.4979-0.18627-1.917l-0.12417-0.38806-0.45015 0.4191q-0.35701 0.34149-0.65969 0.77611-0.29492 0.43462-0.40358 0.76835-0.0699 0.24059-0.11642 0.76835-0.0466 0.52776-0.11641 0.86924-0.0621 0.34149-0.18627 0.34149-0.0543 0-0.13194-0.06209-0.1397-0.11642-0.1397-0.77611z" style="font-feature-settings:normal;font-variant-caps:normal;font-variant-ligatures:normal;font-variant-numeric:normal"/>
    <path d="m119.77 29.663q-0.35701 0-0.76058 0.14746-0.39582 0.14746-0.70627 0.30268-0.31044 0.14746-0.45014 0.14746-0.0931 0-0.0931-0.07761 0-0.10866 0.0466-0.18627t0.17075-0.14746q0.12418-0.06985 0.23283-0.11642 0.11642-0.04657 0.36477-0.13194 0.24836-0.09313 0.42686-0.17074 0.4191-0.16298 0.70627-0.16298 0.51223 0 0.79939 0.5588 0.1397 0.27164 0.16298 0.50447 0.0233 0.22507 0.0388 1.2806 8e-3 0.58984 0.0233 0.99342 0.0155 0.39582 0.031 0.50447l0.0155 0.1009q0 0.10866-0.1009 0.23283-0.0931 0.12418-0.1397 0.12418-0.15522 0-0.24059-0.48895-0.0854-0.49671-0.0931-0.49671-0.0233 0-0.0699 0.08537-0.15523 0.25612-0.62865 0.56656-0.46567 0.30268-0.78388 0.30268-0.19402 0-0.4579-0.06985-0.25612-0.07761-0.37253-0.16298-0.0854-0.06985-0.14747-0.2794-0.0543-0.20955-0.0543-0.42686 0-0.32597 0.17074-0.5588 0.17851-0.24059 0.62865-0.48895 0.48895-0.28716 0.94686-0.28716 0.18626 0 0.31044 0.06209t0.18627 0.13194q0.0621 0.06209 0.10089 0.06209 0.031 0 0.14746 0.08537 0.11642 0.07761 0.12418 0.07761 0.0311 0 0.0311-0.17074 0-1.04-0.14747-1.4436-0.1397-0.40358-0.4191-0.40358zm0.34925 2.4059q0-0.03104-0.0233-0.06985-0.0155-0.04657-0.0776-0.1009-0.0543-0.06209-0.14746-0.10866-0.0854-0.05433-0.2406-0.08537-0.15522-0.0388-0.34925-0.0388-0.33372 0-0.58984 0.11642-0.24836 0.11642-0.37253 0.29492-0.12418 0.1785-0.18627 0.33373-0.0543 0.14746-0.0543 0.26388 0 0.19403 0.0311 0.26388 0.0388 0.06985 0.1785 0.14746 0.17075 0.08537 0.31045 0.08537 0.26387 0 0.65193-0.18627 0.39582-0.19403 0.39582-0.2794 0-0.06209 0.23283-0.29492 0.24059-0.24059 0.24059-0.34149z" style="font-feature-settings:normal;font-variant-caps:normal;font-variant-ligatures:normal;font-variant-numeric:normal"/>
    <path d="m122.04 27.327q0-0.59761 0.031-0.90805 0.031-0.31821 0.0776-0.40358t0.13194-0.08537q0.0776 0 0.12418 0.06985 0.0466 0.07761 0.2794 3.5934 0.24059 3.5158 0.24059 3.6555 0 0.1009-0.0466 0.1397-0.0466 0.03104-0.15522 0.03104-0.18627 0-0.2406-0.26388-0.0543-0.27164-0.15522-1.6842-0.12418-1.7074-0.2406-3.0501-0.0466-0.50447-0.0466-1.0943z" style="font-feature-settings:normal;font-variant-caps:normal;font-variant-ligatures:normal;font-variant-numeric:normal"/>
    <path d="m125.42 28.134q0-0.28716-0.0543-0.72954t-0.0543-0.73731q0-0.14746 8e-3 -0.19403 0.0233-0.12418 0.0854-0.19403 0.0699-0.07761 0.1397-0.07761 0.0931 0 0.13194 0.08537 0.0233 0.05433 0.0699 0.57432t0.0854 1.0167 0.0543 0.51223q8e-3 0.0078 0.0233 0.0078 0.0621 0 0.35701-0.06209 0.30268-0.06985 0.49671-0.06985 0.38806 0 0.38806 0.17074t-0.85373 0.38029l-0.38805 0.09313 0.0466 1.3116q0.0388 1.1564 0.14746 2.1654 0.10865 1.0012 0.10865 1.1331 0 0.2406-0.1785 0.2406-0.1397 0-0.23284-0.24836-0.0854-0.24836-0.0854-0.64417 0-0.28716-0.0233-0.58208-0.0233-0.30268-0.0854-0.93133-0.0543-0.63641-0.10866-1.3039-0.0233-0.35701-0.0388-0.55104-8e-3 -0.19403-0.0233-0.28716-0.0155-0.09313-0.0233-0.10866-8e-3 -0.02328-0.0311-0.02328-0.12417 0-0.5976 0.08537t-0.58985 0.08537q-0.22507 0-0.22507-0.18627 0-0.13194 0.2794-0.22507 0.28716-0.09313 0.64417-0.16298 0.35701-0.07761 0.44239-0.13194 0.0854-0.06209 0.0854-0.41134z" style="font-feature-settings:normal;font-variant-caps:normal;font-variant-ligatures:normal;font-variant-numeric:normal"/>
   </g>
   <g transform="rotate(-56.347 2.5178 -4.7011)" style="font-feature-settings:normal;font-variant-caps:normal;font-variant-ligatures:normal;font-variant-numeric:normal" aria-label="N+G+V">
    <path d="m-89.603 94.182q-0.39582 0-0.69074 0.03104t-0.37253 0.03104q-0.39582 0-0.76059-0.10866-0.35701-0.1009-0.35701-0.22507 0.0078-0.18627 0.06985-0.26388 0.06209-0.06985 0.31044-0.10866 0.25612-0.03881 0.83044-0.03881 0.99342 0 2.6543 0.05433 1.6686 0.05433 1.7851 0.10089 0.19403 0.08537 0.19403 0.31821 0 0.13194-0.08537 0.26388-0.06209 0.1009-0.74507 0.57432-0.67522 0.48119-0.75283 0.48119-0.04657 0-0.26388 0.1397-0.20955 0.1397-0.7994 0.48119-0.58208 0.34925-1.3194 0.72178-1.591 0.80716-1.591 1.0555 0 0.03104 0.01552 0.05433 0.01552 0.02328 0.12418 0.06209t0.30268 0.06985q0.20179 0.03105 0.5976 0.06209 0.40358 0.03881 0.97014 0.06985 2.2119 0.1397 2.5922 0.23283 0.34149 0.07761 0.38806 0.26388 0.0078 0.04657 0.0078 0.11642 0 0.13194-0.10089 0.18627-0.1009 0.06209-0.34925 0.06209-0.17074 0-0.54328-0.03881-0.37253-0.0388-1.1564-0.12418-0.78387-0.07761-1.6686-0.14746-1.1797-0.08537-1.5367-0.19403-0.34925-0.10089-0.34925-0.38806 0-0.50447 0.40358-0.90805t1.2728-0.83044q0.4191-0.20955 0.71402-0.37253 0.30268-0.16298 0.38806-0.21731 0.09313-0.05433 0.17851-0.09313 0.09313-0.0388 0.24059-0.07761 0.2406-0.05433 1.0012-0.55104 0.76835-0.49671 0.79163-0.50447 0.01552-0.0078 0.01552-0.02328 0-0.07761-0.82268-0.14746-0.81492-0.06985-1.5833-0.06985z" style="font-feature-settings:normal;font-variant-caps:normal;font-variant-ligatures:normal;font-variant-numeric:normal"/>
    <path d="m-88.788 103.84q0 0.10089-0.08537 0.16298-0.08537 0.0621-0.14746 0.0699-0.06209 0.0155-0.11642 0.0155-0.08537 0-0.1397-0.0621-0.05433-0.0543-0.08537-0.20179-0.03104-0.14746-0.05433-0.30268-0.01552-0.14746-0.04657-0.43462t-0.06985-0.52776l-0.05433-0.27164-2.2973-0.0621v-0.51224l2.3283-0.0621-0.08537-0.52775q-0.08537-0.59761-0.08537-0.81492 0-0.19403 0.05433-0.26388 0.05433-0.06208 0.19403-0.06208 0.17851 0 0.2406 0.11642 0.06985 0.12418 0.17074 0.67522l0.15522 0.78387h0.52776q0.50447 0 0.69074 0.0621 0.16298 0.0699 0.16298 0.30268 0 0.16298-0.11642 0.20954-0.10866 0.0543-0.60537 0.1009l-0.72178 0.0698 0.06209 0.57432q0.02328 0.24835 0.05433 0.47343 0.03104 0.22507 0.04657 0.34149 0.02328 0.11641 0.02328 0.14746z" style="font-feature-settings:normal;font-variant-caps:normal;font-variant-ligatures:normal;font-variant-numeric:normal"/>
    <path d="m-89.37 107.78q0-0.24835 0.09313-0.48895 0.09313-0.24059 0.30268-0.24059 0.13194 0 0.20179 0.11641 0.06985 0.11642 0.11642 0.26388t0.11642 0.18627q0.06209 0.0388 0.06209 0.27164 0 0.30268-0.09313 0.71402t-0.20179 0.54328q-0.18627 0.22507-0.9391 0.34149-0.75283 0.12417-1.7307 0.12417-0.51223 0-0.60537-0.1397-0.05433-0.0621-0.05433-0.1397t0.07761-0.16298q0.14746-0.15522 1.0089-0.15522h0.88477l-0.41134-0.24836q-0.72954-0.44238-1.1409-1.0012-0.40358-0.5588-0.40358-1.0788 0-0.30268 0.14746-0.56656 0.10866-0.20179 0.25612-0.30268 0.15522-0.0931 0.53552-0.19403 0.40358-0.11641 0.73731-0.11641 0.23283 0 0.61313 0.0466 0.62089 0.0776 0.9779 0.21731 0.35701 0.14746 0.9779 0.56656 0.43462 0.29493 0.74507 0.64418 0.31044 0.34925 0.42686 0.5976 0.11642 0.25612 0.21731 0.45791 0.10866 0.20955 0.18627 0.25611 0.13194 0.0776 0.13194 0.39582 0 0.34149-0.14746 0.5588-0.1397 0.22507-0.28716 0.22507-0.09313 0-0.2794-0.0931-0.1785-0.0931-0.1785-0.19403 0-0.0854 0.1785-0.1397 0.18627-0.0543 0.18627-0.17074 0-0.11642-0.04657-0.29492-0.04657-0.17851-0.19403-0.45791-0.14746-0.27164-0.36477-0.55104-0.21731-0.27164-0.61313-0.58984-0.38806-0.31821-0.88477-0.57433-0.45014-0.23283-0.67522-0.28716-0.22507-0.0543-0.75283-0.0543-0.76059 0-1.04 0.13193-0.27164 0.13194-0.27164 0.49672 0 0.77611 0.66746 1.2806 0.33373 0.24835 0.72178 0.42686 0.38806 0.17851 0.58984 0.17851 0.12418 0 0.21731-0.1009 0.10089-0.0931 0.10089-0.19403 0-0.0621-0.08537-0.17074-0.07761-0.1009-0.07761-0.33373z" style="font-feature-settings:normal;font-variant-caps:normal;font-variant-ligatures:normal;font-variant-numeric:normal"/>
    <path d="m-88.788 114.83q0 0.10089-0.08537 0.16298-0.08537 0.0621-0.14746 0.0699-0.06209 0.0155-0.11642 0.0155-0.08537 0-0.1397-0.0621-0.05433-0.0543-0.08537-0.20179-0.03104-0.14746-0.05433-0.30269-0.01552-0.14746-0.04657-0.43462t-0.06985-0.52775l-0.05433-0.27164-2.2973-0.0621v-0.51224l2.3283-0.0621-0.08537-0.52776q-0.08537-0.59761-0.08537-0.81492 0-0.19402 0.05433-0.26387 0.05433-0.0621 0.19403-0.0621 0.17851 0 0.2406 0.11641 0.06985 0.12418 0.17074 0.67522l0.15522 0.78387h0.52776q0.50447 0 0.69074 0.0621 0.16298 0.0699 0.16298 0.30268 0 0.16299-0.11642 0.20955-0.10866 0.0543-0.60537 0.1009l-0.72178 0.0699 0.06209 0.57432q0.02328 0.24836 0.05433 0.47343 0.03104 0.22507 0.04657 0.34149 0.02328 0.11641 0.02328 0.14746z" style="font-feature-settings:normal;font-variant-caps:normal;font-variant-ligatures:normal;font-variant-numeric:normal"/>
    <path d="m-86.444 116.29q0.14746 0 0.26388 0.10865 0.11642 0.10866 0.11642 0.20955 0 0.12418-0.25612 0.25612-0.24836 0.13194-0.24836 0.19403 0 0.0776-0.15522 0.0776-0.09313 0-0.34149 0.10089-0.24059 0.1009-0.81492 0.32597-0.56656 0.23283-1.1952 0.45015-1.9636 0.67521-1.9636 0.81491 0 0.0621 0.88477 0.4191 0.89253 0.36477 1.4513 0.52776 0.81492 0.23283 1.6764 0.5976 0.86148 0.36478 0.86148 0.52 0 0.0466-0.02328 0.10865-0.01552 0.0621-0.08537 0.13194-0.06985 0.0699-0.1785 0.0699-0.16298 0-0.55104-0.1397-0.38806-0.13194-1.0633-0.38805-0.66746-0.25612-1.1642-0.4191-0.58208-0.20179-1.7385-0.72179-0.62089-0.28716-0.83044-0.43462-0.20179-0.1397-0.20179-0.27164 0-0.25611 0.23283-0.41134 0.24059-0.14746 1.1486-0.48119l2.1809-0.81491q1.0633-0.41134 1.1564-0.41134 0.06209 0 0.35701-0.20955t0.48119-0.20955z" style="font-feature-settings:normal;font-variant-caps:normal;font-variant-ligatures:normal;font-variant-numeric:normal"/>
   </g>
   <g transform="rotate(-56.347 .12749 -.23811)" style="font-feature-settings:normal;font-variant-caps:normal;font-variant-ligatures:normal;font-variant-numeric:normal" aria-label="N+G">
    <path d="m-61.028 137.1q-0.39582 0-0.69074 0.031t-0.37253 0.031q-0.39582 0-0.76059-0.10865-0.35701-0.1009-0.35701-0.22507 0.0078-0.18627 0.06985-0.26388 0.06209-0.0699 0.31044-0.10866 0.25612-0.0388 0.83044-0.0388 0.99342 0 2.6543 0.0543 1.6686 0.0543 1.7851 0.1009 0.19403 0.0854 0.19403 0.3182 0 0.13194-0.08537 0.26388-0.06209 0.1009-0.74507 0.57432-0.67522 0.48119-0.75283 0.48119-0.04657 0-0.26388 0.1397-0.20955 0.1397-0.79939 0.48119-0.58208 0.34925-1.3194 0.72179-1.591 0.80715-1.591 1.0555 0 0.031 0.01552 0.0543t0.12418 0.0621q0.10866 0.0388 0.30268 0.0699 0.20179 0.031 0.5976 0.0621 0.40358 0.0388 0.97014 0.0699 2.2119 0.1397 2.5922 0.23284 0.34149 0.0776 0.38806 0.26387 0.0078 0.0466 0.0078 0.11642 0 0.13194-0.1009 0.18627-0.10089 0.0621-0.34925 0.0621-0.17074 0-0.54328-0.0388-0.37253-0.0388-1.1564-0.12418-0.78387-0.0776-1.6686-0.14746-1.1797-0.0854-1.5367-0.19403-0.34925-0.10089-0.34925-0.38805 0-0.50447 0.40358-0.90805t1.2728-0.83044q0.4191-0.20955 0.71402-0.37253 0.30268-0.16299 0.38806-0.21732 0.09313-0.0543 0.17851-0.0931 0.09313-0.0388 0.24059-0.0776 0.24059-0.0543 1.0012-0.55104 0.76835-0.49671 0.79163-0.50447 0.01552-8e-3 0.01552-0.0233 0-0.0776-0.82268-0.14747-0.81492-0.0699-1.5833-0.0699z" style="font-feature-settings:normal;font-variant-caps:normal;font-variant-ligatures:normal;font-variant-numeric:normal"/>
    <path d="m-60.213 146.77q0 0.10089-0.08537 0.16298-0.08537 0.0621-0.14746 0.0699-0.06209 0.0155-0.11642 0.0155-0.08537 0-0.1397-0.0621-0.05433-0.0543-0.08537-0.20178-0.03104-0.14747-0.05433-0.30269-0.01552-0.14746-0.04657-0.43462-0.03104-0.28716-0.06985-0.52776l-0.05433-0.27163-2.2973-0.0621v-0.51224l2.3283-0.0621-0.08537-0.52775q-0.08537-0.59761-0.08537-0.81492 0-0.19403 0.05433-0.26388 0.05433-0.0621 0.19403-0.0621 0.17851 0 0.2406 0.11641 0.06985 0.12418 0.17074 0.67522l0.15522 0.78387h0.52776q0.50447 0 0.69074 0.0621 0.16298 0.0699 0.16298 0.30268 0 0.16299-0.11642 0.20955-0.10866 0.0543-0.60537 0.1009l-0.72178 0.0699 0.06209 0.57432q0.02328 0.24836 0.05433 0.47343 0.03104 0.22507 0.04657 0.34149 0.02328 0.11641 0.02328 0.14746z" style="font-feature-settings:normal;font-variant-caps:normal;font-variant-ligatures:normal;font-variant-numeric:normal"/>
    <path d="m-60.795 150.7q0-0.24835 0.09313-0.48895 0.09313-0.24059 0.30268-0.24059 0.13194 0 0.20179 0.11641 0.06985 0.11642 0.11642 0.26388t0.11642 0.18627q0.06209 0.0388 0.06209 0.27164 0 0.30268-0.09313 0.71402t-0.20179 0.54328q-0.18627 0.22507-0.93909 0.34149-0.75283 0.12417-1.7307 0.12417-0.51223 0-0.60537-0.1397-0.05433-0.0621-0.05433-0.1397t0.07761-0.16298q0.14746-0.15522 1.0089-0.15522h0.88477l-0.41134-0.24836q-0.72954-0.44238-1.1409-1.0012-0.40358-0.5588-0.40358-1.0788 0-0.30269 0.14746-0.56657 0.10866-0.20178 0.25612-0.30268 0.15522-0.0931 0.53552-0.19403 0.40358-0.11641 0.73731-0.11641 0.23283 0 0.61313 0.0466 0.62089 0.0776 0.9779 0.21731 0.35701 0.14747 0.9779 0.56657 0.43462 0.29492 0.74507 0.64417 0.31044 0.34925 0.42686 0.5976 0.11642 0.25612 0.21731 0.45791 0.10866 0.20955 0.18627 0.25612 0.13194 0.0776 0.13194 0.39581 0 0.34149-0.14746 0.5588-0.1397 0.22507-0.28716 0.22507-0.09313 0-0.2794-0.0931-0.17851-0.0931-0.17851-0.19403 0-0.0854 0.17851-0.1397 0.18627-0.0543 0.18627-0.17074 0-0.11642-0.04657-0.29492-0.04657-0.17851-0.19403-0.45791-0.14746-0.27164-0.36477-0.55104-0.21731-0.27164-0.61313-0.58984-0.38806-0.31821-0.88477-0.57432-0.45014-0.23284-0.67522-0.28717-0.22507-0.0543-0.75283-0.0543-0.76059 0-1.04 0.13194-0.27164 0.13193-0.27164 0.49671 0 0.77611 0.66746 1.2806 0.33373 0.24836 0.72178 0.42686 0.38806 0.17851 0.58984 0.17851 0.12418 0 0.21731-0.1009 0.10089-0.0931 0.10089-0.19403 0-0.0621-0.08537-0.17074-0.07761-0.10089-0.07761-0.33373z" style="font-feature-settings:normal;font-variant-caps:normal;font-variant-ligatures:normal;font-variant-numeric:normal"/>
   </g>
  </g>
  <g transform="rotate(-56.347 -23.818 44.47)" style="font-feature-settings:normal;font-variant-caps:normal;font-variant-ligatures:normal;font-variant-numeric:normal" aria-label="N">
   <path d="m-45.091 161.04q-0.39582 0-0.69074 0.031t-0.37253 0.031q-0.39582 0-0.76059-0.10865-0.35701-0.1009-0.35701-0.22508 0.0078-0.18626 0.06985-0.26387 0.06209-0.0699 0.31044-0.10866 0.25612-0.0388 0.83044-0.0388 0.99342 0 2.6543 0.0543 1.6686 0.0543 1.7851 0.1009 0.19403 0.0854 0.19403 0.3182 0 0.13194-0.08537 0.26388-0.06209 0.1009-0.74507 0.57432-0.67522 0.48119-0.75283 0.48119-0.04657 0-0.26388 0.1397-0.20955 0.1397-0.79939 0.48119-0.58208 0.34925-1.3194 0.72178-1.591 0.80716-1.591 1.0555 0 0.031 0.01552 0.0543t0.12418 0.0621q0.10866 0.0388 0.30268 0.0699 0.20179 0.0311 0.5976 0.0621 0.40358 0.0388 0.97014 0.0699 2.2119 0.1397 2.5922 0.23283 0.34149 0.0776 0.38806 0.26388 0.0078 0.0466 0.0078 0.11642 0 0.13194-0.1009 0.18627-0.10089 0.0621-0.34925 0.0621-0.17074 0-0.54328-0.0388-0.37253-0.0388-1.1564-0.12418-0.78387-0.0776-1.6686-0.14746-1.1797-0.0854-1.5367-0.19403-0.34925-0.10089-0.34925-0.38805 0-0.50448 0.40358-0.90805 0.40358-0.40358 1.2728-0.83044 0.4191-0.20955 0.71402-0.37254 0.30268-0.16298 0.38806-0.21731 0.09313-0.0543 0.1785-0.0931 0.09313-0.0388 0.2406-0.0776 0.24059-0.0543 1.0012-0.55104 0.76835-0.49671 0.79163-0.50447 0.01552-8e-3 0.01552-0.0233 0-0.0776-0.82268-0.14746-0.81492-0.0699-1.5833-0.0699z" stroke-width=".26458" style="font-feature-settings:normal;font-variant-caps:normal;font-variant-ligatures:normal;font-variant-numeric:normal"/>
  </g>
  <g transform="rotate(-56.347 24.06 -44.923)" stroke-width=".26458" style="font-feature-settings:normal;font-variant-caps:normal;font-variant-ligatures:normal;font-variant-numeric:normal" aria-label="N+G+Vúj">
   <path d="m-76.399 114.02q-0.39582 0-0.69074 0.031t-0.37253 0.031q-0.39582 0-0.76059-0.10865-0.35701-0.1009-0.35701-0.22507 0.0078-0.18627 0.06985-0.26388 0.06209-0.0699 0.31044-0.10866 0.25612-0.0388 0.83044-0.0388 0.99342 0 2.6543 0.0543 1.6686 0.0543 1.7851 0.10089 0.19403 0.0854 0.19403 0.31821 0 0.13193-0.08537 0.26387-0.06209 0.1009-0.74507 0.57433-0.67522 0.48118-0.75283 0.48118-0.04657 0-0.26388 0.1397-0.20955 0.1397-0.7994 0.48119-0.58208 0.34925-1.3194 0.72179-1.591 0.80715-1.591 1.0555 0 0.031 0.01552 0.0543t0.12418 0.0621q0.10866 0.0388 0.30268 0.0698 0.20179 0.0311 0.5976 0.0621 0.40358 0.0388 0.97014 0.0698 2.2119 0.1397 2.5922 0.23284 0.34149 0.0776 0.38806 0.26387 0.0078 0.0466 0.0078 0.11642 0 0.13194-0.10089 0.18627-0.1009 0.0621-0.34925 0.0621-0.17074 0-0.54328-0.0388t-1.1564-0.12418q-0.78387-0.0776-1.6686-0.14746-1.1797-0.0854-1.5367-0.19403-0.34925-0.10089-0.34925-0.38805 0-0.50447 0.40358-0.90805t1.2728-0.83044q0.4191-0.20955 0.71402-0.37253 0.30268-0.16299 0.38806-0.21731 0.09313-0.0543 0.17851-0.0931 0.09313-0.0388 0.24059-0.0776 0.2406-0.0543 1.0012-0.55104 0.76835-0.49671 0.79163-0.50447 0.01552-8e-3 0.01552-0.0233 0-0.0776-0.82268-0.14746-0.81492-0.0699-1.5833-0.0699z" style="font-feature-settings:normal;font-variant-caps:normal;font-variant-ligatures:normal;font-variant-numeric:normal"/>
   <path d="m-75.584 123.68q0 0.10089-0.08537 0.16298-0.08537 0.0621-0.14746 0.0699-0.06209 0.0155-0.11642 0.0155-0.08537 0-0.1397-0.0621-0.05433-0.0543-0.08537-0.20179-0.03104-0.14746-0.05433-0.30269-0.01552-0.14746-0.04657-0.43462-0.03104-0.28716-0.06985-0.52775l-0.05433-0.27164-2.2973-0.0621v-0.51223l2.3283-0.0621-0.08537-0.52776q-0.08537-0.5976-0.08537-0.81492 0-0.19402 0.05433-0.26387 0.05433-0.0621 0.19403-0.0621 0.1785 0 0.24059 0.11641 0.06985 0.12418 0.17074 0.67522l0.15522 0.78387h0.52776q0.50447 0 0.69074 0.0621 0.16298 0.0699 0.16298 0.30269 0 0.16298-0.11642 0.20955-0.10866 0.0543-0.60537 0.10089l-0.72178 0.0699 0.06209 0.57432q0.02328 0.24836 0.05433 0.47343t0.04657 0.34149q0.02328 0.11642 0.02328 0.14746z" style="font-feature-settings:normal;font-variant-caps:normal;font-variant-ligatures:normal;font-variant-numeric:normal"/>
   <path d="m-76.166 127.61q0-0.24835 0.09313-0.48895 0.09313-0.24059 0.30268-0.24059 0.13194 0 0.20179 0.11642 0.06985 0.11641 0.11642 0.26387t0.11642 0.18627q0.06209 0.0388 0.06209 0.27164 0 0.30268-0.09313 0.71402t-0.20179 0.54328q-0.18627 0.22507-0.9391 0.34149-0.75283 0.12418-1.7307 0.12418-0.51223 0-0.60537-0.1397-0.05433-0.0621-0.05433-0.1397t0.07761-0.16299q0.14746-0.15522 1.0089-0.15522h0.88477l-0.41134-0.24836q-0.72954-0.44238-1.1409-1.0012-0.40358-0.5588-0.40358-1.0788 0-0.30269 0.14746-0.56656 0.10866-0.20179 0.25612-0.30269 0.15522-0.0931 0.53552-0.19403 0.40358-0.11641 0.7373-0.11641 0.23283 0 0.61313 0.0466 0.62089 0.0776 0.9779 0.21732 0.35701 0.14746 0.9779 0.56656 0.43462 0.29492 0.74507 0.64417 0.31044 0.34925 0.42686 0.5976 0.11642 0.25612 0.21731 0.45791 0.10866 0.20955 0.18627 0.25612 0.13194 0.0776 0.13194 0.39581 0 0.34149-0.14746 0.5588-0.1397 0.22508-0.28716 0.22508-0.09313 0-0.2794-0.0931-0.1785-0.0931-0.1785-0.19403 0-0.0854 0.1785-0.1397 0.18627-0.0543 0.18627-0.17074 0-0.11642-0.04657-0.29492-0.04657-0.17851-0.19403-0.45791-0.14746-0.27164-0.36477-0.55104-0.21731-0.27164-0.61313-0.58984-0.38806-0.31821-0.88477-0.57432-0.45014-0.23284-0.67522-0.28716-0.22507-0.0543-0.75283-0.0543-0.76059 0-1.04 0.13194-0.27164 0.13194-0.27164 0.49671 0 0.77611 0.66746 1.2806 0.33373 0.24836 0.72178 0.42686 0.38806 0.17851 0.58984 0.17851 0.12418 0 0.21731-0.1009 0.10089-0.0931 0.10089-0.19402 0-0.0621-0.08537-0.17075-0.07761-0.10089-0.07761-0.33373z" style="font-feature-settings:normal;font-variant-caps:normal;font-variant-ligatures:normal;font-variant-numeric:normal"/>
   <path d="m-75.584 134.66q0 0.1009-0.08537 0.16299-0.08537 0.0621-0.14746 0.0699-0.06209 0.0155-0.11642 0.0155-0.08537 0-0.1397-0.0621-0.05433-0.0543-0.08537-0.20179-0.03104-0.14746-0.05433-0.30268-0.01552-0.14746-0.04657-0.43463-0.03104-0.28716-0.06985-0.52775l-0.05433-0.27164-2.2973-0.0621v-0.51223l2.3283-0.0621-0.08537-0.52776q-0.08537-0.5976-0.08537-0.81491 0-0.19403 0.05433-0.26388 0.05433-0.0621 0.19403-0.0621 0.1785 0 0.24059 0.11642 0.06985 0.12417 0.17074 0.67521l0.15522 0.78388h0.52776q0.50447 0 0.69074 0.0621 0.16298 0.0698 0.16298 0.30269 0 0.16298-0.11642 0.20955-0.10866 0.0543-0.60537 0.10089l-0.72178 0.0699 0.06209 0.57432q0.02328 0.24836 0.05433 0.47343t0.04657 0.34149q0.02328 0.11642 0.02328 0.14746z" style="font-feature-settings:normal;font-variant-caps:normal;font-variant-ligatures:normal;font-variant-numeric:normal"/>
   <path d="m-73.241 136.13q0.14746 0 0.26388 0.10866 0.11642 0.10865 0.11642 0.20955 0 0.12418-0.25612 0.25611-0.24836 0.13194-0.24836 0.19403 0 0.0776-0.15522 0.0776-0.09313 0-0.34149 0.1009-0.24059 0.10089-0.81492 0.32596-0.56656 0.23284-1.1952 0.45015-1.9636 0.67522-1.9636 0.81492 0 0.0621 0.88477 0.4191 0.89253 0.36477 1.4513 0.52775 0.81492 0.23283 1.6764 0.59761 0.86148 0.36477 0.86148 0.51999 0 0.0466-0.02328 0.10866-0.01552 0.0621-0.08537 0.13194-0.06985 0.0699-0.1785 0.0699-0.16298 0-0.55104-0.1397-0.38806-0.13194-1.0633-0.38806-0.66746-0.25612-1.1642-0.4191-0.58208-0.20179-1.7385-0.72178-0.62089-0.28716-0.83044-0.43463-0.20179-0.1397-0.20179-0.27163 0-0.25612 0.23283-0.41134 0.24059-0.14746 1.1486-0.48119l2.1809-0.81492q1.0633-0.41134 1.1564-0.41134 0.06209 0 0.35701-0.20955t0.48119-0.20955z" style="font-feature-settings:normal;font-variant-caps:normal;font-variant-ligatures:normal;font-variant-numeric:normal"/>
   <path d="m-73.892 143.56q0.09313 0 0.54328 0.43462 0.45014 0.44238 0.45014 0.58984 0 0.10866-0.15522 0.10866-0.1397 0-0.58208-0.45015-0.44238-0.44238-0.44238-0.49671 0-0.0388 0.06209-0.11641 0.06985-0.0699 0.12418-0.0699zm-2.2119-1.5522q1.4513 0 1.4513 0.21732 0 0.0388-0.01552 0.0776-0.01552 0.0466-0.11642 0.10865-0.09313 0.0621-0.26388 0.0621-0.07761 0-0.26388-0.0155-0.1785-0.0155-0.40358-0.0155-0.62865 0-1.5289 0.0699t-1.1797 0.14746q-0.30268 0.0776-0.30268 0.26388 0 0.1785 0.31821 0.54327 0.39582 0.45015 1.234 0.86149 0.8382 0.4191 1.6764 0.58208 0.82268 0.15522 0.877 0.25612 0.05433 0.0776 0.05433 0.16298 0 0.18627-0.21731 0.18627-0.10866 0-0.90805-0.11642-0.7994-0.10866-1.1486-0.10866-0.48895 0-1.2185 0.19403-0.72954 0.20179-0.82268 0.20179-0.07761 0-0.12418-0.0621t-0.05433-0.10865q-0.01552-0.0388-0.01552-0.0621 0-0.1397 0.39582-0.2794 0.39582-0.13194 0.79163-0.2406 0.39582-0.10089 0.39582-0.1785 0-0.0155-0.0078-0.031t-0.03104-0.0388q-0.01552-0.0155-0.03881-0.0311-0.02328-0.0155-0.06209-0.0466-0.03881-0.0233-0.06985-0.0466-0.03104-0.0155-0.09313-0.0543t-0.1009-0.0621q-0.53552-0.34149-0.89253-0.76059-0.35701-0.41133-0.35701-0.6985 0-0.32596 0.14746-0.48895 0.1397-0.16298 0.51223-0.26387 0.37253-0.0931 1.1797-0.17075 0.51223-0.0543 1.203-0.0543z" style="font-feature-settings:normal;font-variant-caps:normal;font-variant-ligatures:normal;font-variant-numeric:normal"/>
   <path d="m-76.826 148.4q1.2961-0.31045 2.1809-0.31045 0.12418 0 0.15522 0.031t0.03104 0.11641v0.0155q0 0.13194-0.11642 0.17074-0.10866 0.0466-0.75283 0.17075-1.8083 0.34925-2.9725 0.34925-0.18627 0-0.60537-0.0155-0.53552-0.0233-0.82268-0.0543-0.29492-0.031-0.51999-0.0931t-0.31044-0.20179q-0.08537-0.13194-0.12418-0.31044-0.0388-0.17851-0.0388-0.49671 0-0.3803 0.07761-0.62865 0.07761-0.24836 0.19403-0.24836 0.08537 0 0.13194-0.11641 0.03104-0.11642 0.47343-0.11642 0.31044 0 0.50447 0.0776 0.18627 0.0776 0.18627 0.17074 0 0.17851-0.49671 0.18627-0.34925 0-0.44238 0.0621-0.05433 0.0388-0.1009 0.30268-0.04657 0.27164-0.04657 0.52776 0 0.23283 0.04657 0.29492 0.14746 0.20955 1.6919 0.20955 1.3039 0 1.6764-0.0931zm3.8961-0.48895q0.1009-0.0931 0.21731-0.0931 0.11642 0 0.20179 0.0931 0.08537 0.10089 0.08537 0.17074 0 0.031-0.02328 0.0776t-0.10089 0.0931q-0.07761 0.0543-0.18627 0.0543-0.11642 0-0.20955-0.0466-0.08537-0.0388-0.08537-0.10866 0.0078-0.1397 0.10089-0.24059z" style="font-feature-settings:normal;font-variant-caps:normal;font-variant-ligatures:normal;font-variant-numeric:normal"/>
  </g>
  <g transform="rotate(-90)" stroke-width=".26458" style="font-feature-settings:normal;font-variant-caps:normal;font-variant-ligatures:normal;font-variant-numeric:normal" aria-label="növények száma">
   <path d="m-91.266 8.0047q0-0.36689 0.23283-0.36689 0.15522 0.00706 0.20461 0.1905t0.14111 1.0301q0.0071 0.0635 0.0071 0.098778 0.0071 0.035278 0.01411 0.091722 0.0071 0.056444 0.01411 0.10583l0.09878 0.80433 0.07761-0.23283q0.14817-0.45861 0.254-0.67028 0.11289-0.21167 0.40922-0.59972 0.5715-0.75494 0.96661-0.75494 0.26106 0 0.45156 0.28928 0.22578 0.3175 0.27517 0.635 0.05645 0.3175 0.07761 1.4534 0.01411 0.71967 0.01411 0.87489 0 0.46567-0.0635 0.635-0.0635 0.16228-0.26106 0.16228-0.13406 0-0.17639-0.07056-0.04233-0.07761-0.04233-0.30339 0-0.10583 0.01411-0.43744t0.01411-0.55033q0-0.59972-0.04939-1.1218t-0.11289-0.65617q-0.02822-0.056444-0.07055-0.10583-0.04233-0.056445-0.07761-0.084667-0.02822-0.028222-0.04233-0.028222-0.11289 0-0.46567 0.47272-0.34572 0.47272-0.58561 0.96661-0.24694 0.52211-0.33161 0.762-0.07761 0.23989-0.127 0.64911-0.07761 0.65617-0.127 0.72672-0.03528 0.04233-0.07761 0.04233-0.10583-0.01411-0.22578-0.14817-0.0635-0.07056-0.09878-0.17639-0.02822-0.11289-0.04939-0.33867-0.02117-0.23283-0.03528-0.49389-0.01411-0.26811-0.05644-0.76906-0.04233-0.508-0.10583-1.0513-0.08467-0.84667-0.08467-1.0301z" style="font-feature-settings:normal;font-variant-caps:normal;font-variant-ligatures:normal;font-variant-numeric:normal"/>
   <path d="m-83.358 6.3749q-0.09172 0.33161-0.23283 0.49389-0.14111 0.15522-0.29633 0.15522-0.14817 0-0.26106-0.14111-0.10583-0.14111-0.10583-0.35983 0-0.18344 0.09172-0.29633 0.09878-0.11289 0.254-0.11289 0.18344 0 0.55033 0.26106zm-1.1218-0.042333q-0.09878 0.33161-0.23989 0.49389t-0.29633 0.16228q-0.14817 0-0.254-0.14111t-0.10583-0.35983q0-0.18344 0.09172-0.29633 0.09878-0.11289 0.254-0.11289 0.07055 0 0.16228 0.035278 0.09172 0.035278 0.14817 0.070556 0.05644 0.028222 0.14817 0.091722zm-1.8133 2.1802q0.59267-0.508 1.0089-0.67028 0.42333-0.16228 1.0583-0.16228 0.98072 0 1.2277 0.55033 0.14111 0.31044 0.14111 0.76906 0 0.72672-0.35278 1.4817-0.34572 0.75494-0.88194 1.0583-0.52211 0.28928-1.1077 0.28928-0.86078 0-1.3123-0.508-0.3175-0.35278-0.41628-0.59972-0.09172-0.254-0.09172-0.6985 0-0.88194 0.72672-1.5099zm1.2771 2.7305q0.57856 0 1.0654-0.73378 0.49389-0.74083 0.49389-1.6792 0-0.098778-0.02117-0.15522-0.01411-0.056444-0.03528-0.077611-0.02117-0.028222-0.07761-0.070556-0.254-0.18344-0.53622-0.18344-0.04233 0-0.11994 0.014111-0.07055 0.00706-0.21872 0.028222-0.14111 0.014111-0.31044 0.028222-0.23989 0.028222-0.381 0.098778-0.14111 0.0635-0.36689 0.24694-0.42333 0.35983-0.60678 0.66322-0.17639 0.29633-0.17639 0.64911 0 0.51506 0.35983 0.84667 0.35983 0.32456 0.93133 0.32456z" style="font-feature-settings:normal;font-variant-caps:normal;font-variant-ligatures:normal;font-variant-numeric:normal"/>
   <path d="m-78.968 8.3505q0-0.19756 0.11994-0.38806 0.127-0.1905 0.31044-0.1905 0.04939 0 0.09878 0.021167 0.04939 0.014111 0.09878 0.077611t0.04939 0.17639q0 0.1905-0.18344 0.71967-0.17639 0.52211-0.71967 1.905-0.20461 0.52211-0.52211 0.91722-0.3175 0.38806-0.52917 0.38806-0.11289 0-0.21167-0.0635-0.09172-0.0635-0.18344-0.20461t-0.16228-0.28928-0.15522-0.39511q-0.08467-0.254-0.14817-0.45156-0.05645-0.19756-0.15522-0.52211-0.09878-0.33161-0.16933-0.54328-0.42333-1.3406-0.42333-1.5169 0-0.15522 0.14817-0.15522 0.04233 0 0.08467 0.00706h0.0071q0.23283 0.056444 0.51506 0.74789 0.28222 0.69144 0.55033 1.6157 0.26811 0.91722 0.33867 1.0795 0.13406-0.18344 0.34572-0.58561 0.21167-0.40922 0.33161-0.76906 0.11289-0.32456 0.26106-0.70556 0.15522-0.381 0.22578-0.57856 0.07761-0.20461 0.07761-0.29633z" style="font-feature-settings:normal;font-variant-caps:normal;font-variant-ligatures:normal;font-variant-numeric:normal"/>
   <path d="m-75.189 6.2973q0.07055 0 0.17639 0.077611 0.11289 0.077611 0.11289 0.18344 0 0.13406-0.45861 0.56444-0.45861 0.42333-0.64206 0.42333-0.02117 0-0.05644-0.00706-0.03528-0.00706-0.09878-0.0635-0.05645-0.056444-0.05645-0.14817 0-0.14817 0.27517-0.40922 0.03528-0.028222 0.11289-0.098778l0.0635-0.0635q0.02822-0.028222 0.10583-0.10583 0.08467-0.077611 0.14111-0.127t0.11994-0.10583q0.07056-0.056445 0.11994-0.084667 0.05644-0.035278 0.08467-0.035278zm0.64206 2.5823q0-0.056444-0.31044-0.28928-0.22578-0.16933-0.32456-0.21167-0.09172-0.042333-0.26811-0.042333-0.35278 0-0.52211 0.056445-0.16228 0.049389-0.34572 0.22578-0.54328 0.52917-0.55033 0.68439 0.02822 0.00706 0.11994 0.00706 0.68439 0 1.8979-0.23989 0.30339-0.056444 0.30339-0.1905zm0.91017 1.1148q0.127 0 0.127 0.14817 0 0.16228-0.20461 0.46567-0.20461 0.29633-0.40922 0.47978-0.79022 0.67733-1.6298 0.67733-0.69144 0-1.2488-0.54328-0.55739-0.54328-0.55739-1.4958 0-0.26811 0.07761-0.51506 0.14817-0.43744 0.66322-0.91017 0.51506-0.47978 0.98778-0.47978 0.127 0 0.37394 0.021167 0.39511 0.028222 0.55033 0.070556 0.16228 0.042333 0.35278 0.18344 0.22578 0.16228 0.40922 0.43039 0.18344 0.26106 0.18344 0.46567 0 0.26811-0.21872 0.39511t-0.74083 0.23283q-0.68439 0.13406-1.4111 0.17639l-0.61383 0.028222v0.18345q0 0.26106 0.11289 0.45861 0.11994 0.19756 0.381 0.41628 0.37394 0.31044 0.762 0.31044 0.31044 0 0.65617-0.18344 0.34572-0.1905 0.58561-0.41628 0.24694-0.22578 0.47272-0.40922 0.23283-0.1905 0.33867-0.1905z" style="font-feature-settings:normal;font-variant-caps:normal;font-variant-ligatures:normal;font-variant-numeric:normal"/>
   <path d="m-72.29 8.0047q0-0.36689 0.23283-0.36689 0.15522 0.00706 0.20461 0.1905t0.14111 1.0301q0.0071 0.0635 0.0071 0.098778 0.0071 0.035278 0.01411 0.091722 0.0071 0.056444 0.01411 0.10583l0.09878 0.80433 0.07761-0.23283q0.14817-0.45861 0.254-0.67028 0.11289-0.21167 0.40922-0.59972 0.5715-0.75494 0.96661-0.75494 0.26106 0 0.45156 0.28928 0.22578 0.3175 0.27517 0.635 0.05644 0.3175 0.07761 1.4534 0.01411 0.71967 0.01411 0.87489 0 0.46567-0.0635 0.635-0.0635 0.16228-0.26106 0.16228-0.13406 0-0.17639-0.07056-0.04233-0.07761-0.04233-0.30339 0-0.10583 0.01411-0.43744t0.01411-0.55033q0-0.59972-0.04939-1.1218t-0.11289-0.65617q-0.02822-0.056444-0.07055-0.10583-0.04233-0.056445-0.07761-0.084667-0.02822-0.028222-0.04233-0.028222-0.11289 0-0.46567 0.47272-0.34572 0.47272-0.58561 0.96661-0.24694 0.52211-0.33161 0.762-0.07761 0.23989-0.127 0.64911-0.07761 0.65617-0.127 0.72672-0.03528 0.04233-0.07761 0.04233-0.10583-0.01411-0.22578-0.14817-0.0635-0.07056-0.09878-0.17639-0.02822-0.11289-0.04939-0.33867-0.02117-0.23283-0.03528-0.49389-0.01411-0.26811-0.05644-0.76906-0.04233-0.508-0.10583-1.0513-0.08467-0.84667-0.08467-1.0301z" style="font-feature-settings:normal;font-variant-caps:normal;font-variant-ligatures:normal;font-variant-numeric:normal"/>
   <path d="m-67.571 8.1388q0.16228 0 0.20461 0.127 0.04939 0.127 0.04939 0.37394 0 0.31044-0.0071 0.635t-0.0071 0.54328q0 0.92428 0.16228 0.92428 0.09878 0 0.41628-0.30339t0.45861-0.59267q0.14817-0.29633 0.24694-0.68439 0.10583-0.38806 0.14817-0.635 0.04939-0.24694 0.14817-0.42333 0.10583-0.18344 0.27517-0.18344 0.11994 0 0.20461 0.084667 0.09172 0.084667 0.09172 0.21872 0 0.11994-0.16228 0.71967-0.15522 0.59267-0.15522 1.2488 0 0.21872 0.02117 0.40217l0.02117 0.07761 0.127-0.05644q0.16933-0.08467 0.31044-0.08467 0.127 0 0.19756 0.0635 0.07761 0.05644 0.07761 0.14817 0 0.21872-0.34572 0.39511l-0.23989 0.11289 0.03528 0.70556q-0.04233 1.2841-0.10583 1.3688-0.08467 0.127-0.26106 0.127-0.16933 0-0.52917-0.13406-0.20461-0.08467-0.32456-0.18344-0.11289-0.09878-0.21872-0.29633-0.22578-0.42333-0.22578-0.762 0-0.11289 0.02822-0.18344 0.03528-0.0635 0.127-0.18344 0.09878-0.11289 0.16933-0.21872 0.08467-0.127 0.254-0.20461 0.16933-0.08467 0.18344-0.09878 0.03528-0.02822 0.18344-0.11994 0-0.21872-0.07761-0.38806-0.02117 0.02117-0.16228 0.16228-0.14111 0.13406-0.254 0.23283-0.11289 0.09172-0.31044 0.18344-0.1905 0.09172-0.37394 0.09172-0.36689 0-0.57856-0.381-0.09878-0.17639-0.127-0.38806t-0.02822-0.79728q0-0.889 0.05644-1.2629 0.0635-0.381 0.29633-0.381zm1.6863 4.6778q0.03528-0.07761 0.03528-0.24694 0-0.13406-0.02822-0.3175-0.02117-0.17639-0.04939-0.30339-0.02822-0.11994-0.02822-0.127l-0.01411-0.16228-0.0635 0.08467q-0.27517 0.381-0.27517 0.62794 0 0.09172 0.16933 0.24694 0.16933 0.16228 0.254 0.19756z" style="font-feature-settings:normal;font-variant-caps:normal;font-variant-ligatures:normal;font-variant-numeric:normal"/>
   <path d="m-60.987 8.8796q0-0.056444-0.31044-0.28928-0.22578-0.16933-0.32456-0.21167-0.09172-0.042333-0.26811-0.042333-0.35278 0-0.52211 0.056445-0.16228 0.049389-0.34572 0.22578-0.54328 0.52917-0.55033 0.68439 0.02822 0.00706 0.11994 0.00706 0.68439 0 1.8979-0.23989 0.30339-0.056444 0.30339-0.1905zm0.91017 1.1148q0.127 0 0.127 0.14817 0 0.16228-0.20461 0.46567-0.20461 0.29633-0.40922 0.47978-0.79022 0.67733-1.6298 0.67733-0.69144 0-1.2488-0.54328-0.55739-0.54328-0.55739-1.4958 0-0.26811 0.07761-0.51506 0.14817-0.43744 0.66322-0.91017 0.51506-0.47978 0.98778-0.47978 0.127 0 0.37394 0.021167 0.381 0.028222 0.53622 0.077611 0.16228 0.042333 0.36689 0.17639 0.22578 0.14817 0.40922 0.42333 0.18344 0.26811 0.18344 0.47272 0 0.26811-0.21872 0.39511t-0.74083 0.23283q-0.68439 0.13406-1.4111 0.17639l-0.61383 0.028222v0.18344q0 0.26106 0.11289 0.45861 0.11994 0.19756 0.381 0.41628 0.37394 0.31044 0.762 0.31044 0.31044 0 0.65617-0.18344 0.34572-0.1905 0.58561-0.41628 0.24694-0.22578 0.47272-0.40922 0.23283-0.1905 0.33867-0.1905z" style="font-feature-settings:normal;font-variant-caps:normal;font-variant-ligatures:normal;font-variant-numeric:normal"/>
   <path d="m-56.268 11.497q-0.17639-0.01411-0.41628-0.16933-0.23283-0.16228-0.27517-0.16228-0.07761 0-0.127-0.02822-0.04233-0.02822-0.04939-0.05644l-0.01411-0.02822q-0.09878-0.07056-0.91722-0.32456l-0.26811-0.08467 0.04233 0.42333q0.02822 0.23989 0.02822 0.34572 0 0.381-0.26811 0.381-0.29633 0-0.36689-0.33867-0.07055-0.33867-0.11994-1.5946-0.05645-1.1501-0.10583-1.4182-0.14817-0.762-0.14817-1.9756 0-0.36689 0.254-0.36689 0.19756 0 0.28222 0.21872 0.04233 0.10583 0.09878 0.62794 0.05644 0.52211 0.11994 1.1571 0.0635 0.635 0.10583 0.889l0.03528 0.22578 0.762-0.67028q0.05644-0.049389 0.14817-0.13406 0.09878-0.084667 0.14817-0.127 0.05644-0.049389 0.13406-0.11994 0.08467-0.070556 0.127-0.10583 0.04939-0.042333 0.11289-0.091722 0.07056-0.049389 0.11289-0.077611t0.08467-0.056444q0.04939-0.028222 0.08467-0.035278 0.03528-0.014111 0.0635-0.014111 0.11289 0.014111 0.18344 0.10583 0.07761 0.084667 0.07761 0.18344 0 0.084667-0.04233 0.127-0.03528 0.042333-0.14817 0.14111-0.11289 0.091722-0.21872 0.23989-0.29633 0.41628-1.2629 1.0724-0.26811 0.18344-0.28222 0.27517 0 0.049389 0.08467 0.084666l0.85372 0.33867 0.04939 0.02822q0.05644 0.02117 0.11289 0.04939 0.0635 0.02117 0.15522 0.0635t0.17639 0.09172q0.09172 0.04233 0.1905 0.09878 0.10583 0.05644 0.1905 0.11289 0.09172 0.04939 0.16933 0.11289 0.08467 0.0635 0.14111 0.11994 0.0635 0.05645 0.09878 0.11994 0.03528 0.05644 0.03528 0.11289 0 0.10583-0.0635 0.16933t-0.16933 0.0635z" style="font-feature-settings:normal;font-variant-caps:normal;font-variant-ligatures:normal;font-variant-numeric:normal"/>
   <path d="m-50.456 11.222q0-0.11994 0.0635-0.20461 0.0635-0.09172 0.15522-0.09172 0.17639 0 0.31044 0.24694 0.07761 0.14817 0.33867 0.28222 0.26106 0.127 0.48683 0.127 0.28222 0 0.51506-0.31044 0.23989-0.3175 0.23989-0.48683 0-0.02822-0.02117-0.07761-0.02117-0.05645-0.11994-0.14817-0.09172-0.09172-0.23989-0.13406-0.23989-0.07056-0.52211-0.17639-0.28222-0.11289-0.41628-0.14111-0.21167-0.04233-0.55739-0.29633t-0.34572-0.53622 0.40217-0.72672q0.40217-0.4445 0.99483-0.5715l0.70556-0.0635q0.1905 0 0.28928 0.049389 0.09878 0.042333 0.24694 0.21167 0.23989 0.27517 0.23989 0.40217 0 0.17639-0.18344 0.17639-0.15522 0-0.3175-0.16228-0.15522-0.16933-0.38806-0.16933-0.3175 0-0.66322 0.18344-0.33867 0.17639-0.53622 0.37394-0.19756 0.1905-0.19756 0.27517 0 0.056444 0.07761 0.13406 0.08467 0.070555 0.27517 0.16933 0.19756 0.098778 0.46567 0.17639 0.74083 0.21872 1.0231 0.43039 0.28222 0.21167 0.28222 0.59267 0 0.33161-0.11994 0.59972-0.09878 0.23283-0.38806 0.47978-0.28928 0.254-0.59267 0.254-0.21872 0-0.5715-0.0635-0.34572-0.05645-0.53622-0.14111-0.15522-0.07761-0.27517-0.27517-0.11994-0.20461-0.11994-0.38806z" style="font-feature-settings:normal;font-variant-caps:normal;font-variant-ligatures:normal;font-variant-numeric:normal"/>
   <path d="m-45.806 11.73q-0.33161 0-0.33161-0.20461 0-0.15522 0.254-0.60678 0.26106-0.45861 0.40217-0.60678 0.08467-0.08467 0.13406-0.14111-0.03528-0.0071-0.14817-0.0071-0.10583-0.0071-0.17639-0.01411-0.0635-0.0071-0.14111-0.02822-0.07761-0.02117-0.11994-0.05644-0.04233-0.04233-0.04233-0.10583 0-0.29633 0.762-0.29633 0.26106 0 0.33161-0.021167 0.07761-0.021167 0.14817-0.10583 0.19756-0.23989 0.31044-0.51506 0.11994-0.28222 0.11994-0.45156 0-0.056444-0.0071-0.077611-0.02822-0.00706-0.10583-0.00706-0.34572 0-1.016 0.18344-0.67028 0.17639-0.79022 0.30339-0.09878 0.127-0.28928 0.127-0.127 0-0.22578-0.056444-0.09878-0.0635-0.09878-0.16228 0-0.070556 0.04939-0.127 0.15522-0.21872 0.87489-0.46567 0.71967-0.24694 1.0724-0.32456 0.11994-0.021167 0.254-0.021167 0.52917 0 0.72672 0.20461 0.11289 0.11994 0.11289 0.38806 0 0.38806-0.21167 0.81139l-0.10583 0.20461 0.13406 0.014111q0.40922 0.042333 0.40922 0.18344 0 0.091722-0.17639 0.18344-0.16933 0.084666-0.43744 0.11289-0.19756 0.02117-0.30339 0.07056t-0.28928 0.21167q-0.15522 0.14111-0.35278 0.38806-0.1905 0.24694-0.26811 0.39511 1.2841-0.21872 1.6439-0.21872 0.49389 0 0.49389 0.21872 0 0.13406-0.17639 0.21167t-0.60678 0.14817q-1.4746 0.26106-1.8133 0.26106z" style="font-feature-settings:normal;font-variant-caps:normal;font-variant-ligatures:normal;font-variant-numeric:normal"/>
   <path d="m-40.765 7.6026q-0.08467 0-0.1905-0.077611-0.10583-0.084667-0.10583-0.18344 0-0.13406 0.46567-0.55739 0.46567-0.43039 0.64911-0.43039 0.02117 0 0.05644 0.00706 0.03528 0.00706 0.09172 0.0635 0.0635 0.056444 0.0635 0.14111 0 0.098778-0.07761 0.20461-0.09172 0.127-0.47978 0.47978-0.381 0.35278-0.47272 0.35278zm0.40217 3.2597q0.02117-0.08467 0.24694-0.27517 0.22578-0.1905 0.23283-0.23989 0-0.01411-0.01411-0.03528t-0.0635-0.0635q-0.04233-0.04233-0.11994-0.07056-0.07761-0.03528-0.22578-0.05644-0.14111-0.02822-0.33161-0.02822-0.55033 0-0.81844 0.26811-0.26106 0.26106-0.26106 0.49389 0 0.14817 0.03528 0.19756 0.16228 0.127 0.40217 0.127 0.19756 0 0.51506-0.11994 0.32456-0.11994 0.40217-0.19756zm1.27 0.4445q-0.0071 0.14817-0.11289 0.28928-0.09878 0.13406-0.19756 0.13406-0.07761 0-0.15522-0.09172-0.04233-0.04939-0.07761-0.10583-0.02822-0.0635-0.04939-0.15522t-0.03528-0.13406q-0.0071-0.04939-0.02117-0.16228-0.01411-0.11994-0.01411-0.13406-0.23283 0.28222-0.67733 0.52211-0.43744 0.23283-0.74083 0.23283-0.18344 0-0.45861-0.05644-0.27517-0.05645-0.41628-0.16228-0.10583-0.07761-0.16933-0.28222-0.05645-0.21167-0.05645-0.39511 0-0.31044 0.17639-0.53622 0.18344-0.23283 0.64206-0.46567 0.51506-0.26106 1.0019-0.26106 0.1905 0.00706 0.31044 0.056444 0.127 0.049389 0.1905 0.11289 0.07056 0.056445 0.07761 0.0635 0.10583 0.014111 0.19756 0.091722 0-0.46567-0.04233-0.77611-0.03528-0.3175-0.10583-0.46567t-0.14817-0.20461q-0.07055-0.056445-0.16933-0.056445-0.13406 0-0.40217 0.049389t-0.42333 0.11289l-0.20461 0.084667q-0.02117 0.014111-0.18344 0.084667-0.15522 0.0635-0.36689 0.14111-0.21167 0.070555-0.31044 0.070555-0.16933 0-0.16933-0.16933 0-0.11994 0.04939-0.20461 0.04939-0.091722 0.17639-0.16228 0.13406-0.070556 0.24694-0.11289 0.11994-0.049389 0.36689-0.13406 0.254-0.091722 0.42333-0.15522 0.42333-0.14817 0.74789-0.14817 0.27517 0 0.47978 0.127 0.21167 0.127 0.31044 0.3175 0.10583 0.18344 0.15522 0.32456 0.04939 0.13406 0.05644 0.22578 0.02822 0.21872 0.03528 1.27 0.01411 1.0442 0.04939 1.1501 0.01411 0.02822 0.01411 0.07056z" style="font-feature-settings:normal;font-variant-caps:normal;font-variant-ligatures:normal;font-variant-numeric:normal"/>
   <path d="m-32.924 10.157q0 0.57856-0.01411 0.89606-0.0071 0.31044-0.04939 0.47978-0.03528 0.16933-0.08467 0.21167-0.04939 0.04233-0.14817 0.04233-0.11994 0-0.16228-0.127-0.02822-0.09878-0.03528-0.97367 0-0.88194-0.0635-1.651-0.05644-0.77611-0.22578-0.77611-0.11994 0-0.35983 0.38806t-0.48683 1.1712q-0.23989 0.77611-0.28928 1.6369-0.02822 0.38806-0.24694 0.38806-0.15522 0-0.19756-0.14817-0.03528-0.14817-0.05644-0.61383 0-0.04233 0-0.0635t-0.0071-0.05644q0-0.04233 0-0.07056-0.04939-1.0795-0.14817-1.5028-0.09878-0.42333-0.36689-0.762-0.14817-0.21167-0.21167-0.21167-0.11289 0.028222-0.59267 1.0583-0.13406 0.28222-0.13406 0.54328 0 0.16933-0.07055 0.35278-0.0635 0.18344-0.08467 0.90311 0 0.07056-0.0071 0.20461 0 0.13406 0 0.20461 0 0.0635-0.01411 0.16933-0.0071 0.10583-0.02822 0.15522-0.01411 0.04939-0.04233 0.10583-0.02822 0.05645-0.07761 0.07761-0.04233 0.02822-0.10583 0.02822-0.1905 0-0.23989-0.33161-0.04939-0.32456-0.04939-1.3829 0-0.67733-0.05645-1.4252-0.04939-0.75494-0.04939-0.86783 0-0.47272 0.20461-0.47272 0.07055 0 0.11994 0.077611 0.05644 0.077611 0.09172 0.21872 0.03528 0.13406 0.05645 0.26811 0.02822 0.13406 0.05644 0.31044t0.04939 0.26106q0.04233-0.10583 0.0635-0.15522 0.02822-0.049389 0.04939-0.0635 0.02117-0.021167 0.07761-0.10583 0.05644-0.091722 0.14111-0.24694 0.17639-0.32456 0.28222-0.40217 0.10583-0.084667 0.36689-0.084667 0.28222 0 0.60678 0.33867 0.18344 0.20461 0.254 0.38806 0.07056 0.17639 0.14111 0.61383l0.04939 0.26106q0.19756-0.62794 0.58561-1.1148 0.39511-0.48683 0.78317-0.48683 0.23989 0 0.40922 0.21872 0.17639 0.21872 0.24694 0.52917 0.07056 0.33161 0.07056 1.5946z" style="font-feature-settings:normal;font-variant-caps:normal;font-variant-ligatures:normal;font-variant-numeric:normal"/>
   <path d="m-29.573 10.883q0-0.08467 0.23283-0.28222 0.23283-0.19756 0.23989-0.254 0-0.02822-0.04233-0.07761t-0.22578-0.11289q-0.17639-0.0635-0.46567-0.0635-0.31044 0-0.54328 0.09172-0.22578 0.09172-0.33867 0.22578t-0.16228 0.24694q-0.04939 0.11289-0.04939 0.19756 0 0.14111 0.02117 0.18344 0.02822 0.03528 0.13406 0.08467 0.16228 0.0635 0.26106 0.0635 0.15522 0 0.38806-0.07761 0.23283-0.07761 0.39511-0.14817zm1.27 0.45156q-0.01411 0.16228-0.127 0.28222-0.10583 0.11289-0.17639 0.11289-0.04233 0-0.08467-0.01411-0.03528-0.01411-0.07055-0.04939-0.02822-0.04233-0.05645-0.07055-0.02117-0.03528-0.04233-0.09878-0.01411-0.0635-0.02822-0.09878-0.01411-0.04233-0.02822-0.11994t-0.02117-0.11289q0-0.03528-0.01411-0.11289t-0.01411-0.09878q-0.22578 0.26106-0.67028 0.508-0.43744 0.23989-0.74789 0.23989-0.19756 0-0.47272-0.0635t-0.40217-0.15522q-0.21872-0.16228-0.21872-0.69144 0-0.31044 0.17639-0.53622t0.635-0.45156q0.51506-0.26106 0.96661-0.26106 0.19756 0 0.32456 0.049389 0.13406 0.049389 0.20461 0.11994 0.07761 0.0635 0.08467 0.0635 0.11289 0.021167 0.19756 0.091722 0-0.46567-0.04233-0.77611-0.03528-0.3175-0.10583-0.46567-0.07056-0.14817-0.14111-0.20461-0.07056-0.056445-0.16933-0.056445-0.33867 0-0.73378 0.13406-0.38806 0.13406-0.70556 0.27517-0.31044 0.13406-0.45156 0.13406-0.17639 0-0.17639-0.16228 0-0.098778 0.04233-0.17639 0.04233-0.084667 0.09878-0.14111 0.0635-0.056444 0.1905-0.11289 0.13406-0.0635 0.23989-0.098778 0.11289-0.042333 0.32456-0.11289 0.21167-0.077611 0.36689-0.13406 0.42333-0.14817 0.74083-0.14817 0.5715 0 0.85372 0.53622 0.127 0.23989 0.14817 0.43744 0.02822 0.19756 0.04233 1.1501 0.01411 0.89606 0.0635 1.3899z" style="font-feature-settings:normal;font-variant-caps:normal;font-variant-ligatures:normal;font-variant-numeric:normal"/>
  </g>
  <g transform="matrix(1 0 0 1.168 -5.9511 -1.5612)" aria-label="65℃">
   <path d="m35.957 8.9685q0-0.23283-0.27517-0.37042-0.27517-0.13758-0.47625-0.13758-0.20108 0.010583-0.53975 0.15875-0.32808 0.14817-0.59267 0.381-0.16933 0.14817-0.21167 0.23283-0.04233 0.074083-0.04233 0.22225 0 0.40217 0.10583 0.65617 0.11642 0.24342 0.20108 0.30692 0.09525 0.05292 0.13758 0.05292 0.13758 0 0.9525-0.41275 0.22225-0.10583 0.47625-0.48683 0.26458-0.39158 0.26458-0.60325zm-1.7992-0.89958q0.05292-0.021167 0.22225-0.127 0.17992-0.11642 0.39158-0.20108 0.21167-0.084667 0.41275-0.084667 0.33867 0 0.75142 0.15875t0.61383 0.37042q0.27517 0.30692 0.27517 0.79375 0 0.20108-0.04233 0.32808t-0.15875 0.29633q-0.10583 0.16933-0.16933 0.3175-0.10583 0.23283-0.60325 0.635t-0.80433 0.508q-0.29633 0.10583-0.79375 0.10583-0.61383 0-1.0054-0.508-0.381-0.51858-0.381-1.2277 0-0.22225 0.11642-0.73025t0.28575-1.0795q0.16933-0.58208 0.32808-1.1112 0.16933-0.53975 0.29633-0.93133 0.13758-0.39158 0.13758-0.40217 0.21167-0.635 0.62442-0.635 0.15875 0 0.27517 0.09525 0.127 0.09525 0.127 0.23283 0 0.3175-0.45508 1.6087-0.4445 1.2912-0.4445 1.5875z" stroke-width=".26458" style="font-feature-settings:normal;font-variant-caps:normal;font-variant-ligatures:normal;font-variant-numeric:normal"/>
   <path d="m41.493 8.2806q0-0.40217-0.11642-0.66675-0.10583-0.27517-0.254-0.27517-0.22225 0-0.68792 0.22225-0.45508 0.21167-0.67733 0.4445-0.33867 0.33867-0.51858 0.33867-0.15875 0-0.35983-0.20108-0.23283-0.28575-0.23283-1.6616 0-1.3123 0.22225-1.4287 0.16933-0.084667 1.4605-0.127 1.3018-0.052917 1.6616-0.127 0.254-0.0635 0.51858-0.0635 0.41275 0 0.41275 0.24342 0 0.09525-0.0635 0.15875-0.20108 0.20108-1.0689 0.40217-0.86783 0.1905-1.4605 0.1905h-0.1905q-0.66675 0-0.66675 0.35983 0 0.074083 0.05292 0.254 0.0635 0.16933 0.0635 0.381 0 0.09525-0.03175 0.28575l0.10583-0.052917q0.80433-0.43392 1.524-0.43392 0.27517 0 0.41275 0.0635 0.34925 0.14817 0.56092 0.68792 0.21167 0.52917 0.21167 1.1007 0 0.254-0.05292 0.53975-0.23283 1.2065-0.889 1.7568-0.64558 0.55033-1.8415 0.55033-0.41275 0-0.58208-0.08467-0.16933-0.07408-0.41275-0.381-0.46567-0.56092-0.46567-0.98425 0-0.39158 0.22225-0.39158 0.01058 0 0.04233 0.010583 0.04233 0.010583 0.04233 0.021167 0 0 0.02117 0.021167 0.03175 0.010583 0.04233 0.03175 0.01058 0.010583 0.03175 0.042333 0.03175 0.03175 0.05292 0.084667 0.02117 0.042333 0.0635 0.10583 0.1905 0.37042 0.48683 0.508 0.29633 0.127 0.86783 0.127 0.51858 0 0.77258-0.1905 0.26458-0.20108 0.49742-0.74083 0.22225-0.508 0.22225-1.1218z" stroke-width=".26458" style="font-feature-settings:normal;font-variant-caps:normal;font-variant-ligatures:normal;font-variant-numeric:normal"/>
   <path transform="matrix(.26458 0 0 .26458 -.77053 -.21062)" d="m176.45 12.771c-1.8359 0-3.3854 0.63151-4.6484 1.8945-1.25 1.25-1.875 2.793-1.875 4.6289s0.61849 3.3789 1.8555 4.6289c1.25 1.237 2.793 1.8555 4.6289 1.8555 0.88541 0 1.7318-0.16276 2.5391-0.48828 0.80729-0.33854 1.5234-0.82031 2.1484-1.4453 0.58594-0.58594 1.0352-1.2695 1.3477-2.0508 0.32552-0.79427 0.48828-1.6276 0.48828-2.5 0-0.88542-0.16276-1.7188-0.48828-2.5-0.3125-0.78125-0.77474-1.4844-1.3867-2.1094-0.625-0.61198-1.3346-1.0807-2.1289-1.4062-0.79427-0.33854-1.6211-0.50781-2.4805-0.50781zm1e-5 3.1641c0.92448 0 1.7122 0.32552 2.3633 0.97656 0.66407 0.65104 0.9961 1.4453 0.9961 2.3828 0 0.92448-0.32552 1.7122-0.97657 2.3633-0.65104 0.63802-1.4453 0.95703-2.3828 0.95703-0.95052 0-1.7513-0.31901-2.4023-0.95703-0.63802-0.63802-0.95703-1.4258-0.95703-2.3633s0.32552-1.7318 0.97656-2.3828c0.65104-0.65104 1.4453-0.97656 2.3828-0.97656z" style="font-feature-settings:normal;font-variant-caps:normal;font-variant-ligatures:normal;font-variant-numeric:normal"/>
  </g>
  <g style="font-feature-settings:normal;font-variant-caps:normal;font-variant-ligatures:normal;font-variant-numeric:normal" aria-label="C">
   <path d="m46.917 5.0275q0 0.25682-0.27658 0.25682-0.1778 0-0.33584-0.098778-0.14817-0.10866-0.20743-0.21731l-0.05927-0.098778q-0.03951-0.049389-0.14817-0.049389-0.50377 0-1.2545 0.31609-0.75071 0.31609-1.1557 0.7112-0.33584 0.32597-0.50377 1.0273-0.16792 0.70132-0.16792 2.0941 0 0.66181 0.18768 1.0668 0.1778 0.38523 0.52352 0.63218 0.34572 0.24694 0.7112 0.24694 0.22719 0 0.70132-0.20743t0.67169-0.39511l0.54328-0.50377q0.24694-0.22719 0.51364-0.60254 0.27658-0.38523 0.45438-0.60254 0.18768-0.21731 0.33584-0.21731 0.06914 0.019756 0.09878 0.029633 0.03951 0.00988 0.0889 0.10866 0.04939 0.098778 0.04939 0.2667 0 0.20743-0.28646 0.70132-0.28646 0.48401-0.74083 1.0273-0.45438 0.5334-1.1261 0.93839t-1.3236 0.40499q-1.373 0-2.1632-1.5409-0.10866-0.21731-0.10866-1.3533 0-2.0348 0.19756-2.7065 0.2667-0.91863 1.3236-1.6101 1.0668-0.69144 2.0447-0.69144 0.55316 0 0.9779 0.33584 0.43462 0.32597 0.43462 0.73096z" stroke-width=".26458" style="font-feature-settings:normal;font-variant-caps:normal;font-variant-ligatures:normal;font-variant-numeric:normal"/>
  </g>
  <flowRoot transform="matrix(.26458 0 0 .26458 -.77053 -.21062)" fill="#000000" font-family="sans-serif" font-size="40px" letter-spacing="0px" word-spacing="0px" style="line-height:1.25" xml:space="preserve"><flowRegion><rect x="-7.6125" y="-16.078" width="597.58" height="630.57"/></flowRegion><flowPara/></flowRoot>
 </g>
</svg>
