<?xml version="1.0" encoding="UTF-8" standalone="no"?>
<!-- Created with Inkscape (http://www.inkscape.org/) -->

<svg
   xmlns:dc="http://purl.org/dc/elements/1.1/"
   xmlns:cc="http://creativecommons.org/ns#"
   xmlns:rdf="http://www.w3.org/1999/02/22-rdf-syntax-ns#"
   xmlns:svg="http://www.w3.org/2000/svg"
   xmlns="http://www.w3.org/2000/svg"
   xmlns:sodipodi="http://sodipodi.sourceforge.net/DTD/sodipodi-0.dtd"
   xmlns:inkscape="http://www.inkscape.org/namespaces/inkscape"
   width="150.588mm"
   height="150.588mm"
   viewBox="0 0 150.588 150.588"
   version="1.1"
   id="svg33920"
   inkscape:version="0.92.3 (2405546, 2018-03-11)"
   sodipodi:docname="organogenicelements2.svg">
  <defs
     id="defs33914">
    <inkscape:path-effect
       is_visible="true"
       id="path-effect18285"
       effect="spiro" />
    <inkscape:path-effect
       simplifyJustCoalesce="false"
       simplifyindividualpaths="false"
       simplify_just_coalesce="false"
       simplify_individual_paths="false"
       helper_size="0"
       smooth_angles="360"
       threshold="0.0175585"
       steps="1"
       is_visible="true"
       id="path-effect18283"
       effect="simplify" />
    <inkscape:path-effect
       is_visible="true"
       id="path-effect15028"
       effect="spiro" />
    <inkscape:path-effect
       simplifyJustCoalesce="false"
       simplifyindividualpaths="false"
       simplify_just_coalesce="false"
       simplify_individual_paths="false"
       helper_size="0"
       smooth_angles="360"
       threshold="0.0175585"
       steps="1"
       is_visible="true"
       id="path-effect15026"
       effect="simplify" />
    <inkscape:path-effect
       is_visible="true"
       id="path-effect15014"
       effect="spiro" />
    <inkscape:path-effect
       simplifyJustCoalesce="false"
       simplifyindividualpaths="false"
       simplify_just_coalesce="false"
       simplify_individual_paths="false"
       helper_size="0"
       smooth_angles="360"
       threshold="0.0175585"
       steps="1"
       is_visible="true"
       id="path-effect15012"
       effect="simplify" />
    <inkscape:path-effect
       effect="spiro"
       id="path-effect14989"
       is_visible="true" />
    <inkscape:path-effect
       effect="simplify"
       id="path-effect14987"
       is_visible="true"
       steps="1"
       threshold="0.0175585"
       smooth_angles="360"
       helper_size="0"
       simplify_individual_paths="false"
       simplify_just_coalesce="false"
       simplifyindividualpaths="false"
       simplifyJustCoalesce="false" />
    <inkscape:path-effect
       effect="bspline"
       id="path-effect14983"
       is_visible="true"
       weight="33.333333"
       steps="2"
       helper_size="0"
       apply_no_weight="true"
       apply_with_weight="true"
       only_selected="false" />
    <inkscape:path-effect
       effect="simplify"
       id="path-effect14981"
       is_visible="true"
       steps="1"
       threshold="0.00557252"
       smooth_angles="360"
       helper_size="0"
       simplify_individual_paths="false"
       simplify_just_coalesce="false"
       simplifyindividualpaths="false"
       simplifyJustCoalesce="false" />
    <inkscape:path-effect
       effect="bspline"
       id="path-effect14969"
       is_visible="true"
       weight="33.333333"
       steps="2"
       helper_size="0"
       apply_no_weight="true"
       apply_with_weight="true"
       only_selected="false" />
    <inkscape:path-effect
       effect="simplify"
       id="path-effect14967"
       is_visible="true"
       steps="1"
       threshold="0.00557252"
       smooth_angles="360"
       helper_size="0"
       simplify_individual_paths="false"
       simplify_just_coalesce="false"
       simplifyindividualpaths="false"
       simplifyJustCoalesce="false" />
    <inkscape:path-effect
       simplifyJustCoalesce="false"
       simplifyindividualpaths="false"
       simplify_just_coalesce="false"
       simplify_individual_paths="false"
       helper_size="0"
       smooth_angles="360"
       threshold="0.00557252"
       steps="1"
       is_visible="true"
       id="path-effect2435"
       effect="simplify" />
    <inkscape:path-effect
       only_selected="false"
       apply_with_weight="true"
       apply_no_weight="true"
       helper_size="0"
       steps="2"
       weight="33.333333"
       is_visible="true"
       id="path-effect2437"
       effect="bspline" />
    <inkscape:path-effect
       simplifyJustCoalesce="false"
       simplifyindividualpaths="false"
       simplify_just_coalesce="false"
       simplify_individual_paths="false"
       helper_size="0"
       smooth_angles="360"
       threshold="0.00557252"
       steps="1"
       is_visible="true"
       id="path-effect2435-3"
       effect="simplify" />
    <inkscape:path-effect
       only_selected="false"
       apply_with_weight="true"
       apply_no_weight="true"
       helper_size="0"
       steps="2"
       weight="33.333333"
       is_visible="true"
       id="path-effect2437-6"
       effect="bspline" />
    <inkscape:path-effect
       simplifyJustCoalesce="false"
       simplifyindividualpaths="false"
       simplify_just_coalesce="false"
       simplify_individual_paths="false"
       helper_size="0"
       smooth_angles="360"
       threshold="0.00557252"
       steps="1"
       is_visible="true"
       id="path-effect2435-5"
       effect="simplify" />
    <inkscape:path-effect
       only_selected="false"
       apply_with_weight="true"
       apply_no_weight="true"
       helper_size="0"
       steps="2"
       weight="33.333333"
       is_visible="true"
       id="path-effect2437-3"
       effect="bspline" />
    <inkscape:path-effect
       effect="simplify"
       id="path-effect14987-6"
       is_visible="true"
       steps="1"
       threshold="0.0175585"
       smooth_angles="360"
       helper_size="0"
       simplify_individual_paths="false"
       simplify_just_coalesce="false"
       simplifyindividualpaths="false"
       simplifyJustCoalesce="false" />
    <inkscape:path-effect
       effect="spiro"
       id="path-effect14989-2"
       is_visible="true" />
    <inkscape:path-effect
       effect="simplify"
       id="path-effect14987-1"
       is_visible="true"
       steps="1"
       threshold="0.0175585"
       smooth_angles="360"
       helper_size="0"
       simplify_individual_paths="false"
       simplify_just_coalesce="false"
       simplifyindividualpaths="false"
       simplifyJustCoalesce="false" />
    <inkscape:path-effect
       effect="spiro"
       id="path-effect14989-27"
       is_visible="true" />
    <inkscape:path-effect
       effect="simplify"
       id="path-effect14987-9"
       is_visible="true"
       steps="1"
       threshold="0.0175585"
       smooth_angles="360"
       helper_size="0"
       simplify_individual_paths="false"
       simplify_just_coalesce="false"
       simplifyindividualpaths="false"
       simplifyJustCoalesce="false" />
    <inkscape:path-effect
       effect="spiro"
       id="path-effect14989-3"
       is_visible="true" />
  </defs>
  <sodipodi:namedview
     id="base"
     pagecolor="#ffffff"
     bordercolor="#666666"
     borderopacity="1.0"
     inkscape:pageopacity="0.0"
     inkscape:pageshadow="2"
     inkscape:zoom="0.26161819"
     inkscape:cx="367.26278"
     inkscape:cy="322.99829"
     inkscape:document-units="mm"
     inkscape:current-layer="layer1"
     showgrid="false"
     inkscape:window-width="1366"
     inkscape:window-height="719"
     inkscape:window-x="0"
     inkscape:window-y="25"
     inkscape:window-maximized="1"
     inkscape:snap-others="false" />
  <metadata
     id="metadata33917">
    <rdf:RDF>
      <cc:Work
         rdf:about="">
        <dc:format>image/svg+xml</dc:format>
        <dc:type
           rdf:resource="http://purl.org/dc/dcmitype/StillImage" />
        <dc:title />
      </cc:Work>
    </rdf:RDF>
  </metadata>
  <g
     inkscape:label="Layer 1"
     inkscape:groupmode="layer"
     id="layer1"
     transform="translate(83.609483,-46.325049)">
    <path
       style="fill:none;stroke:#18b600;stroke-width:2.71240973;stroke-linecap:butt;stroke-linejoin:miter;stroke-miterlimit:4;stroke-dasharray:none;stroke-opacity:1"
       d="M 5.8270187,77.799704 C -0.69526393,71.606082 -9.6222218,68.013156 -18.61658,67.961635 c -8.994358,-0.05152 -17.96189,3.438903 -24.554698,9.5574 -6.789249,6.300806 -10.86145,14.951238 -14.297071,23.553015 -1.613851,4.0406 -3.137016,8.17518 -3.610565,12.50031 -0.473549,4.32513 0.192276,8.9121 2.653585,12.49999 2.637556,3.84481 7.042849,6.14812 11.537627,7.38756 4.494777,1.23945 9.183825,1.55733 13.786132,2.30434 5.482214,0.88983 10.869554,2.39391 16.400862,2.89502 5.531307,0.5011 11.3850312,-0.0957 16.06327912,-3.08909 2.96764618,-1.89887 5.30799478,-4.67123 7.06090898,-7.72735 1.7529142,-3.05613 2.9473745,-6.40006 3.9504469,-9.7774 2.547183,-8.57636 3.907537,-17.7496 1.922762,-26.473299 -1.135283,-4.98992 -3.3584385,-9.729373 -6.4696703,-13.792427 z"
       id="path14985"
       inkscape:connector-curvature="0"
       inkscape:path-effect="#path-effect14987;#path-effect14989"
       inkscape:original-d="m 5.8270187,77.799704 c -14.2185442,-0.371161 -44.2396447,-8.013348 -55.5313277,4.022791 -3.459679,3.687775 -7.649796,17.783372 -8.626227,22.987375 -0.694799,3.70304 -2.71866,16.6169 -1.078275,20.11397 0.969499,2.06684 0.934267,0.42118 2.156557,1.72405 11.794668,12.5723 32.317065,8.62026 47.9833815,8.62026 3.879207,0 11.7597648,1.71246 14.0176163,-2.29873 6.1527782,-10.93072 7.5479452,-22.85135 7.5479452,-35.630444 0,-1.184357 0.56263,-4.547402 0,-5.746845 C 10.670768,88.12589 6.6555765,81.332432 5.8270187,77.799704 Z" />
    <path
       style="fill:none;stroke:#00887a;stroke-width:2.71240973;stroke-linecap:butt;stroke-linejoin:miter;stroke-miterlimit:4;stroke-dasharray:none;stroke-opacity:1"
       d="m -17.202804,86.247552 c 6.522283,-6.193622 15.4492411,-9.786547 24.4435989,-9.838067 8.9943581,-0.05152 17.9618901,3.438903 24.5546981,9.5574 6.789249,6.300806 10.86145,14.951235 14.297071,23.553015 1.613851,4.0406 3.137016,8.17518 3.610565,12.50031 0.473549,4.32513 -0.192276,8.9121 -2.653585,12.49999 -2.637556,3.84481 -7.042849,6.14812 -11.537627,7.38756 -4.494777,1.23945 -9.183825,1.55733 -13.786132,2.30434 -5.482214,0.88983 -10.869554,2.39391 -16.4008623,2.89502 -5.53130776,0.5011 -11.3850316,-0.0957 -16.0632797,-3.08909 -2.967646,-1.89887 -5.307995,-4.67123 -7.06091,-7.72735 -1.752914,-3.05613 -2.947374,-6.40005 -3.950447,-9.7774 -2.547183,-8.57636 -3.907537,-17.74961 -1.922762,-26.4733 1.135284,-4.98992 3.358439,-9.729374 6.469672,-13.792428 z"
       id="path14985-9"
       inkscape:connector-curvature="0"
       inkscape:path-effect="#path-effect15012;#path-effect15014"
       inkscape:original-d="m -17.202804,86.247552 c 14.2185446,-0.371156 44.239645,-8.013344 55.531328,4.022792 3.45968,3.687779 7.649796,17.783366 8.626227,22.987376 0.694799,3.70304 2.71866,16.61689 1.078275,20.11397 -0.969499,2.06684 -0.934267,0.42118 -2.156557,1.72405 -11.794668,12.57229 -32.317065,8.62026 -47.9833829,8.62026 -3.8792066,0 -11.7597641,1.71246 -14.0176151,-2.29873 -6.15278,-10.93072 -7.547947,-22.85136 -7.547947,-35.63045 0,-1.18435 -0.562628,-4.5474 0,-5.74684 1.625922,-3.466243 5.641113,-10.259701 6.469672,-13.792428 z" />
    <path
       style="fill:none;stroke:#f61c2d;stroke-width:2.71240973;stroke-linecap:butt;stroke-linejoin:miter;stroke-miterlimit:4;stroke-dasharray:none;stroke-opacity:1"
       d="m -35.73141,109.54706 c -6.212915,6.36062 -9.836192,15.18076 -9.888694,24.07205 -0.0525,8.89129 3.466361,17.75361 9.603728,24.18715 6.436587,6.7472 15.260199,10.60712 23.913734,14.08142 4.0681295,1.63331 8.2059075,3.23292 12.55390625,3.79175 4.34799875,0.55882 8.98810625,-0.0148 12.63596475,-2.44599 3.680953,-2.45321 5.992568,-6.54115 7.323885,-10.75959 1.331317,-4.21844 1.80628,-8.65018 2.616735,-12.99884 1.054708,-5.65924 2.687405,-11.22465 3.22257,-16.9564 0.535165,-5.73176 -0.135442,-11.81337 -3.32659,-16.60461 -1.965152,-2.95051 -4.790849,-5.25888 -7.8898,-6.98046 -3.098951,-1.72158 -6.4760583,-2.8851 -9.8830385,-3.86481 -8.7232462,-2.50845 -18.0172135,-3.85863 -26.8787375,-1.89376 -5.043393,1.11828 -9.847386,3.30424 -14.003663,6.37209 z"
       id="path14985-0"
       inkscape:connector-curvature="0"
       inkscape:path-effect="#path-effect15026;#path-effect15028"
       inkscape:original-d="m -35.73141,109.54706 c -0.37684,14.00407 -8.136069,43.57233 4.084401,54.69369 3.744258,3.40749 18.055723,7.53441 23.3394355,8.49611 3.759745,0.68432 16.871378,2.67765 20.4220145,1.06201 2.098493,-0.95488 0.42763,-0.92018 1.750451,-2.12403 12.76484,-11.61675 8.752283,-31.82959 8.752283,-47.2596 0,-3.82069 1.738681,-11.58237 -2.333941,-13.80617 -11.098122,-6.05998 -23.2013241,-7.4341 -36.176129,-7.4341 -1.202491,0 -4.617046,-0.55414 -5.834852,0 -3.519332,1.6014 -10.416832,5.55603 -14.003663,6.37209 z" />
    <path
       inkscape:connector-curvature="0"
       d="m -4.1817334,159.96882 c -0.0269,-0.2422 -0.0407,-0.4863 -0.0554,-0.72994 -0.0322,-0.3841 -0.0403,-0.76067 0.0247,-1.13943 0.1665996,-0.58851 0.5897296,-0.8921 1.0277796,-1.14095 0.5125,-0.2683 1.05494,-0.37061 1.60875,-0.35573 0.56828,0.0396 1.00819004,0.28505 1.42930004,0.73978 0.37829,0.46819 0.5493,1.07375 0.6648,1.70043 0.1214,0.74748 -0.0233,1.39139 -0.28346,2.06411 -0.30495,0.70291 -0.76166,1.27093 -1.22956,1.81333 -0.49322004,0.56032 -1.04145004,1.039 -1.60609004,1.48478 -0.46807,0.35816 -0.96832,0.64609 -1.47665,0.9073 -0.2953496,0.15305 -0.6005296,0.2726 -0.9109496,0.37006 -0.22702,0.0712 -0.17166,0.11105 -0.1014,-0.63688 8e-5,0 0.23127,-0.0276 0.35002,-0.0417 0.37652,-0.0449 0.7539996,-0.0757 1.1315596,-0.1036 0.41353,-0.03 0.82751,-0.0492 1.24158,-0.0641 0.32443,-0.0114 0.64899,-0.0163 0.97355,-0.0178 0.21977,0 0.43953004,0.003 0.65928004,0.006 0.14592,0.003 0.29184,0.006 0.43775,0.01 0.0652,0.003 0.0334,0 0.0954,0.003 1.93857996,0.0501 1.92695996,0.7192 -0.0116,0.66906 v 0 c -0.0621,-0.003 -0.0305,0 -0.0952,-0.003 -0.14472,-0.004 -0.28944,-0.007 -0.43418,-0.01 -0.21641,-0.004 -0.43282004,-0.007 -0.64925004,-0.006 -0.3199,0.003 -0.63978,0.007 -0.95953,0.0175 -0.40841,0.0147 -0.81672,0.0335 -1.2246,0.0632 -0.37095,0.0273 -0.7418296,0.0576 -1.1117396,0.10173 -0.10081,0.012 -0.35284,0.0495 -0.35601,0.0424 -0.28083,-0.63039 -0.33662,-0.59709 -0.0822,-0.67796 0.2845,-0.0892 0.56419,-0.1983 0.83481,-0.33877 0.4788596,-0.24564 0.9502796,-0.51612 1.3915596,-0.85244 0.53642,-0.42294 1.0575,-0.8768 1.52638,-1.40824 0.41971004,-0.48537 0.83319004,-0.99052 1.11215004,-1.61631 0.20551,-0.51761 0.33883,-1.05082 0.24295,-1.63069 -0.0878,-0.49033 -0.20963,-0.97325 -0.49703,-1.34888 -0.3031,-0.34398 -0.65814004,-0.53922 -1.07616004,-0.56739 -0.46958,-0.0184 -0.92924,0.072 -1.36494,0.29466 -0.27822,0.15404 -0.58175,0.32696 -0.72195,0.6796 -0.0636,0.31097 -0.0306,0.62729 -0.0129,0.94374 0.0134,0.2233 0.0263,0.44691 0.0494,0.66907 0.31878,2.3338 -0.2222,2.4438 -0.5409696,0.11004 z"
       id="path3680"
       style="opacity:1;fill:#000000;fill-opacity:1;stroke:#000000;stroke-width:0.40000001;stroke-linecap:square;stroke-miterlimit:4;stroke-dasharray:none;stroke-dashoffset:0;stroke-opacity:1;paint-order:markers fill stroke" />
    <path
       inkscape:connector-curvature="0"
       d="m -39.847499,86.524983 c 0.21985,-0.22403 0.43649,-0.45134 0.65266,-0.67908 0.40674,-0.42803 0.78978,-0.87855 1.16601,-1.33468 0.34707,-0.41659 0.67367,-0.84977 0.98355,-1.295933 0.1701,-0.250031 0.32938,-0.50809 0.46453,-0.779819 0.12633,-0.275051 0.0487,-0.345141 0.59759,0.0619 0.0428,0.0318 -0.009,0.10814 -0.0151,0.162049 -0.008,0.0681 -0.0169,0.136091 -0.0255,0.204142 -0.09,0.636958 -0.18794,1.272651 -0.27429,1.910191 -0.10567,0.78387 -0.18644,1.57084 -0.25698,2.35875 -0.0516,0.58587 -0.0889,1.17291 -0.1144,1.76057 -0.183571,3.39365 -0.675664,3.36827 -0.55611,-0.0253 v 0 c 0.026,-0.59662 0.0637,-1.19263 0.11618,-1.7874 0.0713,-0.79671 0.15305,-1.59247 0.25994,-2.3851 0.0861,-0.63555 0.18358,-1.269311 0.2735,-1.904271 0.008,-0.0624 0.0163,-0.124889 0.0235,-0.187478 0.005,-0.0443 -0.0296,-0.124841 0.0131,-0.133332 0.68173,-0.135308 0.57957,-0.0605 0.45397,0.225552 -0.14819,0.29613 -0.32041,0.57858 -0.50673,0.851009 -0.31893,0.45897 -0.65487,0.90478 -1.01194,1.33341 -0.38466,0.46622 -0.77628,0.92668 -1.19209,1.36417 -0.21793,0.22957 -0.43631,0.4587 -0.65789,0.68455 -1.39168,1.4274 -1.7853,1.02366 -0.39364,-0.40374 z"
       id="path3690"
       style="opacity:1;fill:#000000;fill-opacity:1;stroke:#000000;stroke-width:0.40000001;stroke-linecap:square;stroke-miterlimit:4;stroke-dasharray:none;stroke-dashoffset:0;stroke-opacity:1;paint-order:markers fill stroke"
       sodipodi:nodetypes="ccccccccccccccccccccccccc" />
    <path
       inkscape:connector-curvature="0"
       id="path3684-3"
       d="m 41.082691,72.1434 c -0.137102,0 -0.274219,0.58345 -0.274219,1.75035 v 0.99231 c -0.0011,0.52682 0.003,1.05364 -0.003,1.5804 -0.005,0.36972 -0.01479,0.74048 -0.0643,1.10594 -0.12668,0 -0.25332,0 -0.379989,0 -0.0021,0.009 -0.004,0.0142 -0.005,0.0224 -0.01019,0.009 -0.0131,0.0285 -0.0122,0.0578 -0.129828,0.63527 -0.24216,0.52624 0.0461,0.61201 0.0552,0.0184 0.110231,0.0364 0.156239,0.0794 0.162251,0.11129 0.333121,0.13267 0.490612,-0.0102 0.02619,-0.0316 0.049,-0.0651 0.0701,-0.0994 0.014,0 0.0278,0 0.0418,0 0.364948,0.004 0.729898,0.008 1.094859,0.012 0.307909,0.004 0.61582,0.006 0.923729,0.009 0.237366,0 0.474676,0.003 0.712044,0.003 -5.29e-4,0.34263 -5e-5,0.68503 0.01439,1.0273 0.01,0.21793 0.0281,0.43523 0.055,0.65105 0.01201,0.093 0.0254,0.18562 0.0449,0.27672 0.005,0.0205 0.0021,0.011 0.006,0.0294 0.464749,2.26574 0.99713,2.10747 0.53239,-0.15826 -0.005,-0.0252 -0.003,-0.0123 -0.008,-0.0392 -0.01421,-0.0682 -0.02421,-0.13747 -0.0331,-0.20695 -0.0245,-0.19437 -0.0404,-0.39018 -0.0494,-0.58645 -0.0141,-0.33104 -0.01479,-0.6622 -0.01389,-0.99352 0.0808,0 0.161531,0 0.24229,0 0.195479,0 0.39089,0 0.586369,0 0.144241,0 0.288542,0 0.43279,0 0.0773,6e-5 0.0392,0 0.113972,0 1.93906,-0.003 1.938679,-0.66201 -2.51e-4,-0.66008 -0.0748,-3e-5 -0.0368,0 -0.114131,0 -0.144349,0 -0.28878,0 -0.433128,0 -0.19539,0 -0.390811,0 -0.586201,0 -0.0806,-3e-5 -0.16107,0 -0.24162,0 v -0.96215 -0.89842 c 0,-2.33373 -0.548441,-2.33373 -0.548441,0 v 0.89842 0.96193 c -0.236228,0 -0.472459,0 -0.708684,-0.003 -0.30733,-0.003 -0.614738,-0.005 -0.922078,-0.009 -0.318352,-0.004 -0.63663,-0.007 -0.954982,-0.0104 0.0422,-0.36542 0.0566,-0.73435 0.0602,-1.10333 0.006,-0.52955 0.0021,-1.05907 0.003,-1.58865 v -0.99213 c 0,-1.16686 -0.137109,-1.75034 -0.274209,-1.75034 z"
       style="opacity:1;fill:#000000;fill-opacity:1;stroke:#000000;stroke-width:0.40000001;stroke-linecap:square;stroke-miterlimit:4;stroke-dasharray:none;stroke-dashoffset:0;stroke-opacity:1;paint-order:markers fill stroke;enable-background:new" />
    <path
       inkscape:connector-curvature="0"
       d="m 34.146358,116.43718 c -0.0826,-0.18811 -0.134901,-0.39156 -0.181229,-0.59597 -0.0853,-0.35265 -0.10246,-0.71225 -0.0786,-1.0763 0.035,-0.42212 0.179811,-0.77598 0.419629,-1.08036 0.281861,-0.30208 0.640659,-0.41306 1.002813,-0.48943 0.39483,-0.0707 0.77996,0.0107 1.15307,0.16469 0.341199,0.1531 0.61336,0.42551 0.843878,0.75751 0.189892,0.29391 0.295021,0.63774 0.359492,0.99762 0.0464,0.29707 0.0413,0.59915 0.02119,0.89887 -0.0155,0.20523 -0.0471,0.40791 -0.0859,0.60845 -0.01209,0.0368 -0.01471,0.0771 -0.02519,0.11457 -0.004,0.0117 0.009,-0.0239 0.007,-0.0361 -0.007,-0.0574 -0.0011,-0.12332 -0.0308,-0.16967 -0.0905,-0.14553 -0.11797,-0.14176 -0.21195,-0.158 0.188871,-0.0572 0.379302,-0.10635 0.570252,-0.15233 0.31224,-0.0732 0.6273,-0.12685 0.942901,-0.17388 0.282397,-0.049 0.565679,-0.0678 0.849868,-0.0373 0.365479,0.0545 0.54262,0.25818 0.688422,0.65404 0.128629,0.49967 0.141017,1.02829 0.138729,1.54735 -0.008,0.60781 -0.120492,1.19817 -0.289201,1.76796 -0.17414,0.54599 -0.450058,1.01988 -0.781618,1.442 -0.307272,0.3789 -0.690941,0.61989 -1.097601,0.80435 -0.32663,0.13967 -0.66885,0.19581 -1.013491,0.21047 -0.267899,0.005 -0.53435,-0.0325 -0.799158,-0.0769 -0.239123,-0.0301 -0.466122,-0.11152 -0.683681,-0.23196 -0.20955,-0.12067 -0.36807,-0.30661 -0.49212,-0.53938 -0.0816,-0.16851 -0.121361,-0.35512 -0.14551,-0.54602 -0.276513,-2.30988 0.26634,-2.40399 0.54283,-0.0941 v 0 c 0.0108,0.10071 0.0293,0.19995 0.0681,0.29103 0.0624,0.12802 0.146532,0.22364 0.258281,0.29018 0.167391,0.0956 0.343159,0.15391 0.528079,0.17657 0.233601,0.0394 0.468562,0.0739 0.704922,0.0709 0.285311,-0.0104 0.568769,-0.0555 0.839679,-0.16902 0.32961,-0.14679 0.642202,-0.3362 0.892349,-0.64112 0.2813,-0.35289 0.513451,-0.75195 0.662753,-1.21002 0.150079,-0.49862 0.24783,-1.01667 0.256929,-1.54932 0.003,-0.43203 -0.006,-0.87091 -0.0974,-1.29134 -0.0449,-0.15697 -0.0815,-0.23084 -0.232539,-0.24843 -0.24452,-0.0294 -0.488328,-0.005 -0.731351,0.0352 -0.302159,0.0449 -0.603798,0.0962 -0.902769,0.16612 -0.20202,0.0485 -0.402569,0.10448 -0.603459,0.15906 -0.32344,0.0132 -0.433871,-0.22203 -0.347861,-0.55483 0.0329,-0.16899 0.0599,-0.33984 0.0734,-0.51283 0.01651,-0.23599 0.02299,-0.47402 -0.01119,-0.70852 -0.0433,-0.25611 -0.11439,-0.50215 -0.246031,-0.71376 -0.16261,-0.24219 -0.35697,-0.44016 -0.60121,-0.55403 -0.283771,-0.12166 -0.57745,-0.18722 -0.87943,-0.1375 -0.247769,0.0503 -0.501711,0.11121 -0.704731,0.30163 -0.158972,0.18198 -0.23841,0.41057 -0.264292,0.67299 -0.0218,0.28751 -0.006,0.56992 0.0615,0.84859 0.0344,0.15467 0.0726,0.30904 0.13329,0.45228 0.928512,2.04876 0.447042,2.36486 -0.481471,0.31606 z"
       id="path3682"
       style="opacity:1;fill:#000000;fill-opacity:1;stroke:#000000;stroke-width:0.40000001;stroke-linecap:square;stroke-miterlimit:4;stroke-dasharray:none;stroke-dashoffset:0;stroke-opacity:1;paint-order:markers fill stroke" />
    <path
       style="fill:none;stroke:#ff9243;stroke-width:3;stroke-linecap:butt;stroke-linejoin:miter;stroke-miterlimit:4;stroke-dasharray:none;stroke-opacity:1"
       d="M 56.906095,69.139515 C 54.430968,64.147142 49.954033,60.311273 44.893129,57.979474 39.832225,55.647675 34.209831,54.733712 28.63884,54.614981 17.496857,54.377517 6.4734178,57.21478 -4.6709325,57.154617 -15.817427,57.094443 -26.776078,54.139277 -37.917196,53.787925 c -5.570559,-0.175675 -11.217643,0.315855 -16.496631,2.103111 -5.278987,1.787255 -10.187011,4.936784 -13.510984,9.410395 -2.316242,3.117344 -3.811716,6.795392 -4.661419,10.584958 -0.849703,3.789566 -1.070801,7.697035 -0.997923,11.580011 0.145755,7.76595 1.453989,15.50103 1.144416,23.26218 -0.394674,9.89468 -3.398783,19.47746 -5.04341,29.24249 -0.822313,4.88251 -1.305827,9.84958 -0.944786,14.78768 0.361041,4.93809 1.59163,9.86176 4.030489,14.17072 3.994972,7.05828 11.005589,12.03969 18.560171,14.99053 7.554581,2.95084 15.689573,4.05715 23.758075,4.88083 18.144859,1.85233 36.4785277,2.38876 54.617563,0.48025 5.58428,-0.58755 11.179691,-1.41435 16.504101,-3.19762 5.324411,-1.78327 10.397956,-4.57205 14.257862,-8.6501 4.374817,-4.62207 6.998701,-10.71354 8.155374,-16.97171 1.156672,-6.25817 0.91803,-12.70141 0.123673,-19.0158 -1.588713,-12.62878 -5.384118,-25.11493 -4.61073,-37.81973 0.354589,-5.824993 1.667636,-11.551085 2.225211,-17.360163 0.557574,-5.809078 0.304418,-11.897974 -2.287761,-17.126442 z"
       id="path14985-6"
       inkscape:connector-curvature="0"
       inkscape:path-effect="#path-effect18283;#path-effect18285"
       inkscape:original-d="M 56.906095,69.139515 C 39.829842,53.797394 -54.997148,53.274688 -69.516448,66.501093 c -6.905091,6.290214 -1.116346,55.056747 -2.905371,64.793787 -1.273016,6.92863 -4.981148,31.09132 -1.975625,37.63459 1.776326,3.8672 1.711771,0.78805 3.951261,3.22581 21.610281,23.5236 59.211571,16.12909 87.915516,16.12909 7.10751,0 26.033172,11.33637 30.170022,3.83116 11.273168,-20.45208 9.342563,-50.88865 9.342563,-74.7992 0,-2.21601 1.030853,-8.50849 0,-10.75274 -2.979025,-6.48557 20.533171,-24.437116 -0.07583,-37.424075 z"
       sodipodi:nodetypes="cssscscsszc" />
    <path
       style="opacity:1;fill:#000000;fill-opacity:1;fill-rule:nonzero;stroke:#000000;stroke-width:0.59999871;stroke-linecap:square;stroke-miterlimit:4;stroke-dasharray:none;stroke-dashoffset:0;stroke-opacity:1;paint-order:markers fill stroke"
       d="m -13.628294,97.795172 c -0.03772,-0.06339 -0.08218,-1.613383 -0.0988,-3.444428 l -0.03021,-3.329172 0.200236,-0.05803 c 0.110129,-0.03192 0.286469,-0.0586 0.391866,-0.05929 0.190719,-0.0013 0.191626,0.0056 0.190369,1.450939 -7.5e-4,0.798709 -0.03876,2.046709 -0.08459,2.773331 -0.1052,1.667979 -0.04116,1.854234 0.639452,1.859875 0.496663,0.0041 0.600047,0.102099 0.501244,0.475059 -0.06957,0.262623 -0.129628,0.315864 -0.418984,0.371453 -0.55538,0.106698 -1.215535,0.08637 -1.29058,-0.03974 z"
       id="path3069"
       inkscape:connector-curvature="0" />
    <path
       style="opacity:1;fill:#000000;fill-opacity:1;fill-rule:nonzero;stroke:#000000;stroke-width:0.6;stroke-linecap:square;stroke-miterlimit:4;stroke-dasharray:none;stroke-dashoffset:0;stroke-opacity:1;paint-order:markers fill stroke"
       d="m -9.9738599,97.775853 -0.4258461,-0.221694 0.01956,-1.857763 c 0.01076,-1.021768 0.05546,-2.40162 0.09934,-3.066337 0.09845,-1.491477 0.05968,-1.774981 1.2238171,-1.725294 0.457435,0.01953 0.859861,0.390219 0.89428,0.423143 0.139676,0.133617 0.01814,1.0998 -0.231321,1.838861 -0.142836,0.423177 -0.259702,0.830291 -0.259702,0.904697 0,0.0744 0.133368,0.379814 0.296374,0.678687 0.380015,0.696759 0.480249,1.427927 0.411221,2.035206 -0.04821,0.424132 -0.227358,0.970439 -1.457682,1.214077 -0.0793,-0.001 -0.335822,-0.10165 -0.570039,-0.223583 z m 1.056474,-0.224988 c 0.367978,-0.293853 0.477543,-0.735981 0.355784,-1.435684 -0.16269,-0.934928 -0.561094,-1.45466 -0.962226,-1.255259 -0.233294,0.11597 -0.347748,0.681762 -0.356614,1.762894 l -0.0083,1.005944 0.212924,0.05699 c 0.371719,0.09948 0.491612,0.07816 0.758381,-0.134876 z m -0.299685,-3.857137 c 0.187972,-0.130444 0.478169,-1.100771 0.478169,-1.598847 0,-0.43644 -0.3716311,-0.45146 -0.6651221,-0.363055 -0.316486,0.09533 -0.2676759,0.135381 -0.3221499,0.986543 -0.04429,0.69198 -0.03113,0.829264 0.09055,0.944742 0.171261,0.162532 0.223008,0.166317 0.418555,0.03062 z"
       id="path3073"
       inkscape:connector-curvature="0"
       sodipodi:nodetypes="ccccccssssccccsccccccccccccc" />
    <path
       style="opacity:1;fill:#000000;fill-opacity:1;fill-rule:nonzero;stroke:#000000;stroke-width:0.61974633;stroke-linecap:square;stroke-miterlimit:4;stroke-dasharray:none;stroke-dashoffset:0;stroke-opacity:1;paint-order:markers fill stroke"
       d="m 3.5521601,97.914625 c -0.19355,-0.230438 -0.16492,-0.847562 0.11186,-2.411344 0.13403,-0.757226 0.28532,-2.028458 0.33621,-2.824958 0.10895,-1.705086 0.13796,-1.862768 0.35523,-1.930412 0.29085,-0.09055 0.34589,0.329593 0.28562,2.180095 -0.0973,2.986191 -0.26338,4.362942 -0.59349,4.918847 -0.15675,0.26398 -0.31271,0.285314 -0.49543,0.06777 z"
       id="path3075"
       inkscape:connector-curvature="0" />
    <path
       style="opacity:1;fill:#000000;fill-opacity:1;fill-rule:nonzero;stroke:#000000;stroke-width:0.60631478;stroke-linecap:square;stroke-miterlimit:4;stroke-dasharray:none;stroke-dashoffset:0;stroke-opacity:1;paint-order:markers fill stroke"
       d="m -2.1921299,97.938681 c 0,-0.573465 0.36859,-5.972084 0.43135,-6.317956 0.10613,-0.584805 0.30827,-0.821993 0.6255,-0.73397 0.27820005,0.07719 0.34104005,0.204704 0.61127005,1.24023 0.1184,0.453702 0.27306,0.888467 0.34369,0.966144 0.11421,0.125601 0.14626,0.117184 0.28961,-0.07606 0.0887,-0.119511 0.26182,-0.585577 0.3848,-1.035699 0.29506,-1.079901 0.39432,-1.242102 0.76008995,-1.242102 0.1601,0 0.31239,0.03808 0.33841,0.08462 0.0563,0.100829 0.18489,2.473263 0.26703,4.92911 l 0.059,1.765397 c 0,0 -0.18542,0.485031 -0.38192,0.472682 -0.17962,-0.01129 -0.29746,-0.472682 -0.29746,-0.472682 l -0.0499,-1.859555 c -0.0518,-1.928021 -0.11695,-2.424477 -0.31820995,-2.424477 -0.13697,0 -0.2362,0.198255 -0.59689,1.192493 -0.14401,0.396948 -0.32195,0.747226 -0.39544,0.7784 -0.18937,0.08034 -0.36721,-0.114845 -0.36932,-0.405332 -0.002,-0.234401 -0.36242,-1.481734 -0.45955,-1.589118 -0.10215005,-0.112926 -0.29569005,0.201093 -0.38008005,0.616683 -0.0494,0.243414 -0.11131,1.099303 -0.13751,1.901967 -0.0662,2.02652 -0.12002,2.25971 -0.52195,2.25971 -0.11138,0 -0.2025,-0.0227 -0.2025,-0.05049 z"
       id="path3077"
       inkscape:connector-curvature="0"
       sodipodi:nodetypes="cccccccscccaccsccccccscc" />
    <path
       style="opacity:1;fill:#000000;fill-opacity:1;fill-rule:nonzero;stroke:#000000;stroke-width:0.59999871;stroke-linecap:square;stroke-miterlimit:4;stroke-dasharray:none;stroke-dashoffset:0;stroke-opacity:1;paint-order:markers fill stroke"
       d="m 6.3049901,98.006372 c -0.10225,-0.08087 -0.11627,-0.188234 -0.13505,-1.033949 -0.0217,-0.977958 0.0878,-5.300673 0.14744,-5.820238 0.0266,-0.231865 0.0646,-0.310493 0.17688,-0.365861 0.32335,-0.159492 0.64627,-0.03852 0.80953,0.30327 0.046,0.09635 0.22004,0.660104 0.3867,1.252786 0.32223,1.145933 0.51111,1.68206 0.59261,1.68206 0.0744,0 0.20454,-0.307971 0.28222,-0.668088 0.0378,-0.174974 0.10496,-0.761943 0.14936,-1.30437 0.0444,-0.542427 0.10002,-1.038525 0.1236,-1.102452 0.0456,-0.123533 0.25398,-0.233725 0.44207,-0.233725 0.11016,0 0.11369,0.06536 0.1126,2.083805 -10e-4,2.331752 -0.0791,4.208927 -0.18983,4.575993 -0.0698,0.23144 -0.0874,0.244775 -0.34609,0.262904 -0.25329,0.01773 -0.28087,0.0044 -0.39021,-0.19088 -0.0647,-0.115493 -0.28214,-0.710715 -0.48319,-1.322724 -0.3649,-1.1108 -0.77782,-2.100463 -0.87637,-2.100463 -0.0287,0 -0.0691,0.393698 -0.0899,0.874882 -0.0907,2.097348 -0.182,2.856937 -0.37081,3.085949 -0.11125,0.134939 -0.19135,0.13989 -0.34152,0.0211 z"
       id="path18144"
       inkscape:connector-curvature="0" />
    <path
       style="opacity:1;fill:#000000;fill-opacity:1;fill-rule:nonzero;stroke:#000000;stroke-width:0.6;stroke-linecap:square;stroke-miterlimit:4;stroke-dasharray:none;stroke-dashoffset:0;stroke-opacity:1;paint-order:markers fill stroke"
       d="M -5.5700439,98.014099 C -6.1049819,97.688833 -6.423538,97.43532 -6.56249,96.166831 c 0.081267,-0.006 -0.3090385,-1.897371 0.00616,-5.341867 0.07944,-0.240468 0.6700743,-0.282384 0.7756263,-0.0276 0.084196,0.212658 -0.07293,1.759005 -0.058163,3.29874 0.0335,0.739578 0.09812,1.447304 0.154002,1.687168 0.369806,1.587237 1.079703,1.284412 1.307236,-0.557637 0.04631,-0.375052 0.1949464,-1.24318 0.123065,-1.92147 -0.2316896,-2.186279 -0.03986,-2.754489 0.444458,-2.651265 0.1670578,0.0356 0.24195,0.149518 0.28185,0.592389 0.0473,0.525168 0.1457148,3.438157 0.031055,4.460588 -0.16246,1.448207 -0.5668838,1.846162 -1.0809098,2.21623 -0.387308,0.278838 -0.645299,0.302766 -0.991929,0.092 z"
       id="path3111"
       inkscape:connector-curvature="0"
       sodipodi:nodetypes="cccccccssccccc" />
    <path
       style="opacity:1;fill:#000000;fill-opacity:1;fill-rule:nonzero;stroke:#000000;stroke-width:0.61210203;stroke-linecap:square;stroke-miterlimit:4;stroke-dasharray:none;stroke-dashoffset:0;stroke-opacity:1;paint-order:markers fill stroke"
       d="m 0.99629219,69.258437 c -0.381709,-0.819288 -0.379066,-0.838725 0.11371601,-0.838725 0.2269803,0 0.4127043,0.116007 0.4127043,0.257798 0,0.359873 0.571476,0.518324 1.046727,0.290216 0.757677,-0.363652 0.510809,-1.251208 -0.738338,-2.65461 -1.36966831,-1.538801 -1.48845131,-2.230397 -0.530611,-3.089402 0.890605,-0.798716 1.877379,-0.642673 2.136892,0.337915 0.138746,0.524264 -0.244455,0.75872 -0.575822,0.352317 -0.137162,-0.168232 -0.49452,-0.305868 -0.794113,-0.305868 -0.478467,0 -0.544735,0.07413 -0.544735,0.609461 0,0.460741 0.247729,0.872224 1.015191,1.686232 0.558355,0.592217 1.073203,1.284046 1.144104,1.537393 0.293612,1.049143 -0.788947,2.459052 -1.888119,2.459052 -0.373886,0 -0.57337,-0.160513 -0.79759631,-0.641779 z"
       id="path18205"
       inkscape:connector-curvature="0" />
    <path
       style="opacity:1;fill:#000000;fill-opacity:1;fill-rule:nonzero;stroke:#000000;stroke-width:0.60192984;stroke-linecap:square;stroke-miterlimit:4;stroke-dasharray:none;stroke-dashoffset:0;stroke-opacity:1;paint-order:markers fill stroke"
       d="m 17.105872,68.063646 c 9.2e-4,-2.571562 0.11057,-4.036927 0.3386,-4.524612 0.21683,-0.463728 0.60351,-0.758438 1.07047,-0.815867 0.33758,-0.04151 0.40066,-0.0156 0.66548,0.273342 0.16364,0.178533 0.33472,0.49002 0.38822,0.706813 0.10183,0.412596 0.21397,1.955671 0.30999,4.265631 0.0635,1.52791 0.0282,1.696552 -0.35527,1.696552 -0.26868,0 -0.34411,-0.196162 -0.39972,-1.039504 -0.0259,-0.392969 -0.0986,-0.83174 -0.16157,-0.975046 -0.0969,-0.220562 -0.16615,-0.260555 -0.45124,-0.260555 -0.4812,0 -0.55179,0.204356 -0.55333,1.60186 0.0523,0.759081 -0.23363,0.918919 -0.53076,0.91292 -0.29714,-0.006 -0.32111,-1.112264 -0.32087,-1.841534 z m 1.46643,-1.46715 c 0.17499,-0.05302 0.35691,-0.175407 0.40427,-0.271962 0.12122,-0.247119 0.1047,-1.250048 -0.031,-1.878914 -0.15779,-0.73155 -0.34358,-1.020715 -0.63235,-0.984226 -0.37977,0.04799 -0.47937,0.415136 -0.48221,1.777462 -0.002,1.074032 0.0138,1.204461 0.16273,1.323276 0.19661,0.156857 0.17792,0.155745 0.5785,0.03436 z"
       id="path3071-3"
       inkscape:connector-curvature="0"
       sodipodi:nodetypes="csccccsscsczccccccccc" />
    <path
       style="opacity:1;fill:#000000;fill-opacity:1;fill-rule:nonzero;stroke:#000000;stroke-width:0.5794158;stroke-linecap:square;stroke-miterlimit:4;stroke-dasharray:none;stroke-dashoffset:0;stroke-opacity:1;paint-order:markers fill stroke"
       d="m 41.663692,69.452766 c -0.99508,-1.731365 -1.0879,-3.450118 -0.95916,-6.605086 0.0628,-0.224726 0.40966,-0.193026 0.49307,0.04509 0.0665,0.198736 0.18209,0.566601 0.22972,2.515808 0.0265,0.69116 -0.006,0.870626 0.33744,2.072814 0.53413,2.004987 0.64175,2.005472 1.24878,-0.02503 0.33624,-1.059214 0.32686,-1.601355 0.38491,-2.235082 0.18847,-2.057322 0.26815,-2.503286 0.65088,-2.40682 0.13202,0.03327 0.16723,-0.01619 0.19876,0.39769 0.0374,0.490786 -0.0886,2.46183 -0.51483,4.296132 -0.47597,1.480966 -0.48393,1.356767 -0.85418,2.071139 -0.36834,0.55746 -0.83564,0.365111 -1.21539,-0.126644 z"
       id="path3111-5"
       inkscape:connector-curvature="0"
       sodipodi:nodetypes="ccccccssccccc" />
    <path
       style="opacity:1;fill:#000000;fill-opacity:1;fill-rule:nonzero;stroke:#000000;stroke-width:0.60000002;stroke-linecap:square;stroke-miterlimit:4;stroke-dasharray:none;stroke-dashoffset:0;stroke-opacity:1;paint-order:markers fill stroke"
       d="m -18.070056,96.304067 c 9.22e-4,-2.55333 0.110642,-4.008305 0.338833,-4.492533 0.216981,-0.46044 0.60393,-0.753061 1.071213,-0.810082 0.337808,-0.04122 0.400935,-0.01549 0.665945,0.271404 0.163744,0.177267 0.334948,0.486545 0.388489,0.701801 0.101897,0.409671 0.21411,1.941806 0.310195,4.235389 0.06356,1.517077 0.02822,1.684523 -0.355507,1.684523 -0.268869,0 -0.344352,-0.194771 -0.399999,-1.032134 -0.02593,-0.390183 -0.09869,-0.825843 -0.161683,-0.968133 -0.09696,-0.218998 -0.166265,-0.258708 -0.451552,-0.258708 -0.481531,0 -0.55217,0.202908 -0.553713,1.590503 0.05235,0.7537 -0.233792,0.912404 -0.531132,0.906448 -0.297339,-0.006 -0.321326,-1.104378 -0.321089,-1.828478 z m 1.467441,-1.456748 c 0.175112,-0.05264 0.357162,-0.174163 0.404556,-0.270034 0.1213,-0.245367 0.104768,-1.241185 -0.03097,-1.865592 -0.157904,-0.726364 -0.34382,-1.013479 -0.632795,-0.977248 -0.380027,0.04765 -0.479699,0.412192 -0.482538,1.76486 -0.0022,1.066417 0.01381,1.195921 0.162842,1.313894 0.196745,0.155745 0.178039,0.154641 0.578904,0.03412 z"
       id="path3071-3-6"
       inkscape:connector-curvature="0"
       sodipodi:nodetypes="csccccsscsczccccccccc" />
    <path
       style="opacity:1;fill:#000000;fill-opacity:1;fill-rule:nonzero;stroke:#000000;stroke-width:0.5790416;stroke-linecap:square;stroke-miterlimit:4;stroke-dasharray:none;stroke-dashoffset:0;stroke-opacity:1;paint-order:markers fill stroke"
       d="m 4.4308245,69.31387 c 0.04518,-0.698133 0.175769,-1.069018 1.234962,-3.507534 0.437728,-1.007749 0.795866,-1.862221 0.795866,-1.898827 0,-0.105417 -0.280599,-0.14935 -0.96035,-0.150361 -0.347098,-5.23e-4 -0.73398,-0.02026 -0.859739,-0.04389 -0.206439,-0.03877 -0.228657,-0.06755 -0.228657,-0.296083 0,-0.502005 0.161065,-0.5536 2.065112,-0.661528 l 0.857816,-0.04863 0.06775,0.167351 c 0.144564,0.357088 -0.14436,1.345562 -0.940642,3.218142 -0.797647,1.875784 -0.99963,2.457116 -0.903236,2.599632 0.08532,0.126132 0.537963,0.150682 1.274037,0.0691 0.224776,-0.02491 0.454101,-0.01893 0.509614,0.01329 0.127306,0.07389 0.113768,0.604379 -0.01859,0.727952 -0.09136,0.0853 -1.152072,0.237946 -2.354484,0.338821 l -0.576738,0.04839 z"
       id="path2132"
       inkscape:connector-curvature="0" />
    <path
       style="opacity:1;fill:#000000;fill-opacity:1;fill-rule:nonzero;stroke:#000000;stroke-width:0.58601314;stroke-linecap:square;stroke-miterlimit:4;stroke-dasharray:none;stroke-dashoffset:0;stroke-opacity:1;paint-order:markers fill stroke"
       d="m 10.29033,69.7267 c -0.20341,-0.386354 -0.3417395,-1.35514 -0.3493295,-2.446592 -0.009,-1.289599 -0.16815,-3.314098 -0.27303,-3.472758 -0.0446,-0.06729 -0.34507,-0.168725 -0.681806,-0.230089 -0.33124,-0.06036 -0.687629,-0.163263 -0.791977,-0.228673 -0.177908,-0.111519 -0.171547,-0.12873 0.102112,-0.276282 0.645928,-0.348271 3.5371905,-0.516178 3.8316405,-0.22252 0.10061,0.100295 0.0375,0.175998 -0.35552,0.427046 -0.26276,0.167827 -0.52778,0.414478 -0.58892,0.548112 -0.0612,0.133635 -0.11247,1.084814 -0.11407,2.113732 -0.003,1.877746 -0.10896,2.993359 -0.34387,3.617761 -0.15945,0.423771 -0.27744,0.469934 -0.43523,0.170263 z"
       id="path2134"
       inkscape:connector-curvature="0" />
    <path
       style="opacity:1;fill:#000000;fill-opacity:1;fill-rule:nonzero;stroke:#000000;stroke-width:0.59365922;stroke-linecap:square;stroke-miterlimit:4;stroke-dasharray:none;stroke-dashoffset:0;stroke-opacity:1;paint-order:markers fill stroke"
       d="m 28.188662,69.826416 c -0.10246,-0.07901 -0.1165,-0.183915 -0.13532,-1.010229 -0.0217,-0.955523 0.088,-5.179073 0.14773,-5.686719 0.0266,-0.226546 0.0647,-0.30337 0.17723,-0.357468 0.32398,-0.155833 0.64754,-0.03764 0.81112,0.296313 0.0461,0.09414 0.22047,0.644961 0.38746,1.224047 0.32286,1.119644 0.51211,1.643472 0.59377,1.643472 0.0746,0 0.20495,-0.300906 0.28278,-0.652761 0.0379,-0.17096 0.10516,-0.744464 0.14965,-1.274447 0.0445,-0.529984 0.10022,-1.014701 0.12385,-1.077162 0.0457,-0.120699 0.25447,-0.228363 0.44293,-0.228363 0.11038,0 0.11392,0.06386 0.11283,2.036002 -0.001,2.27826 -0.0793,4.112371 -0.19021,4.471017 -0.0699,0.22613 -0.0876,0.239159 -0.34677,0.256873 -0.25379,0.01732 -0.28142,0.0043 -0.39098,-0.186502 -0.0648,-0.112843 -0.28269,-0.69441 -0.48413,-1.29238 -0.36562,-1.085317 -0.77935,-2.052277 -0.8781,-2.052277 -0.0288,0 -0.0692,0.384667 -0.0901,0.854812 -0.0909,2.049234 -0.18236,2.791397 -0.37154,3.015156 -0.11147,0.131843 -0.19173,0.13668 -0.34219,0.02062 z"
       id="path18144-2"
       inkscape:connector-curvature="0" />
    <path
       style="opacity:1;fill:#000000;fill-opacity:1;fill-rule:nonzero;stroke:#000000;stroke-width:0.61492908;stroke-linecap:square;stroke-miterlimit:4;stroke-dasharray:none;stroke-dashoffset:0;stroke-opacity:1;paint-order:markers fill stroke"
       d="m 25.756642,69.753352 c -0.1943,-0.225986 -0.16556,-0.831185 0.1123,-2.36475 0.13456,-0.742594 0.28644,-1.989262 0.33753,-2.770371 0.10937,-1.672138 0.1385,-1.826774 0.35662,-1.89311 0.29199,-0.0888 0.34724,0.323224 0.28673,2.137968 -0.0977,2.928489 -0.26441,4.278637 -0.59581,4.8238 -0.15736,0.258879 -0.31393,0.279801 -0.49737,0.06646 z"
       id="path3075-9"
       inkscape:connector-curvature="0" />
    <path
       style="opacity:1;fill:#000000;fill-opacity:1;fill-rule:nonzero;stroke:#000000;stroke-width:0.61210203;stroke-linecap:square;stroke-miterlimit:4;stroke-dasharray:none;stroke-dashoffset:0;stroke-opacity:1;paint-order:markers fill stroke"
       d="m 32.777892,69.258437 c -0.38171,-0.819288 -0.37906,-0.838725 0.11372,-0.838725 0.22698,0 0.4127,0.116007 0.4127,0.257798 0,0.359873 0.57148,0.518324 1.04673,0.290216 0.75768,-0.363652 0.51081,-1.251208 -0.73834,-2.65461 -1.36967,-1.538801 -1.48845,-2.230397 -0.53061,-3.089402 0.89061,-0.798716 1.87738,-0.642673 2.13689,0.337915 0.13875,0.524264 -0.24445,0.75872 -0.57582,0.352317 -0.13716,-0.168232 -0.49452,-0.305868 -0.79411,-0.305868 -0.47847,0 -0.54474,0.07413 -0.54474,0.609461 0,0.460741 0.24773,0.872224 1.01519,1.686232 0.55836,0.592217 1.07321,1.284046 1.14411,1.537393 0.29361,1.049143 -0.78895,2.459052 -1.88812,2.459052 -0.37389,0 -0.57337,-0.160513 -0.7976,-0.641779 z"
       id="path18205-1"
       inkscape:connector-curvature="0" />
    <path
       style="opacity:1;fill:#000000;fill-opacity:1;fill-rule:nonzero;stroke:#000000;stroke-width:0.60192984;stroke-linecap:square;stroke-miterlimit:4;stroke-dasharray:none;stroke-dashoffset:0;stroke-opacity:1;paint-order:markers fill stroke"
       d="m 36.694662,68.063646 c 9.2e-4,-2.571562 0.11057,-4.036927 0.3386,-4.524612 0.21683,-0.463728 0.60351,-0.758438 1.07047,-0.815867 0.33758,-0.04151 0.40066,-0.0156 0.66548,0.273342 0.16364,0.178533 0.33472,0.49002 0.38822,0.706813 0.10183,0.412596 0.21397,1.955671 0.30999,4.265631 0.0635,1.52791 0.0282,1.696552 -0.35527,1.696552 -0.26868,0 -0.34411,-0.196162 -0.39972,-1.039504 -0.0259,-0.392969 -0.0986,-0.83174 -0.16157,-0.975046 -0.0969,-0.220562 -0.16615,-0.260555 -0.45124,-0.260555 -0.4812,0 -0.55179,0.204356 -0.55333,1.60186 0.0523,0.759081 -0.23363,0.918919 -0.53076,0.91292 -0.29714,-0.006 -0.32111,-1.112264 -0.32087,-1.841534 z m 1.46643,-1.46715 c 0.17499,-0.05302 0.35691,-0.175407 0.40427,-0.271962 0.12122,-0.247119 0.1047,-1.250048 -0.031,-1.878914 -0.15779,-0.73155 -0.34358,-1.020715 -0.63235,-0.984226 -0.37977,0.04799 -0.47937,0.415136 -0.48221,1.777462 -0.002,1.074032 0.0138,1.204461 0.16273,1.323276 0.19661,0.156857 0.17792,0.155745 0.5785,0.03436 z"
       id="path3071-3-2"
       inkscape:connector-curvature="0"
       sodipodi:nodetypes="csccccsscsczccccccccc" />
    <path
       style="opacity:1;fill:#000000;fill-opacity:1;fill-rule:nonzero;stroke:#000000;stroke-width:0.52773076;stroke-linecap:square;stroke-miterlimit:4;stroke-dasharray:none;stroke-dashoffset:0;stroke-opacity:1;paint-order:markers fill stroke"
       d="M 13.473566,69.662767 C 13.348008,69.139679 13.269021,66.7285 13.312852,64.756744 l 0.04435,-1.998628 0.683702,-0.04518 c 1.041318,-0.06879 1.699688,-0.05429 1.820498,0.04015 0.15237,0.11909 0.13644,0.519381 -0.0248,0.623993 -0.0737,0.04781 -0.43184,0.1077 -0.79588,0.13311 l -0.661884,0.0462 v 0.853064 c 0,1.128291 0.0322,1.206663 0.537034,1.306008 0.39049,0.07684 0.40575,0.0904 0.50372,0.447501 0.11416,0.415999 0.0742,0.47798 -0.38532,0.596627 -0.42324,0.109296 -0.624109,0.474293 -0.67657,1.229362 -0.05481,0.788485 0.04612,0.893511 0.92956,0.967451 0.66891,0.05599 0.73759,0.109837 0.64296,0.504089 -0.0763,0.318269 -0.20243,0.355374 -1.42607,0.419857 l -0.966173,0.05092 z"
       id="path2211"
       inkscape:connector-curvature="0" />
    <path
       style="opacity:1;fill:#000000;fill-opacity:1;fill-rule:nonzero;stroke:#000000;stroke-width:0.58624232;stroke-linecap:square;stroke-miterlimit:4;stroke-dasharray:none;stroke-dashoffset:0;stroke-opacity:1;paint-order:markers fill stroke"
       d="m 21.189852,69.633724 c -0.13369,-0.318054 -0.1557,-3.009792 -0.044,-5.379796 0.20752,-1.053975 -0.26645,-1.526879 1.04958,-1.554443 1.0954,0.0346 1.65819,0.19959 1.91668,0.561893 0.0849,0.118938 0.17095,0.604176 0.20273,1.142637 0.0845,1.432363 -0.24921,1.9816 -1.41033,2.320938 -0.19988,0.05842 2.24587,3.011212 1.35358,3.114191 -0.42389,0.04893 -2.04215,-3.65375 -2.27175,-1.397221 -0.0951,1.047728 -0.2486,1.471212 -0.53325,1.471212 -0.0801,0 -0.19861,-0.125735 -0.26321,-0.279408 z m 1.90512,-3.667395 c 0.30213,-0.106829 0.5833,-0.639474 0.6501,-1.231571 0.10108,-0.896199 -0.28886,-1.454073 -1.01488,-1.451785 -0.19917,7.38e-4 -0.42648,0.02813 -0.50515,0.06113 -0.25712,0.107822 -0.36446,0.554087 -0.36446,1.515241 0,0.75989 0.0347,0.96811 0.17722,1.062244 0.19876,0.131325 0.74671,0.154521 1.05717,0.04475 z"
       id="path2213"
       inkscape:connector-curvature="0"
       sodipodi:nodetypes="ccccccscsccccccsccc" />
    <path
       style="opacity:1;fill:#000000;fill-opacity:1;fill-rule:nonzero;stroke:#000000;stroke-width:0.59999871;stroke-linecap:square;stroke-miterlimit:4;stroke-dasharray:none;stroke-dashoffset:0;stroke-opacity:1;paint-order:markers fill stroke"
       d="m 13.708596,137.48624 c -0.10225,-0.0809 -0.11627,-0.18824 -0.13505,-1.03395 -0.0217,-0.97796 0.0878,-5.30067 0.14744,-5.82024 0.0266,-0.23186 0.0646,-0.31049 0.17688,-0.36586 0.32335,-0.15949 0.64627,-0.0385 0.80953,0.30327 0.046,0.0964 0.22004,0.6601 0.3867,1.25279 0.32223,1.14593 0.51111,1.68206 0.59261,1.68206 0.0744,0 0.20454,-0.30797 0.28222,-0.66809 0.0378,-0.17498 0.10496,-0.76194 0.14936,-1.30437 0.0444,-0.54243 0.10002,-1.03853 0.1236,-1.10245 0.0456,-0.12354 0.25398,-0.23373 0.44207,-0.23373 0.11016,0 0.11369,0.0654 0.1126,2.08381 -10e-4,2.33175 -0.0791,4.20892 -0.18983,4.57599 -0.0698,0.23144 -0.0874,0.24477 -0.34609,0.2629 -0.25329,0.0177 -0.28087,0.004 -0.39021,-0.19088 -0.0647,-0.11549 -0.28214,-0.71071 -0.48319,-1.32272 -0.3649,-1.1108 -0.77782,-2.10046 -0.87637,-2.10046 -0.0287,0 -0.0691,0.39369 -0.0899,0.87488 -0.0907,2.09735 -0.182,2.85694 -0.37081,3.08595 -0.11125,0.13494 -0.19135,0.13989 -0.34152,0.0211 z"
       id="path18144-7"
       inkscape:connector-curvature="0" />
    <path
       style="opacity:1;fill:#000000;fill-opacity:1;fill-rule:nonzero;stroke:#000000;stroke-width:0.61210203;stroke-linecap:square;stroke-miterlimit:4;stroke-dasharray:none;stroke-dashoffset:0;stroke-opacity:1;paint-order:markers fill stroke"
       d="m 18.419269,136.83561 c -0.38171,-0.81928 -0.37906,-0.83872 0.11372,-0.83872 0.22698,0 0.4127,0.11601 0.4127,0.2578 0,0.35987 0.57148,0.51832 1.04673,0.29021 0.75768,-0.36365 0.51081,-1.2512 -0.73834,-2.65461 -1.36967,-1.5388 -1.48845,-2.23039 -0.53061,-3.0894 0.89061,-0.79872 1.87738,-0.64267 2.13689,0.33792 0.13875,0.52426 -0.24445,0.75872 -0.57582,0.35231 -0.13716,-0.16823 -0.49452,-0.30587 -0.79411,-0.30587 -0.47847,0 -0.54474,0.0741 -0.54474,0.60947 0,0.46074 0.24773,0.87222 1.01519,1.68623 0.55836,0.59222 1.07321,1.28404 1.14411,1.53739 0.29361,1.04914 -0.78895,2.45905 -1.88812,2.45905 -0.37389,0 -0.57337,-0.16051 -0.7976,-0.64178 z"
       id="path18205-1-0"
       inkscape:connector-curvature="0" />
    <path
       style="opacity:1;fill:#000000;fill-opacity:1;fill-rule:nonzero;stroke:#000000;stroke-width:0.60000002;stroke-linecap:square;stroke-miterlimit:4;stroke-dasharray:none;stroke-dashoffset:0;stroke-opacity:1;paint-order:markers fill stroke"
       d="m 8.9249238,130.45754 c 0.335914,-0.41944 2.3721322,-0.27909 3.0916462,0.92616 0.692807,1.16052 -0.141827,4.8429 -1.045073,5.62531 -0.501426,0.43435 -1.5821862,0.81749 -1.8544402,0.16415 -0.272254,-0.65335 -0.528047,-6.29617 -0.192133,-6.71562 z m 1.2954362,6.30704 c 0.361346,-0.0926 1.53719,-1.75027 1.442312,-3.62525 -0.09488,-1.87499 -1.118971,-2.77146 -1.9635042,-2.5046 -0.670501,0.21186 -0.224029,1.35955 -0.237057,3.42213 0.02385,2.90859 0.432579,2.7912 0.7582492,2.70772 z"
       id="path2269-9"
       inkscape:connector-curvature="0"
       sodipodi:nodetypes="zsczzszscs" />
    <path
       style="opacity:1;fill:#000000;fill-opacity:1;fill-rule:nonzero;stroke:#000000;stroke-width:0.60000002;stroke-linecap:square;stroke-miterlimit:4;stroke-dasharray:none;stroke-dashoffset:0;stroke-opacity:1;paint-order:markers fill stroke"
       d="m -13.634994,118.7177 c 9.22e-4,-2.55333 0.110642,-4.00831 0.338833,-4.49254 0.216981,-0.46044 0.60393,-0.75306 1.071213,-0.81008 0.337808,-0.0412 0.400935,-0.0155 0.665945,0.2714 0.163744,0.17727 0.334948,0.48655 0.388489,0.70181 0.101897,0.40967 0.21411,1.9418 0.310195,4.23538 0.06356,1.51709 0.02822,1.68453 -0.355507,1.68453 -0.268869,0 -0.344352,-0.19477 -0.399999,-1.03214 -0.02593,-0.39018 -0.09869,-0.82584 -0.161683,-0.96813 -0.09696,-0.219 -0.166265,-0.25871 -0.451552,-0.25871 -0.481531,0 -0.55217,0.20291 -0.553713,1.59051 0.05235,0.7537 -0.233792,0.91241 -0.531132,0.90645 -0.297339,-0.006 -0.321326,-1.10439 -0.321089,-1.82848 z m 1.467441,-1.45675 c 0.175112,-0.0526 0.357162,-0.17417 0.404556,-0.27004 0.1213,-0.24536 0.104768,-1.24118 -0.03097,-1.86559 -0.157904,-0.72636 -0.34382,-1.01348 -0.632795,-0.97725 -0.380027,0.0477 -0.479699,0.4122 -0.482538,1.76486 -0.0022,1.06642 0.01381,1.19592 0.162842,1.3139 0.196745,0.15574 0.178039,0.15464 0.578904,0.0341 z"
       id="path3071-3-6-3"
       inkscape:connector-curvature="0"
       sodipodi:nodetypes="csccccsscsczccccccccc" />
    <path
       style="opacity:1;fill:#000000;fill-opacity:1;fill-rule:nonzero;stroke:#000000;stroke-width:0.5790416;stroke-linecap:square;stroke-miterlimit:4;stroke-dasharray:none;stroke-dashoffset:0;stroke-opacity:1;paint-order:markers fill stroke"
       d="m -9.3141662,119.98722 c 0.04518,-0.69814 0.175769,-1.06902 1.234962,-3.50754 0.437732,-1.00775 0.795873,-1.86222 0.795873,-1.89883 0,-0.10541 -0.280601,-0.14935 -0.960357,-0.15036 -0.347098,-5.2e-4 -0.73398,-0.0203 -0.859739,-0.0439 -0.206439,-0.0388 -0.228657,-0.0675 -0.228657,-0.29608 0,-0.50201 0.161065,-0.5536 2.065113,-0.66153 l 0.85781,-0.0486 0.0678,0.16735 c 0.14456,0.35709 -0.14435,1.34556 -0.94063,3.21814 -0.797651,1.87579 -0.999634,2.45712 -0.90324,2.59964 0.08532,0.12613 0.537962,0.15068 1.27404,0.0691 0.22477,-0.0249 0.4541,-0.0189 0.50961,0.0133 0.1273,0.0739 0.11376,0.60438 -0.0186,0.72795 -0.0914,0.0853 -1.152068,0.23795 -2.354483,0.33882 l -0.576738,0.0484 z"
       id="path2132-6"
       inkscape:connector-curvature="0" />
    <path
       style="opacity:1;fill:#000000;fill-opacity:1;fill-rule:nonzero;stroke:#000000;stroke-width:0.52773076;stroke-linecap:square;stroke-miterlimit:4;stroke-dasharray:none;stroke-dashoffset:0;stroke-opacity:1;paint-order:markers fill stroke"
       d="m -4.6995312,120.33613 c -0.12556,-0.52309 -0.20454,-2.93427 -0.16071,-4.90602 l 0.0443,-1.99863 0.6837,-0.0452 c 1.04132,-0.0688 1.69969,-0.0543 1.8205,0.0401 0.15237,0.11909 0.13644,0.51938 -0.0248,0.62399 -0.0737,0.0478 -0.43184,0.1077 -0.79588,0.13311 l -0.66189,0.0462 v 0.85307 c 0,1.12829 0.0322,1.20666 0.53704,1.306 0.39049,0.0768 0.40575,0.0904 0.50372,0.44751 0.11416,0.41599 0.0742,0.47798 -0.38532,0.59662 -0.42324,0.1093 -0.62411,0.4743 -0.67657,1.22936 -0.0548,0.78849 0.0461,0.89351 0.92956,0.96745 0.66891,0.056 0.73759,0.10984 0.64296,0.50409 -0.0763,0.31827 -0.20243,0.35538 -1.42607,0.41986 l -0.96618,0.0509 z"
       id="path2211-0"
       inkscape:connector-curvature="0" />
    <path
       style="opacity:1;fill:#000000;fill-opacity:1;fill-rule:nonzero;stroke:#000000;stroke-width:0.61492908;stroke-linecap:square;stroke-miterlimit:4;stroke-dasharray:none;stroke-dashoffset:0;stroke-opacity:1;paint-order:markers fill stroke"
       d="m -0.63801123,120.42671 c -0.1943,-0.22599 -0.16556,-0.83119 0.1123,-2.36476 0.13456,-0.74259 0.28644,-1.98926 0.33753,-2.77037 0.10937,-1.67214 0.1385,-1.82677 0.35662,-1.89311 0.29199,-0.0888 0.34724,0.32323 0.28673,2.13797 -0.0977,2.92849 -0.26441,4.27864 -0.59581,4.8238 -0.15736,0.25888 -0.31393,0.2798 -0.49737,0.0665 z"
       id="path3075-9-6"
       inkscape:connector-curvature="0" />
    <path
       style="opacity:1;fill:#000000;fill-opacity:1;fill-rule:nonzero;stroke:#000000;stroke-width:0.59365928;stroke-linecap:square;stroke-miterlimit:4;stroke-dasharray:none;stroke-dashoffset:0;stroke-opacity:1;paint-order:markers fill stroke"
       d="m 2.0908164,120.49249 c -0.10246,-0.079 -0.1165,-0.18391 -0.13532,-1.01023 -0.0217,-0.95552 0.088,-5.17907 0.14773,-5.68671 0.0266,-0.22655 0.0647,-0.30337 0.17723,-0.35747 0.32398,-0.15583 0.64754,-0.0376 0.81112,0.29631 0.0461,0.0941 0.22047,0.64496 0.38746,1.22405 0.32286,1.11964 0.51211,1.64347 0.59377,1.64347 0.0746,0 0.20495,-0.30091 0.28278,-0.65276 0.0379,-0.17096 0.10516,-0.74446 0.14965,-1.27445 0.0445,-0.52998 0.10022,-1.0147 0.12385,-1.07716 0.0457,-0.1207 0.25447,-0.22836 0.44293,-0.22836 0.11038,0 0.11392,0.0639 0.11283,2.036 -10e-4,2.27826 -0.0793,4.11237 -0.19021,4.47101 -0.0699,0.22613 -0.0876,0.23916 -0.34677,0.25688 -0.25379,0.0173 -0.28142,0.004 -0.39098,-0.18651 -0.0648,-0.11284 -0.28269,-0.69441 -0.48413,-1.29237 -0.36562,-1.08532 -0.77935,-2.05228 -0.8781,-2.05228 -0.0288,0 -0.0692,0.38467 -0.0901,0.85481 -0.0909,2.04923 -0.18236,2.7914 -0.37154,3.01516 -0.11147,0.13184 -0.19173,0.13668 -0.34219,0.0206 z"
       id="path18144-2-2"
       inkscape:connector-curvature="0" />
    <path
       style="opacity:1;fill:#000000;fill-opacity:1;fill-rule:nonzero;stroke:#000000;stroke-width:0.60000002;stroke-linecap:square;stroke-miterlimit:4;stroke-dasharray:none;stroke-dashoffset:0;stroke-opacity:1;paint-order:markers fill stroke"
       d="m -18.919917,118.21002 c 0.138349,-2.89334 0.354516,-4.68928 0.585067,-4.86078 0.08934,-0.0665 0.255591,-0.078 0.369452,-0.0257 0.153051,0.0704 0.177326,0.4159 0.09311,1.32544 -0.09509,1.02703 -0.06999,1.26294 0.151949,1.42803 0.528722,0.39333 0.915821,0.0167 1.277487,-1.24274 0.357566,-1.2452 0.518956,-1.57742 0.766304,-1.57742 0.401143,0 0.305519,1.11336 -0.197244,2.29652 l -0.445163,1.04762 0.455122,0.64712 c 0.69912,0.99405 1.020377,3.01333 0.502904,3.16106 -0.374415,0.10688 -0.514052,-0.11035 -0.637998,-0.99247 -0.181398,-1.29107 -0.975343,-2.23563 -1.627216,-1.93593 -0.281959,0.12963 -0.514786,0.97525 -0.515774,1.87325 -9.64e-4,0.92975 -0.194933,1.34828 -0.624669,1.34828 -0.245077,0 -0.260512,-0.25089 -0.153336,-2.49232 z"
       id="path2391"
       inkscape:connector-curvature="0" />
  </g>
</svg>
