<?xml version="1.0" encoding="UTF-8" standalone="no"?>
<!-- Created with Inkscape (http://www.inkscape.org/) -->

<svg
   xmlns:dc="http://purl.org/dc/elements/1.1/"
   xmlns:cc="http://creativecommons.org/ns#"
   xmlns:rdf="http://www.w3.org/1999/02/22-rdf-syntax-ns#"
   xmlns:svg="http://www.w3.org/2000/svg"
   xmlns="http://www.w3.org/2000/svg"
   xmlns:sodipodi="http://sodipodi.sourceforge.net/DTD/sodipodi-0.dtd"
   xmlns:inkscape="http://www.inkscape.org/namespaces/inkscape"
   width="150.588mm"
   height="150.588mm"
   viewBox="0 0 150.588 150.588"
   version="1.1"
   id="svg33920"
   inkscape:version="0.92.3 (2405546, 2018-03-11)"
   sodipodi:docname="organogenicelements2mod.svg">
  <defs
     id="defs33914">
    <inkscape:path-effect
       is_visible="true"
       id="path-effect18285"
       effect="spiro" />
    <inkscape:path-effect
       simplifyJustCoalesce="false"
       simplifyindividualpaths="false"
       simplify_just_coalesce="false"
       simplify_individual_paths="false"
       helper_size="0"
       smooth_angles="360"
       threshold="0.0175585"
       steps="1"
       is_visible="true"
       id="path-effect18283"
       effect="simplify" />
    <inkscape:path-effect
       is_visible="true"
       id="path-effect15028"
       effect="spiro" />
    <inkscape:path-effect
       simplifyJustCoalesce="false"
       simplifyindividualpaths="false"
       simplify_just_coalesce="false"
       simplify_individual_paths="false"
       helper_size="0"
       smooth_angles="360"
       threshold="0.0175585"
       steps="1"
       is_visible="true"
       id="path-effect15026"
       effect="simplify" />
    <inkscape:path-effect
       is_visible="true"
       id="path-effect15014"
       effect="spiro" />
    <inkscape:path-effect
       simplifyJustCoalesce="false"
       simplifyindividualpaths="false"
       simplify_just_coalesce="false"
       simplify_individual_paths="false"
       helper_size="0"
       smooth_angles="360"
       threshold="0.0175585"
       steps="1"
       is_visible="true"
       id="path-effect15012"
       effect="simplify" />
    <inkscape:path-effect
       effect="spiro"
       id="path-effect14989"
       is_visible="true" />
    <inkscape:path-effect
       effect="simplify"
       id="path-effect14987"
       is_visible="true"
       steps="1"
       threshold="0.0175585"
       smooth_angles="360"
       helper_size="0"
       simplify_individual_paths="false"
       simplify_just_coalesce="false"
       simplifyindividualpaths="false"
       simplifyJustCoalesce="false" />
    <inkscape:path-effect
       effect="bspline"
       id="path-effect14983"
       is_visible="true"
       weight="33.333333"
       steps="2"
       helper_size="0"
       apply_no_weight="true"
       apply_with_weight="true"
       only_selected="false" />
    <inkscape:path-effect
       effect="simplify"
       id="path-effect14981"
       is_visible="true"
       steps="1"
       threshold="0.00557252"
       smooth_angles="360"
       helper_size="0"
       simplify_individual_paths="false"
       simplify_just_coalesce="false"
       simplifyindividualpaths="false"
       simplifyJustCoalesce="false" />
    <inkscape:path-effect
       effect="bspline"
       id="path-effect14969"
       is_visible="true"
       weight="33.333333"
       steps="2"
       helper_size="0"
       apply_no_weight="true"
       apply_with_weight="true"
       only_selected="false" />
    <inkscape:path-effect
       effect="simplify"
       id="path-effect14967"
       is_visible="true"
       steps="1"
       threshold="0.00557252"
       smooth_angles="360"
       helper_size="0"
       simplify_individual_paths="false"
       simplify_just_coalesce="false"
       simplifyindividualpaths="false"
       simplifyJustCoalesce="false" />
    <inkscape:path-effect
       simplifyJustCoalesce="false"
       simplifyindividualpaths="false"
       simplify_just_coalesce="false"
       simplify_individual_paths="false"
       helper_size="0"
       smooth_angles="360"
       threshold="0.00557252"
       steps="1"
       is_visible="true"
       id="path-effect2435"
       effect="simplify" />
    <inkscape:path-effect
       only_selected="false"
       apply_with_weight="true"
       apply_no_weight="true"
       helper_size="0"
       steps="2"
       weight="33.333333"
       is_visible="true"
       id="path-effect2437"
       effect="bspline" />
    <inkscape:path-effect
       simplifyJustCoalesce="false"
       simplifyindividualpaths="false"
       simplify_just_coalesce="false"
       simplify_individual_paths="false"
       helper_size="0"
       smooth_angles="360"
       threshold="0.00557252"
       steps="1"
       is_visible="true"
       id="path-effect2435-3"
       effect="simplify" />
    <inkscape:path-effect
       only_selected="false"
       apply_with_weight="true"
       apply_no_weight="true"
       helper_size="0"
       steps="2"
       weight="33.333333"
       is_visible="true"
       id="path-effect2437-6"
       effect="bspline" />
    <inkscape:path-effect
       simplifyJustCoalesce="false"
       simplifyindividualpaths="false"
       simplify_just_coalesce="false"
       simplify_individual_paths="false"
       helper_size="0"
       smooth_angles="360"
       threshold="0.00557252"
       steps="1"
       is_visible="true"
       id="path-effect2435-5"
       effect="simplify" />
    <inkscape:path-effect
       only_selected="false"
       apply_with_weight="true"
       apply_no_weight="true"
       helper_size="0"
       steps="2"
       weight="33.333333"
       is_visible="true"
       id="path-effect2437-3"
       effect="bspline" />
    <inkscape:path-effect
       effect="simplify"
       id="path-effect14987-6"
       is_visible="true"
       steps="1"
       threshold="0.0175585"
       smooth_angles="360"
       helper_size="0"
       simplify_individual_paths="false"
       simplify_just_coalesce="false"
       simplifyindividualpaths="false"
       simplifyJustCoalesce="false" />
    <inkscape:path-effect
       effect="spiro"
       id="path-effect14989-2"
       is_visible="true" />
    <inkscape:path-effect
       effect="simplify"
       id="path-effect14987-1"
       is_visible="true"
       steps="1"
       threshold="0.0175585"
       smooth_angles="360"
       helper_size="0"
       simplify_individual_paths="false"
       simplify_just_coalesce="false"
       simplifyindividualpaths="false"
       simplifyJustCoalesce="false" />
    <inkscape:path-effect
       effect="spiro"
       id="path-effect14989-27"
       is_visible="true" />
    <inkscape:path-effect
       effect="simplify"
       id="path-effect14987-9"
       is_visible="true"
       steps="1"
       threshold="0.0175585"
       smooth_angles="360"
       helper_size="0"
       simplify_individual_paths="false"
       simplify_just_coalesce="false"
       simplifyindividualpaths="false"
       simplifyJustCoalesce="false" />
    <inkscape:path-effect
       effect="spiro"
       id="path-effect14989-3"
       is_visible="true" />
  </defs>
  <sodipodi:namedview
     id="base"
     pagecolor="#ffffff"
     bordercolor="#666666"
     borderopacity="1.0"
     inkscape:pageopacity="0.0"
     inkscape:pageshadow="2"
     inkscape:zoom="1.0149882"
     inkscape:cx="326.66409"
     inkscape:cy="282.69884"
     inkscape:document-units="mm"
     inkscape:current-layer="layer1"
     showgrid="false"
     inkscape:window-width="1366"
     inkscape:window-height="719"
     inkscape:window-x="0"
     inkscape:window-y="25"
     inkscape:window-maximized="1"
     inkscape:snap-others="false" />
  <metadata
     id="metadata33917">
    <rdf:RDF>
      <cc:Work
         rdf:about="">
        <dc:format>image/svg+xml</dc:format>
        <dc:type
           rdf:resource="http://purl.org/dc/dcmitype/StillImage" />
        <dc:title></dc:title>
      </cc:Work>
    </rdf:RDF>
  </metadata>
  <g
     inkscape:label="Layer 1"
     inkscape:groupmode="layer"
     id="layer1"
     transform="translate(83.609483,-46.325049)">
    <path
       style="fill:none;stroke:#18b600;stroke-width:2.71240973;stroke-linecap:butt;stroke-linejoin:miter;stroke-miterlimit:4;stroke-dasharray:none;stroke-opacity:1"
       d="M 5.8270187,77.799704 C -0.69526393,71.606082 -9.6222218,68.013156 -18.61658,67.961635 c -8.994358,-0.05152 -17.96189,3.438903 -24.554698,9.5574 -6.789249,6.300806 -10.86145,14.951238 -14.297071,23.553015 -1.613851,4.0406 -3.137016,8.17518 -3.610565,12.50031 -0.473549,4.32513 0.192276,8.9121 2.653585,12.49999 2.637556,3.84481 7.042849,6.14812 11.537627,7.38756 4.494777,1.23945 9.183825,1.55733 13.786132,2.30434 5.482214,0.88983 10.869554,2.39391 16.400862,2.89502 5.531307,0.5011 11.3850312,-0.0957 16.06327912,-3.08909 2.96764618,-1.89887 5.30799478,-4.67123 7.06090898,-7.72735 1.7529142,-3.05613 2.9473745,-6.40006 3.9504469,-9.7774 2.547183,-8.57636 3.907537,-17.7496 1.922762,-26.473299 -1.135283,-4.98992 -3.3584385,-9.729373 -6.4696703,-13.792427 z"
       id="path14985"
       inkscape:connector-curvature="0"
       inkscape:path-effect="#path-effect14987;#path-effect14989"
       inkscape:original-d="m 5.8270187,77.799704 c -14.2185442,-0.371161 -44.2396447,-8.013348 -55.5313277,4.022791 -3.459679,3.687775 -7.649796,17.783372 -8.626227,22.987375 -0.694799,3.70304 -2.71866,16.6169 -1.078275,20.11397 0.969499,2.06684 0.934267,0.42118 2.156557,1.72405 11.794668,12.5723 32.317065,8.62026 47.9833815,8.62026 3.879207,0 11.7597648,1.71246 14.0176163,-2.29873 6.1527782,-10.93072 7.5479452,-22.85135 7.5479452,-35.630444 0,-1.184357 0.56263,-4.547402 0,-5.746845 C 10.670768,88.12589 6.6555765,81.332432 5.8270187,77.799704 Z" />
    <path
       style="fill:none;stroke:#00887a;stroke-width:2.71240973;stroke-linecap:butt;stroke-linejoin:miter;stroke-miterlimit:4;stroke-dasharray:none;stroke-opacity:1"
       d="m -21.634301,84.944171 c 6.522283,-6.193622 15.449241,-9.786547 24.4435989,-9.838067 8.9943581,-0.05152 17.9618901,3.438903 24.5546981,9.5574 6.789249,6.300806 10.86145,14.951239 14.297071,23.553016 1.613851,4.0406 3.137016,8.17518 3.610565,12.50031 0.473549,4.32513 -0.192276,8.9121 -2.653585,12.49999 -2.637556,3.84481 -7.042849,6.14812 -11.537627,7.38756 -4.494777,1.23945 -9.183825,1.55733 -13.786132,2.30434 -5.482214,0.88983 -10.8695545,2.39391 -16.40086226,2.89502 -5.53130784,0.5011 -11.38503174,-0.0957 -16.06327974,-3.08909 -2.967646,-1.89887 -5.307995,-4.67123 -7.06091,-7.72735 -1.752914,-3.05613 -2.947374,-6.40005 -3.950447,-9.7774 -2.547183,-8.57637 -3.907537,-17.74961 -1.922762,-26.473301 1.135284,-4.98992 3.358439,-9.729374 6.469672,-13.792428 z"
       id="path14985-9"
       inkscape:connector-curvature="0"
       inkscape:path-effect="#path-effect15012;#path-effect15014"
       inkscape:original-d="m -21.634301,84.944171 c 14.218545,-0.371156 44.239645,-8.013344 55.531328,4.022792 3.45968,3.687779 7.649796,17.783367 8.626227,22.987377 0.694799,3.70304 2.71866,16.61689 1.078275,20.11397 -0.969499,2.06684 -0.934267,0.42118 -2.156557,1.72405 -11.794668,12.57229 -32.3170646,8.62026 -47.9833825,8.62026 -3.8792065,0 -11.7597645,1.71246 -14.0176155,-2.29873 -6.15278,-10.93072 -7.547947,-22.85136 -7.547947,-35.63045 0,-1.18435 -0.562628,-4.547401 0,-5.746841 1.625922,-3.466243 5.641113,-10.259701 6.469672,-13.792428 z" />
    <path
       style="fill:none;stroke:#f61c2d;stroke-width:2.71240973;stroke-linecap:butt;stroke-linejoin:miter;stroke-miterlimit:4;stroke-dasharray:none;stroke-opacity:1"
       d="m -35.73141,109.54706 c -6.212915,6.36062 -9.836192,15.18076 -9.888694,24.07205 -0.0525,8.89129 3.466361,17.75361 9.603728,24.18715 6.436587,6.7472 15.260199,10.60712 23.913734,14.08142 4.0681295,1.63331 8.2059075,3.23292 12.55390625,3.79175 4.34799875,0.55882 8.98810625,-0.0148 12.63596475,-2.44599 3.680953,-2.45321 5.992568,-6.54115 7.323885,-10.75959 1.331317,-4.21844 1.80628,-8.65018 2.616735,-12.99884 1.054708,-5.65924 2.687405,-11.22465 3.22257,-16.9564 0.535165,-5.73176 -0.135442,-11.81337 -3.32659,-16.60461 -1.965152,-2.95051 -4.790849,-5.25888 -7.8898,-6.98046 -3.098951,-1.72158 -6.4760583,-2.8851 -9.8830385,-3.86481 -8.7232462,-2.50845 -18.0172135,-3.85863 -26.8787375,-1.89376 -5.043393,1.11828 -9.847386,3.30424 -14.003663,6.37209 z"
       id="path14985-0"
       inkscape:connector-curvature="0"
       inkscape:path-effect="#path-effect15026;#path-effect15028"
       inkscape:original-d="m -35.73141,109.54706 c -0.37684,14.00407 -8.136069,43.57233 4.084401,54.69369 3.744258,3.40749 18.055723,7.53441 23.3394355,8.49611 3.759745,0.68432 16.871378,2.67765 20.4220145,1.06201 2.098493,-0.95488 0.42763,-0.92018 1.750451,-2.12403 12.76484,-11.61675 8.752283,-31.82959 8.752283,-47.2596 0,-3.82069 1.738681,-11.58237 -2.333941,-13.80617 -11.098122,-6.05998 -23.2013241,-7.4341 -36.176129,-7.4341 -1.202491,0 -4.617046,-0.55414 -5.834852,0 -3.519332,1.6014 -10.416832,5.55603 -14.003663,6.37209 z" />
    <path
       inkscape:connector-curvature="0"
       d="m -4.1817334,159.96882 c -0.0269,-0.2422 -0.0407,-0.4863 -0.0554,-0.72994 -0.0322,-0.3841 -0.0403,-0.76067 0.0247,-1.13943 0.1665996,-0.58851 0.5897296,-0.8921 1.0277796,-1.14095 0.5125,-0.2683 1.05494,-0.37061 1.60875,-0.35573 0.56828,0.0396 1.00819004,0.28505 1.42930004,0.73978 0.37829,0.46819 0.5493,1.07375 0.6648,1.70043 0.1214,0.74748 -0.0233,1.39139 -0.28346,2.06411 -0.30495,0.70291 -0.76166,1.27093 -1.22956,1.81333 -0.49322004,0.56032 -1.04145004,1.039 -1.60609004,1.48478 -0.46807,0.35816 -0.96832,0.64609 -1.47665,0.9073 -0.2953496,0.15305 -0.6005296,0.2726 -0.9109496,0.37006 -0.22702,0.0712 -0.17166,0.11105 -0.1014,-0.63688 8e-5,0 0.23127,-0.0276 0.35002,-0.0417 0.37652,-0.0449 0.7539996,-0.0757 1.1315596,-0.1036 0.41353,-0.03 0.82751,-0.0492 1.24158,-0.0641 0.32443,-0.0114 0.64899,-0.0163 0.97355,-0.0178 0.21977,0 0.43953004,0.003 0.65928004,0.006 0.14592,0.003 0.29184,0.006 0.43775,0.01 0.0652,0.003 0.0334,0 0.0954,0.003 1.93857996,0.0501 1.92695996,0.7192 -0.0116,0.66906 v 0 c -0.0621,-0.003 -0.0305,0 -0.0952,-0.003 -0.14472,-0.004 -0.28944,-0.007 -0.43418,-0.01 -0.21641,-0.004 -0.43282004,-0.007 -0.64925004,-0.006 -0.3199,0.003 -0.63978,0.007 -0.95953,0.0175 -0.40841,0.0147 -0.81672,0.0335 -1.2246,0.0632 -0.37095,0.0273 -0.7418296,0.0576 -1.1117396,0.10173 -0.10081,0.012 -0.35284,0.0495 -0.35601,0.0424 -0.28083,-0.63039 -0.33662,-0.59709 -0.0822,-0.67796 0.2845,-0.0892 0.56419,-0.1983 0.83481,-0.33877 0.4788596,-0.24564 0.9502796,-0.51612 1.3915596,-0.85244 0.53642,-0.42294 1.0575,-0.8768 1.52638,-1.40824 0.41971004,-0.48537 0.83319004,-0.99052 1.11215004,-1.61631 0.20551,-0.51761 0.33883,-1.05082 0.24295,-1.63069 -0.0878,-0.49033 -0.20963,-0.97325 -0.49703,-1.34888 -0.3031,-0.34398 -0.65814004,-0.53922 -1.07616004,-0.56739 -0.46958,-0.0184 -0.92924,0.072 -1.36494,0.29466 -0.27822,0.15404 -0.58175,0.32696 -0.72195,0.6796 -0.0636,0.31097 -0.0306,0.62729 -0.0129,0.94374 0.0134,0.2233 0.0263,0.44691 0.0494,0.66907 0.31878,2.3338 -0.2222,2.4438 -0.5409696,0.11004 z"
       id="path3680"
       style="opacity:1;fill:#000000;fill-opacity:1;stroke:#000000;stroke-width:0.40000001;stroke-linecap:square;stroke-miterlimit:4;stroke-dasharray:none;stroke-dashoffset:0;stroke-opacity:1;paint-order:markers fill stroke" />
    <path
       inkscape:connector-curvature="0"
       d="m -39.847499,86.524983 c 0.21985,-0.22403 0.43649,-0.45134 0.65266,-0.67908 0.40674,-0.42803 0.78978,-0.87855 1.16601,-1.33468 0.34707,-0.41659 0.67367,-0.84977 0.98355,-1.295933 0.1701,-0.250031 0.32938,-0.50809 0.46453,-0.779819 0.12633,-0.275051 0.0487,-0.345141 0.59759,0.0619 0.0428,0.0318 -0.009,0.10814 -0.0151,0.162049 -0.008,0.0681 -0.0169,0.136091 -0.0255,0.204142 -0.09,0.636958 -0.18794,1.272651 -0.27429,1.910191 -0.10567,0.78387 -0.18644,1.57084 -0.25698,2.35875 -0.0516,0.58587 -0.0889,1.17291 -0.1144,1.76057 -0.183571,3.39365 -0.675664,3.36827 -0.55611,-0.0253 v 0 c 0.026,-0.59662 0.0637,-1.19263 0.11618,-1.7874 0.0713,-0.79671 0.15305,-1.59247 0.25994,-2.3851 0.0861,-0.63555 0.18358,-1.269311 0.2735,-1.904271 0.008,-0.0624 0.0163,-0.124889 0.0235,-0.187478 0.005,-0.0443 -0.0296,-0.124841 0.0131,-0.133332 0.68173,-0.135308 0.57957,-0.0605 0.45397,0.225552 -0.14819,0.29613 -0.32041,0.57858 -0.50673,0.851009 -0.31893,0.45897 -0.65487,0.90478 -1.01194,1.33341 -0.38466,0.46622 -0.77628,0.92668 -1.19209,1.36417 -0.21793,0.22957 -0.43631,0.4587 -0.65789,0.68455 -1.39168,1.4274 -1.7853,1.02366 -0.39364,-0.40374 z"
       id="path3690"
       style="opacity:1;fill:#000000;fill-opacity:1;stroke:#000000;stroke-width:0.40000001;stroke-linecap:square;stroke-miterlimit:4;stroke-dasharray:none;stroke-dashoffset:0;stroke-opacity:1;paint-order:markers fill stroke"
       sodipodi:nodetypes="ccccccccccccccccccccccccc" />
    <path
       inkscape:connector-curvature="0"
       id="path3684-3"
       d="m 41.082691,72.1434 c -0.137102,0 -0.274219,0.58345 -0.274219,1.75035 v 0.99231 c -0.0011,0.52682 0.003,1.05364 -0.003,1.5804 -0.005,0.36972 -0.01479,0.74048 -0.0643,1.10594 -0.12668,0 -0.25332,0 -0.379989,0 -0.0021,0.009 -0.004,0.0142 -0.005,0.0224 -0.01019,0.009 -0.0131,0.0285 -0.0122,0.0578 -0.129828,0.63527 -0.24216,0.52624 0.0461,0.61201 0.0552,0.0184 0.110231,0.0364 0.156239,0.0794 0.162251,0.11129 0.333121,0.13267 0.490612,-0.0102 0.02619,-0.0316 0.049,-0.0651 0.0701,-0.0994 0.014,0 0.0278,0 0.0418,0 0.364948,0.004 0.729898,0.008 1.094859,0.012 0.307909,0.004 0.61582,0.006 0.923729,0.009 0.237366,0 0.474676,0.003 0.712044,0.003 -5.29e-4,0.34263 -5e-5,0.68503 0.01439,1.0273 0.01,0.21793 0.0281,0.43523 0.055,0.65105 0.01201,0.093 0.0254,0.18562 0.0449,0.27672 0.005,0.0205 0.0021,0.011 0.006,0.0294 0.464749,2.26574 0.99713,2.10747 0.53239,-0.15826 -0.005,-0.0252 -0.003,-0.0123 -0.008,-0.0392 -0.01421,-0.0682 -0.02421,-0.13747 -0.0331,-0.20695 -0.0245,-0.19437 -0.0404,-0.39018 -0.0494,-0.58645 -0.0141,-0.33104 -0.01479,-0.6622 -0.01389,-0.99352 0.0808,0 0.161531,0 0.24229,0 0.195479,0 0.39089,0 0.586369,0 0.144241,0 0.288542,0 0.43279,0 0.0773,6e-5 0.0392,0 0.113972,0 1.93906,-0.003 1.938679,-0.66201 -2.51e-4,-0.66008 -0.0748,-3e-5 -0.0368,0 -0.114131,0 -0.144349,0 -0.28878,0 -0.433128,0 -0.19539,0 -0.390811,0 -0.586201,0 -0.0806,-3e-5 -0.16107,0 -0.24162,0 v -0.96215 -0.89842 c 0,-2.33373 -0.548441,-2.33373 -0.548441,0 v 0.89842 0.96193 c -0.236228,0 -0.472459,0 -0.708684,-0.003 -0.30733,-0.003 -0.614738,-0.005 -0.922078,-0.009 -0.318352,-0.004 -0.63663,-0.007 -0.954982,-0.0104 0.0422,-0.36542 0.0566,-0.73435 0.0602,-1.10333 0.006,-0.52955 0.0021,-1.05907 0.003,-1.58865 v -0.99213 c 0,-1.16686 -0.137109,-1.75034 -0.274209,-1.75034 z"
       style="opacity:1;fill:#000000;fill-opacity:1;stroke:#000000;stroke-width:0.40000001;stroke-linecap:square;stroke-miterlimit:4;stroke-dasharray:none;stroke-dashoffset:0;stroke-opacity:1;paint-order:markers fill stroke;enable-background:new" />
    <path
       inkscape:connector-curvature="0"
       d="m 34.146358,116.43718 c -0.0826,-0.18811 -0.134901,-0.39156 -0.181229,-0.59597 -0.0853,-0.35265 -0.10246,-0.71225 -0.0786,-1.0763 0.035,-0.42212 0.179811,-0.77598 0.419629,-1.08036 0.281861,-0.30208 0.640659,-0.41306 1.002813,-0.48943 0.39483,-0.0707 0.77996,0.0107 1.15307,0.16469 0.341199,0.1531 0.61336,0.42551 0.843878,0.75751 0.189892,0.29391 0.295021,0.63774 0.359492,0.99762 0.0464,0.29707 0.0413,0.59915 0.02119,0.89887 -0.0155,0.20523 -0.0471,0.40791 -0.0859,0.60845 -0.01209,0.0368 -0.01471,0.0771 -0.02519,0.11457 -0.004,0.0117 0.009,-0.0239 0.007,-0.0361 -0.007,-0.0574 -0.0011,-0.12332 -0.0308,-0.16967 -0.0905,-0.14553 -0.11797,-0.14176 -0.21195,-0.158 0.188871,-0.0572 0.379302,-0.10635 0.570252,-0.15233 0.31224,-0.0732 0.6273,-0.12685 0.942901,-0.17388 0.282397,-0.049 0.565679,-0.0678 0.849868,-0.0373 0.365479,0.0545 0.54262,0.25818 0.688422,0.65404 0.128629,0.49967 0.141017,1.02829 0.138729,1.54735 -0.008,0.60781 -0.120492,1.19817 -0.289201,1.76796 -0.17414,0.54599 -0.450058,1.01988 -0.781618,1.442 -0.307272,0.3789 -0.690941,0.61989 -1.097601,0.80435 -0.32663,0.13967 -0.66885,0.19581 -1.013491,0.21047 -0.267899,0.005 -0.53435,-0.0325 -0.799158,-0.0769 -0.239123,-0.0301 -0.466122,-0.11152 -0.683681,-0.23196 -0.20955,-0.12067 -0.36807,-0.30661 -0.49212,-0.53938 -0.0816,-0.16851 -0.121361,-0.35512 -0.14551,-0.54602 -0.276513,-2.30988 0.26634,-2.40399 0.54283,-0.0941 v 0 c 0.0108,0.10071 0.0293,0.19995 0.0681,0.29103 0.0624,0.12802 0.146532,0.22364 0.258281,0.29018 0.167391,0.0956 0.343159,0.15391 0.528079,0.17657 0.233601,0.0394 0.468562,0.0739 0.704922,0.0709 0.285311,-0.0104 0.568769,-0.0555 0.839679,-0.16902 0.32961,-0.14679 0.642202,-0.3362 0.892349,-0.64112 0.2813,-0.35289 0.513451,-0.75195 0.662753,-1.21002 0.150079,-0.49862 0.24783,-1.01667 0.256929,-1.54932 0.003,-0.43203 -0.006,-0.87091 -0.0974,-1.29134 -0.0449,-0.15697 -0.0815,-0.23084 -0.232539,-0.24843 -0.24452,-0.0294 -0.488328,-0.005 -0.731351,0.0352 -0.302159,0.0449 -0.603798,0.0962 -0.902769,0.16612 -0.20202,0.0485 -0.402569,0.10448 -0.603459,0.15906 -0.32344,0.0132 -0.433871,-0.22203 -0.347861,-0.55483 0.0329,-0.16899 0.0599,-0.33984 0.0734,-0.51283 0.01651,-0.23599 0.02299,-0.47402 -0.01119,-0.70852 -0.0433,-0.25611 -0.11439,-0.50215 -0.246031,-0.71376 -0.16261,-0.24219 -0.35697,-0.44016 -0.60121,-0.55403 -0.283771,-0.12166 -0.57745,-0.18722 -0.87943,-0.1375 -0.247769,0.0503 -0.501711,0.11121 -0.704731,0.30163 -0.158972,0.18198 -0.23841,0.41057 -0.264292,0.67299 -0.0218,0.28751 -0.006,0.56992 0.0615,0.84859 0.0344,0.15467 0.0726,0.30904 0.13329,0.45228 0.928512,2.04876 0.447042,2.36486 -0.481471,0.31606 z"
       id="path3682"
       style="opacity:1;fill:#000000;fill-opacity:1;stroke:#000000;stroke-width:0.40000001;stroke-linecap:square;stroke-miterlimit:4;stroke-dasharray:none;stroke-dashoffset:0;stroke-opacity:1;paint-order:markers fill stroke" />
    <path
       style="fill:none;stroke:#ff9243;stroke-width:3;stroke-linecap:butt;stroke-linejoin:miter;stroke-miterlimit:4;stroke-dasharray:none;stroke-opacity:1"
       d="M 56.906095,69.139515 C 54.430968,64.147142 49.954033,60.311273 44.893129,57.979474 39.832225,55.647675 34.209831,54.733712 28.63884,54.614981 17.496857,54.377517 6.4734178,57.21478 -4.6709325,57.154617 -15.817427,57.094443 -26.776078,54.139277 -37.917196,53.787925 c -5.570559,-0.175675 -11.217643,0.315855 -16.496631,2.103111 -5.278987,1.787255 -10.187011,4.936784 -13.510984,9.410395 -2.316242,3.117344 -3.811716,6.795392 -4.661419,10.584958 -0.849703,3.789566 -1.070801,7.697035 -0.997923,11.580011 0.145755,7.76595 1.453989,15.50103 1.144416,23.26218 -0.394674,9.89468 -3.398783,19.47746 -5.04341,29.24249 -0.822313,4.88251 -1.305827,9.84958 -0.944786,14.78768 0.361041,4.93809 1.59163,9.86176 4.030489,14.17072 3.994972,7.05828 11.005589,12.03969 18.560171,14.99053 7.554581,2.95084 15.689573,4.05715 23.758075,4.88083 18.144859,1.85233 36.4785277,2.38876 54.617563,0.48025 5.58428,-0.58755 11.179691,-1.41435 16.504101,-3.19762 5.324411,-1.78327 10.397956,-4.57205 14.257862,-8.6501 4.374817,-4.62207 6.998701,-10.71354 8.155374,-16.97171 1.156672,-6.25817 0.91803,-12.70141 0.123673,-19.0158 -1.588713,-12.62878 -5.384118,-25.11493 -4.61073,-37.81973 0.354589,-5.824993 1.667636,-11.551085 2.225211,-17.360163 0.557574,-5.809078 0.304418,-11.897974 -2.287761,-17.126442 z"
       id="path14985-6"
       inkscape:connector-curvature="0"
       inkscape:path-effect="#path-effect18283;#path-effect18285"
       inkscape:original-d="M 56.906095,69.139515 C 39.829842,53.797394 -54.997148,53.274688 -69.516448,66.501093 c -6.905091,6.290214 -1.116346,55.056747 -2.905371,64.793787 -1.273016,6.92863 -4.981148,31.09132 -1.975625,37.63459 1.776326,3.8672 1.711771,0.78805 3.951261,3.22581 21.610281,23.5236 59.211571,16.12909 87.915516,16.12909 7.10751,0 26.033172,11.33637 30.170022,3.83116 11.273168,-20.45208 9.342563,-50.88865 9.342563,-74.7992 0,-2.21601 1.030853,-8.50849 0,-10.75274 -2.979025,-6.48557 20.533171,-24.437116 -0.07583,-37.424075 z"
       sodipodi:nodetypes="cssscscsszc" />
    <text
       xml:space="preserve"
       style="font-style:normal;font-variant:normal;font-weight:normal;font-stretch:normal;font-size:8.58171463px;line-height:1.25;font-family:Purisa;-inkscape-font-specification:'Purisa, Normal';font-variant-ligatures:normal;font-variant-caps:normal;font-variant-numeric:normal;font-feature-settings:normal;text-align:start;letter-spacing:0px;word-spacing:0px;writing-mode:lr-tb;text-anchor:start;fill:#000000;fill-opacity:1;stroke:#0f0e07;stroke-width:0.4;stroke-miterlimit:4;stroke-dasharray:none;stroke-opacity:1"
       x="-1.9798149"
       y="66.607666"
       id="text5094"
       transform="scale(0.96799461,1.0330636)"><tspan
         sodipodi:role="line"
         id="tspan5092"
         x="-1.9798149"
         y="66.607666"
         style="font-style:normal;font-variant:normal;font-weight:normal;font-stretch:normal;font-size:8.58171463px;font-family:Purisa;-inkscape-font-specification:'Purisa, Normal';font-variant-ligatures:normal;font-variant-caps:normal;font-variant-numeric:normal;font-feature-settings:normal;text-align:start;writing-mode:lr-tb;text-anchor:start;stroke:#0f0e07;stroke-width:0.4;stroke-miterlimit:4;stroke-dasharray:none;stroke-opacity:1">sztearinsav</tspan></text>
    <text
       xml:space="preserve"
       style="font-style:normal;font-variant:normal;font-weight:normal;font-stretch:normal;font-size:8.22958469px;line-height:1.25;font-family:Purisa;-inkscape-font-specification:Purisa;letter-spacing:0px;word-spacing:0px;fill:#000000;fill-opacity:1;stroke:#0f0e07;stroke-width:0.4;stroke-miterlimit:4;stroke-dasharray:none;stroke-opacity:1"
       x="-21.236113"
       y="90.089523"
       id="text5098"
       transform="scale(0.91897989,1.0881631)"><tspan
         sodipodi:role="line"
         id="tspan5096"
         x="-21.236113"
         y="90.089523"
         style="font-style:normal;font-variant:normal;font-weight:normal;font-stretch:normal;font-size:8.24554348px;font-family:Purisa;-inkscape-font-specification:Purisa;stroke:#0f0e07;stroke-width:0.4;stroke-miterlimit:4;stroke-dasharray:none;stroke-opacity:1">albumin</tspan></text>
    <text
       xml:space="preserve"
       style="font-style:normal;font-variant:normal;font-weight:normal;font-stretch:normal;font-size:8.22958469px;line-height:1.25;font-family:Purisa;-inkscape-font-specification:Purisa;letter-spacing:0px;word-spacing:0px;fill:#000000;fill-opacity:1;stroke:#0f0e07;stroke-width:0.4;stroke-miterlimit:4;stroke-dasharray:none;stroke-opacity:1"
       x="-24.647469"
       y="111.14646"
       id="text5098-4"
       transform="scale(0.91897989,1.0881631)"><tspan
         sodipodi:role="line"
         id="tspan5096-1"
         x="-24.647469"
         y="111.14646"
         style="font-style:normal;font-variant:normal;font-weight:normal;font-stretch:normal;font-size:8.24554348px;font-family:Purisa;-inkscape-font-specification:Purisa;stroke:#0f0e07;stroke-width:0.4;stroke-miterlimit:4;stroke-dasharray:none;stroke-opacity:1">kazein</tspan></text>
    <text
       xml:space="preserve"
       style="font-style:normal;font-variant:normal;font-weight:normal;font-stretch:normal;font-size:8.22958469px;line-height:1.25;font-family:Purisa;-inkscape-font-specification:Purisa;letter-spacing:0px;word-spacing:0px;fill:#000000;fill-opacity:1;stroke:#0f0e07;stroke-width:0.40000001;stroke-miterlimit:4;stroke-dasharray:none;stroke-opacity:1"
       x="5.4203124"
       y="127.43629"
       id="text5098-2"
       transform="scale(0.91897989,1.0881631)"><tspan
         sodipodi:role="line"
         id="tspan5096-8"
         x="5.4203124"
         y="127.43629"
         style="font-style:normal;font-variant:normal;font-weight:normal;font-stretch:normal;font-size:8.24554348px;font-family:Purisa;-inkscape-font-specification:Purisa;stroke:#0f0e07;stroke-width:0.40000001;stroke-miterlimit:4;stroke-dasharray:none;stroke-opacity:1">DNS</tspan></text>
  </g>
</svg>
