<svg width="150.59mm" height="150.59mm" version="1.1" viewBox="0 0 150.59 150.59" xmlns="http://www.w3.org/2000/svg">
 <g transform="translate(83.609 -46.325)">
  <g fill="none" stroke-width="2.7124">
   <path d="m5.827 77.8c-6.5223-6.1936-15.449-9.7865-24.444-9.8381-8.9944-0.05152-17.962 3.4389-24.555 9.5574-6.7892 6.3008-10.861 14.951-14.297 23.553-1.6139 4.0406-3.137 8.1752-3.6106 12.5s0.19228 8.9121 2.6536 12.5c2.6376 3.8448 7.0428 6.1481 11.538 7.3876 4.4948 1.2394 9.1838 1.5573 13.786 2.3043 5.4822 0.88983 10.87 2.3939 16.401 2.895 5.5313 0.5011 11.385-0.0957 16.063-3.0891 2.9676-1.8989 5.308-4.6712 7.0609-7.7274 1.7529-3.0561 2.9474-6.4001 3.9504-9.7774 2.5472-8.5764 3.9075-17.75 1.9228-26.473-1.1353-4.9899-3.3584-9.7294-6.4697-13.792z" stroke="#18b600"/>
   <path d="m-21.634 84.944c6.5223-6.1936 15.449-9.7865 24.444-9.8381 8.9944-0.05152 17.962 3.4389 24.555 9.5574 6.7892 6.3008 10.861 14.951 14.297 23.553 1.6139 4.0406 3.137 8.1752 3.6106 12.5s-0.19228 8.9121-2.6536 12.5c-2.6376 3.8448-7.0428 6.1481-11.538 7.3876-4.4948 1.2394-9.1838 1.5573-13.786 2.3043-5.4822 0.88983-10.87 2.3939-16.401 2.895-5.5313 0.5011-11.385-0.0957-16.063-3.0891-2.9676-1.8989-5.308-4.6712-7.0609-7.7274-1.7529-3.0561-2.9474-6.4-3.9504-9.7774-2.5472-8.5764-3.9075-17.75-1.9228-26.473 1.1353-4.9899 3.3584-9.7294 6.4697-13.792z" stroke="#00887a"/>
   <path d="m-35.731 109.55c-6.2129 6.3606-9.8362 15.181-9.8887 24.072-0.0525 8.8913 3.4664 17.754 9.6037 24.187 6.4366 6.7472 15.26 10.607 23.914 14.081 4.0681 1.6333 8.2059 3.2329 12.554 3.7918 4.348 0.55882 8.9881-0.0148 12.636-2.446 3.681-2.4532 5.9926-6.5412 7.3239-10.76s1.8063-8.6502 2.6167-12.999c1.0547-5.6592 2.6874-11.225 3.2226-16.956 0.53516-5.7318-0.13544-11.813-3.3266-16.605-1.9652-2.9505-4.7908-5.2589-7.8898-6.9805s-6.4761-2.8851-9.883-3.8648c-8.7232-2.5084-18.017-3.8586-26.879-1.8938-5.0434 1.1183-9.8474 3.3042-14.004 6.3721z" stroke="#f61c2d"/>
  </g>
  <g stroke="#000" stroke-linecap="square" stroke-width=".4">
   <path d="m-4.1817 159.97c-0.0269-0.2422-0.0407-0.4863-0.0554-0.72994-0.0322-0.3841-0.0403-0.76067 0.0247-1.1394 0.1666-0.58851 0.58973-0.8921 1.0278-1.141 0.5125-0.2683 1.0549-0.37061 1.6088-0.35573 0.56828 0.0396 1.0082 0.28505 1.4293 0.73978 0.37829 0.46819 0.5493 1.0738 0.6648 1.7004 0.1214 0.74748-0.0233 1.3914-0.28346 2.0641-0.30495 0.70291-0.76166 1.2709-1.2296 1.8133-0.49322 0.56032-1.0415 1.039-1.6061 1.4848-0.46807 0.35816-0.96832 0.64609-1.4766 0.9073-0.29535 0.15305-0.60053 0.2726-0.91095 0.37006-0.22702 0.0712-0.17166 0.11105-0.1014-0.63688 8e-5 0 0.23127-0.0276 0.35002-0.0417 0.37652-0.0449 0.754-0.0757 1.1316-0.1036 0.41353-0.03 0.82751-0.0492 1.2416-0.0641 0.32443-0.0114 0.64899-0.0163 0.97355-0.0178 0.21977 0 0.43953 3e-3 0.65928 6e-3 0.14592 3e-3 0.29184 6e-3 0.43775 0.01 0.0652 3e-3 0.0334 0 0.0954 3e-3 1.9386 0.0501 1.927 0.7192-0.0116 0.66906-0.0621-3e-3 -0.0305 0-0.0952-3e-3 -0.14472-4e-3 -0.28944-7e-3 -0.43418-0.01-0.21641-4e-3 -0.43282-7e-3 -0.64925-6e-3 -0.3199 3e-3 -0.63978 7e-3 -0.95953 0.0175-0.40841 0.0147-0.81672 0.0335-1.2246 0.0632-0.37095 0.0273-0.74183 0.0576-1.1117 0.10173-0.10081 0.012-0.35284 0.0495-0.35601 0.0424-0.28083-0.63039-0.33662-0.59709-0.0822-0.67796 0.2845-0.0892 0.56419-0.1983 0.83481-0.33877 0.47886-0.24564 0.95028-0.51612 1.3916-0.85244 0.53642-0.42294 1.0575-0.8768 1.5264-1.4082 0.41971-0.48537 0.83319-0.99052 1.1122-1.6163 0.20551-0.51761 0.33883-1.0508 0.24295-1.6307-0.0878-0.49033-0.20963-0.97325-0.49703-1.3489-0.3031-0.34398-0.65814-0.53922-1.0762-0.56739-0.46958-0.0184-0.92924 0.072-1.3649 0.29466-0.27822 0.15404-0.58175 0.32696-0.72195 0.6796-0.0636 0.31097-0.0306 0.62729-0.0129 0.94374 0.0134 0.2233 0.0263 0.44691 0.0494 0.66907 0.31878 2.3338-0.2222 2.4438-0.54097 0.11004z" style="paint-order:markers fill stroke"/>
   <path d="m-39.847 86.525c0.21985-0.22403 0.43649-0.45134 0.65266-0.67908 0.40674-0.42803 0.78978-0.87855 1.166-1.3347 0.34707-0.41659 0.67367-0.84977 0.98355-1.2959 0.1701-0.25003 0.32938-0.50809 0.46453-0.77982 0.12633-0.27505 0.0487-0.34514 0.59759 0.0619 0.0428 0.0318-9e-3 0.10814-0.0151 0.16205-8e-3 0.0681-0.0169 0.13609-0.0255 0.20414-0.09 0.63696-0.18794 1.2727-0.27429 1.9102-0.10567 0.78387-0.18644 1.5708-0.25698 2.3588-0.0516 0.58587-0.0889 1.1729-0.1144 1.7606-0.18357 3.3936-0.67566 3.3683-0.55611-0.0253 0.026-0.59662 0.0637-1.1926 0.11618-1.7874 0.0713-0.79671 0.15305-1.5925 0.25994-2.3851 0.0861-0.63555 0.18358-1.2693 0.2735-1.9043 8e-3 -0.0624 0.0163-0.12489 0.0235-0.18748 5e-3 -0.0443-0.0296-0.12484 0.0131-0.13333 0.68173-0.13531 0.57957-0.0605 0.45397 0.22555-0.14819 0.29613-0.32041 0.57858-0.50673 0.85101-0.31893 0.45897-0.65487 0.90478-1.0119 1.3334-0.38466 0.46622-0.77628 0.92668-1.1921 1.3642-0.21793 0.22957-0.43631 0.4587-0.65789 0.68455-1.3917 1.4274-1.7853 1.0237-0.39364-0.40374z" style="paint-order:markers fill stroke"/>
   <path d="m41.083 72.143c-0.1371 0-0.27422 0.58345-0.27422 1.7504v0.99231c-0.0011 0.52682 3e-3 1.0536-3e-3 1.5804-5e-3 0.36972-0.01479 0.74048-0.0643 1.1059h-0.37999c-0.0021 9e-3 -4e-3 0.0142-5e-3 0.0224-0.01019 9e-3 -0.0131 0.0285-0.0122 0.0578-0.12983 0.63527-0.24216 0.52624 0.0461 0.61201 0.0552 0.0184 0.11023 0.0364 0.15624 0.0794 0.16225 0.11129 0.33312 0.13267 0.49061-0.0102 0.02619-0.0316 0.049-0.0651 0.0701-0.0994h0.0418c0.36495 4e-3 0.7299 8e-3 1.0949 0.012 0.30791 4e-3 0.61582 6e-3 0.92373 9e-3 0.23737 0 0.47468 3e-3 0.71204 3e-3 -5.29e-4 0.34263-5e-5 0.68503 0.01439 1.0273 0.01 0.21793 0.0281 0.43523 0.055 0.65105 0.01201 0.093 0.0254 0.18562 0.0449 0.27672 5e-3 0.0205 0.0021 0.011 6e-3 0.0294 0.46475 2.2657 0.99713 2.1075 0.53239-0.15826-5e-3 -0.0252-3e-3 -0.0123-8e-3 -0.0392-0.01421-0.0682-0.02421-0.13747-0.0331-0.20695-0.0245-0.19437-0.0404-0.39018-0.0494-0.58645-0.0141-0.33104-0.01479-0.6622-0.01389-0.99352h0.24229 0.58637 0.43279c0.0773 6e-5 0.0392 0 0.11397 0 1.9391-3e-3 1.9387-0.66201-2.51e-4 -0.66008-0.0748-3e-5 -0.0368 0-0.11413 0h-0.43313-0.5862c-0.0806-3e-5 -0.16107 0-0.24162 0v-1.8606c0-2.3337-0.54844-2.3337-0.54844 0v1.8604c-0.23623 0-0.47246 0-0.70868-3e-3 -0.30733-3e-3 -0.61474-5e-3 -0.92208-9e-3 -0.31835-4e-3 -0.63663-7e-3 -0.95498-0.0104 0.0422-0.36542 0.0566-0.73435 0.0602-1.1033 6e-3 -0.52955 0.0021-1.0591 3e-3 -1.5886v-0.99213c0-1.1669-0.13711-1.7503-0.27421-1.7503z" enable-background="new" style="paint-order:markers fill stroke"/>
   <path d="m34.146 116.44c-0.0826-0.18811-0.1349-0.39156-0.18123-0.59597-0.0853-0.35265-0.10246-0.71225-0.0786-1.0763 0.035-0.42212 0.17981-0.77598 0.41963-1.0804 0.28186-0.30208 0.64066-0.41306 1.0028-0.48943 0.39483-0.0707 0.77996 0.0107 1.1531 0.16469 0.3412 0.1531 0.61336 0.42551 0.84388 0.75751 0.18989 0.29391 0.29502 0.63774 0.35949 0.99762 0.0464 0.29707 0.0413 0.59915 0.02119 0.89887-0.0155 0.20523-0.0471 0.40791-0.0859 0.60845-0.01209 0.0368-0.01471 0.0771-0.02519 0.11457-4e-3 0.0117 9e-3 -0.0239 7e-3 -0.0361-7e-3 -0.0574-0.0011-0.12332-0.0308-0.16967-0.0905-0.14553-0.11797-0.14176-0.21195-0.158 0.18887-0.0572 0.3793-0.10635 0.57025-0.15233 0.31224-0.0732 0.6273-0.12685 0.9429-0.17388 0.2824-0.049 0.56568-0.0678 0.84987-0.0373 0.36548 0.0545 0.54262 0.25818 0.68842 0.65404 0.12863 0.49967 0.14102 1.0283 0.13873 1.5474-8e-3 0.60781-0.12049 1.1982-0.2892 1.768-0.17414 0.54599-0.45006 1.0199-0.78162 1.442-0.30727 0.3789-0.69094 0.61989-1.0976 0.80435-0.32663 0.13967-0.66885 0.19581-1.0135 0.21047-0.2679 5e-3 -0.53435-0.0325-0.79916-0.0769-0.23912-0.0301-0.46612-0.11152-0.68368-0.23196-0.20955-0.12067-0.36807-0.30661-0.49212-0.53938-0.0816-0.16851-0.12136-0.35512-0.14551-0.54602-0.27651-2.3099 0.26634-2.404 0.54283-0.0941 0.0108 0.10071 0.0293 0.19995 0.0681 0.29103 0.0624 0.12802 0.14653 0.22364 0.25828 0.29018 0.16739 0.0956 0.34316 0.15391 0.52808 0.17657 0.2336 0.0394 0.46856 0.0739 0.70492 0.0709 0.28531-0.0104 0.56877-0.0555 0.83968-0.16902 0.32961-0.14679 0.6422-0.3362 0.89235-0.64112 0.2813-0.35289 0.51345-0.75195 0.66275-1.21 0.15008-0.49862 0.24783-1.0167 0.25693-1.5493 3e-3 -0.43203-6e-3 -0.87091-0.0974-1.2913-0.0449-0.15697-0.0815-0.23084-0.23254-0.24843-0.24452-0.0294-0.48833-5e-3 -0.73135 0.0352-0.30216 0.0449-0.6038 0.0962-0.90277 0.16612-0.20202 0.0485-0.40257 0.10448-0.60346 0.15906-0.32344 0.0132-0.43387-0.22203-0.34786-0.55483 0.0329-0.16899 0.0599-0.33984 0.0734-0.51283 0.01651-0.23599 0.02299-0.47402-0.01119-0.70852-0.0433-0.25611-0.11439-0.50215-0.24603-0.71376-0.16261-0.24219-0.35697-0.44016-0.60121-0.55403-0.28377-0.12166-0.57745-0.18722-0.87943-0.1375-0.24777 0.0503-0.50171 0.11121-0.70473 0.30163-0.15897 0.18198-0.23841 0.41057-0.26429 0.67299-0.0218 0.28751-6e-3 0.56992 0.0615 0.84859 0.0344 0.15467 0.0726 0.30904 0.13329 0.45228 0.92851 2.0488 0.44704 2.3649-0.48147 0.31606z" style="paint-order:markers fill stroke"/>
  </g>
  <path d="m56.906 69.14c-2.4751-4.9924-6.9521-8.8282-12.013-11.16s-10.683-3.2458-16.254-3.3645c-11.142-0.23746-22.165 2.5998-33.31 2.5396-11.146-0.060174-22.105-3.0153-33.246-3.3667-5.5706-0.17568-11.218 0.31586-16.497 2.1031-5.279 1.7873-10.187 4.9368-13.511 9.4104-2.3162 3.1173-3.8117 6.7954-4.6614 10.585s-1.0708 7.697-0.99792 11.58c0.14576 7.766 1.454 15.501 1.1444 23.262-0.39467 9.8947-3.3988 19.477-5.0434 29.242-0.82231 4.8825-1.3058 9.8496-0.94479 14.788 0.36104 4.9381 1.5916 9.8618 4.0305 14.171 3.995 7.0583 11.006 12.04 18.56 14.991 7.5546 2.9508 15.69 4.0572 23.758 4.8808 18.145 1.8523 36.479 2.3888 54.618 0.48025 5.5843-0.58755 11.18-1.4144 16.504-3.1976 5.3244-1.7833 10.398-4.572 14.258-8.6501 4.3748-4.6221 6.9987-10.714 8.1554-16.972 1.1567-6.2582 0.91803-12.701 0.12367-19.016-1.5887-12.629-5.3841-25.115-4.6107-37.82 0.35459-5.825 1.6676-11.551 2.2252-17.36 0.55757-5.8091 0.30442-11.898-2.2878-17.126z" fill="none" stroke="#ff9243" stroke-width="3"/>
  <g stroke="#0f0e07" stroke-width=".4">
   <g transform="scale(.96799 1.0331)" style="font-feature-settings:normal;font-variant-caps:normal;font-variant-ligatures:normal;font-variant-numeric:normal" aria-label="sztearinsav">
    <path d="m-0.42653 64.591q-0.12873 0-0.54923-0.30894-0.4205-0.31752-0.4205-0.64363 0-0.30894 0.43767-0.84959 0.43767-0.54923 1.0556-0.7037 0.2832-0.07724 0.74661-0.07724 0.19738 0 0.29178 0.05149 0.094399 0.05149 0.25745 0.23171 0.26603 0.30036 0.26603 0.41192 0 0.10298-0.11156 0.10298-0.13731 0-0.23171-0.0944-0.094399-0.10298-0.23171-0.20596-0.13731-0.10298-0.36901-0.10298-0.30036 0-0.64363 0.16305-0.34327 0.16305-0.6093 0.45483-0.3776 0.40334-0.3776 0.54923t0.22312 0.35185q0.22312 0.19738 0.74661 0.3776 0.82384 0.2832 1.1156 0.53207 0.29178 0.24887 0.29178 0.66937 0 0.39476-0.13731 0.72086-0.094399 0.24887-0.40334 0.55781-0.30894 0.30894-0.6093 0.30894-0.23171 0-0.60072-0.07724-0.36901-0.06865-0.55781-0.16305-0.15447-0.07724-0.2832-0.30036-0.12873-0.23171-0.12873-0.41192 0-0.0944 0.042909-0.16305 0.05149-0.07723 0.12014-0.07723 0.12873 0 0.24029 0.24029 0.10298 0.21454 0.41192 0.38618 0.31752 0.17163 0.59214 0.17163 0.36901 0 0.65221-0.43767 0.2832-0.44625 0.2832-0.69512 0-0.06007-0.034327-0.14589-0.025745-0.0944-0.14589-0.22312-0.12014-0.12873-0.30894-0.19738-0.18022-0.06007-0.4205-0.16305-0.24029-0.10298-0.40334-0.17163-0.15447-0.06865-0.19738-0.06865z" style="font-feature-settings:normal;font-variant-caps:normal;font-variant-ligatures:normal;font-variant-numeric:normal"/>
    <path d="m2.9976 63.226q-0.10298 0-0.20596-0.04291-0.10298-0.04291-0.10298-0.11156 0-0.24029 0.88392-0.57498 0.8925-0.33469 1.3044-0.42909 0.12014-0.02575 0.24887-0.02575 0.23171 0 0.45483 0.06865 0.22312 0.06007 0.30894 0.15447 0.11156 0.12014 0.11156 0.4205 0 0.45483-0.24887 0.99548l-0.1888 0.39477 0.31752 0.042908q0.38618 0.02575 0.38618 0.12014 0 0.06865-0.1888 0.15447-0.1888 0.08582-0.43767 0.12014-0.23171 0.03433-0.36901 0.11156-0.12873 0.07724-0.33469 0.29178-0.21454 0.22312-0.47199 0.65221-0.25745 0.4205-0.25745 0.53207 0 0.03433 0.042909 0.03433 0.025745 0 0.76377-0.13731 0.74661-0.14589 1.1843-0.14589 0.45483 0 0.45483 0.15447 0 0.0944-0.17163 0.16305-0.17163 0.06007-0.69512 0.16305-1.6134 0.31752-1.9652 0.31752-0.2832 0-0.2832-0.15447 0-0.16305 0.29178-0.72086 0.29178-0.55781 0.46341-0.76377 0.22312-0.27462 0.22312-0.3261 0-0.06007-0.35185-0.06007-0.42909 0-0.42909-0.13731 0-0.10298 0.19738-0.17164 0.20596-0.06865 0.5149-0.06865 0.30894 0 0.40334-0.03433 0.10298-0.03433 0.20596-0.18022 0.20596-0.30894 0.34327-0.68654 0.14589-0.38618 0.14589-0.65221 0-0.14589-0.042908-0.18022-0.042909-0.03433-0.21454-0.03433-0.41192 0.0086-1.1499 0.23171-0.73803 0.22312-0.90108 0.39476-0.094399 0.12014-0.24029 0.12014z" style="font-feature-settings:normal;font-variant-caps:normal;font-variant-ligatures:normal;font-variant-numeric:normal"/>
    <path d="m8.9962 60.643q0-0.31752-0.060072-0.80668-0.060072-0.48916-0.060072-0.81526 0-0.16305 0.00858-0.21454 0.025745-0.13731 0.094399-0.21454 0.077235-0.08582 0.15447-0.08582 0.10298 0 0.14589 0.0944 0.025745 0.06007 0.077235 0.63505 0.05149 0.57498 0.094399 1.1242 0.042909 0.54923 0.060072 0.56639 0.00858 0.0086 0.025745 0.0086 0.068654 0 0.39476-0.06865 0.33469-0.07723 0.54923-0.07723 0.42908 0 0.42908 0.1888 0 0.1888-0.94399 0.4205l-0.42909 0.10298 0.05149 1.4503q0.042909 1.2787 0.16305 2.3943 0.12014 1.107 0.12014 1.2529 0 0.26603-0.19738 0.26603-0.15447 0-0.25745-0.27461-0.094399-0.27462-0.094399-0.71228 0-0.31752-0.025745-0.64363-0.025745-0.33469-0.094399-1.0298-0.060072-0.7037-0.12014-1.4417-0.025745-0.39476-0.042909-0.6093-0.00858-0.21454-0.025745-0.31752-0.017163-0.10298-0.025745-0.12014-0.00858-0.02575-0.034327-0.02575-0.13731 0-0.66079 0.0944t-0.65221 0.0944q-0.24887 0-0.24887-0.20596 0-0.14589 0.30894-0.24887 0.31752-0.10298 0.71228-0.18022 0.39476-0.08582 0.48916-0.14589 0.094399-0.06865 0.094399-0.45483z" style="font-feature-settings:normal;font-variant-caps:normal;font-variant-ligatures:normal;font-variant-numeric:normal"/>
    <path d="m16.316 64.763q0.04291 0 0.04291 0.06865 0 0.15447-0.23171 0.49774-0.22312 0.34327-0.48058 0.56639-0.90108 0.7981-1.8022 0.7981-0.34327 0-0.68654-0.15447-0.33469-0.16305-0.62646-0.45483t-0.47199-0.78094q-0.18022-0.48916-0.18022-1.0899 0-0.36901 0.08582-0.62646 0.17164-0.52348 0.72945-1.107 0.56639-0.58356 1.0641-0.58356 0.13731 0 0.41192 0.02575 0.41192 0.03433 0.57497 0.08582 0.17164 0.05149 0.38618 0.21454 0.27462 0.20596 0.47199 0.53207 0.20596 0.31752 0.20596 0.53207 0 0.27462-0.21454 0.4205-0.21454 0.13731-0.83243 0.27462-0.80668 0.18022-1.579 0.22312l-0.7981 0.04291v0.34327q0 0.63505 0.59214 1.2014 0.44625 0.42908 0.92682 0.42908 0.36901 0 0.78094-0.22312 0.4205-0.23171 0.71228-0.50632 0.29178-0.27462 0.55781-0.49774 0.26603-0.23171 0.36043-0.23171zm-1.3817-2.0939q-0.26603-0.24029-0.40334-0.30036-0.12873-0.06865-0.34327-0.06865-0.42908 0-0.64363 0.08582-0.20596 0.07723-0.4205 0.3261-0.65221 0.74661-0.65221 0.99548 0 0.11156 0.20596 0.11156 0.78094 0 2.2141-0.3261 0.42908-0.10298 0.42908-0.36043 0-0.12014-0.38618-0.46341z" style="font-feature-settings:normal;font-variant-caps:normal;font-variant-ligatures:normal;font-variant-numeric:normal"/>
    <path d="m19.843 62.334q-0.39476 0-0.84101 0.16305-0.43767 0.16305-0.78094 0.33469-0.34327 0.16305-0.49774 0.16305-0.10298 0-0.10298-0.08582 0-0.12014 0.05149-0.20596 0.05149-0.08582 0.1888-0.16305 0.13731-0.07724 0.25745-0.12873 0.12873-0.05149 0.40334-0.14589 0.27461-0.10298 0.47199-0.1888 0.46341-0.18022 0.78094-0.18022 0.56639 0 0.88392 0.61788 0.15447 0.30036 0.18022 0.55781 0.02575 0.24887 0.04291 1.416 0.0086 0.65221 0.02575 1.0985 0.01716 0.43767 0.03433 0.55781l0.01716 0.11156q0 0.12014-0.11156 0.25745-0.10298 0.13731-0.15447 0.13731-0.17163 0-0.26603-0.54065-0.0944-0.54923-0.10298-0.54923-0.02575 0-0.07724 0.0944-0.17163 0.2832-0.69512 0.62646-0.5149 0.33469-0.86675 0.33469-0.21454 0-0.50632-0.07724-0.2832-0.08582-0.41192-0.18022-0.0944-0.07724-0.16305-0.30894-0.06007-0.23171-0.06007-0.47199 0-0.36043 0.1888-0.61788 0.19738-0.26603 0.69512-0.54065 0.54065-0.31752 1.047-0.31752 0.20596 0 0.34327 0.06865 0.13731 0.06865 0.20596 0.14589 0.06865 0.06865 0.11156 0.06865 0.03433 0 0.16305 0.0944 0.12872 0.08582 0.13731 0.08582 0.03433 0 0.03433-0.1888 0-1.1499-0.16305-1.5962-0.15447-0.44625-0.46341-0.44625zm0.38618 2.6603q0-0.03433-0.02575-0.07724-0.01716-0.05149-0.08582-0.11156-0.06007-0.06865-0.16305-0.12014-0.0944-0.06007-0.26603-0.0944-0.17163-0.04291-0.38618-0.04291-0.36901 0-0.65221 0.12872-0.27461 0.12873-0.41192 0.3261-0.13731 0.19738-0.20596 0.36901-0.06007 0.16305-0.06007 0.29178 0 0.21454 0.03433 0.29178 0.04291 0.07724 0.19738 0.16305 0.1888 0.0944 0.34327 0.0944 0.29178 0 0.72086-0.20596 0.43767-0.21454 0.43767-0.30894 0-0.06865 0.25745-0.3261 0.26603-0.26603 0.26603-0.3776z" style="font-feature-settings:normal;font-variant-caps:normal;font-variant-ligatures:normal;font-variant-numeric:normal"/>
    <path d="m25.061 62.437q0.14589 0 0.25745 0.0944 0.11156 0.08582 0.11156 0.14589 0 0.10298-0.3261 0.23171-0.53207 0.21454-1.0899 1.0384-0.54923 0.81526-0.66937 1.579-0.13731 0.86675-0.22312 1.1328-0.08582 0.27462-0.22312 0.27462-0.12014 0-0.1888-0.08582-0.06007-0.08582-0.08582-0.1888-0.01716-0.10298-0.04291-0.3776-0.0086-0.05149-0.0086-0.07724-0.20596-2.1626-0.20596-3.4155 0-0.44625 0.03433-0.54923 0.0944-0.27462 0.24029-0.27462 0.13731 0 0.13731 0.23171 0 0.38618 0.12014 1.2443t0.18022 0.85817q0.07724 0 0.31752-0.47199 0.30036-0.55781 0.7981-0.96973 0.50632-0.4205 0.86675-0.4205z" style="font-feature-settings:normal;font-variant-caps:normal;font-variant-ligatures:normal;font-variant-numeric:normal"/>
    <path d="m27.001 61.716q0.12014-0.10298 0.20596-0.10298 0.18022 0 0.25745 0.57497 0.08582 0.56639 0.15447 2.1883 0.03433 0.75519 0.03433 1.3645 0 0.6093-0.05149 0.66937-0.10298 0.12872-0.25745 0.12872-0.21454 0-0.26603-0.18022-0.04291-0.11156-0.12873-1.7335-0.08582-1.6305-0.08582-2.2656 0-0.53207 0.13731-0.64363zm-0.05149-2.0167q0-0.12014 0.0944-0.24029 0.10298-0.12014 0.18022-0.12014 0.08582 0 0.23171 0.12014 0.15447 0.11156 0.15447 0.29178 0 0.12872-0.07724 0.22312-0.06865 0.08582-0.1888 0.08582-0.13731 0-0.26603-0.10298-0.12873-0.10298-0.12873-0.25745z" style="font-feature-settings:normal;font-variant-caps:normal;font-variant-ligatures:normal;font-variant-numeric:normal"/>
    <path d="m29.481 61.965q0-0.29178 0.17163-0.29178 0.11156 0 0.16305 0.25745 0.05149 0.24887 0.1888 1.4932 0.15447 1.3473 0.18022 1.4074 0.03433-0.03433 0.24887-0.69512 0.19738-0.61788 0.30894-0.85817 0.12014-0.24887 0.41192-0.66079 0.62646-0.86675 0.96973-0.86675 0.22312 0 0.4205 0.30036 0.26603 0.39476 0.3261 0.78094 0.06007 0.38618 0.08582 1.8279 0.01716 0.92682 0.01716 1.0985 0 0.42908-0.03433 0.62646-0.02575 0.1888-0.08582 0.23171-0.05149 0.05149-0.1888 0.06007-0.07724 0-0.10298-0.06865-0.02575-0.06007-0.02575-0.29178 0-0.12873 0.01716-0.54923 0.01716-0.42908 0.01716-0.72086 0-0.72945-0.06007-1.4246-0.05149-0.7037-0.12872-0.90108-0.04291-0.11156-0.13731-0.23171-0.0944-0.12014-0.18022-0.12014-0.18022 0-0.57497 0.61788-0.39476 0.6093-0.67796 1.2873-0.26603 0.65221-0.36043 0.97832-0.0944 0.3261-0.14589 0.86675-0.0944 0.87533-0.13731 0.87533-0.06865 0-0.19738-0.14589-0.0944-0.0944-0.12872-0.40334-0.03433-0.31752-0.0944-1.2443-0.06007-0.93541-0.16305-1.888-0.10298-0.9869-0.10298-1.3473z" style="font-feature-settings:normal;font-variant-caps:normal;font-variant-ligatures:normal;font-variant-numeric:normal"/>
    <path d="m35.265 64.591q-0.12873 0-0.54923-0.30894-0.4205-0.31752-0.4205-0.64363 0-0.30894 0.43767-0.84959 0.43767-0.54923 1.0556-0.7037 0.2832-0.07724 0.74661-0.07724 0.19738 0 0.29178 0.05149 0.0944 0.05149 0.25745 0.23171 0.26603 0.30036 0.26603 0.41192 0 0.10298-0.11156 0.10298-0.13731 0-0.23171-0.0944-0.0944-0.10298-0.23171-0.20596-0.13731-0.10298-0.36901-0.10298-0.30036 0-0.64363 0.16305-0.34327 0.16305-0.6093 0.45483-0.3776 0.40334-0.3776 0.54923t0.22312 0.35185q0.22312 0.19738 0.74661 0.3776 0.82384 0.2832 1.1156 0.53207 0.29178 0.24887 0.29178 0.66937 0 0.39476-0.13731 0.72086-0.0944 0.24887-0.40334 0.55781-0.30894 0.30894-0.6093 0.30894-0.23171 0-0.60072-0.07724-0.36901-0.06865-0.55781-0.16305-0.15447-0.07724-0.2832-0.30036-0.12872-0.23171-0.12872-0.41192 0-0.0944 0.04291-0.16305 0.05149-0.07723 0.12014-0.07723 0.12873 0 0.24029 0.24029 0.10298 0.21454 0.41192 0.38618 0.31752 0.17163 0.59214 0.17163 0.36901 0 0.65221-0.43767 0.2832-0.44625 0.2832-0.69512 0-0.06007-0.03433-0.14589-0.02575-0.0944-0.14589-0.22312-0.12014-0.12873-0.30894-0.19738-0.18022-0.06007-0.4205-0.16305-0.24029-0.10298-0.40334-0.17163-0.15447-0.06865-0.19738-0.06865z" style="font-feature-settings:normal;font-variant-caps:normal;font-variant-ligatures:normal;font-variant-numeric:normal"/>
    <path d="m41.04 62.334q-0.39476 0-0.84101 0.16305-0.43767 0.16305-0.78094 0.33469-0.34327 0.16305-0.49774 0.16305-0.10298 0-0.10298-0.08582 0-0.12014 0.05149-0.20596 0.05149-0.08582 0.1888-0.16305 0.13731-0.07724 0.25745-0.12873 0.12873-0.05149 0.40334-0.14589 0.27461-0.10298 0.47199-0.1888 0.46341-0.18022 0.78094-0.18022 0.56639 0 0.88392 0.61788 0.15447 0.30036 0.18022 0.55781 0.02575 0.24887 0.04291 1.416 0.0086 0.65221 0.02575 1.0985 0.01716 0.43767 0.03433 0.55781l0.01716 0.11156q0 0.12014-0.11156 0.25745-0.10298 0.13731-0.15447 0.13731-0.17163 0-0.26603-0.54065-0.0944-0.54923-0.10298-0.54923-0.02575 0-0.07724 0.0944-0.17163 0.2832-0.69512 0.62646-0.5149 0.33469-0.86675 0.33469-0.21454 0-0.50632-0.07724-0.2832-0.08582-0.41192-0.18022-0.0944-0.07724-0.16305-0.30894-0.06007-0.23171-0.06007-0.47199 0-0.36043 0.1888-0.61788 0.19738-0.26603 0.69512-0.54065 0.54065-0.31752 1.047-0.31752 0.20596 0 0.34327 0.06865 0.13731 0.06865 0.20596 0.14589 0.06865 0.06865 0.11156 0.06865 0.03433 0 0.16305 0.0944 0.12873 0.08582 0.13731 0.08582 0.03433 0 0.03433-0.1888 0-1.1499-0.16305-1.5962-0.15447-0.44625-0.46341-0.44625zm0.38618 2.6603q0-0.03433-0.02575-0.07724-0.01716-0.05149-0.08582-0.11156-0.06007-0.06865-0.16305-0.12014-0.0944-0.06007-0.26603-0.0944-0.17163-0.04291-0.38618-0.04291-0.36901 0-0.65221 0.12872-0.27462 0.12873-0.41192 0.3261-0.13731 0.19738-0.20596 0.36901-0.06007 0.16305-0.06007 0.29178 0 0.21454 0.03433 0.29178 0.04291 0.07724 0.19738 0.16305 0.1888 0.0944 0.34327 0.0944 0.29178 0 0.72086-0.20596 0.43767-0.21454 0.43767-0.30894 0-0.06865 0.25745-0.3261 0.26603-0.26603 0.26603-0.3776z" style="font-feature-settings:normal;font-variant-caps:normal;font-variant-ligatures:normal;font-variant-numeric:normal"/>
    <path d="m46.721 62.428q0-0.19738 0.12014-0.39476 0.12873-0.19738 0.29178-0.19738 0.1888 0 0.1888 0.22312 0 0.40334-1.0641 3.304-0.21454 0.59214-0.54923 1.0899-0.33469 0.49774-0.5149 0.49774-0.13731 0-0.26603-0.15447-0.12014-0.15447-0.24887-0.49774-0.12872-0.34327-0.22312-0.65221-0.0944-0.30894-0.25745-0.86675-0.15447-0.56639-0.25745-0.8925-0.50632-1.682-0.50632-1.8966 0-0.07724 0.06865-0.07724 0.05149 0 0.08582 0.0086 0.24887 0.04291 0.61788 1.107 0.3776 1.0641 0.66937 2.1111 0.29178 1.047 0.33469 1.047 0.0944 0 0.40334-0.63505 0.31752-0.63505 0.48058-1.1671 0.12014-0.3776 0.29178-0.84959 0.17163-0.48058 0.24887-0.72944 0.08582-0.24887 0.08582-0.3776z" style="font-feature-settings:normal;font-variant-caps:normal;font-variant-ligatures:normal;font-variant-numeric:normal"/>
   </g>
   <g transform="scale(.91898 1.0882)" aria-label="albumin">
    <path d="m-18.251 85.983q-0.3793 0-0.80806 0.15666-0.42052 0.15666-0.75034 0.32158-0.32982 0.15666-0.47824 0.15666-0.09895 0-0.09895-0.08245 0-0.11544 0.04947-0.19789 0.04947-0.08246 0.1814-0.15666 0.13193-0.07421 0.24737-0.12368 0.12368-0.04947 0.38754-0.14017 0.26386-0.09895 0.4535-0.1814 0.44526-0.17316 0.75034-0.17316 0.54421 0 0.84929 0.59368 0.14842 0.28859 0.17316 0.53596 0.02474 0.23912 0.04123 1.3605 0.0082 0.62666 0.02474 1.0554 0.01649 0.42052 0.03298 0.53596l0.01649 0.10719q0 0.11544-0.10719 0.24737-0.09895 0.13193-0.14842 0.13193-0.16491 0-0.25561-0.51947-0.0907-0.52772-0.09895-0.52772-0.02474 0-0.07421 0.0907-0.16491 0.2721-0.66789 0.60192-0.49473 0.32158-0.8328 0.32158-0.20614 0-0.48649-0.07421-0.2721-0.08246-0.39579-0.17316-0.0907-0.07421-0.15666-0.29684-0.05772-0.22263-0.05772-0.4535 0-0.34631 0.1814-0.59368 0.18965-0.25561 0.66789-0.51947 0.51947-0.30508 1.006-0.30508 0.19789 0 0.32982 0.06596 0.13193 0.06596 0.19789 0.14017 0.06596 0.06597 0.10719 0.06597 0.03298 0 0.15666 0.0907 0.12368 0.08246 0.13193 0.08246 0.03298 0 0.03298-0.1814 0-1.1049-0.15666-1.5337-0.14842-0.42877-0.44526-0.42877zm0.37105 2.5561q0-0.03298-0.02474-0.07421-0.01649-0.04947-0.08245-0.10719-0.05772-0.06596-0.15666-0.11544-0.0907-0.05772-0.25561-0.0907-0.16491-0.04123-0.37105-0.04123-0.35456 0-0.62666 0.12368-0.26386 0.12368-0.39579 0.31333-0.13193 0.18965-0.19789 0.35456-0.05772 0.15666-0.05772 0.28035 0 0.20614 0.03298 0.28035 0.04123 0.07421 0.18965 0.15667 0.1814 0.0907 0.32982 0.0907 0.28035 0 0.69263-0.19789 0.42052-0.20614 0.42052-0.29684 0-0.06596 0.24737-0.31333 0.25561-0.25561 0.25561-0.3628z"/>
    <path d="m-15.852 83.501q0-0.63491 0.03298-0.96473 0.03298-0.33807 0.08245-0.42877 0.04947-0.0907 0.14017-0.0907 0.08246 0 0.13193 0.07421 0.04947 0.08245 0.29684 3.8177 0.25561 3.7352 0.25561 3.8836 0 0.10719-0.04947 0.14842-0.04947 0.03298-0.16491 0.03298-0.19789 0-0.25561-0.28035-0.05772-0.28859-0.16491-1.7893-0.13193-1.814-0.25561-3.2405-0.04947-0.53596-0.04947-1.1626z"/>
    <path d="m-10.278 85.62q0.11544 0 0.26386 0.07421 0.15667 0.06596 0.32982 0.21438 0.17316 0.14017 0.28859 0.43701 0.11544 0.28859 0.11544 0.67614 0 0.57719-0.26386 1.2038-0.25561 0.61842-0.71736 1.0802-0.34631 0.34631-0.91526 0.65964-0.5607 0.31333-0.8328 0.31333-0.2721 0-0.61017-0.18965-0.33807-0.18965-0.37929-0.35456-0.02474-0.0907-0.0907-1.6656-0.06597-1.5831-0.17316-2.2428-0.22263-1.4017-0.22263-2.2428 0-0.30508 0.11544-0.42052 0.12368-0.12368 0.19789-0.12368 0.12368 0 0.16491 0.30508 0.04947 0.30508 0.09895 1.006 0.04947 0.70087 0.13193 1.2286 0.10719 0.69262 0.14842 1.1379l0.04123 0.4535 0.64315-0.63491q0.64315-0.64315 1.0802-0.78333 0.42052-0.13193 0.58543-0.13193zm0.51947 1.443q0-0.91526-0.54421-0.91526-0.14017 0-0.40403 0.04947-0.17316 0.03298-0.57719 0.39578-0.40403 0.35456-0.73385 0.76684-0.20614 0.26386-0.32982 0.70087-0.11544 0.43701-0.11544 0.85754 0 0.47 0.14017 0.69262 0.14017 0.21438 0.31333 0.21438 0.0907 0 0.41228-0.09895 0.3628-0.11544 0.75859-0.46175 0.40403-0.34631 0.70087-0.79982 0.37929-0.58543 0.37929-1.4017z"/>
    <path d="m-8.1587 87.187q0-1.5419 0.23088-1.5419 0.041228 0 0.082455 0.01649 0.049473 0.01649 0.11544 0.12368 0.065964 0.09895 0.065964 0.28035 0 0.08245-0.016491 0.28035-0.016491 0.18965-0.016491 0.42877 0 0.66789 0.07421 1.6244 0.07421 0.95648 0.15667 1.2533 0.082455 0.32158 0.28035 0.32158 0.18965 0 0.57719-0.33807 0.47824-0.42052 0.91525-1.311 0.44526-0.89052 0.61842-1.781 0.16491-0.87403 0.2721-0.93175 0.082455-0.05772 0.17316-0.05772 0.19789 0 0.19789 0.23088 0 0.11544-0.12368 0.96473-0.11544 0.84929-0.11544 1.2203 0 0.51947 0.20614 1.2945 0.21438 0.77508 0.21438 0.87403 0 0.08245-0.065964 0.13193-0.065964 0.04947-0.11544 0.05772-0.041228 0.01649-0.065964 0.01649-0.14842 0-0.29684-0.42052-0.14017-0.42052-0.25561-0.84105-0.10719-0.42052-0.18965-0.42052-0.016491 0-0.032982 0.0082t-0.041228 0.03298q-0.016491 0.01649-0.032982 0.04123t-0.049473 0.06596q-0.024737 0.04123-0.049473 0.07421-0.016491 0.03298-0.057719 0.09895-0.041228 0.06596-0.065964 0.10719-0.3628 0.56894-0.80806 0.94824-0.43701 0.3793-0.7421 0.3793-0.34631 0-0.51947-0.15666-0.17316-0.14842-0.28035-0.54421-0.098947-0.39579-0.1814-1.2533-0.057719-0.54421-0.057719-1.2781z"/>
    <path d="m-2.6012 85.942q0-0.47824 0.13193-0.47824 0.10719 0 0.23088 0.75034 0.13193 0.75034 0.1814 0.75034 0.016491 0 0.057719-0.09895 0.041228-0.10719 0.090701-0.23088 0.049473-0.13193 0.082455-0.16491 0.082455-0.10719 0.22263-0.40403 0.17316-0.35456 0.26386-0.42877 0.090701-0.08246 0.32158-0.08246 0.25561 0 0.5607 0.35456 0.19789 0.23088 0.26386 0.42877 0.07421 0.18965 0.15667 0.69262l0.13193 0.77508 0.14017-0.49473q0.20614-0.71736 0.59368-1.2368 0.38754-0.51947 0.71736-0.51947 0.20614 0 0.37929 0.23912 0.17316 0.23088 0.24737 0.59368 0.07421 0.32982 0.07421 1.4924 0 0.86578-0.00825 1.3358t-0.041228 0.68438q-0.024737 0.20614-0.049473 0.23912-0.024737 0.04123-0.090701 0.04947-0.024737 0.0082-0.057719 0.0082-0.07421 0-0.090701-0.23088t-0.024737-1.2946q0-2.5973-0.39579-2.5973-0.21438 0-0.5607 0.70912-0.28859 0.58543-0.48649 1.4265-0.19789 0.84104-0.23912 1.6986-0.008246 0.20614-0.049473 0.28035-0.032982 0.07421-0.11544 0.07421-0.098946 0-0.13193-0.17316-0.024737-0.16491-0.057719-0.89052-0.057719-1.3358-0.16491-1.8717-0.10719-0.54421-0.39579-0.98122-0.21438-0.30508-0.31333-0.30508-0.11544 0-0.25561 0.28859-0.14017 0.28035-0.46175 1.0802-0.14842 0.38754-0.14842 0.70912 0 0.18965-0.07421 0.42052-0.065964 0.22263-0.090701 1.1131-0.016491 0.8328-0.065964 0.94824-0.032982 0.09895-0.13193 0.09895-0.13193 0-0.1814-0.39579-0.041228-0.39579-0.041228-1.5831 0-0.95648-0.065964-1.7563-0.057719-0.79982-0.057719-1.0224z"/>
    <path d="m4.1107 85.39q0.11544-0.09895 0.19789-0.09895 0.17316 0 0.24737 0.55245 0.082455 0.54421 0.14842 2.1026 0.032982 0.72561 0.032982 1.311 0 0.58543-0.049473 0.64315-0.098947 0.12368-0.24737 0.12368-0.20614 0-0.25561-0.17316-0.041228-0.10719-0.12368-1.6656-0.082455-1.5667-0.082455-2.1768 0-0.51122 0.13193-0.61842zm-0.049473-1.9377q0-0.11544 0.090701-0.23088 0.098947-0.11544 0.17316-0.11544 0.082455 0 0.22263 0.11544 0.14842 0.10719 0.14842 0.28035 0 0.12368-0.07421 0.21438-0.065964 0.08246-0.1814 0.08246-0.13193 0-0.25561-0.09895t-0.12368-0.24737z"/>
    <path d="m6.4936 85.629q0-0.28035 0.16491-0.28035 0.10719 0 0.15667 0.24737 0.049473 0.23912 0.1814 1.4347 0.14842 1.2946 0.17316 1.3523 0.032982-0.03298 0.23912-0.66789 0.18965-0.59368 0.29684-0.82455 0.11544-0.23912 0.39579-0.63491 0.60192-0.8328 0.93175-0.8328 0.21438 0 0.40403 0.28859 0.25561 0.3793 0.31333 0.75034 0.057719 0.37105 0.082455 1.7563 0.016491 0.89052 0.016491 1.0554 0 0.41228-0.032982 0.60192-0.024737 0.1814-0.082455 0.22263-0.049473 0.04947-0.1814 0.05772-0.07421 0-0.098946-0.06597-0.024737-0.05772-0.024737-0.28035 0-0.12368 0.016491-0.52772 0.016491-0.41228 0.016491-0.69262 0-0.70087-0.057719-1.3688-0.049473-0.67614-0.12368-0.86578-0.041228-0.10719-0.13193-0.22263-0.090701-0.11544-0.17316-0.11544-0.17316 0-0.55245 0.59368-0.37929 0.58543-0.6514 1.2368-0.25561 0.62666-0.34631 0.93999-0.090701 0.31333-0.14017 0.8328-0.090701 0.84104-0.13193 0.84104-0.065964 0-0.18965-0.14018-0.090701-0.0907-0.12368-0.38754-0.032982-0.30508-0.090701-1.1956-0.057719-0.89876-0.15667-1.814-0.098947-0.94824-0.098947-1.2946z"/>
   </g>
   <g transform="scale(.91898 1.0882)" aria-label="kazein">
    <path d="m-24.227 104.9q0-0.29684 0.18965-0.29684 0.15667 0 0.23088 0.18965 0.04947 0.11543 0.10719 0.70911 0.06596 0.59368 0.13193 1.3358 0.07421 0.7421 0.12368 1.0554l0.06596 0.47824 0.93999-0.93999q0.50298-0.50298 0.70912-0.67614 0.20614-0.1814 0.30508-0.1814 0.05772 0 0.12368 0.0825 0.07421 0.0825 0.07421 0.16491 0 0.0577-0.03298 0.099-0.02474 0.033-0.07421 0.066-0.04123 0.0247-0.14017 0.13193-0.09895 0.10719-0.21438 0.26386-0.38754 0.55245-1.3028 1.2863-0.32982 0.25561-0.32982 0.42877 0 0.11544 0.14842 0.18965l0.88227 0.41227q0.61017 0.2886 1.0142 0.57719 0.40403 0.28859 0.40403 0.44526 0 0.17316-0.16491 0.17316-0.14842 0-0.43701-0.1979-0.28859-0.20614-0.3628-0.20614-0.09895 0-0.09895-0.066 0-0.0907-1.006-0.46175l-0.43701-0.16491 0.05772 0.68438q0.02474 0.2721 0.02474 0.42877 0 0.34631-0.17316 0.34631-0.26386 0-0.33807-0.3628-0.06596-0.37105-0.12368-1.8717-0.04947-1.3275-0.12368-1.7316-0.07421-0.39578-0.12368-1.1461-0.04947-0.75034-0.04947-1.2451z"/>
    <path d="m-17.383 107.04q-0.3793 0-0.80806 0.15667-0.42052 0.15666-0.75034 0.32157-0.32982 0.15667-0.47824 0.15667-0.09895 0-0.09895-0.0825 0-0.11543 0.04947-0.19789 0.04947-0.0824 0.1814-0.15666 0.13193-0.0742 0.24737-0.12369 0.12368-0.0495 0.38754-0.14017 0.26386-0.099 0.4535-0.1814 0.44526-0.17316 0.75034-0.17316 0.54421 0 0.84929 0.59368 0.14842 0.28859 0.17316 0.53596 0.02474 0.23912 0.04123 1.3605 0.0082 0.62666 0.02474 1.0554 0.01649 0.42052 0.03298 0.53596l0.01649 0.10719q0 0.11544-0.10719 0.24737-0.09895 0.13193-0.14842 0.13193-0.16491 0-0.25561-0.51947-0.0907-0.52771-0.09895-0.52771-0.02474 0-0.07421 0.0907-0.16491 0.2721-0.66789 0.60192-0.49473 0.32158-0.8328 0.32158-0.20614 0-0.48649-0.0742-0.2721-0.0825-0.39579-0.17316-0.0907-0.0742-0.15667-0.29684-0.05772-0.22263-0.05772-0.4535 0-0.34632 0.1814-0.59368 0.18965-0.25561 0.66789-0.51947 0.51947-0.30509 1.006-0.30509 0.19789 0 0.32982 0.066 0.13193 0.066 0.19789 0.14017 0.06596 0.066 0.10719 0.066 0.03298 0 0.15666 0.0907 0.12368 0.0825 0.13193 0.0825 0.03298 0 0.03298-0.1814 0-1.1049-0.15667-1.5337-0.14842-0.42877-0.44526-0.42877zm0.37105 2.5561q0-0.033-0.02474-0.0742-0.01649-0.0495-0.08245-0.10719-0.05772-0.066-0.15667-0.11544-0.0907-0.0577-0.25561-0.0907-0.16491-0.0412-0.37105-0.0412-0.35456 0-0.62666 0.12369-0.26386 0.12368-0.39579 0.31333-0.13193 0.18964-0.19789 0.35455-0.05772 0.15667-0.05772 0.28035 0 0.20614 0.03298 0.28035 0.04123 0.0742 0.18965 0.15667 0.1814 0.0907 0.32982 0.0907 0.28035 0 0.69262-0.1979 0.42052-0.20613 0.42052-0.29684 0-0.066 0.24737-0.31333 0.25561-0.25561 0.25561-0.3628z"/>
    <path d="m-15.058 107.9q-0.09895 0-0.19789-0.0412-0.09895-0.0412-0.09895-0.10719 0-0.23088 0.84929-0.55245 0.85754-0.32158 1.2533-0.41228 0.11544-0.0247 0.23912-0.0247 0.22263 0 0.43701 0.066 0.21438 0.0577 0.29684 0.14842 0.10719 0.11544 0.10719 0.40403 0 0.43701-0.23912 0.95648l-0.1814 0.3793 0.30508 0.0412q0.37105 0.0247 0.37105 0.11544 0 0.066-0.1814 0.14842-0.1814 0.0825-0.42052 0.11544-0.22263 0.033-0.35456 0.10719-0.12368 0.0742-0.32158 0.28035-0.20614 0.21438-0.4535 0.62666-0.24737 0.40403-0.24737 0.51122 0 0.033 0.04123 0.033 0.02474 0 0.73385-0.13193 0.71736-0.14018 1.1379-0.14018 0.43701 0 0.43701 0.14842 0 0.0907-0.16491 0.15667-0.16491 0.0577-0.66789 0.15666-1.5502 0.30509-1.8882 0.30509-0.2721 0-0.2721-0.14842 0-0.15667 0.28035-0.69263 0.28035-0.53596 0.44526-0.73385 0.21438-0.26386 0.21438-0.31333 0-0.0577-0.33807-0.0577-0.41228 0-0.41228-0.13193 0-0.0989 0.18965-0.16491 0.19789-0.066 0.49473-0.066 0.29684 0 0.38754-0.033 0.09895-0.033 0.19789-0.17316 0.19789-0.29684 0.32982-0.65964 0.14017-0.37105 0.14017-0.62666 0-0.14018-0.04123-0.17316-0.04123-0.033-0.20614-0.033-0.39579 8e-3 -1.1049 0.22263-0.70912 0.21438-0.86578 0.37929-0.0907 0.11544-0.23088 0.11544z"/>
    <path d="m-6.5403 109.37q0.041228 0 0.041228 0.066 0 0.14842-0.22263 0.47825-0.21438 0.32982-0.46175 0.5442-0.86578 0.76684-1.7316 0.76684-0.32982 0-0.65964-0.14842-0.32158-0.15667-0.60192-0.43702-0.28035-0.28034-0.4535-0.75034-0.17316-0.47-0.17316-1.0472 0-0.35456 0.08246-0.60193 0.16491-0.50298 0.70087-1.0637 0.54421-0.5607 1.0224-0.5607 0.13193 0 0.39579 0.0247 0.39579 0.033 0.55245 0.0824 0.16491 0.0495 0.37105 0.20614 0.26386 0.19789 0.4535 0.51122 0.19789 0.30509 0.19789 0.51123 0 0.26385-0.20614 0.40403-0.20614 0.13193-0.79982 0.26386-0.77508 0.17315-1.5172 0.21438l-0.76684 0.0412v0.32982q0 0.61017 0.56894 1.1544 0.42877 0.41227 0.89052 0.41227 0.35456 0 0.75034-0.21438 0.40403-0.22263 0.68438-0.48649 0.28035-0.26386 0.53596-0.47824 0.25561-0.22263 0.34631-0.22263zm-1.3275-2.0119q-0.25561-0.23088-0.38754-0.2886-0.12368-0.066-0.32982-0.066-0.41228 0-0.61842 0.0825-0.19789 0.0742-0.40403 0.31333-0.62666 0.71736-0.62666 0.95648 0 0.10719 0.19789 0.10719 0.75034 0 2.1273-0.31333 0.41228-0.099 0.41228-0.34631 0-0.11544-0.37105-0.44526z"/>
    <path d="m-5.1963 106.45q0.11544-0.0989 0.19789-0.0989 0.17316 0 0.24737 0.55245 0.082455 0.5442 0.14842 2.1026 0.032982 0.72561 0.032982 1.311 0 0.58544-0.049473 0.64315-0.098946 0.12369-0.24737 0.12369-0.20614 0-0.25561-0.17316-0.041228-0.10719-0.12368-1.6656-0.082455-1.5666-0.082455-2.1768 0-0.51122 0.13193-0.61842zm-0.049473-1.9377q0-0.11544 0.090701-0.23087 0.098947-0.11544 0.17316-0.11544 0.082455 0 0.22263 0.11544 0.14842 0.10719 0.14842 0.28035 0 0.12368-0.07421 0.21438-0.065964 0.0824-0.1814 0.0824-0.13193 0-0.25561-0.0989-0.12368-0.099-0.12368-0.24737z"/>
    <path d="m-2.8133 106.69q0-0.28034 0.16491-0.28034 0.10719 0 0.15667 0.24736 0.049473 0.23912 0.1814 1.4347 0.14842 1.2946 0.17316 1.3523 0.032982-0.033 0.23912-0.66788 0.18965-0.59368 0.29684-0.82456 0.11544-0.23912 0.39579-0.6349 0.60192-0.8328 0.93175-0.8328 0.21438 0 0.40403 0.28859 0.25561 0.37929 0.31333 0.75034 0.057719 0.37105 0.082455 1.7563 0.016491 0.89052 0.016491 1.0554 0 0.41228-0.032982 0.60193-0.024737 0.1814-0.082455 0.22263-0.049473 0.0495-0.1814 0.0577-0.07421 0-0.098946-0.066-0.024737-0.0577-0.024737-0.28035 0-0.12368 0.016491-0.52771 0.016491-0.41228 0.016491-0.69263 0-0.70087-0.057719-1.3688-0.049473-0.67613-0.12368-0.86578-0.041228-0.10719-0.13193-0.22263-0.090701-0.11544-0.17316-0.11544-0.17316 0-0.55245 0.59368-0.37929 0.58544-0.6514 1.2368-0.25561 0.62667-0.34631 0.94-0.090701 0.31333-0.14017 0.8328-0.090701 0.84104-0.13193 0.84104-0.065964 0-0.18965-0.14017-0.090701-0.0907-0.12368-0.38754-0.032982-0.30509-0.090701-1.1956-0.057719-0.89876-0.15667-1.814-0.098946-0.94823-0.098946-1.2946z"/>
   </g>
   <g transform="scale(.91898 1.0882)" aria-label="DNS">
    <path d="m5.8986 121.9q0-0.11544 0.10719-0.28035t0.19789-0.16491q0.10719 0 0.24737-0.19789 0.13193-0.1979 0.80806-0.27211 0.86578-0.0824 1.1379-0.0824 0.34631 0 0.84929 0.0907 1.443 0.24737 2.0284 0.73385 0.58543 0.47824 0.58543 1.4512 0 0.86578-0.29684 1.6409-0.28859 0.77508-0.75034 1.2946-0.46175 0.51947-0.97297 0.86578-0.51122 0.33807-0.99771 0.45351-0.20614 0.0495-0.30508 0.15666-0.098947 0.11544-0.10719 0.21439-0.00825 0.0989-0.082455 0.17315-0.065964 0.0825-0.22263 0.0825-0.25561 0-0.25561-0.099 0-0.0577-0.065964-0.099-0.065964-0.0412-0.14842-0.066-0.07421-0.0247-0.14017-0.10719-0.065964-0.0825-0.065964-0.21439 0-0.22262 0.15667-0.28034 0.15667-0.0577 0.15667-0.70087 0-0.33807-0.041228-0.68438-0.041228-0.35456-0.14017-1.0637-0.090701-0.71736-0.17316-1.5831l-0.13193-1.4265-0.29684 0.0247q-0.18965 0.0165-0.3628 0.14017-0.17316 0.11544-0.28035 0.22263t-0.16491 0.10719q-0.057719 0-0.16491-0.11544-0.10719-0.12368-0.10719-0.21438zm1.9707 0.0247q0 0.25561 0.23088 1.9377 0.23912 1.6821 0.23912 2.1933 0 0.16491-0.016491 0.32982l-0.065964 0.42053h0.44526q0.73385 0 1.6656-1.0389 0.52772-0.59368 0.70912-1.1956 0.18965-0.60192 0.18965-1.4677 0-0.36281-0.05772-0.50298-0.04947-0.14017-0.23912-0.35456-0.18965-0.20614-0.42877-0.30508-0.23912-0.099-0.78333-0.20614-0.98946-0.16491-1.4924-0.16491-0.23088 0-0.31333 0.0577-0.082455 0.0577-0.082455 0.29684z"/>
    <path d="m13.872 124.85q0 0.42052 0.03298 0.73385t0.03298 0.39579q0 0.42052-0.11544 0.80806-0.10719 0.37929-0.23912 0.37929-0.19789-8e-3 -0.28035-0.0742-0.07421-0.066-0.11544-0.32982-0.04123-0.2721-0.04123-0.88227 0-1.0554 0.05772-2.82 0.05772-1.7728 0.10719-1.8965 0.0907-0.20614 0.33807-0.20614 0.14017 0 0.28035 0.0907 0.10719 0.066 0.61017 0.79158 0.51122 0.71736 0.51122 0.79981 0 0.0495 0.14842 0.28035 0.14842 0.22263 0.51122 0.84929 0.37105 0.61842 0.76684 1.4017 0.85754 1.6903 1.1214 1.6903 0.03298 0 0.05772-0.0165t0.06596-0.13193q0.04123-0.11544 0.07421-0.32158 0.03298-0.21438 0.06596-0.6349 0.04123-0.42877 0.07421-1.0307 0.14842-2.35 0.24737-2.754 0.08245-0.3628 0.28035-0.41227 0.04947-8e-3 0.12368-8e-3 0.14017 0 0.19789 0.10719 0.06596 0.1072 0.06596 0.37105 0 0.1814-0.04123 0.57719t-0.13193 1.2286q-0.08245 0.8328-0.15666 1.7728-0.0907 1.2533-0.20614 1.6326-0.10719 0.37105-0.41228 0.37105-0.53596 0-0.96473-0.42876-0.42877-0.42877-0.88227-1.3523-0.22263-0.44526-0.39579-0.75859-0.17316-0.32158-0.23088-0.41228-0.05772-0.099-0.09895-0.18965-0.04123-0.0989-0.08246-0.25561-0.05772-0.25561-0.58543-1.0637-0.52771-0.81631-0.53596-0.84105-0.0082-0.0165-0.02474-0.0165-0.08246 0-0.15667 0.87403-0.07421 0.86578-0.07421 1.6821z"/>
    <path d="m20.749 125.89q0 0.16491-0.12368 0.29683-0.12368 0.12369-0.12368 0.20614 0 0.0907 0.05772 0.21439 0.08246 0.1814 0.20614 0.22263 0.13193 0.0412 0.63491 0.0412 0.42877 0 0.64315-0.0495t0.41228-0.19789q0.32158-0.23088 0.39579-0.36281 0.08245-0.14017 0.08245-0.46999 0-0.24737-0.0907-0.34631-0.0907-0.1072-0.48649-0.2886-0.56894-0.26385-0.73385-0.26385-0.35456 0-1.0884-0.61842-0.72561-0.61842-0.72561-0.9235 0-0.43701 0.44526-0.99771 0.44526-0.56894 0.99771-0.8328 0.28035-0.14017 1.0637-0.14017 0.34631 0 0.51947 0.0495 0.17316 0.0495 0.37105 0.21438 0.14017 0.11544 0.24737 0.27211 0.10719 0.14842 0.10719 0.23087 0 0.19789-0.06596 0.19789-0.06597 0-0.17316-0.0825-0.10719-0.0825-0.22263-0.17316-0.11544-0.0989-0.32982-0.1814t-0.47-0.0825q-0.69263 0-1.2698 0.50298-0.56894 0.50298-0.56894 1.0884 0 0.47824 1.6986 1.0224 1.3358 0.42052 1.3358 1.311 0 0.1814-0.06597 0.42052-0.18965 0.64316-0.64315 0.89052-0.4535 0.24737-1.5831 0.32158l-0.7421 0.0495-0.22263-0.46175q-0.17316-0.33807-0.17316-0.67613 0-0.28035 0.13193-0.45351 0.13193-0.17315 0.37105-0.17315 0.1814 0 0.1814 0.22263z"/>
   </g>
  </g>
 </g>
</svg>
