<?xml version="1.0" encoding="UTF-8" standalone="no"?>
<!-- Created with Inkscape (http://www.inkscape.org/) -->

<svg
   xmlns:dc="http://purl.org/dc/elements/1.1/"
   xmlns:cc="http://creativecommons.org/ns#"
   xmlns:rdf="http://www.w3.org/1999/02/22-rdf-syntax-ns#"
   xmlns:svg="http://www.w3.org/2000/svg"
   xmlns="http://www.w3.org/2000/svg"
   xmlns:sodipodi="http://sodipodi.sourceforge.net/DTD/sodipodi-0.dtd"
   xmlns:inkscape="http://www.inkscape.org/namespaces/inkscape"
   width="150.588mm"
   height="150.588mm"
   viewBox="0 0 150.588 150.588"
   version="1.1"
   id="svg33920"
   inkscape:version="0.92.3 (2405546, 2018-03-11)"
   sodipodi:docname="organogenicelements.svg">
  <defs
     id="defs33914">
    <inkscape:path-effect
       is_visible="true"
       id="path-effect15028"
       effect="spiro" />
    <inkscape:path-effect
       simplifyJustCoalesce="false"
       simplifyindividualpaths="false"
       simplify_just_coalesce="false"
       simplify_individual_paths="false"
       helper_size="0"
       smooth_angles="360"
       threshold="0.0175585"
       steps="1"
       is_visible="true"
       id="path-effect15026"
       effect="simplify" />
    <inkscape:path-effect
       is_visible="true"
       id="path-effect15014"
       effect="spiro" />
    <inkscape:path-effect
       simplifyJustCoalesce="false"
       simplifyindividualpaths="false"
       simplify_just_coalesce="false"
       simplify_individual_paths="false"
       helper_size="0"
       smooth_angles="360"
       threshold="0.0175585"
       steps="1"
       is_visible="true"
       id="path-effect15012"
       effect="simplify" />
    <inkscape:path-effect
       effect="spiro"
       id="path-effect14989"
       is_visible="true" />
    <inkscape:path-effect
       effect="simplify"
       id="path-effect14987"
       is_visible="true"
       steps="1"
       threshold="0.0175585"
       smooth_angles="360"
       helper_size="0"
       simplify_individual_paths="false"
       simplify_just_coalesce="false"
       simplifyindividualpaths="false"
       simplifyJustCoalesce="false" />
    <inkscape:path-effect
       effect="bspline"
       id="path-effect14983"
       is_visible="true"
       weight="33.333333"
       steps="2"
       helper_size="0"
       apply_no_weight="true"
       apply_with_weight="true"
       only_selected="false" />
    <inkscape:path-effect
       effect="simplify"
       id="path-effect14981"
       is_visible="true"
       steps="1"
       threshold="0.00557252"
       smooth_angles="360"
       helper_size="0"
       simplify_individual_paths="false"
       simplify_just_coalesce="false"
       simplifyindividualpaths="false"
       simplifyJustCoalesce="false" />
    <inkscape:path-effect
       effect="bspline"
       id="path-effect14969"
       is_visible="true"
       weight="33.333333"
       steps="2"
       helper_size="0"
       apply_no_weight="true"
       apply_with_weight="true"
       only_selected="false" />
    <inkscape:path-effect
       effect="simplify"
       id="path-effect14967"
       is_visible="true"
       steps="1"
       threshold="0.00557252"
       smooth_angles="360"
       helper_size="0"
       simplify_individual_paths="false"
       simplify_just_coalesce="false"
       simplifyindividualpaths="false"
       simplifyJustCoalesce="false" />
    <inkscape:path-effect
       simplifyJustCoalesce="false"
       simplifyindividualpaths="false"
       simplify_just_coalesce="false"
       simplify_individual_paths="false"
       helper_size="0"
       smooth_angles="360"
       threshold="0.00557252"
       steps="1"
       is_visible="true"
       id="path-effect2435"
       effect="simplify" />
    <inkscape:path-effect
       only_selected="false"
       apply_with_weight="true"
       apply_no_weight="true"
       helper_size="0"
       steps="2"
       weight="33.333333"
       is_visible="true"
       id="path-effect2437"
       effect="bspline" />
    <inkscape:path-effect
       simplifyJustCoalesce="false"
       simplifyindividualpaths="false"
       simplify_just_coalesce="false"
       simplify_individual_paths="false"
       helper_size="0"
       smooth_angles="360"
       threshold="0.00557252"
       steps="1"
       is_visible="true"
       id="path-effect2435-3"
       effect="simplify" />
    <inkscape:path-effect
       only_selected="false"
       apply_with_weight="true"
       apply_no_weight="true"
       helper_size="0"
       steps="2"
       weight="33.333333"
       is_visible="true"
       id="path-effect2437-6"
       effect="bspline" />
    <inkscape:path-effect
       simplifyJustCoalesce="false"
       simplifyindividualpaths="false"
       simplify_just_coalesce="false"
       simplify_individual_paths="false"
       helper_size="0"
       smooth_angles="360"
       threshold="0.00557252"
       steps="1"
       is_visible="true"
       id="path-effect2435-5"
       effect="simplify" />
    <inkscape:path-effect
       only_selected="false"
       apply_with_weight="true"
       apply_no_weight="true"
       helper_size="0"
       steps="2"
       weight="33.333333"
       is_visible="true"
       id="path-effect2437-3"
       effect="bspline" />
    <inkscape:path-effect
       effect="simplify"
       id="path-effect14987-6"
       is_visible="true"
       steps="1"
       threshold="0.0175585"
       smooth_angles="360"
       helper_size="0"
       simplify_individual_paths="false"
       simplify_just_coalesce="false"
       simplifyindividualpaths="false"
       simplifyJustCoalesce="false" />
    <inkscape:path-effect
       effect="spiro"
       id="path-effect14989-2"
       is_visible="true" />
    <inkscape:path-effect
       effect="simplify"
       id="path-effect14987-1"
       is_visible="true"
       steps="1"
       threshold="0.0175585"
       smooth_angles="360"
       helper_size="0"
       simplify_individual_paths="false"
       simplify_just_coalesce="false"
       simplifyindividualpaths="false"
       simplifyJustCoalesce="false" />
    <inkscape:path-effect
       effect="spiro"
       id="path-effect14989-27"
       is_visible="true" />
  </defs>
  <sodipodi:namedview
     id="base"
     pagecolor="#ffffff"
     bordercolor="#666666"
     borderopacity="1.0"
     inkscape:pageopacity="0.0"
     inkscape:pageshadow="2"
     inkscape:zoom="0.89873542"
     inkscape:cx="79.486684"
     inkscape:cy="345.58373"
     inkscape:document-units="mm"
     inkscape:current-layer="layer1"
     showgrid="false"
     inkscape:window-width="1366"
     inkscape:window-height="719"
     inkscape:window-x="0"
     inkscape:window-y="25"
     inkscape:window-maximized="1" />
  <metadata
     id="metadata33917">
    <rdf:RDF>
      <cc:Work
         rdf:about="">
        <dc:format>image/svg+xml</dc:format>
        <dc:type
           rdf:resource="http://purl.org/dc/dcmitype/StillImage" />
        <dc:title />
      </cc:Work>
    </rdf:RDF>
  </metadata>
  <g
     inkscape:label="Layer 1"
     inkscape:groupmode="layer"
     id="layer1"
     transform="translate(83.609483,-46.325049)">
    <path
       style="fill:none;stroke:#18b600;stroke-width:3;stroke-linecap:butt;stroke-linejoin:miter;stroke-opacity:1;stroke-miterlimit:4;stroke-dasharray:none"
       d="M -0.43622364,65.581268 C -7.6740695,58.256382 -17.936435,54.015459 -28.233727,54.093949 c -10.297292,0.07849 -20.493817,4.47536 -27.619161,11.909729 -6.766827,7.060303 -10.591716,16.369927 -14.059763,25.513804 -1.716819,4.526577 -3.397164,9.127228 -3.936115,13.938348 -0.538951,4.81112 0.163227,9.92041 2.885682,13.92361 2.883614,4.24017 7.71258,6.79979 12.648053,8.19097 4.935473,1.39119 10.09025,1.7697 15.148678,2.6103 6.016323,0.99978 11.930154,2.6597 18.004291,3.20794 6.074136,0.54824 12.50331,-0.12095 17.6301104,-3.42422 3.2873091,-2.11806 5.8648623,-5.21532 7.78375749,-8.62273 C 2.170701,117.93429 3.464428,114.21151 4.5547101,110.456 7.3332578,100.8852 8.8445906,90.6772 6.6652376,80.952442 5.4216636,75.403338 2.9831505,70.125155 -0.43622364,65.581268 Z"
       id="path14985"
       inkscape:connector-curvature="0"
       inkscape:path-effect="#path-effect14987;#path-effect14989"
       inkscape:original-d="M -0.43622364,65.581268 C -16.043268,65.167622 -48.996056,56.650673 -61.390419,70.064527 c -3.797532,4.109895 -8.396831,19.818942 -9.468615,25.618625 -0.762649,4.126901 -2.984148,18.518938 -1.183573,22.416308 1.064175,2.30342 1.025502,0.46939 2.367154,1.92139 12.946467,14.01138 35.472963,9.60698 52.669161,9.60698 4.258028,0 12.9081552,1.90847 15.3864954,-2.56186 6.7536228,-12.1819 8.2850342,-25.46702 8.2850342,-39.708871 0,-1.319924 0.6175732,-5.06792 0,-6.404657 C 4.8805389,77.089439 0.47324638,69.518369 -0.43622364,65.581268 Z" />
    <path
       style="fill:none;stroke:#00887a;stroke-width:3;stroke-linecap:butt;stroke-linejoin:miter;stroke-opacity:1;stroke-miterlimit:4;stroke-dasharray:none"
       d="m -18.355128,81.178395 c 7.237846,-7.324886 17.50021255,-11.565808 27.7975042,-11.487318 10.2972918,0.07849 20.4938168,4.475361 27.6191608,11.90973 6.766827,7.060303 10.591716,16.369927 14.059763,25.513803 1.716819,4.52658 3.397164,9.12723 3.936116,13.93835 0.538951,4.81112 -0.163228,9.92041 -2.885683,13.92361 -2.883614,4.24017 -7.71258,6.79979 -12.648053,8.19097 -4.935473,1.39119 -10.090249,1.7697 -15.148677,2.6103 -6.016323,0.99978 -11.930155,2.6597 -18.0042914,3.20794 -6.07413674,0.54824 -12.5033106,-0.12095 -17.6301116,-3.42422 -3.287309,-2.11806 -5.864862,-5.21532 -7.783758,-8.62273 -1.918895,-3.40741 -3.212622,-7.13019 -4.302904,-10.8857 -2.778547,-9.5708 -4.28988,-19.7788 -2.110528,-29.503555 1.243574,-5.549106 3.682087,-10.827291 7.101462,-15.37118 z"
       id="path14985-9"
       inkscape:connector-curvature="0"
       inkscape:path-effect="#path-effect15012;#path-effect15014"
       inkscape:original-d="m -18.355128,81.178395 c 15.6070462,-0.41364 48.559833,-8.93059 60.954196,4.48326 3.797532,4.1099 8.396831,19.818935 9.468615,25.618625 0.762649,4.1269 2.984148,18.51894 1.183573,22.41631 -1.064175,2.30342 -1.025502,0.46939 -2.367154,1.92139 -12.946467,14.01138 -35.472962,9.60698 -52.6691618,9.60698 -4.258027,0 -12.9081552,1.90847 -15.3864942,-2.56186 -6.753625,-12.1819 -8.285036,-25.46703 -8.285036,-39.70888 0,-1.31992 -0.617571,-5.067915 0,-6.404645 1.7847,-3.86301 6.191991,-11.43408 7.101462,-15.37118 z" />
    <path
       style="fill:none;stroke:#f61c2d;stroke-width:3;stroke-linecap:butt;stroke-linejoin:miter;stroke-miterlimit:4;stroke-dasharray:none;stroke-opacity:1"
       d="m -44.581033,113.03277 c -7.324887,7.23785 -11.565811,17.50021 -11.48732,27.79751 0.07849,10.29729 4.475362,20.49382 11.909732,27.61916 7.060304,6.76683 16.369928,10.59172 25.513805,14.05976 4.526578,1.71682 9.1272282,3.39716 13.938351,3.93611 4.81112273,0.53895 9.9204093,-0.16323 13.9236094,-2.88568 4.2401736,-2.88361 6.7997896,-7.71258 8.1909786,-12.64805 1.391189,-4.93548 1.769701,-10.09025 2.610299,-15.14868 0.999779,-6.01632 2.6597,-11.93015 3.207937,-18.00429 0.548237,-6.07414 -0.120949,-12.50331 -3.424223,-17.63011 -2.118062,-3.28731 -5.215323,-5.86486 -8.62273,-7.78376 -3.4074079,-1.91889 -7.1301878,-3.21262 -10.88569949,-4.3029 -9.57079841,-2.77855 -19.77880051,-4.28988 -29.50355951,-2.11053 -5.549106,1.24357 -10.82729,3.68209 -15.37118,7.10146 z"
       id="path14985-0"
       inkscape:connector-curvature="0"
       inkscape:path-effect="#path-effect15026;#path-effect15028"
       inkscape:original-d="m -44.581033,113.03277 c -0.41364,15.60705 -8.93059,48.55984 4.48326,60.9542 4.1099,3.79753 19.81894,8.39683 25.61863,9.46861 4.1269,0.76265 18.5189396,2.98415 22.4163099,1.18358 2.3034201,-1.06418 0.46939,-1.02551 1.92139,-2.36716 14.0113801,-12.94646 9.6069801,-35.47296 9.6069801,-52.66916 0,-4.25803 1.90847,-12.90815 -2.56186,-15.38649 -12.1819001,-6.75363 -25.4670304,-8.28504 -39.70888,-8.28504 -1.31992,0 -5.06792,-0.61757 -6.40465,0 -3.86301,1.7847 -11.43408,6.19199 -15.37118,7.10146 z" />
    <path
       style="opacity:1;fill:#18b600;fill-opacity:1;fill-rule:nonzero;stroke:#18b600;stroke-width:1.156;stroke-linecap:square;stroke-miterlimit:4;stroke-dasharray:none;stroke-dashoffset:0;stroke-opacity:1;paint-order:markers fill stroke"
       d="m -67.345802,113.54845 c -0.1773,-0.12954 -0.201618,-0.30152 -0.234193,-1.65622 -0.03767,-1.56653 0.152225,-8.49082 0.255677,-9.32308 0.04617,-0.37141 0.112088,-0.49736 0.30674,-0.58605 0.56072,-0.25548 1.120716,-0.0617 1.403831,0.48579 0.07981,0.15434 0.381572,1.05738 0.670579,2.00676 0.558789,1.8356 0.886338,2.69439 1.027662,2.69439 0.129088,0 0.354693,-0.49332 0.489413,-1.07017 0.06546,-0.28028 0.18201,-1.22051 0.259009,-2.08939 0.077,-0.86888 0.173442,-1.66355 0.214326,-1.76595 0.07901,-0.19788 0.440444,-0.37439 0.766617,-0.37439 0.191021,0 0.197146,0.1047 0.195252,3.33792 -0.0021,3.73509 -0.137232,6.74202 -0.32919,7.33 -0.121033,0.37073 -0.151474,0.39209 -0.600154,0.42113 -0.43924,0.0284 -0.487074,0.007 -0.676675,-0.30576 -0.112212,-0.185 -0.489275,-1.13845 -0.837917,-2.11879 -0.632788,-1.77932 -1.348835,-3.3646 -1.519737,-3.3646 -0.04969,0 -0.119875,0.63064 -0.155969,1.40142 -0.157324,3.35961 -0.315601,4.57635 -0.643022,4.94319 -0.192932,0.21615 -0.331828,0.22408 -0.592249,0.0338 z"
       id="path18144"
       inkscape:connector-curvature="0" />
    <path
       style="opacity:1;fill:#f61c2d;fill-opacity:1;fill-rule:nonzero;stroke:#f61c2d;stroke-width:1.15564311;stroke-linecap:square;stroke-miterlimit:4;stroke-dasharray:none;stroke-dashoffset:0;stroke-opacity:1;paint-order:markers fill stroke"
       d="m -2.0330637,182.24886 c -0.200847,-0.37529 -0.234166,-1.64438 -0.15898,-6.05549 l 0.07588,-4.45212 h 0.883685 c 0.71371896,0 0.97114796,0.0441 1.33844196,0.22932 0.653698,0.32964 0.814822,0.72108 0.885227,2.15064 0.10552704,2.14271 -0.248917,3.07305 -1.375296,3.60987 -0.73497496,0.35029 -0.83160696,0.60306 -0.90514196,2.36771 -0.07814,1.8751 -0.397277,2.79759 -0.743821,2.15007 z m 1.87740396,-5.75607 c 0.571998,-0.57199 0.763328,-2.47761 0.334185,-3.32842 -0.251526,-0.49867 -0.585036,-0.68127 -1.037098,-0.56781 -0.45706496,0.11472 -0.58451996,0.59693 -0.60301196,2.28143 -0.01569,1.42876 -0.0097,1.47288 0.224502,1.66256 0.33143496,0.26838 0.78532496,0.24834 1.08142296,-0.0478 z"
       id="path18146"
       inkscape:connector-curvature="0" />
    <path
       inkscape:connector-curvature="0"
       d="m -22.139837,163.20716 c -0.0269,-0.2422 -0.0407,-0.4863 -0.0554,-0.72994 -0.0322,-0.3841 -0.0403,-0.76067 0.0247,-1.13943 0.1666,-0.58851 0.58973,-0.8921 1.02778,-1.14095 0.5125,-0.2683 1.05494,-0.37061 1.60875,-0.35573 0.56828,0.0396 1.00819,0.28505 1.4293,0.73978 0.37829,0.46819 0.5493,1.07375 0.6648,1.70043 0.1214,0.74748 -0.0233,1.39139 -0.28346,2.06411 -0.30495,0.70291 -0.76166,1.27093 -1.22956,1.81333 -0.49322,0.56032 -1.04145,1.039 -1.60609,1.48478 -0.46807,0.35816 -0.96832,0.64609 -1.47665,0.9073 -0.29535,0.15305 -0.60053,0.2726 -0.91095,0.37006 -0.22702,0.0712 -0.17166,0.11105 -0.1014,-0.63688 8e-5,0 0.23127,-0.0276 0.35002,-0.0417 0.37652,-0.0449 0.754,-0.0757 1.13156,-0.1036 0.41353,-0.03 0.82751,-0.0492 1.24158,-0.0641 0.32443,-0.0114 0.64899,-0.0163 0.97355,-0.0178 0.21977,0 0.43953,0.003 0.65928,0.006 0.14592,0.003 0.29184,0.006 0.43775,0.01 0.0652,0.003 0.0334,0 0.0954,0.003 1.93858,0.0501 1.92696,0.7192 -0.0116,0.66906 v 0 c -0.0621,-0.003 -0.0305,0 -0.0952,-0.003 -0.14472,-0.004 -0.28944,-0.007 -0.43418,-0.01 -0.21641,-0.004 -0.43282,-0.007 -0.64925,-0.006 -0.3199,0.003 -0.63978,0.007 -0.95953,0.0175 -0.40841,0.0147 -0.81672,0.0335 -1.2246,0.0632 -0.37095,0.0273 -0.74183,0.0576 -1.11174,0.10173 -0.10081,0.012 -0.35284,0.0495 -0.35601,0.0424 -0.28083,-0.63039 -0.33662,-0.59709 -0.0822,-0.67796 0.2845,-0.0892 0.56419,-0.1983 0.83481,-0.33877 0.47886,-0.24564 0.95028,-0.51612 1.39156,-0.85244 0.53642,-0.42294 1.0575,-0.8768 1.52638,-1.40824 0.41971,-0.48537 0.83319,-0.99052 1.11215,-1.61631 0.20551,-0.51761 0.33883,-1.05082 0.24295,-1.63069 -0.0878,-0.49033 -0.20963,-0.97325 -0.49703,-1.34888 -0.3031,-0.34398 -0.65814,-0.53922 -1.07616,-0.56739 -0.46958,-0.0184 -0.92924,0.072 -1.36494,0.29466 -0.27822,0.15404 -0.58175,0.32696 -0.72195,0.6796 -0.0636,0.31097 -0.0306,0.62729 -0.0129,0.94374 0.0134,0.2233 0.0263,0.44691 0.0494,0.66907 0.31878,2.3338 -0.2222,2.4438 -0.54097,0.11004 z"
       id="path3680"
       style="opacity:1;fill:#000000;fill-opacity:1;stroke:#000000;stroke-width:0.4;stroke-linecap:square;stroke-miterlimit:4;stroke-dasharray:none;stroke-dashoffset:0;stroke-opacity:1;paint-order:markers fill stroke" />
    <path
       inkscape:connector-curvature="0"
       d="m -43.96903,78.870705 c 0.21985,-0.224028 0.43649,-0.451339 0.65266,-0.67908 0.40674,-0.428029 0.78978,-0.878549 1.16601,-1.33468 0.34707,-0.416589 0.67367,-0.84977 0.98355,-1.295929 0.1701,-0.250031 0.32938,-0.50809 0.46453,-0.779819 0.12633,-0.275051 0.0487,-0.345141 0.59759,0.0619 0.0428,0.0318 -0.009,0.10814 -0.0151,0.162049 -0.008,0.0681 -0.0169,0.136091 -0.0255,0.204142 -0.09,0.636958 -0.18794,1.272649 -0.27429,1.910189 -0.10567,0.78387 -0.18644,1.570841 -0.25698,2.358749 -0.0516,0.58587 -0.0889,1.172912 -0.1144,1.760573 -0.183571,3.393655 -0.675664,3.368275 -0.55611,-0.0253 v 0 c 0.026,-0.59662 0.0637,-1.192629 0.11618,-1.787399 0.0713,-0.796711 0.15305,-1.592471 0.25994,-2.3851 0.0861,-0.63555 0.18358,-1.269312 0.2735,-1.904272 0.008,-0.0624 0.0163,-0.124889 0.0235,-0.187478 0.005,-0.0443 -0.0296,-0.124841 0.0131,-0.133332 0.68173,-0.135308 0.57957,-0.0605 0.45397,0.225552 -0.14819,0.29613 -0.32041,0.57858 -0.50673,0.851009 -0.31893,0.45897 -0.65487,0.904779 -1.01194,1.33341 -0.38466,0.466219 -0.77628,0.926679 -1.19209,1.36417 -0.21793,0.229571 -0.43631,0.4587 -0.65789,0.684551 -1.39168,1.427398 -1.7853,1.02366 -0.39364,-0.403741 z"
       id="path3690"
       style="opacity:1;fill:#000000;fill-opacity:1;stroke:#000000;stroke-width:0.40000001;stroke-linecap:square;stroke-miterlimit:4;stroke-dasharray:none;stroke-dashoffset:0;stroke-opacity:1;paint-order:markers fill stroke"
       sodipodi:nodetypes="ccccccccccccccccccccccccc" />
    <path
       inkscape:connector-curvature="0"
       id="path3684-3"
       d="m -38.992785,116.30267 c -0.137102,0 -0.274219,0.58345 -0.274219,1.75035 v 0.99231 c -0.0011,0.52682 0.003,1.05364 -0.003,1.5804 -0.005,0.36972 -0.01479,0.74048 -0.0643,1.10594 -0.12668,0 -0.25332,0 -0.379989,0 -0.0021,0.009 -0.004,0.0142 -0.005,0.0224 -0.01019,0.009 -0.0131,0.0285 -0.0122,0.0578 -0.129828,0.63527 -0.24216,0.52624 0.0461,0.61201 0.0552,0.0184 0.110231,0.0364 0.156239,0.0794 0.162251,0.11129 0.333121,0.13267 0.490612,-0.0102 0.02619,-0.0316 0.049,-0.0651 0.0701,-0.0994 0.014,0 0.0278,0 0.0418,0 0.364948,0.004 0.729898,0.008 1.094859,0.012 0.307909,0.004 0.61582,0.006 0.923729,0.009 0.237366,0 0.474676,0.003 0.712044,0.003 -5.29e-4,0.34263 -5e-5,0.68503 0.01439,1.0273 0.01,0.21793 0.0281,0.43523 0.055,0.65105 0.01201,0.093 0.0254,0.18562 0.0449,0.27672 0.005,0.0205 0.0021,0.011 0.006,0.0294 0.464749,2.26574 0.99713,2.10747 0.53239,-0.15826 -0.005,-0.0252 -0.003,-0.0123 -0.008,-0.0392 -0.01421,-0.0682 -0.02421,-0.13747 -0.0331,-0.20695 -0.0245,-0.19437 -0.0404,-0.39018 -0.0494,-0.58645 -0.0141,-0.33104 -0.01479,-0.6622 -0.01389,-0.99352 0.0808,0 0.161531,0 0.24229,0 0.195479,0 0.39089,0 0.586369,0 0.144241,0 0.288542,0 0.43279,0 0.0773,6e-5 0.0392,0 0.113972,0 1.93906,-0.003 1.938679,-0.66201 -2.51e-4,-0.66008 -0.0748,-3e-5 -0.0368,0 -0.114131,0 -0.144349,0 -0.28878,0 -0.433128,0 -0.19539,0 -0.390811,0 -0.586201,0 -0.0806,-3e-5 -0.16107,0 -0.24162,0 v -0.96215 -0.89842 c 0,-2.33373 -0.548441,-2.33373 -0.548441,0 v 0.89842 0.96193 c -0.236228,0 -0.472459,0 -0.708684,-0.003 -0.30733,-0.003 -0.614738,-0.005 -0.922078,-0.009 -0.318352,-0.004 -0.63663,-0.007 -0.954982,-0.0104 0.0422,-0.36542 0.0566,-0.73435 0.0602,-1.10333 0.006,-0.52955 0.0021,-1.05907 0.003,-1.58865 v -0.99213 c 0,-1.16686 -0.137109,-1.75034 -0.274209,-1.75034 z"
       style="opacity:1;fill:#000000;fill-opacity:1;stroke:#000000;stroke-width:0.40000001;stroke-linecap:square;stroke-miterlimit:4;stroke-dasharray:none;stroke-dashoffset:0;stroke-opacity:1;paint-order:markers fill stroke;enable-background:new" />
    <path
       inkscape:connector-curvature="0"
       d="m -17.372789,114.67082 c -0.0826,-0.18811 -0.134901,-0.39156 -0.181229,-0.59597 -0.0853,-0.35265 -0.10246,-0.71225 -0.0786,-1.0763 0.035,-0.42212 0.179811,-0.77598 0.419629,-1.08036 0.281861,-0.30208 0.640659,-0.41306 1.002813,-0.48943 0.39483,-0.0707 0.77996,0.0107 1.15307,0.16469 0.341199,0.1531 0.61336,0.42551 0.843878,0.75751 0.189892,0.29391 0.295021,0.63774 0.359492,0.99762 0.0464,0.29707 0.0413,0.59915 0.02119,0.89887 -0.0155,0.20523 -0.0471,0.40791 -0.0859,0.60845 -0.01209,0.0368 -0.01471,0.0771 -0.02519,0.11457 -0.004,0.0117 0.009,-0.0239 0.007,-0.0361 -0.007,-0.0574 -0.0011,-0.12332 -0.0308,-0.16967 -0.0905,-0.14553 -0.11797,-0.14176 -0.21195,-0.158 0.188871,-0.0572 0.379302,-0.10635 0.570252,-0.15233 0.31224,-0.0732 0.6273,-0.12685 0.942901,-0.17388 0.282397,-0.049 0.565679,-0.0678 0.849868,-0.0373 0.365479,0.0545 0.54262,0.25818 0.688422,0.65404 0.128629,0.49967 0.141017,1.02829 0.138729,1.54735 -0.008,0.60781 -0.120492,1.19817 -0.289201,1.76796 -0.17414,0.54599 -0.450058,1.01988 -0.781618,1.442 -0.307272,0.3789 -0.690941,0.61989 -1.097601,0.80435 -0.32663,0.13967 -0.66885,0.19581 -1.013491,0.21047 -0.267899,0.005 -0.53435,-0.0325 -0.799158,-0.0769 -0.239123,-0.0301 -0.466122,-0.11152 -0.683681,-0.23196 -0.20955,-0.12067 -0.36807,-0.30661 -0.49212,-0.53938 -0.0816,-0.16851 -0.121361,-0.35512 -0.14551,-0.54602 -0.276513,-2.30988 0.26634,-2.40399 0.54283,-0.0941 v 0 c 0.0108,0.10071 0.0293,0.19995 0.0681,0.29103 0.0624,0.12802 0.146532,0.22364 0.258281,0.29018 0.167391,0.0956 0.343159,0.15391 0.528079,0.17657 0.233601,0.0394 0.468562,0.0739 0.704922,0.0709 0.285311,-0.0104 0.568769,-0.0555 0.839679,-0.16902 0.32961,-0.14679 0.642202,-0.3362 0.892349,-0.64112 0.2813,-0.35289 0.513451,-0.75195 0.662753,-1.21002 0.150079,-0.49862 0.24783,-1.01667 0.256929,-1.54932 0.003,-0.43203 -0.006,-0.87091 -0.0974,-1.29134 -0.0449,-0.15697 -0.0815,-0.23084 -0.232539,-0.24843 -0.24452,-0.0294 -0.488328,-0.005 -0.731351,0.0352 -0.302159,0.0449 -0.603798,0.0962 -0.902769,0.16612 -0.20202,0.0485 -0.402569,0.10448 -0.603459,0.15906 -0.32344,0.0132 -0.433871,-0.22203 -0.347861,-0.55483 0.0329,-0.16899 0.0599,-0.33984 0.0734,-0.51283 0.01651,-0.23599 0.02299,-0.47402 -0.01119,-0.70852 -0.0433,-0.25611 -0.11439,-0.50215 -0.246031,-0.71376 -0.16261,-0.24219 -0.35697,-0.44016 -0.60121,-0.55403 -0.283771,-0.12166 -0.57745,-0.18722 -0.87943,-0.1375 -0.247769,0.0503 -0.501711,0.11121 -0.704731,0.30163 -0.158972,0.18198 -0.23841,0.41057 -0.264292,0.67299 -0.0218,0.28751 -0.006,0.56992 0.0615,0.84859 0.0344,0.15467 0.0726,0.30904 0.13329,0.45228 0.928512,2.04876 0.447042,2.36486 -0.481471,0.31606 z"
       id="path3682"
       style="opacity:1;fill:#000000;fill-opacity:1;stroke:#000000;stroke-width:0.4;stroke-linecap:square;stroke-miterlimit:4;stroke-dasharray:none;stroke-dashoffset:0;stroke-opacity:1;paint-order:markers fill stroke" />
    <path
       inkscape:connector-curvature="0"
       id="path3686-7"
       d="m -10.487962,86.00124 c -0.993961,-0.006 -0.75268,0.46399 0.80694,0.72536 0.18927,0.0282 0.37976,0.0431 0.57016,0.0569 -0.0456,0.28302 -0.0762,0.68418 -0.0762,1.21413 v 0.80381 1.24371 c -0.002,0.34128 -0.0132,0.68303 0.0598,1.01557 0.17003,0.47653 0.49499,0.40358 0.831989,0.24447 0.33772,-0.18805 0.669381,-0.39013 1.00897,-0.57367 0.34696,-0.18882 0.70788,-0.33622 1.075811,-0.45679 0.30699,-0.0976 0.62031,-0.15626 0.93845,-0.15077 0.20894,0.01 0.396929,0.0845 0.54041,0.26486 0.14468,0.21919 0.17854,0.4966 0.20837,0.76362 0.0339,0.39061 0.0179,0.78343 -0.002,1.17435 -0.0105,0.38141 -0.0736,0.75231 -0.18716,1.10887 -0.10644,0.33247 -0.29278,0.59251 -0.52085,0.81848 -0.30008,0.26772 -0.653,0.42887 -1.0068,0.56992 -0.3634,0.13793 -0.74057,0.2092 -1.11925,0.25684 -0.26066,0.0307 -0.52268,0.0347 -0.78405,0.0175 -0.009,0.0292 -0.19103,-0.047 -0.15473,-0.0575 0.0136,0.003 0.0109,0.006 0.0127,-0.0162 -0.22846,-2.25909 -0.77305,-2.1834 -0.54459,0.0757 0.0149,0.11729 0.0338,0.22717 0.0934,0.32703 0.14681,0.2058 0.33373,0.30185 0.56297,0.31348 0.29107,0.0184 0.58304,0.0144 0.87328,-0.0202 0.41887,-0.0534 0.83575,-0.13367 1.23739,-0.28762 0.41944,-0.16859 0.83512,-0.36542 1.1866,-0.69047 0.29603,-0.30146 0.54042,-0.64763 0.6786,-1.08456 0.12941,-0.41668 0.20777,-0.84774 0.21991,-1.29256 0.022,-0.43245 0.0382,-0.86714 -0.002,-1.29903 -0.0485,-0.41148 -0.12378,-0.81965 -0.36845,-1.13787 -0.25819,-0.28325 -0.56064,-0.43884 -0.91857,-0.44797 -0.36992,-0.003 -0.73481,0.0585 -1.09168,0.17467 -0.39574,0.13037 -0.78408,0.28873 -1.15735,0.49208 -0.3329,0.18019 -0.65887,0.37621 -0.98892,0.56329 -0.0632,0.0319 -0.0985,0.0415 -0.12098,0.0488 -0.0344,-0.2326 0.003,-0.4821 -0.0129,-0.7142 v -1.24375 -0.80381 c 0,-0.5161 -0.0289,-0.90887 -0.0726,-1.19079 0.29778,0.0153 0.59569,0.027 0.89366,0.0356 0.41832,0.0117 0.83669,0.0169 1.25511,0.0209 0.28196,0.003 0.5639,0.003 0.84587,0 0.12949,0 0.25904,-0.004 0.38852,-0.006 0.0296,0 0.0592,0 0.0889,-0.003 1.93809,-0.0711 1.92104,-0.71427 -0.017,-0.64325 -0.0278,0 -0.0558,0 -0.0837,0.003 -0.1266,0.004 -0.25319,0.005 -0.37982,0.006 -0.27959,0.003 -0.55912,0.003 -0.83869,0 -0.41522,-0.004 -0.83042,-0.01 -1.24555,-0.0205 -0.393859,-0.0114 -0.787818,-0.0245 -1.181218,-0.0507 -0.20635,-0.0147 -0.41302,-0.0289 -0.61826,-0.0588 v -2e-4 c -0.35994,-0.0603 -0.65513,-0.0871 -0.8845,-0.0884 z m 1.8784,4.84104 c 0.002,0.003 0.002,0.003 0.003,0.004 0.0578,0.0844 0.0213,0.0514 0.008,0.0402 -0.004,-0.0144 -0.007,-0.0294 -0.0102,-0.0441 z"
       style="opacity:1;fill:#000000;fill-opacity:1;stroke:#000000;stroke-width:0.40000001;stroke-linecap:square;stroke-miterlimit:4;stroke-dasharray:none;stroke-dashoffset:0;stroke-opacity:1;paint-order:markers fill stroke;enable-background:new" />
    <path
       style="opacity:1;fill:#00887a;fill-opacity:1;fill-rule:nonzero;stroke:#00887a;stroke-width:1.15600002;stroke-linecap:square;stroke-miterlimit:4;stroke-dasharray:none;stroke-dashoffset:0;stroke-opacity:1;paint-order:markers fill stroke"
       d="m 43.889062,130.42207 c -0.54456,-1.30331 -0.5408,-1.33423 0.162221,-1.33423 0.323834,0 0.588791,0.18454 0.588791,0.4101 0,0.57248 0.815282,0.82454 1.4933,0.46167 1.080924,-0.57849 0.728742,-1.9904 -1.053348,-4.22291 -1.954022,-2.4479 -2.123483,-3.54808 -0.756994,-4.91457 1.270582,-1.27058 2.678348,-1.02235 3.048574,0.53755 0.19794,0.83399 -0.348742,1.20696 -0.821481,0.56046 -0.195683,-0.26762 -0.705498,-0.48657 -1.13292,-0.48657 -0.682596,0 -0.777131,0.11794 -0.777131,0.96952 0,0.73294 0.353422,1.38752 1.44831,2.68243 0.796571,0.94209 1.53107,2.04264 1.63222,2.44566 0.418883,1.66896 -1.125542,3.91182 -2.693662,3.91182 -0.533402,0 -0.817999,-0.25534 -1.13788,-1.02093 z"
       id="path18205"
       inkscape:connector-curvature="0" />
  </g>
</svg>
