<svg width="152.04mm" height="152.04mm" version="1.1" viewBox="0 0 152.04 152.04" xmlns="http://www.w3.org/2000/svg">
 <g transform="translate(511.8 -584.85)">
  <path d="m-7.9276 404.54c4.7359-4.961 11.529-7.8945 18.388-7.94 6.8584-0.0455 13.69 2.7976 18.491 7.6954 5.1356 5.2389 7.7646 12.361 10.451 19.187 1.4071 3.5752 2.8783 7.1671 3.4876 10.961 0.60937 3.7935 0.28189 7.8739-1.7178 11.155-1.7544 2.8783-4.6494 4.9099-7.7341 6.269-3.0847 1.3591-6.3929 2.116-9.65 2.9842-4.4833 1.1951-8.9433 2.6206-13.565 3.0322-4.6215 0.41162-9.5249-0.29256-13.286-3.0095-2.5291-1.827-4.3951-4.4593-5.7018-7.2924-1.3067-2.8331-2.0876-5.8774-2.7646-8.923-1.6128-7.2552-2.6728-14.803-1.2685-22.102 0.82179-4.2712 2.4862-8.3786 4.8695-12.017z" fill="#00887a" stroke="#00887a" stroke-width="2.1965"/>
  <path d="m-107.58 343.39c11.953-10.264 27.614-16.112 43.368-16.194 15.755-0.0825 31.476 5.6014 43.536 15.74 12.42 10.441 20.69 25.12 25.984 40.458 2.1475 6.2218 3.8574 12.654 4.1964 19.228 0.33901 6.5733-0.75578 13.327-3.9355 19.09-3.307 5.9936-8.7474 10.661-14.899 13.664-6.1513 3.0034-12.991 4.4152-19.825 4.8177-13.667 0.80492-27.229-2.3107-40.875-3.4177-6.4304-0.52166-12.9-0.59794-19.298-1.4333-6.3972-0.8354-12.802-2.4755-18.289-5.8689-4.9901-3.0861-9.0708-7.5572-11.949-12.67-2.8787-5.1126-4.5753-10.852-5.2362-16.682-1.3218-11.66 1.455-23.454 5.7472-34.375 3.0689-7.8087 6.9192-15.31 11.475-22.356z" fill="#f61c2d" opacity=".92058" stroke="#f61c2d" stroke-width="4.599"/>
  <g fill="#ffa669" stroke="#ff9243" stroke-linecap="square">
   <path d="m-151.63 281.03c-0.19475-0.3945-0.42312-0.73582-0.64324-1.0874-0.4653-0.72772-0.93275-1.4517-1.4046-2.1669-0.52427-0.78846-1.0298-1.6122-1.5333-2.4392-0.43763-0.72616-0.85818-1.4814-1.2863-2.2237-0.29547-0.50926-0.58822-1.0319-0.94157-1.424-0.21417-0.22769-0.43347-0.27681-0.67659-0.21403-0.33821 0.12198-0.63872 0.41877-0.92874 0.72775-0.393 0.44515-0.74617 0.98099-1.0899 1.53-0.3984 0.64552-0.77506 1.3288-1.1468 2.019-0.3674 0.69187-0.72273 1.4016-1.0676 2.1266-0.31859 0.66374-0.63554 1.3298-0.95043 1.9986-0.27393 0.58957-0.54875 1.1785-0.81762 1.7751-0.15714 0.35264-0.0798 0.17761-0.23207 0.52387-2.8655 6.4919-3.9385 5.1048-1.0729-1.3872 0.15774-0.35791 0.0777-0.17696 0.24056-0.54241 0.27454-0.60932 0.55506-1.211 0.83512-1.8131 0.31641-0.67206 0.63478-1.3412 0.95492-2.0081 0.36249-0.76126 0.73556-1.5069 1.1216-2.2334 0.39479-0.73269 0.79508-1.4577 1.2185-2.1424 0.40887-0.65138 0.83063-1.2839 1.3006-1.805 0.4622-0.48487 0.94658-0.91808 1.4898-1.0572 0.56079-0.0872 1.088 0.0559 1.5692 0.58918 0.42322 0.49352 0.79784 1.086 1.1509 1.7202 0.41955 0.72756 0.83179 1.4676 1.2604 2.18 0.4905 0.80573 0.98298 1.6086 1.4938 2.3768 0.48061 0.7286 0.95676 1.4657 1.4305 2.2072 0.27394 0.43738 0.55664 0.86496 0.79165 1.3667 2.8985 6.4488 1.8328 7.852-1.0658 1.4031z" enable-background="new" stroke-width=".54154" style="paint-order:markers fill stroke"/>
   <path d="m50.586 488.55c0.36382-0.21111 0.67898-0.45859 1.0034-0.69712 0.67152-0.50425 1.3395-1.0108 1.9995-1.5222 0.72749-0.56817 1.4877-1.116 2.2507-1.6616 0.67015-0.47423 1.367-0.93002 2.0521-1.394 0.46994-0.32007 0.95222-0.63739 1.3141-1.0204 0.21023-0.23193 0.25573-0.46977 0.19749-0.73319-0.11285-0.36646-0.38648-0.6922-0.67158-1.0064-0.41078-0.42596-0.90517-0.80862-1.4119-1.1811-0.59568-0.43175-1.2262-0.83988-1.863-1.2427-0.63845-0.39818-1.2934-0.78328-1.9623-1.157-0.61246-0.34532-1.227-0.68879-1.8443-1.03-0.54405-0.29698-1.0875-0.59465-1.638-0.88603-0.32548-0.17045-0.16412-0.0862-0.48344-0.25177-5.9905-3.1054-4.7105-4.2681 1.28-1.1627 0.33021 0.1711 0.16321 0.0842 0.50058 0.26088 0.56222 0.29763 1.1175 0.60158 1.6731 0.90503 0.62013 0.34288 1.2376 0.68797 1.853 1.0348 0.70246 0.39288 1.3906 0.79714 2.0609 1.2155 0.67616 0.42791 1.3451 0.86164 1.9769 1.3206 0.60111 0.44307 1.1847 0.90012 1.6656 1.4094 0.44743 0.50087 0.8472 1.0257 0.97555 1.6144 0.08009 0.60775-0.05188 1.1791-0.54371 1.7007-0.4554 0.45861-1.002 0.8646-1.5873 1.2472-0.67137 0.45471-1.3542 0.90145-2.0116 1.3659-0.74348 0.53157-1.4844 1.0652-2.1932 1.6189-0.67234 0.52081-1.3525 1.0368-2.0367 1.5503-0.40362 0.29699-0.7982 0.60317-1.2612 0.85784-5.9508 3.1412-7.2456 1.9861-1.2947-1.155z" enable-background="new" stroke-width=".54154" style="paint-order:markers fill stroke"/>
   <path d="m-158.78 475.15v-120.5c-0.0152-14.271 0.0212-28.542-0.0152-42.813-0.78167-48.148 2.4627-44.419 2.6497-6e-3 0.0385 14.274 2e-3 28.547 0.0152 42.821v120.5c0 9.8585-2.6499 9.8585-2.6499 0z" enable-background="new" stroke-width=".83686" style="paint-order:markers fill stroke"/>
   <path d="m-152.4 479.68h183.6c31.082 0.47995 30.976 2.8718 0 2.8718h-183.6c-8.9113 0-8.9113-2.8718 0-2.8718z" enable-background="new" stroke-width=".82827" style="paint-order:markers fill stroke"/>
  </g>
  <g>
   <path d="m-80.012 321.37c-5.3795-6.7054-13.733-10.931-22.322-11.292-8.589-0.36064-17.267 3.1499-23.19 9.3807-5.0894 5.3542-8.056 12.41-9.8554 19.574-1.7995 7.1645-2.5311 14.547-3.7782 21.828-1.9046 11.12-5.0156 22.022-6.5329 33.202s-1.3522 22.916 3.0834 33.29c4.5308 10.596 13.355 19.088 23.697 24.174 4.9918 2.455 10.416 4.1796 15.975 4.383 5.5591 0.20339 11.268-1.196 15.747-4.4947 2.8712-2.1144 5.1731-4.9512 6.8675-8.0886 1.6944-3.1375 2.7953-6.5728 3.4826-10.072 1.3747-6.9978 1.1136-14.196 1.1891-21.327 0.21591-20.382 3.2245-40.772 1.5268-61.084-0.83626-10.006-2.8165-19.915-5.8897-29.474z" fill="#1db301" opacity=".92812" stroke="#18b600" stroke-width="3.9845"/>
   <path d="m10.68 424.79c-0.05374-0.51-0.07858-1.0238-0.10728-1.5368-0.06046-0.80862-0.07776-1.6014 0.04703-2.3988 0.32198-1.239 1.14-1.8781 1.9868-2.402 0.99069-0.56522 2.0392-0.78027 3.1098-0.74892 1.0985 0.0836 1.9489 0.60041 2.763 1.5574 0.73129 0.98571 1.0618 2.2606 1.2851 3.58 0.23479 1.5736-0.04703 2.9292-0.54808 4.3455-0.58965 1.4798-1.4723 2.6757-2.3769 3.8176-0.95346 1.1797-2.0132 2.1874-3.1047 3.1259-0.90487 0.75403-1.8719 1.3602-2.8545 1.9101-0.5709 0.32228-1.1609 0.57417-1.761 0.77909-0.43872 0.14974-0.33204 0.23395-0.19583-1.3409 1.22e-4 0 0.44678-0.0552 0.67661-0.0877 0.72787-0.0945 1.4576-0.15934 2.1874-0.21805 0.7994-0.0622 1.5996-0.10347 2.4001-0.13534 0.62724-0.0197 1.2546-0.0345 1.8819-0.0345 0.42464 0 0.84966 7e-3 1.2745 0.0131 0.28243 7e-3 0.56416 0.0131 0.84626 0.0197 0.12621 7e-3 0.06718 0 0.18443 7e-3 3.7474 0.10564 3.725 1.5141-0.02036 1.4086v0c-0.1201-7e-3 -0.06046 0-0.18443-7e-3 -0.27972-7e-3 -0.55946-0.0131-0.83928-0.0197-0.41863-7e-3 -0.83667-0.0131-1.2551-0.0131-0.61851 7e-3 -1.2368 0.0131-1.8548 0.0345-0.78953 0.0345-1.5788 0.0705-2.3673 0.13315-0.71706 0.0552-1.434 0.12158-2.1491 0.21391-0.19522 0.0197-0.68204 0.10433-0.68819 0.0897-0.54272-1.3272-0.65074-1.2571-0.15898-1.4273 0.55007-0.18772 1.0907-0.41754 1.6138-0.71326 0.92571-0.51689 1.8369-1.0865 2.69-1.7946 1.037-0.89041 2.0443-1.8459 2.9506-2.9647 0.81131-1.0218 1.6106-2.0853 2.1499-3.4028 0.39711-1.0897 0.65472-2.2123 0.4696-3.4331-0.16977-1.0323-0.4052-2.049-0.96087-2.8398-0.58564-0.72414-1.2723-1.1352-2.0803-1.1945-0.9078-0.0415-1.7963 0.15105-2.6386 0.62043-0.53802 0.32435-1.1246 0.68804-1.3956 1.4307-0.12275 0.65491-0.06046 1.3206-0.02036 1.9869 0.02687 0.46996 0.05374 0.94084 0.09527 1.4086 0.6165 4.9133-0.42934 5.1449-1.0457 0.23117z" stroke="#000" stroke-linecap="square" stroke-width=".80694" style="paint-order:markers fill stroke"/>
   <path d="m-50.597 383.16c0.57165-0.46386 1.1324-0.93432 1.6932-1.4055 1.0556-0.88622 2.049-1.8184 3.0249-2.7624 0.89954-0.86184 1.7477-1.7587 2.5516-2.6821 0.44123-0.51801 0.85445-1.0516 1.2055-1.614 0.32788-0.56945 0.13156-0.71385 1.5502 0.12913 0.12187 0.0631-0.0125 0.22292-0.0488 0.33482-0.0125 0.14068-0.0488 0.28245-0.061 0.42325-0.2328 1.3183-0.48879 2.6339-0.71185 3.9535-0.27422 1.6224-0.48389 3.2511-0.66672 4.882-0.13174 1.2125-0.23038 2.4274-0.2974 3.6439-0.4766 7.0238-1.7528 6.9712-1.442-0.0541v0c0.061-1.2349 0.16584-2.4685 0.30227-3.6995 0.18528-1.6489 0.39615-3.2959 0.67527-4.9363 0.22306-1.3154 0.47661-2.6271 0.70939-3.9412 0.0125-0.12894 0.0488-0.25809 0.061-0.38805 9e-3 -0.0903-0.0853-0.25811 0.0244-0.27616 1.7686-0.27976 1.5036-0.12547 1.1787 0.4675-0.38516 0.61277-0.83129 1.1975-1.3151 1.7613-0.82641 0.95012-1.6988 1.8726-2.6251 2.7597-0.99705 0.96483-2.0138 1.918-3.0924 2.8234-0.56558 0.4747-1.1312 0.94894-1.7068 1.4167-3.6102 2.9544-4.6313 2.1187-1.0202-0.83477z" stroke="#000" stroke-linecap="square" stroke-width=".92686" style="paint-order:markers fill stroke"/>
  </g>
  <g fill="#ffa669" stroke="#ff9243" stroke-linecap="square" stroke-width=".25313">
   <path d="m-165.65 345.71h10.282c1.2177-0.0163 2.4354 0.0228 3.6531-0.0163 4.1083-0.83819 3.7902 2.6406 5.5e-4 2.8412-1.2179 0.0413-2.4358 3e-3 -3.6537 0.0163h-10.282c-0.84119 0-0.84119-2.8414 0-2.8414z" enable-background="new" style="paint-order:markers fill stroke"/>
   <path d="m-165.65 300.96h10.282c1.2177-0.0163 2.4354 0.0228 3.6531-0.0163 4.1083-0.83815 3.7902 2.6407 5.5e-4 2.8412-1.2179 0.0413-2.4358 2e-3 -3.6537 0.0163h-10.282c-0.84119 0-0.84119-2.8414 0-2.8414z" enable-background="new" style="paint-order:markers fill stroke"/>
   <path d="m-165.65 479.99h10.282c1.2177-0.0163 2.4354 0.0228 3.6531-0.0163 4.1083-0.83816 3.7902 2.6407 5.5e-4 2.8412-1.2179 0.0413-2.4358 3e-3 -3.6537 0.0163h-10.282c-0.84119 0-0.84119-2.8414 0-2.8414z" enable-background="new" style="paint-order:markers fill stroke"/>
  </g>
  <g fill="#000000" font-family="Purisa" font-size="19.947px" font-weight="bold" letter-spacing="0px" stroke-width=".83114" word-spacing="0px">
   <text transform="scale(.96572 1.0355)" x="-192.44615" y="429.5105" style="font-feature-settings:normal;font-variant-caps:normal;font-variant-ligatures:normal;font-variant-numeric:normal;line-height:1.25" xml:space="preserve"><tspan x="-192.44615" y="429.5105" font-family="Purisa" font-size="19.947px" font-weight="bold" stroke-width=".83114" style="font-feature-settings:normal;font-variant-caps:normal;font-variant-ligatures:normal;font-variant-numeric:normal">5</tspan></text>
   <text transform="scale(.96572 1.0355)" x="-71.71505" y="495.65417" style="font-feature-settings:normal;font-variant-caps:normal;font-variant-ligatures:normal;font-variant-numeric:normal;line-height:1.25" xml:space="preserve"><tspan x="-71.71505" y="495.65417" font-family="Purisa" font-size="19.947px" font-weight="bold" stroke-width=".83114" style="font-feature-settings:normal;font-variant-caps:normal;font-variant-ligatures:normal;font-variant-numeric:normal">10</tspan></text>
   <text transform="scale(.96572 1.0355)" x="-3.1152925" y="495.4946" style="font-feature-settings:normal;font-variant-caps:normal;font-variant-ligatures:normal;font-variant-numeric:normal;line-height:1.25" xml:space="preserve"><tspan x="-3.1152925" y="495.4946" font-family="Purisa" font-size="19.947px" font-weight="bold" stroke-width=".83114" style="font-feature-settings:normal;font-variant-caps:normal;font-variant-ligatures:normal;font-variant-numeric:normal">15</tspan></text>
   <text transform="scale(.96572 1.0355)" x="-207.70158" y="298.24878" style="font-feature-settings:normal;font-variant-caps:normal;font-variant-ligatures:normal;font-variant-numeric:normal;line-height:1.25" xml:space="preserve"><tspan x="-207.70158" y="298.24878" font-family="Purisa" font-size="19.947px" font-weight="bold" stroke-width=".83114" style="font-feature-settings:normal;font-variant-caps:normal;font-variant-ligatures:normal;font-variant-numeric:normal">20</tspan></text>
  </g>
  <path d="m-115.95 380.16c-0.15869-0.3899-0.25926-0.81139-0.3479-1.235-0.16402-0.73073-0.19658-1.4759-0.15059-2.2302 0.0673-0.87467 0.34521-1.6079 0.80583-2.2387 0.54114-0.62561 1.2303-0.85587 1.9257-1.0141 0.75819-0.14667 1.4978 0.0271 2.2143 0.34099 0.65508 0.3172 1.1779 0.88167 1.6205 1.5696 0.36453 0.6093 0.56645 1.3215 0.69034 2.0672 0.0892 0.61541 0.0794 1.2416 0.0399 1.8626-0.0334 0.42521-0.0906 0.84527-0.16461 1.2608-0.0199 0.076-0.0266 0.15958-0.0466 0.23776-6e-3 0.0211 0.0138-0.0476 0.0138-0.0747-0.0138-0.11894-2e-3 -0.25539-0.06-0.35185-0.17389-0.30159-0.22659-0.29344-0.40719-0.3274 0.36254-0.1181 0.7284-0.22007 1.0951-0.31518 0.59977-0.15217 1.2046-0.26286 1.8107-0.36 0.54245-0.10116 1.0863-0.14053 1.632-0.0775 0.70181 0.1128 1.042 0.53526 1.322 1.3552 0.24724 1.0354 0.27124 2.1308 0.26658 3.2063-0.0138 1.2595-0.23125 2.4828-0.55514 3.6635-0.33454 1.1314-0.86428 2.1133-1.501 2.988-0.58976 0.78514-1.3268 1.2845-2.1077 1.6668-0.6271 0.28937-1.2844 0.40553-1.9462 0.43609-0.51446 0.0127-1.0261-0.0679-1.5347-0.15959-0.45916-0.0611-0.89515-0.23093-1.3129-0.4809-0.40252-0.24997-0.70681-0.63511-0.94499-1.1177-0.15652-0.34912-0.23324-0.73581-0.27923-1.1314-0.53114-4.7864 0.5118-4.9814 1.0424-0.19492v0c0.0199 0.20847 0.0533 0.41433 0.13067 0.60318 0.11921 0.2649 0.28122 0.46323 0.49581 0.60114 0.32121 0.19831 0.65908 0.31923 1.0141 0.36611 0.4485 0.0815 0.8998 0.15281 1.3537 0.14667 0.5478-0.0212 1.0922-0.11471 1.6125-0.3505 0.63311-0.30429 1.2332-0.69663 1.7136-1.3284 0.54046-0.73122 0.98596-1.5582 1.2727-2.5073 0.28855-1.0332 0.47582-2.1067 0.49315-3.2104 4e-3 -0.89526-0.0138-1.8046-0.18731-2.6758-0.0861-0.32538-0.15652-0.4782-0.44651-0.51488-0.46982-0.0612-0.93778-0.0127-1.4044 0.0726-0.58044 0.0931-1.1596 0.19979-1.7337 0.34438-0.38787 0.10053-0.77305 0.21666-1.1588 0.32944-0.62111 0.0271-0.83323-0.45985-0.66808-1.1497 0.0667-0.35048 0.11527-0.70419 0.14053-1.0626 0.0334-0.48904 0.0466-0.98225-0.0199-1.4681-0.0833-0.53047-0.21992-1.0405-0.47248-1.479-0.31255-0.50197-0.68547-0.91213-1.1545-1.1481-0.54514-0.252-1.1089-0.38785-1.6888-0.28462-0.47583 0.10456-0.96344 0.23029-1.3533 0.62491-0.30523 0.37698-0.45784 0.85077-0.50782 1.3945-0.0401 0.5957-0.0138 1.181 0.11804 1.7584 0.0667 0.32061 0.13934 0.64052 0.25589 0.9372 1.7832 4.2453 0.8585 4.9003-0.92451 0.65484z" stroke="#000" stroke-linecap="square" stroke-width=".79791" style="paint-order:markers fill stroke"/>
  <g fill="#ffa669" stroke="#ff9243" stroke-linecap="square" stroke-width=".25313">
   <path d="m-126.15 489.25v-10.282c-0.0163-1.2177 0.0228-2.4354-0.0163-3.6531-0.83815-4.1083 2.6407-3.7902 2.8412-5.6e-4 0.0413 1.2179 3e-3 2.4358 0.0163 3.6537v10.282c0 0.84119-2.8414 0.84119-2.8414 0z" enable-background="new" style="paint-order:markers fill stroke"/>
   <path d="m-93.433 489.25v-10.282c-0.0163-1.2177 0.0228-2.4354-0.0163-3.6531-0.83815-4.1083 2.6407-3.7902 2.8412-5.6e-4 0.0413 1.2179 3e-3 2.4358 0.0163 3.6537v10.282c0 0.84119-2.8414 0.84119-2.8414 0z" enable-background="new" style="paint-order:markers fill stroke"/>
   <path d="m-60.715 489.25v-10.282c-0.0163-1.2177 0.0228-2.4354-0.0163-3.6531-0.83815-4.1083 2.6407-3.7902 2.8412-5.6e-4 0.0413 1.2179 3e-3 2.4358 0.0163 3.6537v10.282c0 0.84119-2.8414 0.84119-2.8414 0z" enable-background="new" style="paint-order:markers fill stroke"/>
   <path d="m-27.998 489.25v-10.282c-0.0163-1.2177 0.0228-2.4354-0.0163-3.6531-0.83815-4.1083 2.6407-3.7902 2.8412-5.6e-4 0.0413 1.2179 3e-3 2.4358 0.0163 3.6537v10.282c0 0.84119-2.8414 0.84119-2.8414 0z" enable-background="new" style="paint-order:markers fill stroke"/>
   <path d="m4.7191 489.25v-10.282c-0.0163-1.2177 0.0228-2.4354-0.0163-3.6531-0.83815-4.1083 2.6407-3.7902 2.8412-5.6e-4 0.0413 1.2179 3e-3 2.4358 0.0163 3.6537v10.282c0 0.84119-2.8414 0.84119-2.8414 0z" enable-background="new" style="paint-order:markers fill stroke"/>
   <path d="m-158.87 486.5v-10.282c-0.0163-1.2177 0.0228-2.4354-0.0163-3.6531-0.83815-4.1083 2.6407-3.7902 2.8412-5.6e-4 0.0413 1.2179 3e-3 2.4358 0.0163 3.6537v10.282c0 0.84119-2.8414 0.84119-2.8414 0z" enable-background="new" style="paint-order:markers fill stroke"/>
   <path d="m37.436 489.25v-10.282c-0.0163-1.2177 0.0228-2.4354-0.0163-3.6531-0.83815-4.1083 2.6407-3.7902 2.8412-5.6e-4 0.0413 1.2179 3e-3 2.4358 0.0163 3.6537v10.282c0 0.84119-2.8414 0.84119-2.8414 0z" enable-background="new" style="paint-order:markers fill stroke"/>
  </g>
  <text transform="scale(.96572 1.0355)" x="-134.81532" y="495.4946" fill="#000000" font-family="Purisa" font-size="19.947px" font-weight="bold" letter-spacing="0px" stroke-width=".83114" word-spacing="0px" style="font-feature-settings:normal;font-variant-caps:normal;font-variant-ligatures:normal;font-variant-numeric:normal;line-height:1.25" xml:space="preserve"><tspan x="-134.81532" y="495.4946" font-family="Purisa" font-size="19.947px" font-weight="bold" stroke-width=".83114" style="font-feature-settings:normal;font-variant-caps:normal;font-variant-ligatures:normal;font-variant-numeric:normal">5</tspan></text>
  <path d="m162.22 338.74c11.953-10.264 27.614-16.112 43.368-16.194 15.755-0.0825 31.476 5.6014 43.536 15.74 12.42 10.441 20.69 25.12 25.984 40.458 2.1475 6.2218 3.8574 12.654 4.1964 19.228s-0.75579 13.327-3.9355 19.09c-3.307 5.9936-8.7474 10.661-14.899 13.664-6.1512 3.0034-12.991 4.4152-19.825 4.8177-13.667 0.80491-27.229-2.3107-40.875-3.4177-6.4304-0.52166-12.9-0.59794-19.298-1.4333-6.3972-0.8354-12.802-2.4755-18.289-5.8689-4.9901-3.0861-9.0708-7.5572-11.949-12.67-2.8787-5.1126-4.5753-10.852-5.2362-16.682-1.3218-11.66 1.455-23.454 5.7472-34.375 3.0689-7.8087 6.9192-15.31 11.475-22.356z" fill="#f61c2d" stroke="#f61c2d" stroke-width="4.599"/>
  <g fill="#ffa669" stroke="#ff9243" stroke-linecap="square">
   <path d="m118.17 276.37c-0.19475-0.3945-0.42312-0.73582-0.64324-1.0874-0.4653-0.72772-0.93275-1.4517-1.4046-2.1669-0.52427-0.78846-1.0298-1.6122-1.5333-2.4392-0.43763-0.72616-0.85818-1.4814-1.2863-2.2237-0.29547-0.50926-0.58822-1.0319-0.94157-1.424-0.21417-0.22769-0.43347-0.27681-0.67659-0.21403-0.33821 0.12198-0.63872 0.41877-0.92874 0.72775-0.393 0.44515-0.74617 0.98099-1.0899 1.53-0.3984 0.64552-0.77506 1.3288-1.1468 2.019-0.3674 0.69187-0.72273 1.4016-1.0676 2.1266-0.31859 0.66374-0.63554 1.3298-0.95043 1.9986-0.27393 0.58957-0.54875 1.1785-0.81762 1.7751-0.15714 0.35264-0.0798 0.17761-0.23207 0.52387-2.8655 6.4919-3.9385 5.1048-1.0729-1.3872 0.15774-0.35791 0.0777-0.17696 0.24056-0.54241 0.27454-0.60932 0.55506-1.211 0.83512-1.8131 0.31641-0.67206 0.63478-1.3412 0.95492-2.0081 0.36249-0.76126 0.73556-1.5069 1.1216-2.2334 0.39479-0.73269 0.79508-1.4577 1.2185-2.1424 0.40887-0.65138 0.83063-1.2839 1.3006-1.805 0.4622-0.48487 0.94658-0.91808 1.4898-1.0572 0.56079-0.0872 1.088 0.0559 1.5692 0.58918 0.42322 0.49352 0.79784 1.086 1.1509 1.7202 0.41955 0.72756 0.83179 1.4676 1.2604 2.18 0.4905 0.80573 0.98298 1.6086 1.4938 2.3768 0.48061 0.7286 0.95676 1.4657 1.4305 2.2072 0.27394 0.43738 0.55664 0.86496 0.79165 1.3667 2.8985 6.4488 1.8328 7.852-1.0658 1.4031z" enable-background="new" stroke-width=".54154" style="paint-order:markers fill stroke"/>
   <path d="m320.39 483.89c0.36383-0.21111 0.67898-0.45859 1.0034-0.69712 0.67152-0.50425 1.3395-1.0108 1.9995-1.5222 0.72747-0.56817 1.4877-1.116 2.2507-1.6616 0.67016-0.47423 1.367-0.93002 2.0521-1.394 0.46995-0.32007 0.95223-0.63739 1.3141-1.0204 0.21021-0.23193 0.25572-0.46977 0.19748-0.73319-0.11284-0.36646-0.38648-0.6922-0.67159-1.0064-0.41077-0.42596-0.90517-0.80862-1.4119-1.1811-0.59568-0.43175-1.2262-0.83988-1.863-1.2427-0.63847-0.39818-1.2934-0.78328-1.9623-1.157-0.61245-0.34532-1.227-0.68879-1.8442-1.03-0.54403-0.29698-1.0875-0.59465-1.638-0.88603-0.32549-0.17045-0.16412-0.0862-0.48345-0.25177-5.9905-3.1054-4.7105-4.2681 1.28-1.1627 0.3302 0.1711 0.16323 0.0842 0.50057 0.26088 0.56224 0.29763 1.1175 0.60158 1.6731 0.90503 0.62013 0.34288 1.2376 0.68797 1.853 1.0348 0.70247 0.39288 1.3906 0.79714 2.0609 1.2155 0.67617 0.42791 1.3451 0.86164 1.977 1.3206 0.6011 0.44307 1.1847 0.90012 1.6656 1.4094 0.44743 0.50087 0.84719 1.0257 0.97554 1.6144 0.0801 0.60775-0.0519 1.1791-0.54372 1.7007-0.4554 0.45861-1.002 0.8646-1.5873 1.2472-0.67138 0.45471-1.3542 0.90145-2.0116 1.3659-0.74348 0.53157-1.4844 1.0652-2.1932 1.6189-0.67234 0.52081-1.3525 1.0368-2.0367 1.5503-0.40362 0.29699-0.79822 0.60317-1.2612 0.85784-5.9508 3.1412-7.2456 1.9861-1.2947-1.155z" enable-background="new" stroke-width=".54154" style="paint-order:markers fill stroke"/>
   <path d="m111.03 470.49v-120.5c-0.0152-14.271 0.0212-28.542-0.0152-42.813-0.78167-48.148 2.4627-44.419 2.6497-6e-3 0.0385 14.274 2e-3 28.547 0.0152 42.821v120.5c0 9.8585-2.6499 9.8585-2.6499 0z" enable-background="new" stroke-width=".83686" style="paint-order:markers fill stroke"/>
   <path d="m117.4 475.02h183.6c31.082 0.47995 30.976 2.8718 0 2.8718h-183.6c-8.9113 0-8.9113-2.8718 0-2.8718z" enable-background="new" stroke-width=".82827" style="paint-order:markers fill stroke"/>
  </g>
  <path d="m208.11 378.5c0.57165-0.46386 1.1324-0.93432 1.6932-1.4055 1.0556-0.88622 2.049-1.8184 3.0249-2.7624 0.89954-0.86184 1.7477-1.7587 2.5516-2.6821 0.44123-0.51801 0.85445-1.0516 1.2055-1.614 0.32788-0.56945 0.13156-0.71385 1.5502 0.12913 0.12187 0.0631-0.0125 0.22292-0.0488 0.33482-0.0125 0.14068-0.0488 0.28245-0.061 0.42325-0.2328 1.3183-0.48879 2.6339-0.71185 3.9535-0.27422 1.6224-0.48389 3.2511-0.66672 4.882-0.13174 1.2125-0.23038 2.4274-0.2974 3.6439-0.4766 7.0238-1.7528 6.9712-1.442-0.0541v0c0.061-1.2349 0.16584-2.4685 0.30227-3.6995 0.18528-1.6489 0.39615-3.2959 0.67527-4.9363 0.22306-1.3154 0.47661-2.6271 0.70939-3.9412 0.0125-0.12894 0.0488-0.25809 0.061-0.38805 9e-3 -0.0903-0.0853-0.25811 0.0244-0.27616 1.7686-0.27976 1.5036-0.12547 1.1787 0.4675-0.38516 0.61277-0.83129 1.1975-1.3151 1.7613-0.82641 0.95012-1.6988 1.8726-2.6251 2.7597-0.99705 0.96483-2.0138 1.918-3.0924 2.8234-0.56558 0.4747-1.1312 0.94894-1.7068 1.4167-3.6102 2.9544-4.6313 2.1187-1.0202-0.83477z" stroke="#000" stroke-linecap="square" stroke-width=".92686" style="paint-order:markers fill stroke"/>
  <g fill="#ffa669" stroke="#ff9243" stroke-linecap="square" stroke-width=".25313">
   <path d="m104.15 439.53h10.282c1.2177-0.0163 2.4354 0.0228 3.6531-0.0163 4.1083-0.83815 3.7902 2.6407 5.3e-4 2.8412-1.2179 0.0413-2.4358 3e-3 -3.6537 0.0163h-10.282c-0.84119 0-0.84119-2.8414 0-2.8414z" enable-background="new" style="paint-order:markers fill stroke"/>
   <path d="m104.15 367.91h10.282c1.2177-0.0163 2.4354 0.0228 3.6531-0.0163 4.1083-0.83819 3.7902 2.6406 5.3e-4 2.8412-1.2179 0.0413-2.4358 3e-3 -3.6537 0.0163h-10.282c-0.84119 0-0.84119-2.8414 0-2.8414z" enable-background="new" style="paint-order:markers fill stroke"/>
   <path d="m104.15 296.3h10.282c1.2177-0.0163 2.4354 0.0228 3.6531-0.0163 4.1083-0.83815 3.7902 2.6407 5.3e-4 2.8412-1.2179 0.0413-2.4358 2e-3 -3.6537 0.0163h-10.282c-0.84119 0-0.84119-2.8414 0-2.8414z" enable-background="new" style="paint-order:markers fill stroke"/>
   <path d="m104.15 475.34h10.282c1.2177-0.0163 2.4354 0.0228 3.6531-0.0163 4.1083-0.83816 3.7902 2.6407 5.3e-4 2.8412-1.2179 0.0413-2.4358 3e-3 -3.6537 0.0163h-10.282c-0.84119 0-0.84119-2.8414 0-2.8414z" enable-background="new" style="paint-order:markers fill stroke"/>
  </g>
  <g fill="#000000" font-family="Purisa" font-size="19.947px" font-weight="bold" letter-spacing="0px" stroke-width=".83114" word-spacing="0px">
   <text transform="scale(.96572 1.0355)" x="90.46241" y="430.8428" style="font-feature-settings:normal;font-variant-caps:normal;font-variant-ligatures:normal;font-variant-numeric:normal;line-height:1.25" xml:space="preserve"><tspan x="90.46241" y="430.8428" font-family="Purisa" font-size="19.947px" font-weight="bold" stroke-width=".83114" style="font-feature-settings:normal;font-variant-caps:normal;font-variant-ligatures:normal;font-variant-numeric:normal">5</tspan></text>
   <text transform="scale(.96572 1.0355)" x="207.66666" y="491.15762" style="font-feature-settings:normal;font-variant-caps:normal;font-variant-ligatures:normal;font-variant-numeric:normal;line-height:1.25" xml:space="preserve"><tspan x="207.66666" y="491.15762" font-family="Purisa" font-size="19.947px" font-weight="bold" stroke-width=".83114" style="font-feature-settings:normal;font-variant-caps:normal;font-variant-ligatures:normal;font-variant-numeric:normal">10</tspan></text>
   <text transform="scale(.96572 1.0355)" x="276.26645" y="490.99805" style="font-feature-settings:normal;font-variant-caps:normal;font-variant-ligatures:normal;font-variant-numeric:normal;line-height:1.25" xml:space="preserve"><tspan x="276.26645" y="490.99805" font-family="Purisa" font-size="19.947px" font-weight="bold" stroke-width=".83114" style="font-feature-settings:normal;font-variant-caps:normal;font-variant-ligatures:normal;font-variant-numeric:normal">15</tspan></text>
   <text transform="scale(.96572 1.0355)" x="74.958565" y="360.44693" style="font-feature-settings:normal;font-variant-caps:normal;font-variant-ligatures:normal;font-variant-numeric:normal;line-height:1.25" xml:space="preserve"><tspan x="74.958565" y="360.44693" font-family="Purisa" font-size="19.947px" font-weight="bold" stroke-width=".83114" style="font-feature-settings:normal;font-variant-caps:normal;font-variant-ligatures:normal;font-variant-numeric:normal">20</tspan></text>
   <text transform="scale(.96572 1.0355)" x="80.670479" y="293.6174" style="font-feature-settings:normal;font-variant-caps:normal;font-variant-ligatures:normal;font-variant-numeric:normal;line-height:1.25" xml:space="preserve"><tspan x="80.670479" y="293.6174" font-family="Purisa" font-size="19.947px" font-weight="bold" stroke-width=".83114" style="font-feature-settings:normal;font-variant-caps:normal;font-variant-ligatures:normal;font-variant-numeric:normal">35</tspan></text>
  </g>
  <g fill="#ffa669" stroke="#ff9243" stroke-linecap="square" stroke-width=".25313">
   <path d="m143.65 484.59v-10.282c-0.0163-1.2177 0.0228-2.4354-0.0163-3.6531-0.83815-4.1083 2.6407-3.7902 2.8412-5.3e-4 0.0413 1.2179 3e-3 2.4358 0.0163 3.6537v10.282c0 0.84119-2.8414 0.84119-2.8414 0z" enable-background="new" style="paint-order:markers fill stroke"/>
   <path d="m176.37 484.59v-10.282c-0.0163-1.2177 0.0228-2.4354-0.0163-3.6531-0.83815-4.1083 2.6407-3.7902 2.8412-5.3e-4 0.0413 1.2179 3e-3 2.4358 0.0163 3.6537v10.282c0 0.84119-2.8414 0.84119-2.8414 0z" enable-background="new" style="paint-order:markers fill stroke"/>
   <path d="m209.09 484.59v-10.282c-0.0163-1.2177 0.0228-2.4354-0.0163-3.6531-0.83815-4.1083 2.6407-3.7902 2.8412-5.3e-4 0.0413 1.2179 3e-3 2.4358 0.0163 3.6537v10.282c0 0.84119-2.8414 0.84119-2.8414 0z" enable-background="new" style="paint-order:markers fill stroke"/>
   <path d="m241.81 484.59v-10.282c-0.0163-1.2177 0.0228-2.4354-0.0163-3.6531-0.83815-4.1083 2.6407-3.7902 2.8412-5.3e-4 0.0413 1.2179 3e-3 2.4358 0.0163 3.6537v10.282c0 0.84119-2.8414 0.84119-2.8414 0z" enable-background="new" style="paint-order:markers fill stroke"/>
   <path d="m274.52 484.59v-10.282c-0.0163-1.2177 0.0228-2.4354-0.0163-3.6531-0.83815-4.1083 2.6407-3.7902 2.8412-5.3e-4 0.0413 1.2179 3e-3 2.4358 0.0163 3.6537v10.282c0 0.84119-2.8414 0.84119-2.8414 0z" enable-background="new" style="paint-order:markers fill stroke"/>
   <path d="m110.94 481.84v-10.282c-0.0163-1.2177 0.0228-2.4354-0.0163-3.6531-0.83815-4.1083 2.6407-3.7902 2.8412-5.3e-4 0.0413 1.2179 3e-3 2.4358 0.0163 3.6537v10.282c0 0.84119-2.8414 0.84119-2.8414 0z" enable-background="new" style="paint-order:markers fill stroke"/>
   <path d="m307.24 484.59v-10.282c-0.0163-1.2177 0.0228-2.4354-0.0163-3.6531-0.83815-4.1083 2.6407-3.7902 2.8412-5.3e-4 0.0413 1.2179 3e-3 2.4358 0.0163 3.6537v10.282c0 0.84119-2.8414 0.84119-2.8414 0z" enable-background="new" style="paint-order:markers fill stroke"/>
  </g>
  <g>
   <text transform="scale(.96572 1.0355)" x="144.56639" y="490.99805" fill="#000000" font-family="Purisa" font-size="19.947px" font-weight="bold" letter-spacing="0px" stroke-width=".83114" word-spacing="0px" style="font-feature-settings:normal;font-variant-caps:normal;font-variant-ligatures:normal;font-variant-numeric:normal;line-height:1.25" xml:space="preserve"><tspan x="144.56639" y="490.99805" font-family="Purisa" font-size="19.947px" font-weight="bold" stroke-width=".83114" style="font-feature-settings:normal;font-variant-caps:normal;font-variant-ligatures:normal;font-variant-numeric:normal">5</tspan></text>
   <path d="m-165.65 390.47h10.282c1.2177-0.0163 2.4354 0.0228 3.6531-0.0163 4.1083-0.83815 3.7902 2.6407 5.5e-4 2.8412-1.2179 0.0413-2.4358 3e-3 -3.6537 0.0163h-10.282c-0.84119 0-0.84119-2.8414 0-2.8414z" enable-background="new" fill="#ffa669" stroke="#ff9243" stroke-linecap="square" stroke-width=".25313" style="paint-order:markers fill stroke"/>
   <path d="m-165.65 435.23h10.282c1.2177-0.0163 2.4354 0.0228 3.6531-0.0163 4.1083-0.83815 3.7902 2.6407 5.5e-4 2.8412-1.2179 0.0413-2.4358 3e-3 -3.6537 0.0163h-10.282c-0.84119 0-0.84119-2.8414 0-2.8414z" enable-background="new" fill="#ffa669" stroke="#ff9243" stroke-linecap="square" stroke-width=".25313" style="paint-order:markers fill stroke"/>
   <text transform="scale(.96572 1.0355)" x="-197.99927" y="384.56027" fill="#000000" font-family="Purisa" font-size="19.947px" font-weight="bold" letter-spacing="0px" stroke-width=".83114" word-spacing="0px" style="font-feature-settings:normal;font-variant-caps:normal;font-variant-ligatures:normal;font-variant-numeric:normal;line-height:1.25" xml:space="preserve"><tspan x="-197.99927" y="384.56027" font-family="Purisa" font-size="19.947px" font-weight="bold" stroke-width=".83114" style="font-feature-settings:normal;font-variant-caps:normal;font-variant-ligatures:normal;font-variant-numeric:normal">10</tspan></text>
   <text transform="scale(.96572 1.0355)" x="-196.94467" y="339.38431" fill="#000000" font-family="Purisa" font-size="19.947px" font-weight="bold" letter-spacing="0px" stroke-width=".83114" word-spacing="0px" style="font-feature-settings:normal;font-variant-caps:normal;font-variant-ligatures:normal;font-variant-numeric:normal;line-height:1.25" xml:space="preserve"><tspan x="-196.94467" y="339.38431" font-family="Purisa" font-size="19.947px" font-weight="bold" stroke-width=".83114" style="font-feature-settings:normal;font-variant-caps:normal;font-variant-ligatures:normal;font-variant-numeric:normal">15</tspan></text>
  </g>
  <path d="m-77.569 436.3c-3.9311-0.21804-7.8606-0.44518-11.763-0.9548-6.3972-0.83539-12.802-2.4755-18.289-5.8689-4.9901-3.0861-9.0708-7.5572-11.949-12.67-2.8787-5.1126-4.5753-10.852-5.2362-16.682-1.3218-11.66 1.455-23.454 5.7472-34.375 3.0689-7.8087 6.9192-15.31 11.475-22.356 8.4671-7.2707 18.795-12.326 29.699-14.685" fill="none" stroke="#f61c2d" stroke-dasharray="2.099, 2.099" stroke-width="2.099"/>
  <path d="m-10.402 436.89c-1.3442-6.6003-2.0865-13.397-0.81796-19.99 0.82177-4.2712 2.4861-8.3786 4.8694-12.017 4.3544-4.5614 10.448-7.4088 16.733-7.8732" fill="none" stroke="#00887a" stroke-dasharray="2.19651, 2.19651" stroke-width="2.1965"/>
  <g>
   <text x="-15.151712" y="532.34662" fill="#000000" font-family="Purisa" font-size="12.7px" font-weight="bold" stroke-width=".26458" style="font-variant-caps:normal;font-variant-east-asian:normal;font-variant-ligatures:normal;font-variant-numeric:normal;line-height:1.25" xml:space="preserve"><tspan x="-15.151712" y="532.34662" font-family="Purisa" font-size="12.7px" font-weight="bold" stroke-width=".26458" style="font-variant-caps:normal;font-variant-east-asian:normal;font-variant-ligatures:normal;font-variant-numeric:normal">magméret</tspan></text>
   <path d="m-417.45 671.98c-2.9152-3.4004-7.0621-5.7212-11.485-6.4277-4.4229-0.70646-9.0864 0.20715-12.916 2.5302-3.8656 2.3451-6.7918 6.0077-8.9496 9.9808-0.82957 1.5274-1.5623 3.1239-1.9516 4.818-0.3893 1.694-0.42109 3.4992 0.13123 5.1473 0.57111 1.7042 1.7492 3.1716 3.1959 4.238 1.4468 1.0664 3.1526 1.7476 4.9061 2.1422 3.5069 0.78921 7.1524 0.45854 10.747 0.41879 1.8337-0.0203 3.671 0.0362 5.4987-0.11395 1.8276-0.15018 3.6616-0.51541 5.3027-1.3337 2.6075-1.3001 4.5774-3.6982 5.6767-6.3966 1.0993-2.6983 1.3768-5.6801 1.1552-8.5853-0.16654-2.183-0.60826-4.3448-1.3114-6.4181z" fill="#00887a" stroke="#00887a" stroke-width="1.2416"/>
   <path d="m-391.79 640.1c-5.7698-3.9547-12.761-6.1004-19.756-6.0636s-13.963 2.256-19.691 6.2711c-5.0416 3.5341-9.1964 8.6088-10.682 14.584-0.52519 2.113-0.71173 4.3187-0.44883 6.48s0.98198 4.277 2.1749 6.0983c1.7353 2.6494 4.4269 4.5958 7.3818 5.7356 2.9549 1.1397 6.1657 1.5092 9.3315 1.419 6.3316-0.18048 12.466-2.1437 18.735-3.0472 2.3646-0.34077 4.7525-0.53118 7.0972-0.98953 2.3447-0.45834 4.6721-1.2011 6.6471-2.5453 3.1116-2.1179 5.1305-5.6453 5.7696-9.3546 0.63904-3.7093-0.0277-7.5731-1.5058-11.035-1.1967-2.8023-2.9207-5.3783-5.0549-7.5531z" fill="#f61c2d" opacity=".92058" stroke="#f61c2d" stroke-width="1.7742"/>
  </g>
  <g fill="#ffa669" stroke="#ff9243" stroke-linecap="square">
   <path d="m-460.05 614.29c-0.0858-0.17379-0.18639-0.32414-0.28337-0.47905-0.20497-0.32058-0.41089-0.6395-0.61878-0.95456-0.23096-0.34733-0.45368-0.71022-0.67546-1.0745-0.19279-0.31988-0.37806-0.65259-0.56664-0.97961-0.13016-0.22434-0.25913-0.45459-0.41478-0.62732-0.0944-0.1003-0.19096-0.12194-0.29806-0.0943-0.14899 0.0538-0.28137 0.18449-0.40913 0.32061-0.17313 0.19609-0.32871 0.43214-0.48012 0.67401-0.17551 0.28437-0.34143 0.58539-0.50518 0.8894-0.16185 0.30478-0.31838 0.61745-0.4703 0.9368-0.14034 0.2924-0.27997 0.5858-0.41869 0.88045-0.12068 0.25972-0.24174 0.51916-0.36019 0.78196-0.0692 0.15534-0.0351 0.0783-0.10223 0.23079-1.2623 2.8598-1.735 2.2488-0.47262-0.61108 0.0695-0.15768 0.0342-0.0779 0.10598-0.23896 0.12093-0.26841 0.24452-0.53348 0.36788-0.79869 0.13939-0.29607 0.27964-0.59083 0.42067-0.88462 0.15969-0.33535 0.32404-0.66383 0.49412-0.98385 0.17391-0.32276 0.35025-0.64215 0.53679-0.94379 0.18011-0.28695 0.3659-0.56558 0.57293-0.79515 0.2036-0.21359 0.41698-0.40444 0.65631-0.46572 0.24704-0.0384 0.47927 0.0246 0.69129 0.25955 0.18643 0.21741 0.35146 0.4784 0.507 0.75777 0.18482 0.32051 0.36643 0.64652 0.55521 0.96033 0.21608 0.35494 0.43303 0.70864 0.65808 1.047 0.21172 0.32097 0.42148 0.64566 0.63018 0.97233 0.12068 0.19268 0.24521 0.38104 0.34874 0.60207 1.2769 2.8409 0.80738 3.459-0.46952 0.61811z" enable-background="new" stroke-width=".23856" style="paint-order:markers fill stroke"/>
   <path d="m-370.96 705.71c0.16028-0.093 0.29911-0.20203 0.44204-0.30711 0.29582-0.22213 0.59006-0.44527 0.88083-0.67056 0.32047-0.25028 0.65538-0.49164 0.99149-0.73199 0.29523-0.20891 0.60222-0.4097 0.90399-0.61407 0.20701-0.141 0.41948-0.28079 0.57888-0.44951 0.0926-0.10217 0.11266-0.20694 0.087-0.32299-0.0497-0.16144-0.17025-0.30493-0.29584-0.44336-0.18096-0.18765-0.39876-0.35622-0.62197-0.52031-0.26241-0.19019-0.54016-0.36999-0.82071-0.54745-0.28125-0.17542-0.56977-0.34506-0.86444-0.50967-0.26982-0.15213-0.54055-0.30344-0.81245-0.45376-0.23967-0.13082-0.47907-0.26194-0.72158-0.3903-0.14338-0.0751-0.0723-0.038-0.21297-0.11092-2.639-1.368-2.0751-1.8802 0.56388-0.51218 0.14546 0.0754 0.0719 0.0371 0.22051 0.11492 0.24768 0.13112 0.4923 0.26501 0.73703 0.39869 0.27318 0.15104 0.54521 0.30307 0.81628 0.45588 0.30945 0.17307 0.61258 0.35116 0.90787 0.53545 0.29787 0.1885 0.59253 0.37957 0.87089 0.58173 0.2648 0.19519 0.52189 0.39654 0.73376 0.6209 0.1971 0.22065 0.3732 0.45185 0.42974 0.7112 0.0353 0.26774-0.0228 0.51942-0.23951 0.74919-0.20063 0.20203-0.44142 0.38088-0.69925 0.54941-0.29575 0.20031-0.59657 0.39711-0.88615 0.60169-0.32753 0.23417-0.65392 0.46926-0.96618 0.71316-0.29619 0.22943-0.5958 0.45675-0.89723 0.68293-0.1778 0.13083-0.35162 0.2657-0.55557 0.37789-2.6215 1.3838-3.1918 0.87495-0.57035-0.5088z" enable-background="new" stroke-width=".23856" style="paint-order:markers fill stroke"/>
   <path d="m-463.19 699.8v-53.085c-7e-3 -6.2868 9e-3 -12.574-7e-3 -18.86-0.34434-21.21 1.0849-19.568 1.1673-3e-3 0.0169 6.2879 7.1e-4 12.576 7e-3 18.864v53.085c0 4.3429-1.1674 4.3429-1.1674 0z" enable-background="new" stroke-width=".36866" style="paint-order:markers fill stroke"/>
   <path d="m-460.38 701.8h80.88c13.692 0.21144 13.646 1.2651 0 1.2651h-80.88c-3.9257 0-3.9257-1.2651 0-1.2651z" enable-background="new" stroke-width=".36487" style="paint-order:markers fill stroke"/>
  </g>
  <path d="m-403.94 632.06c2.3698-2.9539 6.0497-4.8154 9.8334-4.9743 3.7837-0.15888 7.6067 1.3876 10.216 4.1324 2.242 2.3586 3.5488 5.4667 4.3416 8.6229 0.79272 3.1562 1.115 6.4084 1.6644 9.6159 0.83904 4.8987 2.2095 9.7014 2.8779 14.626 0.66838 4.9249 0.59567 10.095-1.3583 14.665-1.9959 4.668-5.8833 8.4088-10.439 10.649-2.199 1.0815-4.5884 1.8412-7.0373 1.9308-2.4489 0.0896-4.9639-0.52687-6.9371-1.98-1.2648-0.93146-2.2789-2.1811-3.0253-3.5632-0.74643-1.3821-1.2314-2.8955-1.5342-4.4368-0.60558-3.0827-0.49055-6.2536-0.52383-9.395-0.0951-8.9787-1.4205-17.961-0.67261-26.909 0.36839-4.4077 1.2407-8.7731 2.5946-12.984z" fill="#1db301" opacity=".92812" stroke="#18b600" stroke-width="1.7553"/>
  <path d="m-394.05 677.68c-0.0244-0.2314-0.0357-0.46452-0.0486-0.69727-0.0274-0.36689-0.0353-0.72658 0.0214-1.0884 0.14608-0.56216 0.51725-0.85214 0.90146-1.0898 0.4495-0.25645 0.92524-0.35402 1.411-0.3398 0.49842 0.038 0.88428 0.27242 1.2536 0.70663 0.3318 0.44724 0.48178 1.0257 0.58308 1.6243 0.10654 0.71399-0.0214 1.3291-0.24867 1.9717-0.26754 0.67142-0.66804 1.214-1.0784 1.7321-0.4326 0.53526-0.91343 0.99248-1.4087 1.4183-0.41057 0.34212-0.84933 0.61713-1.2952 0.86667-0.25902 0.14622-0.52673 0.26051-0.799 0.35348-0.19905 0.0679-0.15064 0.10615-0.0888-0.60838 6e-5 0 0.20273-0.025 0.307-0.0398 0.33025-0.0429 0.66136-0.0723 0.99248-0.0989 0.3627-0.0282 0.72579-0.047 1.089-0.0614 0.2846-9e-3 0.56923-0.0156 0.85389-0.0156 0.19267 0 0.3855 3e-3 0.57825 6e-3 0.12814 3e-3 0.25597 6e-3 0.38396 9e-3 0.0573 3e-3 0.0305 0 0.0837 3e-3 1.7003 0.0479 1.6901 0.68699-9e-3 0.63913v0c-0.0545-3e-3 -0.0274 0-0.0837-3e-3 -0.12692-3e-3 -0.25384-6e-3 -0.3808-9e-3 -0.18994-3e-3 -0.37962-6e-3 -0.56946-6e-3 -0.28063 3e-3 -0.56114 6e-3 -0.84157 0.0157-0.35823 0.0157-0.71635 0.032-1.0741 0.0604-0.32534 0.0251-0.65063 0.0551-0.9751 0.0971-0.0886 9e-3 -0.30946 0.0473-0.31225 0.0407-0.24624-0.60218-0.29525-0.57036-0.0721-0.6476 0.24958-0.0852 0.49486-0.18945 0.73221-0.32363 0.42002-0.23452 0.83347-0.49298 1.2205-0.81424 0.4705-0.404 0.92754-0.83753 1.3388-1.3452 0.36811-0.46364 0.73078-0.94616 0.97547-1.5439 0.18019-0.49442 0.29707-1.0038 0.21307-1.5577-0.077-0.46838-0.18384-0.92968-0.43596-1.2885-0.26572-0.32855-0.57726-0.51505-0.94387-0.54195-0.41189-0.0189-0.81503 0.0685-1.1972 0.2815-0.24412 0.14717-0.51026 0.31218-0.63324 0.64914-0.0557 0.29715-0.0274 0.5992-9e-3 0.9015 0.0122 0.21323 0.0244 0.42688 0.0432 0.63909 0.27971 2.2293-0.19481 2.3344-0.47447 0.10489z" stroke="#000" stroke-linecap="square" stroke-width=".36613" style="paint-order:markers fill stroke"/>
  <g fill="#ffa669" stroke="#ff9243" stroke-linecap="square" stroke-width=".11151">
   <path d="m-466.22 642.78h4.5296c0.53643-7e-3 1.0728 0.0101 1.6093-7e-3 1.8098-0.36924 1.6697 1.1633 2.4e-4 1.2516-0.53653 0.0182-1.073 2e-3 -1.6096 7e-3h-4.5296c-0.37057 0-0.37057-1.2517 0-1.2517z" enable-background="new" style="paint-order:markers fill stroke"/>
   <path d="m-466.22 623.07h4.5296c0.53643-7e-3 1.0728 0.0101 1.6093-7e-3 1.8098-0.36923 1.6697 1.1633 2.4e-4 1.2516-0.53653 0.0182-1.073 7e-4 -1.6096 7e-3h-4.5296c-0.37057 0-0.37057-1.2517 0-1.2517z" enable-background="new" style="paint-order:markers fill stroke"/>
   <path d="m-466.22 701.94h4.5296c0.53643-7e-3 1.0728 0.0101 1.6093-7e-3 1.8098-0.36923 1.6697 1.1633 2.3e-4 1.2516-0.53652 0.0182-1.073 2e-3 -1.6096 7e-3h-4.5296c-0.37057 0-0.37057-1.2517 0-1.2517z" enable-background="new" style="paint-order:markers fill stroke"/>
   <path d="m-448.82 706.01v-4.5296c-7e-3 -0.53645 0.0101-1.0729-7e-3 -1.6093-0.36922-1.8098 1.1633-1.6697 1.2516-2.3e-4 0.0182 0.53652 2e-3 1.073 7e-3 1.6096v4.5296c0 0.37057-1.2517 0.37057-1.2517 0z" enable-background="new" style="paint-order:markers fill stroke"/>
   <path d="m-434.41 706.01v-4.5296c-7e-3 -0.53645 0.0101-1.0729-7e-3 -1.6093-0.36922-1.8098 1.1633-1.6697 1.2516-2.3e-4 0.0181 0.53652 2e-3 1.073 7e-3 1.6096v4.5296c0 0.37057-1.2517 0.37057-1.2517 0z" enable-background="new" style="paint-order:markers fill stroke"/>
   <path d="m-419.99 706.01v-4.5296c-7e-3 -0.53645 0.0101-1.0729-7e-3 -1.6093-0.36924-1.8098 1.1633-1.6697 1.2516-2.3e-4 0.0182 0.53652 2e-3 1.073 7e-3 1.6096v4.5296c0 0.37057-1.2517 0.37057-1.2517 0z" enable-background="new" style="paint-order:markers fill stroke"/>
   <path d="m-405.58 706.01v-4.5296c-7e-3 -0.53645 0.0101-1.0729-7e-3 -1.6093-0.36923-1.8098 1.1633-1.6697 1.2516-2.3e-4 0.0181 0.53652 2e-3 1.073 7e-3 1.6096v4.5296c0 0.37057-1.2517 0.37057-1.2517 0z" enable-background="new" style="paint-order:markers fill stroke"/>
   <path d="m-391.17 706.01v-4.5296c-7e-3 -0.53645 0.0101-1.0729-7e-3 -1.6093-0.36924-1.8098 1.1633-1.6697 1.2516-2.3e-4 0.0182 0.53652 2e-3 1.073 7e-3 1.6096v4.5296c0 0.37057-1.2517 0.37057-1.2517 0z" enable-background="new" style="paint-order:markers fill stroke"/>
   <path d="m-463.23 704.8v-4.5296c-7e-3 -0.53644 0.0101-1.0729-7e-3 -1.6093-0.36923-1.8098 1.1633-1.6697 1.2516-2.4e-4 0.0182 0.53653 2e-3 1.073 7e-3 1.6096v4.5296c0 0.37057-1.2517 0.37057-1.2517 0z" enable-background="new" style="paint-order:markers fill stroke"/>
   <path d="m-376.76 706.01v-4.5296c-7e-3 -0.53645 0.0101-1.0729-7e-3 -1.6093-0.36923-1.8098 1.1633-1.6697 1.2516-2.3e-4 0.0182 0.53652 2e-3 1.073 7e-3 1.6096v4.5296c0 0.37057-1.2517 0.37057-1.2517 0z" enable-background="new" style="paint-order:markers fill stroke"/>
   <path d="m-466.22 662.5h4.5296c0.53643-7e-3 1.0728 0.0101 1.6093-7e-3 1.8098-0.36923 1.6697 1.1633 2.4e-4 1.2516-0.53653 0.0182-1.073 2e-3 -1.6096 7e-3h-4.5296c-0.37057 0-0.37057-1.2517 0-1.2517z" enable-background="new" style="paint-order:markers fill stroke"/>
   <path d="m-466.22 682.22h4.5296c0.53643-7e-3 1.0728 0.0101 1.6093-7e-3 1.8098-0.36923 1.6697 1.1633 2.4e-4 1.2516-0.53653 0.0182-1.073 2e-3 -1.6096 7e-3h-4.5296c-0.37057 0-0.37057-1.2517 0-1.2517z" enable-background="new" style="paint-order:markers fill stroke"/>
  </g>
  <path d="m-405.02 671.49c1.7317-0.0737 3.4628-0.15041 5.1819-0.32259 2.8181-0.28224 5.6398-0.83636 8.0569-1.9828 2.1982-1.0427 3.9959-2.5533 5.264-4.2806 1.2681-1.7273 2.0155-3.6665 2.3067-5.6362 0.58227-3.9394-0.64094-7.924-2.5318-11.614-1.3519-2.6382-3.0481-5.1726-5.0549-7.5531-3.7299-2.4565-8.2797-4.1643-13.083-4.9614" fill="none" stroke="#f61c2d" stroke-dasharray="0.897791, 0.897791" stroke-width=".89779"/>
  <g>
   <text x="-374.51486" y="715.75269" fill="#000000" font-family="Purisa" font-size="7.7611px" font-weight="bold" stroke-width=".11656" style="font-variant-caps:normal;font-variant-east-asian:normal;font-variant-ligatures:normal;font-variant-numeric:normal;line-height:1.25" xml:space="preserve"><tspan x="-374.51486" y="715.75269">X</tspan></text>
   <path d="m-418.69 654.06c0.25937-0.21046 0.51378-0.42392 0.76823-0.6377 0.47894-0.4021 0.92967-0.82505 1.3725-1.2534 0.40815-0.39103 0.79297-0.79797 1.1578-1.217 0.20019-0.23502 0.38768-0.47714 0.54696-0.73229 0.14876-0.25837 0.0597-0.32389 0.70336 0.0586 0.0553 0.0287-6e-3 0.10115-0.0222 0.15192-6e-3 0.0639-0.0222 0.12816-0.0277 0.19204-0.10562 0.59816-0.22177 1.1951-0.32298 1.7938-0.12442 0.73614-0.21955 1.4751-0.3025 2.2151-0.0598 0.55012-0.10453 1.1014-0.13494 1.6533-0.21624 3.1869-0.79527 3.163-0.65425-0.0246v0c0.0276-0.56032 0.0753-1.12 0.13714-1.6785 0.0841-0.74814 0.17975-1.4954 0.30639-2.2397 0.10121-0.59684 0.21625-1.192 0.32187-1.7882 6e-3 -0.0585 0.0222-0.1171 0.0276-0.17607 4e-3 -0.0409-0.0387-0.11711 0.0111-0.1253 0.80245-0.12693 0.68223-0.0569 0.53479 0.21212-0.17476 0.27802-0.37718 0.54331-0.59667 0.79914-0.37497 0.4311-0.77078 0.84966-1.1911 1.2522-0.45238 0.43776-0.91373 0.87024-1.4031 1.2811-0.25661 0.21539-0.51323 0.43056-0.77443 0.64278-1.638 1.3405-2.1013 0.96132-0.46289-0.37875z" stroke="#000" stroke-linecap="square" stroke-width=".42054" style="paint-order:markers fill stroke"/>
   <path d="m-438.88 680.9c-0.072-0.17691-0.11763-0.36815-0.15785-0.56033-0.0744-0.33155-0.0892-0.66964-0.0683-1.0119 0.0306-0.39686 0.15664-0.72955 0.36563-1.0157 0.24553-0.28386 0.55821-0.38833 0.87375-0.46014 0.34401-0.0666 0.67958 0.0123 1.0047 0.15472 0.29723 0.14392 0.53444 0.40003 0.73528 0.71216 0.1654 0.27646 0.25701 0.5996 0.31322 0.93793 0.0405 0.27922 0.0361 0.56332 0.0181 0.84509-0.0151 0.19294-0.0411 0.38353-0.0747 0.57207-9e-3 0.0345-0.0121 0.0724-0.0211 0.10788-3e-3 0.01 7e-3 -0.0216 7e-3 -0.0339-7e-3 -0.054-7.3e-4 -0.11587-0.0272-0.15964-0.0789-0.13684-0.10282-0.13314-0.18476-0.14855 0.1645-0.0536 0.33049-0.0999 0.49686-0.143 0.27213-0.069 0.54656-0.11927 0.82154-0.16334 0.24613-0.0459 0.49289-0.0638 0.7405-0.0352 0.31843 0.0512 0.47279 0.24286 0.59981 0.61491 0.11218 0.46978 0.12307 0.96677 0.12096 1.4548-7e-3 0.57144-0.10493 1.1265-0.25189 1.6622-0.15179 0.51334-0.39214 0.95886-0.68102 1.3557-0.26759 0.35624-0.60202 0.5828-0.95633 0.75625-0.28454 0.13129-0.58276 0.18399-0.88305 0.19786-0.23343 6e-3 -0.46559-0.0308-0.69632-0.0724-0.20833-0.0277-0.40616-0.10478-0.5957-0.2182-0.18264-0.11342-0.3207-0.28816-0.42877-0.50711-0.071-0.15841-0.10582-0.33385-0.12669-0.51335-0.24099-2.1717 0.23221-2.2602 0.47297-0.0884v0c9e-3 0.0946 0.0242 0.18798 0.0593 0.27367 0.0541 0.12019 0.1276 0.21018 0.22497 0.27275 0.14573 0.09 0.29903 0.14485 0.46011 0.16611 0.20349 0.037 0.40826 0.0693 0.6142 0.0666 0.24855-0.01 0.49556-0.0521 0.73162-0.15903 0.28725-0.13806 0.55954-0.31608 0.77751-0.60272 0.24522-0.33178 0.44736-0.70698 0.57744-1.1376 0.13092-0.4688 0.21589-0.95587 0.22375-1.4566 1e-3 -0.4062-7e-3 -0.81881-0.085-1.2141-0.039-0.14763-0.071-0.21697-0.20259-0.23361-0.21317-0.0278-0.4255-6e-3 -0.63721 0.0329-0.26336 0.0423-0.52613 0.0906-0.78662 0.15625-0.17599 0.0456-0.35075 0.0983-0.52576 0.14948-0.28182 0.0123-0.37806-0.20865-0.30313-0.52166 0.0303-0.15902 0.0523-0.3195 0.0638-0.48214 0.0151-0.22189 0.0211-0.44567-9e-3 -0.66612-0.0378-0.24069-0.0998-0.47212-0.21438-0.67105-0.14181-0.22776-0.31102-0.41386-0.52383-0.52092-0.24733-0.11434-0.50314-0.17598-0.76626-0.12913-0.2159 0.0475-0.43714 0.10449-0.61402 0.28353-0.13849 0.17105-0.20773 0.38602-0.23041 0.63273-0.0182 0.27028-7e-3 0.53582 0.0535 0.79782 0.0303 0.14547 0.0632 0.29062 0.11611 0.42523 0.80906 1.9262 0.38952 2.2234-0.41947 0.29712z" stroke="#000" stroke-linecap="square" stroke-width=".36203" style="paint-order:markers fill stroke"/>
  </g>
  <g fill="#9af28c">
   <path d="m-489.7 722.66c-0.36826-0.21822-1.2057-0.31894-3.0593-0.36804l-2.5522-0.0676-0.10391-2.683c-0.0909-2.3464 0.0734-3.7219 0.30099-5.1723 0.23481-1.4962 0.93987-17.595 0.92921-21.217-0.51315-0.83593-3.3881-0.0883-5.2467-0.83453-16.411-7.7471-10.57-43.016-3.7605-55.268 13.308-25.062 23.463-11.378 29.565 6.2883 0.0653 0.21738 0.26631 0.78518 0.44663 1.2618 1.0934 2.8903 3.6453 13.107 4.2746 17.113 1.0099 9.0402 1.1975 24.085-6.6506 29.79-1.1581 0.73681-3.1844 1.2547-6.349 1.6226-1.498 0.17429-3.0946 0.68145-3.3998 0.45392l-0.67613 0.13721c-3.0182 0.40979-2.0237 15.358-2.2791 22.021-0.0926 2.4451-0.21237 5.0712-0.26615 5.8358-0.10795 1.5372-0.22673 1.647-1.1742 1.0859z" style="paint-order:markers fill stroke"/>
   <path d="m-393.92 712.22c0.74335-0.77773 1.809-1.2375 2.8848-1.2446 1.0758-7e-3 2.1475 0.43846 2.9011 1.2063 0.78028 0.79499 1.1938 1.8685 1.6131 2.9005 0.2345 0.57712 0.47884 1.1573 0.58124 1.7718 0.10239 0.61447 0.0501 1.2774-0.27694 1.8076-0.2776 0.45-0.73053 0.76911-1.2139 0.98346s-1.002 0.33442-1.5135 0.46826c-0.68174 0.17838-1.3618 0.38412-2.0641 0.44307-0.70222 0.059-1.4422-0.0417-2.0287-0.4323-0.39571-0.26351-0.70205-0.64624-0.92656-1.0653s-0.37138-0.87522-0.49351-1.3347c-0.31327-1.1786-0.47027-2.4237-0.22705-3.6187 0.13601-0.66822 0.39643-1.3109 0.76396-1.8853z"/>
   <path d="m-450.38 713.43c0.41026-0.42923 0.9984-0.68298 1.5922-0.68692 0.59376-4e-3 1.1852 0.24199 1.6011 0.66574 0.43065 0.43876 0.65885 1.0312 0.89027 1.6008 0.12941 0.31852 0.26426 0.63875 0.32075 0.97788 0.0565 0.33913 0.0276 0.70499-0.15287 0.9976-0.15321 0.24836-0.40319 0.42447-0.66995 0.54277-0.26675 0.11831-0.55299 0.18458-0.8353 0.25845-0.37626 0.0984-0.75162 0.212-1.1392 0.24454-0.38756 0.0326-0.79594-0.023-1.1196-0.23859-0.21839-0.14544-0.38747-0.35667-0.51137-0.58796-0.12391-0.23129-0.20497-0.48304-0.27237-0.73662-0.1729-0.65046-0.25956-1.3377-0.12531-1.9972 0.0751-0.3688 0.21883-0.7235 0.4217-1.0405z"/>
  </g>
  <path d="m-417.45 671.98c-2.9152-3.4004-7.0621-5.7212-11.485-6.4277-4.4229-0.70645-9.0864 0.20715-12.916 2.5302-3.8656 2.3451-6.7918 6.0077-8.9496 9.9808-0.82956 1.5274-1.5623 3.124-1.9516 4.818s-0.42108 3.4992 0.13124 5.1473c0.57111 1.7042 1.7492 3.1716 3.1959 4.238 1.4468 1.0664 3.1526 1.7476 4.9061 2.1422 3.5069 0.78922 7.1524 0.45855 10.747 0.4188 1.8337-0.0203 3.671 0.0362 5.4987-0.11395 1.8276-0.15018 3.6616-0.51541 5.3027-1.3337 2.6075-1.3001 4.5774-3.6982 5.6767-6.3966 1.0993-2.6983 1.3768-5.6801 1.1552-8.5853-0.16654-2.183-0.60826-4.3448-1.3114-6.4181z" fill="none" stroke="#00887a" stroke-dasharray="1.0652, 1.0652" stroke-width="1.0652"/>
  <text x="-476.08121" y="616.00452" fill="#000000" font-family="Purisa" font-size="7.7611px" font-weight="bold" stroke-width=".11656" style="font-variant-caps:normal;font-variant-east-asian:normal;font-variant-ligatures:normal;font-variant-numeric:normal;line-height:1.25" xml:space="preserve"><tspan x="-476.08121" y="616.00452">Y</tspan></text>
 </g>
</svg>
