<svg width="150.4mm" height="150.4mm" version="1.1" viewBox="0 0 150.4 150.4" xmlns="http://www.w3.org/2000/svg">
 <g transform="translate(.13973 .1622)">
  <path d="m18.359 119.46c5.5396-3.9279 9.6073-9.8832 11.251-16.472 2.1943-8.7954 0.14787-18.203 2.1443-27.045 1.8589-8.2334 7.3107-15.544 14.554-19.877 5.3164-3.1803 11.543-4.7935 17.737-4.6933s12.34 1.9022 17.659 5.0782c5.9462 3.5506 10.926 8.9419 13.251 15.465 2.2462 6.3014 1.9317 13.18 1.8137 19.868-0.11802 6.6887 0.05515 13.664 3.1246 19.608 1.7323 3.3546 4.354 6.2448 7.5243 8.295" fill="#00887a" stroke="#161616" stroke-width="1.0132"/>
  <path d="m93.852 119.06c4.1756-11.375 6.0435-23.593 5.4576-35.696-0.31708-6.55-1.314-13.327 0.86549-19.512 1.0897-3.0925 3.0138-5.9597 5.7463-7.772 1.3662-0.90613 2.9213-1.5377 4.5425-1.7814s3.3074-0.09405 4.8402 0.4875c1.5453 0.5863 2.9125 1.6011 3.9992 2.8464 1.0867 1.2453 1.8991 2.7164 2.4716 4.2669 1.1449 3.101 1.3331 6.4663 1.3548 9.7718 0.0828 12.625-2.0635 25.497 1.0575 37.731 0.94343 3.6981 2.3608 7.2751 4.2065 10.616" fill="#f61c2d" opacity=".899" stroke="#000" stroke-width="1.158"/>
  <g fill="#ffa669" stroke="#ff9243" stroke-linecap="square">
   <path d="m18.359 119.46h107.62c18.22 0.32993 18.157 1.9742 0 1.9742h-107.62c-5.2236 0-5.2236-1.9742 0-1.9742z" enable-background="new" stroke-width=".52579" style="paint-order:markers fill stroke"/>
   <path d="m14.293 117.37v-60.705c-0.0093-7.1891 0.01631-14.378-0.01051-21.567-0.55969-24.255 1.7634-22.376 1.8973-0.0036 0.02749 7.1905 0.0023 14.381 0.01051 21.571v60.705c0 4.9663-1.8974 4.9663-1.8974 0z" enable-background="new" stroke-width=".5026" style="paint-order:markers fill stroke"/>
   <path d="m139.18 125.72c0.21325-0.1555 0.39794-0.33794 0.58811-0.51373 0.39357-0.37159 0.78506-0.74488 1.1719-1.1217 0.42641-0.4187 0.87195-0.82247 1.3191-1.2245 0.39276-0.34947 0.80119-0.68534 1.2027-1.0272 0.27541-0.23589 0.55808-0.46972 0.77015-0.75196 0.12319-0.1708 0.14989-0.34616 0.11583-0.54031-0.0662-0.26997-0.22652-0.5101-0.39359-0.74166-0.24077-0.31389-0.53053-0.59593-0.82748-0.87041-0.34912-0.31818-0.71867-0.61895-1.0919-0.91582-0.37418-0.2934-0.75806-0.57719-1.1501-0.85261-0.35897-0.25443-0.71913-0.50757-1.0809-0.759-0.31884-0.21891-0.63735-0.43824-0.95999-0.65297-0.19066-0.12547-0.0962-0.0635-0.28335-0.18554-3.5109-2.2885-2.7607-3.1453 0.75021-0.85682 0.19352 0.12613 0.0957 0.062 0.29337 0.19214 0.32952 0.2194 0.65494 0.44334 0.98058 0.66697 0.36342 0.25267 0.72531 0.50698 1.086 0.7626 0.4117 0.28937 0.81498 0.58741 1.2079 0.89575 0.39626 0.31531 0.78833 0.63495 1.1586 0.97313 0.35228 0.32651 0.69434 0.66334 0.97621 1.0387 0.26221 0.36911 0.4965 0.75591 0.57174 1.1898 0.0471 0.44787-0.0303 0.8689-0.31864 1.2532-0.26694 0.33798-0.58728 0.63717-0.93029 0.9191-0.39348 0.33508-0.79372 0.66432-1.179 1.0065-0.43573 0.39175-0.86998 0.78502-1.2854 1.193-0.39405 0.38382-0.79266 0.76407-1.1937 1.1424-0.23654 0.21868-0.4678 0.44451-0.73913 0.63216-3.4877 2.3148-4.2465 1.4636-0.7588-0.85113z" enable-background="new" stroke-width=".3559" style="paint-order:markers fill stroke"/>
  </g>
  <g stroke="#000">
   <g transform="matrix(.81835 0 0 1.222 2.4434 1.6068)" stroke-width=".2444" aria-label="környezeti tényező mértéke">
    <path d="m72.538 105.96q-0.13729-0.011-0.32401-0.1318-0.18122-0.12631-0.21417-0.12631-0.06041 0-0.09885-0.022-0.03295-0.022-0.03844-0.0439l-0.01098-0.022q-0.07688-0.0549-0.71391-0.25261l-0.20868-0.0659 0.03295 0.3295q0.02197 0.18671 0.02197 0.26909 0 0.29655-0.20868 0.29655-0.23065 0-0.28557-0.2636-0.05492-0.2636-0.09336-1.2411-0.04393-0.89514-0.08237-1.1038-0.11532-0.5931-0.11532-1.5377 0-0.28557 0.1977-0.28557 0.15377 0 0.21967 0.17024 0.03295 0.0824 0.07688 0.48876 0.04393 0.40638 0.09336 0.90063 0.04942 0.49424 0.08237 0.69194l0.02746 0.17574 0.5931-0.52171q0.04393-0.0384 0.11532-0.10434 0.07688-0.0659 0.11532-0.0988 0.04393-0.0384 0.10434-0.0934 0.0659-0.0549 0.09885-0.0824 0.03844-0.0329 0.08787-0.0714 0.05492-0.0384 0.08787-0.0604t0.0659-0.0439q0.03844-0.022 0.0659-0.0275 0.02746-0.011 0.04942-0.011 0.08787 0.011 0.14278 0.0824 0.06041 0.0659 0.06041 0.14278 0 0.0659-0.03295 0.0988-0.02746 0.0329-0.11532 0.10983-0.08787 0.0714-0.17024 0.18672-0.23065 0.32401-0.983 0.83473-0.20868 0.14278-0.21966 0.21417 0 0.0384 0.0659 0.0659l0.66449 0.2636 0.03844 0.022q0.04393 0.0165 0.08787 0.0384 0.04942 0.0165 0.12082 0.0494 0.07139 0.0329 0.13729 0.0714 0.07139 0.0329 0.14827 0.0769 0.08237 0.0439 0.14828 0.0879 0.07139 0.0384 0.1318 0.0879 0.0659 0.0494 0.10983 0.0934 0.04942 0.0439 0.07688 0.0934 0.02746 0.0439 0.02746 0.0879 0 0.0824-0.04942 0.1318t-0.1318 0.0494z" style="font-feature-settings:normal;font-variant-caps:normal;font-variant-ligatures:normal;font-variant-numeric:normal"/>
    <path d="m76.208 101.97q-0.07139 0.25811-0.18122 0.38442-0.10983 0.12082-0.23065 0.12082-0.11532 0-0.20319-0.10984-0.08237-0.10983-0.08237-0.28007 0-0.14278 0.07139-0.23065 0.07688-0.0879 0.1977-0.0879 0.14278 0 0.42835 0.20319zm-0.87317-0.0329q-0.07688 0.25811-0.18672 0.38442-0.10983 0.12631-0.23065 0.12631-0.11532 0-0.1977-0.10984-0.08238-0.10983-0.08238-0.28007 0-0.14278 0.07139-0.23065 0.07688-0.0879 0.1977-0.0879 0.05492 0 0.12631 0.0275 0.07139 0.0275 0.11532 0.0549 0.04393 0.022 0.11532 0.0714zm-1.4114 1.6969q0.4613-0.3954 0.7853-0.5217 0.3295-0.12631 0.82375-0.12631 0.76334 0 0.95554 0.42835 0.10983 0.24163 0.10983 0.59859 0 0.56563-0.27458 1.1532-0.26909 0.58761-0.68646 0.82375-0.40638 0.22515-0.86219 0.22515-0.66998 0-1.0214-0.39539-0.24712-0.27459-0.32401-0.46679-0.07139-0.1977-0.07139-0.54368 0-0.68645 0.56564-1.1752zm0.99399 2.1253q0.45032 0 0.82924-0.57113 0.38442-0.57663 0.38442-1.307 0-0.0769-0.01647-0.12082-0.01098-0.0439-0.02746-0.0604-0.01647-0.022-0.06041-0.0549-0.1977-0.14279-0.41736-0.14279-0.03295 0-0.09336 0.011-0.05492 5e-3 -0.17024 0.022-0.10983 0.011-0.24163 0.022-0.18672 0.022-0.29655 0.0769-0.10983 0.0494-0.28556 0.19221-0.3295 0.28007-0.47228 0.51621-0.13729 0.23065-0.13729 0.50524 0 0.40088 0.28007 0.65899 0.28007 0.25262 0.7249 0.25262z" style="font-feature-settings:normal;font-variant-caps:normal;font-variant-ligatures:normal;font-variant-numeric:normal"/>
    <path d="m79.399 103.44q0.10434 0 0.18122 0.0494 0.07688 0.0439 0.09885 0.0879 0.02746 0.0439 0.02746 0.0769 0 0.10983-0.25262 0.20319-0.33499 0.1263-0.73039 0.62055-0.38991 0.49425-0.47228 0.92809-0.10434 0.55466-0.17573 0.73588-0.07139 0.18672-0.20868 0.18672-0.05492 0-0.09885-0.0165-0.03844-0.011-0.0659-0.0494t-0.04393-0.0659-0.03295-0.0879q-0.01098-0.0659-0.01647-0.0934 0-0.0329-0.01098-0.10434-0.0055-0.0769-0.0055-0.0934-0.1318-1.285-0.1318-2.1582 0-0.18123 0.02197-0.28008 0.02197-0.10434 0.10983-0.18122 0.05492-0.0494 0.12082-0.0494 0.07139 0 0.12082 0.0604 0.04942 0.0549 0.04942 0.14828 0 0.20319 0.05492 0.57662 0.06041 0.36794 0.10983 0.57662 0.04393-0.0604 0.12631-0.18671 0.20868-0.34049 0.58211-0.60958 0.37343-0.27458 0.64252-0.27458z" style="font-feature-settings:normal;font-variant-caps:normal;font-variant-ligatures:normal;font-variant-numeric:normal"/>
    <path d="m80.778 103.24q0-0.28556 0.18122-0.28556 0.12082 5e-3 0.15926 0.14827 0.03844 0.14279 0.10983 0.80178 0.0055 0.0494 0.0055 0.0769 0.0055 0.0275 0.01098 0.0714 0.0055 0.0439 0.01098 0.0824l0.07688 0.62605 0.06041-0.18123q0.11532-0.35695 0.1977-0.5217 0.08787-0.16475 0.31852-0.46679 0.44482-0.58761 0.75236-0.58761 0.20319 0 0.35146 0.22516 0.17573 0.24712 0.21417 0.49425 0.04393 0.24712 0.06041 1.1313 0.01098 0.56014 0.01098 0.68096 0 0.36245-0.04942 0.49425-0.04942 0.12631-0.20319 0.12631-0.10434 0-0.13729-0.0549-0.03295-0.0604-0.03295-0.23614 0-0.0824 0.01098-0.34048 0.01098-0.25811 0.01098-0.42835 0-0.46679-0.03844-0.87317t-0.08787-0.51072q-0.02197-0.0439-0.05492-0.0824-0.03295-0.0439-0.06041-0.0659-0.02197-0.022-0.03295-0.022-0.08787 0-0.36245 0.36794-0.26909 0.36794-0.45581 0.75236-0.19221 0.40638-0.25811 0.5931-0.06041 0.18671-0.09885 0.50523-0.06041 0.51072-0.09885 0.56564-0.02746 0.0329-0.06041 0.0329-0.08237-0.011-0.17573-0.11533-0.04942-0.0549-0.07688-0.13729-0.02197-0.0879-0.03844-0.2636-0.01647-0.18122-0.02746-0.38441-0.01098-0.20869-0.04393-0.59859-0.03295-0.3954-0.08237-0.81826-0.0659-0.65899-0.0659-0.80178z" style="font-feature-settings:normal;font-variant-caps:normal;font-variant-ligatures:normal;font-variant-numeric:normal"/>
    <path d="m84.452 103.35q0.12631 0 0.15926 0.0988 0.03844 0.0988 0.03844 0.29106 0 0.24163-0.0055 0.49425t-0.0055 0.42286q0 0.7194 0.12631 0.7194 0.07688 0 0.32401-0.23614 0.24712-0.23614 0.35696-0.4613 0.11532-0.23065 0.19221-0.53269 0.08237-0.30204 0.11532-0.49424 0.03844-0.19221 0.11532-0.3295 0.08237-0.14279 0.21417-0.14279 0.09336 0 0.15926 0.0659 0.07139 0.0659 0.07139 0.17024 0 0.0934-0.12631 0.56015-0.12082 0.4613-0.12082 0.97202 0 0.17024 0.01647 0.31303l0.01647 0.0604 0.09885-0.0439q0.1318-0.0659 0.24163-0.0659 0.09885 0 0.15377 0.0494 0.06041 0.0439 0.06041 0.11532 0 0.17024-0.26909 0.30753l-0.18672 0.0879 0.02746 0.54916q-0.03295 0.99948-0.08237 1.0654-0.0659 0.0988-0.20319 0.0988-0.1318 0-0.41187-0.10434-0.15926-0.0659-0.25262-0.14278-0.08787-0.0769-0.17024-0.23065-0.17573-0.3295-0.17573-0.5931 0-0.0879 0.02197-0.14278 0.02746-0.0494 0.09885-0.14278 0.07688-0.0879 0.1318-0.17024 0.0659-0.0988 0.1977-0.15926 0.1318-0.0659 0.14278-0.0769 0.02746-0.022 0.14278-0.0934 0-0.17024-0.06041-0.30204-0.01647 0.0165-0.12631 0.1263-0.10983 0.10435-0.1977 0.18123-0.08787 0.0714-0.24163 0.14278-0.14827 0.0714-0.29106 0.0714-0.28556 0-0.45032-0.29655-0.07688-0.13729-0.09885-0.30204t-0.02197-0.62055q0-0.69195 0.04393-0.98301 0.04942-0.29654 0.23065-0.29654zm1.3125 3.641q0.02746-0.0604 0.02746-0.1922 0-0.10434-0.02197-0.24713-0.01647-0.13729-0.03844-0.23614-0.02197-0.0934-0.02197-0.0988l-0.01098-0.12631-0.04942 0.0659q-0.21417 0.29655-0.21417 0.48876 0 0.0714 0.1318 0.19221 0.1318 0.12631 0.1977 0.15376z" style="font-feature-settings:normal;font-variant-caps:normal;font-variant-ligatures:normal;font-variant-numeric:normal"/>
    <path d="m89.576 103.92q0-0.0439-0.24163-0.22516-0.17573-0.1318-0.25262-0.16475-0.07139-0.0329-0.20868-0.0329-0.27458 0-0.40638 0.0439-0.12631 0.0384-0.26909 0.17574-0.42286 0.41187-0.42835 0.53269 0.02197 5e-3 0.09336 5e-3 0.53269 0 1.4773-0.18672 0.23614-0.0439 0.23614-0.14827zm0.70842 0.86768q0.09885 0 0.09885 0.11532 0 0.12631-0.15926 0.36245-0.15926 0.23065-0.31852 0.37343-0.61506 0.5272-1.2686 0.5272-0.53818 0-0.97202-0.42286-0.43384-0.42285-0.43384-1.1642 0-0.20868 0.06041-0.40089 0.11532-0.34048 0.51622-0.70842 0.40089-0.37343 0.76883-0.37343 0.09885 0 0.29106 0.0165 0.29655 0.022 0.41736 0.0604 0.12631 0.0329 0.28557 0.1373 0.17573 0.11532 0.31852 0.32949 0.14278 0.20869 0.14278 0.36794 0 0.20869-0.17024 0.30754-0.17024 0.0988-0.57662 0.18122-0.53269 0.10434-1.0983 0.13729l-0.47777 0.022v0.14278q0 0.20319 0.08787 0.35696 0.09336 0.15376 0.29655 0.324 0.29106 0.24164 0.5931 0.24164 0.24163 0 0.51072-0.14279 0.26909-0.14827 0.45581-0.324 0.19221-0.17574 0.36794-0.31852 0.18122-0.14827 0.2636-0.14827z" style="font-feature-settings:normal;font-variant-caps:normal;font-variant-ligatures:normal;font-variant-numeric:normal"/>
    <path d="m91.717 106.14q-0.25811 0-0.25811-0.15926 0-0.12081 0.1977-0.47228 0.20319-0.35695 0.31302-0.47228 0.0659-0.0659 0.10434-0.10983-0.02746-5e-3 -0.11532-5e-3 -0.08237-5e-3 -0.13729-0.011-0.04942-5e-3 -0.10983-0.022-0.06041-0.0165-0.09336-0.0439-0.03295-0.0329-0.03295-0.0824 0-0.23065 0.5931-0.23065 0.20319 0 0.25811-0.0165 0.06041-0.0165 0.11532-0.0824 0.15377-0.18672 0.24163-0.40089 0.09336-0.21967 0.09336-0.35146 0-0.0439-0.0055-0.0604-0.02197-5e-3 -0.08237-5e-3 -0.26909 0-0.7908 0.14278-0.52171 0.13729-0.61506 0.23614-0.07688 0.0988-0.22516 0.0988-0.09885 0-0.17573-0.0439-0.07688-0.0494-0.07688-0.12631 0-0.0549 0.03844-0.0989 0.12082-0.17024 0.68096-0.36245 0.56015-0.19221 0.83473-0.25262 0.09336-0.0165 0.1977-0.0165 0.41187 0 0.56564 0.15926 0.08787 0.0934 0.08787 0.30204 0 0.30204-0.16475 0.63154l-0.08237 0.15925 0.10434 0.011q0.31852 0.0329 0.31852 0.14278 0 0.0714-0.13729 0.14278-0.1318 0.0659-0.34048 0.0879-0.15377 0.0165-0.23614 0.0549-0.08237 0.0384-0.22516 0.16475-0.12082 0.10984-0.27458 0.30204-0.14827 0.19221-0.20868 0.30754 0.99948-0.17024 1.2796-0.17024 0.38442 0 0.38442 0.17024 0 0.10434-0.13729 0.16475-0.13729 0.0604-0.47228 0.11532-1.1478 0.20319-1.4114 0.20319z" style="font-feature-settings:normal;font-variant-caps:normal;font-variant-ligatures:normal;font-variant-numeric:normal"/>
    <path d="m96.58 103.92q0-0.0439-0.24163-0.22516-0.17573-0.1318-0.25262-0.16475-0.07139-0.0329-0.20868-0.0329-0.27458 0-0.40638 0.0439-0.12631 0.0384-0.26909 0.17574-0.42286 0.41187-0.42835 0.53269 0.02197 5e-3 0.09336 5e-3 0.53269 0 1.4773-0.18672 0.23614-0.0439 0.23614-0.14827zm0.70842 0.86768q0.09885 0 0.09885 0.11532 0 0.12631-0.15926 0.36245-0.15926 0.23065-0.31852 0.37343-0.61506 0.5272-1.2686 0.5272-0.53818 0-0.97202-0.42286-0.43384-0.42285-0.43384-1.1642 0-0.20868 0.06041-0.40089 0.11532-0.34048 0.51621-0.70842 0.40089-0.37343 0.76883-0.37343 0.09885 0 0.29106 0.0165 0.29655 0.022 0.41736 0.0604 0.12631 0.0329 0.28556 0.1373 0.17573 0.11532 0.31852 0.32949 0.14278 0.20869 0.14278 0.36794 0 0.20869-0.17024 0.30754-0.17024 0.0988-0.57662 0.18122-0.53269 0.10434-1.0983 0.13729l-0.47777 0.022v0.14278q0 0.20319 0.08787 0.35696 0.09336 0.15376 0.29655 0.324 0.29106 0.24164 0.5931 0.24164 0.24163 0 0.51072-0.14279 0.26909-0.14827 0.45581-0.324 0.19221-0.17574 0.36794-0.31852 0.18122-0.14827 0.2636-0.14827z" style="font-feature-settings:normal;font-variant-caps:normal;font-variant-ligatures:normal;font-variant-numeric:normal"/>
    <path d="m99.018 103.11q-0.17573 0.011-0.48326 0.0659-0.30204 0.0494-0.40638 0.0494-0.23614 0-0.23614-0.18672 0-0.14827 0.20868-0.22515 0.20868-0.0769 0.49425-0.12082 0.29106-0.0439 0.37343-0.0879 0.04393-0.0439 0.04393-0.23614 0-0.1977-0.04942-0.51621-0.04942-0.31852-0.04942-0.57662 0-0.17574 0.09336-0.25811 0.09336-0.0879 0.20319-0.0879 0.12082 0 0.17024 0.0988 0.02746 0.0824 0.09336 0.71941 0.0659 0.63154 0.08237 0.73039 0.04393-5e-3 0.29106-0.0439 0.25262-0.0439 0.38442-0.0439 0.18671 0 0.26359 0.0604 0.0769 0.0604 0.0769 0.1318 0 0.10434-0.14278 0.17573-0.14279 0.0714-0.51621 0.16475l-0.31302 0.0494 0.04393 0.83473q0.04393 0.77432 0.15377 1.4498 0.10983 0.67547 0.10983 0.77981 0 0.24163-0.25262 0.24163-0.14827 0-0.21966-0.0549-0.16475-0.14828-0.16475-0.62056 0-0.19221-0.02197-0.38991-0.02197-0.20319-0.07688-0.62604-0.04942-0.42835-0.09336-0.88416-0.05492-0.57113-0.06041-0.5931z" style="font-feature-settings:normal;font-variant-caps:normal;font-variant-ligatures:normal;font-variant-numeric:normal"/>
    <path d="m101.57 102.99q0.0934-0.0659 0.18123-0.0659 0.0879 0 0.14827 0.0714 0.0879 0.16475 0.14278 0.95554 0.0604 0.7908 0.0604 1.4773 0 0.49424-0.0329 0.56014-0.10983 0.0879-0.23614 0.0879-0.19221 0-0.23614-0.11532-0.0275-0.0879-0.0879-1.1423-0.0549-1.0599-0.0549-1.4168 0-0.33499 0.11532-0.41187zm-0.0604-1.285q0.011-0.10434 0.0879-0.17024 0.0824-0.0659 0.15926-0.0659 0.0769 0 0.1977 0.0714 0.12081 0.0714 0.12081 0.19221 0 0.1318-0.0659 0.23614t-0.17573 0.10434q-0.11532 0-0.21966-0.10434-0.10435-0.10983-0.10435-0.2636z" style="font-feature-settings:normal;font-variant-caps:normal;font-variant-ligatures:normal;font-variant-numeric:normal"/>
    <path d="m107.51 103.11q-0.17573 0.011-0.48327 0.0659-0.30204 0.0494-0.40638 0.0494-0.23614 0-0.23614-0.18672 0-0.14827 0.20869-0.22515 0.20868-0.0769 0.49424-0.12082 0.29106-0.0439 0.37343-0.0879 0.0439-0.0439 0.0439-0.23614 0-0.1977-0.0494-0.51621-0.0494-0.31852-0.0494-0.57662 0-0.17574 0.0934-0.25811 0.0934-0.0879 0.20319-0.0879 0.12081 0 0.17024 0.0988 0.0275 0.0824 0.0934 0.71941 0.0659 0.63154 0.0824 0.73039 0.0439-5e-3 0.29106-0.0439 0.25261-0.0439 0.38441-0.0439 0.18672 0 0.2636 0.0604 0.0769 0.0604 0.0769 0.1318 0 0.10434-0.14278 0.17573-0.14278 0.0714-0.51621 0.16475l-0.31303 0.0494 0.0439 0.83473q0.0439 0.77432 0.15376 1.4498 0.10984 0.67547 0.10984 0.77981 0 0.24163-0.25262 0.24163-0.14827 0-0.21967-0.0549-0.16475-0.14828-0.16475-0.62056 0-0.19221-0.022-0.38991-0.022-0.20319-0.0769-0.62604-0.0494-0.42835-0.0934-0.88416-0.0549-0.57113-0.0604-0.5931z" style="font-feature-settings:normal;font-variant-caps:normal;font-variant-ligatures:normal;font-variant-numeric:normal"/>
    <path d="m111.54 101.91q0.0549 0 0.13729 0.0604 0.0879 0.0604 0.0879 0.14279 0 0.10434-0.35695 0.43933-0.35696 0.3295-0.49974 0.3295-0.0165 0-0.0439-5e-3 -0.0275-5e-3 -0.0769-0.0494-0.0439-0.0439-0.0439-0.11532 0-0.11533 0.21417-0.31852 0.0275-0.022 0.0879-0.0769l0.0494-0.0494q0.022-0.022 0.0824-0.0824 0.0659-0.0604 0.10983-0.0989 0.0439-0.0384 0.0934-0.0824 0.0549-0.0439 0.0934-0.0659 0.0439-0.0274 0.0659-0.0274zm0.49974 2.0099q0-0.0439-0.24164-0.22516-0.17573-0.1318-0.25261-0.16475-0.0714-0.0329-0.20868-0.0329-0.27459 0-0.40639 0.0439-0.1263 0.0384-0.26909 0.17574-0.42285 0.41187-0.42834 0.53269 0.022 5e-3 0.0934 5e-3 0.53269 0 1.4773-0.18672 0.23614-0.0439 0.23614-0.14827zm0.70842 0.86768q0.0989 0 0.0989 0.11532 0 0.12631-0.15926 0.36245-0.15926 0.23065-0.31852 0.37343-0.61506 0.5272-1.2686 0.5272-0.53819 0-0.97202-0.42286-0.43384-0.42285-0.43384-1.1642 0-0.20868 0.0604-0.40089 0.11533-0.34048 0.51622-0.70842 0.40089-0.37343 0.76883-0.37343 0.0988 0 0.29105 0.0165 0.30754 0.022 0.42835 0.0549 0.12631 0.0329 0.27458 0.14279 0.17574 0.1263 0.31852 0.33499 0.14278 0.20319 0.14278 0.36244 0 0.20869-0.17024 0.30754-0.17024 0.0988-0.57662 0.18122-0.53269 0.10434-1.0983 0.13729l-0.47777 0.022v0.14278q0 0.20319 0.0879 0.35696 0.0934 0.15376 0.29655 0.324 0.29106 0.24164 0.5931 0.24164 0.24163 0 0.51072-0.14279 0.26909-0.14827 0.45581-0.324 0.19221-0.17574 0.36794-0.31852 0.18122-0.14827 0.2636-0.14827z" style="font-feature-settings:normal;font-variant-caps:normal;font-variant-ligatures:normal;font-variant-numeric:normal"/>
    <path d="m113.79 103.24q0-0.28556 0.18122-0.28556 0.12082 5e-3 0.15926 0.14827 0.0384 0.14279 0.10983 0.80178 5e-3 0.0494 5e-3 0.0769 5e-3 0.0275 0.011 0.0714 5e-3 0.0439 0.011 0.0824l0.0769 0.62605 0.0604-0.18123q0.11532-0.35695 0.1977-0.5217 0.0879-0.16475 0.31851-0.46679 0.44483-0.58761 0.75236-0.58761 0.20319 0 0.35146 0.22516 0.17574 0.24712 0.21418 0.49425 0.0439 0.24712 0.0604 1.1313 0.011 0.56014 0.011 0.68096 0 0.36245-0.0494 0.49425-0.0494 0.12631-0.20319 0.12631-0.10434 0-0.13729-0.0549-0.0329-0.0604-0.0329-0.23614 0-0.0824 0.011-0.34048 0.011-0.25811 0.011-0.42835 0-0.46679-0.0384-0.87317t-0.0879-0.51072q-0.022-0.0439-0.0549-0.0824-0.0329-0.0439-0.0604-0.0659-0.022-0.022-0.0329-0.022-0.0879 0-0.36245 0.36794-0.26909 0.36794-0.45581 0.75236-0.1922 0.40638-0.2581 0.5931-0.0604 0.18671-0.0988 0.50523-0.0604 0.51072-0.0988 0.56564-0.0275 0.0329-0.0604 0.0329-0.0824-0.011-0.17573-0.11533-0.0494-0.0549-0.0769-0.13729-0.022-0.0879-0.0384-0.2636-0.0165-0.18122-0.0275-0.38441-0.011-0.20869-0.0439-0.59859-0.0329-0.3954-0.0824-0.81826-0.0659-0.65899-0.0659-0.80178z" style="font-feature-settings:normal;font-variant-caps:normal;font-variant-ligatures:normal;font-variant-numeric:normal"/>
    <path d="m117.47 103.35q0.12631 0 0.15926 0.0988 0.0384 0.0988 0.0384 0.29106 0 0.24163-5e-3 0.49425t-5e-3 0.42286q0 0.7194 0.12631 0.7194 0.0769 0 0.32401-0.23614 0.24712-0.23614 0.35696-0.4613 0.11532-0.23065 0.1922-0.53269 0.0824-0.30204 0.11533-0.49424 0.0384-0.19221 0.11532-0.3295 0.0824-0.14279 0.21418-0.14279 0.0934 0 0.15925 0.0659 0.0714 0.0659 0.0714 0.17024 0 0.0934-0.1263 0.56015-0.12082 0.4613-0.12082 0.97202 0 0.17024 0.0165 0.31303l0.0165 0.0604 0.0988-0.0439q0.1318-0.0659 0.24163-0.0659 0.0988 0 0.15377 0.0494 0.0604 0.0439 0.0604 0.11532 0 0.17024-0.26909 0.30753l-0.18672 0.0879 0.0275 0.54916q-0.0329 0.99948-0.0824 1.0654-0.0659 0.0988-0.20319 0.0988-0.1318 0-0.41187-0.10434-0.15926-0.0659-0.25262-0.14278-0.0879-0.0769-0.17024-0.23065-0.17573-0.3295-0.17573-0.5931 0-0.0879 0.022-0.14278 0.0275-0.0494 0.0988-0.14278 0.0769-0.0879 0.1318-0.17024 0.0659-0.0988 0.1977-0.15926 0.13179-0.0659 0.14278-0.0769 0.0275-0.022 0.14278-0.0934 0-0.17024-0.0604-0.30204-0.0165 0.0165-0.1263 0.1263-0.10984 0.10435-0.1977 0.18123-0.0879 0.0714-0.24164 0.14278-0.14827 0.0714-0.29105 0.0714-0.28557 0-0.45032-0.29655-0.0769-0.13729-0.0988-0.30204-0.022-0.16475-0.022-0.62055 0-0.69195 0.0439-0.98301 0.0494-0.29654 0.23065-0.29654zm1.3125 3.641q0.0275-0.0604 0.0275-0.1922 0-0.10434-0.022-0.24713-0.0165-0.13729-0.0384-0.23614-0.022-0.0934-0.022-0.0988l-0.011-0.12631-0.0494 0.0659q-0.21418 0.29655-0.21418 0.48876 0 0.0714 0.1318 0.19221 0.1318 0.12631 0.1977 0.15376z" style="font-feature-settings:normal;font-variant-caps:normal;font-variant-ligatures:normal;font-variant-numeric:normal"/>
    <path d="m122.59 103.92q0-0.0439-0.24164-0.22516-0.17573-0.1318-0.25261-0.16475-0.0714-0.0329-0.20868-0.0329-0.27459 0-0.40639 0.0439-0.1263 0.0384-0.26909 0.17574-0.42285 0.41187-0.42834 0.53269 0.022 5e-3 0.0933 5e-3 0.53269 0 1.4772-0.18672 0.23615-0.0439 0.23615-0.14827zm0.70842 0.86768q0.0988 0 0.0988 0.11532 0 0.12631-0.15926 0.36245-0.15926 0.23065-0.31852 0.37343-0.61506 0.5272-1.2686 0.5272-0.53818 0-0.97202-0.42286-0.43384-0.42285-0.43384-1.1642 0-0.20868 0.0604-0.40089 0.11533-0.34048 0.51622-0.70842 0.40089-0.37343 0.76883-0.37343 0.0988 0 0.29105 0.0165 0.29655 0.022 0.41737 0.0604 0.12631 0.0329 0.28556 0.1373 0.17574 0.11532 0.31852 0.32949 0.14278 0.20869 0.14278 0.36794 0 0.20869-0.17024 0.30754-0.17024 0.0988-0.57662 0.18122-0.53269 0.10434-1.0983 0.13729l-0.47777 0.022v0.14278q0 0.20319 0.0879 0.35696 0.0934 0.15376 0.29655 0.324 0.29106 0.24164 0.5931 0.24164 0.24163 0 0.51072-0.14279 0.26909-0.14827 0.45581-0.324 0.19221-0.17574 0.36794-0.31852 0.18122-0.14827 0.2636-0.14827z" style="font-feature-settings:normal;font-variant-caps:normal;font-variant-ligatures:normal;font-variant-numeric:normal"/>
    <path d="m124.73 106.14q-0.25811 0-0.25811-0.15926 0-0.12081 0.1977-0.47228 0.20319-0.35695 0.31302-0.47228 0.0659-0.0659 0.10434-0.10983-0.0275-5e-3 -0.11532-5e-3 -0.0824-5e-3 -0.13729-0.011-0.0494-5e-3 -0.10984-0.022-0.0604-0.0165-0.0934-0.0439-0.0329-0.0329-0.0329-0.0824 0-0.23065 0.59309-0.23065 0.20319 0 0.25811-0.0165 0.0604-0.0165 0.11533-0.0824 0.15376-0.18672 0.24163-0.40089 0.0934-0.21967 0.0934-0.35146 0-0.0439-5e-3 -0.0604-0.022-5e-3 -0.0824-5e-3 -0.26909 0-0.7908 0.14278-0.5217 0.13729-0.61506 0.23614-0.0769 0.0988-0.22516 0.0988-0.0988 0-0.17573-0.0439-0.0769-0.0494-0.0769-0.12631 0-0.0549 0.0384-0.0989 0.12081-0.17024 0.68096-0.36245t0.83473-0.25262q0.0934-0.0165 0.1977-0.0165 0.41187 0 0.56564 0.15926 0.0879 0.0934 0.0879 0.30204 0 0.30204-0.16475 0.63154l-0.0824 0.15925 0.10434 0.011q0.31852 0.0329 0.31852 0.14278 0 0.0714-0.13729 0.14278-0.1318 0.0659-0.34049 0.0879-0.15376 0.0165-0.23614 0.0549-0.0824 0.0384-0.22515 0.16475-0.12082 0.10984-0.27459 0.30204-0.14827 0.19221-0.20868 0.30754 0.99948-0.17024 1.2796-0.17024 0.38441 0 0.38441 0.17024 0 0.10434-0.13729 0.16475-0.13729 0.0604-0.47228 0.11532-1.1478 0.20319-1.4114 0.20319z" style="font-feature-settings:normal;font-variant-caps:normal;font-variant-ligatures:normal;font-variant-numeric:normal"/>
    <path d="m130.39 101.52q0.0165 0 0.0384 5e-3 0.0275 5e-3 0.0659 0.0494 0.0439 0.0439 0.0439 0.11532 0 0.13729-0.34597 0.47228-0.34048 0.33499-0.41187 0.33499-0.0714 0-0.14828-0.0659-0.0714-0.0659-0.0714-0.1318 0-0.10983 0.34598-0.44482 0.35146-0.33499 0.48326-0.33499zm-0.49974 0.15377q0 0.14827-0.35696 0.47228-0.35146 0.324-0.42834 0.324-0.0769 0-0.14828-0.0659-0.0714-0.0659-0.0714-0.13729 0-0.10434 0.35146-0.43933 0.35696-0.33499 0.49974-0.33499l0.0165 5e-3q0.0165 0 0.0275 5e-3 0.0165 5e-3 0.0384 0.0165 0.022 0.011 0.0329 0.0329 0.0165 0.0165 0.0275 0.0494 0.011 0.0275 0.011 0.0714zm-2.0484 1.9605q0.4613-0.3954 0.7853-0.5217 0.3295-0.12631 0.82375-0.12631 0.76334 0 0.95554 0.42835 0.10984 0.24163 0.10984 0.59859 0 0.56563-0.27458 1.1532-0.2691 0.58761-0.68646 0.82375-0.40638 0.22515-0.86219 0.22515-0.66998 0-1.0214-0.39539-0.24713-0.27459-0.32401-0.46679-0.0714-0.1977-0.0714-0.54368 0-0.68645 0.56564-1.1752zm0.99399 2.1253q0.45031 0 0.82923-0.57113 0.38442-0.57663 0.38442-1.307 0-0.0769-0.0165-0.12082-0.011-0.0439-0.0275-0.0604-0.0165-0.022-0.0604-0.0549-0.1977-0.14279-0.41737-0.14279-0.033 0-0.0934 0.011-0.0549 5e-3 -0.17024 0.022-0.10983 0.011-0.24163 0.022-0.18671 0.022-0.29655 0.0769-0.10983 0.0494-0.28556 0.19221-0.3295 0.28007-0.47228 0.51621-0.1373 0.23065-0.1373 0.50524 0 0.40088 0.28008 0.65899 0.28007 0.25262 0.7249 0.25262z" style="font-feature-settings:normal;font-variant-caps:normal;font-variant-ligatures:normal;font-variant-numeric:normal"/>
    <path d="m138.83 104.92q0 0.45032-0.011 0.69744-5e-3 0.24164-0.0384 0.37343-0.0275 0.1318-0.0659 0.16475-0.0384 0.0329-0.11533 0.0329-0.0934 0-0.1263-0.0988-0.022-0.0769-0.0275-0.75784 0-0.68646-0.0494-1.285-0.0439-0.60408-0.17573-0.60408-0.0934 0-0.28007 0.30204-0.18672 0.30204-0.37893 0.91162-0.18671 0.60408-0.22515 1.2741-0.022 0.30204-0.19221 0.30204-0.12082 0-0.15377-0.11533-0.0275-0.11532-0.0439-0.47777 0-0.0329 0-0.0494t-5e-3 -0.0439q0-0.033 0-0.0549-0.0384-0.84023-0.11533-1.1697-0.0769-0.3295-0.28556-0.5931-0.11533-0.16475-0.16475-0.16475-0.0879 0.022-0.4613 0.82375-0.10434 0.21966-0.10434 0.42285 0 0.1318-0.0549 0.27458-0.0494 0.14279-0.0659 0.70293 0 0.0549-5e-3 0.15926 0 0.10434 0 0.15926 0 0.0494-0.011 0.1318-5e-3 0.0824-0.022 0.12081-0.011 0.0384-0.0329 0.0824-0.022 0.0439-0.0604 0.0604-0.0329 0.022-0.0824 0.022-0.14827 0-0.18672-0.2581-0.0384-0.25262-0.0384-1.0764 0-0.5272-0.0439-1.1093-0.0384-0.5876-0.0384-0.67547 0-0.36794 0.15926-0.36794 0.0549 0 0.0933 0.0604 0.0439 0.0604 0.0714 0.17024 0.0274 0.10434 0.0439 0.20868 0.022 0.10434 0.0439 0.24164 0.022 0.13729 0.0384 0.20319 0.0329-0.0824 0.0494-0.12082 0.022-0.0384 0.0384-0.0494 0.0165-0.0165 0.0604-0.0824 0.0439-0.0714 0.10983-0.19221 0.13729-0.25261 0.21967-0.31302 0.0824-0.0659 0.28556-0.0659 0.21967 0 0.47228 0.2636 0.14279 0.15926 0.1977 0.30204 0.0549 0.13729 0.10983 0.47777l0.0384 0.20319q0.15376-0.48875 0.4558-0.86768 0.30753-0.37892 0.60957-0.37892 0.18672 0 0.31852 0.17024 0.13729 0.17024 0.19221 0.41187 0.0549 0.25811 0.0549 1.2411z" style="font-feature-settings:normal;font-variant-caps:normal;font-variant-ligatures:normal;font-variant-numeric:normal"/>
    <path d="m141.57 101.91q0.0549 0 0.1373 0.0604 0.0879 0.0604 0.0879 0.14279 0 0.10434-0.35696 0.43933-0.35695 0.3295-0.49973 0.3295-0.0165 0-0.0439-5e-3 -0.0275-5e-3 -0.0769-0.0494-0.0439-0.0439-0.0439-0.11532 0-0.11533 0.21417-0.31852 0.0275-0.022 0.0879-0.0769l0.0494-0.0494q0.022-0.022 0.0824-0.0824 0.0659-0.0604 0.10983-0.0989 0.0439-0.0384 0.0934-0.0824 0.0549-0.0439 0.0934-0.0659 0.0439-0.0274 0.0659-0.0274zm0.49974 2.0099q0-0.0439-0.24163-0.22516-0.17573-0.1318-0.25261-0.16475-0.0714-0.0329-0.20869-0.0329-0.27458 0-0.40638 0.0439-0.12631 0.0384-0.26909 0.17574-0.42285 0.41187-0.42835 0.53269 0.022 5e-3 0.0934 5e-3 0.53269 0 1.4772-0.18672 0.23614-0.0439 0.23614-0.14827zm0.70843 0.86768q0.0988 0 0.0988 0.11532 0 0.12631-0.15926 0.36245-0.15926 0.23065-0.31852 0.37343-0.61506 0.5272-1.2686 0.5272-0.53818 0-0.97202-0.42286-0.43384-0.42285-0.43384-1.1642 0-0.20868 0.0604-0.40089 0.11533-0.34048 0.51622-0.70842 0.40088-0.37343 0.76882-0.37343 0.0988 0 0.29106 0.0165 0.30753 0.022 0.42835 0.0549 0.12631 0.0329 0.27458 0.14279 0.17573 0.1263 0.31852 0.33499 0.14278 0.20319 0.14278 0.36244 0 0.20869-0.17024 0.30754-0.17024 0.0988-0.57662 0.18122-0.53269 0.10434-1.0983 0.13729l-0.47777 0.022v0.14278q0 0.20319 0.0879 0.35696 0.0934 0.15376 0.29655 0.324 0.29106 0.24164 0.5931 0.24164 0.24163 0 0.51072-0.14279 0.26909-0.14827 0.45581-0.324 0.1922-0.17574 0.36794-0.31852 0.18122-0.14827 0.2636-0.14827z" style="font-feature-settings:normal;font-variant-caps:normal;font-variant-ligatures:normal;font-variant-numeric:normal"/>
    <path d="m145.62 103.44q0.10434 0 0.18122 0.0494 0.0769 0.0439 0.0988 0.0879 0.0275 0.0439 0.0275 0.0769 0 0.10983-0.25261 0.20319-0.33499 0.1263-0.73039 0.62055-0.38991 0.49425-0.47228 0.92809-0.10434 0.55466-0.17574 0.73588-0.0714 0.18672-0.20868 0.18672-0.0549 0-0.0988-0.0165-0.0384-0.011-0.0659-0.0494t-0.0439-0.0659q-0.0165-0.0275-0.0329-0.0879-0.011-0.0659-0.0165-0.0934 0-0.0329-0.011-0.10434-5e-3 -0.0769-5e-3 -0.0934-0.1318-1.285-0.1318-2.1582 0-0.18123 0.022-0.28008 0.022-0.10434 0.10983-0.18122 0.0549-0.0494 0.12082-0.0494 0.0714 0 0.12081 0.0604 0.0494 0.0549 0.0494 0.14828 0 0.20319 0.0549 0.57662 0.0604 0.36794 0.10984 0.57662 0.0439-0.0604 0.1263-0.18671 0.20869-0.34049 0.58212-0.60958 0.37343-0.27458 0.64252-0.27458z" style="font-feature-settings:normal;font-variant-caps:normal;font-variant-ligatures:normal;font-variant-numeric:normal"/>
    <path d="m147.69 103.11q-0.17573 0.011-0.48326 0.0659-0.30204 0.0494-0.40639 0.0494-0.23614 0-0.23614-0.18672 0-0.14827 0.20869-0.22515 0.20868-0.0769 0.49424-0.12082 0.29106-0.0439 0.37344-0.0879 0.0439-0.0439 0.0439-0.23614 0-0.1977-0.0494-0.51621-0.0494-0.31852-0.0494-0.57662 0-0.17574 0.0934-0.25811 0.0934-0.0879 0.20319-0.0879 0.12081 0 0.17024 0.0988 0.0275 0.0824 0.0934 0.71941 0.0659 0.63154 0.0824 0.73039 0.0439-5e-3 0.29106-0.0439 0.25261-0.0439 0.38441-0.0439 0.18672 0 0.2636 0.0604 0.0769 0.0604 0.0769 0.1318 0 0.10434-0.14279 0.17573-0.14278 0.0714-0.51621 0.16475l-0.31303 0.0494 0.0439 0.83473q0.0439 0.77432 0.15376 1.4498 0.10984 0.67547 0.10984 0.77981 0 0.24163-0.25262 0.24163-0.14827 0-0.21966-0.0549-0.16475-0.14828-0.16475-0.62056 0-0.19221-0.022-0.38991-0.022-0.20319-0.0769-0.62604-0.0494-0.42835-0.0934-0.88416-0.0549-0.57113-0.0604-0.5931z" style="font-feature-settings:normal;font-variant-caps:normal;font-variant-ligatures:normal;font-variant-numeric:normal"/>
    <path d="m151.72 101.91q0.0549 0 0.13729 0.0604 0.0879 0.0604 0.0879 0.14279 0 0.10434-0.35696 0.43933-0.35695 0.3295-0.49974 0.3295-0.0165 0-0.0439-5e-3 -0.0275-5e-3 -0.0769-0.0494-0.0439-0.0439-0.0439-0.11532 0-0.11533 0.21418-0.31852 0.0275-0.022 0.0879-0.0769l0.0494-0.0494q0.022-0.022 0.0824-0.0824 0.0659-0.0604 0.10984-0.0989 0.0439-0.0384 0.0934-0.0824 0.0549-0.0439 0.0934-0.0659 0.0439-0.0274 0.0659-0.0274zm0.49974 2.0099q0-0.0439-0.24163-0.22516-0.17573-0.1318-0.25262-0.16475-0.0714-0.0329-0.20868-0.0329-0.27458 0-0.40638 0.0439-0.12631 0.0384-0.26909 0.17574-0.42286 0.41187-0.42835 0.53269 0.022 5e-3 0.0934 5e-3 0.53269 0 1.4772-0.18672 0.23614-0.0439 0.23614-0.14827zm0.70842 0.86768q0.0988 0 0.0988 0.11532 0 0.12631-0.15926 0.36245-0.15925 0.23065-0.31851 0.37343-0.61506 0.5272-1.2686 0.5272-0.53818 0-0.97202-0.42286-0.43384-0.42285-0.43384-1.1642 0-0.20868 0.0604-0.40089 0.11532-0.34048 0.51621-0.70842 0.40089-0.37343 0.76883-0.37343 0.0988 0 0.29106 0.0165 0.30753 0.022 0.42835 0.0549 0.12631 0.0329 0.27458 0.14279 0.17573 0.1263 0.31851 0.33499 0.14279 0.20319 0.14279 0.36244 0 0.20869-0.17024 0.30754-0.17024 0.0988-0.57663 0.18122-0.53269 0.10434-1.0983 0.13729l-0.47778 0.022v0.14278q0 0.20319 0.0879 0.35696 0.0934 0.15376 0.29655 0.324 0.29105 0.24164 0.5931 0.24164 0.24163 0 0.51072-0.14279 0.26909-0.14827 0.4558-0.324 0.19221-0.17574 0.36794-0.31852 0.18123-0.14827 0.2636-0.14827z" style="font-feature-settings:normal;font-variant-caps:normal;font-variant-ligatures:normal;font-variant-numeric:normal"/>
    <path d="m155.9 105.96q-0.13729-0.011-0.32401-0.1318-0.18122-0.12631-0.21417-0.12631-0.0604 0-0.0988-0.022-0.0329-0.022-0.0385-0.0439l-0.011-0.022q-0.0769-0.0549-0.71391-0.25261l-0.20868-0.0659 0.033 0.3295q0.022 0.18671 0.022 0.26909 0 0.29655-0.20868 0.29655-0.23065 0-0.28557-0.2636-0.0549-0.2636-0.0933-1.2411-0.0439-0.89514-0.0824-1.1038-0.11532-0.5931-0.11532-1.5377 0-0.28557 0.1977-0.28557 0.15376 0 0.21966 0.17024 0.0329 0.0824 0.0769 0.48876 0.0439 0.40638 0.0933 0.90063 0.0494 0.49424 0.0824 0.69194l0.0275 0.17574 0.59309-0.52171q0.0439-0.0384 0.11533-0.10434 0.0769-0.0659 0.11532-0.0988 0.0439-0.0384 0.10434-0.0934 0.0659-0.0549 0.0988-0.0824 0.0384-0.0329 0.0879-0.0714 0.0549-0.0384 0.0879-0.0604 0.0329-0.022 0.0659-0.0439 0.0384-0.022 0.0659-0.0275 0.0275-0.011 0.0494-0.011 0.0879 0.011 0.14278 0.0824 0.0604 0.0659 0.0604 0.14278 0 0.0659-0.0329 0.0988-0.0275 0.0329-0.11532 0.10983-0.0879 0.0714-0.17024 0.18672-0.23065 0.32401-0.98301 0.83473-0.20868 0.14278-0.21966 0.21417 0 0.0384 0.0659 0.0659l0.66448 0.2636 0.0384 0.022q0.0439 0.0165 0.0879 0.0384 0.0494 0.0165 0.12082 0.0494 0.0714 0.0329 0.13729 0.0714 0.0714 0.0329 0.14827 0.0769 0.0824 0.0439 0.14828 0.0879 0.0714 0.0384 0.1318 0.0879 0.0659 0.0494 0.10983 0.0934 0.0494 0.0439 0.0769 0.0934 0.0275 0.0439 0.0275 0.0879 0 0.0824-0.0494 0.1318t-0.1318 0.0494z" style="font-feature-settings:normal;font-variant-caps:normal;font-variant-ligatures:normal;font-variant-numeric:normal"/>
    <path d="m159.04 103.92q0-0.0439-0.24163-0.22516-0.17574-0.1318-0.25262-0.16475-0.0714-0.0329-0.20868-0.0329-0.27458 0-0.40638 0.0439-0.12631 0.0384-0.26909 0.17574-0.42286 0.41187-0.42835 0.53269 0.022 5e-3 0.0934 5e-3 0.53269 0 1.4772-0.18672 0.23614-0.0439 0.23614-0.14827zm0.70842 0.86768q0.0988 0 0.0988 0.11532 0 0.12631-0.15926 0.36245-0.15926 0.23065-0.31851 0.37343-0.61507 0.5272-1.2686 0.5272-0.53818 0-0.97202-0.42286-0.43384-0.42285-0.43384-1.1642 0-0.20868 0.0604-0.40089 0.11532-0.34048 0.51621-0.70842 0.40089-0.37343 0.76883-0.37343 0.0988 0 0.29106 0.0165 0.29655 0.022 0.41736 0.0604 0.12631 0.0329 0.28557 0.1373 0.17573 0.11532 0.31851 0.32949 0.14279 0.20869 0.14279 0.36794 0 0.20869-0.17025 0.30754-0.17024 0.0988-0.57662 0.18122-0.53269 0.10434-1.0983 0.13729l-0.47777 0.022v0.14278q0 0.20319 0.0879 0.35696 0.0933 0.15376 0.29655 0.324 0.29105 0.24164 0.59309 0.24164 0.24164 0 0.51073-0.14279 0.26909-0.14827 0.4558-0.324 0.19221-0.17574 0.36794-0.31852 0.18123-0.14827 0.2636-0.14827z" style="font-feature-settings:normal;font-variant-caps:normal;font-variant-ligatures:normal;font-variant-numeric:normal"/>
   </g>
   <g transform="matrix(0 -1.0181 .98223 0 3.4588 .31443)" stroke-width=".25" aria-label="életképesség">
    <path d="m-61.347 3.567q0.05144 0 0.12859 0.056581 0.0823 0.056581 0.0823 0.13374 0 0.097731-0.33434 0.4115-0.33434 0.30862-0.46808 0.30862-0.01543 0-0.04115-0.00514t-0.07201-0.046293q-0.04115-0.04115-0.04115-0.10802 0-0.10802 0.2006-0.29834 0.02572-0.020575 0.0823-0.072012l0.04629-0.046293q0.02058-0.020575 0.07716-0.077156 0.06173-0.056581 0.10287-0.092587 0.04115-0.036006 0.08744-0.077156 0.05144-0.04115 0.08744-0.061724 0.04115-0.025719 0.06173-0.025719zm0.46808 1.8826q0-0.04115-0.22632-0.21089-0.1646-0.12345-0.23661-0.15431-0.06687-0.030862-0.19546-0.030862-0.25719 0-0.38064 0.04115-0.1183 0.036006-0.25204 0.1646-0.39607 0.38578-0.40121 0.49894 0.02057 0.00514 0.08744 0.00514 0.49894 0 1.3837-0.17489 0.22118-0.04115 0.22118-0.13888zm0.66354 0.81271q0.09259 0 0.09259 0.10802 0 0.11831-0.14917 0.33948-0.14917 0.21604-0.29834 0.34977-0.5761 0.4938-1.1882 0.4938-0.50408 0-0.91044-0.39607t-0.40635-1.0905q0-0.19546 0.05658-0.37549 0.10802-0.31891 0.48351-0.66354 0.37549-0.34977 0.72012-0.34977 0.09259 0 0.27262 0.015431 0.28805 0.020575 0.40121 0.051437 0.11831 0.030862 0.25719 0.13374 0.1646 0.11831 0.29834 0.31377 0.13374 0.19032 0.13374 0.33948 0 0.19546-0.15946 0.28805-0.15946 0.092587-0.54009 0.16974-0.49894 0.09773-1.0287 0.12859l-0.4475 0.020575v0.13374q0 0.19032 0.0823 0.33434 0.08744 0.14402 0.27776 0.30348 0.27262 0.22632 0.55552 0.22632 0.22632 0 0.47837-0.13374 0.25204-0.13888 0.42693-0.30348 0.18003-0.1646 0.34463-0.29834 0.16974-0.13888 0.2469-0.13888z" style="font-feature-settings:normal;font-variant-caps:normal;font-variant-ligatures:normal;font-variant-numeric:normal"/>
    <path d="m-59.383 3.351q0-0.37549 0.03086-0.5761 0.03086-0.2006 0.07201-0.25204 0.04629-0.056581 0.12345-0.056581 0.12345 0 0.14917 0.10287 0.02572 0.10802 0.10802 1.3116 0.08744 1.2036 0.15946 2.3404 0.07715 1.1368 0.07715 1.1625 0 0.18003-0.19546 0.18003-0.17489 0-0.22632-0.21089-0.04629-0.21604-0.1183-1.2551-0.0823-1.0956-0.14917-1.9083-0.03086-0.43207-0.03086-0.83842z" style="font-feature-settings:normal;font-variant-caps:normal;font-variant-ligatures:normal;font-variant-numeric:normal"/>
    <path d="m-55.755 5.4496q0-0.04115-0.22632-0.21089-0.1646-0.12345-0.23661-0.15431-0.06687-0.030862-0.19546-0.030862-0.25719 0-0.38064 0.04115-0.1183 0.036006-0.25204 0.1646-0.39607 0.38578-0.40121 0.49894 0.02058 0.00514 0.08744 0.00514 0.49894 0 1.3837-0.17489 0.22118-0.04115 0.22118-0.13888zm0.66354 0.81271q0.09259 0 0.09259 0.10802 0 0.11831-0.14917 0.33948-0.14917 0.21604-0.29834 0.34977-0.5761 0.4938-1.1882 0.4938-0.50408 0-0.91044-0.39607t-0.40635-1.0905q0-0.19546 0.05658-0.37549 0.10802-0.31891 0.48351-0.66354 0.37549-0.34977 0.72012-0.34977 0.09259 0 0.27262 0.015431 0.27776 0.020575 0.39092 0.056581 0.1183 0.030862 0.26747 0.12859 0.1646 0.10802 0.29834 0.30862 0.13374 0.19546 0.13374 0.34463 0 0.19546-0.15946 0.28805-0.15946 0.092587-0.54009 0.16974-0.49894 0.09773-1.0287 0.12859l-0.4475 0.020575v0.13374q0 0.19032 0.0823 0.33434 0.08744 0.14402 0.27776 0.30348 0.27262 0.22632 0.55552 0.22632 0.22632 0 0.47836-0.13374 0.25204-0.13888 0.42693-0.30348 0.18003-0.1646 0.34463-0.29834 0.16974-0.13888 0.2469-0.13888z" style="font-feature-settings:normal;font-variant-caps:normal;font-variant-ligatures:normal;font-variant-numeric:normal"/>
    <path d="m-53.472 4.6884q-0.1646 0.010287-0.45265 0.061725-0.2829 0.046293-0.38064 0.046293-0.22118 0-0.22118-0.17489 0-0.13888 0.19546-0.21089t0.46293-0.11316q0.27262-0.04115 0.34977-0.082299 0.04115-0.04115 0.04115-0.22118 0-0.18517-0.04629-0.48351-0.04629-0.29834-0.04629-0.54009 0-0.1646 0.08744-0.24175 0.08744-0.082299 0.19032-0.082299 0.11316 0 0.15946 0.092587 0.02572 0.077156 0.08744 0.67383 0.06172 0.59153 0.07715 0.68411 0.04115-0.00514 0.27262-0.04115 0.23661-0.04115 0.36006-0.04115 0.17489 0 0.2469 0.056581 0.07201 0.056581 0.07201 0.12345 0 0.09773-0.13374 0.1646-0.13374 0.066868-0.48351 0.15431l-0.29319 0.046293 0.04115 0.78184q0.04115 0.72526 0.14402 1.3579 0.10287 0.63268 0.10287 0.73041 0 0.22632-0.23661 0.22632-0.13888 0-0.20575-0.051437-0.15431-0.13888-0.15431-0.58124 0-0.18003-0.02057-0.3652-0.02058-0.19032-0.07201-0.58638-0.04629-0.40121-0.08744-0.82814-0.05144-0.53495-0.05658-0.55552z" style="font-feature-settings:normal;font-variant-caps:normal;font-variant-ligatures:normal;font-variant-numeric:normal"/>
    <path d="m-49.24 7.3579q-0.12859-0.010287-0.30348-0.12345-0.16974-0.11831-0.2006-0.11831-0.05658 0-0.09259-0.020575-0.03086-0.020575-0.03601-0.04115l-0.01029-0.020575q-0.07201-0.051437-0.66868-0.23661l-0.19546-0.061725 0.03086 0.30862q0.02058 0.17489 0.02058 0.25204 0 0.27776-0.19546 0.27776-0.21604 0-0.26747-0.2469-0.05144-0.2469-0.08744-1.1625-0.04115-0.83842-0.07715-1.0339-0.10802-0.55552-0.10802-1.4402 0-0.26747 0.18517-0.26747 0.14402 0 0.20575 0.15946 0.03086 0.077156 0.07201 0.45779 0.04115 0.38063 0.08744 0.84357 0.04629 0.46293 0.07716 0.64811l0.02572 0.1646 0.55552-0.48865q0.04115-0.036006 0.10802-0.09773 0.07201-0.061725 0.10802-0.092587 0.04115-0.036006 0.09773-0.087443 0.06173-0.051437 0.09259-0.077156 0.03601-0.030862 0.0823-0.066868 0.05144-0.036006 0.0823-0.056581t0.06172-0.04115q0.03601-0.020575 0.06172-0.025718 0.02572-0.010288 0.04629-0.010288 0.0823 0.010288 0.13374 0.077156 0.05658 0.061725 0.05658 0.13374 0 0.061725-0.03086 0.092587-0.02572 0.030862-0.10802 0.10287-0.0823 0.066868-0.15946 0.17489-0.21604 0.30348-0.92072 0.78184-0.19546 0.13374-0.20575 0.2006 0 0.036006 0.06172 0.061724l0.62239 0.2469 0.03601 0.020575q0.04115 0.015431 0.0823 0.036006 0.04629 0.015431 0.11316 0.046293 0.06687 0.030862 0.12859 0.066868 0.06687 0.030862 0.13888 0.072012 0.07716 0.04115 0.13888 0.082299 0.06687 0.036006 0.12345 0.082299 0.06172 0.046293 0.10287 0.087443 0.04629 0.04115 0.07201 0.087443 0.02572 0.04115 0.02572 0.082299 0 0.077156-0.04629 0.12345-0.04629 0.046293-0.12345 0.046293z" style="font-feature-settings:normal;font-variant-caps:normal;font-variant-ligatures:normal;font-variant-numeric:normal"/>
    <path d="m-46.77 3.567q0.05144 0 0.12859 0.056581 0.0823 0.056581 0.0823 0.13374 0 0.097731-0.33434 0.4115-0.33434 0.30862-0.46808 0.30862-0.01543 0-0.04115-0.00514t-0.07201-0.046293q-0.04115-0.04115-0.04115-0.10802 0-0.10802 0.2006-0.29834 0.02572-0.020575 0.0823-0.072012l0.04629-0.046293q0.02058-0.020575 0.07716-0.077156 0.06173-0.056581 0.10287-0.092587 0.04115-0.036006 0.08744-0.077156 0.05144-0.04115 0.08744-0.061724 0.04115-0.025719 0.06173-0.025719zm0.46808 1.8826q0-0.04115-0.22632-0.21089-0.1646-0.12345-0.23661-0.15431-0.06687-0.030862-0.19546-0.030862-0.25719 0-0.38064 0.04115-0.1183 0.036006-0.25204 0.1646-0.39607 0.38578-0.40121 0.49894 0.02058 0.00514 0.08744 0.00514 0.49894 0 1.3837-0.17489 0.22118-0.04115 0.22118-0.13888zm0.66354 0.81271q0.09259 0 0.09259 0.10802 0 0.11831-0.14917 0.33948-0.14917 0.21604-0.29834 0.34977-0.5761 0.4938-1.1882 0.4938-0.50408 0-0.91044-0.39607t-0.40635-1.0905q0-0.19546 0.05658-0.37549 0.10802-0.31891 0.48351-0.66354 0.37549-0.34977 0.72012-0.34977 0.09259 0 0.27262 0.015431 0.28805 0.020575 0.40121 0.051437 0.11831 0.030862 0.25719 0.13374 0.1646 0.11831 0.29834 0.31377 0.13374 0.19032 0.13374 0.33948 0 0.19546-0.15946 0.28805-0.15946 0.092587-0.54009 0.16974-0.49894 0.09773-1.0287 0.12859l-0.4475 0.020575v0.13374q0 0.19032 0.0823 0.33434 0.08744 0.14402 0.27776 0.30348 0.27262 0.22632 0.55552 0.22632 0.22632 0 0.47836-0.13374 0.25204-0.13888 0.42693-0.30348 0.18003-0.1646 0.34463-0.29834 0.16974-0.13888 0.2469-0.13888z" style="font-feature-settings:normal;font-variant-caps:normal;font-variant-ligatures:normal;font-variant-numeric:normal"/>
    <path d="m-44.996 5.3467q0-0.09773 0.14402-0.22118 0.14402-0.12345 0.14402-0.19032 0-0.11316 0.07201-0.26747 0.07201-0.15431 0.22632-0.15431 0.10287 0 0.1646 0.082299 0.06687 0.077156 0.09259 0.077156 0.04629 0 0.40121-0.077156 0.35492-0.082299 0.63782-0.082299 0.23661 0 0.51952 0.056581 0.59667 0.12859 0.59667 0.70469 0 0.43722-0.32405 1.0905-0.22118 0.45265-0.56581 0.69954-0.34463 0.2469-0.7407 0.2469-0.10287 0-0.16974-0.010287l-0.15431-0.020575 0.04115 0.17489q0.2006 0.84357 0.2006 1.0956 0 0.22118-0.23147 0.22118-0.14917 0-0.22118-0.087443-0.09259-0.11831-0.21604-0.72012-0.1183-0.59667-0.20575-1.5431-0.03086-0.3292-0.05144-0.50923-0.01543-0.18517-0.03601-0.27262-0.02058-0.092587-0.03601-0.11316-0.01543-0.020575-0.04629-0.020575-0.24176 0-0.24176-0.15946zm2.361-0.29834q-0.06173-0.030862-0.30348-0.030862-0.49894 0-0.88986 0.11316l-0.32405 0.09773 0.01029 0.2829q0.01543 0.39092 0.06173 0.83842 0.05144 0.4475 0.09259 0.4475 0.10287 0 0.21604 0.066868 0.11316 0.061725 0.1646 0.061725 0.19546 0 0.46293-0.25204 0.27262-0.25204 0.46808-0.6121 0.19546-0.3652 0.19546-0.64296 0-0.10287-0.03601-0.19032-0.03601-0.092587-0.07201-0.12859-0.03086-0.04115-0.04629-0.051437z" style="font-feature-settings:normal;font-variant-caps:normal;font-variant-ligatures:normal;font-variant-numeric:normal"/>
    <path d="m-39.209 5.4496q0-0.04115-0.22632-0.21089-0.1646-0.12345-0.23661-0.15431-0.06687-0.030862-0.19546-0.030862-0.25719 0-0.38064 0.04115-0.1183 0.036006-0.25204 0.1646-0.39606 0.38578-0.40121 0.49894 0.02058 0.00514 0.08744 0.00514 0.49894 0 1.3837-0.17489 0.22118-0.04115 0.22118-0.13888zm0.66354 0.81271q0.09259 0 0.09259 0.10802 0 0.11831-0.14917 0.33948-0.14917 0.21604-0.29834 0.34977-0.5761 0.4938-1.1882 0.4938-0.50408 0-0.91044-0.39607-0.40635-0.39607-0.40635-1.0905 0-0.19546 0.05658-0.37549 0.10802-0.31891 0.48351-0.66354 0.37549-0.34977 0.72012-0.34977 0.09259 0 0.27262 0.015431 0.27776 0.020575 0.39092 0.056581 0.11831 0.030862 0.26747 0.12859 0.1646 0.10802 0.29834 0.30862 0.13374 0.19546 0.13374 0.34463 0 0.19546-0.15946 0.28805-0.15946 0.092587-0.54009 0.16974-0.49894 0.09773-1.0287 0.12859l-0.4475 0.020575v0.13374q0 0.19032 0.0823 0.33434 0.08744 0.14402 0.27776 0.30348 0.27262 0.22632 0.55552 0.22632 0.22632 0 0.47836-0.13374 0.25204-0.13888 0.42693-0.30348 0.18003-0.1646 0.34463-0.29834 0.16974-0.13888 0.2469-0.13888z" style="font-feature-settings:normal;font-variant-caps:normal;font-variant-ligatures:normal;font-variant-numeric:normal"/>
    <path d="m-37.79 7.1573q0-0.087443 0.04629-0.14917 0.04629-0.066868 0.11316-0.066868 0.12859 0 0.22632 0.18003 0.05658 0.10802 0.2469 0.20575 0.19032 0.092587 0.35492 0.092587 0.20575 0 0.37549-0.22632 0.17489-0.23147 0.17489-0.35492 0-0.020575-0.01543-0.056581-0.01543-0.04115-0.08744-0.10802-0.06687-0.066868-0.17489-0.09773-0.17489-0.051437-0.38064-0.12859-0.20575-0.082299-0.30348-0.10287-0.15431-0.030862-0.40635-0.21604-0.25204-0.18517-0.25204-0.39092 0-0.20575 0.29319-0.5298 0.29319-0.32405 0.72526-0.41664l0.51437-0.046293q0.13888 0 0.21089 0.036006 0.07201 0.030862 0.18003 0.15431 0.17489 0.2006 0.17489 0.29319 0 0.12859-0.13374 0.12859-0.11316 0-0.23147-0.11831-0.11316-0.12345-0.2829-0.12345-0.23147 0-0.48351 0.13374-0.2469 0.12859-0.39092 0.27262-0.14402 0.13888-0.14402 0.2006 0 0.04115 0.05658 0.097731 0.06172 0.051437 0.2006 0.12345 0.14402 0.072012 0.33948 0.12859 0.54009 0.15946 0.74584 0.31377 0.20575 0.15431 0.20575 0.43207 0 0.24175-0.08744 0.43722-0.07201 0.16974-0.2829 0.34977-0.21089 0.18517-0.43207 0.18517-0.15946 0-0.41664-0.046293-0.25204-0.04115-0.39092-0.10287-0.11316-0.056581-0.2006-0.2006-0.08744-0.14917-0.08744-0.2829z" style="font-feature-settings:normal;font-variant-caps:normal;font-variant-ligatures:normal;font-variant-numeric:normal"/>
    <path d="m-34.987 7.1573q0-0.087443 0.04629-0.14917 0.04629-0.066868 0.11316-0.066868 0.12859 0 0.22632 0.18003 0.05658 0.10802 0.2469 0.20575 0.19032 0.092587 0.35492 0.092587 0.20575 0 0.37549-0.22632 0.17489-0.23147 0.17489-0.35492 0-0.020575-0.01543-0.056581-0.01543-0.04115-0.08744-0.10802-0.06687-0.066868-0.17489-0.09773-0.17489-0.051437-0.38064-0.12859-0.20575-0.082299-0.30348-0.10287-0.15431-0.030862-0.40635-0.21604-0.25204-0.18517-0.25204-0.39092 0-0.20575 0.29319-0.5298 0.29319-0.32405 0.72526-0.41664l0.51437-0.046293q0.13888 0 0.21089 0.036006 0.07201 0.030862 0.18003 0.15431 0.17489 0.2006 0.17489 0.29319 0 0.12859-0.13374 0.12859-0.11316 0-0.23147-0.11831-0.11316-0.12345-0.2829-0.12345-0.23147 0-0.48351 0.13374-0.2469 0.12859-0.39092 0.27262-0.14402 0.13888-0.14402 0.2006 0 0.04115 0.05658 0.097731 0.06172 0.051437 0.2006 0.12345 0.14402 0.072012 0.33948 0.12859 0.54009 0.15946 0.74584 0.31377 0.20575 0.15431 0.20575 0.43207 0 0.24175-0.08744 0.43722-0.07201 0.16974-0.2829 0.34977-0.21089 0.18517-0.43207 0.18517-0.15946 0-0.41664-0.046293-0.25204-0.04115-0.39092-0.10287-0.11316-0.056581-0.2006-0.2006-0.08744-0.14917-0.08744-0.2829z" style="font-feature-settings:normal;font-variant-caps:normal;font-variant-ligatures:normal;font-variant-numeric:normal"/>
    <path d="m-30.625 3.567q0.05144 0 0.12859 0.056581 0.0823 0.056581 0.0823 0.13374 0 0.097731-0.33434 0.4115-0.33434 0.30862-0.46808 0.30862-0.01543 0-0.04115-0.00514t-0.07201-0.046293q-0.04115-0.04115-0.04115-0.10802 0-0.10802 0.2006-0.29834 0.02572-0.020575 0.0823-0.072012l0.04629-0.046293q0.02058-0.020575 0.07716-0.077156 0.06172-0.056581 0.10287-0.092587 0.04115-0.036006 0.08744-0.077156 0.05144-0.04115 0.08744-0.061724 0.04115-0.025719 0.06172-0.025719zm0.46808 1.8826q0-0.04115-0.22632-0.21089-0.1646-0.12345-0.23661-0.15431-0.06687-0.030862-0.19546-0.030862-0.25718 0-0.38063 0.04115-0.11831 0.036006-0.25204 0.1646-0.39607 0.38578-0.40121 0.49894 0.02058 0.00514 0.08744 0.00514 0.49894 0 1.3837-0.17489 0.22118-0.04115 0.22118-0.13888zm0.66354 0.81271q0.09259 0 0.09259 0.10802 0 0.11831-0.14917 0.33948-0.14917 0.21604-0.29834 0.34977-0.5761 0.4938-1.1882 0.4938-0.50408 0-0.91044-0.39607-0.40635-0.39607-0.40635-1.0905 0-0.19546 0.05658-0.37549 0.10802-0.31891 0.48351-0.66354 0.37549-0.34977 0.72012-0.34977 0.09259 0 0.27262 0.015431 0.28805 0.020575 0.40121 0.051437 0.1183 0.030862 0.25719 0.13374 0.1646 0.11831 0.29834 0.31377 0.13374 0.19032 0.13374 0.33948 0 0.19546-0.15946 0.28805-0.15946 0.092587-0.54009 0.16974-0.49894 0.09773-1.0287 0.12859l-0.4475 0.020575v0.13374q0 0.19032 0.0823 0.33434 0.08744 0.14402 0.27776 0.30348 0.27262 0.22632 0.55552 0.22632 0.22632 0 0.47836-0.13374 0.25204-0.13888 0.42693-0.30348 0.18003-0.1646 0.34463-0.29834 0.16974-0.13888 0.2469-0.13888z" style="font-feature-settings:normal;font-variant-caps:normal;font-variant-ligatures:normal;font-variant-numeric:normal"/>
    <path d="m-28.337 6.2057q0 0.26747 0.13888 0.49894 0.14402 0.22632 0.36006 0.22632 0.30862 0 0.67897-0.27262 0.37549-0.27262 0.60696-0.68926 0.13374-0.24175 0.22118-0.54523 0.09259-0.30348 0.09259-0.46808 0-0.051437-0.01029-0.072012-0.09259-0.046293-0.35492-0.046293-0.23147 0-0.4115 0.046293-0.45265 0.12345-0.88986 0.58124-0.43207 0.45779-0.43207 0.74069zm2.006 2.1346q0.19032 0 0.19032-0.15431 0-0.39607-0.02572-0.65325-0.02572-0.25204-0.06687-0.43207-0.03601-0.18003-0.04629-0.28805-0.01543-0.24175-0.03601-0.37549-0.14402 0.19032-0.45265 0.42178-0.30862 0.22632-0.52466 0.30348-0.25204 0.087443-0.55038 0.087443-0.18517 0-0.30348-0.04115-0.11316-0.04115-0.2829-0.18003-0.15946-0.13374-0.23147-0.2469-0.06687-0.11831-0.10287-0.30348-0.03601-0.19032-0.03601-0.32405 0-0.20575 0.19032-0.53495 0.19032-0.33434 0.32405-0.49894 0.12345-0.15431 0.4475-0.33948 0.32405-0.19032 0.57095-0.26233 0.26233-0.082299 0.59667-0.082299 0.41664 0 0.6944 0.13888 0.2829 0.13888 0.2829 0.44236 0 0.15946-0.07716 0.38063-0.07201 0.21604-0.07201 0.37035 0 0.092587 0.01029 0.26747 0.01543 0.16974 0.04629 0.5761 0.03601 0.40121 0.06172 0.80242l0.07716 1.0647-0.20575 0.1646q-0.15946 0.13374-0.33434 0.13374-0.30862 0-0.74069-0.13888-0.42693-0.13888-0.7407-0.33434-0.30862-0.19546-0.30862-0.33434 0-0.18003 0.16974-0.38578 0.17489-0.20575 0.30348-0.20575 0.19546 0 0.19546 0.14402 0 0.061724-0.05144 0.15431-0.05144 0.092587-0.05144 0.1646 0 0.10802 0.17489 0.2006 0.18003 0.092587 0.30348 0.092587 0.10287 0 0.28805 0.10287 0.19032 0.10287 0.31377 0.10287z" style="font-feature-settings:normal;font-variant-caps:normal;font-variant-ligatures:normal;font-variant-numeric:normal"/>
   </g>
   <g stroke-linecap="square">
    <path d="m108.94 40.622c-0.0269-0.24438-0.0407-0.49067-0.0554-0.7365-0.0322-0.38755-0.0403-0.7675 0.0247-1.1497 0.16656-0.5938 0.58961-0.90011 1.0276-1.1512 0.5124-0.27071 1.0547-0.37394 1.6084-0.35892 0.56816 0.03995 1.008 0.28761 1.429 0.74642 0.37821 0.47239 0.54919 1.0834 0.66467 1.7157 0.12137 0.75419-0.0233 1.4039-0.28341 2.0826-0.30489 0.70922-0.7615 1.2823-1.2293 1.8296-0.49312 0.56535-1.0412 1.0483-1.6058 1.4981-0.46797 0.36138-0.96812 0.65189-1.4764 0.91545-0.29529 0.15442-0.60041 0.27505-0.91077 0.37338-0.22697 0.07184-0.17162 0.11205-0.10138-0.6426 8e-5 0 0.23123-0.02785 0.34995-0.04207 0.37645-0.0453 0.75385-0.07638 1.1313-0.10453 0.41344-0.03027 0.82734-0.04964 1.2413-0.06468 0.32436-0.0115 0.64886-0.01645 0.97335-0.01796 0.21973 0 0.43944 3e-3 0.65915 0.0061 0.14589 3e-3 0.29178 0.0061 0.43766 0.01009 0.0652 3e-3 0.0334 0 0.0954 3e-3 1.9382 0.05055 1.9266 0.72566-0.0116 0.67507-0.0621-3e-3 -0.0305 0-0.0952-3e-3 -0.14469-4e-3 -0.28938-0.0071-0.43409-0.01009-0.21637-4e-3 -0.43273-0.0071-0.64912-0.0061-0.31984 3e-3 -0.63965 0.0071-0.95934 0.01766-0.40833 0.01483-0.81655 0.0338-1.2244 0.06377-0.37088 0.02754-0.74168 0.05812-1.1115 0.10264-0.10079 0.01211-0.35277 0.04994-0.35594 0.04278-0.28077-0.63605-0.33655-0.60245-0.0822-0.68405 0.28444-0.09 0.56408-0.20008 0.83464-0.34181 0.47877-0.24785 0.95009-0.52075 1.3913-0.8601 0.53632-0.42674 1.0573-0.88467 1.5261-1.4209 0.41962-0.48973 0.83302-0.99942 1.1119-1.6308 0.20547-0.52226 0.33877-1.0603 0.2429-1.6453-0.0878-0.49473-0.20958-0.98199-0.49692-1.361-0.30304-0.34707-0.65801-0.54406-1.076-0.57248-0.46948-0.01857-0.92905 0.07265-1.3647 0.29731-0.27817 0.15542-0.58164 0.3299-0.72181 0.6857-0.0636 0.31376-0.0306 0.63292-0.0129 0.95222 0.0134 0.2253 0.0263 0.45092 0.0494 0.67508 0.31872 2.3548-0.22215 2.4657-0.54086 0.11103z" stroke-width=".30131" style="paint-order:markers fill stroke"/>
    <path d="m61.38 42.074c0.21906-0.25142 0.43491-0.50652 0.6503-0.76211 0.40526-0.48037 0.78691-0.98597 1.1618-1.4979 0.34581-0.46753 0.67123-0.95367 0.97998-1.4544 0.16949-0.2806 0.32819-0.57021 0.46285-0.87517 0.12587-0.30868 0.0485-0.38734 0.59542 0.06947 0.0427 0.03569-9e-3 0.12136-0.0151 0.18187-8e-3 0.07643-0.0168 0.15273-0.0254 0.2291-0.0897 0.71484-0.18726 1.4283-0.2733 2.1437-0.10528 0.87971-0.18576 1.7629-0.25604 2.6472-0.0514 0.6575-0.0886 1.3163-0.11399 1.9758-0.0872 2.2632-0.64131 2.2347-0.55409-0.02838 0.0259-0.66957 0.0635-1.3385 0.11576-2.0059 0.071-0.89413 0.15249-1.7872 0.25899-2.6767 0.0858-0.71326 0.18292-1.4245 0.27251-2.1371 8e-3 -0.07003 0.0162-0.14016 0.0234-0.2104 5e-3 -0.04972-0.0295-0.14011 0.013-0.14963 0.67926-0.15186 0.57747-0.0679 0.45233 0.25313-0.14766 0.33234-0.31925 0.64932-0.50489 0.95506-0.31778 0.51509-0.6525 1.0154-1.0083 1.4964-0.38326 0.52323-0.77346 1.04-1.1878 1.531-0.21714 0.25764-0.43473 0.51479-0.65551 0.76825-1.3866 1.6019-1.7788 1.1488-0.39221-0.45311z" stroke-width=".31723" style="paint-order:markers fill stroke"/>
    <path d="m108.93 103.86c-0.0826-0.18811-0.1349-0.39156-0.18123-0.59597-0.0853-0.35265-0.10246-0.71225-0.0786-1.0763 0.035-0.42212 0.17981-0.77598 0.41963-1.0804 0.28186-0.30208 0.64066-0.41306 1.0028-0.48943 0.39483-0.0707 0.77996 0.0107 1.1531 0.16469 0.3412 0.1531 0.61336 0.42551 0.84388 0.75751 0.18989 0.29391 0.29502 0.63774 0.35949 0.99762 0.0464 0.29707 0.0413 0.59915 0.0212 0.89887-0.0155 0.20523-0.0471 0.40791-0.0859 0.60845-0.0121 0.0368-0.0147 0.0771-0.0252 0.11457-4e-3 0.0117 9e-3 -0.0239 7e-3 -0.0361-7e-3 -0.0574-1e-3 -0.12332-0.0308-0.16967-0.0905-0.14553-0.11797-0.14176-0.21195-0.158 0.18887-0.0572 0.37929-0.10635 0.57025-0.15233 0.31224-0.0732 0.62729-0.12685 0.94289-0.17388 0.28241-0.049 0.56569-0.0678 0.84988-0.0373 0.36548 0.0545 0.54262 0.25818 0.68841 0.65404 0.12863 0.49967 0.14103 1.0283 0.13874 1.5474-8e-3 0.60781-0.12049 1.1982-0.2892 1.768-0.17414 0.54599-0.45007 1.0199-0.78163 1.442-0.30726 0.3789-0.69094 0.61989-1.0976 0.80436-0.32662 0.13967-0.66884 0.19581-1.0135 0.21047-0.26791 5e-3 -0.53435-0.0325-0.79917-0.0769-0.23911-0.0301-0.46611-0.11152-0.68368-0.23196-0.20955-0.12068-0.36807-0.30662-0.49212-0.53939-0.0816-0.16851-0.12135-0.35512-0.14551-0.54602-0.27651-2.3099 0.26634-2.404 0.54283-0.0941 0.0108 0.10071 0.0293 0.19995 0.0681 0.29103 0.0624 0.12802 0.14652 0.22364 0.25828 0.29018 0.16738 0.0956 0.34316 0.15391 0.52808 0.17657 0.2336 0.0394 0.46856 0.0739 0.70491 0.0709 0.28531-0.0104 0.56878-0.0555 0.83969-0.16902 0.32961-0.14679 0.6422-0.3362 0.89235-0.64112 0.2813-0.35289 0.51345-0.75195 0.66274-1.21 0.15008-0.49863 0.24783-1.0167 0.25694-1.5493 3e-3 -0.43204-6e-3 -0.87092-0.0974-1.2914-0.0449-0.15697-0.0815-0.23083-0.23254-0.24842-0.24452-0.0294-0.48834-5e-3 -0.73135 0.0352-0.30216 0.0449-0.60381 0.0962-0.90277 0.16611-0.20202 0.0485-0.40258 0.10448-0.60347 0.15906-0.32344 0.0132-0.43386-0.22203-0.34785-0.55482 0.0329-0.16899 0.0599-0.33984 0.0734-0.51283 0.0165-0.23599 0.023-0.47402-0.0112-0.70852-0.0433-0.25611-0.11439-0.50215-0.24603-0.71376-0.16261-0.24219-0.35697-0.44016-0.60121-0.55403-0.28377-0.12166-0.57745-0.18722-0.87943-0.1375-0.24777 0.0503-0.50171 0.11121-0.70473 0.30163-0.15897 0.18198-0.23841 0.41057-0.26429 0.67299-0.0218 0.28751-6e-3 0.56992 0.0615 0.84859 0.0344 0.15467 0.0726 0.30904 0.13329 0.45228 0.92851 2.0488 0.44704 2.3649-0.48147 0.31606z" stroke-width=".3" style="paint-order:markers fill stroke"/>
   </g>
  </g>
  <path d="m100.14 118.62 0.42399-0.4628 3.18-3.4711c0.42977-0.46318 0.84847-0.93649 1.2841-1.3943 1.6164-1.4102 0.77275-1.9592-0.5977-0.54802-0.43551 0.45807-0.85452 0.93126-1.2844 1.3945l-1.7261 1.8841-1.8779 2.0497c-0.29484 0.32183 0.30312 0.86966 0.59796 0.54783z" enable-background="new" fill="#00000f" stroke-width="0" style="paint-order:markers fill stroke"/>
  <path d="m106.85 114.72c0.0111-0.13854 1e-3 -0.27623-4e-3 -0.41354-0.0138-0.28706-0.029-0.57396-0.0473-0.86041-0.0215-0.317-0.0303-0.63568-0.0378-0.95438-5e-3 -0.27855 6.9e-4 -0.558 2e-3 -0.83703 1.3e-4 -0.19193 4e-3 -0.38584-0.0371-0.57093-0.0264-0.11004-0.0881-0.18529-0.17863-0.24435-0.13224-0.0752-0.28524-0.1034-0.43705-0.12598-0.21073-0.0252-0.42558-0.02-0.63988-9e-3 -0.25009 0.0143-0.50023 0.0428-0.75009 0.0741-0.24877 0.033-0.49699 0.0732-0.74469 0.11964-0.2277 0.0417-0.45531 0.0843-0.68278 0.1281-0.19938 0.0396-0.39881 0.079-0.59782 0.12163-0.117 0.0257-0.0592 0.0129-0.17354 0.0386-2.1461 0.48179-2.2326-0.12048-0.0865-0.60227v0c0.11831-0.0266 0.0583-0.0133 0.1797-0.0399 0.20329-0.0435 0.40699-0.0838 0.61064-0.12424 0.22854-0.044 0.45722-0.0868 0.68598-0.12872 0.26019-0.0487 0.52094-0.091 0.78226-0.12551 0.2653-0.0332 0.53092-0.0632 0.79647-0.0781 0.25459-0.0124 0.50978-0.0171 0.75966 0.0153 0.24056 0.0375 0.47857 0.0923 0.6804 0.22471 0.19773 0.14833 0.34135 0.33388 0.39689 0.58578 0.0442 0.22658 0.0541 0.45903 0.0492 0.69365-9.4e-4 0.27349-7e-3 0.54736-2e-3 0.82037 7e-3 0.31053 0.0158 0.62104 0.0368 0.92989 0.0186 0.29177 0.0342 0.58397 0.0481 0.87636 6e-3 0.17082 0.0176 0.34228-6.6e-4 0.51475-0.27372 2.1809-0.88195 2.1528-0.60822-0.0281z" enable-background="new" fill="#00000f" stroke="#00000f" stroke-linecap="square" stroke-width=".18912" style="paint-order:markers fill stroke"/>
  <path d="m20.164 19.223c-0.1555-0.21325-0.33794-0.39794-0.51373-0.58811-0.37159-0.39357-0.74488-0.78506-1.1217-1.1719-0.4187-0.42641-0.82247-0.87195-1.2245-1.3191-0.34947-0.39276-0.68534-0.80119-1.0272-1.2027-0.23589-0.27541-0.46972-0.55808-0.75196-0.77015-0.1708-0.12319-0.34616-0.14989-0.54031-0.11583-0.26997 0.0662-0.5101 0.22652-0.74166 0.39359-0.31389 0.24077-0.59593 0.53053-0.87041 0.82748-0.31818 0.34912-0.61895 0.71867-0.91582 1.0919-0.2934 0.37418-0.57719 0.75806-0.85261 1.1501-0.25443 0.35897-0.50757 0.71913-0.759 1.0809-0.21891 0.31884-0.43824 0.63735-0.65297 0.95999-0.12547 0.19066-0.0635 0.0962-0.18554 0.28335-2.2885 3.5109-3.1453 2.7607-0.85682-0.75021v0c0.12613-0.19352 0.062-0.0957 0.19214-0.29337 0.2194-0.32952 0.44334-0.65494 0.66697-0.98058 0.25267-0.36342 0.50698-0.72531 0.7626-1.086 0.28937-0.4117 0.58741-0.81498 0.89575-1.2079 0.31531-0.39626 0.63495-0.78833 0.97313-1.1586 0.32651-0.35228 0.66334-0.69434 1.0387-0.97621 0.36911-0.26221 0.75591-0.4965 1.1898-0.57174 0.44787-0.0471 0.8689 0.0303 1.2532 0.31864 0.33798 0.26694 0.63717 0.58728 0.9191 0.93029 0.33508 0.39348 0.66432 0.79372 1.0065 1.179 0.39175 0.43573 0.78502 0.86998 1.193 1.2854 0.38382 0.39405 0.76407 0.79266 1.1424 1.1937 0.21868 0.23654 0.44451 0.4678 0.63216 0.73913 2.3148 3.4877 1.4636 4.2465-0.85113 0.7588z" enable-background="new" fill="#ffa669" stroke="#ff9243" stroke-linecap="square" stroke-width=".3559" style="paint-order:markers fill stroke"/>
 </g>
</svg>
