<?xml version="1.0" encoding="UTF-8" standalone="no"?>
<!-- Created with Inkscape (http://www.inkscape.org/) -->

<svg
   xmlns:dc="http://purl.org/dc/elements/1.1/"
   xmlns:cc="http://creativecommons.org/ns#"
   xmlns:rdf="http://www.w3.org/1999/02/22-rdf-syntax-ns#"
   xmlns:svg="http://www.w3.org/2000/svg"
   xmlns="http://www.w3.org/2000/svg"
   xmlns:sodipodi="http://sodipodi.sourceforge.net/DTD/sodipodi-0.dtd"
   xmlns:inkscape="http://www.inkscape.org/namespaces/inkscape"
   width="150.39999mm"
   height="150.39999mm"
   viewBox="0 0 150.39999 150.39999"
   version="1.1"
   id="svg1958"
   inkscape:version="0.92.3 (2405546, 2018-03-11)"
   sodipodi:docname="specialistGenaralist.svg">
  <defs
     id="defs1952">
    <inkscape:path-effect
       effect="simplify"
       id="path-effect829"
       is_visible="true"
       steps="1"
       threshold="0.0205479"
       smooth_angles="360"
       helper_size="0"
       simplify_individual_paths="false"
       simplify_just_coalesce="false"
       simplifyindividualpaths="false"
       simplifyJustCoalesce="false" />
    <inkscape:path-effect
       effect="spiro"
       id="path-effect831"
       is_visible="true" />
    <inkscape:path-effect
       effect="simplify"
       id="path-effect835"
       is_visible="true"
       steps="1"
       threshold="0.0161538"
       smooth_angles="360"
       helper_size="0"
       simplify_individual_paths="false"
       simplify_just_coalesce="false"
       simplifyindividualpaths="false"
       simplifyJustCoalesce="false" />
    <inkscape:path-effect
       effect="spiro"
       id="path-effect837"
       is_visible="true" />
  </defs>
  <sodipodi:namedview
     id="base"
     pagecolor="#ffffff"
     bordercolor="#666666"
     borderopacity="1.0"
     inkscape:pageopacity="0.0"
     inkscape:pageshadow="2"
     inkscape:zoom="0.84145707"
     inkscape:cx="172.57313"
     inkscape:cy="312.11244"
     inkscape:document-units="mm"
     inkscape:current-layer="layer1"
     showgrid="false"
     inkscape:window-width="1366"
     inkscape:window-height="719"
     inkscape:window-x="0"
     inkscape:window-y="25"
     inkscape:window-maximized="1" />
  <metadata
     id="metadata1955">
    <rdf:RDF>
      <cc:Work
         rdf:about="">
        <dc:format>image/svg+xml</dc:format>
        <dc:type
           rdf:resource="http://purl.org/dc/dcmitype/StillImage" />
        <dc:title />
      </cc:Work>
    </rdf:RDF>
  </metadata>
  <g
     inkscape:label="Layer 1"
     inkscape:groupmode="layer"
     id="layer1"
     transform="translate(0.13973115,0.16220285)">
    <path
       style="opacity:1;fill:#00887a;fill-opacity:1;stroke:#161616;stroke-width:1.01317835;stroke-linecap:butt;stroke-linejoin:miter;stroke-miterlimit:4;stroke-dasharray:none;stroke-opacity:1"
       d="m 18.358792,119.45799 c 5.539578,-3.92792 9.607278,-9.88323 11.251077,-16.47212 2.194275,-8.795378 0.147868,-18.202519 2.144304,-27.044904 1.858942,-8.233412 7.310664,-15.54412 14.554203,-19.877234 5.316395,-3.180289 11.542554,-4.793537 17.736765,-4.693288 6.194211,0.100249 12.340054,1.902207 17.658993,5.07824 5.946195,3.550579 10.925943,8.941929 13.251329,15.465458 2.246195,6.301372 1.931676,13.179602 1.813654,19.868305 -0.118021,6.688703 0.05515,13.664123 3.124623,19.608113 1.73231,3.3546 4.354,6.24481 7.52432,8.29501"
       id="path833"
       inkscape:connector-curvature="0"
       inkscape:path-effect="#path-effect835;#path-effect837"
       inkscape:original-d="m 18.358792,119.45799 c 6.686179,-0.49673 8.096475,-1.60122 11.314811,-7.43678 0,0 -0.643545,-27.533796 2.00914,-33.667787 0.11574,-26.692384 21.350569,-22.311 21.350569,-22.311 l 25.469214,0.314435 c 18.810286,0.245251 8.91145,4.356899 15.829014,14.514317 7.26761,10.671404 -5.601082,36.144985 13.08652,48.814395"
       sodipodi:nodetypes="cscccsc" />
    <path
       style="opacity:0.89899998;fill:#f61c2d;fill-opacity:1;stroke:#000000;stroke-width:1.15799999;stroke-linecap:butt;stroke-linejoin:miter;stroke-miterlimit:4;stroke-dasharray:none;stroke-opacity:1"
       d="m 93.852196,119.05647 c 4.175609,-11.37544 6.043482,-23.592514 5.457566,-35.695947 -0.31708,-6.550012 -1.31397,-13.326588 0.865488,-19.511503 1.08973,-3.092458 3.01377,-5.959717 5.74626,-7.771986 1.36624,-0.906134 2.92129,-1.537664 4.54249,-1.781409 1.6212,-0.243745 3.30743,-0.09405 4.84024,0.487504 1.54531,0.586295 2.91247,1.601128 3.99921,2.84641 1.08673,1.245282 1.89907,2.716416 2.47155,4.2669 1.14494,3.100967 1.33309,6.466302 1.35476,9.771818 0.0828,12.6253 -2.06349,25.497105 1.05748,37.730853 0.94343,3.69812 2.3608,7.27506 4.20647,10.61567"
       id="path827"
       inkscape:connector-curvature="0"
       inkscape:path-effect="#path-effect829;#path-effect831"
       inkscape:original-d="m 93.852196,119.05647 c 0.39494,-0.0504 2.026501,-14.83782 2.026501,-14.83782 -0.400003,-26.198338 18.699333,-48.953505 18.699333,-48.953505 7.79693,-6.963309 14.07058,45.433825 9.18345,55.168465 -2.85234,5.68155 2.47945,7.03663 4.63223,9.58117"
       sodipodi:nodetypes="cccsc" />
    <path
       style="opacity:1;fill:#ffa669;fill-opacity:1;stroke:#ff9243;stroke-width:0.52578604;stroke-linecap:square;stroke-miterlimit:4;stroke-dasharray:none;stroke-dashoffset:0;stroke-opacity:1;paint-order:markers fill stroke;enable-background:new"
       id="path1801"
       d="m 18.358792,119.45799 h 6.675995 18.69505 25.724069 24.266388 19.177186 13.08205 c 18.21953,0.32993 18.15704,1.97421 0,1.97421 H 112.89748 93.720294 69.453906 43.729837 25.034787 18.358792 c -5.223594,0 -5.223594,-1.97421 0,-1.97421 z"
       inkscape:connector-curvature="0"
       sodipodi:nodetypes="sccccccccccccss" />
    <path
       style="opacity:1;fill:#ffa669;fill-opacity:1;stroke:#ff9243;stroke-width:0.5026015;stroke-linecap:square;stroke-miterlimit:4;stroke-dasharray:none;stroke-dashoffset:0;stroke-opacity:1;paint-order:markers fill stroke;enable-background:new"
       id="path1803"
       d="M 14.293187,117.36667 V 110.22505 85.736386 56.661744 c -0.0093,-7.189125 0.01631,-14.378309 -0.01051,-21.567426 -0.559686,-24.254682 1.76336,-22.376477 1.897268,-0.0036 0.02749,7.190451 0.0023,14.380938 0.01051,21.571388 v 29.074652 24.488672 7.14159 c 0,4.96629 -1.897415,4.96629 -1.897415,0 z"
       inkscape:connector-curvature="0"
       sodipodi:nodetypes="cccccccccscc" />
    <path
       style="opacity:1;fill:#ffa669;fill-opacity:1;stroke:#ff9243;stroke-width:0.35590073;stroke-linecap:square;stroke-miterlimit:4;stroke-dasharray:none;stroke-dashoffset:0;stroke-opacity:1;paint-order:markers fill stroke;enable-background:new"
       id="path1838-5-93-6"
       d="m 139.18367,125.723 c 0.21325,-0.1555 0.39794,-0.33794 0.58811,-0.51373 0.39357,-0.37159 0.78506,-0.74488 1.17187,-1.12173 0.42641,-0.4187 0.87195,-0.82247 1.31913,-1.22454 0.39276,-0.34947 0.80119,-0.68534 1.20267,-1.02723 0.27541,-0.23589 0.55808,-0.46972 0.77015,-0.75196 0.12319,-0.1708 0.14989,-0.34616 0.11583,-0.54031 -0.0662,-0.26997 -0.22652,-0.5101 -0.39359,-0.74166 -0.24077,-0.31389 -0.53053,-0.59593 -0.82748,-0.87041 -0.34912,-0.31818 -0.71867,-0.61895 -1.0919,-0.91582 -0.37418,-0.2934 -0.75806,-0.57719 -1.1501,-0.85261 -0.35897,-0.25443 -0.71913,-0.50757 -1.0809,-0.759 -0.31884,-0.21891 -0.63735,-0.43824 -0.95999,-0.65297 -0.19066,-0.12547 -0.0962,-0.0635 -0.28335,-0.18554 -3.51093,-2.28848 -2.76073,-3.14532 0.75021,-0.85682 v 0 c 0.19352,0.12613 0.0957,0.062 0.29337,0.19214 0.32952,0.2194 0.65494,0.44334 0.98058,0.66697 0.36342,0.25267 0.72531,0.50698 1.08598,0.7626 0.4117,0.28937 0.81498,0.58741 1.20786,0.89575 0.39626,0.31531 0.78833,0.63495 1.15865,0.97313 0.35228,0.32651 0.69434,0.66334 0.97621,1.03866 0.26221,0.36911 0.4965,0.75591 0.57174,1.18975 0.0471,0.44787 -0.0303,0.8689 -0.31864,1.25323 -0.26694,0.33798 -0.58728,0.63717 -0.93029,0.9191 -0.39348,0.33508 -0.79372,0.66432 -1.17899,1.00654 -0.43573,0.39175 -0.86998,0.78502 -1.28542,1.19298 -0.39405,0.38382 -0.79266,0.76407 -1.19371,1.14245 -0.23654,0.21868 -0.4678,0.44451 -0.73913,0.63216 -3.48773,2.3148 -4.24651,1.46364 -0.7588,-0.85113 z"
       inkscape:connector-curvature="0" />
    <g
       aria-label="környezeti tényező mértéke"
       transform="matrix(0.81834542,0,0,1.2219779,2.4434242,1.6068315)"
       style="font-style:normal;font-weight:normal;font-size:5.491642px;line-height:1.25;font-family:sans-serif;letter-spacing:0px;word-spacing:0px;fill:#000000;fill-opacity:1;stroke:#000000;stroke-width:0.24440148;stroke-miterlimit:4;stroke-dasharray:none;stroke-opacity:1"
       id="text2259">
      <path
         d="m 72.537795,105.96167 q -0.137291,-0.011 -0.324007,-0.1318 -0.181224,-0.12631 -0.214174,-0.12631 -0.06041,0 -0.09885,-0.022 -0.03295,-0.022 -0.03844,-0.0439 l -0.01098,-0.022 q -0.07688,-0.0549 -0.713914,-0.25261 l -0.208682,-0.0659 0.03295,0.3295 q 0.02197,0.18671 0.02197,0.26909 0,0.29655 -0.208682,0.29655 -0.230649,0 -0.285566,-0.2636 -0.05492,-0.2636 -0.09336,-1.24111 -0.04393,-0.89514 -0.08237,-1.10382 -0.115325,-0.5931 -0.115325,-1.53766 0,-0.28557 0.197699,-0.28557 0.153766,0 0.219666,0.17024 0.03295,0.0824 0.07688,0.48876 0.04393,0.40638 0.09336,0.90063 0.04942,0.49424 0.08237,0.69194 l 0.02746,0.17574 0.593097,-0.52171 q 0.04393,-0.0384 0.115325,-0.10434 0.07688,-0.0659 0.115324,-0.0988 0.04393,-0.0384 0.104341,-0.0934 0.0659,-0.0549 0.09885,-0.0824 0.03844,-0.0329 0.08787,-0.0714 0.05492,-0.0384 0.08787,-0.0604 0.03295,-0.022 0.0659,-0.0439 0.03844,-0.022 0.0659,-0.0275 0.02746,-0.011 0.04942,-0.011 0.08787,0.011 0.142782,0.0824 0.06041,0.0659 0.06041,0.14278 0,0.0659 -0.03295,0.0988 -0.02746,0.0329 -0.115325,0.10983 -0.08787,0.0714 -0.170241,0.18672 -0.230649,0.32401 -0.983004,0.83473 -0.208682,0.14278 -0.219665,0.21417 0,0.0384 0.0659,0.0659 l 0.664489,0.2636 0.03844,0.022 q 0.04393,0.0165 0.08787,0.0384 0.04942,0.0165 0.120816,0.0494 0.07139,0.0329 0.137291,0.0714 0.07139,0.0329 0.148274,0.0769 0.08237,0.0439 0.148275,0.0879 0.07139,0.0384 0.131799,0.0879 0.0659,0.0494 0.109833,0.0934 0.04942,0.0439 0.07688,0.0934 0.02746,0.0439 0.02746,0.0879 0,0.0824 -0.04942,0.1318 -0.04942,0.0494 -0.131799,0.0494 z"
         style="font-style:normal;font-variant:normal;font-weight:bold;font-stretch:normal;font-size:5.491642px;font-family:Purisa;-inkscape-font-specification:'Purisa, Bold';font-variant-ligatures:normal;font-variant-caps:normal;font-variant-numeric:normal;font-feature-settings:normal;text-align:start;writing-mode:lr-tb;text-anchor:start;stroke:#000000;stroke-width:0.24440148;stroke-miterlimit:4;stroke-dasharray:none;stroke-opacity:1"
         id="path6084"
         inkscape:connector-curvature="0" />
      <path
         d="m 76.207928,101.97473 q -0.07139,0.25811 -0.181224,0.38442 -0.109833,0.12082 -0.230649,0.12082 -0.115325,0 -0.203191,-0.10984 -0.08237,-0.10983 -0.08237,-0.28007 0,-0.14278 0.07139,-0.23065 0.07688,-0.0879 0.197699,-0.0879 0.142782,0 0.428348,0.20319 z m -0.873171,-0.0329 q -0.07688,0.25811 -0.186716,0.38442 -0.109833,0.12631 -0.230649,0.12631 -0.115325,0 -0.197699,-0.10984 -0.08238,-0.10983 -0.08238,-0.28007 0,-0.14278 0.07139,-0.23065 0.07688,-0.0879 0.1977,-0.0879 0.05492,0 0.126307,0.0275 0.07139,0.0275 0.115325,0.0549 0.04393,0.022 0.115324,0.0714 z m -1.411352,1.69692 q 0.461298,-0.3954 0.785304,-0.5217 0.329499,-0.12631 0.823747,-0.12631 0.763338,0 0.955545,0.42835 0.109833,0.24163 0.109833,0.59859 0,0.56563 -0.274582,1.15324 -0.26909,0.58761 -0.686455,0.82375 -0.406382,0.22515 -0.862188,0.22515 -0.66998,0 -1.021445,-0.39539 -0.247124,-0.27459 -0.324007,-0.46679 -0.07139,-0.1977 -0.07139,-0.54368 0,-0.68645 0.565639,-1.17521 z m 0.993987,2.12527 q 0.450315,0 0.829238,-0.57113 0.384415,-0.57663 0.384415,-1.30701 0,-0.0769 -0.01647,-0.12082 -0.01098,-0.0439 -0.02746,-0.0604 -0.01647,-0.022 -0.06041,-0.0549 -0.1977,-0.14279 -0.417365,-0.14279 -0.03295,0 -0.09336,0.011 -0.05492,0.005 -0.170241,0.022 -0.109833,0.011 -0.241632,0.022 -0.186716,0.022 -0.296549,0.0769 -0.109833,0.0494 -0.285565,0.19221 -0.329499,0.28007 -0.472282,0.51621 -0.137291,0.23065 -0.137291,0.50524 0,0.40088 0.280074,0.65899 0.280074,0.25262 0.724897,0.25262 z"
         style="font-style:normal;font-variant:normal;font-weight:bold;font-stretch:normal;font-size:5.491642px;font-family:Purisa;-inkscape-font-specification:'Purisa, Bold';font-variant-ligatures:normal;font-variant-caps:normal;font-variant-numeric:normal;font-feature-settings:normal;text-align:start;writing-mode:lr-tb;text-anchor:start;stroke:#000000;stroke-width:0.24440148;stroke-miterlimit:4;stroke-dasharray:none;stroke-opacity:1"
         id="path6086"
         inkscape:connector-curvature="0" />
      <path
         d="m 79.399258,103.43551 q 0.104341,0 0.181224,0.0494 0.07688,0.0439 0.09885,0.0879 0.02746,0.0439 0.02746,0.0769 0,0.10983 -0.252615,0.20319 -0.334991,0.1263 -0.730389,0.62055 -0.389906,0.49425 -0.472281,0.92809 -0.104341,0.55466 -0.175733,0.73588 -0.07139,0.18672 -0.208682,0.18672 -0.05492,0 -0.09885,-0.0165 -0.03844,-0.011 -0.0659,-0.0494 -0.02746,-0.0384 -0.04393,-0.0659 -0.01647,-0.0275 -0.03295,-0.0879 -0.01098,-0.0659 -0.01647,-0.0934 0,-0.0329 -0.01098,-0.10434 -0.0055,-0.0769 -0.0055,-0.0934 -0.131799,-1.28504 -0.131799,-2.15821 0,-0.18123 0.02197,-0.28008 0.02197,-0.10434 0.109833,-0.18122 0.05492,-0.0494 0.120816,-0.0494 0.07139,0 0.120816,0.0604 0.04942,0.0549 0.04942,0.14828 0,0.20319 0.05492,0.57662 0.06041,0.36794 0.109833,0.57662 0.04393,-0.0604 0.126308,-0.18671 0.208682,-0.34049 0.582114,-0.60958 0.373432,-0.27458 0.642522,-0.27458 z"
         style="font-style:normal;font-variant:normal;font-weight:bold;font-stretch:normal;font-size:5.491642px;font-family:Purisa;-inkscape-font-specification:'Purisa, Bold';font-variant-ligatures:normal;font-variant-caps:normal;font-variant-numeric:normal;font-feature-settings:normal;text-align:start;writing-mode:lr-tb;text-anchor:start;stroke:#000000;stroke-width:0.24440148;stroke-miterlimit:4;stroke-dasharray:none;stroke-opacity:1"
         id="path6088"
         inkscape:connector-curvature="0" />
      <path
         d="m 80.778347,103.2433 q 0,-0.28556 0.181224,-0.28556 0.120816,0.005 0.159258,0.14827 0.03844,0.14279 0.109833,0.80178 0.0055,0.0494 0.0055,0.0769 0.0055,0.0275 0.01098,0.0714 0.0055,0.0439 0.01098,0.0824 l 0.07688,0.62605 0.06041,-0.18123 q 0.115324,-0.35695 0.197699,-0.5217 0.08787,-0.16475 0.318515,-0.46679 0.444823,-0.58761 0.752355,-0.58761 0.203191,0 0.351465,0.22516 0.175733,0.24712 0.214174,0.49425 0.04393,0.24712 0.06041,1.13128 0.01098,0.56014 0.01098,0.68096 0,0.36245 -0.04942,0.49425 -0.04942,0.12631 -0.203191,0.12631 -0.104341,0 -0.137291,-0.0549 -0.03295,-0.0604 -0.03295,-0.23614 0,-0.0824 0.01098,-0.34048 0.01098,-0.25811 0.01098,-0.42835 0,-0.46679 -0.03844,-0.87317 -0.03844,-0.40638 -0.08787,-0.51072 -0.02197,-0.0439 -0.05492,-0.0824 -0.03295,-0.0439 -0.06041,-0.0659 -0.02197,-0.022 -0.03295,-0.022 -0.08787,0 -0.362449,0.36794 -0.26909,0.36794 -0.455806,0.75236 -0.192207,0.40638 -0.258107,0.5931 -0.06041,0.18671 -0.09885,0.50523 -0.06041,0.51072 -0.09885,0.56564 -0.02746,0.0329 -0.06041,0.0329 -0.08237,-0.011 -0.175733,-0.11533 -0.04942,-0.0549 -0.07688,-0.13729 -0.02197,-0.0879 -0.03844,-0.2636 -0.01647,-0.18122 -0.02746,-0.38441 -0.01098,-0.20869 -0.04393,-0.59859 -0.03295,-0.3954 -0.08237,-0.81826 -0.0659,-0.65899 -0.0659,-0.80178 z"
         style="font-style:normal;font-variant:normal;font-weight:bold;font-stretch:normal;font-size:5.491642px;font-family:Purisa;-inkscape-font-specification:'Purisa, Bold';font-variant-ligatures:normal;font-variant-caps:normal;font-variant-numeric:normal;font-feature-settings:normal;text-align:start;writing-mode:lr-tb;text-anchor:start;stroke:#000000;stroke-width:0.24440148;stroke-miterlimit:4;stroke-dasharray:none;stroke-opacity:1"
         id="path6090"
         inkscape:connector-curvature="0" />
      <path
         d="m 84.451568,103.34765 q 0.126308,0 0.159258,0.0988 0.03844,0.0988 0.03844,0.29106 0,0.24163 -0.0055,0.49425 -0.0055,0.25262 -0.0055,0.42286 0,0.7194 0.126308,0.7194 0.07688,0 0.324007,-0.23614 0.247124,-0.23614 0.356957,-0.4613 0.115324,-0.23065 0.192207,-0.53269 0.08237,-0.30204 0.115324,-0.49424 0.03844,-0.19221 0.115325,-0.3295 0.08237,-0.14279 0.214174,-0.14279 0.09336,0 0.159258,0.0659 0.07139,0.0659 0.07139,0.17024 0,0.0934 -0.126308,0.56015 -0.120816,0.4613 -0.120816,0.97202 0,0.17024 0.01647,0.31303 l 0.01647,0.0604 0.09885,-0.0439 q 0.1318,-0.0659 0.241633,-0.0659 0.09885,0 0.153766,0.0494 0.06041,0.0439 0.06041,0.11532 0,0.17024 -0.269091,0.30753 l -0.186716,0.0879 0.02746,0.54916 q -0.03295,0.99948 -0.08237,1.06538 -0.0659,0.0988 -0.203191,0.0988 -0.131799,0 -0.411873,-0.10434 -0.159257,-0.0659 -0.252615,-0.14278 -0.08787,-0.0769 -0.170241,-0.23065 -0.175733,-0.3295 -0.175733,-0.5931 0,-0.0879 0.02197,-0.14278 0.02746,-0.0494 0.09885,-0.14278 0.07688,-0.0879 0.1318,-0.17024 0.0659,-0.0988 0.197699,-0.15926 0.131799,-0.0659 0.142782,-0.0769 0.02746,-0.022 0.142783,-0.0934 0,-0.17024 -0.06041,-0.30204 -0.01647,0.0165 -0.126308,0.1263 -0.109832,0.10435 -0.197699,0.18123 -0.08787,0.0714 -0.241632,0.14278 -0.148274,0.0714 -0.291057,0.0714 -0.285565,0 -0.450315,-0.29655 -0.07688,-0.13729 -0.09885,-0.30204 -0.02197,-0.16475 -0.02197,-0.62055 0,-0.69195 0.04393,-0.98301 0.04942,-0.29654 0.230649,-0.29654 z m 1.312503,3.64095 q 0.02746,-0.0604 0.02746,-0.1922 0,-0.10434 -0.02197,-0.24713 -0.01647,-0.13729 -0.03844,-0.23614 -0.02197,-0.0934 -0.02197,-0.0988 l -0.01098,-0.12631 -0.04942,0.0659 q -0.214174,0.29655 -0.214174,0.48876 0,0.0714 0.1318,0.19221 0.131799,0.12631 0.197699,0.15376 z"
         style="font-style:normal;font-variant:normal;font-weight:bold;font-stretch:normal;font-size:5.491642px;font-family:Purisa;-inkscape-font-specification:'Purisa, Bold';font-variant-ligatures:normal;font-variant-caps:normal;font-variant-numeric:normal;font-feature-settings:normal;text-align:start;writing-mode:lr-tb;text-anchor:start;stroke:#000000;stroke-width:0.24440148;stroke-miterlimit:4;stroke-dasharray:none;stroke-opacity:1"
         id="path6092"
         inkscape:connector-curvature="0" />
      <path
         d="m 89.575957,103.92427 q 0,-0.0439 -0.241632,-0.22516 -0.175732,-0.1318 -0.252615,-0.16475 -0.07139,-0.0329 -0.208683,-0.0329 -0.274582,0 -0.406381,0.0439 -0.126308,0.0384 -0.269091,0.17574 -0.422856,0.41187 -0.428348,0.53269 0.02197,0.005 0.09336,0.005 0.532689,0 1.477252,-0.18672 0.23614,-0.0439 0.23614,-0.14827 z m 0.708422,0.86768 q 0.09885,0 0.09885,0.11532 0,0.12631 -0.159258,0.36245 -0.159257,0.23065 -0.318515,0.37343 -0.615064,0.5272 -1.268569,0.5272 -0.538181,0 -0.972021,-0.42286 -0.43384,-0.42285 -0.43384,-1.16423 0,-0.20868 0.06041,-0.40089 0.115325,-0.34048 0.516215,-0.70842 0.40089,-0.37343 0.76883,-0.37343 0.09885,0 0.291057,0.0165 0.296548,0.022 0.417364,0.0604 0.126308,0.0329 0.285566,0.1373 0.175732,0.11532 0.318515,0.32949 0.142783,0.20869 0.142783,0.36794 0,0.20869 -0.170241,0.30754 -0.170241,0.0988 -0.576623,0.18122 -0.532689,0.10434 -1.098328,0.13729 l -0.477773,0.022 v 0.14278 q 0,0.20319 0.08787,0.35696 0.09336,0.15376 0.296549,0.324 0.291057,0.24164 0.593097,0.24164 0.241633,0 0.510723,-0.14279 0.269091,-0.14827 0.455806,-0.324 0.192208,-0.17574 0.36794,-0.31852 0.181225,-0.14827 0.263599,-0.14827 z"
         style="font-style:normal;font-variant:normal;font-weight:bold;font-stretch:normal;font-size:5.491642px;font-family:Purisa;-inkscape-font-specification:'Purisa, Bold';font-variant-ligatures:normal;font-variant-caps:normal;font-variant-numeric:normal;font-feature-settings:normal;text-align:start;writing-mode:lr-tb;text-anchor:start;stroke:#000000;stroke-width:0.24440148;stroke-miterlimit:4;stroke-dasharray:none;stroke-opacity:1"
         id="path6094"
         inkscape:connector-curvature="0" />
      <path
         d="m 91.717268,106.14289 q -0.258107,0 -0.258107,-0.15926 0,-0.12081 0.197699,-0.47228 0.203191,-0.35695 0.313024,-0.47228 0.0659,-0.0659 0.104341,-0.10983 -0.02746,-0.005 -0.115325,-0.005 -0.08237,-0.005 -0.137291,-0.011 -0.04942,-0.005 -0.109833,-0.022 -0.06041,-0.0165 -0.09336,-0.0439 -0.03295,-0.0329 -0.03295,-0.0824 0,-0.23065 0.593097,-0.23065 0.203191,0 0.258107,-0.0165 0.06041,-0.0165 0.115325,-0.0824 0.153766,-0.18672 0.241632,-0.40089 0.09336,-0.21967 0.09336,-0.35146 0,-0.0439 -0.0055,-0.0604 -0.02197,-0.005 -0.08237,-0.005 -0.26909,0 -0.790796,0.14278 -0.521706,0.13729 -0.615064,0.23614 -0.07688,0.0988 -0.225157,0.0988 -0.09885,0 -0.175733,-0.0439 -0.07688,-0.0494 -0.07688,-0.12631 0,-0.0549 0.03844,-0.0989 0.120816,-0.17024 0.680963,-0.36245 0.560148,-0.19221 0.83473,-0.25262 0.09336,-0.0165 0.197699,-0.0165 0.411873,0 0.565639,0.15926 0.08787,0.0934 0.08787,0.30204 0,0.30204 -0.164749,0.63154 l -0.08237,0.15925 0.104341,0.011 q 0.318515,0.0329 0.318515,0.14278 0,0.0714 -0.137291,0.14278 -0.131799,0.0659 -0.340482,0.0879 -0.153766,0.0165 -0.23614,0.0549 -0.08237,0.0384 -0.225158,0.16475 -0.120816,0.10984 -0.274582,0.30204 -0.148274,0.19221 -0.208682,0.30754 0.999479,-0.17024 1.279552,-0.17024 0.384415,0 0.384415,0.17024 0,0.10434 -0.137291,0.16475 -0.137291,0.0604 -0.472281,0.11532 -1.147753,0.20319 -1.411352,0.20319 z"
         style="font-style:normal;font-variant:normal;font-weight:bold;font-stretch:normal;font-size:5.491642px;font-family:Purisa;-inkscape-font-specification:'Purisa, Bold';font-variant-ligatures:normal;font-variant-caps:normal;font-variant-numeric:normal;font-feature-settings:normal;text-align:start;writing-mode:lr-tb;text-anchor:start;stroke:#000000;stroke-width:0.24440148;stroke-miterlimit:4;stroke-dasharray:none;stroke-opacity:1"
         id="path6096"
         inkscape:connector-curvature="0" />
      <path
         d="m 96.579946,103.92427 q 0,-0.0439 -0.241633,-0.22516 -0.175732,-0.1318 -0.252615,-0.16475 -0.07139,-0.0329 -0.208683,-0.0329 -0.274582,0 -0.406381,0.0439 -0.126308,0.0384 -0.26909,0.17574 -0.422857,0.41187 -0.428349,0.53269 0.02197,0.005 0.09336,0.005 0.53269,0 1.477252,-0.18672 0.236141,-0.0439 0.236141,-0.14827 z m 0.708421,0.86768 q 0.09885,0 0.09885,0.11532 0,0.12631 -0.159258,0.36245 -0.159257,0.23065 -0.318515,0.37343 -0.615064,0.5272 -1.268569,0.5272 -0.538181,0 -0.972021,-0.42286 -0.433839,-0.42285 -0.433839,-1.16423 0,-0.20868 0.06041,-0.40089 0.115324,-0.34048 0.516214,-0.70842 0.40089,-0.37343 0.76883,-0.37343 0.09885,0 0.291057,0.0165 0.296549,0.022 0.417365,0.0604 0.126307,0.0329 0.285565,0.1373 0.175733,0.11532 0.318515,0.32949 0.142783,0.20869 0.142783,0.36794 0,0.20869 -0.170241,0.30754 -0.170241,0.0988 -0.576622,0.18122 -0.53269,0.10434 -1.098329,0.13729 l -0.477773,0.022 v 0.14278 q 0,0.20319 0.08787,0.35696 0.09336,0.15376 0.296548,0.324 0.291057,0.24164 0.593098,0.24164 0.241632,0 0.510722,-0.14279 0.269091,-0.14827 0.455807,-0.324 0.192207,-0.17574 0.36794,-0.31852 0.181224,-0.14827 0.263598,-0.14827 z"
         style="font-style:normal;font-variant:normal;font-weight:bold;font-stretch:normal;font-size:5.491642px;font-family:Purisa;-inkscape-font-specification:'Purisa, Bold';font-variant-ligatures:normal;font-variant-caps:normal;font-variant-numeric:normal;font-feature-settings:normal;text-align:start;writing-mode:lr-tb;text-anchor:start;stroke:#000000;stroke-width:0.24440148;stroke-miterlimit:4;stroke-dasharray:none;stroke-opacity:1"
         id="path6098"
         inkscape:connector-curvature="0" />
      <path
         d="m 99.017805,103.1115 q -0.175733,0.011 -0.483265,0.0659 -0.30204,0.0494 -0.406381,0.0494 -0.236141,0 -0.236141,-0.18672 0,-0.14827 0.208683,-0.22515 0.208682,-0.0769 0.494247,-0.12082 0.291058,-0.0439 0.373432,-0.0879 0.04393,-0.0439 0.04393,-0.23614 0,-0.1977 -0.04942,-0.51621 -0.04942,-0.31852 -0.04942,-0.57662 0,-0.17574 0.09336,-0.25811 0.09336,-0.0879 0.20319,-0.0879 0.120817,0 0.170241,0.0988 0.02746,0.0824 0.09336,0.71941 0.0659,0.63154 0.08237,0.73039 0.04393,-0.005 0.291057,-0.0439 0.252622,-0.0439 0.384422,-0.0439 0.18671,0 0.26359,0.0604 0.0769,0.0604 0.0769,0.1318 0,0.10434 -0.14278,0.17573 -0.14279,0.0714 -0.516212,0.16475 l -0.313024,0.0494 0.04393,0.83473 q 0.04393,0.77432 0.153766,1.4498 0.109833,0.67547 0.109833,0.77981 0,0.24163 -0.252616,0.24163 -0.148274,0 -0.219665,-0.0549 -0.16475,-0.14828 -0.16475,-0.62056 0,-0.19221 -0.02197,-0.38991 -0.02197,-0.20319 -0.07688,-0.62604 -0.04942,-0.42835 -0.09336,-0.88416 -0.05492,-0.57113 -0.06041,-0.5931 z"
         style="font-style:normal;font-variant:normal;font-weight:bold;font-stretch:normal;font-size:5.491642px;font-family:Purisa;-inkscape-font-specification:'Purisa, Bold';font-variant-ligatures:normal;font-variant-caps:normal;font-variant-numeric:normal;font-feature-settings:normal;text-align:start;writing-mode:lr-tb;text-anchor:start;stroke:#000000;stroke-width:0.24440148;stroke-miterlimit:4;stroke-dasharray:none;stroke-opacity:1"
         id="path6100"
         inkscape:connector-curvature="0" />
      <path
         d="m 101.56953,102.9852 q 0.0934,-0.0659 0.18123,-0.0659 0.0879,0 0.14827,0.0714 0.0879,0.16475 0.14278,0.95554 0.0604,0.7908 0.0604,1.47726 0,0.49424 -0.0329,0.56014 -0.10983,0.0879 -0.23614,0.0879 -0.19221,0 -0.23614,-0.11532 -0.0275,-0.0879 -0.0879,-1.14227 -0.0549,-1.05988 -0.0549,-1.41684 0,-0.33499 0.11532,-0.41187 z m -0.0604,-1.28505 q 0.011,-0.10434 0.0879,-0.17024 0.0824,-0.0659 0.15926,-0.0659 0.0769,0 0.1977,0.0714 0.12081,0.0714 0.12081,0.19221 0,0.1318 -0.0659,0.23614 -0.0659,0.10434 -0.17573,0.10434 -0.11532,0 -0.21966,-0.10434 -0.10435,-0.10983 -0.10435,-0.2636 z"
         style="font-style:normal;font-variant:normal;font-weight:bold;font-stretch:normal;font-size:5.491642px;font-family:Purisa;-inkscape-font-specification:'Purisa, Bold';font-variant-ligatures:normal;font-variant-caps:normal;font-variant-numeric:normal;font-feature-settings:normal;text-align:start;writing-mode:lr-tb;text-anchor:start;stroke:#000000;stroke-width:0.24440148;stroke-miterlimit:4;stroke-dasharray:none;stroke-opacity:1"
         id="path6102"
         inkscape:connector-curvature="0" />
      <path
         d="m 107.51269,103.1115 q -0.17573,0.011 -0.48327,0.0659 -0.30204,0.0494 -0.40638,0.0494 -0.23614,0 -0.23614,-0.18672 0,-0.14827 0.20869,-0.22515 0.20868,-0.0769 0.49424,-0.12082 0.29106,-0.0439 0.37343,-0.0879 0.0439,-0.0439 0.0439,-0.23614 0,-0.1977 -0.0494,-0.51621 -0.0494,-0.31852 -0.0494,-0.57662 0,-0.17574 0.0934,-0.25811 0.0934,-0.0879 0.20319,-0.0879 0.12081,0 0.17024,0.0988 0.0275,0.0824 0.0934,0.71941 0.0659,0.63154 0.0824,0.73039 0.0439,-0.005 0.29106,-0.0439 0.25261,-0.0439 0.38441,-0.0439 0.18672,0 0.2636,0.0604 0.0769,0.0604 0.0769,0.1318 0,0.10434 -0.14278,0.17573 -0.14278,0.0714 -0.51621,0.16475 l -0.31303,0.0494 0.0439,0.83473 q 0.0439,0.77432 0.15376,1.4498 0.10984,0.67547 0.10984,0.77981 0,0.24163 -0.25262,0.24163 -0.14827,0 -0.21967,-0.0549 -0.16475,-0.14828 -0.16475,-0.62056 0,-0.19221 -0.022,-0.38991 -0.022,-0.20319 -0.0769,-0.62604 -0.0494,-0.42835 -0.0934,-0.88416 -0.0549,-0.57113 -0.0604,-0.5931 z"
         style="font-style:normal;font-variant:normal;font-weight:bold;font-stretch:normal;font-size:5.491642px;font-family:Purisa;-inkscape-font-specification:'Purisa, Bold';font-variant-ligatures:normal;font-variant-caps:normal;font-variant-numeric:normal;font-feature-settings:normal;text-align:start;writing-mode:lr-tb;text-anchor:start;stroke:#000000;stroke-width:0.24440148;stroke-miterlimit:4;stroke-dasharray:none;stroke-opacity:1"
         id="path6104"
         inkscape:connector-curvature="0" />
      <path
         d="m 111.53618,101.91433 q 0.0549,0 0.13729,0.0604 0.0879,0.0604 0.0879,0.14279 0,0.10434 -0.35695,0.43933 -0.35696,0.3295 -0.49974,0.3295 -0.0165,0 -0.0439,-0.005 -0.0275,-0.005 -0.0769,-0.0494 -0.0439,-0.0439 -0.0439,-0.11532 0,-0.11533 0.21417,-0.31852 0.0275,-0.022 0.0879,-0.0769 l 0.0494,-0.0494 q 0.022,-0.022 0.0824,-0.0824 0.0659,-0.0604 0.10983,-0.0989 0.0439,-0.0384 0.0934,-0.0824 0.0549,-0.0439 0.0934,-0.0659 0.0439,-0.0274 0.0659,-0.0274 z m 0.49974,2.00994 q 0,-0.0439 -0.24164,-0.22516 -0.17573,-0.1318 -0.25261,-0.16475 -0.0714,-0.0329 -0.20868,-0.0329 -0.27459,0 -0.40639,0.0439 -0.1263,0.0384 -0.26909,0.17574 -0.42285,0.41187 -0.42834,0.53269 0.022,0.005 0.0934,0.005 0.53269,0 1.47726,-0.18672 0.23614,-0.0439 0.23614,-0.14827 z m 0.70842,0.86768 q 0.0989,0 0.0989,0.11532 0,0.12631 -0.15926,0.36245 -0.15926,0.23065 -0.31852,0.37343 -0.61506,0.5272 -1.26856,0.5272 -0.53819,0 -0.97202,-0.42286 -0.43384,-0.42285 -0.43384,-1.16423 0,-0.20868 0.0604,-0.40089 0.11533,-0.34048 0.51622,-0.70842 0.40089,-0.37343 0.76883,-0.37343 0.0988,0 0.29105,0.0165 0.30754,0.022 0.42835,0.0549 0.12631,0.0329 0.27458,0.14279 0.17574,0.1263 0.31852,0.33499 0.14278,0.20319 0.14278,0.36244 0,0.20869 -0.17024,0.30754 -0.17024,0.0988 -0.57662,0.18122 -0.53269,0.10434 -1.09833,0.13729 l -0.47777,0.022 v 0.14278 q 0,0.20319 0.0879,0.35696 0.0934,0.15376 0.29655,0.324 0.29106,0.24164 0.5931,0.24164 0.24163,0 0.51072,-0.14279 0.26909,-0.14827 0.45581,-0.324 0.19221,-0.17574 0.36794,-0.31852 0.18122,-0.14827 0.2636,-0.14827 z"
         style="font-style:normal;font-variant:normal;font-weight:bold;font-stretch:normal;font-size:5.491642px;font-family:Purisa;-inkscape-font-specification:'Purisa, Bold';font-variant-ligatures:normal;font-variant-caps:normal;font-variant-numeric:normal;font-feature-settings:normal;text-align:start;writing-mode:lr-tb;text-anchor:start;stroke:#000000;stroke-width:0.24440148;stroke-miterlimit:4;stroke-dasharray:none;stroke-opacity:1"
         id="path6106"
         inkscape:connector-curvature="0" />
      <path
         d="m 113.79256,103.2433 q 0,-0.28556 0.18122,-0.28556 0.12082,0.005 0.15926,0.14827 0.0384,0.14279 0.10983,0.80178 0.005,0.0494 0.005,0.0769 0.005,0.0275 0.011,0.0714 0.005,0.0439 0.011,0.0824 l 0.0769,0.62605 0.0604,-0.18123 q 0.11532,-0.35695 0.1977,-0.5217 0.0879,-0.16475 0.31851,-0.46679 0.44483,-0.58761 0.75236,-0.58761 0.20319,0 0.35146,0.22516 0.17574,0.24712 0.21418,0.49425 0.0439,0.24712 0.0604,1.13128 0.011,0.56014 0.011,0.68096 0,0.36245 -0.0494,0.49425 -0.0494,0.12631 -0.20319,0.12631 -0.10434,0 -0.13729,-0.0549 -0.0329,-0.0604 -0.0329,-0.23614 0,-0.0824 0.011,-0.34048 0.011,-0.25811 0.011,-0.42835 0,-0.46679 -0.0384,-0.87317 -0.0384,-0.40638 -0.0879,-0.51072 -0.022,-0.0439 -0.0549,-0.0824 -0.0329,-0.0439 -0.0604,-0.0659 -0.022,-0.022 -0.0329,-0.022 -0.0879,0 -0.36245,0.36794 -0.26909,0.36794 -0.45581,0.75236 -0.1922,0.40638 -0.2581,0.5931 -0.0604,0.18671 -0.0988,0.50523 -0.0604,0.51072 -0.0988,0.56564 -0.0275,0.0329 -0.0604,0.0329 -0.0824,-0.011 -0.17573,-0.11533 -0.0494,-0.0549 -0.0769,-0.13729 -0.022,-0.0879 -0.0384,-0.2636 -0.0165,-0.18122 -0.0275,-0.38441 -0.011,-0.20869 -0.0439,-0.59859 -0.0329,-0.3954 -0.0824,-0.81826 -0.0659,-0.65899 -0.0659,-0.80178 z"
         style="font-style:normal;font-variant:normal;font-weight:bold;font-stretch:normal;font-size:5.491642px;font-family:Purisa;-inkscape-font-specification:'Purisa, Bold';font-variant-ligatures:normal;font-variant-caps:normal;font-variant-numeric:normal;font-feature-settings:normal;text-align:start;writing-mode:lr-tb;text-anchor:start;stroke:#000000;stroke-width:0.24440148;stroke-miterlimit:4;stroke-dasharray:none;stroke-opacity:1"
         id="path6108"
         inkscape:connector-curvature="0" />
      <path
         d="m 117.46578,103.34765 q 0.12631,0 0.15926,0.0988 0.0384,0.0988 0.0384,0.29106 0,0.24163 -0.005,0.49425 -0.005,0.25262 -0.005,0.42286 0,0.7194 0.12631,0.7194 0.0769,0 0.32401,-0.23614 0.24712,-0.23614 0.35696,-0.4613 0.11532,-0.23065 0.1922,-0.53269 0.0824,-0.30204 0.11533,-0.49424 0.0384,-0.19221 0.11532,-0.3295 0.0824,-0.14279 0.21418,-0.14279 0.0934,0 0.15925,0.0659 0.0714,0.0659 0.0714,0.17024 0,0.0934 -0.1263,0.56015 -0.12082,0.4613 -0.12082,0.97202 0,0.17024 0.0165,0.31303 l 0.0165,0.0604 0.0988,-0.0439 q 0.1318,-0.0659 0.24163,-0.0659 0.0988,0 0.15377,0.0494 0.0604,0.0439 0.0604,0.11532 0,0.17024 -0.26909,0.30753 l -0.18672,0.0879 0.0275,0.54916 q -0.0329,0.99948 -0.0824,1.06538 -0.0659,0.0988 -0.20319,0.0988 -0.1318,0 -0.41187,-0.10434 -0.15926,-0.0659 -0.25262,-0.14278 -0.0879,-0.0769 -0.17024,-0.23065 -0.17573,-0.3295 -0.17573,-0.5931 0,-0.0879 0.022,-0.14278 0.0275,-0.0494 0.0988,-0.14278 0.0769,-0.0879 0.1318,-0.17024 0.0659,-0.0988 0.1977,-0.15926 0.13179,-0.0659 0.14278,-0.0769 0.0275,-0.022 0.14278,-0.0934 0,-0.17024 -0.0604,-0.30204 -0.0165,0.0165 -0.1263,0.1263 -0.10984,0.10435 -0.1977,0.18123 -0.0879,0.0714 -0.24164,0.14278 -0.14827,0.0714 -0.29105,0.0714 -0.28557,0 -0.45032,-0.29655 -0.0769,-0.13729 -0.0988,-0.30204 -0.022,-0.16475 -0.022,-0.62055 0,-0.69195 0.0439,-0.98301 0.0494,-0.29654 0.23065,-0.29654 z m 1.3125,3.64095 q 0.0275,-0.0604 0.0275,-0.1922 0,-0.10434 -0.022,-0.24713 -0.0165,-0.13729 -0.0384,-0.23614 -0.022,-0.0934 -0.022,-0.0988 l -0.011,-0.12631 -0.0494,0.0659 q -0.21418,0.29655 -0.21418,0.48876 0,0.0714 0.1318,0.19221 0.1318,0.12631 0.1977,0.15376 z"
         style="font-style:normal;font-variant:normal;font-weight:bold;font-stretch:normal;font-size:5.491642px;font-family:Purisa;-inkscape-font-specification:'Purisa, Bold';font-variant-ligatures:normal;font-variant-caps:normal;font-variant-numeric:normal;font-feature-settings:normal;text-align:start;writing-mode:lr-tb;text-anchor:start;stroke:#000000;stroke-width:0.24440148;stroke-miterlimit:4;stroke-dasharray:none;stroke-opacity:1"
         id="path6110"
         inkscape:connector-curvature="0" />
      <path
         d="m 122.59017,103.92427 q 0,-0.0439 -0.24164,-0.22516 -0.17573,-0.1318 -0.25261,-0.16475 -0.0714,-0.0329 -0.20868,-0.0329 -0.27459,0 -0.40639,0.0439 -0.1263,0.0384 -0.26909,0.17574 -0.42285,0.41187 -0.42834,0.53269 0.022,0.005 0.0933,0.005 0.53269,0 1.47725,-0.18672 0.23615,-0.0439 0.23615,-0.14827 z m 0.70842,0.86768 q 0.0988,0 0.0988,0.11532 0,0.12631 -0.15926,0.36245 -0.15926,0.23065 -0.31852,0.37343 -0.61506,0.5272 -1.26857,0.5272 -0.53818,0 -0.97202,-0.42286 -0.43384,-0.42285 -0.43384,-1.16423 0,-0.20868 0.0604,-0.40089 0.11533,-0.34048 0.51622,-0.70842 0.40089,-0.37343 0.76883,-0.37343 0.0988,0 0.29105,0.0165 0.29655,0.022 0.41737,0.0604 0.12631,0.0329 0.28556,0.1373 0.17574,0.11532 0.31852,0.32949 0.14278,0.20869 0.14278,0.36794 0,0.20869 -0.17024,0.30754 -0.17024,0.0988 -0.57662,0.18122 -0.53269,0.10434 -1.09833,0.13729 l -0.47777,0.022 v 0.14278 q 0,0.20319 0.0879,0.35696 0.0934,0.15376 0.29655,0.324 0.29106,0.24164 0.5931,0.24164 0.24163,0 0.51072,-0.14279 0.26909,-0.14827 0.45581,-0.324 0.19221,-0.17574 0.36794,-0.31852 0.18122,-0.14827 0.2636,-0.14827 z"
         style="font-style:normal;font-variant:normal;font-weight:bold;font-stretch:normal;font-size:5.491642px;font-family:Purisa;-inkscape-font-specification:'Purisa, Bold';font-variant-ligatures:normal;font-variant-caps:normal;font-variant-numeric:normal;font-feature-settings:normal;text-align:start;writing-mode:lr-tb;text-anchor:start;stroke:#000000;stroke-width:0.24440148;stroke-miterlimit:4;stroke-dasharray:none;stroke-opacity:1"
         id="path6112"
         inkscape:connector-curvature="0" />
      <path
         d="m 124.73148,106.14289 q -0.25811,0 -0.25811,-0.15926 0,-0.12081 0.1977,-0.47228 0.20319,-0.35695 0.31302,-0.47228 0.0659,-0.0659 0.10434,-0.10983 -0.0275,-0.005 -0.11532,-0.005 -0.0824,-0.005 -0.13729,-0.011 -0.0494,-0.005 -0.10984,-0.022 -0.0604,-0.0165 -0.0934,-0.0439 -0.0329,-0.0329 -0.0329,-0.0824 0,-0.23065 0.59309,-0.23065 0.20319,0 0.25811,-0.0165 0.0604,-0.0165 0.11533,-0.0824 0.15376,-0.18672 0.24163,-0.40089 0.0934,-0.21967 0.0934,-0.35146 0,-0.0439 -0.005,-0.0604 -0.022,-0.005 -0.0824,-0.005 -0.26909,0 -0.7908,0.14278 -0.5217,0.13729 -0.61506,0.23614 -0.0769,0.0988 -0.22516,0.0988 -0.0988,0 -0.17573,-0.0439 -0.0769,-0.0494 -0.0769,-0.12631 0,-0.0549 0.0384,-0.0989 0.12081,-0.17024 0.68096,-0.36245 0.56015,-0.19221 0.83473,-0.25262 0.0934,-0.0165 0.1977,-0.0165 0.41187,0 0.56564,0.15926 0.0879,0.0934 0.0879,0.30204 0,0.30204 -0.16475,0.63154 l -0.0824,0.15925 0.10434,0.011 q 0.31852,0.0329 0.31852,0.14278 0,0.0714 -0.13729,0.14278 -0.1318,0.0659 -0.34049,0.0879 -0.15376,0.0165 -0.23614,0.0549 -0.0824,0.0384 -0.22515,0.16475 -0.12082,0.10984 -0.27459,0.30204 -0.14827,0.19221 -0.20868,0.30754 0.99948,-0.17024 1.27956,-0.17024 0.38441,0 0.38441,0.17024 0,0.10434 -0.13729,0.16475 -0.13729,0.0604 -0.47228,0.11532 -1.14776,0.20319 -1.41135,0.20319 z"
         style="font-style:normal;font-variant:normal;font-weight:bold;font-stretch:normal;font-size:5.491642px;font-family:Purisa;-inkscape-font-specification:'Purisa, Bold';font-variant-ligatures:normal;font-variant-caps:normal;font-variant-numeric:normal;font-feature-settings:normal;text-align:start;writing-mode:lr-tb;text-anchor:start;stroke:#000000;stroke-width:0.24440148;stroke-miterlimit:4;stroke-dasharray:none;stroke-opacity:1"
         id="path6114"
         inkscape:connector-curvature="0" />
      <path
         d="m 130.39044,101.52442 q 0.0165,0 0.0384,0.005 0.0275,0.005 0.0659,0.0494 0.0439,0.0439 0.0439,0.11532 0,0.13729 -0.34597,0.47228 -0.34048,0.33499 -0.41187,0.33499 -0.0714,0 -0.14828,-0.0659 -0.0714,-0.0659 -0.0714,-0.1318 0,-0.10983 0.34598,-0.44482 0.35146,-0.33499 0.48326,-0.33499 z m -0.49974,0.15377 q 0,0.14827 -0.35696,0.47228 -0.35146,0.324 -0.42834,0.324 -0.0769,0 -0.14828,-0.0659 -0.0714,-0.0659 -0.0714,-0.13729 0,-0.10434 0.35146,-0.43933 0.35696,-0.33499 0.49974,-0.33499 l 0.0165,0.005 q 0.0165,0 0.0275,0.005 0.0165,0.005 0.0384,0.0165 0.022,0.011 0.0329,0.0329 0.0165,0.0165 0.0275,0.0494 0.011,0.0275 0.011,0.0714 z m -2.04838,1.96051 q 0.4613,-0.3954 0.7853,-0.5217 0.3295,-0.12631 0.82375,-0.12631 0.76334,0 0.95554,0.42835 0.10984,0.24163 0.10984,0.59859 0,0.56563 -0.27458,1.15324 -0.2691,0.58761 -0.68646,0.82375 -0.40638,0.22515 -0.86219,0.22515 -0.66998,0 -1.02144,-0.39539 -0.24713,-0.27459 -0.32401,-0.46679 -0.0714,-0.1977 -0.0714,-0.54368 0,-0.68645 0.56564,-1.17521 z m 0.99399,2.12527 q 0.45031,0 0.82923,-0.57113 0.38442,-0.57663 0.38442,-1.30701 0,-0.0769 -0.0165,-0.12082 -0.011,-0.0439 -0.0275,-0.0604 -0.0165,-0.022 -0.0604,-0.0549 -0.1977,-0.14279 -0.41737,-0.14279 -0.033,0 -0.0934,0.011 -0.0549,0.005 -0.17024,0.022 -0.10983,0.011 -0.24163,0.022 -0.18671,0.022 -0.29655,0.0769 -0.10983,0.0494 -0.28556,0.19221 -0.3295,0.28007 -0.47228,0.51621 -0.1373,0.23065 -0.1373,0.50524 0,0.40088 0.28008,0.65899 0.28007,0.25262 0.7249,0.25262 z"
         style="font-style:normal;font-variant:normal;font-weight:bold;font-stretch:normal;font-size:5.491642px;font-family:Purisa;-inkscape-font-specification:'Purisa, Bold';font-variant-ligatures:normal;font-variant-caps:normal;font-variant-numeric:normal;font-feature-settings:normal;text-align:start;writing-mode:lr-tb;text-anchor:start;stroke:#000000;stroke-width:0.24440148;stroke-miterlimit:4;stroke-dasharray:none;stroke-opacity:1"
         id="path6116"
         inkscape:connector-curvature="0" />
      <path
         d="m 138.83444,104.91825 q 0,0.45032 -0.011,0.69744 -0.005,0.24164 -0.0384,0.37343 -0.0275,0.1318 -0.0659,0.16475 -0.0384,0.0329 -0.11533,0.0329 -0.0934,0 -0.1263,-0.0988 -0.022,-0.0769 -0.0275,-0.75784 0,-0.68646 -0.0494,-1.28505 -0.0439,-0.60408 -0.17573,-0.60408 -0.0934,0 -0.28007,0.30204 -0.18672,0.30204 -0.37893,0.91162 -0.18671,0.60408 -0.22515,1.27406 -0.022,0.30204 -0.19221,0.30204 -0.12082,0 -0.15377,-0.11533 -0.0275,-0.11532 -0.0439,-0.47777 0,-0.0329 0,-0.0494 0,-0.0165 -0.005,-0.0439 0,-0.033 0,-0.0549 -0.0384,-0.84023 -0.11533,-1.16972 -0.0769,-0.3295 -0.28556,-0.5931 -0.11533,-0.16475 -0.16475,-0.16475 -0.0879,0.022 -0.4613,0.82375 -0.10434,0.21966 -0.10434,0.42285 0,0.1318 -0.0549,0.27458 -0.0494,0.14279 -0.0659,0.70293 0,0.0549 -0.005,0.15926 0,0.10434 0,0.15926 0,0.0494 -0.011,0.1318 -0.005,0.0824 -0.022,0.12081 -0.011,0.0384 -0.0329,0.0824 -0.022,0.0439 -0.0604,0.0604 -0.0329,0.022 -0.0824,0.022 -0.14827,0 -0.18672,-0.2581 -0.0384,-0.25262 -0.0384,-1.07636 0,-0.5272 -0.0439,-1.10932 -0.0384,-0.5876 -0.0384,-0.67547 0,-0.36794 0.15926,-0.36794 0.0549,0 0.0933,0.0604 0.0439,0.0604 0.0714,0.17024 0.0274,0.10434 0.0439,0.20868 0.022,0.10434 0.0439,0.24164 0.022,0.13729 0.0384,0.20319 0.0329,-0.0824 0.0494,-0.12082 0.022,-0.0384 0.0384,-0.0494 0.0165,-0.0165 0.0604,-0.0824 0.0439,-0.0714 0.10983,-0.19221 0.13729,-0.25261 0.21967,-0.31302 0.0824,-0.0659 0.28556,-0.0659 0.21967,0 0.47228,0.2636 0.14279,0.15926 0.1977,0.30204 0.0549,0.13729 0.10983,0.47777 l 0.0384,0.20319 q 0.15376,-0.48875 0.4558,-0.86768 0.30753,-0.37892 0.60957,-0.37892 0.18672,0 0.31852,0.17024 0.13729,0.17024 0.19221,0.41187 0.0549,0.25811 0.0549,1.24111 z"
         style="font-style:normal;font-variant:normal;font-weight:bold;font-stretch:normal;font-size:5.491642px;font-family:Purisa;-inkscape-font-specification:'Purisa, Bold';font-variant-ligatures:normal;font-variant-caps:normal;font-variant-numeric:normal;font-feature-settings:normal;text-align:start;writing-mode:lr-tb;text-anchor:start;stroke:#000000;stroke-width:0.24440148;stroke-miterlimit:4;stroke-dasharray:none;stroke-opacity:1"
         id="path6118"
         inkscape:connector-curvature="0" />
      <path
         d="m 141.56859,101.91433 q 0.0549,0 0.1373,0.0604 0.0879,0.0604 0.0879,0.14279 0,0.10434 -0.35696,0.43933 -0.35695,0.3295 -0.49973,0.3295 -0.0165,0 -0.0439,-0.005 -0.0275,-0.005 -0.0769,-0.0494 -0.0439,-0.0439 -0.0439,-0.11532 0,-0.11533 0.21417,-0.31852 0.0275,-0.022 0.0879,-0.0769 l 0.0494,-0.0494 q 0.022,-0.022 0.0824,-0.0824 0.0659,-0.0604 0.10983,-0.0989 0.0439,-0.0384 0.0934,-0.0824 0.0549,-0.0439 0.0934,-0.0659 0.0439,-0.0274 0.0659,-0.0274 z m 0.49974,2.00994 q 0,-0.0439 -0.24163,-0.22516 -0.17573,-0.1318 -0.25261,-0.16475 -0.0714,-0.0329 -0.20869,-0.0329 -0.27458,0 -0.40638,0.0439 -0.12631,0.0384 -0.26909,0.17574 -0.42285,0.41187 -0.42835,0.53269 0.022,0.005 0.0934,0.005 0.53269,0 1.47725,-0.18672 0.23614,-0.0439 0.23614,-0.14827 z m 0.70843,0.86768 q 0.0988,0 0.0988,0.11532 0,0.12631 -0.15926,0.36245 -0.15926,0.23065 -0.31852,0.37343 -0.61506,0.5272 -1.26857,0.5272 -0.53818,0 -0.97202,-0.42286 -0.43384,-0.42285 -0.43384,-1.16423 0,-0.20868 0.0604,-0.40089 0.11533,-0.34048 0.51622,-0.70842 0.40088,-0.37343 0.76882,-0.37343 0.0988,0 0.29106,0.0165 0.30753,0.022 0.42835,0.0549 0.12631,0.0329 0.27458,0.14279 0.17573,0.1263 0.31852,0.33499 0.14278,0.20319 0.14278,0.36244 0,0.20869 -0.17024,0.30754 -0.17024,0.0988 -0.57662,0.18122 -0.53269,0.10434 -1.09833,0.13729 l -0.47777,0.022 v 0.14278 q 0,0.20319 0.0879,0.35696 0.0934,0.15376 0.29655,0.324 0.29106,0.24164 0.5931,0.24164 0.24163,0 0.51072,-0.14279 0.26909,-0.14827 0.45581,-0.324 0.1922,-0.17574 0.36794,-0.31852 0.18122,-0.14827 0.2636,-0.14827 z"
         style="font-style:normal;font-variant:normal;font-weight:bold;font-stretch:normal;font-size:5.491642px;font-family:Purisa;-inkscape-font-specification:'Purisa, Bold';font-variant-ligatures:normal;font-variant-caps:normal;font-variant-numeric:normal;font-feature-settings:normal;text-align:start;writing-mode:lr-tb;text-anchor:start;stroke:#000000;stroke-width:0.24440148;stroke-miterlimit:4;stroke-dasharray:none;stroke-opacity:1"
         id="path6120"
         inkscape:connector-curvature="0" />
      <path
         d="m 145.62074,103.43551 q 0.10434,0 0.18122,0.0494 0.0769,0.0439 0.0988,0.0879 0.0275,0.0439 0.0275,0.0769 0,0.10983 -0.25261,0.20319 -0.33499,0.1263 -0.73039,0.62055 -0.38991,0.49425 -0.47228,0.92809 -0.10434,0.55466 -0.17574,0.73588 -0.0714,0.18672 -0.20868,0.18672 -0.0549,0 -0.0988,-0.0165 -0.0384,-0.011 -0.0659,-0.0494 -0.0275,-0.0384 -0.0439,-0.0659 -0.0165,-0.0275 -0.0329,-0.0879 -0.011,-0.0659 -0.0165,-0.0934 0,-0.0329 -0.011,-0.10434 -0.005,-0.0769 -0.005,-0.0934 -0.1318,-1.28504 -0.1318,-2.15821 0,-0.18123 0.022,-0.28008 0.022,-0.10434 0.10983,-0.18122 0.0549,-0.0494 0.12082,-0.0494 0.0714,0 0.12081,0.0604 0.0494,0.0549 0.0494,0.14828 0,0.20319 0.0549,0.57662 0.0604,0.36794 0.10984,0.57662 0.0439,-0.0604 0.1263,-0.18671 0.20869,-0.34049 0.58212,-0.60958 0.37343,-0.27458 0.64252,-0.27458 z"
         style="font-style:normal;font-variant:normal;font-weight:bold;font-stretch:normal;font-size:5.491642px;font-family:Purisa;-inkscape-font-specification:'Purisa, Bold';font-variant-ligatures:normal;font-variant-caps:normal;font-variant-numeric:normal;font-feature-settings:normal;text-align:start;writing-mode:lr-tb;text-anchor:start;stroke:#000000;stroke-width:0.24440148;stroke-miterlimit:4;stroke-dasharray:none;stroke-opacity:1"
         id="path6122"
         inkscape:connector-curvature="0" />
      <path
         d="m 147.69177,103.1115 q -0.17573,0.011 -0.48326,0.0659 -0.30204,0.0494 -0.40639,0.0494 -0.23614,0 -0.23614,-0.18672 0,-0.14827 0.20869,-0.22515 0.20868,-0.0769 0.49424,-0.12082 0.29106,-0.0439 0.37344,-0.0879 0.0439,-0.0439 0.0439,-0.23614 0,-0.1977 -0.0494,-0.51621 -0.0494,-0.31852 -0.0494,-0.57662 0,-0.17574 0.0934,-0.25811 0.0934,-0.0879 0.20319,-0.0879 0.12081,0 0.17024,0.0988 0.0275,0.0824 0.0934,0.71941 0.0659,0.63154 0.0824,0.73039 0.0439,-0.005 0.29106,-0.0439 0.25261,-0.0439 0.38441,-0.0439 0.18672,0 0.2636,0.0604 0.0769,0.0604 0.0769,0.1318 0,0.10434 -0.14279,0.17573 -0.14278,0.0714 -0.51621,0.16475 l -0.31303,0.0494 0.0439,0.83473 q 0.0439,0.77432 0.15376,1.4498 0.10984,0.67547 0.10984,0.77981 0,0.24163 -0.25262,0.24163 -0.14827,0 -0.21966,-0.0549 -0.16475,-0.14828 -0.16475,-0.62056 0,-0.19221 -0.022,-0.38991 -0.022,-0.20319 -0.0769,-0.62604 -0.0494,-0.42835 -0.0934,-0.88416 -0.0549,-0.57113 -0.0604,-0.5931 z"
         style="font-style:normal;font-variant:normal;font-weight:bold;font-stretch:normal;font-size:5.491642px;font-family:Purisa;-inkscape-font-specification:'Purisa, Bold';font-variant-ligatures:normal;font-variant-caps:normal;font-variant-numeric:normal;font-feature-settings:normal;text-align:start;writing-mode:lr-tb;text-anchor:start;stroke:#000000;stroke-width:0.24440148;stroke-miterlimit:4;stroke-dasharray:none;stroke-opacity:1"
         id="path6124"
         inkscape:connector-curvature="0" />
      <path
         d="m 151.71526,101.91433 q 0.0549,0 0.13729,0.0604 0.0879,0.0604 0.0879,0.14279 0,0.10434 -0.35696,0.43933 -0.35695,0.3295 -0.49974,0.3295 -0.0165,0 -0.0439,-0.005 -0.0275,-0.005 -0.0769,-0.0494 -0.0439,-0.0439 -0.0439,-0.11532 0,-0.11533 0.21418,-0.31852 0.0275,-0.022 0.0879,-0.0769 l 0.0494,-0.0494 q 0.022,-0.022 0.0824,-0.0824 0.0659,-0.0604 0.10984,-0.0989 0.0439,-0.0384 0.0934,-0.0824 0.0549,-0.0439 0.0934,-0.0659 0.0439,-0.0274 0.0659,-0.0274 z m 0.49974,2.00994 q 0,-0.0439 -0.24163,-0.22516 -0.17573,-0.1318 -0.25262,-0.16475 -0.0714,-0.0329 -0.20868,-0.0329 -0.27458,0 -0.40638,0.0439 -0.12631,0.0384 -0.26909,0.17574 -0.42286,0.41187 -0.42835,0.53269 0.022,0.005 0.0934,0.005 0.53269,0 1.47725,-0.18672 0.23614,-0.0439 0.23614,-0.14827 z m 0.70842,0.86768 q 0.0988,0 0.0988,0.11532 0,0.12631 -0.15926,0.36245 -0.15925,0.23065 -0.31851,0.37343 -0.61506,0.5272 -1.26857,0.5272 -0.53818,0 -0.97202,-0.42286 -0.43384,-0.42285 -0.43384,-1.16423 0,-0.20868 0.0604,-0.40089 0.11532,-0.34048 0.51621,-0.70842 0.40089,-0.37343 0.76883,-0.37343 0.0988,0 0.29106,0.0165 0.30753,0.022 0.42835,0.0549 0.12631,0.0329 0.27458,0.14279 0.17573,0.1263 0.31851,0.33499 0.14279,0.20319 0.14279,0.36244 0,0.20869 -0.17024,0.30754 -0.17024,0.0988 -0.57663,0.18122 -0.53269,0.10434 -1.09832,0.13729 l -0.47778,0.022 v 0.14278 q 0,0.20319 0.0879,0.35696 0.0934,0.15376 0.29655,0.324 0.29105,0.24164 0.5931,0.24164 0.24163,0 0.51072,-0.14279 0.26909,-0.14827 0.4558,-0.324 0.19221,-0.17574 0.36794,-0.31852 0.18123,-0.14827 0.2636,-0.14827 z"
         style="font-style:normal;font-variant:normal;font-weight:bold;font-stretch:normal;font-size:5.491642px;font-family:Purisa;-inkscape-font-specification:'Purisa, Bold';font-variant-ligatures:normal;font-variant-caps:normal;font-variant-numeric:normal;font-feature-settings:normal;text-align:start;writing-mode:lr-tb;text-anchor:start;stroke:#000000;stroke-width:0.24440148;stroke-miterlimit:4;stroke-dasharray:none;stroke-opacity:1"
         id="path6126"
         inkscape:connector-curvature="0" />
      <path
         d="m 155.89921,105.96167 q -0.13729,-0.011 -0.32401,-0.1318 -0.18122,-0.12631 -0.21417,-0.12631 -0.0604,0 -0.0988,-0.022 -0.0329,-0.022 -0.0385,-0.0439 l -0.011,-0.022 q -0.0769,-0.0549 -0.71391,-0.25261 l -0.20868,-0.0659 0.033,0.3295 q 0.022,0.18671 0.022,0.26909 0,0.29655 -0.20868,0.29655 -0.23065,0 -0.28557,-0.2636 -0.0549,-0.2636 -0.0933,-1.24111 -0.0439,-0.89514 -0.0824,-1.10382 -0.11532,-0.5931 -0.11532,-1.53766 0,-0.28557 0.1977,-0.28557 0.15376,0 0.21966,0.17024 0.0329,0.0824 0.0769,0.48876 0.0439,0.40638 0.0933,0.90063 0.0494,0.49424 0.0824,0.69194 l 0.0275,0.17574 0.59309,-0.52171 q 0.0439,-0.0384 0.11533,-0.10434 0.0769,-0.0659 0.11532,-0.0988 0.0439,-0.0384 0.10434,-0.0934 0.0659,-0.0549 0.0988,-0.0824 0.0384,-0.0329 0.0879,-0.0714 0.0549,-0.0384 0.0879,-0.0604 0.0329,-0.022 0.0659,-0.0439 0.0384,-0.022 0.0659,-0.0275 0.0275,-0.011 0.0494,-0.011 0.0879,0.011 0.14278,0.0824 0.0604,0.0659 0.0604,0.14278 0,0.0659 -0.0329,0.0988 -0.0275,0.0329 -0.11532,0.10983 -0.0879,0.0714 -0.17024,0.18672 -0.23065,0.32401 -0.98301,0.83473 -0.20868,0.14278 -0.21966,0.21417 0,0.0384 0.0659,0.0659 l 0.66448,0.2636 0.0384,0.022 q 0.0439,0.0165 0.0879,0.0384 0.0494,0.0165 0.12082,0.0494 0.0714,0.0329 0.13729,0.0714 0.0714,0.0329 0.14827,0.0769 0.0824,0.0439 0.14828,0.0879 0.0714,0.0384 0.1318,0.0879 0.0659,0.0494 0.10983,0.0934 0.0494,0.0439 0.0769,0.0934 0.0275,0.0439 0.0275,0.0879 0,0.0824 -0.0494,0.1318 -0.0494,0.0494 -0.1318,0.0494 z"
         style="font-style:normal;font-variant:normal;font-weight:bold;font-stretch:normal;font-size:5.491642px;font-family:Purisa;-inkscape-font-specification:'Purisa, Bold';font-variant-ligatures:normal;font-variant-caps:normal;font-variant-numeric:normal;font-feature-settings:normal;text-align:start;writing-mode:lr-tb;text-anchor:start;stroke:#000000;stroke-width:0.24440148;stroke-miterlimit:4;stroke-dasharray:none;stroke-opacity:1"
         id="path6128"
         inkscape:connector-curvature="0" />
      <path
         d="m 159.03665,103.92427 q 0,-0.0439 -0.24163,-0.22516 -0.17574,-0.1318 -0.25262,-0.16475 -0.0714,-0.0329 -0.20868,-0.0329 -0.27458,0 -0.40638,0.0439 -0.12631,0.0384 -0.26909,0.17574 -0.42286,0.41187 -0.42835,0.53269 0.022,0.005 0.0934,0.005 0.53269,0 1.47725,-0.18672 0.23614,-0.0439 0.23614,-0.14827 z m 0.70842,0.86768 q 0.0988,0 0.0988,0.11532 0,0.12631 -0.15926,0.36245 -0.15926,0.23065 -0.31851,0.37343 -0.61507,0.5272 -1.26857,0.5272 -0.53818,0 -0.97202,-0.42286 -0.43384,-0.42285 -0.43384,-1.16423 0,-0.20868 0.0604,-0.40089 0.11532,-0.34048 0.51621,-0.70842 0.40089,-0.37343 0.76883,-0.37343 0.0988,0 0.29106,0.0165 0.29655,0.022 0.41736,0.0604 0.12631,0.0329 0.28557,0.1373 0.17573,0.11532 0.31851,0.32949 0.14279,0.20869 0.14279,0.36794 0,0.20869 -0.17025,0.30754 -0.17024,0.0988 -0.57662,0.18122 -0.53269,0.10434 -1.09833,0.13729 l -0.47777,0.022 v 0.14278 q 0,0.20319 0.0879,0.35696 0.0933,0.15376 0.29655,0.324 0.29105,0.24164 0.59309,0.24164 0.24164,0 0.51073,-0.14279 0.26909,-0.14827 0.4558,-0.324 0.19221,-0.17574 0.36794,-0.31852 0.18123,-0.14827 0.2636,-0.14827 z"
         style="font-style:normal;font-variant:normal;font-weight:bold;font-stretch:normal;font-size:5.491642px;font-family:Purisa;-inkscape-font-specification:'Purisa, Bold';font-variant-ligatures:normal;font-variant-caps:normal;font-variant-numeric:normal;font-feature-settings:normal;text-align:start;writing-mode:lr-tb;text-anchor:start;stroke:#000000;stroke-width:0.24440148;stroke-miterlimit:4;stroke-dasharray:none;stroke-opacity:1"
         id="path6130"
         inkscape:connector-curvature="0" />
    </g>
    <g
       aria-label="életképesség"
       transform="matrix(0,-1.0180893,0.98223209,0,3.4587821,0.31443474)"
       style="font-style:normal;font-weight:normal;font-size:5.14371157px;line-height:1.25;font-family:sans-serif;letter-spacing:0px;word-spacing:0px;fill:#000000;fill-opacity:1;stroke:#000000;stroke-width:0.25;stroke-miterlimit:4;stroke-dasharray:none;stroke-opacity:1"
       id="text2267">
      <path
         d="m -61.34695,3.5670214 q 0.05144,0 0.128593,0.056581 0.0823,0.056581 0.0823,0.1337365 0,0.097731 -0.334341,0.411497 -0.334341,0.3086227 -0.468078,0.3086227 -0.01543,0 -0.04115,-0.00514 -0.02572,-0.00514 -0.07201,-0.046293 -0.04115,-0.04115 -0.04115,-0.1080179 0,-0.1080179 0.200605,-0.2983353 0.02572,-0.020575 0.0823,-0.072012 l 0.04629,-0.046293 q 0.02058,-0.020575 0.07716,-0.077156 0.06173,-0.056581 0.102874,-0.092587 0.04115,-0.036006 0.08744,-0.077156 0.05144,-0.04115 0.08744,-0.061724 0.04115,-0.025719 0.06173,-0.025719 z m 0.468078,1.8825984 q 0,-0.04115 -0.226324,-0.2108921 -0.164598,-0.1234491 -0.23661,-0.1543114 -0.06687,-0.030862 -0.195461,-0.030862 -0.257186,0 -0.380635,0.04115 -0.118305,0.036006 -0.252042,0.1645988 -0.396066,0.3857784 -0.401209,0.49894 0.02057,0.00514 0.08744,0.00514 0.49894,0 1.383658,-0.1748861 0.22118,-0.04115 0.22118,-0.1388803 z m 0.663539,0.8127065 q 0.09259,0 0.09259,0.1080179 0,0.1183054 -0.149167,0.339485 -0.149168,0.2160359 -0.298336,0.3497724 -0.576095,0.4937963 -1.188197,0.4937963 -0.504084,0 -0.910437,-0.3960658 -0.406353,-0.3960658 -0.406353,-1.0904669 0,-0.195461 0.05658,-0.3754909 0.108018,-0.3189101 0.483509,-0.6635388 0.375491,-0.3497724 0.720119,-0.3497724 0.09259,0 0.272617,0.015431 0.288048,0.020575 0.401209,0.051437 0.118306,0.030862 0.257186,0.1337365 0.164599,0.1183053 0.298335,0.3137664 0.133737,0.1903173 0.133737,0.3394849 0,0.1954611 -0.159455,0.2880479 -0.159455,0.092587 -0.54009,0.1697425 -0.49894,0.09773 -1.028742,0.1285927 l -0.447503,0.020575 v 0.1337365 q 0,0.1903173 0.0823,0.3343412 0.08744,0.144024 0.277761,0.303479 0.272616,0.2263233 0.55552,0.2263233 0.226324,0 0.478366,-0.1337365 0.252042,-0.1388802 0.426928,-0.303479 0.18003,-0.1645987 0.344628,-0.2983352 0.169743,-0.1388802 0.246899,-0.1388802 z"
         style="font-style:normal;font-variant:normal;font-weight:bold;font-stretch:normal;font-size:5.14371157px;font-family:Purisa;-inkscape-font-specification:'Purisa, Bold';font-variant-ligatures:normal;font-variant-caps:normal;font-variant-numeric:normal;font-feature-settings:normal;text-align:start;writing-mode:lr-tb;text-anchor:start;stroke:#000000;stroke-width:0.25;stroke-miterlimit:4;stroke-dasharray:none;stroke-opacity:1"
         id="path6059"
         inkscape:connector-curvature="0" />
      <path
         d="m -59.382695,3.3509855 q 0,-0.3754909 0.03086,-0.5760957 0.03086,-0.2006047 0.07201,-0.2520418 0.04629,-0.056581 0.123449,-0.056581 0.123449,0 0.149168,0.1028743 0.02572,0.1080179 0.108018,1.3116464 0.08744,1.2036285 0.159455,2.3403888 0.07715,1.1367602 0.07715,1.1624788 0,0.1800299 -0.195461,0.1800299 -0.174886,0 -0.226323,-0.2108922 -0.04629,-0.2160359 -0.118305,-1.2550656 -0.0823,-1.0956106 -0.149168,-1.908317 -0.03086,-0.4320718 -0.03086,-0.838425 z"
         style="font-style:normal;font-variant:normal;font-weight:bold;font-stretch:normal;font-size:5.14371157px;font-family:Purisa;-inkscape-font-specification:'Purisa, Bold';font-variant-ligatures:normal;font-variant-caps:normal;font-variant-numeric:normal;font-feature-settings:normal;text-align:start;writing-mode:lr-tb;text-anchor:start;stroke:#000000;stroke-width:0.25;stroke-miterlimit:4;stroke-dasharray:none;stroke-opacity:1"
         id="path6061"
         inkscape:connector-curvature="0" />
      <path
         d="m -55.755253,5.4496198 q 0,-0.04115 -0.226323,-0.2108921 -0.164599,-0.1234491 -0.236611,-0.1543114 -0.06687,-0.030862 -0.195461,-0.030862 -0.257186,0 -0.380635,0.04115 -0.118305,0.036006 -0.252042,0.1645988 -0.396066,0.3857784 -0.401209,0.49894 0.02058,0.00514 0.08744,0.00514 0.49894,0 1.383658,-0.1748861 0.22118,-0.04115 0.22118,-0.1388803 z m 0.663539,0.8127065 q 0.09259,0 0.09259,0.1080179 0,0.1183054 -0.149167,0.339485 -0.149168,0.2160359 -0.298335,0.3497724 -0.576096,0.4937963 -1.188198,0.4937963 -0.504084,0 -0.910437,-0.3960658 -0.406353,-0.3960658 -0.406353,-1.0904669 0,-0.195461 0.05658,-0.3754909 0.108018,-0.3189101 0.483509,-0.6635388 0.375491,-0.3497724 0.720119,-0.3497724 0.09259,0 0.272617,0.015431 0.27776,0.020575 0.390922,0.056581 0.118305,0.030862 0.267473,0.1285928 0.164599,0.1080179 0.298335,0.3086226 0.133737,0.1954611 0.133737,0.3446287 0,0.1954611 -0.159455,0.2880479 -0.159455,0.092587 -0.54009,0.1697425 -0.49894,0.09773 -1.028742,0.1285927 l -0.447503,0.020575 v 0.1337365 q 0,0.1903173 0.0823,0.3343412 0.08744,0.144024 0.277761,0.303479 0.272616,0.2263233 0.555521,0.2263233 0.226323,0 0.478365,-0.1337365 0.252042,-0.1388802 0.426928,-0.303479 0.18003,-0.1645987 0.344628,-0.2983352 0.169743,-0.1388802 0.246899,-0.1388802 z"
         style="font-style:normal;font-variant:normal;font-weight:bold;font-stretch:normal;font-size:5.14371157px;font-family:Purisa;-inkscape-font-specification:'Purisa, Bold';font-variant-ligatures:normal;font-variant-caps:normal;font-variant-numeric:normal;font-feature-settings:normal;text-align:start;writing-mode:lr-tb;text-anchor:start;stroke:#000000;stroke-width:0.25;stroke-miterlimit:4;stroke-dasharray:none;stroke-opacity:1"
         id="path6063"
         inkscape:connector-curvature="0" />
      <path
         d="m -53.471847,4.6883505 q -0.164599,0.010287 -0.452647,0.061725 -0.282904,0.046293 -0.380635,0.046293 -0.221179,0 -0.221179,-0.1748862 0,-0.1388802 0.195461,-0.2108922 0.195461,-0.072012 0.462934,-0.1131617 0.272617,-0.04115 0.349772,-0.082299 0.04115,-0.04115 0.04115,-0.2211796 0,-0.1851737 -0.04629,-0.4835089 -0.04629,-0.2983353 -0.04629,-0.5400897 0,-0.1645988 0.08744,-0.2417545 0.08744,-0.082299 0.190318,-0.082299 0.113161,0 0.159455,0.092587 0.02572,0.077156 0.08744,0.6738263 0.06172,0.5915268 0.07715,0.6841136 0.04115,-0.00514 0.272617,-0.04115 0.236611,-0.04115 0.36006,-0.04115 0.174886,0 0.246898,0.056581 0.07201,0.056581 0.07201,0.1234491 0,0.09773 -0.133736,0.1645988 -0.133737,0.066868 -0.483509,0.1543113 l -0.293192,0.046293 0.04115,0.7818442 q 0.04115,0.7252633 0.144024,1.3579398 0.102874,0.6326766 0.102874,0.7304071 0,0.2263233 -0.236611,0.2263233 -0.13888,0 -0.205748,-0.051437 -0.154312,-0.1388802 -0.154312,-0.5812394 0,-0.1800299 -0.02057,-0.3652035 -0.02058,-0.1903174 -0.07201,-0.5863832 -0.04629,-0.4012095 -0.08744,-0.8281375 -0.05144,-0.534946 -0.05658,-0.5555209 z"
         style="font-style:normal;font-variant:normal;font-weight:bold;font-stretch:normal;font-size:5.14371157px;font-family:Purisa;-inkscape-font-specification:'Purisa, Bold';font-variant-ligatures:normal;font-variant-caps:normal;font-variant-numeric:normal;font-feature-settings:normal;text-align:start;writing-mode:lr-tb;text-anchor:start;stroke:#000000;stroke-width:0.25;stroke-miterlimit:4;stroke-dasharray:none;stroke-opacity:1"
         id="path6065"
         inkscape:connector-curvature="0" />
      <path
         d="m -49.240341,7.3579368 q -0.128593,-0.010287 -0.303479,-0.123449 -0.169743,-0.1183054 -0.200605,-0.1183054 -0.05658,0 -0.09259,-0.020575 -0.03086,-0.020575 -0.03601,-0.04115 l -0.01029,-0.020575 q -0.07201,-0.051437 -0.668683,-0.2366107 l -0.195461,-0.061725 0.03086,0.3086227 q 0.02058,0.1748862 0.02058,0.2520419 0,0.2777604 -0.195462,0.2777604 -0.216035,0 -0.267473,-0.2468981 -0.05144,-0.2468982 -0.08744,-1.1624789 -0.04115,-0.8384249 -0.07715,-1.033886 -0.108018,-0.5555208 -0.108018,-1.4402392 0,-0.267473 0.185173,-0.267473 0.144024,0 0.205749,0.159455 0.03086,0.077156 0.07201,0.4577904 0.04115,0.3806346 0.08744,0.8435687 0.04629,0.462934 0.07716,0.6481076 l 0.02572,0.1645988 0.555521,-0.4886526 q 0.04115,-0.036006 0.108018,-0.09773 0.07201,-0.061725 0.108018,-0.092587 0.04115,-0.036006 0.09773,-0.087443 0.06173,-0.051437 0.09259,-0.077156 0.03601,-0.030862 0.0823,-0.066868 0.05144,-0.036006 0.0823,-0.056581 0.03086,-0.020575 0.06172,-0.04115 0.03601,-0.020575 0.06172,-0.025718 0.02572,-0.010288 0.04629,-0.010288 0.0823,0.010288 0.133737,0.077156 0.05658,0.061725 0.05658,0.1337365 0,0.061725 -0.03086,0.092587 -0.02572,0.030862 -0.108018,0.1028743 -0.0823,0.066868 -0.159455,0.1748862 -0.216036,0.3034789 -0.920725,0.7818441 -0.195461,0.1337365 -0.205748,0.2006048 0,0.036006 0.06172,0.061724 l 0.622389,0.2468982 0.03601,0.020575 q 0.04115,0.015431 0.0823,0.036006 0.04629,0.015431 0.113161,0.046293 0.06687,0.030862 0.128593,0.066868 0.06687,0.030862 0.13888,0.072012 0.07716,0.04115 0.138881,0.082299 0.06687,0.036006 0.123449,0.082299 0.06172,0.046293 0.102874,0.087443 0.04629,0.04115 0.07201,0.087443 0.02572,0.04115 0.02572,0.082299 0,0.077156 -0.04629,0.1234491 -0.04629,0.046293 -0.123449,0.046293 z"
         style="font-style:normal;font-variant:normal;font-weight:bold;font-stretch:normal;font-size:5.14371157px;font-family:Purisa;-inkscape-font-specification:'Purisa, Bold';font-variant-ligatures:normal;font-variant-caps:normal;font-variant-numeric:normal;font-feature-settings:normal;text-align:start;writing-mode:lr-tb;text-anchor:start;stroke:#000000;stroke-width:0.25;stroke-miterlimit:4;stroke-dasharray:none;stroke-opacity:1"
         id="path6067"
         inkscape:connector-curvature="0" />
      <path
         d="m -46.769752,3.5670214 q 0.05144,0 0.128593,0.056581 0.0823,0.056581 0.0823,0.1337365 0,0.097731 -0.334341,0.411497 -0.334341,0.3086227 -0.468078,0.3086227 -0.01543,0 -0.04115,-0.00514 -0.02572,-0.00514 -0.07201,-0.046293 -0.04115,-0.04115 -0.04115,-0.1080179 0,-0.1080179 0.200605,-0.2983353 0.02572,-0.020575 0.0823,-0.072012 l 0.04629,-0.046293 q 0.02058,-0.020575 0.07716,-0.077156 0.06173,-0.056581 0.102874,-0.092587 0.04115,-0.036006 0.08744,-0.077156 0.05144,-0.04115 0.08744,-0.061724 0.04115,-0.025719 0.06173,-0.025719 z m 0.468078,1.8825984 q 0,-0.04115 -0.226324,-0.2108921 -0.164598,-0.1234491 -0.23661,-0.1543114 -0.06687,-0.030862 -0.195461,-0.030862 -0.257186,0 -0.380635,0.04115 -0.118305,0.036006 -0.252042,0.1645988 -0.396066,0.3857784 -0.401209,0.49894 0.02058,0.00514 0.08744,0.00514 0.49894,0 1.383658,-0.1748861 0.22118,-0.04115 0.22118,-0.1388803 z m 0.663539,0.8127065 q 0.09259,0 0.09259,0.1080179 0,0.1183054 -0.149167,0.339485 -0.149168,0.2160359 -0.298336,0.3497724 -0.576095,0.4937963 -1.188197,0.4937963 -0.504084,0 -0.910437,-0.3960658 -0.406353,-0.3960658 -0.406353,-1.0904669 0,-0.195461 0.05658,-0.3754909 0.108018,-0.3189101 0.483509,-0.6635388 0.375491,-0.3497724 0.720119,-0.3497724 0.09259,0 0.272617,0.015431 0.288048,0.020575 0.401209,0.051437 0.118306,0.030862 0.257186,0.1337365 0.164599,0.1183053 0.298335,0.3137664 0.133737,0.1903173 0.133737,0.3394849 0,0.1954611 -0.159455,0.2880479 -0.159455,0.092587 -0.54009,0.1697425 -0.49894,0.09773 -1.028742,0.1285927 l -0.447503,0.020575 v 0.1337365 q 0,0.1903173 0.0823,0.3343412 0.08744,0.144024 0.277761,0.303479 0.272616,0.2263233 0.555521,0.2263233 0.226323,0 0.478365,-0.1337365 0.252042,-0.1388802 0.426928,-0.303479 0.18003,-0.1645987 0.344628,-0.2983352 0.169743,-0.1388802 0.246899,-0.1388802 z"
         style="font-style:normal;font-variant:normal;font-weight:bold;font-stretch:normal;font-size:5.14371157px;font-family:Purisa;-inkscape-font-specification:'Purisa, Bold';font-variant-ligatures:normal;font-variant-caps:normal;font-variant-numeric:normal;font-feature-settings:normal;text-align:start;writing-mode:lr-tb;text-anchor:start;stroke:#000000;stroke-width:0.25;stroke-miterlimit:4;stroke-dasharray:none;stroke-opacity:1"
         id="path6069"
         inkscape:connector-curvature="0" />
      <path
         d="m -44.995815,5.3467456 q 0,-0.09773 0.144024,-0.2211796 0.144024,-0.1234491 0.144024,-0.1903173 0,-0.1131617 0.07201,-0.267473 0.07201,-0.1543114 0.226323,-0.1543114 0.102874,0 0.164599,0.082299 0.06687,0.077156 0.09259,0.077156 0.04629,0 0.401209,-0.077156 0.354916,-0.082299 0.63782,-0.082299 0.236611,0 0.519515,0.056581 0.596671,0.1285928 0.596671,0.7046884 0,0.4372155 -0.324054,1.0904669 -0.22118,0.4526466 -0.565808,0.6995448 -0.344629,0.2468981 -0.740695,0.2468981 -0.102874,0 -0.169742,-0.010287 l -0.154311,-0.020575 0.04115,0.1748862 q 0.200605,0.8435686 0.200605,1.0956105 0,0.2211796 -0.231467,0.2211796 -0.149168,0 -0.22118,-0.087443 -0.09259,-0.1183054 -0.216036,-0.7201196 -0.118305,-0.5966705 -0.205748,-1.5431135 -0.03086,-0.3291975 -0.05144,-0.5092274 -0.01543,-0.1851736 -0.03601,-0.2726167 -0.02058,-0.092587 -0.03601,-0.1131617 -0.01543,-0.020575 -0.04629,-0.020575 -0.241755,0 -0.241755,-0.1594551 z m 2.360964,-0.2983353 q -0.06173,-0.030862 -0.303479,-0.030862 -0.49894,0 -0.889862,0.1131616 l -0.324054,0.09773 0.01029,0.2829042 q 0.01543,0.3909221 0.06173,0.838425 0.05144,0.4475029 0.09259,0.4475029 0.102874,0 0.216035,0.066868 0.113162,0.061725 0.164599,0.061725 0.195461,0 0.462934,-0.2520419 0.272617,-0.2520419 0.468078,-0.6121017 0.195461,-0.3652035 0.195461,-0.6429639 0,-0.1028743 -0.03601,-0.1903174 -0.03601,-0.092587 -0.07201,-0.1285927 -0.03086,-0.04115 -0.04629,-0.051437 z"
         style="font-style:normal;font-variant:normal;font-weight:bold;font-stretch:normal;font-size:5.14371157px;font-family:Purisa;-inkscape-font-specification:'Purisa, Bold';font-variant-ligatures:normal;font-variant-caps:normal;font-variant-numeric:normal;font-feature-settings:normal;text-align:start;writing-mode:lr-tb;text-anchor:start;stroke:#000000;stroke-width:0.25;stroke-miterlimit:4;stroke-dasharray:none;stroke-opacity:1"
         id="path6071"
         inkscape:connector-curvature="0" />
      <path
         d="m -39.208979,5.4496198 q 0,-0.04115 -0.226323,-0.2108921 -0.164599,-0.1234491 -0.236611,-0.1543114 -0.06687,-0.030862 -0.195461,-0.030862 -0.257186,0 -0.380635,0.04115 -0.118305,0.036006 -0.252042,0.1645988 -0.396065,0.3857784 -0.401209,0.49894 0.02058,0.00514 0.08744,0.00514 0.49894,0 1.383658,-0.1748861 0.22118,-0.04115 0.22118,-0.1388803 z m 0.663539,0.8127065 q 0.09259,0 0.09259,0.1080179 0,0.1183054 -0.149168,0.339485 -0.149168,0.2160359 -0.298335,0.3497724 -0.576096,0.4937963 -1.188198,0.4937963 -0.504083,0 -0.910437,-0.3960658 -0.406353,-0.3960658 -0.406353,-1.0904669 0,-0.195461 0.05658,-0.3754909 0.108018,-0.3189101 0.483509,-0.6635388 0.375491,-0.3497724 0.72012,-0.3497724 0.09259,0 0.272616,0.015431 0.277761,0.020575 0.390922,0.056581 0.118306,0.030862 0.267473,0.1285928 0.164599,0.1080179 0.298336,0.3086226 0.133736,0.1954611 0.133736,0.3446287 0,0.1954611 -0.159455,0.2880479 -0.159455,0.092587 -0.54009,0.1697425 -0.49894,0.09773 -1.028742,0.1285927 l -0.447503,0.020575 v 0.1337365 q 0,0.1903173 0.0823,0.3343412 0.08744,0.144024 0.277761,0.303479 0.272617,0.2263233 0.555521,0.2263233 0.226323,0 0.478365,-0.1337365 0.252042,-0.1388802 0.426928,-0.303479 0.18003,-0.1645987 0.344629,-0.2983352 0.169742,-0.1388802 0.246898,-0.1388802 z"
         style="font-style:normal;font-variant:normal;font-weight:bold;font-stretch:normal;font-size:5.14371157px;font-family:Purisa;-inkscape-font-specification:'Purisa, Bold';font-variant-ligatures:normal;font-variant-caps:normal;font-variant-numeric:normal;font-feature-settings:normal;text-align:start;writing-mode:lr-tb;text-anchor:start;stroke:#000000;stroke-width:0.25;stroke-miterlimit:4;stroke-dasharray:none;stroke-opacity:1"
         id="path6073"
         inkscape:connector-curvature="0" />
      <path
         d="m -37.789715,7.1573321 q 0,-0.087443 0.04629,-0.1491677 0.04629,-0.066868 0.113161,-0.066868 0.128593,0 0.226324,0.1800299 0.05658,0.1080179 0.246898,0.2057485 0.190317,0.092587 0.354916,0.092587 0.205748,0 0.375491,-0.2263233 0.174886,-0.2314671 0.174886,-0.3549161 0,-0.020575 -0.01543,-0.056581 -0.01543,-0.04115 -0.08744,-0.1080179 -0.06687,-0.066868 -0.174886,-0.09773 -0.174887,-0.051437 -0.380635,-0.1285928 -0.205749,-0.082299 -0.303479,-0.1028742 -0.154311,-0.030862 -0.406353,-0.2160359 -0.252042,-0.1851737 -0.252042,-0.3909221 0,-0.2057485 0.293191,-0.5298023 0.293192,-0.3240538 0.725264,-0.4166406 l 0.514371,-0.046293 q 0.13888,0 0.210892,0.036006 0.07201,0.030862 0.18003,0.1543114 0.174886,0.2006047 0.174886,0.2931915 0,0.1285928 -0.133736,0.1285928 -0.113162,0 -0.231467,-0.1183053 -0.113162,-0.1234491 -0.282904,-0.1234491 -0.231467,0 -0.483509,0.1337365 -0.246898,0.1285928 -0.390922,0.2726167 -0.144024,0.1388802 -0.144024,0.2006048 0,0.04115 0.05658,0.097731 0.06172,0.051437 0.200605,0.123449 0.144024,0.072012 0.339485,0.1285928 0.54009,0.1594551 0.745838,0.3137664 0.205749,0.1543114 0.205749,0.4320718 0,0.2417545 -0.08744,0.4372155 -0.07201,0.1697425 -0.282904,0.3497724 -0.210893,0.1851736 -0.432072,0.1851736 -0.159455,0 -0.416641,-0.046293 -0.252042,-0.04115 -0.390922,-0.1028742 -0.113162,-0.056581 -0.200605,-0.2006048 -0.08744,-0.1491676 -0.08744,-0.2829041 z"
         style="font-style:normal;font-variant:normal;font-weight:bold;font-stretch:normal;font-size:5.14371157px;font-family:Purisa;-inkscape-font-specification:'Purisa, Bold';font-variant-ligatures:normal;font-variant-caps:normal;font-variant-numeric:normal;font-feature-settings:normal;text-align:start;writing-mode:lr-tb;text-anchor:start;stroke:#000000;stroke-width:0.25;stroke-miterlimit:4;stroke-dasharray:none;stroke-opacity:1"
         id="path6075"
         inkscape:connector-curvature="0" />
      <path
         d="m -34.986795,7.1573321 q 0,-0.087443 0.04629,-0.1491677 0.04629,-0.066868 0.113162,-0.066868 0.128593,0 0.226323,0.1800299 0.05658,0.1080179 0.246898,0.2057485 0.190318,0.092587 0.354916,0.092587 0.205749,0 0.375491,-0.2263233 0.174886,-0.2314671 0.174886,-0.3549161 0,-0.020575 -0.01543,-0.056581 -0.01543,-0.04115 -0.08744,-0.1080179 -0.06687,-0.066868 -0.174886,-0.09773 -0.174886,-0.051437 -0.380635,-0.1285928 -0.205748,-0.082299 -0.303479,-0.1028742 -0.154311,-0.030862 -0.406353,-0.2160359 -0.252042,-0.1851737 -0.252042,-0.3909221 0,-0.2057485 0.293192,-0.5298023 0.293191,-0.3240538 0.725263,-0.4166406 l 0.514371,-0.046293 q 0.138881,0 0.210892,0.036006 0.07201,0.030862 0.18003,0.1543114 0.174887,0.2006047 0.174887,0.2931915 0,0.1285928 -0.133737,0.1285928 -0.113162,0 -0.231467,-0.1183053 -0.113162,-0.1234491 -0.282904,-0.1234491 -0.231467,0 -0.483509,0.1337365 -0.246898,0.1285928 -0.390922,0.2726167 -0.144024,0.1388802 -0.144024,0.2006048 0,0.04115 0.05658,0.097731 0.06172,0.051437 0.200605,0.123449 0.144024,0.072012 0.339485,0.1285928 0.540089,0.1594551 0.745838,0.3137664 0.205748,0.1543114 0.205748,0.4320718 0,0.2417545 -0.08744,0.4372155 -0.07201,0.1697425 -0.282904,0.3497724 -0.210892,0.1851736 -0.432072,0.1851736 -0.159455,0 -0.41664,-0.046293 -0.252042,-0.04115 -0.390922,-0.1028742 -0.113162,-0.056581 -0.200605,-0.2006048 -0.08744,-0.1491676 -0.08744,-0.2829041 z"
         style="font-style:normal;font-variant:normal;font-weight:bold;font-stretch:normal;font-size:5.14371157px;font-family:Purisa;-inkscape-font-specification:'Purisa, Bold';font-variant-ligatures:normal;font-variant-caps:normal;font-variant-numeric:normal;font-feature-settings:normal;text-align:start;writing-mode:lr-tb;text-anchor:start;stroke:#000000;stroke-width:0.25;stroke-miterlimit:4;stroke-dasharray:none;stroke-opacity:1"
         id="path6077"
         inkscape:connector-curvature="0" />
      <path
         d="m -30.625329,3.5670214 q 0.05144,0 0.128592,0.056581 0.0823,0.056581 0.0823,0.1337365 0,0.097731 -0.334342,0.411497 -0.334341,0.3086227 -0.468077,0.3086227 -0.01543,0 -0.04115,-0.00514 -0.02572,-0.00514 -0.07201,-0.046293 -0.04115,-0.04115 -0.04115,-0.1080179 0,-0.1080179 0.200605,-0.2983353 0.02572,-0.020575 0.0823,-0.072012 l 0.04629,-0.046293 q 0.02058,-0.020575 0.07716,-0.077156 0.06172,-0.056581 0.102874,-0.092587 0.04115,-0.036006 0.08744,-0.077156 0.05144,-0.04115 0.08744,-0.061724 0.04115,-0.025719 0.06172,-0.025719 z m 0.468077,1.8825984 q 0,-0.04115 -0.226323,-0.2108921 -0.164599,-0.1234491 -0.236611,-0.1543114 -0.06687,-0.030862 -0.195461,-0.030862 -0.257185,0 -0.380634,0.04115 -0.118306,0.036006 -0.252042,0.1645988 -0.396066,0.3857784 -0.40121,0.49894 0.02058,0.00514 0.08744,0.00514 0.49894,0 1.383659,-0.1748861 0.221179,-0.04115 0.221179,-0.1388803 z m 0.663539,0.8127065 q 0.09259,0 0.09259,0.1080179 0,0.1183054 -0.149168,0.339485 -0.149167,0.2160359 -0.298335,0.3497724 -0.576096,0.4937963 -1.188197,0.4937963 -0.504084,0 -0.910437,-0.3960658 -0.406354,-0.3960658 -0.406354,-1.0904669 0,-0.195461 0.05658,-0.3754909 0.108018,-0.3189101 0.483509,-0.6635388 0.375491,-0.3497724 0.72012,-0.3497724 0.09259,0 0.272617,0.015431 0.288047,0.020575 0.401209,0.051437 0.118305,0.030862 0.257186,0.1337365 0.164598,0.1183053 0.298335,0.3137664 0.133736,0.1903173 0.133736,0.3394849 0,0.1954611 -0.159455,0.2880479 -0.159455,0.092587 -0.540089,0.1697425 -0.49894,0.09773 -1.028743,0.1285927 l -0.447503,0.020575 v 0.1337365 q 0,0.1903173 0.0823,0.3343412 0.08744,0.144024 0.27776,0.303479 0.272617,0.2263233 0.555521,0.2263233 0.226323,0 0.478365,-0.1337365 0.252042,-0.1388802 0.426928,-0.303479 0.18003,-0.1645987 0.344629,-0.2983352 0.169742,-0.1388802 0.246898,-0.1388802 z"
         style="font-style:normal;font-variant:normal;font-weight:bold;font-stretch:normal;font-size:5.14371157px;font-family:Purisa;-inkscape-font-specification:'Purisa, Bold';font-variant-ligatures:normal;font-variant-caps:normal;font-variant-numeric:normal;font-feature-settings:normal;text-align:start;writing-mode:lr-tb;text-anchor:start;stroke:#000000;stroke-width:0.25;stroke-miterlimit:4;stroke-dasharray:none;stroke-opacity:1"
         id="path6079"
         inkscape:connector-curvature="0" />
      <path
         d="m -28.337021,6.2057454 q 0,0.267473 0.13888,0.4989401 0.144024,0.2263233 0.36006,0.2263233 0.308622,0 0.67897,-0.2726167 0.375491,-0.2726168 0.606958,-0.6892574 0.133736,-0.2417544 0.221179,-0.5452334 0.09259,-0.303479 0.09259,-0.4680778 0,-0.051437 -0.01029,-0.072012 -0.09259,-0.046293 -0.354916,-0.046293 -0.231467,0 -0.411497,0.046293 -0.452647,0.123449 -0.889862,0.5812394 -0.432072,0.4577903 -0.432072,0.7406945 z m 2.006047,2.1346403 q 0.190318,0 0.190318,-0.1543113 0,-0.3960658 -0.02572,-0.6532514 -0.02572,-0.2520418 -0.06687,-0.4320717 -0.03601,-0.18003 -0.04629,-0.2880479 -0.01543,-0.2417544 -0.03601,-0.3754909 -0.144024,0.1903173 -0.452646,0.4217843 -0.308623,0.2263233 -0.524659,0.303479 -0.252042,0.087443 -0.550377,0.087443 -0.185174,0 -0.303479,-0.04115 -0.113162,-0.04115 -0.282904,-0.1800299 -0.159455,-0.1337365 -0.231467,-0.2468982 -0.06687,-0.1183053 -0.102874,-0.3034789 -0.03601,-0.1903174 -0.03601,-0.3240539 0,-0.2057484 0.190317,-0.534946 0.190317,-0.3343412 0.324054,-0.49894 0.123449,-0.1543113 0.447503,-0.339485 0.324054,-0.1903173 0.570952,-0.2623293 0.262329,-0.082299 0.59667,-0.082299 0.416641,0 0.694401,0.1388802 0.282904,0.1388802 0.282904,0.4423592 0,0.159455 -0.07716,0.3806346 -0.07201,0.2160359 -0.07201,0.3703473 0,0.092587 0.01029,0.267473 0.01543,0.1697424 0.04629,0.5760957 0.03601,0.4012095 0.06172,0.802419 l 0.07716,1.0647483 -0.205749,0.1645987 q -0.159455,0.1337365 -0.334341,0.1337365 -0.308623,0 -0.740694,-0.1388802 -0.426928,-0.1388802 -0.740695,-0.3343412 -0.308622,-0.1954611 -0.308622,-0.3343413 0,-0.1800299 0.169742,-0.3857784 0.174886,-0.2057484 0.303479,-0.2057484 0.195461,0 0.195461,0.1440239 0,0.061724 -0.05144,0.1543113 -0.05144,0.092587 -0.05144,0.1645988 0,0.108018 0.174886,0.2006048 0.18003,0.092587 0.303479,0.092587 0.102874,0 0.288048,0.1028742 0.190317,0.1028742 0.313766,0.1028742 z"
         style="font-style:normal;font-variant:normal;font-weight:bold;font-stretch:normal;font-size:5.14371157px;font-family:Purisa;-inkscape-font-specification:'Purisa, Bold';font-variant-ligatures:normal;font-variant-caps:normal;font-variant-numeric:normal;font-feature-settings:normal;text-align:start;writing-mode:lr-tb;text-anchor:start;stroke:#000000;stroke-width:0.25;stroke-miterlimit:4;stroke-dasharray:none;stroke-opacity:1"
         id="path6081"
         inkscape:connector-curvature="0" />
    </g>
    <path
       inkscape:connector-curvature="0"
       d="m 108.94367,40.622215 c -0.0269,-0.244375 -0.0407,-0.490667 -0.0554,-0.736495 -0.0322,-0.387549 -0.0403,-0.767501 0.0247,-1.149662 0.16656,-0.593795 0.58961,-0.900111 1.02757,-1.151196 0.5124,-0.270709 1.05473,-0.373938 1.60843,-0.358924 0.56816,0.03995 1.00798,0.28761 1.42901,0.746423 0.37821,0.472394 0.54919,1.083392 0.66467,1.7157 0.12137,0.754192 -0.0233,1.403884 -0.28341,2.082645 -0.30489,0.709222 -0.7615,1.282343 -1.22931,1.829614 -0.49312,0.565352 -1.04124,1.04833 -1.60577,1.498113 -0.46797,0.361376 -0.96812,0.651892 -1.47635,0.915448 -0.29529,0.154424 -0.60041,0.275048 -0.91077,0.373383 -0.22697,0.07184 -0.17162,0.112047 -0.10138,-0.642599 8e-5,0 0.23123,-0.02785 0.34995,-0.04207 0.37645,-0.0453 0.75385,-0.07638 1.13134,-0.10453 0.41344,-0.03027 0.82734,-0.04964 1.24133,-0.06468 0.32436,-0.0115 0.64886,-0.01645 0.97335,-0.01796 0.21973,0 0.43944,0.003 0.65915,0.0061 0.14589,0.003 0.29178,0.0061 0.43766,0.01009 0.0652,0.003 0.0334,0 0.0954,0.003 1.93819,0.05055 1.92657,0.725658 -0.0116,0.675068 v 0 c -0.0621,-0.003 -0.0305,0 -0.0952,-0.003 -0.14469,-0.004 -0.28938,-0.0071 -0.43409,-0.01009 -0.21637,-0.004 -0.43273,-0.0071 -0.64912,-0.0061 -0.31984,0.003 -0.63965,0.0071 -0.95934,0.01766 -0.40833,0.01483 -0.81655,0.0338 -1.22435,0.06377 -0.37088,0.02754 -0.74168,0.05812 -1.11152,0.102644 -0.10079,0.01211 -0.35277,0.04994 -0.35594,0.04278 -0.28077,-0.636051 -0.33655,-0.602452 -0.0822,-0.684049 0.28444,-0.09 0.56408,-0.20008 0.83464,-0.341812 0.47877,-0.247846 0.95009,-0.520754 1.39128,-0.860095 0.53632,-0.426738 1.05729,-0.884673 1.52608,-1.420885 0.41962,-0.489729 0.83302,-0.999415 1.11192,-1.630825 0.20547,-0.522258 0.33877,-1.060256 0.2429,-1.645333 -0.0878,-0.494733 -0.20958,-0.98199 -0.49692,-1.360993 -0.30304,-0.347069 -0.65801,-0.544062 -1.07595,-0.572485 -0.46948,-0.01857 -0.92905,0.07265 -1.36466,0.297306 -0.27817,0.155423 -0.58164,0.329896 -0.72181,0.685702 -0.0636,0.313763 -0.0306,0.632923 -0.0129,0.952215 0.0134,0.225305 0.0263,0.450923 0.0494,0.675078 0.31872,2.354758 -0.22215,2.465746 -0.54086,0.111029 z"
       id="path3680"
       style="opacity:1;fill:#000000;fill-opacity:1;stroke:#000000;stroke-width:0.3013137;stroke-linecap:square;stroke-miterlimit:4;stroke-dasharray:none;stroke-dashoffset:0;stroke-opacity:1;paint-order:markers fill stroke" />
    <path
       inkscape:connector-curvature="0"
       d="m 61.379695,42.074378 c 0.21906,-0.251423 0.43491,-0.506524 0.6503,-0.762111 0.40526,-0.480368 0.78691,-0.985972 1.16178,-1.497872 0.34581,-0.467528 0.67123,-0.953672 0.97998,-1.454386 0.16949,-0.2806 0.32819,-0.570214 0.46285,-0.875169 0.12587,-0.308681 0.0485,-0.387342 0.59542,0.06947 0.0427,0.03569 -0.009,0.121363 -0.0151,0.181866 -0.008,0.07643 -0.0168,0.152728 -0.0254,0.229099 -0.0897,0.714843 -0.18726,1.428257 -0.2733,2.143749 -0.10528,0.879714 -0.18576,1.76291 -0.25604,2.647158 -0.0514,0.657505 -0.0886,1.316322 -0.11399,1.975837 -0.0872,2.263217 -0.64131,2.234731 -0.55409,-0.02838 v 0 c 0.0259,-0.669572 0.0635,-1.338455 0.11576,-2.005947 0.071,-0.894126 0.15249,-1.787185 0.25899,-2.676728 0.0858,-0.713259 0.18292,-1.424509 0.27251,-2.137107 0.008,-0.07003 0.0162,-0.140161 0.0234,-0.210404 0.005,-0.04972 -0.0295,-0.140106 0.013,-0.14963 0.67926,-0.151856 0.57747,-0.0679 0.45233,0.253127 -0.14766,0.332337 -0.31925,0.649323 -0.50489,0.955061 -0.31778,0.515089 -0.6525,1.015412 -1.00828,1.496447 -0.38326,0.523228 -0.77346,1.039988 -1.18776,1.530969 -0.21714,0.257641 -0.43473,0.514786 -0.65551,0.768252 -1.38663,1.60193 -1.77883,1.148823 -0.39221,-0.453107 z"
       id="path3690"
       style="opacity:1;fill:#000000;fill-opacity:1;stroke:#000000;stroke-width:0.31723428;stroke-linecap:square;stroke-miterlimit:4;stroke-dasharray:none;stroke-dashoffset:0;stroke-opacity:1;paint-order:markers fill stroke" />
    <path
       inkscape:connector-curvature="0"
       d="m 108.93418,103.85684 c -0.0826,-0.18811 -0.1349,-0.39156 -0.18123,-0.59597 -0.0853,-0.35265 -0.10246,-0.71225 -0.0786,-1.0763 0.035,-0.42212 0.17981,-0.77598 0.41963,-1.08036 0.28186,-0.30208 0.64066,-0.41306 1.00281,-0.48943 0.39483,-0.0707 0.77996,0.0107 1.15307,0.16469 0.3412,0.1531 0.61336,0.42551 0.84388,0.75751 0.18989,0.29391 0.29502,0.63774 0.35949,0.99762 0.0464,0.29707 0.0413,0.59915 0.0212,0.89887 -0.0155,0.20523 -0.0471,0.40791 -0.0859,0.60845 -0.0121,0.0368 -0.0147,0.0771 -0.0252,0.11457 -0.004,0.0117 0.009,-0.0239 0.007,-0.0361 -0.007,-0.0574 -10e-4,-0.12332 -0.0308,-0.16967 -0.0905,-0.14553 -0.11797,-0.14176 -0.21195,-0.158 0.18887,-0.0572 0.37929,-0.10635 0.57025,-0.15233 0.31224,-0.0732 0.62729,-0.12685 0.94289,-0.17388 0.28241,-0.049 0.56569,-0.0678 0.84988,-0.0373 0.36548,0.0545 0.54262,0.25818 0.68841,0.65404 0.12863,0.49967 0.14103,1.02829 0.13874,1.54735 -0.008,0.60781 -0.12049,1.19817 -0.2892,1.76797 -0.17414,0.54599 -0.45007,1.01988 -0.78163,1.442 -0.30726,0.3789 -0.69094,0.61989 -1.0976,0.80436 -0.32662,0.13967 -0.66884,0.19581 -1.01348,0.21047 -0.26791,0.005 -0.53435,-0.0325 -0.79917,-0.0769 -0.23911,-0.0301 -0.46611,-0.11152 -0.68368,-0.23196 -0.20955,-0.12068 -0.36807,-0.30662 -0.49212,-0.53939 -0.0816,-0.16851 -0.12135,-0.35512 -0.14551,-0.54602 -0.27651,-2.30989 0.26634,-2.404 0.54283,-0.0941 v 0 c 0.0108,0.10071 0.0293,0.19995 0.0681,0.29103 0.0624,0.12802 0.14652,0.22364 0.25828,0.29018 0.16738,0.0956 0.34316,0.15391 0.52808,0.17657 0.2336,0.0394 0.46856,0.0739 0.70491,0.0709 0.28531,-0.0104 0.56878,-0.0555 0.83969,-0.16902 0.32961,-0.14679 0.6422,-0.3362 0.89235,-0.64112 0.2813,-0.35289 0.51345,-0.75195 0.66274,-1.21002 0.15008,-0.49863 0.24783,-1.01667 0.25694,-1.54932 0.003,-0.43204 -0.006,-0.87092 -0.0974,-1.29135 -0.0449,-0.15697 -0.0815,-0.23083 -0.23254,-0.24842 -0.24452,-0.0294 -0.48834,-0.005 -0.73135,0.0352 -0.30216,0.0449 -0.60381,0.0962 -0.90277,0.16611 -0.20202,0.0485 -0.40258,0.10448 -0.60347,0.15906 -0.32344,0.0132 -0.43386,-0.22203 -0.34785,-0.55482 0.0329,-0.16899 0.0599,-0.33984 0.0734,-0.51283 0.0165,-0.23599 0.023,-0.47402 -0.0112,-0.70852 -0.0433,-0.25611 -0.11439,-0.50215 -0.24603,-0.71376 -0.16261,-0.24219 -0.35697,-0.44016 -0.60121,-0.55403 -0.28377,-0.12166 -0.57745,-0.18722 -0.87943,-0.1375 -0.24777,0.0503 -0.50171,0.11121 -0.70473,0.30163 -0.15897,0.18198 -0.23841,0.41057 -0.26429,0.67299 -0.0218,0.28751 -0.006,0.56992 0.0615,0.84859 0.0344,0.15467 0.0726,0.30904 0.13329,0.45228 0.92851,2.04876 0.44704,2.36486 -0.48147,0.31606 z"
       id="path3682"
       style="opacity:1;fill:#000000;fill-opacity:1;stroke:#000000;stroke-width:0.30000001;stroke-linecap:square;stroke-miterlimit:4;stroke-dasharray:none;stroke-dashoffset:0;stroke-opacity:1;paint-order:markers fill stroke" />
    <path
       style="opacity:1;fill:#00000f;fill-opacity:1;stroke:#00000f;stroke-width:0;stroke-linecap:square;stroke-miterlimit:4;stroke-dasharray:none;stroke-dashoffset:0;stroke-opacity:1;paint-order:markers fill stroke;enable-background:new"
       id="path1803-3-1"
       d="m 100.1445,118.61742 0.42399,-0.4628 1.45388,-1.58694 1.72613,-1.88413 c 0.42977,-0.46318 0.84847,-0.93649 1.28413,-1.39426 1.61637,-1.41019 0.77275,-1.95919 -0.5977,-0.54802 -0.43551,0.45807 -0.85452,0.93126 -1.28436,1.39452 l -1.72614,1.88414 -1.45388,1.58694 -0.423991,0.4628 c -0.294842,0.32183 0.303121,0.86966 0.597961,0.54783 z"
       inkscape:connector-curvature="0"
       sodipodi:nodetypes="cccccccccscc" />
    <path
       style="opacity:1;fill:#00000f;fill-opacity:1;stroke:#00000f;stroke-width:0.18912004;stroke-linecap:square;stroke-miterlimit:4;stroke-dasharray:none;stroke-dashoffset:0;stroke-opacity:1;paint-order:markers fill stroke;enable-background:new"
       id="path1838-5-93-67-9"
       d="m 106.854,114.71707 c 0.0111,-0.13854 0.001,-0.27623 -0.004,-0.41354 -0.0138,-0.28706 -0.029,-0.57396 -0.0473,-0.86041 -0.0215,-0.317 -0.0303,-0.63568 -0.0378,-0.95438 -0.005,-0.27855 6.9e-4,-0.558 0.002,-0.83703 1.3e-4,-0.19193 0.004,-0.38584 -0.0371,-0.57093 -0.0264,-0.11004 -0.0881,-0.18529 -0.17863,-0.24435 -0.13224,-0.0752 -0.28524,-0.1034 -0.43705,-0.12598 -0.21073,-0.0252 -0.42558,-0.02 -0.63988,-0.009 -0.25009,0.0143 -0.50023,0.0428 -0.75009,0.0741 -0.24877,0.033 -0.49699,0.0732 -0.74469,0.11964 -0.2277,0.0417 -0.45531,0.0843 -0.68278,0.1281 -0.19938,0.0396 -0.39881,0.079 -0.59782,0.12163 -0.117,0.0257 -0.0592,0.0129 -0.17354,0.0386 -2.1461,0.48179 -2.23257,-0.12048 -0.0865,-0.60227 v 0 c 0.11831,-0.0266 0.0583,-0.0133 0.1797,-0.0399 0.20329,-0.0435 0.40699,-0.0838 0.61064,-0.12424 0.22854,-0.044 0.45722,-0.0868 0.68598,-0.12872 0.26019,-0.0487 0.52094,-0.091 0.78226,-0.12551 0.2653,-0.0332 0.53092,-0.0632 0.79647,-0.0781 0.25459,-0.0124 0.50978,-0.0171 0.75966,0.0153 0.24056,0.0375 0.47857,0.0923 0.6804,0.22471 0.19773,0.14833 0.34135,0.33388 0.39689,0.58578 0.0442,0.22658 0.0541,0.45903 0.0492,0.69365 -9.4e-4,0.27349 -0.007,0.54736 -0.002,0.82037 0.007,0.31053 0.0158,0.62104 0.0368,0.92989 0.0186,0.29177 0.0342,0.58397 0.0481,0.87636 0.006,0.17082 0.0176,0.34228 -6.6e-4,0.51475 -0.27372,2.18092 -0.88195,2.15277 -0.60822,-0.0281 z"
       inkscape:connector-curvature="0" />
    <path
       style="opacity:1;fill:#ffa669;fill-opacity:1;stroke:#ff9243;stroke-width:0.35590073;stroke-linecap:square;stroke-miterlimit:4;stroke-dasharray:none;stroke-dashoffset:0;stroke-opacity:1;paint-order:markers fill stroke;enable-background:new"
       id="path1838-5-93-6-3"
       d="m 20.163961,19.222663 c -0.1555,-0.213251 -0.33794,-0.397941 -0.51373,-0.588111 -0.37159,-0.39357 -0.74488,-0.78506 -1.12173,-1.17187 -0.4187,-0.42641 -0.82247,-0.87195 -1.22454,-1.31913 -0.34947,-0.39276 -0.68534,-0.80119 -1.027229,-1.20267 -0.23589,-0.27541 -0.46972,-0.55808 -0.751961,-0.77015 -0.170799,-0.12319 -0.346159,-0.14989 -0.54031,-0.11583 -0.26997,0.0662 -0.5101,0.22652 -0.74166,0.39359 -0.31389,0.24077 -0.59593,0.53053 -0.87041,0.82748 -0.31818,0.34912 -0.61895,0.71867 -0.91582,1.0919 -0.2934,0.37418 -0.57719,0.75806 -0.85261,1.1501 -0.25443,0.35897 -0.50757,0.71913 -0.759,1.0809 -0.21891,0.31884 -0.43824,0.637351 -0.65297,0.959991 -0.12547,0.19066 -0.0635,0.0962 -0.18554,0.28335 -2.2884798,3.51093 -3.1453198,2.76073 -0.8568197,-0.750211 v 0 c 0.12613,-0.19352 0.062,-0.0957 0.1921399,-0.29337 0.2194001,-0.32952 0.4433401,-0.65494 0.6669698,-0.98058 0.25267,-0.36342 0.50698,-0.72531 0.7626,-1.08598 0.28937,-0.4117 0.58741,-0.81498 0.89575,-1.20786 0.31531,-0.39626 0.63495,-0.78833 0.97313,-1.15865 0.32651,-0.35228 0.66334,-0.69434 1.03866,-0.97621 0.36911,-0.26221 0.75591,-0.4965 1.18975,-0.57174 0.447871,-0.0471 0.8689,0.0303 1.25323,0.31864 0.337981,0.26694 0.63717,0.58728 0.9191,0.93029 0.33508,0.39348 0.66432,0.79372 1.00654,1.17899 0.39175,0.43573 0.78502,0.86998 1.19298,1.28542 0.38382,0.39405 0.76407,0.79266 1.14245,1.19371 0.21868,0.23654 0.44451,0.4678 0.63216,0.73913 2.3148,3.487731 1.46364,4.246511 -0.85113,0.758801 z"
       inkscape:connector-curvature="0" />
  </g>
</svg>
