<?xml version="1.0" encoding="UTF-8" standalone="no"?>
<svg
   xmlns:dc="http://purl.org/dc/elements/1.1/"
   xmlns:cc="http://creativecommons.org/ns#"
   xmlns:rdf="http://www.w3.org/1999/02/22-rdf-syntax-ns#"
   xmlns:svg="http://www.w3.org/2000/svg"
   xmlns="http://www.w3.org/2000/svg"
   xmlns:sodipodi="http://sodipodi.sourceforge.net/DTD/sodipodi-0.dtd"
   xmlns:inkscape="http://www.inkscape.org/namespaces/inkscape"
   sodipodi:docname="tolerance.svg"
   inkscape:version="1.0 (4035a4fb49, 2020-05-01)"
   id="svg8"
   version="1.1"
   viewBox="0 0 155.07471 153.96912"
   height="153.96912mm"
   width="155.07471mm">
  <defs
     id="defs2">
    <inkscape:path-effect
       is_visible="true"
       id="path-effect849"
       effect="spiro" />
    <inkscape:path-effect
       simplifyJustCoalesce="false"
       simplifyindividualpaths="false"
       simplify_just_coalesce="false"
       simplify_individual_paths="false"
       helper_size="0"
       smooth_angles="360"
       threshold="0.0161538"
       steps="1"
       is_visible="true"
       id="path-effect847"
       effect="simplify" />
    <inkscape:path-effect
       is_visible="true"
       id="path-effect843"
       effect="spiro" />
    <inkscape:path-effect
       simplifyJustCoalesce="false"
       simplifyindividualpaths="false"
       simplify_just_coalesce="false"
       simplify_individual_paths="false"
       helper_size="0"
       smooth_angles="360"
       threshold="0.0161538"
       steps="1"
       is_visible="true"
       id="path-effect841"
       effect="simplify" />
    <inkscape:path-effect
       is_visible="true"
       id="path-effect837"
       effect="spiro" />
    <inkscape:path-effect
       simplifyJustCoalesce="false"
       simplifyindividualpaths="false"
       simplify_just_coalesce="false"
       simplify_individual_paths="false"
       helper_size="0"
       smooth_angles="360"
       threshold="0.0161538"
       steps="1"
       is_visible="true"
       id="path-effect835"
       effect="simplify" />
    <inkscape:path-effect
       is_visible="true"
       id="path-effect831"
       effect="spiro" />
    <inkscape:path-effect
       simplifyJustCoalesce="false"
       simplifyindividualpaths="false"
       simplify_just_coalesce="false"
       simplify_individual_paths="false"
       helper_size="0"
       smooth_angles="360"
       threshold="0.0205479"
       steps="1"
       is_visible="true"
       id="path-effect829"
       effect="simplify" />
    <inkscape:path-effect
       is_visible="true"
       id="path-effect825"
       effect="spiro" />
    <inkscape:path-effect
       simplifyJustCoalesce="false"
       simplifyindividualpaths="false"
       simplify_just_coalesce="false"
       simplify_individual_paths="false"
       helper_size="0"
       smooth_angles="360"
       threshold="0.0205479"
       steps="1"
       is_visible="true"
       id="path-effect823"
       effect="simplify" />
    <inkscape:path-effect
       is_visible="true"
       id="path-effect819"
       effect="spiro" />
    <inkscape:path-effect
       simplifyJustCoalesce="false"
       simplifyindividualpaths="false"
       simplify_just_coalesce="false"
       simplify_individual_paths="false"
       helper_size="0"
       smooth_angles="360"
       threshold="0.0205479"
       steps="1"
       is_visible="true"
       id="path-effect817"
       effect="simplify" />
  </defs>
  <sodipodi:namedview
     inkscape:document-rotation="0"
     inkscape:guide-bbox="true"
     showguides="true"
     inkscape:window-maximized="1"
     inkscape:window-y="34"
     inkscape:window-x="0"
     inkscape:window-height="838"
     inkscape:window-width="1600"
     showgrid="false"
     inkscape:current-layer="layer1"
     inkscape:document-units="mm"
     inkscape:cy="314.37108"
     inkscape:cx="550.32669"
     inkscape:zoom="0.69244517"
     inkscape:pageshadow="2"
     inkscape:pageopacity="0.0"
     borderopacity="1.0"
     bordercolor="#666666"
     pagecolor="#ffffff"
     id="base" />
  <metadata
     id="metadata5">
    <rdf:RDF>
      <cc:Work
         rdf:about="">
        <dc:format>image/svg+xml</dc:format>
        <dc:type
           rdf:resource="http://purl.org/dc/dcmitype/StillImage" />
        <dc:title />
      </cc:Work>
    </rdf:RDF>
  </metadata>
  <g
     transform="translate(1.6795641,307.98057)"
     id="layer1"
     inkscape:groupmode="layer"
     inkscape:label="Layer 1">
    <path
       sodipodi:nodetypes="cscccsc"
       inkscape:original-d="m 15.321611,-178.96322 c 8.310242,-0.53119 11.523673,-10.87953 19.771376,-11.5359 23.68573,-1.88494 16.004999,-28.77176 19.302021,-35.33135 0.143847,-28.54447 23.108506,-24.25888 34.743606,-21.50532 0.900583,0.0854 -0.638092,-0.25389 0,0 6.574426,2.61604 10.294409,11.38425 10.294409,14.84892 0,13.80696 -0.0487,46.59435 32.557587,53.08154"
       inkscape:path-effect="#path-effect835;#path-effect837"
       inkscape:connector-curvature="0"
       id="path833"
       d="m 15.321611,-178.96322 c 9.731042,-0.81207 19.092314,-5.44433 25.640833,-12.68792 6.812848,-7.53597 10.425737,-17.46598 12.401562,-27.43101 0.971499,-4.89974 1.589227,-9.88063 2.966555,-14.68211 1.377327,-4.80148 3.593353,-9.49995 7.249053,-12.90393 3.419881,-3.1844 8.020079,-5.07129 12.691075,-5.20464 4.670996,-0.13335 9.371655,1.48821 12.966359,4.47386 3.040011,2.52494 5.249931,5.93676 6.823861,9.56164 1.573929,3.62488 2.54655,7.47837 3.433706,11.32934 1.922645,8.34581 3.495335,16.83873 6.797065,24.74112 3.30173,7.90238 8.57308,15.31657 16.12915,19.3483 2.96749,1.58338 6.23045,2.61079 9.56978,3.01324"
       style="fill:#00887a;fill-opacity:1;stroke:#000000;stroke-width:1.16807604;stroke-linecap:butt;stroke-linejoin:miter;stroke-miterlimit:4;stroke-dasharray:none;stroke-opacity:1" />
    <path
       sodipodi:nodetypes="cccccccccscc"
       inkscape:connector-curvature="0"
       d="m 10.993881,-181.96185 v -7.63813 -26.19122 -31.09605 c -0.0092,-7.68893 0.01608,-15.37794 -0.01043,-23.06688 -0.550706,-25.94096 1.735064,-23.93219 1.866823,-0.003 0.02701,7.69038 0.0023,15.38078 0.01043,23.07113 v 31.09604 26.19124 7.63812 c 0,5.31156 -1.866971,5.31156 -1.866971,0 z"
       id="path1803"
       style="opacity:1;fill:#ffa669;fill-opacity:1;stroke:#ff9243;stroke-width:0.57135338;stroke-linecap:square;stroke-miterlimit:4;stroke-dasharray:none;stroke-dashoffset:0;stroke-opacity:1;paint-order:markers fill stroke;enable-background:new" />
    <path
       inkscape:connector-curvature="0"
       d="m 142.39468,-173.07106 c 0.22489,-0.16628 0.41963,-0.36137 0.62016,-0.54935 0.415,-0.39738 0.82782,-0.79657 1.23572,-1.19958 0.44962,-0.44775 0.91943,-0.87953 1.391,-1.3095 0.41416,-0.37372 0.84485,-0.73289 1.2682,-1.09851 0.29041,-0.25225 0.58848,-0.5023 0.8121,-0.80414 0.12985,-0.18265 0.15806,-0.37017 0.12207,-0.57779 -0.0696,-0.28871 -0.23885,-0.54549 -0.41502,-0.79312 -0.25389,-0.33567 -0.55946,-0.63728 -0.87258,-0.93082 -0.36813,-0.34025 -0.75781,-0.66188 -1.15139,-0.97937 -0.39458,-0.31373 -0.79934,-0.61723 -1.21274,-0.91175 -0.37852,-0.27208 -0.75832,-0.54278 -1.13981,-0.81167 -0.33622,-0.23409 -0.67207,-0.46864 -1.01229,-0.69827 -0.20103,-0.13419 -0.10141,-0.0679 -0.29876,-0.19841 -3.70224,-2.44727 -2.91118,-3.36357 0.79105,-0.91628 v 0 c 0.20409,0.13487 0.10099,0.0663 0.30939,0.20547 0.34744,0.23462 0.6906,0.47411 1.03397,0.71325 0.38323,0.2702 0.76485,0.54217 1.14515,0.8155 0.43414,0.30947 0.85939,0.62819 1.27367,0.95791 0.41787,0.3372 0.83128,0.67902 1.22177,1.04065 0.3715,0.34917 0.73219,0.70938 1.02943,1.11074 0.27648,0.39472 0.52355,0.80836 0.60286,1.2723 0.0496,0.47895 -0.032,0.9292 -0.336,1.3402 -0.28147,0.36143 -0.61928,0.68136 -0.98096,0.98287 -0.41493,0.35833 -0.83698,0.71041 -1.24323,1.07637 -0.45948,0.41894 -0.91739,0.83949 -1.35546,1.27576 -0.41552,0.41045 -0.83583,0.81709 -1.25873,1.22172 -0.24944,0.23385 -0.4933,0.47535 -0.77941,0.67602 -3.67775,2.47542 -4.47787,1.56521 -0.80016,-0.9102 z"
       id="path1838-5-93-6"
       style="opacity:1;fill:#ffa669;fill-opacity:1;stroke:#ff9243;stroke-width:0.37793419;stroke-linecap:square;stroke-miterlimit:4;stroke-dasharray:none;stroke-dashoffset:0;stroke-opacity:1;paint-order:markers fill stroke;enable-background:new" />
    <rect
       y="-284.72827"
       x="-1.6795641"
       height="130.71681"
       width="154.24471"
       id="rect4062"
       style="opacity:0.87300002;vector-effect:none;fill:#ffffff;fill-opacity:0;fill-rule:nonzero;stroke:none;stroke-width:1.18963933;stroke-linecap:round;stroke-linejoin:miter;stroke-miterlimit:4;stroke-dasharray:none;stroke-dashoffset:0;stroke-opacity:0.82745098;paint-order:markers fill stroke" />
    <path
       sodipodi:nodetypes="cccccccccscc"
       inkscape:connector-curvature="0"
       d="m 26.179547,-259.70959 h 7.635787 26.18319 31.086488 c 7.686581,-0.008 15.373228,0.0125 23.059798,-0.009 25.93302,-0.4281 23.92483,1.34876 0.004,1.45116 -7.68799,0.021 -15.376037,0.002 -23.064027,0.009 H 59.998069 33.814867 26.1791 c -5.309938,0 -5.309938,-1.45129 0,-1.45129 z"
       id="path1803-3"
       style="opacity:1;fill:#00887a;fill-opacity:1;stroke:#00887a;stroke-width:0.45451543;stroke-linecap:square;stroke-miterlimit:4;stroke-dasharray:none;stroke-dashoffset:0;stroke-opacity:1;paint-order:markers fill stroke;enable-background:new" />
    <path
       inkscape:connector-curvature="0"
       d="m 128.96527,-253.41802 c 0.23091,-0.16198 0.43081,-0.35203 0.63666,-0.53514 0.42605,-0.38708 0.84986,-0.77591 1.26861,-1.16847 0.46161,-0.43615 0.94388,-0.85675 1.428,-1.27558 0.42518,-0.36404 0.86733,-0.7139 1.30192,-1.07006 0.29815,-0.24572 0.60416,-0.48929 0.8337,-0.78329 0.13331,-0.17791 0.16226,-0.36059 0.12532,-0.56284 -0.0715,-0.28123 -0.24519,-0.53133 -0.42607,-0.77256 -0.26063,-0.32696 -0.57431,-0.62076 -0.89576,-0.9067 -0.37794,-0.33143 -0.77796,-0.64474 -1.182,-0.95399 -0.40511,-0.3056 -0.82061,-0.60121 -1.24505,-0.8881 -0.38859,-0.26504 -0.77849,-0.52873 -1.17011,-0.79068 -0.34514,-0.22803 -0.68996,-0.45648 -1.03921,-0.68017 -0.20637,-0.1307 -0.10415,-0.0663 -0.30671,-0.19328 -3.80072,-2.38386 -2.98861,-3.27638 0.81211,-0.89253 v 0 c 0.20949,0.13139 0.10363,0.0645 0.31758,0.20019 0.35671,0.22853 0.70898,0.46178 1.06147,0.69474 0.39346,0.26318 0.78522,0.5281 1.17563,0.79437 0.44571,0.30146 0.88225,0.61192 1.30757,0.93311 0.42895,0.32843 0.85339,0.6614 1.25428,1.01367 0.38138,0.34013 0.75164,0.69099 1.05677,1.08194 0.28385,0.3845 0.53747,0.78742 0.61893,1.23936 0.0509,0.46652 -0.0329,0.90508 -0.34496,1.30546 -0.28893,0.35207 -0.63576,0.66372 -1.00706,0.9574 -0.42596,0.34905 -0.85923,0.69201 -1.27629,1.04849 -0.47171,0.40807 -0.94179,0.81773 -1.39151,1.24271 -0.42657,0.39979 -0.85808,0.79592 -1.29222,1.19004 -0.25608,0.22781 -0.50642,0.46306 -0.80015,0.65852 -3.77554,2.41128 -4.59699,1.52467 -0.82145,-0.88661 z"
       id="path1838-5-93-67"
       style="opacity:1;fill:#00887a;fill-opacity:1;stroke:#00887a;stroke-width:0.37793419;stroke-linecap:square;stroke-miterlimit:4;stroke-dasharray:none;stroke-dashoffset:0;stroke-opacity:1;paint-order:markers fill stroke;enable-background:new" />
    <path
       inkscape:connector-curvature="0"
       d="m 23.786169,-253.78004 c -0.230902,-0.16199 -0.43081,-0.35204 -0.636658,-0.53515 -0.426058,-0.38707 -0.84987,-0.77593 -1.268604,-1.16848 -0.461607,-0.43615 -0.943885,-0.85674 -1.428014,-1.27557 -0.425167,-0.36404 -0.867323,-0.71391 -1.301919,-1.07005 -0.298135,-0.24572 -0.604148,-0.48929 -0.833697,-0.7833 -0.133298,-0.1779 -0.162254,-0.36058 -0.125319,-0.56284 0.07154,-0.28123 0.245188,-0.53133 0.426078,-0.77258 0.260622,-0.32693 0.574318,-0.62073 0.895754,-0.90667 0.377944,-0.33144 0.777961,-0.64475 1.182,-0.95399 0.405103,-0.30562 0.820614,-0.60122 1.245052,-0.88812 0.388584,-0.26503 0.778489,-0.52871 1.170104,-0.79066 0.345147,-0.22803 0.689963,-0.45649 1.039217,-0.68017 0.206367,-0.1307 0.104121,-0.0663 0.306709,-0.19329 3.800719,-2.38386 2.988602,-3.27639 -0.812116,-0.89253 v 0 c -0.209488,0.1314 -0.103626,0.0646 -0.317578,0.20019 -0.356703,0.22852 -0.708984,0.46177 -1.061471,0.69474 -0.393453,0.26318 -0.785214,0.5281 -1.175632,0.79438 -0.445701,0.30144 -0.882244,0.61191 -1.307558,0.93311 -0.428951,0.32842 -0.853394,0.66139 -1.254287,1.01366 -0.381366,0.34013 -0.751643,0.69099 -1.05676,1.08194 -0.28386,0.38451 -0.537475,0.78742 -0.618934,1.23935 -0.05094,0.46653 0.03283,0.90509 0.344951,1.30546 0.288932,0.35208 0.635766,0.66373 1.007061,0.95741 0.425962,0.34905 0.859234,0.69201 1.276291,1.04849 0.47171,0.40806 0.941785,0.81773 1.391517,1.2427 0.426561,0.39979 0.858082,0.79593 1.292214,1.19005 0.256087,0.2278 0.50641,0.46305 0.800145,0.65853 3.775553,2.41127 4.596993,1.52467 0.821454,-0.88661 z"
       id="path1838-5-93-67-5"
       style="opacity:1;fill:#00887a;fill-opacity:1;stroke:#00887a;stroke-width:0.37793419;stroke-linecap:square;stroke-miterlimit:4;stroke-dasharray:none;stroke-dashoffset:0;stroke-opacity:1;paint-order:markers fill stroke;enable-background:new" />
    <g
       style="font-style:normal;font-variant:normal;font-weight:normal;font-stretch:normal;font-size:6.18107px;line-height:1.25;font-family:Purisa;-inkscape-font-specification:'Purisa, Normal';font-variant-ligatures:normal;font-variant-caps:normal;font-variant-numeric:normal;font-feature-settings:normal;text-align:start;letter-spacing:0px;word-spacing:0px;writing-mode:lr-tb;text-anchor:start;fill:#000000;fill-opacity:1;stroke:#050f0e;stroke-width:0.584038;stroke-miterlimit:4;stroke-dasharray:none;stroke-opacity:1"
       id="text2727"
       transform="matrix(0,-1.1601997,0.86192059,0,0,0)"
       aria-label="Gyakoriság">
      <path
         id="path3196"
         style="font-style:normal;font-variant:normal;font-weight:normal;font-stretch:normal;font-size:6.18107px;font-family:Purisa;-inkscape-font-specification:'Purisa, Normal';font-variant-ligatures:normal;font-variant-caps:normal;font-variant-numeric:normal;font-feature-settings:normal;text-align:start;writing-mode:lr-tb;text-anchor:start;stroke:#050f0e;stroke-width:0.584038;stroke-miterlimit:4;stroke-dasharray:none;stroke-opacity:1"
         d="m 209.06739,6.0290722 q -0.1978,0 -0.38941,-0.074173 -0.19161,-0.074173 -0.19161,-0.2410618 0,-0.1050782 0.0927,-0.1607078 0.0927,-0.05563 0.21016,-0.092716 0.11744,-0.037087 0.14834,-0.092716 0.0309,-0.049448 0.21634,-0.049448 0.24106,0 0.56866,0.074173 0.3276,0.074173 0.43267,0.1607078 0.17926,0.1483457 0.27197,0.7479095 0.0989,0.5995637 0.0989,1.3783785 0,0.4079507 -0.11126,0.4821235 -0.0495,0.043268 -0.11126,0.043268 -0.0618,0 -0.1298,-0.061811 -0.12362,-0.1174403 -0.12362,-0.8035391 V 6.634817 l -0.1978,0.3275967 q -0.35232,0.5810206 -0.79736,0.9086173 -0.44503,0.3214156 -0.85916,0.3214156 -0.24107,0 -0.45122,-0.1174403 -0.16071,-0.086535 -0.24106,-0.2039753 -0.0742,-0.1236214 -0.15453,-0.4264938 -0.0927,-0.3214156 -0.0927,-0.5872016 0,-0.1854321 0.0371,-0.4883046 0.0618,-0.4944856 0.17307,-0.7788148 0.11744,-0.2843292 0.45122,-0.7788148 0.23488,-0.3461399 0.51303,-0.5933827 0.27814,-0.2472428 0.47594,-0.3399588 0.20397,-0.092716 0.36468,-0.17307 0.16689,-0.086535 0.20398,-0.1483456 0.0618,-0.1050782 0.31523,-0.1050782 0.27197,0 0.44504,0.1174403 0.17925,0.1112592 0.17925,0.2286996 0,0.074173 -0.0742,0.2225185 -0.0742,0.1421646 -0.15453,0.1421646 -0.068,0 -0.11126,-0.1421646 -0.0433,-0.1483457 -0.13598,-0.1483457 -0.0927,0 -0.23488,0.037086 -0.14217,0.037087 -0.36469,0.1545268 -0.21633,0.1174403 -0.43885,0.2905103 -0.21634,0.1730699 -0.46976,0.4883045 -0.25343,0.3090535 -0.4574,0.7046419 -0.18544,0.3585021 -0.2287,0.5377531 -0.0433,0.179251 -0.0433,0.5995638 0,0.6057448 0.10508,0.8282634 0.10508,0.2163374 0.39559,0.2163374 0.6181,0 1.01987,-0.531572 0.1978,-0.265786 0.33996,-0.5748395 0.14217,-0.3090535 0.14217,-0.4697613 0,-0.098897 -0.0804,-0.17307 -0.0742,-0.080354 -0.15452,-0.080354 -0.0494,0 -0.13599,0.067992 -0.0803,0.061811 -0.26578,0.061811 z" />
      <path
         id="path3198"
         style="font-style:normal;font-variant:normal;font-weight:normal;font-stretch:normal;font-size:6.18107px;font-family:Purisa;-inkscape-font-specification:'Purisa, Normal';font-variant-ligatures:normal;font-variant-caps:normal;font-variant-numeric:normal;font-feature-settings:normal;text-align:start;writing-mode:lr-tb;text-anchor:start;stroke:#050f0e;stroke-width:0.584038;stroke-miterlimit:4;stroke-dasharray:none;stroke-opacity:1"
         d="m 211.84886,6.3752121 q 0,0.4821235 0.0433,0.7170041 0.0433,0.2286996 0.16689,0.2286996 0.11744,0 0.38322,-0.2905103 0.27197,-0.2905103 0.38323,-0.5439341 0.14216,-0.3090535 0.2287,-0.7417284 0.0865,-0.438856 0.15453,-0.6675556 0.068,-0.2286995 0.20397,-0.2286995 0.068,0 0.12362,0.05563 0.0556,0.05563 0.0556,0.1421646 0,0.098897 -0.14216,0.6490123 -0.13599,0.5501152 -0.13599,1.1558601 0,0.1977942 0.0186,0.3770452 l 0.0433,0.1792511 0.1978,-0.098897 q 0.15453,-0.067992 0.24106,-0.067992 0.16071,0 0.16071,0.1174403 0,0.1483457 -0.25961,0.2843292 l -0.25342,0.1298025 0.0309,0.6922798 q -0.0371,1.0940494 -0.0804,1.1558601 -0.0433,0.074173 -0.15453,0.074173 -0.1298,0 -0.3894,-0.1112592 -0.14835,-0.067992 -0.23488,-0.1483457 -0.0804,-0.080354 -0.15453,-0.2348807 -0.17307,-0.352321 -0.17307,-0.6304691 0,-0.098897 0.0185,-0.1545267 0.0185,-0.049449 0.0927,-0.1668889 0.0742,-0.1112593 0.13598,-0.2225185 0.0556,-0.1050782 0.17925,-0.17307 0.12981,-0.074173 0.16071,-0.1112593 0.0495,-0.049449 0.0927,-0.080354 0.0495,-0.030905 0.0618,-0.043267 0.0124,-0.012362 0.0124,-0.043267 0,-0.074173 -0.0371,-0.2781482 -0.0371,-0.2101564 -0.0927,-0.2101564 -0.0371,0 -0.16689,0.1545268 -0.1298,0.1483457 -0.3276,0.3028724 -0.19779,0.1483457 -0.39559,0.1483457 -0.24724,0 -0.40795,-0.2905103 -0.0804,-0.1483457 -0.10508,-0.3399588 -0.0185,-0.1916132 -0.0185,-0.8097202 0.006,-0.6984609 0.0494,-0.9518847 0.0495,-0.259605 0.17925,-0.259605 0.0742,0 0.0989,0.086535 0.0247,0.080354 0.0247,0.3770453 0,0.1174403 -0.006,0.4017695 -0.006,0.2843292 -0.006,0.4697613 z m 0.8159,2.4538847 q 0,0.1112593 0.16689,0.2905103 0.17307,0.1854321 0.25961,0.1854321 0.0927,0 0.0927,-0.4326749 -0.006,-0.1174403 -0.0433,-0.2905103 -0.0309,-0.1730699 -0.0371,-0.2410617 l -0.0371,-0.3708642 -0.17307,0.265786 q -0.2287,0.3585021 -0.2287,0.5933827 z" />
      <path
         id="path3200"
         style="font-style:normal;font-variant:normal;font-weight:normal;font-stretch:normal;font-size:6.18107px;font-family:Purisa;-inkscape-font-specification:'Purisa, Normal';font-variant-ligatures:normal;font-variant-caps:normal;font-variant-numeric:normal;font-feature-settings:normal;text-align:start;writing-mode:lr-tb;text-anchor:start;stroke:#050f0e;stroke-width:0.584038;stroke-miterlimit:4;stroke-dasharray:none;stroke-opacity:1"
         d="m 216.54647,5.0771874 q -0.28433,0 -0.60575,0.1174404 -0.31523,0.1174403 -0.56247,0.2410617 -0.24725,0.1174403 -0.35851,0.1174403 -0.0742,0 -0.0742,-0.061811 0,-0.086535 0.0371,-0.1483457 0.0371,-0.061811 0.13598,-0.1174403 0.0989,-0.05563 0.18543,-0.092716 0.0927,-0.037086 0.29051,-0.1050782 0.1978,-0.074173 0.33996,-0.1359836 0.33378,-0.1298024 0.56248,-0.1298024 0.40795,0 0.63665,0.445037 0.11126,0.2163374 0.1298,0.4017695 0.0185,0.1792511 0.0309,1.0198766 0.006,0.4697613 0.0185,0.7911769 0.0124,0.3152346 0.0247,0.4017695 l 0.0124,0.080354 q 0,0.086535 -0.0804,0.1854321 -0.0742,0.098897 -0.11126,0.098897 -0.12362,0 -0.19161,-0.3894074 -0.068,-0.3955885 -0.0742,-0.3955885 -0.0186,0 -0.0556,0.067992 -0.12362,0.2039753 -0.50067,0.4512181 -0.37086,0.2410617 -0.62429,0.2410617 -0.15452,0 -0.36468,-0.05563 -0.20398,-0.061811 -0.29669,-0.1298025 -0.068,-0.05563 -0.11744,-0.2225185 -0.0433,-0.1668889 -0.0433,-0.3399589 0,-0.2596049 0.13598,-0.445037 0.14217,-0.1916132 0.50067,-0.3894074 0.38941,-0.2286996 0.75409,-0.2286996 0.14835,0 0.24724,0.049449 0.0989,0.049449 0.14835,0.1050782 0.0495,0.049449 0.0804,0.049449 0.0247,0 0.11744,0.067992 0.0927,0.061811 0.0989,0.061811 0.0247,0 0.0247,-0.1359835 0,-0.8282634 -0.11744,-1.149679 -0.11126,-0.3214157 -0.33378,-0.3214157 z m 0.27815,1.9161317 q 0,-0.024724 -0.0186,-0.05563 -0.0124,-0.037087 -0.0618,-0.080354 -0.0433,-0.049449 -0.11744,-0.086535 -0.068,-0.043268 -0.19161,-0.067992 -0.12362,-0.030905 -0.27815,-0.030905 -0.26579,0 -0.46976,0.092716 -0.1978,0.092716 -0.29669,0.2348807 -0.0989,0.1421646 -0.14835,0.265786 -0.0433,0.1174403 -0.0433,0.2101563 0,0.1545268 0.0247,0.2101564 0.0309,0.05563 0.14216,0.1174403 0.13599,0.067992 0.24725,0.067992 0.21015,0 0.51921,-0.1483457 0.31523,-0.1545267 0.31523,-0.2225185 0,-0.049448 0.18543,-0.2348806 0.19162,-0.1916132 0.19162,-0.2719671 z" />
      <path
         id="path3202"
         style="font-style:normal;font-variant:normal;font-weight:normal;font-stretch:normal;font-size:6.18107px;font-family:Purisa;-inkscape-font-specification:'Purisa, Normal';font-variant-ligatures:normal;font-variant-caps:normal;font-variant-numeric:normal;font-feature-settings:normal;text-align:start;writing-mode:lr-tb;text-anchor:start;stroke:#050f0e;stroke-width:0.584038;stroke-miterlimit:4;stroke-dasharray:none;stroke-opacity:1"
         d="m 218.06083,3.4762903 q 0,-0.2225185 0.14216,-0.2225185 0.11744,0 0.17307,0.1421646 0.0371,0.086535 0.0804,0.531572 0.0494,0.4450371 0.0989,1.0013334 0.0556,0.5562962 0.0927,0.7911769 l 0.0495,0.3585021 0.70464,-0.704642 q 0.37705,-0.3770453 0.53157,-0.5068477 0.15453,-0.1359836 0.2287,-0.1359836 0.0433,0 0.0927,0.061811 0.0556,0.061811 0.0556,0.1236214 0,0.043268 -0.0247,0.074173 -0.0185,0.024724 -0.0556,0.049448 -0.0309,0.018543 -0.10507,0.098897 -0.0742,0.080354 -0.16071,0.1977943 -0.29051,0.4141316 -0.97661,0.9642469 -0.24724,0.1916131 -0.24724,0.3214156 0,0.086535 0.11126,0.1421646 l 0.66137,0.3090535 q 0.4574,0.2163374 0.76027,0.4326749 0.30287,0.2163374 0.30287,0.3337778 0,0.1298024 -0.12362,0.1298024 -0.11126,0 -0.32759,-0.1483457 -0.21634,-0.1545267 -0.27197,-0.1545267 -0.0742,0 -0.0742,-0.049449 0,-0.067992 -0.75409,-0.3461399 l -0.3276,-0.1236214 0.0433,0.5130288 q 0.0185,0.2039753 0.0185,0.3214157 0,0.2596049 -0.1298,0.2596049 -0.1978,0 -0.25343,-0.2719671 -0.0495,-0.2781481 -0.0927,-1.4031028 -0.0371,-0.9951523 -0.0927,-1.2980247 -0.0556,-0.2966914 -0.0927,-0.8591687 -0.0371,-0.5624774 -0.0371,-0.9333416 z" />
      <path
         id="path3204"
         style="font-style:normal;font-variant:normal;font-weight:normal;font-stretch:normal;font-size:6.18107px;font-family:Purisa;-inkscape-font-specification:'Purisa, Normal';font-variant-ligatures:normal;font-variant-caps:normal;font-variant-numeric:normal;font-feature-settings:normal;text-align:start;writing-mode:lr-tb;text-anchor:start;stroke:#050f0e;stroke-width:0.584038;stroke-miterlimit:4;stroke-dasharray:none;stroke-opacity:1"
         d="m 221.89927,5.3800599 q 0.48212,-0.4512181 0.80972,-0.5933827 0.33378,-0.1483457 0.84062,-0.1483457 0.76646,0 0.95807,0.4573991 0.11744,0.2719671 0.11744,0.6675556 0,0.6551934 -0.29051,1.32893 -0.29051,0.6675556 -0.71701,0.9271605 -0.41413,0.2534238 -0.87153,0.2534238 -0.63665,0 -1.01987,-0.4388559 -0.26579,-0.3090535 -0.34614,-0.5192099 -0.0804,-0.2163374 -0.0804,-0.6119259 0,-0.7479094 0.59957,-1.3227489 z m 0.99515,2.5404197 q 0.51921,0 0.93952,-0.7108231 0.4265,-0.7170041 0.4265,-1.6194403 0,-0.1359835 -0.0309,-0.2039753 -0.0309,-0.067992 -0.11126,-0.1359835 -0.2287,-0.1916132 -0.4883,-0.1916132 -0.0433,0 -0.0989,0.012362 -0.0495,0.00618 -0.16689,0.024724 -0.11744,0.012362 -0.27815,0.030905 -0.21633,0.030905 -0.34614,0.098897 -0.12362,0.061811 -0.31523,0.2410617 -0.36468,0.3461399 -0.51921,0.6428313 -0.15453,0.2905103 -0.15453,0.6366502 0,0.5130288 0.31524,0.8406255 0.32141,0.3275967 0.82826,0.3337778 z" />
      <path
         id="path3206"
         style="font-style:normal;font-variant:normal;font-weight:normal;font-stretch:normal;font-size:6.18107px;font-family:Purisa;-inkscape-font-specification:'Purisa, Normal';font-variant-ligatures:normal;font-variant-caps:normal;font-variant-numeric:normal;font-feature-settings:normal;text-align:start;writing-mode:lr-tb;text-anchor:start;stroke:#050f0e;stroke-width:0.584038;stroke-miterlimit:4;stroke-dasharray:none;stroke-opacity:1"
         d="m 227.5364,5.1513603 q 0.10508,0 0.18543,0.067992 0.0803,0.061811 0.0803,0.1050782 0,0.074173 -0.23488,0.1668889 -0.38322,0.1545268 -0.78499,0.7479095 -0.39559,0.5872016 -0.48213,1.1373168 -0.0989,0.6242881 -0.1607,0.8159012 -0.0618,0.1977943 -0.16071,0.1977943 -0.0865,0 -0.13599,-0.061811 -0.0433,-0.061811 -0.0618,-0.1359836 -0.0124,-0.074173 -0.0309,-0.271967 -0.006,-0.037087 -0.006,-0.05563 -0.14835,-1.5576296 -0.14835,-2.4600658 0,-0.3214156 0.0247,-0.3955884 0.068,-0.1977943 0.17307,-0.1977943 0.0989,0 0.0989,0.1668889 0,0.2781482 0.0865,0.8962551 0.0865,0.618107 0.1298,0.618107 0.0556,0 0.2287,-0.3399588 0.21634,-0.4017696 0.57484,-0.6984609 0.36468,-0.3028724 0.62429,-0.3028724 z" />
      <path
         id="path3208"
         style="font-style:normal;font-variant:normal;font-weight:normal;font-stretch:normal;font-size:6.18107px;font-family:Purisa;-inkscape-font-specification:'Purisa, Normal';font-variant-ligatures:normal;font-variant-caps:normal;font-variant-numeric:normal;font-feature-settings:normal;text-align:start;writing-mode:lr-tb;text-anchor:start;stroke:#050f0e;stroke-width:0.584038;stroke-miterlimit:4;stroke-dasharray:none;stroke-opacity:1"
         d="m 228.93331,4.6321504 q 0.0865,-0.074173 0.14835,-0.074173 0.1298,0 0.18543,0.4141316 0.0618,0.4079507 0.11126,1.5761729 0.0247,0.5439341 0.0247,0.9827901 0,0.4388559 -0.0371,0.4821234 -0.0742,0.092716 -0.18543,0.092716 -0.15453,0 -0.19162,-0.1298025 -0.0309,-0.080354 -0.0927,-1.2485761 -0.0618,-1.1744033 -0.0618,-1.6318025 0,-0.3832263 0.0989,-0.4635802 z m -0.0371,-1.4525514 q 0,-0.086535 0.068,-0.17307 0.0742,-0.086535 0.1298,-0.086535 0.0618,0 0.16689,0.086535 0.11126,0.080354 0.11126,0.2101564 0,0.092716 -0.0556,0.1607078 -0.0495,0.061811 -0.13598,0.061811 -0.0989,0 -0.19162,-0.074173 -0.0927,-0.074173 -0.0927,-0.1854321 z" />
      <path
         id="path3210"
         style="font-style:normal;font-variant:normal;font-weight:normal;font-stretch:normal;font-size:6.18107px;font-family:Purisa;-inkscape-font-specification:'Purisa, Normal';font-variant-ligatures:normal;font-variant-caps:normal;font-variant-numeric:normal;font-feature-settings:normal;text-align:start;writing-mode:lr-tb;text-anchor:start;stroke:#050f0e;stroke-width:0.584038;stroke-miterlimit:4;stroke-dasharray:none;stroke-opacity:1"
         d="m 231.05959,6.7028088 q -0.0927,0 -0.39559,-0.2225185 -0.30287,-0.2286996 -0.30287,-0.4635802 0,-0.2225186 0.31524,-0.611926 0.31523,-0.3955884 0.76027,-0.5068477 0.20397,-0.05563 0.53775,-0.05563 0.14217,0 0.21016,0.037086 0.068,0.037086 0.18543,0.1668889 0.19161,0.2163374 0.19161,0.2966913 0,0.074173 -0.0803,0.074173 -0.0989,0 -0.16689,-0.067992 -0.068,-0.074173 -0.16689,-0.1483457 -0.0989,-0.074173 -0.26579,-0.074173 -0.21633,0 -0.46358,0.1174403 -0.24724,0.1174403 -0.43885,0.3275967 -0.27197,0.2905103 -0.27197,0.3955885 0,0.1050782 0.16071,0.2534239 0.16071,0.1421646 0.53775,0.271967 0.59339,0.2039753 0.80354,0.3832264 0.21016,0.179251 0.21016,0.4821234 0,0.2843292 -0.0989,0.5192099 -0.068,0.179251 -0.29051,0.4017695 -0.22252,0.2225185 -0.43886,0.2225185 -0.16688,0 -0.43267,-0.05563 -0.26579,-0.049449 -0.40177,-0.1174403 -0.11126,-0.05563 -0.20398,-0.2163375 -0.0927,-0.1668889 -0.0927,-0.2966913 0,-0.067992 0.0309,-0.1174403 0.0371,-0.05563 0.0865,-0.05563 0.0927,0 0.17307,0.17307 0.0742,0.1545267 0.29669,0.2781481 0.2287,0.1236214 0.42649,0.1236214 0.26579,0 0.46977,-0.3152345 0.20397,-0.3214157 0.20397,-0.5006667 0,-0.043268 -0.0247,-0.1050782 -0.0186,-0.067992 -0.10508,-0.1607078 -0.0865,-0.092716 -0.22252,-0.1421646 -0.1298,-0.043267 -0.30287,-0.1174403 -0.17307,-0.074173 -0.29051,-0.1236214 -0.11126,-0.049449 -0.14217,-0.049449 z" />
      <path
         id="path3212"
         style="font-style:normal;font-variant:normal;font-weight:normal;font-stretch:normal;font-size:6.18107px;font-family:Purisa;-inkscape-font-specification:'Purisa, Normal';font-variant-ligatures:normal;font-variant-caps:normal;font-variant-numeric:normal;font-feature-settings:normal;text-align:start;writing-mode:lr-tb;text-anchor:start;stroke:#050f0e;stroke-width:0.584038;stroke-miterlimit:4;stroke-dasharray:none;stroke-opacity:1"
         d="m 235.63976,6.6780845 q 0.0309,0 0.0309,-0.1174403 0,-0.8344444 -0.11744,-1.1558601 -0.11744,-0.3275967 -0.33996,-0.3275967 -0.11744,0 -0.33996,0.043268 -0.22251,0.043267 -0.35232,0.1050782 l -0.16689,0.074173 q -0.50684,0.2534238 -0.66755,0.2534238 -0.068,0 -0.068,-0.067992 0,-0.086535 0.0371,-0.1483456 0.0371,-0.061811 0.13599,-0.1174404 0.0989,-0.05563 0.19161,-0.092716 0.0989,-0.037086 0.29051,-0.1050782 0.19161,-0.067992 0.33378,-0.1298025 0.33378,-0.1298024 0.56866,-0.1298024 0.19779,0 0.35232,0.1050782 0.16071,0.1050781 0.24106,0.265786 0.0803,0.1545267 0.11744,0.271967 0.0371,0.1174404 0.0495,0.2039753 0.0185,0.1792511 0.0309,1.1620412 0.0185,0.9827901 0.0494,1.0878683 0.006,0.018543 0.006,0.049449 0,0.080354 -0.0803,0.1792511 -0.0804,0.098897 -0.11126,0.098897 -0.0247,0 -0.0803,-0.05563 -0.0556,-0.05563 -0.0927,-0.2348806 -0.0371,-0.1854321 -0.0556,-0.3337778 -0.0185,-0.1545267 -0.0371,-0.1545267 -0.0185,0 -0.0556,0.061811 -0.14834,0.2348806 -0.5192,0.4635802 -0.36469,0.2286996 -0.60575,0.2286996 -0.14216,0 -0.35232,-0.049449 -0.21016,-0.05563 -0.30905,-0.1359835 -0.0618,-0.049449 -0.11744,-0.2163374 -0.0495,-0.1668889 -0.0495,-0.3337778 0,-0.259605 0.14216,-0.4512181 0.14217,-0.1977943 0.50067,-0.3955885 0.38322,-0.2286996 0.76645,-0.2286996 0.14217,0 0.23488,0.049449 0.0927,0.049449 0.14217,0.1050782 0.0494,0.049449 0.0865,0.049449 0.0309,0 0.10508,0.061811 0.0803,0.061811 0.10508,0.061811 z m -0.13599,0.3152346 q 0,-0.024724 -0.0185,-0.05563 -0.0124,-0.037087 -0.0618,-0.080354 -0.0433,-0.049449 -0.11744,-0.086535 -0.0742,-0.043268 -0.20398,-0.067992 -0.12362,-0.030905 -0.28432,-0.030905 -0.25343,0 -0.45122,0.092716 -0.1978,0.086535 -0.29669,0.2225185 -0.0989,0.1359836 -0.14835,0.265786 -0.0495,0.1236214 -0.0495,0.2225185 0,0.1668889 0.0309,0.2225186 0.0309,0.049449 0.13598,0.1050781 0.11744,0.061811 0.26579,0.061811 0.19779,0 0.50684,-0.1483456 0.30906,-0.1483457 0.30906,-0.2163375 0,-0.049448 0.19161,-0.2348806 0.19161,-0.1916132 0.19161,-0.2719671 z m -0.9457,-2.7320329 q 0,-0.074173 0.34614,-0.4264938 0.35232,-0.3585021 0.46976,-0.3585021 0.0927,0 0.0927,0.1112593 0,0.049449 -0.0495,0.1298025 -0.0742,0.1050782 -0.37087,0.4017695 -0.29051,0.2905103 -0.33377,0.2905103 -0.0371,0 -0.0989,-0.049449 -0.0556,-0.05563 -0.0556,-0.098897 z" />
      <path
         id="path3214"
         style="font-style:normal;font-variant:normal;font-weight:normal;font-stretch:normal;font-size:6.18107px;font-family:Purisa;-inkscape-font-specification:'Purisa, Normal';font-variant-ligatures:normal;font-variant-caps:normal;font-variant-numeric:normal;font-feature-settings:normal;text-align:start;writing-mode:lr-tb;text-anchor:start;stroke:#050f0e;stroke-width:0.584038;stroke-miterlimit:4;stroke-dasharray:none;stroke-opacity:1"
         d="m 239.58328,9.3235824 q 0.30287,0 0.30287,-0.265786 0,-0.4512181 -0.0371,-0.797358 -0.0309,-0.3399588 -0.0804,-0.5748395 -0.0433,-0.2348806 -0.0495,-0.3399588 -0.0433,-0.6304692 -0.0865,-0.6304692 -0.0247,0 -0.0927,0.1112593 -0.15453,0.2286996 -0.50067,0.5130288 -0.34614,0.2843292 -0.57484,0.3708642 -0.26578,0.1050782 -0.5872,0.1050782 -0.19779,0 -0.31523,-0.049449 -0.11126,-0.049448 -0.29669,-0.2101564 -0.17925,-0.1607078 -0.25343,-0.2843292 -0.0742,-0.1236214 -0.11744,-0.3523209 -0.0433,-0.2286996 -0.0433,-0.3894074 0,-0.1174404 0.0186,-0.17307 0.0433,-0.1668889 0.2287,-0.5192099 0.18543,-0.352321 0.33996,-0.5501152 0.1298,-0.1730699 0.48212,-0.4017695 0.3585,-0.2348807 0.63047,-0.3214157 0.28433,-0.092716 0.64901,-0.092716 0.4574,0 0.76027,0.1607078 0.30288,0.1545268 0.30288,0.4821235 0,0.1854321 -0.0927,0.4573991 -0.0865,0.2719671 -0.0865,0.4759424 0,0.1050782 0.14217,2.0459341 l 0.0927,1.2794815 -0.21633,0.1730699 q -0.17307,0.1421646 -0.35232,0.1421646 -0.3276,0 -0.79736,-0.1668888 -0.46976,-0.1607079 -0.80972,-0.3770453 -0.33996,-0.2101564 -0.33996,-0.3461399 0,-0.1607078 0.16689,-0.3955885 0.17307,-0.2348806 0.29051,-0.2348806 0.13598,0 0.13598,0.092716 0,0.05563 -0.0556,0.1668889 -0.0556,0.1112593 -0.0556,0.2163374 0,0.17307 0.2287,0.3028725 0.2287,0.1298024 0.38941,0.1298024 0.0927,0 0.30287,0.1236214 0.21634,0.1236214 0.37705,0.1236214 z m -2.34881,-2.8062057 q 0,0.3585021 0.18543,0.6551934 0.18543,0.2966914 0.46358,0.2966914 0.37705,0 0.80972,-0.3399589 0.43886,-0.3461399 0.71083,-0.8591687 0.14834,-0.2905103 0.25342,-0.6613745 0.11126,-0.3770452 0.11126,-0.5933827 0,-0.1236214 -0.0433,-0.1483456 -0.14216,-0.074173 -0.45122,-0.074173 -0.28433,0 -0.4883,0.061811 -0.53775,0.1545268 -1.0446,0.7231852 -0.50685,0.5686584 -0.50685,0.9395226 z" />
    </g>
    <g
       style="font-style:normal;font-variant:normal;font-weight:normal;font-stretch:normal;font-size:6.18107px;line-height:1.25;font-family:Purisa;-inkscape-font-specification:'Purisa, Normal';font-variant-ligatures:normal;font-variant-caps:normal;font-variant-numeric:normal;font-feature-settings:normal;text-align:start;letter-spacing:0px;word-spacing:0px;writing-mode:lr-tb;text-anchor:start;fill:#000000;fill-opacity:1;stroke:#050f0e;stroke-width:0.584038;stroke-miterlimit:4;stroke-dasharray:none;stroke-opacity:1"
       id="text2731"
       transform="scale(0.86192059,1.1601997)"
       aria-label="Környezeti tényező mértéke">
      <path
         id="path3217"
         style="font-style:normal;font-variant:normal;font-weight:normal;font-stretch:normal;font-size:6.18107px;font-family:Purisa;-inkscape-font-specification:'Purisa, Normal';font-variant-ligatures:normal;font-variant-caps:normal;font-variant-numeric:normal;font-feature-settings:normal;text-align:start;writing-mode:lr-tb;text-anchor:start;stroke:#050f0e;stroke-width:0.584038;stroke-miterlimit:4;stroke-dasharray:none;stroke-opacity:1"
         d="m 63.384705,-149.87033 q 0,-0.24106 0.02472,-0.3276 0.02472,-0.0927 0.123621,-0.0927 0.129803,0 0.216338,0.1607 0.07417,0.14835 0.08653,0.82209 0,0.67373 0.05563,1.01987 l 0.05563,0.34614 0.605745,-0.64901 q 0.611926,-0.64901 0.704642,-0.64901 0.07417,0 0.234881,-0.16071 0.166889,-0.16071 0.241061,-0.16071 0.07417,0 0.210157,-0.11744 0.135983,-0.11744 0.253424,-0.11744 0.105078,0 0.179251,0.0742 0.08035,0.068 0.08035,0.18544 0,0.0742 -0.06181,0.11744 -0.05563,0.0433 -0.210157,0.0927 -0.29051,0.0804 -1.168222,0.95807 -0.877712,0.87771 -0.877712,1.07551 0,0.0309 1.044601,0.59956 0.352321,0.19161 0.642831,0.3585 0.290511,0.16071 0.420313,0.24724 0.129803,0.0804 0.2287,0.14217 0.0989,0.0618 0.142164,0.0803 0.04327,0.0186 0.08654,0.0186 0.11126,0 0.358502,0.22251 0.253424,0.21634 0.253424,0.30906 0,0.11744 -0.06181,0.11744 -0.117441,0 -0.543935,-0.15453 -0.426493,-0.15453 -0.618107,-0.26579 -0.401769,-0.24106 -1.186765,-0.63665 -0.784996,-0.40176 -0.846807,-0.40176 -0.06181,0 -0.06181,0.1607 0,0.068 0.05563,0.5872 0.06181,0.51303 0.06181,0.79118 0,0.37087 -0.160708,0.37087 -0.216337,0 -0.284329,-0.24107 -0.06181,-0.23488 -0.129802,-1.11877 -0.01854,-0.17925 -0.02472,-0.27815 -0.129802,-1.65652 -0.129802,-3.48612 z" />
      <path
         id="path3219"
         style="font-style:normal;font-variant:normal;font-weight:normal;font-stretch:normal;font-size:6.18107px;font-family:Purisa;-inkscape-font-specification:'Purisa, Normal';font-variant-ligatures:normal;font-variant-caps:normal;font-variant-numeric:normal;font-feature-settings:normal;text-align:start;writing-mode:lr-tb;text-anchor:start;stroke:#050f0e;stroke-width:0.584038;stroke-miterlimit:4;stroke-dasharray:none;stroke-opacity:1"
         d="m 70.839071,-149.86415 q -0.04945,0.17925 -0.123622,0.29051 -0.07417,0.11126 -0.129802,0.14216 -0.05563,0.0247 -0.0989,0.0247 -0.0989,0 -0.160708,-0.10508 -0.05563,-0.11126 -0.05563,-0.25342 0,-0.11744 0.04945,-0.1978 0.05563,-0.0803 0.154527,-0.0803 0.111259,0 0.364683,0.17925 z m -0.927161,-0.0309 q -0.04945,0.17926 -0.123621,0.29051 -0.07417,0.11126 -0.129803,0.14217 -0.05563,0.0247 -0.0989,0.0247 -0.0989,0 -0.160707,-0.10507 -0.05563,-0.11126 -0.05563,-0.25343 0,-0.11744 0.04945,-0.19779 0.05563,-0.0804 0.154527,-0.0804 0.0989,0 0.364683,0.17925 z m -1.347473,1.96558 q 0.482124,-0.45121 0.80972,-0.59338 0.333778,-0.14834 0.840626,-0.14834 0.766452,0 0.958066,0.4574 0.11744,0.27196 0.11744,0.66755 0,0.65519 -0.29051,1.32893 -0.290511,0.66756 -0.717004,0.92716 -0.414132,0.25343 -0.871531,0.25343 -0.636651,0 -1.019877,-0.43886 -0.265786,-0.30905 -0.34614,-0.51921 -0.08035,-0.21634 -0.08035,-0.61193 0,-0.74791 0.599564,-1.32275 z m 0.995152,2.54042 q 0.51921,0 0.939523,-0.71082 0.426494,-0.717 0.426494,-1.61944 0,-0.13598 -0.03091,-0.20397 -0.03091,-0.068 -0.111259,-0.13599 -0.228699,-0.19161 -0.488304,-0.19161 -0.04327,0 -0.0989,0.0124 -0.04945,0.006 -0.166889,0.0247 -0.117441,0.0124 -0.278148,0.0309 -0.216338,0.0309 -0.34614,0.0989 -0.123622,0.0618 -0.315235,0.24106 -0.364683,0.34614 -0.51921,0.64283 -0.154527,0.29051 -0.154527,0.63665 0,0.51303 0.315235,0.84063 0.321416,0.32759 0.828263,0.33377 z" />
      <path
         id="path3221"
         style="font-style:normal;font-variant:normal;font-weight:normal;font-stretch:normal;font-size:6.18107px;font-family:Purisa;-inkscape-font-specification:'Purisa, Normal';font-variant-ligatures:normal;font-variant-caps:normal;font-variant-numeric:normal;font-feature-settings:normal;text-align:start;writing-mode:lr-tb;text-anchor:start;stroke:#050f0e;stroke-width:0.584038;stroke-miterlimit:4;stroke-dasharray:none;stroke-opacity:1"
         d="m 74.201568,-148.15817 q 0.105078,0 0.185432,0.068 0.08035,0.0618 0.08035,0.10508 0,0.0742 -0.234881,0.16688 -0.383226,0.15453 -0.784996,0.74791 -0.395588,0.58721 -0.482123,1.13732 -0.0989,0.62429 -0.160708,0.8159 -0.06181,0.1978 -0.160708,0.1978 -0.08654,0 -0.135983,-0.0618 -0.04327,-0.0618 -0.06181,-0.13599 -0.01236,-0.0742 -0.03091,-0.27197 -0.0062,-0.0371 -0.0062,-0.0556 -0.148345,-1.55762 -0.148345,-2.46006 0,-0.32142 0.02472,-0.39559 0.06799,-0.19779 0.17307,-0.19779 0.0989,0 0.0989,0.16689 0,0.27814 0.08654,0.89625 0.08653,0.61811 0.129803,0.61811 0.05563,0 0.228699,-0.33996 0.216338,-0.40177 0.57484,-0.69846 0.364683,-0.30287 0.624288,-0.30287 z" />
      <path
         id="path3223"
         style="font-style:normal;font-variant:normal;font-weight:normal;font-stretch:normal;font-size:6.18107px;font-family:Purisa;-inkscape-font-specification:'Purisa, Normal';font-variant-ligatures:normal;font-variant-caps:normal;font-variant-numeric:normal;font-feature-settings:normal;text-align:start;writing-mode:lr-tb;text-anchor:start;stroke:#050f0e;stroke-width:0.584038;stroke-miterlimit:4;stroke-dasharray:none;stroke-opacity:1"
         d="m 75.672656,-148.49813 q 0,-0.21016 0.123621,-0.21016 0.08035,0 0.11744,0.18543 0.03709,0.17925 0.135984,1.07551 0.111259,0.97043 0.129802,1.01369 0.02473,-0.0247 0.179251,-0.50066 0.142165,-0.44504 0.222519,-0.61811 0.08653,-0.17925 0.296691,-0.47594 0.451218,-0.62429 0.698461,-0.62429 0.160708,0 0.302873,0.21634 0.191613,0.28433 0.23488,0.56247 0.04327,0.27815 0.06181,1.31657 0.01236,0.66756 0.01236,0.79118 0,0.30905 -0.02472,0.45122 -0.01854,0.13598 -0.06181,0.16689 -0.03709,0.0371 -0.135983,0.0433 -0.05563,0 -0.07417,-0.0494 -0.01854,-0.0433 -0.01854,-0.21016 0,-0.0927 0.01236,-0.39559 0.01236,-0.30905 0.01236,-0.51921 0,-0.52539 -0.04327,-1.02606 -0.03709,-0.50684 -0.09272,-0.64901 -0.03091,-0.0804 -0.0989,-0.16689 -0.06799,-0.0865 -0.129802,-0.0865 -0.129803,0 -0.414132,0.44503 -0.284329,0.43886 -0.488305,0.92716 -0.191613,0.46977 -0.259605,0.70465 -0.06799,0.23488 -0.105078,0.62428 -0.06799,0.63047 -0.0989,0.63047 -0.04945,0 -0.142164,-0.10507 -0.06799,-0.068 -0.09272,-0.29052 -0.02473,-0.22869 -0.06799,-0.89625 -0.04327,-0.67374 -0.117441,-1.35984 -0.07417,-0.71082 -0.07417,-0.97042 z" />
      <path
         id="path3225"
         style="font-style:normal;font-variant:normal;font-weight:normal;font-stretch:normal;font-size:6.18107px;font-family:Purisa;-inkscape-font-specification:'Purisa, Normal';font-variant-ligatures:normal;font-variant-caps:normal;font-variant-numeric:normal;font-feature-settings:normal;text-align:start;writing-mode:lr-tb;text-anchor:start;stroke:#050f0e;stroke-width:0.584038;stroke-miterlimit:4;stroke-dasharray:none;stroke-opacity:1"
         d="m 79.511097,-146.93432 q 0,0.48212 0.04327,0.717 0.04327,0.2287 0.166888,0.2287 0.117441,0 0.383227,-0.29051 0.271967,-0.29051 0.383226,-0.54393 0.142165,-0.30906 0.2287,-0.74173 0.08653,-0.43886 0.154526,-0.66756 0.06799,-0.2287 0.203976,-0.2287 0.06799,0 0.123621,0.0556 0.05563,0.0556 0.05563,0.14217 0,0.0989 -0.142165,0.64901 -0.135983,0.55011 -0.135983,1.15586 0,0.19779 0.01854,0.37704 l 0.04327,0.17926 0.197795,-0.0989 q 0.154526,-0.068 0.241061,-0.068 0.160708,0 0.160708,0.11744 0,0.14834 -0.259605,0.28433 l -0.253424,0.1298 0.03091,0.69228 q -0.03709,1.09405 -0.08035,1.15586 -0.04327,0.0742 -0.154527,0.0742 -0.129802,0 -0.389407,-0.11126 -0.148346,-0.068 -0.234881,-0.14834 -0.08035,-0.0804 -0.154527,-0.23488 -0.17307,-0.35232 -0.17307,-0.63047 0,-0.0989 0.01854,-0.15453 0.01854,-0.0495 0.09272,-0.16689 0.07417,-0.11126 0.135983,-0.22252 0.05563,-0.10508 0.179251,-0.17307 0.129803,-0.0742 0.160708,-0.11126 0.04945,-0.0495 0.09272,-0.0804 0.04945,-0.0309 0.06181,-0.0433 0.01236,-0.0124 0.01236,-0.0433 0,-0.0742 -0.03709,-0.27814 -0.03709,-0.21016 -0.09272,-0.21016 -0.03709,0 -0.166889,0.15453 -0.129802,0.14834 -0.327596,0.30287 -0.197795,0.14834 -0.395589,0.14834 -0.247243,0 -0.40795,-0.29051 -0.08035,-0.14834 -0.105079,-0.33995 -0.01854,-0.19162 -0.01854,-0.80972 0.0062,-0.69847 0.04945,-0.95189 0.04945,-0.2596 0.179251,-0.2596 0.07417,0 0.0989,0.0865 0.02472,0.0803 0.02472,0.37705 0,0.11744 -0.0062,0.40177 -0.0062,0.28432 -0.0062,0.46976 z m 0.815901,2.45388 q 0,0.11126 0.166889,0.29051 0.17307,0.18543 0.259605,0.18543 0.09272,0 0.09272,-0.43267 -0.0062,-0.11744 -0.04327,-0.29051 -0.03091,-0.17307 -0.03709,-0.24106 l -0.03709,-0.37087 -0.17307,0.26579 q -0.2287,0.3585 -0.2287,0.59338 z" />
      <path
         id="path3227"
         style="font-style:normal;font-variant:normal;font-weight:normal;font-stretch:normal;font-size:6.18107px;font-family:Purisa;-inkscape-font-specification:'Purisa, Normal';font-variant-ligatures:normal;font-variant-caps:normal;font-variant-numeric:normal;font-feature-settings:normal;text-align:start;writing-mode:lr-tb;text-anchor:start;stroke:#050f0e;stroke-width:0.584038;stroke-miterlimit:4;stroke-dasharray:none;stroke-opacity:1"
         d="m 85.482005,-146.4831 q 0.03091,0 0.03091,0.0494 0,0.11126 -0.166889,0.35851 -0.160708,0.24724 -0.34614,0.40795 -0.649012,0.57484 -1.298024,0.57484 -0.247243,0 -0.494486,-0.11126 -0.241062,-0.11744 -0.451218,-0.3276 -0.210156,-0.21016 -0.339959,-0.56248 -0.129802,-0.35232 -0.129802,-0.78499 0,-0.26579 0.06181,-0.45122 0.123622,-0.37705 0.525391,-0.79736 0.407951,-0.42031 0.766453,-0.42031 0.0989,0 0.296691,0.0185 0.296692,0.0247 0.414132,0.0618 0.123621,0.0371 0.278148,0.15453 0.197794,0.14834 0.339959,0.38322 0.148346,0.2287 0.148346,0.38323 0,0.1978 -0.154527,0.30287 -0.154527,0.0989 -0.599564,0.1978 -0.58102,0.1298 -1.137317,0.16071 l -0.574839,0.0309 v 0.24724 q 0,0.4574 0.426494,0.86535 0.321415,0.30906 0.667555,0.30906 0.265786,0 0.562477,-0.16071 0.302873,-0.16689 0.513029,-0.36468 0.210157,-0.1978 0.40177,-0.35851 0.191613,-0.16688 0.259605,-0.16688 z m -0.995152,-1.50819 q -0.191614,-0.17307 -0.290511,-0.21633 -0.09272,-0.0495 -0.247243,-0.0495 -0.309053,0 -0.46358,0.0618 -0.148345,0.0556 -0.302872,0.23488 -0.469762,0.53775 -0.469762,0.717 0,0.0804 0.148346,0.0804 0.562477,0 1.594716,-0.23488 0.309054,-0.0742 0.309054,-0.25961 0,-0.0865 -0.278148,-0.33378 z" />
      <path
         id="path3229"
         style="font-style:normal;font-variant:normal;font-weight:normal;font-stretch:normal;font-size:6.18107px;font-family:Purisa;-inkscape-font-specification:'Purisa, Normal';font-variant-ligatures:normal;font-variant-caps:normal;font-variant-numeric:normal;font-feature-settings:normal;text-align:start;writing-mode:lr-tb;text-anchor:start;stroke:#050f0e;stroke-width:0.584038;stroke-miterlimit:4;stroke-dasharray:none;stroke-opacity:1"
         d="m 86.328804,-147.58952 q -0.07417,0 -0.148345,-0.0309 -0.07417,-0.0309 -0.07417,-0.0804 0,-0.17307 0.63665,-0.41413 0.642831,-0.24106 0.939523,-0.30905 0.08654,-0.0185 0.179251,-0.0185 0.166889,0 0.327596,0.0494 0.160708,0.0433 0.222519,0.11126 0.08035,0.0865 0.08035,0.30288 0,0.32759 -0.179251,0.717 l -0.135984,0.28433 0.2287,0.0309 q 0.278148,0.0185 0.278148,0.0865 0,0.0495 -0.135984,0.11126 -0.135983,0.0618 -0.315234,0.0865 -0.166889,0.0247 -0.265786,0.0804 -0.09272,0.0556 -0.241062,0.21015 -0.154527,0.16071 -0.339959,0.46977 -0.185432,0.30287 -0.185432,0.38322 0,0.0247 0.03091,0.0247 0.01854,0 0.550116,-0.0989 0.537753,-0.10508 0.852987,-0.10508 0.327597,0 0.327597,0.11126 0,0.068 -0.123621,0.11744 -0.123622,0.0433 -0.500667,0.11744 -1.162041,0.2287 -1.415465,0.2287 -0.203975,0 -0.203975,-0.11126 0,-0.11744 0.210156,-0.51921 0.210156,-0.40177 0.333778,-0.55011 0.160708,-0.1978 0.160708,-0.23488 0,-0.0433 -0.253424,-0.0433 -0.309054,0 -0.309054,-0.0989 0,-0.0742 0.142165,-0.12362 0.148346,-0.0495 0.370864,-0.0495 0.222519,0 0.29051,-0.0247 0.07417,-0.0247 0.148346,-0.12981 0.148346,-0.22251 0.247243,-0.49448 0.105078,-0.27815 0.105078,-0.46976 0,-0.10508 -0.0309,-0.12981 -0.03091,-0.0247 -0.154527,-0.0247 -0.296691,0.006 -0.828263,0.16689 -0.531572,0.16071 -0.649013,0.28433 -0.06799,0.0865 -0.17307,0.0865 z" />
      <path
         id="path3231"
         style="font-style:normal;font-variant:normal;font-weight:normal;font-stretch:normal;font-size:6.18107px;font-family:Purisa;-inkscape-font-specification:'Purisa, Normal';font-variant-ligatures:normal;font-variant-caps:normal;font-variant-numeric:normal;font-feature-settings:normal;text-align:start;writing-mode:lr-tb;text-anchor:start;stroke:#050f0e;stroke-width:0.584038;stroke-miterlimit:4;stroke-dasharray:none;stroke-opacity:1"
         d="m 92.713845,-146.4831 q 0.0309,0 0.0309,0.0494 0,0.11126 -0.166889,0.35851 -0.160707,0.24724 -0.34614,0.40795 -0.649012,0.57484 -1.298024,0.57484 -0.247243,0 -0.494486,-0.11126 -0.241062,-0.11744 -0.451218,-0.3276 -0.210156,-0.21016 -0.339959,-0.56248 -0.129802,-0.35232 -0.129802,-0.78499 0,-0.26579 0.06181,-0.45122 0.123622,-0.37705 0.525391,-0.79736 0.407951,-0.42031 0.766453,-0.42031 0.0989,0 0.296691,0.0185 0.296692,0.0247 0.414132,0.0618 0.123621,0.0371 0.278148,0.15453 0.197794,0.14834 0.339959,0.38322 0.148346,0.2287 0.148346,0.38323 0,0.1978 -0.154527,0.30287 -0.154527,0.0989 -0.599564,0.1978 -0.58102,0.1298 -1.137317,0.16071 l -0.574839,0.0309 v 0.24724 q 0,0.4574 0.426494,0.86535 0.321415,0.30906 0.667555,0.30906 0.265786,0 0.562478,-0.16071 0.302872,-0.16689 0.513028,-0.36468 0.210157,-0.1978 0.40177,-0.35851 0.191613,-0.16688 0.259605,-0.16688 z m -0.995152,-1.50819 q -0.191614,-0.17307 -0.290511,-0.21633 -0.09272,-0.0495 -0.247242,-0.0495 -0.309054,0 -0.463581,0.0618 -0.148345,0.0556 -0.302872,0.23488 -0.469761,0.53775 -0.469761,0.717 0,0.0804 0.148345,0.0804 0.562478,0 1.594716,-0.23488 0.309054,-0.0742 0.309054,-0.25961 0,-0.0865 -0.278148,-0.33378 z" />
      <path
         id="path3233"
         style="font-style:normal;font-variant:normal;font-weight:normal;font-stretch:normal;font-size:6.18107px;font-family:Purisa;-inkscape-font-specification:'Purisa, Normal';font-variant-ligatures:normal;font-variant-caps:normal;font-variant-numeric:normal;font-feature-settings:normal;text-align:start;writing-mode:lr-tb;text-anchor:start;stroke:#050f0e;stroke-width:0.584038;stroke-miterlimit:4;stroke-dasharray:none;stroke-opacity:1"
         d="m 94.463081,-149.45002 q 0,-0.2287 -0.04327,-0.58102 -0.04327,-0.35232 -0.04327,-0.5872 0,-0.11744 0.0062,-0.15453 0.01854,-0.0989 0.06799,-0.15452 0.05563,-0.0618 0.11126,-0.0618 0.07417,0 0.105078,0.068 0.01854,0.0433 0.05563,0.4574 0.03709,0.41413 0.06799,0.80972 0.03091,0.39558 0.04327,0.40795 0.0062,0.006 0.01854,0.006 0.04945,0 0.284329,-0.0495 0.241062,-0.0556 0.395589,-0.0556 0.309053,0 0.309053,0.13598 0,0.13599 -0.679917,0.30288 l -0.309054,0.0742 0.03709,1.0446 q 0.03091,0.92098 0.117441,1.72452 0.08653,0.79736 0.08653,0.90243 0,0.19162 -0.142165,0.19162 -0.111259,0 -0.185432,-0.1978 -0.06799,-0.19779 -0.06799,-0.51303 0,-0.2287 -0.01854,-0.46358 -0.01854,-0.24106 -0.06799,-0.74172 -0.04327,-0.50685 -0.08653,-1.03842 -0.01854,-0.28433 -0.0309,-0.43886 -0.0062,-0.15453 -0.01854,-0.2287 -0.01236,-0.0742 -0.01854,-0.0865 -0.0062,-0.0186 -0.02473,-0.0186 -0.0989,0 -0.475942,0.068 -0.377045,0.068 -0.469761,0.068 -0.179251,0 -0.179251,-0.14835 0,-0.10508 0.222518,-0.17925 0.2287,-0.0742 0.513029,-0.1298 0.284329,-0.0618 0.352321,-0.10508 0.06799,-0.0495 0.06799,-0.3276 z" />
      <path
         id="path3235"
         style="font-style:normal;font-variant:normal;font-weight:normal;font-stretch:normal;font-size:6.18107px;font-family:Purisa;-inkscape-font-specification:'Purisa, Normal';font-variant-ligatures:normal;font-variant-caps:normal;font-variant-numeric:normal;font-feature-settings:normal;text-align:start;writing-mode:lr-tb;text-anchor:start;stroke:#050f0e;stroke-width:0.584038;stroke-miterlimit:4;stroke-dasharray:none;stroke-opacity:1"
         d="m 96.92932,-148.67738 q 0.08653,-0.0742 0.148346,-0.0742 0.129802,0 0.185432,0.41413 0.06181,0.40795 0.111259,1.57618 0.02472,0.54393 0.02472,0.98279 0,0.43885 -0.03709,0.48212 -0.07417,0.0927 -0.185432,0.0927 -0.154527,0 -0.191613,-0.12981 -0.03091,-0.0804 -0.09272,-1.24857 -0.06181,-1.17441 -0.06181,-1.6318 0,-0.38323 0.0989,-0.46358 z m -0.03709,-1.45256 q 0,-0.0865 0.06799,-0.17307 0.07417,-0.0865 0.129803,-0.0865 0.06181,0 0.166889,0.0865 0.111259,0.0804 0.111259,0.21016 0,0.0927 -0.05563,0.16071 -0.04945,0.0618 -0.135983,0.0618 -0.0989,0 -0.191613,-0.0742 -0.09272,-0.0742 -0.09272,-0.18544 z" />
      <path
         id="path3237"
         style="font-style:normal;font-variant:normal;font-weight:normal;font-stretch:normal;font-size:6.18107px;font-family:Purisa;-inkscape-font-specification:'Purisa, Normal';font-variant-ligatures:normal;font-variant-caps:normal;font-variant-numeric:normal;font-feature-settings:normal;text-align:start;writing-mode:lr-tb;text-anchor:start;stroke:#050f0e;stroke-width:0.584038;stroke-miterlimit:4;stroke-dasharray:none;stroke-opacity:1"
         d="m 103.38234,-149.45002 q 0,-0.2287 -0.0433,-0.58102 -0.0433,-0.35232 -0.0433,-0.5872 0,-0.11744 0.006,-0.15453 0.0185,-0.0989 0.068,-0.15452 0.0556,-0.0618 0.11126,-0.0618 0.0742,0 0.10508,0.068 0.0185,0.0433 0.0556,0.4574 0.0371,0.41413 0.068,0.80972 0.0309,0.39558 0.0433,0.40795 0.006,0.006 0.0185,0.006 0.0495,0 0.28433,-0.0495 0.24106,-0.0556 0.39559,-0.0556 0.30905,0 0.30905,0.13598 0,0.13599 -0.67991,0.30288 l -0.30906,0.0742 0.0371,1.0446 q 0.0309,0.92098 0.11744,1.72452 0.0865,0.79736 0.0865,0.90243 0,0.19162 -0.14216,0.19162 -0.11126,0 -0.18543,-0.1978 -0.068,-0.19779 -0.068,-0.51303 0,-0.2287 -0.0186,-0.46358 -0.0185,-0.24106 -0.068,-0.74172 -0.0433,-0.50685 -0.0865,-1.03842 -0.0185,-0.28433 -0.0309,-0.43886 -0.006,-0.15453 -0.0185,-0.2287 -0.0124,-0.0742 -0.0186,-0.0865 -0.006,-0.0186 -0.0247,-0.0186 -0.0989,0 -0.47594,0.068 -0.37705,0.068 -0.46976,0.068 -0.17926,0 -0.17926,-0.14835 0,-0.10508 0.22252,-0.17925 0.2287,-0.0742 0.51303,-0.1298 0.28433,-0.0618 0.35232,-0.10508 0.068,-0.0495 0.068,-0.3276 z" />
      <path
         id="path3239"
         style="font-style:normal;font-variant:normal;font-weight:normal;font-stretch:normal;font-size:6.18107px;font-family:Purisa;-inkscape-font-specification:'Purisa, Normal';font-variant-ligatures:normal;font-variant-caps:normal;font-variant-numeric:normal;font-feature-settings:normal;text-align:start;writing-mode:lr-tb;text-anchor:start;stroke:#050f0e;stroke-width:0.584038;stroke-miterlimit:4;stroke-dasharray:none;stroke-opacity:1"
         d="m 108.65479,-146.4831 q 0.0309,0 0.0309,0.0494 0,0.11126 -0.16689,0.35851 -0.16071,0.24724 -0.34614,0.40795 -0.64901,0.57484 -1.29803,0.57484 -0.24724,0 -0.49448,-0.11126 -0.24106,-0.11744 -0.45122,-0.3276 -0.21016,-0.21016 -0.33996,-0.56248 -0.1298,-0.35232 -0.1298,-0.78499 0,-0.26579 0.0618,-0.45122 0.12362,-0.37705 0.52539,-0.79736 0.40795,-0.42031 0.76645,-0.42031 0.0989,0 0.29669,0.0185 0.2967,0.0247 0.41414,0.0618 0.12362,0.0371 0.27814,0.15453 0.1978,0.14834 0.33996,0.38322 0.14835,0.2287 0.14835,0.38323 0,0.1978 -0.15453,0.30287 -0.15453,0.0989 -0.59956,0.1978 -0.58102,0.1298 -1.13732,0.16071 l -0.57484,0.0309 v 0.24724 q 0,0.4574 0.4265,0.86535 0.32141,0.30906 0.66755,0.30906 0.26579,0 0.56248,-0.16071 0.30287,-0.16689 0.51303,-0.36468 0.21015,-0.1978 0.40177,-0.35851 0.19161,-0.16688 0.2596,-0.16688 z m -0.99515,-1.50819 q -0.19161,-0.17307 -0.29051,-0.21633 -0.0927,-0.0495 -0.24724,-0.0495 -0.30906,0 -0.46358,0.0618 -0.14835,0.0556 -0.30288,0.23488 -0.46976,0.53775 -0.46976,0.717 0,0.0804 0.14835,0.0804 0.56248,0 1.59471,-0.23488 0.30906,-0.0742 0.30906,-0.25961 0,-0.0865 -0.27815,-0.33378 z m -0.32142,-1.8914 q 0.0371,0 0.0927,0.0556 0.0618,0.0494 0.0618,0.0927 0,0.0742 -0.35232,0.43268 -0.34614,0.35232 -0.46358,0.35232 -0.0927,0 -0.0927,-0.11126 0,-0.068 0.068,-0.15453 0.068,-0.0865 0.27197,-0.29051 0.3585,-0.37704 0.41413,-0.37704 z" />
      <path
         id="path3241"
         style="font-style:normal;font-variant:normal;font-weight:normal;font-stretch:normal;font-size:6.18107px;font-family:Purisa;-inkscape-font-specification:'Purisa, Normal';font-variant-ligatures:normal;font-variant-caps:normal;font-variant-numeric:normal;font-feature-settings:normal;text-align:start;writing-mode:lr-tb;text-anchor:start;stroke:#050f0e;stroke-width:0.584038;stroke-miterlimit:4;stroke-dasharray:none;stroke-opacity:1"
         d="m 109.75501,-148.49813 q 0,-0.21016 0.12363,-0.21016 0.0803,0 0.11744,0.18543 0.0371,0.17925 0.13598,1.07551 0.11126,0.97043 0.1298,1.01369 0.0247,-0.0247 0.17925,-0.50066 0.14217,-0.44504 0.22252,-0.61811 0.0865,-0.17925 0.29669,-0.47594 0.45122,-0.62429 0.69846,-0.62429 0.16071,0 0.30288,0.21634 0.19161,0.28433 0.23488,0.56247 0.0433,0.27815 0.0618,1.31657 0.0124,0.66756 0.0124,0.79118 0,0.30905 -0.0247,0.45122 -0.0186,0.13598 -0.0618,0.16689 -0.0371,0.0371 -0.13599,0.0433 -0.0556,0 -0.0742,-0.0494 -0.0185,-0.0433 -0.0185,-0.21016 0,-0.0927 0.0124,-0.39559 0.0124,-0.30905 0.0124,-0.51921 0,-0.52539 -0.0433,-1.02606 -0.0371,-0.50684 -0.0927,-0.64901 -0.0309,-0.0804 -0.0989,-0.16689 -0.068,-0.0865 -0.1298,-0.0865 -0.12981,0 -0.41413,0.44503 -0.28433,0.43886 -0.48831,0.92716 -0.19161,0.46977 -0.2596,0.70465 -0.068,0.23488 -0.10508,0.62428 -0.068,0.63047 -0.0989,0.63047 -0.0494,0 -0.14216,-0.10507 -0.068,-0.068 -0.0927,-0.29052 -0.0247,-0.22869 -0.068,-0.89625 -0.0433,-0.67374 -0.11744,-1.35984 -0.0742,-0.71082 -0.0742,-0.97042 z" />
      <path
         id="path3243"
         style="font-style:normal;font-variant:normal;font-weight:normal;font-stretch:normal;font-size:6.18107px;font-family:Purisa;-inkscape-font-specification:'Purisa, Normal';font-variant-ligatures:normal;font-variant-caps:normal;font-variant-numeric:normal;font-feature-settings:normal;text-align:start;writing-mode:lr-tb;text-anchor:start;stroke:#050f0e;stroke-width:0.584038;stroke-miterlimit:4;stroke-dasharray:none;stroke-opacity:1"
         d="m 113.59346,-146.93432 q 0,0.48212 0.0433,0.717 0.0433,0.2287 0.16689,0.2287 0.11744,0 0.38323,-0.29051 0.27197,-0.29051 0.38323,-0.54393 0.14216,-0.30906 0.2287,-0.74173 0.0865,-0.43886 0.15452,-0.66756 0.068,-0.2287 0.20398,-0.2287 0.068,0 0.12362,0.0556 0.0556,0.0556 0.0556,0.14217 0,0.0989 -0.14217,0.64901 -0.13598,0.55011 -0.13598,1.15586 0,0.19779 0.0185,0.37704 l 0.0433,0.17926 0.1978,-0.0989 q 0.15452,-0.068 0.24106,-0.068 0.16071,0 0.16071,0.11744 0,0.14834 -0.25961,0.28433 l -0.25342,0.1298 0.0309,0.69228 q -0.0371,1.09405 -0.0804,1.15586 -0.0433,0.0742 -0.15453,0.0742 -0.1298,0 -0.38941,-0.11126 -0.14834,-0.068 -0.23488,-0.14834 -0.0803,-0.0804 -0.15452,-0.23488 -0.17307,-0.35232 -0.17307,-0.63047 0,-0.0989 0.0185,-0.15453 0.0185,-0.0495 0.0927,-0.16689 0.0742,-0.11126 0.13598,-0.22252 0.0556,-0.10508 0.17925,-0.17307 0.1298,-0.0742 0.16071,-0.11126 0.0495,-0.0495 0.0927,-0.0804 0.0494,-0.0309 0.0618,-0.0433 0.0124,-0.0124 0.0124,-0.0433 0,-0.0742 -0.0371,-0.27814 -0.0371,-0.21016 -0.0927,-0.21016 -0.0371,0 -0.16688,0.15453 -0.12981,0.14834 -0.3276,0.30287 -0.1978,0.14834 -0.39559,0.14834 -0.24724,0 -0.40795,-0.29051 -0.0804,-0.14834 -0.10508,-0.33995 -0.0185,-0.19162 -0.0185,-0.80972 0.006,-0.69847 0.0494,-0.95189 0.0495,-0.2596 0.17925,-0.2596 0.0742,0 0.0989,0.0865 0.0247,0.0803 0.0247,0.37705 0,0.11744 -0.006,0.40177 -0.006,0.28432 -0.006,0.46976 z m 0.8159,2.45388 q 0,0.11126 0.16689,0.29051 0.17307,0.18543 0.2596,0.18543 0.0927,0 0.0927,-0.43267 -0.006,-0.11744 -0.0433,-0.29051 -0.0309,-0.17307 -0.0371,-0.24106 l -0.0371,-0.37087 -0.17307,0.26579 q -0.2287,0.3585 -0.2287,0.59338 z" />
      <path
         id="path3245"
         style="font-style:normal;font-variant:normal;font-weight:normal;font-stretch:normal;font-size:6.18107px;font-family:Purisa;-inkscape-font-specification:'Purisa, Normal';font-variant-ligatures:normal;font-variant-caps:normal;font-variant-numeric:normal;font-feature-settings:normal;text-align:start;writing-mode:lr-tb;text-anchor:start;stroke:#050f0e;stroke-width:0.584038;stroke-miterlimit:4;stroke-dasharray:none;stroke-opacity:1"
         d="m 119.56436,-146.4831 q 0.0309,0 0.0309,0.0494 0,0.11126 -0.16689,0.35851 -0.16071,0.24724 -0.34614,0.40795 -0.64901,0.57484 -1.29802,0.57484 -0.24725,0 -0.49449,-0.11126 -0.24106,-0.11744 -0.45122,-0.3276 -0.21015,-0.21016 -0.33996,-0.56248 -0.1298,-0.35232 -0.1298,-0.78499 0,-0.26579 0.0618,-0.45122 0.12362,-0.37705 0.52539,-0.79736 0.40795,-0.42031 0.76646,-0.42031 0.0989,0 0.29669,0.0185 0.29669,0.0247 0.41413,0.0618 0.12362,0.0371 0.27815,0.15453 0.19779,0.14834 0.33996,0.38322 0.14834,0.2287 0.14834,0.38323 0,0.1978 -0.15453,0.30287 -0.15452,0.0989 -0.59956,0.1978 -0.58102,0.1298 -1.13732,0.16071 l -0.57484,0.0309 v 0.24724 q 0,0.4574 0.4265,0.86535 0.32141,0.30906 0.66755,0.30906 0.26579,0 0.56248,-0.16071 0.30287,-0.16689 0.51303,-0.36468 0.21016,-0.1978 0.40177,-0.35851 0.19161,-0.16688 0.2596,-0.16688 z m -0.99515,-1.50819 q -0.19161,-0.17307 -0.29051,-0.21633 -0.0927,-0.0495 -0.24724,-0.0495 -0.30905,0 -0.46358,0.0618 -0.14835,0.0556 -0.30287,0.23488 -0.46977,0.53775 -0.46977,0.717 0,0.0804 0.14835,0.0804 0.56248,0 1.59472,-0.23488 0.30905,-0.0742 0.30905,-0.25961 0,-0.0865 -0.27815,-0.33378 z" />
      <path
         id="path3247"
         style="font-style:normal;font-variant:normal;font-weight:normal;font-stretch:normal;font-size:6.18107px;font-family:Purisa;-inkscape-font-specification:'Purisa, Normal';font-variant-ligatures:normal;font-variant-caps:normal;font-variant-numeric:normal;font-feature-settings:normal;text-align:start;writing-mode:lr-tb;text-anchor:start;stroke:#050f0e;stroke-width:0.584038;stroke-miterlimit:4;stroke-dasharray:none;stroke-opacity:1"
         d="m 120.41116,-147.58952 q -0.0742,0 -0.14834,-0.0309 -0.0742,-0.0309 -0.0742,-0.0804 0,-0.17307 0.63665,-0.41413 0.64283,-0.24106 0.93952,-0.30905 0.0865,-0.0185 0.17925,-0.0185 0.16689,0 0.3276,0.0494 0.1607,0.0433 0.22251,0.11126 0.0804,0.0865 0.0804,0.30288 0,0.32759 -0.17925,0.717 l -0.13599,0.28433 0.2287,0.0309 q 0.27815,0.0185 0.27815,0.0865 0,0.0495 -0.13598,0.11126 -0.13599,0.0618 -0.31524,0.0865 -0.16689,0.0247 -0.26578,0.0804 -0.0927,0.0556 -0.24106,0.21015 -0.15453,0.16071 -0.33996,0.46977 -0.18544,0.30287 -0.18544,0.38322 0,0.0247 0.0309,0.0247 0.0185,0 0.55012,-0.0989 0.53775,-0.10508 0.85298,-0.10508 0.3276,0 0.3276,0.11126 0,0.068 -0.12362,0.11744 -0.12362,0.0433 -0.50067,0.11744 -1.16204,0.2287 -1.41546,0.2287 -0.20398,0 -0.20398,-0.11126 0,-0.11744 0.21016,-0.51921 0.21015,-0.40177 0.33378,-0.55011 0.1607,-0.1978 0.1607,-0.23488 0,-0.0433 -0.25342,-0.0433 -0.30905,0 -0.30905,-0.0989 0,-0.0742 0.14216,-0.12362 0.14835,-0.0495 0.37086,-0.0495 0.22252,0 0.29051,-0.0247 0.0742,-0.0247 0.14835,-0.12981 0.14835,-0.22251 0.24724,-0.49448 0.10508,-0.27815 0.10508,-0.46976 0,-0.10508 -0.0309,-0.12981 -0.0309,-0.0247 -0.15453,-0.0247 -0.29669,0.006 -0.82826,0.16689 -0.53158,0.16071 -0.64902,0.28433 -0.068,0.0865 -0.17307,0.0865 z" />
      <path
         id="path3249"
         style="font-style:normal;font-variant:normal;font-weight:normal;font-stretch:normal;font-size:6.18107px;font-family:Purisa;-inkscape-font-specification:'Purisa, Normal';font-variant-ligatures:normal;font-variant-caps:normal;font-variant-numeric:normal;font-feature-settings:normal;text-align:start;writing-mode:lr-tb;text-anchor:start;stroke:#050f0e;stroke-width:0.584038;stroke-miterlimit:4;stroke-dasharray:none;stroke-opacity:1"
         d="m 126.07302,-149.53037 q 0,-0.0742 0.35232,-0.43268 0.35232,-0.3585 0.46976,-0.3585 0.0865,0 0.0865,0.12362 0,0.10508 -0.3585,0.46358 -0.35232,0.35232 -0.39559,0.35232 -0.0371,0 -0.0989,-0.0495 -0.0556,-0.0556 -0.0556,-0.0989 z m -0.71082,-0.0309 q 0,-0.0742 0.34614,-0.43267 0.35232,-0.3585 0.46976,-0.3585 0.0865,0 0.0865,0.12362 0,0.11126 -0.3585,0.46358 -0.35232,0.35232 -0.39559,0.35232 -0.0309,0 -0.0927,-0.0495 -0.0556,-0.0556 -0.0556,-0.0989 z m -1.13114,1.6318 q 0.48213,-0.45121 0.80972,-0.59338 0.33378,-0.14834 0.84063,-0.14834 0.76645,0 0.95806,0.4574 0.11744,0.27196 0.11744,0.66755 0,0.65519 -0.29051,1.32893 -0.29051,0.66756 -0.717,0.92716 -0.41413,0.25343 -0.87153,0.25343 -0.63665,0 -1.01988,-0.43886 -0.26578,-0.30905 -0.34614,-0.51921 -0.0803,-0.21634 -0.0803,-0.61193 0,-0.74791 0.59956,-1.32275 z m 0.99515,2.54042 q 0.51921,0 0.93953,-0.71082 0.42649,-0.717 0.42649,-1.61944 0,-0.13598 -0.0309,-0.20397 -0.0309,-0.068 -0.11126,-0.13599 -0.2287,-0.19161 -0.48831,-0.19161 -0.0433,0 -0.0989,0.0124 -0.0494,0.006 -0.16688,0.0247 -0.11744,0.0124 -0.27815,0.0309 -0.21634,0.0309 -0.34614,0.0989 -0.12362,0.0618 -0.31524,0.24106 -0.36468,0.34614 -0.51921,0.64283 -0.15452,0.29051 -0.15452,0.63665 0,0.51303 0.31523,0.84063 0.32142,0.32759 0.82826,0.33377 z" />
      <path
         id="path3251"
         style="font-style:normal;font-variant:normal;font-weight:normal;font-stretch:normal;font-size:6.18107px;font-family:Purisa;-inkscape-font-specification:'Purisa, Normal';font-variant-ligatures:normal;font-variant-caps:normal;font-variant-numeric:normal;font-feature-settings:normal;text-align:start;writing-mode:lr-tb;text-anchor:start;stroke:#050f0e;stroke-width:0.584038;stroke-miterlimit:4;stroke-dasharray:none;stroke-opacity:1"
         d="m 132.19845,-148.26325 q 0,-0.3585 0.0989,-0.3585 0.0804,0 0.17307,0.56247 0.0989,0.56248 0.13598,0.56248 0.0124,0 0.0433,-0.0742 0.0309,-0.0804 0.068,-0.17307 0.0371,-0.0989 0.0618,-0.12362 0.0618,-0.0804 0.16689,-0.30288 0.1298,-0.26578 0.19779,-0.32141 0.068,-0.0618 0.24107,-0.0618 0.19161,0 0.42031,0.26578 0.14834,0.17307 0.19779,0.32142 0.0556,0.14216 0.11744,0.51921 l 0.0989,0.58102 0.10508,-0.37087 q 0.15453,-0.53775 0.44504,-0.92716 0.29051,-0.3894 0.53775,-0.3894 0.15453,0 0.28433,0.17925 0.1298,0.17307 0.18543,0.44503 0.0556,0.24725 0.0556,1.11878 0,0.64901 -0.006,1.00133 -0.006,0.35232 -0.0309,0.51303 -0.0185,0.15453 -0.0371,0.17925 -0.0186,0.0309 -0.068,0.0371 -0.0185,0.006 -0.0433,0.006 -0.0556,0 -0.068,-0.17307 -0.0124,-0.17307 -0.0186,-0.97043 0,-1.94704 -0.29669,-1.94704 -0.16071,0 -0.42031,0.53158 -0.21634,0.43885 -0.36468,1.06932 -0.14835,0.63047 -0.17926,1.2733 -0.006,0.15453 -0.0371,0.21016 -0.0247,0.0556 -0.0865,0.0556 -0.0742,0 -0.0989,-0.1298 -0.0185,-0.12363 -0.0433,-0.66756 -0.0433,-1.00133 -0.12362,-1.4031 -0.0804,-0.40795 -0.29669,-0.73555 -0.16071,-0.2287 -0.23489,-0.2287 -0.0865,0 -0.19161,0.21634 -0.10508,0.21015 -0.34614,0.80972 -0.11126,0.29051 -0.11126,0.53157 0,0.14216 -0.0556,0.31523 -0.0494,0.16689 -0.068,0.83445 -0.0124,0.62429 -0.0495,0.71082 -0.0247,0.0742 -0.0989,0.0742 -0.0989,0 -0.13599,-0.29669 -0.0309,-0.29669 -0.0309,-1.18676 0,-0.71701 -0.0495,-1.31657 -0.0433,-0.59956 -0.0433,-0.76645 z" />
      <path
         id="path3253"
         style="font-style:normal;font-variant:normal;font-weight:normal;font-stretch:normal;font-size:6.18107px;font-family:Purisa;-inkscape-font-specification:'Purisa, Normal';font-variant-ligatures:normal;font-variant-caps:normal;font-variant-numeric:normal;font-feature-settings:normal;text-align:start;writing-mode:lr-tb;text-anchor:start;stroke:#050f0e;stroke-width:0.584038;stroke-miterlimit:4;stroke-dasharray:none;stroke-opacity:1"
         d="m 140.03604,-146.4831 q 0.0309,0 0.0309,0.0494 0,0.11126 -0.16689,0.35851 -0.16071,0.24724 -0.34614,0.40795 -0.64901,0.57484 -1.29802,0.57484 -0.24725,0 -0.49449,-0.11126 -0.24106,-0.11744 -0.45122,-0.3276 -0.21015,-0.21016 -0.33996,-0.56248 -0.1298,-0.35232 -0.1298,-0.78499 0,-0.26579 0.0618,-0.45122 0.12362,-0.37705 0.52539,-0.79736 0.40795,-0.42031 0.76645,-0.42031 0.0989,0 0.2967,0.0185 0.29669,0.0247 0.41413,0.0618 0.12362,0.0371 0.27815,0.15453 0.19779,0.14834 0.33995,0.38322 0.14835,0.2287 0.14835,0.38323 0,0.1978 -0.15453,0.30287 -0.15452,0.0989 -0.59956,0.1978 -0.58102,0.1298 -1.13732,0.16071 l -0.57484,0.0309 v 0.24724 q 0,0.4574 0.4265,0.86535 0.32141,0.30906 0.66755,0.30906 0.26579,0 0.56248,-0.16071 0.30287,-0.16689 0.51303,-0.36468 0.21016,-0.1978 0.40177,-0.35851 0.19161,-0.16688 0.2596,-0.16688 z m -0.99515,-1.50819 q -0.19161,-0.17307 -0.29051,-0.21633 -0.0927,-0.0495 -0.24724,-0.0495 -0.30906,0 -0.46358,0.0618 -0.14835,0.0556 -0.30287,0.23488 -0.46977,0.53775 -0.46977,0.717 0,0.0804 0.14835,0.0804 0.56248,0 1.59472,-0.23488 0.30905,-0.0742 0.30905,-0.25961 0,-0.0865 -0.27815,-0.33378 z m -0.32141,-1.8914 q 0.0371,0 0.0927,0.0556 0.0618,0.0494 0.0618,0.0927 0,0.0742 -0.35232,0.43268 -0.34614,0.35232 -0.46358,0.35232 -0.0927,0 -0.0927,-0.11126 0,-0.068 0.068,-0.15453 0.068,-0.0865 0.27196,-0.29051 0.35851,-0.37704 0.41414,-0.37704 z" />
      <path
         id="path3255"
         style="font-style:normal;font-variant:normal;font-weight:normal;font-stretch:normal;font-size:6.18107px;font-family:Purisa;-inkscape-font-specification:'Purisa, Normal';font-variant-ligatures:normal;font-variant-caps:normal;font-variant-numeric:normal;font-feature-settings:normal;text-align:start;writing-mode:lr-tb;text-anchor:start;stroke:#050f0e;stroke-width:0.584038;stroke-miterlimit:4;stroke-dasharray:none;stroke-opacity:1"
         d="m 142.91642,-148.15817 q 0.10508,0 0.18543,0.068 0.0804,0.0618 0.0804,0.10508 0,0.0742 -0.23489,0.16688 -0.38322,0.15453 -0.78499,0.74791 -0.39559,0.58721 -0.48212,1.13732 -0.0989,0.62429 -0.16071,0.8159 -0.0618,0.1978 -0.16071,0.1978 -0.0865,0 -0.13598,-0.0618 -0.0433,-0.0618 -0.0618,-0.13599 -0.0124,-0.0742 -0.0309,-0.27197 -0.006,-0.0371 -0.006,-0.0556 -0.14835,-1.55762 -0.14835,-2.46006 0,-0.32142 0.0247,-0.39559 0.068,-0.19779 0.17307,-0.19779 0.0989,0 0.0989,0.16689 0,0.27814 0.0865,0.89625 0.0865,0.61811 0.1298,0.61811 0.0556,0 0.2287,-0.33996 0.21634,-0.40177 0.57484,-0.69846 0.36468,-0.30287 0.62429,-0.30287 z" />
      <path
         id="path3257"
         style="font-style:normal;font-variant:normal;font-weight:normal;font-stretch:normal;font-size:6.18107px;font-family:Purisa;-inkscape-font-specification:'Purisa, Normal';font-variant-ligatures:normal;font-variant-caps:normal;font-variant-numeric:normal;font-feature-settings:normal;text-align:start;writing-mode:lr-tb;text-anchor:start;stroke:#050f0e;stroke-width:0.584038;stroke-miterlimit:4;stroke-dasharray:none;stroke-opacity:1"
         d="m 145.05506,-149.45002 q 0,-0.2287 -0.0433,-0.58102 -0.0433,-0.35232 -0.0433,-0.5872 0,-0.11744 0.006,-0.15453 0.0185,-0.0989 0.068,-0.15452 0.0556,-0.0618 0.11126,-0.0618 0.0742,0 0.10508,0.068 0.0185,0.0433 0.0556,0.4574 0.0371,0.41413 0.068,0.80972 0.0309,0.39558 0.0433,0.40795 0.006,0.006 0.0185,0.006 0.0495,0 0.28433,-0.0495 0.24106,-0.0556 0.39559,-0.0556 0.30905,0 0.30905,0.13598 0,0.13599 -0.67992,0.30288 l -0.30905,0.0742 0.0371,1.0446 q 0.0309,0.92098 0.11744,1.72452 0.0865,0.79736 0.0865,0.90243 0,0.19162 -0.14216,0.19162 -0.11126,0 -0.18544,-0.1978 -0.068,-0.19779 -0.068,-0.51303 0,-0.2287 -0.0185,-0.46358 -0.0185,-0.24106 -0.068,-0.74172 -0.0433,-0.50685 -0.0865,-1.03842 -0.0185,-0.28433 -0.0309,-0.43886 -0.006,-0.15453 -0.0186,-0.2287 -0.0124,-0.0742 -0.0185,-0.0865 -0.006,-0.0186 -0.0247,-0.0186 -0.0989,0 -0.47595,0.068 -0.37704,0.068 -0.46976,0.068 -0.17925,0 -0.17925,-0.14835 0,-0.10508 0.22252,-0.17925 0.2287,-0.0742 0.51303,-0.1298 0.28433,-0.0618 0.35232,-0.10508 0.068,-0.0495 0.068,-0.3276 z" />
      <path
         id="path3259"
         style="font-style:normal;font-variant:normal;font-weight:normal;font-stretch:normal;font-size:6.18107px;font-family:Purisa;-inkscape-font-specification:'Purisa, Normal';font-variant-ligatures:normal;font-variant-caps:normal;font-variant-numeric:normal;font-feature-settings:normal;text-align:start;writing-mode:lr-tb;text-anchor:start;stroke:#050f0e;stroke-width:0.584038;stroke-miterlimit:4;stroke-dasharray:none;stroke-opacity:1"
         d="m 150.32751,-146.4831 q 0.0309,0 0.0309,0.0494 0,0.11126 -0.16688,0.35851 -0.16071,0.24724 -0.34614,0.40795 -0.64902,0.57484 -1.29803,0.57484 -0.24724,0 -0.49448,-0.11126 -0.24107,-0.11744 -0.45122,-0.3276 -0.21016,-0.21016 -0.33996,-0.56248 -0.1298,-0.35232 -0.1298,-0.78499 0,-0.26579 0.0618,-0.45122 0.12362,-0.37705 0.52539,-0.79736 0.40795,-0.42031 0.76645,-0.42031 0.0989,0 0.29669,0.0185 0.29669,0.0247 0.41413,0.0618 0.12363,0.0371 0.27815,0.15453 0.1978,0.14834 0.33996,0.38322 0.14835,0.2287 0.14835,0.38323 0,0.1978 -0.15453,0.30287 -0.15453,0.0989 -0.59956,0.1978 -0.58102,0.1298 -1.13732,0.16071 l -0.57484,0.0309 v 0.24724 q 0,0.4574 0.42649,0.86535 0.32142,0.30906 0.66756,0.30906 0.26578,0 0.56248,-0.16071 0.30287,-0.16689 0.51303,-0.36468 0.21015,-0.1978 0.40176,-0.35851 0.19162,-0.16688 0.25961,-0.16688 z m -0.99515,-1.50819 q -0.19162,-0.17307 -0.29051,-0.21633 -0.0927,-0.0495 -0.24725,-0.0495 -0.30905,0 -0.46358,0.0618 -0.14834,0.0556 -0.30287,0.23488 -0.46976,0.53775 -0.46976,0.717 0,0.0804 0.14835,0.0804 0.56247,0 1.59471,-0.23488 0.30906,-0.0742 0.30906,-0.25961 0,-0.0865 -0.27815,-0.33378 z m -0.32142,-1.8914 q 0.0371,0 0.0927,0.0556 0.0618,0.0494 0.0618,0.0927 0,0.0742 -0.35232,0.43268 -0.34614,0.35232 -0.46358,0.35232 -0.0927,0 -0.0927,-0.11126 0,-0.068 0.068,-0.15453 0.068,-0.0865 0.27197,-0.29051 0.3585,-0.37704 0.41413,-0.37704 z" />
      <path
         id="path3261"
         style="font-style:normal;font-variant:normal;font-weight:normal;font-stretch:normal;font-size:6.18107px;font-family:Purisa;-inkscape-font-specification:'Purisa, Normal';font-variant-ligatures:normal;font-variant-caps:normal;font-variant-numeric:normal;font-feature-settings:normal;text-align:start;writing-mode:lr-tb;text-anchor:start;stroke:#050f0e;stroke-width:0.584038;stroke-miterlimit:4;stroke-dasharray:none;stroke-opacity:1"
         d="m 150.96416,-149.83324 q 0,-0.22252 0.14216,-0.22252 0.11744,0 0.17307,0.14216 0.0371,0.0865 0.0803,0.53157 0.0495,0.44504 0.0989,1.00134 0.0556,0.55629 0.0927,0.79117 l 0.0495,0.35851 0.70464,-0.70465 q 0.37704,-0.37704 0.53157,-0.50684 0.15453,-0.13599 0.2287,-0.13599 0.0433,0 0.0927,0.0618 0.0556,0.0618 0.0556,0.12362 0,0.0433 -0.0247,0.0742 -0.0185,0.0247 -0.0556,0.0495 -0.0309,0.0185 -0.10508,0.0989 -0.0742,0.0804 -0.1607,0.1978 -0.29051,0.41413 -0.97661,0.96424 -0.24725,0.19162 -0.24725,0.32142 0,0.0865 0.11126,0.14216 l 0.66138,0.30906 q 0.4574,0.21634 0.76027,0.43267 0.30287,0.21634 0.30287,0.33378 0,0.1298 -0.12362,0.1298 -0.11126,0 -0.3276,-0.14834 -0.21633,-0.15453 -0.27196,-0.15453 -0.0742,0 -0.0742,-0.0495 0,-0.068 -0.75409,-0.34614 l -0.32759,-0.12362 0.0433,0.51303 q 0.0186,0.20397 0.0186,0.32142 0,0.2596 -0.12981,0.2596 -0.19779,0 -0.25342,-0.27197 -0.0495,-0.27815 -0.0927,-1.4031 -0.0371,-0.99515 -0.0927,-1.29802 -0.0556,-0.2967 -0.0927,-0.85917 -0.0371,-0.56248 -0.0371,-0.93334 z" />
      <path
         id="path3263"
         style="font-style:normal;font-variant:normal;font-weight:normal;font-stretch:normal;font-size:6.18107px;font-family:Purisa;-inkscape-font-specification:'Purisa, Normal';font-variant-ligatures:normal;font-variant-caps:normal;font-variant-numeric:normal;font-feature-settings:normal;text-align:start;writing-mode:lr-tb;text-anchor:start;stroke:#050f0e;stroke-width:0.584038;stroke-miterlimit:4;stroke-dasharray:none;stroke-opacity:1"
         d="m 157.36774,-146.4831 q 0.0309,0 0.0309,0.0494 0,0.11126 -0.16688,0.35851 -0.16071,0.24724 -0.34614,0.40795 -0.64902,0.57484 -1.29803,0.57484 -0.24724,0 -0.49448,-0.11126 -0.24107,-0.11744 -0.45122,-0.3276 -0.21016,-0.21016 -0.33996,-0.56248 -0.1298,-0.35232 -0.1298,-0.78499 0,-0.26579 0.0618,-0.45122 0.12362,-0.37705 0.52539,-0.79736 0.40795,-0.42031 0.76645,-0.42031 0.0989,0 0.29669,0.0185 0.29669,0.0247 0.41413,0.0618 0.12362,0.0371 0.27815,0.15453 0.1978,0.14834 0.33996,0.38322 0.14835,0.2287 0.14835,0.38323 0,0.1978 -0.15453,0.30287 -0.15453,0.0989 -0.59956,0.1978 -0.58102,0.1298 -1.13732,0.16071 l -0.57484,0.0309 v 0.24724 q 0,0.4574 0.42649,0.86535 0.32142,0.30906 0.66756,0.30906 0.26578,0 0.56248,-0.16071 0.30287,-0.16689 0.51302,-0.36468 0.21016,-0.1978 0.40177,-0.35851 0.19162,-0.16688 0.25961,-0.16688 z m -0.99515,-1.50819 q -0.19162,-0.17307 -0.29051,-0.21633 -0.0927,-0.0495 -0.24725,-0.0495 -0.30905,0 -0.46358,0.0618 -0.14834,0.0556 -0.30287,0.23488 -0.46976,0.53775 -0.46976,0.717 0,0.0804 0.14835,0.0804 0.56247,0 1.59471,-0.23488 0.30906,-0.0742 0.30906,-0.25961 0,-0.0865 -0.27815,-0.33378 z" />
    </g>
    <path
       sodipodi:nodetypes="sscccccccs"
       inkscape:connector-curvature="0"
       id="path4085"
       d="m 65.235927,-192.60339 c -0.0858,-6.8883 -0.179033,-21.61856 -0.329228,-32.73247 l -0.296851,-21.96604 c 8.828036,-5.81672 15.829478,-6.70419 24.996264,0.0627 0,0 0.592198,17.47993 0.652721,24.30468 0.112574,12.69423 -0.05351,28.49323 -0.04342,33.9313 l 0.159059,9.36795 -12.224968,0.42842 -12.750338,-0.29078 z"
       style="opacity:1;vector-effect:none;fill:#f61b2d;fill-opacity:0.8745098;fill-rule:nonzero;stroke:#000000;stroke-width:0.96950305;stroke-linecap:round;stroke-linejoin:miter;stroke-miterlimit:4;stroke-dasharray:none;stroke-dashoffset:0;stroke-opacity:0.8745098;paint-order:markers fill stroke" />
    <path
       sodipodi:nodetypes="sccccccccccccss"
       inkscape:connector-curvature="0"
       d="m 15.161815,-179.99038 h 7.039798 19.713797 27.125861 25.588739 20.22222 13.7949 c 19.21241,0.34906 19.1465,2.08861 0,2.08861 H 114.85223 94.63001 69.041271 41.91541 22.201613 15.161815 c -5.5082413,0 -5.5082413,-2.08861 0,-2.08861 z"
       id="path1801"
       style="opacity:1;fill:#ffa669;fill-opacity:1;stroke:#ff9243;stroke-width:0.5142048;stroke-linecap:square;stroke-miterlimit:4;stroke-dasharray:none;stroke-dashoffset:0;stroke-opacity:1;paint-order:markers fill stroke;enable-background:new" />
    <path
       inkscape:connector-curvature="0"
       d="m 16.945224,-287.74463 c -0.160946,-0.23235 -0.349778,-0.43355 -0.531723,-0.64072 -0.384626,-0.42877 -0.770999,-0.85528 -1.16107,-1.27671 -0.433374,-0.46453 -0.851298,-0.94992 -1.267465,-1.43713 -0.36172,-0.42789 -0.709361,-0.87287 -1.063246,-1.31025 -0.244152,-0.30005 -0.486177,-0.60801 -0.778329,-0.83904 -0.176785,-0.13415 -0.358288,-0.1633 -0.559241,-0.12612 -0.279442,0.0719 -0.527985,0.24677 -0.767661,0.42879 -0.324894,0.2623 -0.616825,0.578 -0.9009433,0.90151 -0.329327,0.38034 -0.640635,0.78295 -0.947931,1.18958 -0.303663,0.40766 -0.597416,0.82584 -0.882481,1.25296 -0.26335,0.39107 -0.525363,0.78347 -0.785617,1.17761 -0.226576,0.34736 -0.4535937,0.69436 -0.6758621,1.04586 -0.1298794,0.20769 -0.065714,0.10478 -0.1920336,0.30867 -2.3687182,3.82502 -3.2556013,3.00772 -0.8868727,-0.81728 v 0 c 0.130543,-0.21086 0.064134,-0.10434 0.198879,-0.31965 0.2270916,-0.35897 0.4588906,-0.71351 0.6903526,-1.06827 0.2615281,-0.39594 0.5247623,-0.79021 0.7893238,-1.18312 0.299535,-0.44854 0.608021,-0.8879 0.927164,-1.31592 0.326368,-0.43172 0.657222,-0.85885 1.007243,-1.26229 0.337962,-0.38381 0.686603,-0.75646 1.0750833,-1.06356 0.382046,-0.28565 0.782416,-0.54092 1.23146,-0.62286 0.463577,-0.0512 0.899373,0.0331 1.297183,0.34714 0.349821,0.29081 0.659486,0.63982 0.951312,1.0135 0.34683,0.42869 0.687615,0.86474 1.041827,1.28445 0.405487,0.47472 0.812534,0.94782 1.234808,1.40042 0.397273,0.4293 0.790861,0.86355 1.1825,1.30048 0.226344,0.25771 0.460091,0.50966 0.654316,0.80525 2.395962,3.79972 1.514965,4.62639 -0.880976,0.8267 z"
       id="path1838-5-93-6-7"
       style="opacity:1;fill:#ffa669;fill-opacity:1;stroke:#ff9243;stroke-width:0.37793419;stroke-linecap:square;stroke-miterlimit:4;stroke-dasharray:none;stroke-dashoffset:0;stroke-opacity:1;paint-order:markers fill stroke;enable-background:new" />
    <path
       sodipodi:nodetypes="cccccccccscc"
       inkscape:connector-curvature="0"
       d="m 71.405954,-233.9379 h 0.909557 3.118884 3.702951 c 0.915608,-0.008 1.831226,0.0125 2.746834,-0.009 3.089085,-0.4281 2.849875,1.34876 4.77e-4,1.45116 -0.915777,0.021 -1.83156,0.002 -2.747338,0.009 H 75.434341 72.315456 71.4059 c -0.632508,0 -0.632508,-1.45129 0,-1.45129 z"
       id="path1803-3-1"
       style="opacity:1;fill:#00000f;fill-opacity:1;stroke:#00000f;stroke-width:0;stroke-linecap:square;stroke-miterlimit:4;stroke-dasharray:none;stroke-dashoffset:0;stroke-opacity:1;paint-order:markers fill stroke;enable-background:new" />
    <path
       inkscape:connector-curvature="0"
       d="m 83.836617,-228.92645 c 0.148334,-0.10966 0.276748,-0.23831 0.408984,-0.36228 0.273691,-0.26204 0.545943,-0.52527 0.814944,-0.79102 0.296534,-0.29526 0.60634,-0.58 0.917334,-0.86353 0.273132,-0.24645 0.557165,-0.4833 0.836342,-0.72441 0.191529,-0.16634 0.388107,-0.33123 0.535561,-0.53026 0.08564,-0.12045 0.104235,-0.24411 0.0805,-0.38103 -0.04593,-0.19039 -0.157508,-0.3597 -0.273704,-0.52301 -0.167426,-0.22134 -0.368931,-0.42023 -0.575428,-0.61381 -0.242785,-0.22437 -0.499754,-0.43647 -0.759306,-0.64583 -0.260239,-0.20688 -0.527152,-0.407 -0.799809,-0.60122 -0.249627,-0.17942 -0.500095,-0.35793 -0.751668,-0.53527 -0.221715,-0.15437 -0.443224,-0.30902 -0.667579,-0.46045 -0.13257,-0.0885 -0.06691,-0.0449 -0.197028,-0.13085 -2.441548,-1.61381 -1.919856,-2.21802 0.521692,-0.60422 v 0 c 0.134575,0.089 0.06657,0.0437 0.204011,0.13552 0.229147,0.15471 0.455442,0.31262 0.681879,0.47033 0.252755,0.17816 0.504418,0.35751 0.755214,0.53776 0.28632,0.20408 0.566749,0.41426 0.839971,0.63169 0.275553,0.22234 0.54821,0.44776 0.805738,0.68623 0.244995,0.23026 0.482847,0.46779 0.678859,0.73245 0.182343,0.2603 0.345266,0.53306 0.397595,0.83901 0.0327,0.31583 -0.02113,0.61272 -0.221599,0.88377 -0.185606,0.23834 -0.408406,0.44932 -0.646926,0.64813 -0.273633,0.2363 -0.551962,0.46847 -0.819877,0.7098 -0.303022,0.27626 -0.604998,0.55358 -0.893894,0.84129 -0.274024,0.27064 -0.551222,0.53881 -0.83011,0.80562 -0.164503,0.15422 -0.32532,0.31348 -0.514009,0.4458 -2.425373,1.63238 -2.953065,1.03217 -0.527692,-0.60021 z"
       id="path1838-5-93-67-9"
       style="opacity:1;fill:#00000f;fill-opacity:1;stroke:#00000f;stroke-width:0.24923095;stroke-linecap:square;stroke-miterlimit:4;stroke-dasharray:none;stroke-dashoffset:0;stroke-opacity:1;paint-order:markers fill stroke;enable-background:new" />
    <path
       inkscape:connector-curvature="0"
       d="m 70.408105,-229.53019 c -0.148334,-0.10966 -0.276748,-0.2383 -0.408984,-0.36227 -0.273691,-0.26204 -0.545943,-0.52527 -0.814944,-0.79102 -0.296534,-0.29526 -0.60634,-0.58 -0.917334,-0.86353 -0.273132,-0.24645 -0.557165,-0.4833 -0.836342,-0.72441 -0.191529,-0.16635 -0.388107,-0.33124 -0.535561,-0.53026 -0.08564,-0.12045 -0.104235,-0.24412 -0.0805,-0.38104 0.04593,-0.19039 0.157508,-0.3597 0.273704,-0.523 0.167426,-0.22134 0.368931,-0.42023 0.575428,-0.61381 0.242785,-0.22438 0.499754,-0.43648 0.759306,-0.64584 0.260239,-0.20687 0.527152,-0.40699 0.799809,-0.60121 0.249627,-0.17943 0.500095,-0.35794 0.751668,-0.53528 0.221715,-0.15437 0.443224,-0.30902 0.667579,-0.46045 0.13257,-0.0885 0.06691,-0.0449 0.197028,-0.13085 2.441548,-1.61381 1.919856,-2.21802 -0.521692,-0.60422 v 0 c -0.134575,0.089 -0.06657,0.0437 -0.204011,0.13552 -0.229147,0.15471 -0.455442,0.31262 -0.681879,0.47033 -0.252755,0.17816 -0.504418,0.35751 -0.755214,0.53776 -0.28632,0.20408 -0.566749,0.41426 -0.839971,0.6317 -0.275553,0.22234 -0.54821,0.44776 -0.805738,0.68623 -0.244995,0.23026 -0.482847,0.46778 -0.678859,0.73245 -0.182343,0.2603 -0.345266,0.53306 -0.397595,0.839 -0.0327,0.31584 0.02113,0.61272 0.221599,0.88377 0.185606,0.23835 0.408406,0.44933 0.646926,0.64814 0.273633,0.2363 0.551962,0.46847 0.819877,0.70979 0.303022,0.27627 0.604998,0.55358 0.893894,0.8413 0.274024,0.27063 0.551222,0.5388 0.83011,0.80562 0.164503,0.15422 0.32532,0.31347 0.514009,0.4458 2.425373,1.63238 2.953065,1.03217 0.527692,-0.60022 z"
       id="path1838-5-93-67-9-4"
       style="opacity:1;fill:#00000f;fill-opacity:1;stroke:#00000f;stroke-width:0.24923095;stroke-linecap:square;stroke-miterlimit:4;stroke-dasharray:none;stroke-dashoffset:0;stroke-opacity:1;paint-order:markers fill stroke;enable-background:new" />
    <path
       inkscape:connector-curvature="0"
       d="m 75.324649,-246.00308 c -0.0274,-0.26054 -0.0414,-0.52315 -0.0563,-0.78531 -0.0328,-0.41319 -0.041,-0.81823 0.0251,-1.22571 0.16936,-0.6331 0.59952,-0.95971 1.04483,-1.22734 0.52101,-0.28863 1.07244,-0.3988 1.63545,-0.38275 0.57771,0.043 1.02491,0.30668 1.45301,0.79583 0.38457,0.50367 0.55842,1.15515 0.67582,1.82922 0.12342,0.80415 -0.0237,1.49683 -0.28815,2.22049 -0.31001,0.75626 -0.7743,1.3673 -1.24996,1.95079 -0.50142,0.60275 -1.05874,1.11771 -1.63275,1.59728 -0.47583,0.38523 -0.98439,0.69496 -1.50115,0.97604 -0.30025,0.16461 -0.6105,0.29327 -0.92606,0.39804 -0.23079,0.0764 -0.17452,0.11952 -0.10309,-0.68516 8e-5,0 0.23512,-0.0302 0.35583,-0.0451 0.38277,-0.0484 0.76652,-0.0818 1.15034,-0.11145 0.42039,-0.0323 0.84125,-0.0527 1.26218,-0.0688 0.32981,-0.0119 0.65975,-0.0173 0.98971,-0.0194 0.22342,0 0.44682,0 0.67021,0.0108 0.14835,0 0.29669,0.0108 0.44501,0.0108 0.0663,0 0.034,0 0.097,0 1.97074,0.0538 1.95894,0.7737 -0.0118,0.71981 v 0 c -0.0631,0 -0.031,0 -0.0968,0 -0.14712,0 -0.29424,-0.0108 -0.44137,-0.0108 -0.22,0 -0.44001,-0.0108 -0.66003,-0.0108 -0.32521,0 -0.6504,0.0108 -0.97545,0.0183 -0.41519,0.0162 -0.83027,0.0366 -1.24492,0.0678 -0.37711,0.029 -0.75415,0.0624 -1.13019,0.1094 -0.10249,0.0129 -0.3587,0.0538 -0.36191,0.0451 -0.2855,-0.67815 -0.34222,-0.64233 -0.0836,-0.72925 0.28921,-0.0958 0.57354,-0.21333 0.84865,-0.36446 0.48681,-0.2642 0.96605,-0.55521 1.41465,-0.91699 0.54532,-0.45504 1.07505,-0.94322 1.55171,-1.51499 0.42668,-0.52218 0.84701,-1.06554 1.13061,-1.73876 0.20891,-0.55681 0.34446,-1.1304 0.24698,-1.75425 -0.0892,-0.52744 -0.21311,-1.04692 -0.50528,-1.45108 -0.30813,-0.36995 -0.66906,-0.58005 -1.09402,-0.61038 -0.47737,-0.0194 -0.94465,0.0774 -1.38759,0.31702 -0.28283,0.16566 -0.5914,0.35176 -0.73392,0.73108 -0.0647,0.33457 -0.0311,0.67483 -0.0131,1.0152 0.0136,0.24021 0.0267,0.48087 0.0502,0.71979 0.32406,2.51062 -0.22589,2.62895 -0.54996,0.11844 z"
       id="path3680-36-9"
       style="opacity:1;fill:#000000;fill-opacity:1;stroke:#000000;stroke-width:0.165;stroke-linecap:square;stroke-miterlimit:4;stroke-dasharray:none;stroke-dashoffset:0;stroke-opacity:1;paint-order:markers fill stroke" />
    <path
       inkscape:connector-curvature="0"
       d="m 75.794166,-266.69385 c 0.25218,-0.27191 0.50068,-0.54792 0.74865,-0.82433 0.46655,-0.51951 0.90592,-1.06633 1.33748,-1.62008 0.39811,-0.50569 0.77274,-1.0314 1.12818,-1.57299 0.19513,-0.30347 0.37782,-0.61674 0.53285,-0.94653 0.14491,-0.33394 0.0559,-0.41901 0.68548,0.0752 0.0491,0.0388 -0.0103,0.13121 -0.0173,0.19661 -0.009,0.0826 -0.0194,0.16524 -0.0293,0.24788 -0.10324,0.77308 -0.21557,1.54472 -0.31462,2.31865 -0.12122,0.95138 -0.21387,1.90668 -0.29479,2.86305 -0.0592,0.71116 -0.10197,1.4237 -0.13121,2.13704 -0.10037,2.44781 -0.7383,2.41698 -0.6379,-0.0303 v 0 c 0.0298,-0.72415 0.0731,-1.44759 0.13327,-2.16958 0.0818,-0.96705 0.17555,-1.93302 0.29817,-2.89508 0.0988,-0.77152 0.21058,-1.54072 0.31372,-2.3115 0.009,-0.0752 0.0187,-0.1516 0.0269,-0.22759 0.006,-0.0534 -0.0339,-0.15148 0.0151,-0.1618 0.78198,-0.16423 0.6648,-0.074 0.52072,0.27384 -0.16998,0.35941 -0.36753,0.7022 -0.58124,1.03296 -0.36583,0.55702 -0.7512,1.09814 -1.16077,1.61852 -0.44123,0.56588 -0.89044,1.12485 -1.3674,1.65578 -0.24998,0.27868 -0.50047,0.55677 -0.75463,0.83097 -1.59635,1.73261 -2.04787,1.24259 -0.45154,-0.49002 z"
       id="path3690-7-3"
       style="opacity:1;fill:#000000;fill-opacity:1;stroke:#000000;stroke-width:0.165;stroke-linecap:square;stroke-miterlimit:4;stroke-dasharray:none;stroke-dashoffset:0;stroke-opacity:1;paint-order:markers fill stroke" />
    <path
       inkscape:connector-curvature="0"
       d="m 15.763695,-188.63838 c -0.0826,-0.19919 -0.13497,-0.41456 -0.18134,-0.63099 -0.0853,-0.37346 -0.10253,-0.75423 -0.0786,-1.13968 0.035,-0.44707 0.17993,-0.82169 0.41991,-1.14402 0.28203,-0.31988 0.64106,-0.43743 1.00346,-0.51823 0.39507,-0.0751 0.78046,0.0116 1.15381,0.17441 0.34141,0.16211 0.61376,0.45055 0.84443,0.8021 0.19,0.31121 0.2952,0.67525 0.35972,1.05636 0.0464,0.31459 0.0413,0.63437 0.0212,0.95182 -0.0155,0.2173 -0.0471,0.43192 -0.0859,0.64423 -0.012,0.0391 -0.0147,0.0815 -0.0252,0.12135 -0.004,0.0127 0.009,-0.0254 0.007,-0.0381 -0.007,-0.0604 -0.002,-0.13056 -0.0308,-0.17968 -0.0906,-0.15409 -0.11805,-0.15016 -0.21209,-0.16732 0.189,-0.0604 0.37955,-0.11256 0.57062,-0.16128 0.31245,-0.0773 0.62771,-0.13437 0.94351,-0.18412 0.28258,-0.0519 0.56605,-0.072 0.85042,-0.0391 0.36571,0.0572 0.54297,0.27341 0.68886,0.69252 0.12871,0.52913 0.14111,1.08886 0.13882,1.63853 -0.008,0.64358 -0.12057,1.26874 -0.28939,1.87209 -0.17424,0.57805 -0.45034,1.07986 -0.78212,1.52692 -0.30747,0.40122 -0.69139,0.6563 -1.09831,0.85167 -0.32684,0.14794 -0.66928,0.20733 -1.01415,0.22288 -0.26806,0.0106 -0.53468,-0.0349 -0.79967,-0.0814 -0.23927,-0.0317 -0.46642,-0.11807 -0.68411,-0.24566 -0.20969,-0.12781 -0.36832,-0.32466 -0.49245,-0.57116 -0.0816,-0.17843 -0.12143,-0.37601 -0.1456,-0.57816 -0.27669,-2.44592 0.26651,-2.54556 0.54318,-0.0996 v 0 c 0.0107,0.10661 0.0293,0.21177 0.0681,0.30812 0.0625,0.13565 0.14662,0.23688 0.25844,0.30728 0.1675,0.1017 0.34338,0.16297 0.52843,0.18701 0.23375,0.0413 0.46886,0.0784 0.70537,0.0752 0.28549,-0.0106 0.56914,-0.0582 0.84022,-0.17895 0.32983,-0.15546 0.64262,-0.356 0.89293,-0.67886 0.28149,-0.37368 0.51378,-0.79628 0.66318,-1.28136 0.15017,-0.52795 0.24798,-1.07646 0.2571,-1.64054 0.003,-0.45743 -0.006,-0.92217 -0.0975,-1.36734 -0.0449,-0.16623 -0.0815,-0.2445 -0.2327,-0.26311 -0.24468,-0.0307 -0.48864,0 -0.73181,0.0371 -0.30237,0.0476 -0.6042,0.10168 -0.90336,0.17598 -0.20215,0.0518 -0.40283,0.11053 -0.60385,0.16836 -0.32365,0.0137 -0.43416,-0.23508 -0.34809,-0.58745 0.0329,-0.17897 0.0599,-0.35982 0.0734,-0.54302 0.0165,-0.2499 0.023,-0.502 -0.0111,-0.75032 -0.0433,-0.27118 -0.11447,-0.53167 -0.24618,-0.75573 -0.16272,-0.25645 -0.35721,-0.46611 -0.60161,-0.58662 -0.28394,-0.12886 -0.57783,-0.19834 -0.87999,-0.1456 -0.24793,0.0529 -0.50203,0.11776 -0.7052,0.31935 -0.15906,0.19274 -0.23856,0.4348 -0.26444,0.71265 -0.0218,0.30442 -0.006,0.60345 0.0615,0.89857 0.0345,0.1637 0.0727,0.32719 0.13337,0.47882 0.92912,2.16944 0.44733,2.50415 -0.48178,0.33471 z"
       id="path3682-62-6"
       style="opacity:1;fill:#000000;fill-opacity:1;stroke:#000000;stroke-width:0.165;stroke-linecap:square;stroke-miterlimit:4;stroke-dasharray:none;stroke-dashoffset:0;stroke-opacity:1;paint-order:markers fill stroke" />
    <path
       inkscape:connector-curvature="0"
       id="path3684-3"
       d="m 131.69741,-192.09654 c -0.13711,0 -0.27422,0.58345 -0.27422,1.75035 v 0.99231 c -0.001,0.52682 0.003,1.05364 -0.003,1.5804 -0.005,0.36972 -0.0148,0.74048 -0.0643,1.10594 -0.12668,0 -0.25332,0 -0.37999,0 -0.002,0.009 -0.004,0.0142 -0.005,0.0224 -0.0102,0.009 -0.0131,0.0285 -0.0122,0.0578 -0.12983,0.63527 -0.24216,0.52624 0.0461,0.61201 0.0552,0.0184 0.11023,0.0364 0.15624,0.0794 0.16225,0.11129 0.33312,0.13267 0.49061,-0.0102 0.0262,-0.0316 0.049,-0.0651 0.0701,-0.0994 0.014,0 0.0278,0 0.0418,0 0.36495,0.004 0.7299,0.008 1.09486,0.012 0.30791,0.004 0.61582,0.006 0.92373,0.009 0.23736,0 0.47467,0.003 0.71204,0.003 -5.9e-4,0.34263 -5e-5,0.68503 0.0144,1.0273 0.01,0.21793 0.0281,0.43523 0.055,0.65105 0.012,0.093 0.0254,0.18562 0.0449,0.27672 0.005,0.0205 0.002,0.011 0.006,0.0294 0.46475,2.26574 0.99713,2.10747 0.53239,-0.15826 -0.005,-0.0252 -0.003,-0.0123 -0.008,-0.0392 -0.0142,-0.0682 -0.0242,-0.13747 -0.0331,-0.20695 -0.0245,-0.19437 -0.0404,-0.39018 -0.0494,-0.58645 -0.0141,-0.33104 -0.0148,-0.6622 -0.0139,-0.99352 0.0808,0 0.16153,0 0.24229,0 0.19548,0 0.39089,0 0.58637,0 0.14424,0 0.28854,0 0.43279,0 0.0773,6e-5 0.0392,0 0.11397,0 1.93906,-0.003 1.93868,-0.66201 -2.5e-4,-0.66008 -0.0748,-3e-5 -0.0368,0 -0.11413,0 -0.14435,0 -0.28878,0 -0.43313,0 -0.19539,0 -0.39081,0 -0.5862,0 -0.0806,-3e-5 -0.16107,0 -0.24162,0 v -0.96215 -0.89842 c 0,-2.33373 -0.54844,-2.33373 -0.54844,0 v 0.89842 0.96193 c -0.23623,0 -0.47246,0 -0.70868,-0.003 -0.30733,-0.003 -0.61474,-0.005 -0.92208,-0.009 -0.31835,-0.004 -0.63663,-0.007 -0.95498,-0.0104 0.0422,-0.36542 0.0566,-0.73435 0.0602,-1.10333 0.006,-0.52955 0.002,-1.05907 0.003,-1.58865 v -0.99213 c 0,-1.16686 -0.13711,-1.75034 -0.27421,-1.75034 z"
       style="opacity:1;fill:#000000;fill-opacity:1;stroke:#000000;stroke-width:0.165;stroke-linecap:square;stroke-miterlimit:4;stroke-dasharray:none;stroke-dashoffset:0;stroke-opacity:1;paint-order:markers fill stroke;enable-background:new" />
  </g>
</svg>
