<svg width="155.07mm" height="153.97mm" version="1.1" viewBox="0 0 155.07 153.97" xmlns="http://www.w3.org/2000/svg">
 <g transform="translate(1.6796 307.98)">
  <g>
   <path d="m15.322-178.96c9.731-0.81207 19.092-5.4443 25.641-12.688 6.8128-7.536 10.426-17.466 12.402-27.431 0.9715-4.8997 1.5892-9.8806 2.9666-14.682 1.3773-4.8015 3.5934-9.5 7.2491-12.904 3.4199-3.1844 8.0201-5.0713 12.691-5.2046s9.3717 1.4882 12.966 4.4739c3.04 2.5249 5.2499 5.9368 6.8239 9.5616 1.5739 3.6249 2.5466 7.4784 3.4337 11.329 1.9226 8.3458 3.4953 16.839 6.7971 24.741 3.3017 7.9024 8.5731 15.317 16.129 19.348 2.9675 1.5834 6.2304 2.6108 9.5698 3.0132" fill="#00887a" stroke="#000" stroke-width="1.1681"/>
   <path d="m10.994-181.96v-64.925c-0.0092-7.6889 0.01608-15.378-0.01043-23.067-0.55071-25.941 1.7351-23.932 1.8668-3e-3 0.02701 7.6904 0.0023 15.381 0.01043 23.071v64.925c0 5.3116-1.867 5.3116-1.867 0z" enable-background="new" fill="#ffa669" stroke="#ff9243" stroke-linecap="square" stroke-width=".57135" style="paint-order:markers fill stroke"/>
   <path d="m142.39-173.07c0.22489-0.16628 0.41963-0.36137 0.62016-0.54935 0.415-0.39738 0.82782-0.79657 1.2357-1.1996 0.44962-0.44775 0.91943-0.87953 1.391-1.3095 0.41416-0.37372 0.84485-0.73289 1.2682-1.0985 0.29041-0.25225 0.58848-0.5023 0.8121-0.80414 0.12985-0.18265 0.15806-0.37017 0.12207-0.57779-0.0696-0.28871-0.23885-0.54549-0.41502-0.79312-0.25389-0.33567-0.55946-0.63728-0.87258-0.93082-0.36813-0.34025-0.75781-0.66188-1.1514-0.97937-0.39458-0.31373-0.79934-0.61723-1.2127-0.91175-0.37852-0.27208-0.75832-0.54278-1.1398-0.81167-0.33622-0.23409-0.67207-0.46864-1.0123-0.69827-0.20103-0.13419-0.10141-0.0679-0.29876-0.19841-3.7022-2.4473-2.9112-3.3636 0.79105-0.91628v0c0.20409 0.13487 0.10099 0.0663 0.30939 0.20547 0.34744 0.23462 0.6906 0.47411 1.034 0.71325 0.38323 0.2702 0.76485 0.54217 1.1452 0.8155 0.43414 0.30947 0.85939 0.62819 1.2737 0.95791 0.41787 0.3372 0.83128 0.67902 1.2218 1.0406 0.3715 0.34917 0.73219 0.70938 1.0294 1.1107 0.27648 0.39472 0.52355 0.80836 0.60286 1.2723 0.0496 0.47895-0.032 0.9292-0.336 1.3402-0.28147 0.36143-0.61928 0.68136-0.98096 0.98287-0.41493 0.35833-0.83698 0.71041-1.2432 1.0764-0.45948 0.41894-0.91739 0.83949-1.3555 1.2758-0.41552 0.41045-0.83583 0.81709-1.2587 1.2217-0.24944 0.23385-0.4933 0.47535-0.77941 0.67602-3.6778 2.4754-4.4779 1.5652-0.80016-0.9102z" enable-background="new" fill="#ffa669" stroke="#ff9243" stroke-linecap="square" stroke-width=".37793" style="paint-order:markers fill stroke"/>
  </g>
  <rect x="-1.6796" y="-284.73" width="154.24" height="130.72" fill-opacity="0" opacity=".873" style="paint-order:markers fill stroke"/>
  <g fill="#00887a" stroke="#00887a" stroke-linecap="square">
   <path d="m26.18-259.71h64.905c7.6866-8e-3 15.373 0.0125 23.06-9e-3 25.933-0.4281 23.925 1.3488 4e-3 1.4512-7.688 0.021-15.376 2e-3 -23.064 9e-3h-64.906c-5.3099 0-5.3099-1.4513 0-1.4513z" enable-background="new" stroke-width=".45452" style="paint-order:markers fill stroke"/>
   <path d="m128.97-253.42c0.23091-0.16198 0.43081-0.35203 0.63666-0.53514 0.42605-0.38708 0.84986-0.77591 1.2686-1.1685 0.46161-0.43615 0.94388-0.85675 1.428-1.2756 0.42518-0.36404 0.86733-0.7139 1.3019-1.0701 0.29815-0.24572 0.60416-0.48929 0.8337-0.78329 0.13331-0.17791 0.16226-0.36059 0.12532-0.56284-0.0715-0.28123-0.24519-0.53133-0.42607-0.77256-0.26063-0.32696-0.57431-0.62076-0.89576-0.9067-0.37794-0.33143-0.77796-0.64474-1.182-0.95399-0.40511-0.3056-0.82061-0.60121-1.245-0.8881-0.38859-0.26504-0.77849-0.52873-1.1701-0.79068-0.34514-0.22803-0.68996-0.45648-1.0392-0.68017-0.20637-0.1307-0.10415-0.0663-0.30671-0.19328-3.8007-2.3839-2.9886-3.2764 0.81211-0.89253 0.20949 0.13139 0.10363 0.0645 0.31758 0.20019 0.35671 0.22853 0.70898 0.46178 1.0615 0.69474 0.39346 0.26318 0.78522 0.5281 1.1756 0.79437 0.44571 0.30146 0.88225 0.61192 1.3076 0.93311 0.42895 0.32843 0.85339 0.6614 1.2543 1.0137 0.38138 0.34013 0.75164 0.69099 1.0568 1.0819 0.28385 0.3845 0.53747 0.78742 0.61893 1.2394 0.0509 0.46652-0.0329 0.90508-0.34496 1.3055-0.28893 0.35207-0.63576 0.66372-1.0071 0.9574-0.42596 0.34905-0.85923 0.69201-1.2763 1.0485-0.47171 0.40807-0.94179 0.81773-1.3915 1.2427-0.42657 0.39979-0.85808 0.79592-1.2922 1.19-0.25608 0.22781-0.50642 0.46306-0.80015 0.65852-3.7755 2.4113-4.597 1.5247-0.82145-0.88661z" enable-background="new" stroke-width=".37793" style="paint-order:markers fill stroke"/>
   <path d="m23.786-253.78c-0.2309-0.16199-0.43081-0.35204-0.63666-0.53515-0.42606-0.38707-0.84987-0.77593-1.2686-1.1685-0.46161-0.43615-0.94388-0.85674-1.428-1.2756-0.42517-0.36404-0.86732-0.71391-1.3019-1.07-0.29814-0.24572-0.60415-0.48929-0.8337-0.7833-0.1333-0.1779-0.16225-0.36058-0.12532-0.56284 0.07154-0.28123 0.24519-0.53133 0.42608-0.77258 0.26062-0.32693 0.57432-0.62073 0.89575-0.90667 0.37794-0.33144 0.77796-0.64475 1.182-0.95399 0.4051-0.30562 0.82061-0.60122 1.2451-0.88812 0.38858-0.26503 0.77849-0.52871 1.1701-0.79066 0.34515-0.22803 0.68996-0.45649 1.0392-0.68017 0.20637-0.1307 0.10412-0.0663 0.30671-0.19329 3.8007-2.3839 2.9886-3.2764-0.81212-0.89253-0.20949 0.1314-0.10363 0.0646-0.31758 0.20019-0.3567 0.22852-0.70898 0.46177-1.0615 0.69474-0.39345 0.26318-0.78521 0.5281-1.1756 0.79438-0.4457 0.30144-0.88224 0.61191-1.3076 0.93311-0.42895 0.32842-0.85339 0.66139-1.2543 1.0137-0.38137 0.34013-0.75164 0.69099-1.0568 1.0819-0.28386 0.38451-0.53748 0.78742-0.61893 1.2394-0.05094 0.46653 0.03283 0.90509 0.34495 1.3055 0.28893 0.35208 0.63577 0.66373 1.0071 0.95741 0.42596 0.34905 0.85923 0.69201 1.2763 1.0485 0.47171 0.40806 0.94178 0.81773 1.3915 1.2427 0.42656 0.39979 0.85808 0.79593 1.2922 1.19 0.25609 0.2278 0.50641 0.46305 0.80014 0.65853 3.7756 2.4113 4.597 1.5247 0.82145-0.88661z" enable-background="new" stroke-width=".37793" style="paint-order:markers fill stroke"/>
  </g>
  <g>
   <g transform="matrix(0 -1.1602 .86192 0 0 0)" stroke="#050f0e" stroke-width=".58404" style="font-feature-settings:normal;font-variant-caps:normal;font-variant-ligatures:normal;font-variant-numeric:normal" aria-label="Gyakoriság">
    <path d="m209.07 6.0291q-0.1978 0-0.38941-0.074173t-0.19161-0.24106q0-0.10508 0.0927-0.16071 0.0927-0.05563 0.21016-0.092716 0.11744-0.037087 0.14834-0.092716 0.0309-0.049448 0.21634-0.049448 0.24106 0 0.56866 0.074173t0.43267 0.16071q0.17926 0.14835 0.27197 0.74791 0.0989 0.59956 0.0989 1.3784 0 0.40795-0.11126 0.48212-0.0495 0.043268-0.11126 0.043268-0.0618 0-0.1298-0.061811-0.12362-0.11744-0.12362-0.80354v-0.70464l-0.1978 0.3276q-0.35232 0.58102-0.79736 0.90862-0.44503 0.32142-0.85916 0.32142-0.24107 0-0.45122-0.11744-0.16071-0.086535-0.24106-0.20398-0.0742-0.12362-0.15453-0.42649-0.0927-0.32142-0.0927-0.5872 0-0.18543 0.0371-0.4883 0.0618-0.49449 0.17307-0.77881 0.11744-0.28433 0.45122-0.77881 0.23488-0.34614 0.51303-0.59338 0.27814-0.24724 0.47594-0.33996 0.20397-0.092716 0.36468-0.17307 0.16689-0.086535 0.20398-0.14835 0.0618-0.10508 0.31523-0.10508 0.27197 0 0.44504 0.11744 0.17925 0.11126 0.17925 0.2287 0 0.074173-0.0742 0.22252-0.0742 0.14216-0.15453 0.14216-0.068 0-0.11126-0.14216-0.0433-0.14835-0.13598-0.14835-0.0927 0-0.23488 0.037086-0.14217 0.037087-0.36469 0.15453-0.21633 0.11744-0.43885 0.29051-0.21634 0.17307-0.46976 0.4883-0.25343 0.30905-0.4574 0.70464-0.18544 0.3585-0.2287 0.53775-0.0433 0.17925-0.0433 0.59956 0 0.60574 0.10508 0.82826 0.10508 0.21634 0.39559 0.21634 0.6181 0 1.0199-0.53157 0.1978-0.26579 0.33996-0.57484 0.14217-0.30905 0.14217-0.46976 0-0.098897-0.0804-0.17307-0.0742-0.080354-0.15452-0.080354-0.0494 0-0.13599 0.067992-0.0803 0.061811-0.26578 0.061811z" style="font-feature-settings:normal;font-variant-caps:normal;font-variant-ligatures:normal;font-variant-numeric:normal"/>
    <path d="m211.85 6.3752q0 0.48212 0.0433 0.717 0.0433 0.2287 0.16689 0.2287 0.11744 0 0.38322-0.29051 0.27197-0.29051 0.38323-0.54393 0.14216-0.30905 0.2287-0.74173 0.0865-0.43886 0.15453-0.66756 0.068-0.2287 0.20397-0.2287 0.068 0 0.12362 0.05563 0.0556 0.05563 0.0556 0.14216 0 0.098897-0.14216 0.64901-0.13599 0.55012-0.13599 1.1559 0 0.19779 0.0186 0.37705l0.0433 0.17925 0.1978-0.098897q0.15453-0.067992 0.24106-0.067992 0.16071 0 0.16071 0.11744 0 0.14835-0.25961 0.28433l-0.25342 0.1298 0.0309 0.69228q-0.0371 1.094-0.0804 1.1559-0.0433 0.074173-0.15453 0.074173-0.1298 0-0.3894-0.11126-0.14835-0.067992-0.23488-0.14835-0.0804-0.080354-0.15453-0.23488-0.17307-0.35232-0.17307-0.63047 0-0.098897 0.0185-0.15453 0.0185-0.049449 0.0927-0.16689 0.0742-0.11126 0.13598-0.22252 0.0556-0.10508 0.17925-0.17307 0.12981-0.074173 0.16071-0.11126 0.0495-0.049449 0.0927-0.080354 0.0495-0.030905 0.0618-0.043267 0.0124-0.012362 0.0124-0.043267 0-0.074173-0.0371-0.27815-0.0371-0.21016-0.0927-0.21016-0.0371 0-0.16689 0.15453-0.1298 0.14835-0.3276 0.30287-0.19779 0.14835-0.39559 0.14835-0.24724 0-0.40795-0.29051-0.0804-0.14835-0.10508-0.33996-0.0185-0.19161-0.0185-0.80972 6e-3 -0.69846 0.0494-0.95188 0.0495-0.2596 0.17925-0.2596 0.0742 0 0.0989 0.086535 0.0247 0.080354 0.0247 0.37705 0 0.11744-6e-3 0.40177t-6e-3 0.46976zm0.8159 2.4539q0 0.11126 0.16689 0.29051 0.17307 0.18543 0.25961 0.18543 0.0927 0 0.0927-0.43267-6e-3 -0.11744-0.0433-0.29051-0.0309-0.17307-0.0371-0.24106l-0.0371-0.37086-0.17307 0.26579q-0.2287 0.3585-0.2287 0.59338z" style="font-feature-settings:normal;font-variant-caps:normal;font-variant-ligatures:normal;font-variant-numeric:normal"/>
    <path d="m216.55 5.0772q-0.28433 0-0.60575 0.11744-0.31523 0.11744-0.56247 0.24106-0.24725 0.11744-0.35851 0.11744-0.0742 0-0.0742-0.061811 0-0.086535 0.0371-0.14835 0.0371-0.061811 0.13598-0.11744 0.0989-0.05563 0.18543-0.092716 0.0927-0.037086 0.29051-0.10508 0.1978-0.074173 0.33996-0.13598 0.33378-0.1298 0.56248-0.1298 0.40795 0 0.63665 0.44504 0.11126 0.21634 0.1298 0.40177 0.0185 0.17925 0.0309 1.0199 6e-3 0.46976 0.0185 0.79118 0.0124 0.31523 0.0247 0.40177l0.0124 0.080354q0 0.086535-0.0804 0.18543-0.0742 0.098897-0.11126 0.098897-0.12362 0-0.19161-0.38941-0.068-0.39559-0.0742-0.39559-0.0186 0-0.0556 0.067992-0.12362 0.20398-0.50067 0.45122-0.37086 0.24106-0.62429 0.24106-0.15452 0-0.36468-0.05563-0.20398-0.061811-0.29669-0.1298-0.068-0.05563-0.11744-0.22252-0.0433-0.16689-0.0433-0.33996 0-0.2596 0.13598-0.44504 0.14217-0.19161 0.50067-0.38941 0.38941-0.2287 0.75409-0.2287 0.14835 0 0.24724 0.049449 0.0989 0.049449 0.14835 0.10508 0.0495 0.049449 0.0804 0.049449 0.0247 0 0.11744 0.067992 0.0927 0.061811 0.0989 0.061811 0.0247 0 0.0247-0.13598 0-0.82826-0.11744-1.1497-0.11126-0.32142-0.33378-0.32142zm0.27815 1.9161q0-0.024724-0.0186-0.05563-0.0124-0.037087-0.0618-0.080354-0.0433-0.049449-0.11744-0.086535-0.068-0.043268-0.19161-0.067992-0.12362-0.030905-0.27815-0.030905-0.26579 0-0.46976 0.092716-0.1978 0.092716-0.29669 0.23488-0.0989 0.14216-0.14835 0.26579-0.0433 0.11744-0.0433 0.21016 0 0.15453 0.0247 0.21016 0.0309 0.05563 0.14216 0.11744 0.13599 0.067992 0.24725 0.067992 0.21015 0 0.51921-0.14835 0.31523-0.15453 0.31523-0.22252 0-0.049448 0.18543-0.23488 0.19162-0.19161 0.19162-0.27197z" style="font-feature-settings:normal;font-variant-caps:normal;font-variant-ligatures:normal;font-variant-numeric:normal"/>
    <path d="m218.06 3.4763q0-0.22252 0.14216-0.22252 0.11744 0 0.17307 0.14216 0.0371 0.086535 0.0804 0.53157 0.0494 0.44504 0.0989 1.0013 0.0556 0.5563 0.0927 0.79118l0.0495 0.3585 0.70464-0.70464q0.37705-0.37705 0.53157-0.50685 0.15453-0.13598 0.2287-0.13598 0.0433 0 0.0927 0.061811 0.0556 0.061811 0.0556 0.12362 0 0.043268-0.0247 0.074173-0.0185 0.024724-0.0556 0.049448-0.0309 0.018543-0.10507 0.098897-0.0742 0.080354-0.16071 0.19779-0.29051 0.41413-0.97661 0.96425-0.24724 0.19161-0.24724 0.32142 0 0.086535 0.11126 0.14216l0.66137 0.30905q0.4574 0.21634 0.76027 0.43267 0.30287 0.21634 0.30287 0.33378 0 0.1298-0.12362 0.1298-0.11126 0-0.32759-0.14835-0.21634-0.15453-0.27197-0.15453-0.0742 0-0.0742-0.049449 0-0.067992-0.75409-0.34614l-0.3276-0.12362 0.0433 0.51303q0.0185 0.20398 0.0185 0.32142 0 0.2596-0.1298 0.2596-0.1978 0-0.25343-0.27197-0.0495-0.27815-0.0927-1.4031-0.0371-0.99515-0.0927-1.298-0.0556-0.29669-0.0927-0.85917-0.0371-0.56248-0.0371-0.93334z" style="font-feature-settings:normal;font-variant-caps:normal;font-variant-ligatures:normal;font-variant-numeric:normal"/>
    <path d="m221.9 5.3801q0.48212-0.45122 0.80972-0.59338 0.33378-0.14835 0.84062-0.14835 0.76646 0 0.95807 0.4574 0.11744 0.27197 0.11744 0.66756 0 0.65519-0.29051 1.3289-0.29051 0.66756-0.71701 0.92716-0.41413 0.25342-0.87153 0.25342-0.63665 0-1.0199-0.43886-0.26579-0.30905-0.34614-0.51921-0.0804-0.21634-0.0804-0.61193 0-0.74791 0.59957-1.3227zm0.99515 2.5404q0.51921 0 0.93952-0.71082 0.4265-0.717 0.4265-1.6194 0-0.13598-0.0309-0.20398-0.0309-0.067992-0.11126-0.13598-0.2287-0.19161-0.4883-0.19161-0.0433 0-0.0989 0.012362-0.0495 0.00618-0.16689 0.024724-0.11744 0.012362-0.27815 0.030905-0.21633 0.030905-0.34614 0.098897-0.12362 0.061811-0.31523 0.24106-0.36468 0.34614-0.51921 0.64283-0.15453 0.29051-0.15453 0.63665 0 0.51303 0.31524 0.84063 0.32141 0.3276 0.82826 0.33378z" style="font-feature-settings:normal;font-variant-caps:normal;font-variant-ligatures:normal;font-variant-numeric:normal"/>
    <path d="m227.54 5.1514q0.10508 0 0.18543 0.067992 0.0803 0.061811 0.0803 0.10508 0 0.074173-0.23488 0.16689-0.38322 0.15453-0.78499 0.74791-0.39559 0.5872-0.48213 1.1373-0.0989 0.62429-0.1607 0.8159-0.0618 0.19779-0.16071 0.19779-0.0865 0-0.13599-0.061811-0.0433-0.061811-0.0618-0.13598-0.0124-0.074173-0.0309-0.27197-6e-3 -0.037087-6e-3 -0.05563-0.14835-1.5576-0.14835-2.4601 0-0.32142 0.0247-0.39559 0.068-0.19779 0.17307-0.19779 0.0989 0 0.0989 0.16689 0 0.27815 0.0865 0.89626 0.0865 0.61811 0.1298 0.61811 0.0556 0 0.2287-0.33996 0.21634-0.40177 0.57484-0.69846 0.36468-0.30287 0.62429-0.30287z" style="font-feature-settings:normal;font-variant-caps:normal;font-variant-ligatures:normal;font-variant-numeric:normal"/>
    <path d="m228.93 4.6322q0.0865-0.074173 0.14835-0.074173 0.1298 0 0.18543 0.41413 0.0618 0.40795 0.11126 1.5762 0.0247 0.54393 0.0247 0.98279 0 0.43886-0.0371 0.48212-0.0742 0.092716-0.18543 0.092716-0.15453 0-0.19162-0.1298-0.0309-0.080354-0.0927-1.2486-0.0618-1.1744-0.0618-1.6318 0-0.38323 0.0989-0.46358zm-0.0371-1.4526q0-0.086535 0.068-0.17307 0.0742-0.086535 0.1298-0.086535 0.0618 0 0.16689 0.086535 0.11126 0.080354 0.11126 0.21016 0 0.092716-0.0556 0.16071-0.0495 0.061811-0.13598 0.061811-0.0989 0-0.19162-0.074173-0.0927-0.074173-0.0927-0.18543z" style="font-feature-settings:normal;font-variant-caps:normal;font-variant-ligatures:normal;font-variant-numeric:normal"/>
    <path d="m231.06 6.7028q-0.0927 0-0.39559-0.22252-0.30287-0.2287-0.30287-0.46358 0-0.22252 0.31524-0.61193 0.31523-0.39559 0.76027-0.50685 0.20397-0.05563 0.53775-0.05563 0.14217 0 0.21016 0.037086 0.068 0.037086 0.18543 0.16689 0.19161 0.21634 0.19161 0.29669 0 0.074173-0.0803 0.074173-0.0989 0-0.16689-0.067992-0.068-0.074173-0.16689-0.14835-0.0989-0.074173-0.26579-0.074173-0.21633 0-0.46358 0.11744-0.24724 0.11744-0.43885 0.3276-0.27197 0.29051-0.27197 0.39559t0.16071 0.25342q0.16071 0.14216 0.53775 0.27197 0.59339 0.20398 0.80354 0.38323 0.21016 0.17925 0.21016 0.48212 0 0.28433-0.0989 0.51921-0.068 0.17925-0.29051 0.40177-0.22252 0.22252-0.43886 0.22252-0.16688 0-0.43267-0.05563-0.26579-0.049449-0.40177-0.11744-0.11126-0.05563-0.20398-0.21634-0.0927-0.16689-0.0927-0.29669 0-0.067992 0.0309-0.11744 0.0371-0.05563 0.0865-0.05563 0.0927 0 0.17307 0.17307 0.0742 0.15453 0.29669 0.27815 0.2287 0.12362 0.42649 0.12362 0.26579 0 0.46977-0.31523 0.20397-0.32142 0.20397-0.50067 0-0.043268-0.0247-0.10508-0.0186-0.067992-0.10508-0.16071-0.0865-0.092716-0.22252-0.14216-0.1298-0.043267-0.30287-0.11744-0.17307-0.074173-0.29051-0.12362-0.11126-0.049449-0.14217-0.049449z" style="font-feature-settings:normal;font-variant-caps:normal;font-variant-ligatures:normal;font-variant-numeric:normal"/>
    <path d="m235.64 6.6781q0.0309 0 0.0309-0.11744 0-0.83444-0.11744-1.1559-0.11744-0.3276-0.33996-0.3276-0.11744 0-0.33996 0.043268-0.22251 0.043267-0.35232 0.10508l-0.16689 0.074173q-0.50684 0.25342-0.66755 0.25342-0.068 0-0.068-0.067992 0-0.086535 0.0371-0.14835 0.0371-0.061811 0.13599-0.11744 0.0989-0.05563 0.19161-0.092716 0.0989-0.037086 0.29051-0.10508 0.19161-0.067992 0.33378-0.1298 0.33378-0.1298 0.56866-0.1298 0.19779 0 0.35232 0.10508 0.16071 0.10508 0.24106 0.26579 0.0803 0.15453 0.11744 0.27197 0.0371 0.11744 0.0495 0.20398 0.0185 0.17925 0.0309 1.162 0.0185 0.98279 0.0494 1.0879 6e-3 0.018543 6e-3 0.049449 0 0.080354-0.0803 0.17925-0.0804 0.098897-0.11126 0.098897-0.0247 0-0.0803-0.05563t-0.0927-0.23488q-0.0371-0.18543-0.0556-0.33378-0.0185-0.15453-0.0371-0.15453-0.0185 0-0.0556 0.061811-0.14834 0.23488-0.5192 0.46358-0.36469 0.2287-0.60575 0.2287-0.14216 0-0.35232-0.049449-0.21016-0.05563-0.30905-0.13598-0.0618-0.049449-0.11744-0.21634-0.0495-0.16689-0.0495-0.33378 0-0.2596 0.14216-0.45122 0.14217-0.19779 0.50067-0.39559 0.38322-0.2287 0.76645-0.2287 0.14217 0 0.23488 0.049449 0.0927 0.049449 0.14217 0.10508 0.0494 0.049449 0.0865 0.049449 0.0309 0 0.10508 0.061811 0.0803 0.061811 0.10508 0.061811zm-0.13599 0.31523q0-0.024724-0.0185-0.05563-0.0124-0.037087-0.0618-0.080354-0.0433-0.049449-0.11744-0.086535-0.0742-0.043268-0.20398-0.067992-0.12362-0.030905-0.28432-0.030905-0.25343 0-0.45122 0.092716-0.1978 0.086535-0.29669 0.22252-0.0989 0.13598-0.14835 0.26579-0.0495 0.12362-0.0495 0.22252 0 0.16689 0.0309 0.22252 0.0309 0.049449 0.13598 0.10508 0.11744 0.061811 0.26579 0.061811 0.19779 0 0.50684-0.14835 0.30906-0.14835 0.30906-0.21634 0-0.049448 0.19161-0.23488 0.19161-0.19161 0.19161-0.27197zm-0.9457-2.732q0-0.074173 0.34614-0.42649 0.35232-0.3585 0.46976-0.3585 0.0927 0 0.0927 0.11126 0 0.049449-0.0495 0.1298-0.0742 0.10508-0.37087 0.40177-0.29051 0.29051-0.33377 0.29051-0.0371 0-0.0989-0.049449-0.0556-0.05563-0.0556-0.098897z" style="font-feature-settings:normal;font-variant-caps:normal;font-variant-ligatures:normal;font-variant-numeric:normal"/>
    <path d="m239.58 9.3236q0.30287 0 0.30287-0.26579 0-0.45122-0.0371-0.79736-0.0309-0.33996-0.0804-0.57484-0.0433-0.23488-0.0495-0.33996-0.0433-0.63047-0.0865-0.63047-0.0247 0-0.0927 0.11126-0.15453 0.2287-0.50067 0.51303t-0.57484 0.37086q-0.26578 0.10508-0.5872 0.10508-0.19779 0-0.31523-0.049449-0.11126-0.049448-0.29669-0.21016-0.17925-0.16071-0.25343-0.28433-0.0742-0.12362-0.11744-0.35232-0.0433-0.2287-0.0433-0.38941 0-0.11744 0.0186-0.17307 0.0433-0.16689 0.2287-0.51921 0.18543-0.35232 0.33996-0.55012 0.1298-0.17307 0.48212-0.40177 0.3585-0.23488 0.63047-0.32142 0.28433-0.092716 0.64901-0.092716 0.4574 0 0.76027 0.16071 0.30288 0.15453 0.30288 0.48212 0 0.18543-0.0927 0.4574-0.0865 0.27197-0.0865 0.47594 0 0.10508 0.14217 2.0459l0.0927 1.2795-0.21633 0.17307q-0.17307 0.14216-0.35232 0.14216-0.3276 0-0.79736-0.16689-0.46976-0.16071-0.80972-0.37705-0.33996-0.21016-0.33996-0.34614 0-0.16071 0.16689-0.39559 0.17307-0.23488 0.29051-0.23488 0.13598 0 0.13598 0.092716 0 0.05563-0.0556 0.16689-0.0556 0.11126-0.0556 0.21634 0 0.17307 0.2287 0.30287 0.2287 0.1298 0.38941 0.1298 0.0927 0 0.30287 0.12362 0.21634 0.12362 0.37705 0.12362zm-2.3488-2.8062q0 0.3585 0.18543 0.65519 0.18543 0.29669 0.46358 0.29669 0.37705 0 0.80972-0.33996 0.43886-0.34614 0.71083-0.85917 0.14834-0.29051 0.25342-0.66137 0.11126-0.37705 0.11126-0.59338 0-0.12362-0.0433-0.14835-0.14216-0.074173-0.45122-0.074173-0.28433 0-0.4883 0.061811-0.53775 0.15453-1.0446 0.72319t-0.50685 0.93952z" style="font-feature-settings:normal;font-variant-caps:normal;font-variant-ligatures:normal;font-variant-numeric:normal"/>
   </g>
   <g transform="scale(.86192 1.1602)" stroke="#050f0e" stroke-width=".58404" style="font-feature-settings:normal;font-variant-caps:normal;font-variant-ligatures:normal;font-variant-numeric:normal" aria-label="Környezeti tényező mértéke">
    <path d="m63.385-149.87q0-0.24106 0.02472-0.3276 0.02472-0.0927 0.12362-0.0927 0.1298 0 0.21634 0.1607 0.07417 0.14835 0.08653 0.82209 0 0.67373 0.05563 1.0199l0.05563 0.34614 0.60574-0.64901q0.61193-0.64901 0.70464-0.64901 0.07417 0 0.23488-0.16071 0.16689-0.16071 0.24106-0.16071 0.07417 0 0.21016-0.11744 0.13598-0.11744 0.25342-0.11744 0.10508 0 0.17925 0.0742 0.08035 0.068 0.08035 0.18544 0 0.0742-0.06181 0.11744-0.05563 0.0433-0.21016 0.0927-0.29051 0.0804-1.1682 0.95807-0.87771 0.87771-0.87771 1.0755 0 0.0309 1.0446 0.59956 0.35232 0.19161 0.64283 0.3585 0.29051 0.16071 0.42031 0.24724 0.1298 0.0804 0.2287 0.14217 0.0989 0.0618 0.14216 0.0803 0.04327 0.0186 0.08654 0.0186 0.11126 0 0.3585 0.22251 0.25342 0.21634 0.25342 0.30906 0 0.11744-0.06181 0.11744-0.11744 0-0.54394-0.15453-0.42649-0.15453-0.61811-0.26579-0.40177-0.24106-1.1868-0.63665-0.785-0.40176-0.84681-0.40176-0.06181 0-0.06181 0.1607 0 0.068 0.05563 0.5872 0.06181 0.51303 0.06181 0.79118 0 0.37087-0.16071 0.37087-0.21634 0-0.28433-0.24107-0.06181-0.23488-0.1298-1.1188-0.01854-0.17925-0.02472-0.27815-0.1298-1.6565-0.1298-3.4861z" style="font-feature-settings:normal;font-variant-caps:normal;font-variant-ligatures:normal;font-variant-numeric:normal"/>
    <path d="m70.839-149.86q-0.04945 0.17925-0.12362 0.29051-0.07417 0.11126-0.1298 0.14216-0.05563 0.0247-0.0989 0.0247-0.0989 0-0.16071-0.10508-0.05563-0.11126-0.05563-0.25342 0-0.11744 0.04945-0.1978 0.05563-0.0803 0.15453-0.0803 0.11126 0 0.36468 0.17925zm-0.92716-0.0309q-0.04945 0.17926-0.12362 0.29051-0.07417 0.11126-0.1298 0.14217-0.05563 0.0247-0.0989 0.0247-0.0989 0-0.16071-0.10507-0.05563-0.11126-0.05563-0.25343 0-0.11744 0.04945-0.19779 0.05563-0.0804 0.15453-0.0804 0.0989 0 0.36468 0.17925zm-1.3475 1.9656q0.48212-0.45121 0.80972-0.59338 0.33378-0.14834 0.84063-0.14834 0.76645 0 0.95807 0.4574 0.11744 0.27196 0.11744 0.66755 0 0.65519-0.29051 1.3289-0.29051 0.66756-0.717 0.92716-0.41413 0.25343-0.87153 0.25343-0.63665 0-1.0199-0.43886-0.26579-0.30905-0.34614-0.51921-0.08035-0.21634-0.08035-0.61193 0-0.74791 0.59956-1.3228zm0.99515 2.5404q0.51921 0 0.93952-0.71082 0.42649-0.717 0.42649-1.6194 0-0.13598-0.03091-0.20397-0.03091-0.068-0.11126-0.13599-0.2287-0.19161-0.4883-0.19161-0.04327 0-0.0989 0.0124-0.04945 6e-3 -0.16689 0.0247-0.11744 0.0124-0.27815 0.0309-0.21634 0.0309-0.34614 0.0989-0.12362 0.0618-0.31524 0.24106-0.36468 0.34614-0.51921 0.64283-0.15453 0.29051-0.15453 0.63665 0 0.51303 0.31524 0.84063 0.32142 0.32759 0.82826 0.33377z" style="font-feature-settings:normal;font-variant-caps:normal;font-variant-ligatures:normal;font-variant-numeric:normal"/>
    <path d="m74.202-148.16q0.10508 0 0.18543 0.068 0.08035 0.0618 0.08035 0.10508 0 0.0742-0.23488 0.16688-0.38323 0.15453-0.785 0.74791-0.39559 0.58721-0.48212 1.1373-0.0989 0.62429-0.16071 0.8159-0.06181 0.1978-0.16071 0.1978-0.08654 0-0.13598-0.0618-0.04327-0.0618-0.06181-0.13599-0.01236-0.0742-0.03091-0.27197-0.0062-0.0371-0.0062-0.0556-0.14834-1.5576-0.14834-2.4601 0-0.32142 0.02472-0.39559 0.06799-0.19779 0.17307-0.19779 0.0989 0 0.0989 0.16689 0 0.27814 0.08654 0.89625 0.08653 0.61811 0.1298 0.61811 0.05563 0 0.2287-0.33996 0.21634-0.40177 0.57484-0.69846 0.36468-0.30287 0.62429-0.30287z" style="font-feature-settings:normal;font-variant-caps:normal;font-variant-ligatures:normal;font-variant-numeric:normal"/>
    <path d="m75.673-148.5q0-0.21016 0.12362-0.21016 0.08035 0 0.11744 0.18543 0.03709 0.17925 0.13598 1.0755 0.11126 0.97043 0.1298 1.0137 0.02473-0.0247 0.17925-0.50066 0.14216-0.44504 0.22252-0.61811 0.08653-0.17925 0.29669-0.47594 0.45122-0.62429 0.69846-0.62429 0.16071 0 0.30287 0.21634 0.19161 0.28433 0.23488 0.56247 0.04327 0.27815 0.06181 1.3166 0.01236 0.66756 0.01236 0.79118 0 0.30905-0.02472 0.45122-0.01854 0.13598-0.06181 0.16689-0.03709 0.0371-0.13598 0.0433-0.05563 0-0.07417-0.0494-0.01854-0.0433-0.01854-0.21016 0-0.0927 0.01236-0.39559 0.01236-0.30905 0.01236-0.51921 0-0.52539-0.04327-1.0261-0.03709-0.50684-0.09272-0.64901-0.03091-0.0804-0.0989-0.16689-0.06799-0.0865-0.1298-0.0865-0.1298 0-0.41413 0.44503-0.28433 0.43886-0.4883 0.92716-0.19161 0.46977-0.2596 0.70465-0.06799 0.23488-0.10508 0.62428-0.06799 0.63047-0.0989 0.63047-0.04945 0-0.14216-0.10507-0.06799-0.068-0.09272-0.29052-0.02473-0.22869-0.06799-0.89625-0.04327-0.67374-0.11744-1.3598-0.07417-0.71082-0.07417-0.97042z" style="font-feature-settings:normal;font-variant-caps:normal;font-variant-ligatures:normal;font-variant-numeric:normal"/>
    <path d="m79.511-146.93q0 0.48212 0.04327 0.717 0.04327 0.2287 0.16689 0.2287 0.11744 0 0.38323-0.29051 0.27197-0.29051 0.38323-0.54393 0.14216-0.30906 0.2287-0.74173 0.08653-0.43886 0.15453-0.66756 0.06799-0.2287 0.20398-0.2287 0.06799 0 0.12362 0.0556 0.05563 0.0556 0.05563 0.14217 0 0.0989-0.14216 0.64901-0.13598 0.55011-0.13598 1.1559 0 0.19779 0.01854 0.37704l0.04327 0.17926 0.1978-0.0989q0.15453-0.068 0.24106-0.068 0.16071 0 0.16071 0.11744 0 0.14834-0.2596 0.28433l-0.25342 0.1298 0.03091 0.69228q-0.03709 1.094-0.08035 1.1559-0.04327 0.0742-0.15453 0.0742-0.1298 0-0.38941-0.11126-0.14835-0.068-0.23488-0.14834-0.08035-0.0804-0.15453-0.23488-0.17307-0.35232-0.17307-0.63047 0-0.0989 0.01854-0.15453 0.01854-0.0495 0.09272-0.16689 0.07417-0.11126 0.13598-0.22252 0.05563-0.10508 0.17925-0.17307 0.1298-0.0742 0.16071-0.11126 0.04945-0.0495 0.09272-0.0804 0.04945-0.0309 0.06181-0.0433t0.01236-0.0433q0-0.0742-0.03709-0.27814-0.03709-0.21016-0.09272-0.21016-0.03709 0-0.16689 0.15453-0.1298 0.14834-0.3276 0.30287-0.1978 0.14834-0.39559 0.14834-0.24724 0-0.40795-0.29051-0.08035-0.14834-0.10508-0.33995-0.01854-0.19162-0.01854-0.80972 0.0062-0.69847 0.04945-0.95189 0.04945-0.2596 0.17925-0.2596 0.07417 0 0.0989 0.0865 0.02472 0.0803 0.02472 0.37705 0 0.11744-0.0062 0.40177-0.0062 0.28432-0.0062 0.46976zm0.8159 2.4539q0 0.11126 0.16689 0.29051 0.17307 0.18543 0.2596 0.18543 0.09272 0 0.09272-0.43267-0.0062-0.11744-0.04327-0.29051-0.03091-0.17307-0.03709-0.24106l-0.03709-0.37087-0.17307 0.26579q-0.2287 0.3585-0.2287 0.59338z" style="font-feature-settings:normal;font-variant-caps:normal;font-variant-ligatures:normal;font-variant-numeric:normal"/>
    <path d="m85.482-146.48q0.03091 0 0.03091 0.0494 0 0.11126-0.16689 0.35851-0.16071 0.24724-0.34614 0.40795-0.64901 0.57484-1.298 0.57484-0.24724 0-0.49449-0.11126-0.24106-0.11744-0.45122-0.3276t-0.33996-0.56248q-0.1298-0.35232-0.1298-0.78499 0-0.26579 0.06181-0.45122 0.12362-0.37705 0.52539-0.79736 0.40795-0.42031 0.76645-0.42031 0.0989 0 0.29669 0.0185 0.29669 0.0247 0.41413 0.0618 0.12362 0.0371 0.27815 0.15453 0.19779 0.14834 0.33996 0.38322 0.14835 0.2287 0.14835 0.38323 0 0.1978-0.15453 0.30287-0.15453 0.0989-0.59956 0.1978-0.58102 0.1298-1.1373 0.16071l-0.57484 0.0309v0.24724q0 0.4574 0.42649 0.86535 0.32142 0.30906 0.66756 0.30906 0.26579 0 0.56248-0.16071 0.30287-0.16689 0.51303-0.36468 0.21016-0.1978 0.40177-0.35851 0.19161-0.16688 0.2596-0.16688zm-0.99515-1.5082q-0.19161-0.17307-0.29051-0.21633-0.09272-0.0495-0.24724-0.0495-0.30905 0-0.46358 0.0618-0.14834 0.0556-0.30287 0.23488-0.46976 0.53775-0.46976 0.717 0 0.0804 0.14835 0.0804 0.56248 0 1.5947-0.23488 0.30905-0.0742 0.30905-0.25961 0-0.0865-0.27815-0.33378z" style="font-feature-settings:normal;font-variant-caps:normal;font-variant-ligatures:normal;font-variant-numeric:normal"/>
    <path d="m86.329-147.59q-0.07417 0-0.14834-0.0309-0.07417-0.0309-0.07417-0.0804 0-0.17307 0.63665-0.41413 0.64283-0.24106 0.93952-0.30905 0.08654-0.0185 0.17925-0.0185 0.16689 0 0.3276 0.0494 0.16071 0.0433 0.22252 0.11126 0.08035 0.0865 0.08035 0.30288 0 0.32759-0.17925 0.717l-0.13598 0.28433 0.2287 0.0309q0.27815 0.0185 0.27815 0.0865 0 0.0495-0.13598 0.11126-0.13598 0.0618-0.31523 0.0865-0.16689 0.0247-0.26579 0.0804-0.09272 0.0556-0.24106 0.21015-0.15453 0.16071-0.33996 0.46977-0.18543 0.30287-0.18543 0.38322 0 0.0247 0.03091 0.0247 0.01854 0 0.55012-0.0989 0.53775-0.10508 0.85299-0.10508 0.3276 0 0.3276 0.11126 0 0.068-0.12362 0.11744-0.12362 0.0433-0.50067 0.11744-1.162 0.2287-1.4155 0.2287-0.20398 0-0.20398-0.11126 0-0.11744 0.21016-0.51921t0.33378-0.55011q0.16071-0.1978 0.16071-0.23488 0-0.0433-0.25342-0.0433-0.30905 0-0.30905-0.0989 0-0.0742 0.14216-0.12362 0.14835-0.0495 0.37086-0.0495 0.22252 0 0.29051-0.0247 0.07417-0.0247 0.14835-0.12981 0.14835-0.22251 0.24724-0.49448 0.10508-0.27815 0.10508-0.46976 0-0.10508-0.0309-0.12981-0.03091-0.0247-0.15453-0.0247-0.29669 6e-3 -0.82826 0.16689-0.53157 0.16071-0.64901 0.28433-0.06799 0.0865-0.17307 0.0865z" style="font-feature-settings:normal;font-variant-caps:normal;font-variant-ligatures:normal;font-variant-numeric:normal"/>
    <path d="m92.714-146.48q0.0309 0 0.0309 0.0494 0 0.11126-0.16689 0.35851-0.16071 0.24724-0.34614 0.40795-0.64901 0.57484-1.298 0.57484-0.24724 0-0.49449-0.11126-0.24106-0.11744-0.45122-0.3276t-0.33996-0.56248q-0.1298-0.35232-0.1298-0.78499 0-0.26579 0.06181-0.45122 0.12362-0.37705 0.52539-0.79736 0.40795-0.42031 0.76645-0.42031 0.0989 0 0.29669 0.0185 0.29669 0.0247 0.41413 0.0618 0.12362 0.0371 0.27815 0.15453 0.19779 0.14834 0.33996 0.38322 0.14835 0.2287 0.14835 0.38323 0 0.1978-0.15453 0.30287-0.15453 0.0989-0.59956 0.1978-0.58102 0.1298-1.1373 0.16071l-0.57484 0.0309v0.24724q0 0.4574 0.42649 0.86535 0.32142 0.30906 0.66756 0.30906 0.26579 0 0.56248-0.16071 0.30287-0.16689 0.51303-0.36468 0.21016-0.1978 0.40177-0.35851 0.19161-0.16688 0.2596-0.16688zm-0.99515-1.5082q-0.19161-0.17307-0.29051-0.21633-0.09272-0.0495-0.24724-0.0495-0.30905 0-0.46358 0.0618-0.14834 0.0556-0.30287 0.23488-0.46976 0.53775-0.46976 0.717 0 0.0804 0.14834 0.0804 0.56248 0 1.5947-0.23488 0.30905-0.0742 0.30905-0.25961 0-0.0865-0.27815-0.33378z" style="font-feature-settings:normal;font-variant-caps:normal;font-variant-ligatures:normal;font-variant-numeric:normal"/>
    <path d="m94.463-149.45q0-0.2287-0.04327-0.58102t-0.04327-0.5872q0-0.11744 0.0062-0.15453 0.01854-0.0989 0.06799-0.15452 0.05563-0.0618 0.11126-0.0618 0.07417 0 0.10508 0.068 0.01854 0.0433 0.05563 0.4574 0.03709 0.41413 0.06799 0.80972 0.03091 0.39558 0.04327 0.40795 0.0062 6e-3 0.01854 6e-3 0.04945 0 0.28433-0.0495 0.24106-0.0556 0.39559-0.0556 0.30905 0 0.30905 0.13598 0 0.13599-0.67992 0.30288l-0.30905 0.0742 0.03709 1.0446q0.03091 0.92098 0.11744 1.7245 0.08653 0.79736 0.08653 0.90243 0 0.19162-0.14216 0.19162-0.11126 0-0.18543-0.1978-0.06799-0.19779-0.06799-0.51303 0-0.2287-0.01854-0.46358-0.01854-0.24106-0.06799-0.74172-0.04327-0.50685-0.08653-1.0384-0.01854-0.28433-0.0309-0.43886-0.0062-0.15453-0.01854-0.2287-0.01236-0.0742-0.01854-0.0865-0.0062-0.0186-0.02473-0.0186-0.0989 0-0.47594 0.068-0.37704 0.068-0.46976 0.068-0.17925 0-0.17925-0.14835 0-0.10508 0.22252-0.17925 0.2287-0.0742 0.51303-0.1298 0.28433-0.0618 0.35232-0.10508 0.06799-0.0495 0.06799-0.3276z" style="font-feature-settings:normal;font-variant-caps:normal;font-variant-ligatures:normal;font-variant-numeric:normal"/>
    <path d="m96.929-148.68q0.08653-0.0742 0.14835-0.0742 0.1298 0 0.18543 0.41413 0.06181 0.40795 0.11126 1.5762 0.02472 0.54393 0.02472 0.98279 0 0.43885-0.03709 0.48212-0.07417 0.0927-0.18543 0.0927-0.15453 0-0.19161-0.12981-0.03091-0.0804-0.09272-1.2486-0.06181-1.1744-0.06181-1.6318 0-0.38323 0.0989-0.46358zm-0.03709-1.4526q0-0.0865 0.06799-0.17307 0.07417-0.0865 0.1298-0.0865 0.06181 0 0.16689 0.0865 0.11126 0.0804 0.11126 0.21016 0 0.0927-0.05563 0.16071-0.04945 0.0618-0.13598 0.0618-0.0989 0-0.19161-0.0742-0.09272-0.0742-0.09272-0.18544z" style="font-feature-settings:normal;font-variant-caps:normal;font-variant-ligatures:normal;font-variant-numeric:normal"/>
    <path d="m103.38-149.45q0-0.2287-0.0433-0.58102t-0.0433-0.5872q0-0.11744 6e-3 -0.15453 0.0185-0.0989 0.068-0.15452 0.0556-0.0618 0.11126-0.0618 0.0742 0 0.10508 0.068 0.0185 0.0433 0.0556 0.4574 0.0371 0.41413 0.068 0.80972 0.0309 0.39558 0.0433 0.40795 6e-3 6e-3 0.0185 6e-3 0.0495 0 0.28433-0.0495 0.24106-0.0556 0.39559-0.0556 0.30905 0 0.30905 0.13598 0 0.13599-0.67991 0.30288l-0.30906 0.0742 0.0371 1.0446q0.0309 0.92098 0.11744 1.7245 0.0865 0.79736 0.0865 0.90243 0 0.19162-0.14216 0.19162-0.11126 0-0.18543-0.1978-0.068-0.19779-0.068-0.51303 0-0.2287-0.0186-0.46358-0.0185-0.24106-0.068-0.74172-0.0433-0.50685-0.0865-1.0384-0.0185-0.28433-0.0309-0.43886-6e-3 -0.15453-0.0185-0.2287-0.0124-0.0742-0.0186-0.0865-6e-3 -0.0186-0.0247-0.0186-0.0989 0-0.47594 0.068-0.37705 0.068-0.46976 0.068-0.17926 0-0.17926-0.14835 0-0.10508 0.22252-0.17925 0.2287-0.0742 0.51303-0.1298 0.28433-0.0618 0.35232-0.10508 0.068-0.0495 0.068-0.3276z" style="font-feature-settings:normal;font-variant-caps:normal;font-variant-ligatures:normal;font-variant-numeric:normal"/>
    <path d="m108.65-146.48q0.0309 0 0.0309 0.0494 0 0.11126-0.16689 0.35851-0.16071 0.24724-0.34614 0.40795-0.64901 0.57484-1.298 0.57484-0.24724 0-0.49448-0.11126-0.24106-0.11744-0.45122-0.3276t-0.33996-0.56248-0.1298-0.78499q0-0.26579 0.0618-0.45122 0.12362-0.37705 0.52539-0.79736 0.40795-0.42031 0.76645-0.42031 0.0989 0 0.29669 0.0185 0.2967 0.0247 0.41414 0.0618 0.12362 0.0371 0.27814 0.15453 0.1978 0.14834 0.33996 0.38322 0.14835 0.2287 0.14835 0.38323 0 0.1978-0.15453 0.30287-0.15453 0.0989-0.59956 0.1978-0.58102 0.1298-1.1373 0.16071l-0.57484 0.0309v0.24724q0 0.4574 0.4265 0.86535 0.32141 0.30906 0.66755 0.30906 0.26579 0 0.56248-0.16071 0.30287-0.16689 0.51303-0.36468 0.21015-0.1978 0.40177-0.35851 0.19161-0.16688 0.2596-0.16688zm-0.99515-1.5082q-0.19161-0.17307-0.29051-0.21633-0.0927-0.0495-0.24724-0.0495-0.30906 0-0.46358 0.0618-0.14835 0.0556-0.30288 0.23488-0.46976 0.53775-0.46976 0.717 0 0.0804 0.14835 0.0804 0.56248 0 1.5947-0.23488 0.30906-0.0742 0.30906-0.25961 0-0.0865-0.27815-0.33378zm-0.32142-1.8914q0.0371 0 0.0927 0.0556 0.0618 0.0494 0.0618 0.0927 0 0.0742-0.35232 0.43268-0.34614 0.35232-0.46358 0.35232-0.0927 0-0.0927-0.11126 0-0.068 0.068-0.15453 0.068-0.0865 0.27197-0.29051 0.3585-0.37704 0.41413-0.37704z" style="font-feature-settings:normal;font-variant-caps:normal;font-variant-ligatures:normal;font-variant-numeric:normal"/>
    <path d="m109.76-148.5q0-0.21016 0.12363-0.21016 0.0803 0 0.11744 0.18543 0.0371 0.17925 0.13598 1.0755 0.11126 0.97043 0.1298 1.0137 0.0247-0.0247 0.17925-0.50066 0.14217-0.44504 0.22252-0.61811 0.0865-0.17925 0.29669-0.47594 0.45122-0.62429 0.69846-0.62429 0.16071 0 0.30288 0.21634 0.19161 0.28433 0.23488 0.56247 0.0433 0.27815 0.0618 1.3166 0.0124 0.66756 0.0124 0.79118 0 0.30905-0.0247 0.45122-0.0186 0.13598-0.0618 0.16689-0.0371 0.0371-0.13599 0.0433-0.0556 0-0.0742-0.0494-0.0185-0.0433-0.0185-0.21016 0-0.0927 0.0124-0.39559 0.0124-0.30905 0.0124-0.51921 0-0.52539-0.0433-1.0261-0.0371-0.50684-0.0927-0.64901-0.0309-0.0804-0.0989-0.16689-0.068-0.0865-0.1298-0.0865-0.12981 0-0.41413 0.44503-0.28433 0.43886-0.48831 0.92716-0.19161 0.46977-0.2596 0.70465-0.068 0.23488-0.10508 0.62428-0.068 0.63047-0.0989 0.63047-0.0494 0-0.14216-0.10507-0.068-0.068-0.0927-0.29052-0.0247-0.22869-0.068-0.89625-0.0433-0.67374-0.11744-1.3598-0.0742-0.71082-0.0742-0.97042z" style="font-feature-settings:normal;font-variant-caps:normal;font-variant-ligatures:normal;font-variant-numeric:normal"/>
    <path d="m113.59-146.93q0 0.48212 0.0433 0.717 0.0433 0.2287 0.16689 0.2287 0.11744 0 0.38323-0.29051 0.27197-0.29051 0.38323-0.54393 0.14216-0.30906 0.2287-0.74173 0.0865-0.43886 0.15452-0.66756 0.068-0.2287 0.20398-0.2287 0.068 0 0.12362 0.0556 0.0556 0.0556 0.0556 0.14217 0 0.0989-0.14217 0.64901-0.13598 0.55011-0.13598 1.1559 0 0.19779 0.0185 0.37704l0.0433 0.17926 0.1978-0.0989q0.15452-0.068 0.24106-0.068 0.16071 0 0.16071 0.11744 0 0.14834-0.25961 0.28433l-0.25342 0.1298 0.0309 0.69228q-0.0371 1.094-0.0804 1.1559-0.0433 0.0742-0.15453 0.0742-0.1298 0-0.38941-0.11126-0.14834-0.068-0.23488-0.14834-0.0803-0.0804-0.15452-0.23488-0.17307-0.35232-0.17307-0.63047 0-0.0989 0.0185-0.15453 0.0185-0.0495 0.0927-0.16689 0.0742-0.11126 0.13598-0.22252 0.0556-0.10508 0.17925-0.17307 0.1298-0.0742 0.16071-0.11126 0.0495-0.0495 0.0927-0.0804 0.0494-0.0309 0.0618-0.0433t0.0124-0.0433q0-0.0742-0.0371-0.27814-0.0371-0.21016-0.0927-0.21016-0.0371 0-0.16688 0.15453-0.12981 0.14834-0.3276 0.30287-0.1978 0.14834-0.39559 0.14834-0.24724 0-0.40795-0.29051-0.0804-0.14834-0.10508-0.33995-0.0185-0.19162-0.0185-0.80972 6e-3 -0.69847 0.0494-0.95189 0.0495-0.2596 0.17925-0.2596 0.0742 0 0.0989 0.0865 0.0247 0.0803 0.0247 0.37705 0 0.11744-6e-3 0.40177-6e-3 0.28432-6e-3 0.46976zm0.8159 2.4539q0 0.11126 0.16689 0.29051 0.17307 0.18543 0.2596 0.18543 0.0927 0 0.0927-0.43267-6e-3 -0.11744-0.0433-0.29051-0.0309-0.17307-0.0371-0.24106l-0.0371-0.37087-0.17307 0.26579q-0.2287 0.3585-0.2287 0.59338z" style="font-feature-settings:normal;font-variant-caps:normal;font-variant-ligatures:normal;font-variant-numeric:normal"/>
    <path d="m119.56-146.48q0.0309 0 0.0309 0.0494 0 0.11126-0.16689 0.35851-0.16071 0.24724-0.34614 0.40795-0.64901 0.57484-1.298 0.57484-0.24725 0-0.49449-0.11126-0.24106-0.11744-0.45122-0.3276-0.21015-0.21016-0.33996-0.56248-0.1298-0.35232-0.1298-0.78499 0-0.26579 0.0618-0.45122 0.12362-0.37705 0.52539-0.79736 0.40795-0.42031 0.76646-0.42031 0.0989 0 0.29669 0.0185 0.29669 0.0247 0.41413 0.0618 0.12362 0.0371 0.27815 0.15453 0.19779 0.14834 0.33996 0.38322 0.14834 0.2287 0.14834 0.38323 0 0.1978-0.15453 0.30287-0.15452 0.0989-0.59956 0.1978-0.58102 0.1298-1.1373 0.16071l-0.57484 0.0309v0.24724q0 0.4574 0.4265 0.86535 0.32141 0.30906 0.66755 0.30906 0.26579 0 0.56248-0.16071 0.30287-0.16689 0.51303-0.36468 0.21016-0.1978 0.40177-0.35851 0.19161-0.16688 0.2596-0.16688zm-0.99515-1.5082q-0.19161-0.17307-0.29051-0.21633-0.0927-0.0495-0.24724-0.0495-0.30905 0-0.46358 0.0618-0.14835 0.0556-0.30287 0.23488-0.46977 0.53775-0.46977 0.717 0 0.0804 0.14835 0.0804 0.56248 0 1.5947-0.23488 0.30905-0.0742 0.30905-0.25961 0-0.0865-0.27815-0.33378z" style="font-feature-settings:normal;font-variant-caps:normal;font-variant-ligatures:normal;font-variant-numeric:normal"/>
    <path d="m120.41-147.59q-0.0742 0-0.14834-0.0309-0.0742-0.0309-0.0742-0.0804 0-0.17307 0.63665-0.41413 0.64283-0.24106 0.93952-0.30905 0.0865-0.0185 0.17925-0.0185 0.16689 0 0.3276 0.0494 0.1607 0.0433 0.22251 0.11126 0.0804 0.0865 0.0804 0.30288 0 0.32759-0.17925 0.717l-0.13599 0.28433 0.2287 0.0309q0.27815 0.0185 0.27815 0.0865 0 0.0495-0.13598 0.11126-0.13599 0.0618-0.31524 0.0865-0.16689 0.0247-0.26578 0.0804-0.0927 0.0556-0.24106 0.21015-0.15453 0.16071-0.33996 0.46977-0.18544 0.30287-0.18544 0.38322 0 0.0247 0.0309 0.0247 0.0185 0 0.55012-0.0989 0.53775-0.10508 0.85298-0.10508 0.3276 0 0.3276 0.11126 0 0.068-0.12362 0.11744-0.12362 0.0433-0.50067 0.11744-1.162 0.2287-1.4155 0.2287-0.20398 0-0.20398-0.11126 0-0.11744 0.21016-0.51921 0.21015-0.40177 0.33378-0.55011 0.1607-0.1978 0.1607-0.23488 0-0.0433-0.25342-0.0433-0.30905 0-0.30905-0.0989 0-0.0742 0.14216-0.12362 0.14835-0.0495 0.37086-0.0495 0.22252 0 0.29051-0.0247 0.0742-0.0247 0.14835-0.12981 0.14835-0.22251 0.24724-0.49448 0.10508-0.27815 0.10508-0.46976 0-0.10508-0.0309-0.12981-0.0309-0.0247-0.15453-0.0247-0.29669 6e-3 -0.82826 0.16689-0.53158 0.16071-0.64902 0.28433-0.068 0.0865-0.17307 0.0865z" style="font-feature-settings:normal;font-variant-caps:normal;font-variant-ligatures:normal;font-variant-numeric:normal"/>
    <path d="m126.07-149.53q0-0.0742 0.35232-0.43268 0.35232-0.3585 0.46976-0.3585 0.0865 0 0.0865 0.12362 0 0.10508-0.3585 0.46358-0.35232 0.35232-0.39559 0.35232-0.0371 0-0.0989-0.0495-0.0556-0.0556-0.0556-0.0989zm-0.71082-0.0309q0-0.0742 0.34614-0.43267 0.35232-0.3585 0.46976-0.3585 0.0865 0 0.0865 0.12362 0 0.11126-0.3585 0.46358-0.35232 0.35232-0.39559 0.35232-0.0309 0-0.0927-0.0495-0.0556-0.0556-0.0556-0.0989zm-1.1311 1.6318q0.48213-0.45121 0.80972-0.59338 0.33378-0.14834 0.84063-0.14834 0.76645 0 0.95806 0.4574 0.11744 0.27196 0.11744 0.66755 0 0.65519-0.29051 1.3289-0.29051 0.66756-0.717 0.92716-0.41413 0.25343-0.87153 0.25343-0.63665 0-1.0199-0.43886-0.26578-0.30905-0.34614-0.51921-0.0803-0.21634-0.0803-0.61193 0-0.74791 0.59956-1.3228zm0.99515 2.5404q0.51921 0 0.93953-0.71082 0.42649-0.717 0.42649-1.6194 0-0.13598-0.0309-0.20397-0.0309-0.068-0.11126-0.13599-0.2287-0.19161-0.48831-0.19161-0.0433 0-0.0989 0.0124-0.0494 6e-3 -0.16688 0.0247-0.11744 0.0124-0.27815 0.0309-0.21634 0.0309-0.34614 0.0989-0.12362 0.0618-0.31524 0.24106-0.36468 0.34614-0.51921 0.64283-0.15452 0.29051-0.15452 0.63665 0 0.51303 0.31523 0.84063 0.32142 0.32759 0.82826 0.33377z" style="font-feature-settings:normal;font-variant-caps:normal;font-variant-ligatures:normal;font-variant-numeric:normal"/>
    <path d="m132.2-148.26q0-0.3585 0.0989-0.3585 0.0804 0 0.17307 0.56247 0.0989 0.56248 0.13598 0.56248 0.0124 0 0.0433-0.0742 0.0309-0.0804 0.068-0.17307 0.0371-0.0989 0.0618-0.12362 0.0618-0.0804 0.16689-0.30288 0.1298-0.26578 0.19779-0.32141 0.068-0.0618 0.24107-0.0618 0.19161 0 0.42031 0.26578 0.14834 0.17307 0.19779 0.32142 0.0556 0.14216 0.11744 0.51921l0.0989 0.58102 0.10508-0.37087q0.15453-0.53775 0.44504-0.92716 0.29051-0.3894 0.53775-0.3894 0.15453 0 0.28433 0.17925 0.1298 0.17307 0.18543 0.44503 0.0556 0.24725 0.0556 1.1188 0 0.64901-6e-3 1.0013t-0.0309 0.51303q-0.0185 0.15453-0.0371 0.17925-0.0186 0.0309-0.068 0.0371-0.0185 6e-3 -0.0433 6e-3 -0.0556 0-0.068-0.17307t-0.0186-0.97043q0-1.947-0.29669-1.947-0.16071 0-0.42031 0.53158-0.21634 0.43885-0.36468 1.0693-0.14835 0.63047-0.17926 1.2733-6e-3 0.15453-0.0371 0.21016-0.0247 0.0556-0.0865 0.0556-0.0742 0-0.0989-0.1298-0.0185-0.12363-0.0433-0.66756-0.0433-1.0013-0.12362-1.4031-0.0804-0.40795-0.29669-0.73555-0.16071-0.2287-0.23489-0.2287-0.0865 0-0.19161 0.21634-0.10508 0.21015-0.34614 0.80972-0.11126 0.29051-0.11126 0.53157 0 0.14216-0.0556 0.31523-0.0494 0.16689-0.068 0.83445-0.0124 0.62429-0.0495 0.71082-0.0247 0.0742-0.0989 0.0742-0.0989 0-0.13599-0.29669-0.0309-0.29669-0.0309-1.1868 0-0.71701-0.0495-1.3166-0.0433-0.59956-0.0433-0.76645z" style="font-feature-settings:normal;font-variant-caps:normal;font-variant-ligatures:normal;font-variant-numeric:normal"/>
    <path d="m140.04-146.48q0.0309 0 0.0309 0.0494 0 0.11126-0.16689 0.35851-0.16071 0.24724-0.34614 0.40795-0.64901 0.57484-1.298 0.57484-0.24725 0-0.49449-0.11126-0.24106-0.11744-0.45122-0.3276-0.21015-0.21016-0.33996-0.56248-0.1298-0.35232-0.1298-0.78499 0-0.26579 0.0618-0.45122 0.12362-0.37705 0.52539-0.79736 0.40795-0.42031 0.76645-0.42031 0.0989 0 0.2967 0.0185 0.29669 0.0247 0.41413 0.0618 0.12362 0.0371 0.27815 0.15453 0.19779 0.14834 0.33995 0.38322 0.14835 0.2287 0.14835 0.38323 0 0.1978-0.15453 0.30287-0.15452 0.0989-0.59956 0.1978-0.58102 0.1298-1.1373 0.16071l-0.57484 0.0309v0.24724q0 0.4574 0.4265 0.86535 0.32141 0.30906 0.66755 0.30906 0.26579 0 0.56248-0.16071 0.30287-0.16689 0.51303-0.36468 0.21016-0.1978 0.40177-0.35851 0.19161-0.16688 0.2596-0.16688zm-0.99515-1.5082q-0.19161-0.17307-0.29051-0.21633-0.0927-0.0495-0.24724-0.0495-0.30906 0-0.46358 0.0618-0.14835 0.0556-0.30287 0.23488-0.46977 0.53775-0.46977 0.717 0 0.0804 0.14835 0.0804 0.56248 0 1.5947-0.23488 0.30905-0.0742 0.30905-0.25961 0-0.0865-0.27815-0.33378zm-0.32141-1.8914q0.0371 0 0.0927 0.0556 0.0618 0.0494 0.0618 0.0927 0 0.0742-0.35232 0.43268-0.34614 0.35232-0.46358 0.35232-0.0927 0-0.0927-0.11126 0-0.068 0.068-0.15453 0.068-0.0865 0.27196-0.29051 0.35851-0.37704 0.41414-0.37704z" style="font-feature-settings:normal;font-variant-caps:normal;font-variant-ligatures:normal;font-variant-numeric:normal"/>
    <path d="m142.92-148.16q0.10508 0 0.18543 0.068 0.0804 0.0618 0.0804 0.10508 0 0.0742-0.23489 0.16688-0.38322 0.15453-0.78499 0.74791-0.39559 0.58721-0.48212 1.1373-0.0989 0.62429-0.16071 0.8159-0.0618 0.1978-0.16071 0.1978-0.0865 0-0.13598-0.0618-0.0433-0.0618-0.0618-0.13599-0.0124-0.0742-0.0309-0.27197-6e-3 -0.0371-6e-3 -0.0556-0.14835-1.5576-0.14835-2.4601 0-0.32142 0.0247-0.39559 0.068-0.19779 0.17307-0.19779 0.0989 0 0.0989 0.16689 0 0.27814 0.0865 0.89625t0.1298 0.61811q0.0556 0 0.2287-0.33996 0.21634-0.40177 0.57484-0.69846 0.36468-0.30287 0.62429-0.30287z" style="font-feature-settings:normal;font-variant-caps:normal;font-variant-ligatures:normal;font-variant-numeric:normal"/>
    <path d="m145.06-149.45q0-0.2287-0.0433-0.58102t-0.0433-0.5872q0-0.11744 6e-3 -0.15453 0.0185-0.0989 0.068-0.15452 0.0556-0.0618 0.11126-0.0618 0.0742 0 0.10508 0.068 0.0185 0.0433 0.0556 0.4574 0.0371 0.41413 0.068 0.80972 0.0309 0.39558 0.0433 0.40795 6e-3 6e-3 0.0185 6e-3 0.0495 0 0.28433-0.0495 0.24106-0.0556 0.39559-0.0556 0.30905 0 0.30905 0.13598 0 0.13599-0.67992 0.30288l-0.30905 0.0742 0.0371 1.0446q0.0309 0.92098 0.11744 1.7245 0.0865 0.79736 0.0865 0.90243 0 0.19162-0.14216 0.19162-0.11126 0-0.18544-0.1978-0.068-0.19779-0.068-0.51303 0-0.2287-0.0185-0.46358-0.0185-0.24106-0.068-0.74172-0.0433-0.50685-0.0865-1.0384-0.0185-0.28433-0.0309-0.43886-6e-3 -0.15453-0.0186-0.2287-0.0124-0.0742-0.0185-0.0865-6e-3 -0.0186-0.0247-0.0186-0.0989 0-0.47595 0.068-0.37704 0.068-0.46976 0.068-0.17925 0-0.17925-0.14835 0-0.10508 0.22252-0.17925 0.2287-0.0742 0.51303-0.1298 0.28433-0.0618 0.35232-0.10508 0.068-0.0495 0.068-0.3276z" style="font-feature-settings:normal;font-variant-caps:normal;font-variant-ligatures:normal;font-variant-numeric:normal"/>
    <path d="m150.33-146.48q0.0309 0 0.0309 0.0494 0 0.11126-0.16688 0.35851-0.16071 0.24724-0.34614 0.40795-0.64902 0.57484-1.298 0.57484-0.24724 0-0.49448-0.11126-0.24107-0.11744-0.45122-0.3276-0.21016-0.21016-0.33996-0.56248t-0.1298-0.78499q0-0.26579 0.0618-0.45122 0.12362-0.37705 0.52539-0.79736 0.40795-0.42031 0.76645-0.42031 0.0989 0 0.29669 0.0185 0.29669 0.0247 0.41413 0.0618 0.12363 0.0371 0.27815 0.15453 0.1978 0.14834 0.33996 0.38322 0.14835 0.2287 0.14835 0.38323 0 0.1978-0.15453 0.30287-0.15453 0.0989-0.59956 0.1978-0.58102 0.1298-1.1373 0.16071l-0.57484 0.0309v0.24724q0 0.4574 0.42649 0.86535 0.32142 0.30906 0.66756 0.30906 0.26578 0 0.56248-0.16071 0.30287-0.16689 0.51303-0.36468 0.21015-0.1978 0.40176-0.35851 0.19162-0.16688 0.25961-0.16688zm-0.99515-1.5082q-0.19162-0.17307-0.29051-0.21633-0.0927-0.0495-0.24725-0.0495-0.30905 0-0.46358 0.0618-0.14834 0.0556-0.30287 0.23488-0.46976 0.53775-0.46976 0.717 0 0.0804 0.14835 0.0804 0.56247 0 1.5947-0.23488 0.30906-0.0742 0.30906-0.25961 0-0.0865-0.27815-0.33378zm-0.32142-1.8914q0.0371 0 0.0927 0.0556 0.0618 0.0494 0.0618 0.0927 0 0.0742-0.35232 0.43268-0.34614 0.35232-0.46358 0.35232-0.0927 0-0.0927-0.11126 0-0.068 0.068-0.15453 0.068-0.0865 0.27197-0.29051 0.3585-0.37704 0.41413-0.37704z" style="font-feature-settings:normal;font-variant-caps:normal;font-variant-ligatures:normal;font-variant-numeric:normal"/>
    <path d="m150.96-149.83q0-0.22252 0.14216-0.22252 0.11744 0 0.17307 0.14216 0.0371 0.0865 0.0803 0.53157 0.0495 0.44504 0.0989 1.0013 0.0556 0.55629 0.0927 0.79117l0.0495 0.35851 0.70464-0.70465q0.37704-0.37704 0.53157-0.50684 0.15453-0.13599 0.2287-0.13599 0.0433 0 0.0927 0.0618 0.0556 0.0618 0.0556 0.12362 0 0.0433-0.0247 0.0742-0.0185 0.0247-0.0556 0.0495-0.0309 0.0185-0.10508 0.0989-0.0742 0.0804-0.1607 0.1978-0.29051 0.41413-0.97661 0.96424-0.24725 0.19162-0.24725 0.32142 0 0.0865 0.11126 0.14216l0.66138 0.30906q0.4574 0.21634 0.76027 0.43267 0.30287 0.21634 0.30287 0.33378 0 0.1298-0.12362 0.1298-0.11126 0-0.3276-0.14834-0.21633-0.15453-0.27196-0.15453-0.0742 0-0.0742-0.0495 0-0.068-0.75409-0.34614l-0.32759-0.12362 0.0433 0.51303q0.0186 0.20397 0.0186 0.32142 0 0.2596-0.12981 0.2596-0.19779 0-0.25342-0.27197-0.0495-0.27815-0.0927-1.4031-0.0371-0.99515-0.0927-1.298-0.0556-0.2967-0.0927-0.85917-0.0371-0.56248-0.0371-0.93334z" style="font-feature-settings:normal;font-variant-caps:normal;font-variant-ligatures:normal;font-variant-numeric:normal"/>
    <path d="m157.37-146.48q0.0309 0 0.0309 0.0494 0 0.11126-0.16688 0.35851-0.16071 0.24724-0.34614 0.40795-0.64902 0.57484-1.298 0.57484-0.24724 0-0.49448-0.11126-0.24107-0.11744-0.45122-0.3276-0.21016-0.21016-0.33996-0.56248t-0.1298-0.78499q0-0.26579 0.0618-0.45122 0.12362-0.37705 0.52539-0.79736 0.40795-0.42031 0.76645-0.42031 0.0989 0 0.29669 0.0185 0.29669 0.0247 0.41413 0.0618 0.12362 0.0371 0.27815 0.15453 0.1978 0.14834 0.33996 0.38322 0.14835 0.2287 0.14835 0.38323 0 0.1978-0.15453 0.30287-0.15453 0.0989-0.59956 0.1978-0.58102 0.1298-1.1373 0.16071l-0.57484 0.0309v0.24724q0 0.4574 0.42649 0.86535 0.32142 0.30906 0.66756 0.30906 0.26578 0 0.56248-0.16071 0.30287-0.16689 0.51302-0.36468 0.21016-0.1978 0.40177-0.35851 0.19162-0.16688 0.25961-0.16688zm-0.99515-1.5082q-0.19162-0.17307-0.29051-0.21633-0.0927-0.0495-0.24725-0.0495-0.30905 0-0.46358 0.0618-0.14834 0.0556-0.30287 0.23488-0.46976 0.53775-0.46976 0.717 0 0.0804 0.14835 0.0804 0.56247 0 1.5947-0.23488 0.30906-0.0742 0.30906-0.25961 0-0.0865-0.27815-0.33378z" style="font-feature-settings:normal;font-variant-caps:normal;font-variant-ligatures:normal;font-variant-numeric:normal"/>
   </g>
   <g>
    <path d="m65.236-192.6c-0.0858-6.8883-0.17903-21.619-0.32923-32.732l-0.29685-21.966c8.828-5.8167 15.829-6.7042 24.996 0.0627 0 0 0.5922 17.48 0.65272 24.305 0.11257 12.694-0.05351 28.493-0.04342 33.931l0.15906 9.368-12.225 0.42842-12.75-0.29078z" fill="#f61b2d" fill-opacity=".87451" stroke="#000" stroke-linecap="round" stroke-opacity=".87451" stroke-width=".9695" style="paint-order:markers fill stroke"/>
    <path d="m15.162-179.99h113.49c19.212 0.34906 19.146 2.0886 0 2.0886h-113.49c-5.5082 0-5.5082-2.0886 0-2.0886z" enable-background="new" fill="#ffa669" stroke="#ff9243" stroke-linecap="square" stroke-width=".5142" style="paint-order:markers fill stroke"/>
    <path d="m16.945-287.74c-0.16095-0.23235-0.34978-0.43355-0.53172-0.64072-0.38463-0.42877-0.771-0.85528-1.1611-1.2767-0.43337-0.46453-0.8513-0.94992-1.2675-1.4371-0.36172-0.42789-0.70936-0.87287-1.0632-1.3102-0.24415-0.30005-0.48618-0.60801-0.77833-0.83904-0.17678-0.13415-0.35829-0.1633-0.55924-0.12612-0.27944 0.0719-0.52798 0.24677-0.76766 0.42879-0.32489 0.2623-0.61682 0.578-0.90094 0.90151-0.32933 0.38034-0.64064 0.78295-0.94793 1.1896-0.30366 0.40766-0.59742 0.82584-0.88248 1.253-0.26335 0.39107-0.52536 0.78347-0.78562 1.1776-0.22658 0.34736-0.45359 0.69436-0.67586 1.0459-0.12988 0.20769-0.065714 0.10478-0.19203 0.30867-2.3687 3.825-3.2556 3.0077-0.88687-0.81728v0c0.13054-0.21086 0.064134-0.10434 0.19888-0.31965 0.22709-0.35897 0.45889-0.71351 0.69035-1.0683 0.26153-0.39594 0.52476-0.79021 0.78932-1.1831 0.29954-0.44854 0.60802-0.8879 0.92716-1.3159 0.32637-0.43172 0.65722-0.85885 1.0072-1.2623 0.33796-0.38381 0.6866-0.75646 1.0751-1.0636 0.38205-0.28565 0.78242-0.54092 1.2315-0.62286 0.46358-0.0512 0.89937 0.0331 1.2972 0.34714 0.34982 0.29081 0.65949 0.63982 0.95131 1.0135 0.34683 0.42869 0.68762 0.86474 1.0418 1.2844 0.40549 0.47472 0.81253 0.94782 1.2348 1.4004 0.39727 0.4293 0.79086 0.86355 1.1825 1.3005 0.22634 0.25771 0.46009 0.50966 0.65432 0.80525 2.396 3.7997 1.515 4.6264-0.88098 0.8267z" enable-background="new" fill="#ffa669" stroke="#ff9243" stroke-linecap="square" stroke-width=".37793" style="paint-order:markers fill stroke"/>
   </g>
  </g>
  <g fill="#00000f">
   <path d="m71.406-233.94h7.7314c0.91561-8e-3 1.8312 0.0125 2.7468-9e-3 3.0891-0.4281 2.8499 1.3488 4.77e-4 1.4512-0.91578 0.021-1.8316 2e-3 -2.7473 9e-3h-7.7314c-0.63251 0-0.63251-1.4513 0-1.4513z" enable-background="new" stroke-width="0" style="paint-order:markers fill stroke"/>
   <path d="m83.837-228.93c0.14833-0.10966 0.27675-0.23831 0.40898-0.36228 0.27369-0.26204 0.54594-0.52527 0.81494-0.79102 0.29653-0.29526 0.60634-0.58 0.91733-0.86353 0.27313-0.24645 0.55716-0.4833 0.83634-0.72441 0.19153-0.16634 0.38811-0.33123 0.53556-0.53026 0.08564-0.12045 0.10424-0.24411 0.0805-0.38103-0.04593-0.19039-0.15751-0.3597-0.2737-0.52301-0.16743-0.22134-0.36893-0.42023-0.57543-0.61381-0.24278-0.22437-0.49975-0.43647-0.75931-0.64583-0.26024-0.20688-0.52715-0.407-0.79981-0.60122-0.24963-0.17942-0.5001-0.35793-0.75167-0.53527-0.22172-0.15437-0.44322-0.30902-0.66758-0.46045-0.13257-0.0885-0.06691-0.0449-0.19703-0.13085-2.4415-1.6138-1.9199-2.218 0.52169-0.60422v0c0.13458 0.089 0.06657 0.0437 0.20401 0.13552 0.22915 0.15471 0.45544 0.31262 0.68188 0.47033 0.25276 0.17816 0.50442 0.35751 0.75521 0.53776 0.28632 0.20408 0.56675 0.41426 0.83997 0.63169 0.27555 0.22234 0.54821 0.44776 0.80574 0.68623 0.245 0.23026 0.48285 0.46779 0.67886 0.73245 0.18234 0.2603 0.34527 0.53306 0.3976 0.83901 0.0327 0.31583-0.02113 0.61272-0.2216 0.88377-0.18561 0.23834-0.40841 0.44932-0.64693 0.64813-0.27363 0.2363-0.55196 0.46847-0.81988 0.7098-0.30302 0.27626-0.605 0.55358-0.89389 0.84129-0.27402 0.27064-0.55122 0.53881-0.83011 0.80562-0.1645 0.15422-0.32532 0.31348-0.51401 0.4458-2.4254 1.6324-2.9531 1.0322-0.52769-0.60021z" enable-background="new" stroke="#00000f" stroke-linecap="square" stroke-width=".24923" style="paint-order:markers fill stroke"/>
   <path d="m70.408-229.53c-0.14833-0.10966-0.27675-0.2383-0.40898-0.36227-0.27369-0.26204-0.54594-0.52527-0.81494-0.79102-0.29653-0.29526-0.60634-0.58-0.91733-0.86353-0.27313-0.24645-0.55716-0.4833-0.83634-0.72441-0.19153-0.16635-0.38811-0.33124-0.53556-0.53026-0.08564-0.12045-0.10424-0.24412-0.0805-0.38104 0.04593-0.19039 0.15751-0.3597 0.2737-0.523 0.16743-0.22134 0.36893-0.42023 0.57543-0.61381 0.24278-0.22438 0.49975-0.43648 0.75931-0.64584 0.26024-0.20687 0.52715-0.40699 0.79981-0.60121 0.24963-0.17943 0.5001-0.35794 0.75167-0.53528 0.22172-0.15437 0.44322-0.30902 0.66758-0.46045 0.13257-0.0885 0.06691-0.0449 0.19703-0.13085 2.4415-1.6138 1.9199-2.218-0.52169-0.60422v0c-0.13458 0.089-0.06657 0.0437-0.20401 0.13552-0.22915 0.15471-0.45544 0.31262-0.68188 0.47033-0.25276 0.17816-0.50442 0.35751-0.75521 0.53776-0.28632 0.20408-0.56675 0.41426-0.83997 0.6317-0.27555 0.22234-0.54821 0.44776-0.80574 0.68623-0.245 0.23026-0.48285 0.46778-0.67886 0.73245-0.18234 0.2603-0.34527 0.53306-0.3976 0.839-0.0327 0.31584 0.02113 0.61272 0.2216 0.88377 0.18561 0.23835 0.40841 0.44933 0.64693 0.64814 0.27363 0.2363 0.55196 0.46847 0.81988 0.70979 0.30302 0.27627 0.605 0.55358 0.89389 0.8413 0.27402 0.27063 0.55122 0.5388 0.83011 0.80562 0.1645 0.15422 0.32532 0.31347 0.51401 0.4458 2.4254 1.6324 2.9531 1.0322 0.52769-0.60022z" enable-background="new" stroke="#00000f" stroke-linecap="square" stroke-width=".24923" style="paint-order:markers fill stroke"/>
  </g>
  <g stroke="#000" stroke-linecap="square" stroke-width=".165">
   <path d="m75.325-246c-0.0274-0.26054-0.0414-0.52315-0.0563-0.78531-0.0328-0.41319-0.041-0.81823 0.0251-1.2257 0.16936-0.6331 0.59952-0.95971 1.0448-1.2273 0.52101-0.28863 1.0724-0.3988 1.6354-0.38275 0.57771 0.043 1.0249 0.30668 1.453 0.79583 0.38457 0.50367 0.55842 1.1552 0.67582 1.8292 0.12342 0.80415-0.0237 1.4968-0.28815 2.2205-0.31001 0.75626-0.7743 1.3673-1.25 1.9508-0.50142 0.60275-1.0587 1.1177-1.6328 1.5973-0.47583 0.38523-0.98439 0.69496-1.5012 0.97604-0.30025 0.16461-0.6105 0.29327-0.92606 0.39804-0.23079 0.0764-0.17452 0.11952-0.10309-0.68516 8e-5 0 0.23512-0.0302 0.35583-0.0451 0.38277-0.0484 0.76652-0.0818 1.1503-0.11145 0.42039-0.0323 0.84125-0.0527 1.2622-0.0688 0.32981-0.0119 0.65975-0.0173 0.98971-0.0194 0.22342 0 0.44682 0 0.67021 0.0108 0.14835 0 0.29669 0.0108 0.44501 0.0108h0.097c1.9707 0.0538 1.9589 0.7737-0.0118 0.71981h-0.0968c-0.14712 0-0.29424-0.0108-0.44137-0.0108-0.22 0-0.44001-0.0108-0.66003-0.0108-0.32521 0-0.6504 0.0108-0.97545 0.0183-0.41519 0.0162-0.83027 0.0366-1.2449 0.0678-0.37711 0.029-0.75415 0.0624-1.1302 0.1094-0.10249 0.0129-0.3587 0.0538-0.36191 0.0451-0.2855-0.67815-0.34222-0.64233-0.0836-0.72925 0.28921-0.0958 0.57354-0.21333 0.84865-0.36446 0.48681-0.2642 0.96605-0.55521 1.4146-0.91699 0.54532-0.45504 1.075-0.94322 1.5517-1.515 0.42668-0.52218 0.84701-1.0655 1.1306-1.7388 0.20891-0.55681 0.34446-1.1304 0.24698-1.7542-0.0892-0.52744-0.21311-1.0469-0.50528-1.4511-0.30813-0.36995-0.66906-0.58005-1.094-0.61038-0.47737-0.0194-0.94465 0.0774-1.3876 0.31702-0.28283 0.16566-0.5914 0.35176-0.73392 0.73108-0.0647 0.33457-0.0311 0.67483-0.0131 1.0152 0.0136 0.24021 0.0267 0.48087 0.0502 0.71979 0.32406 2.5106-0.22589 2.629-0.54996 0.11844z" style="paint-order:markers fill stroke"/>
   <path d="m75.794-266.69c0.25218-0.27191 0.50068-0.54792 0.74865-0.82433 0.46655-0.51951 0.90592-1.0663 1.3375-1.6201 0.39811-0.50569 0.77274-1.0314 1.1282-1.573 0.19513-0.30347 0.37782-0.61674 0.53285-0.94653 0.14491-0.33394 0.0559-0.41901 0.68548 0.0752 0.0491 0.0388-0.0103 0.13121-0.0173 0.19661-9e-3 0.0826-0.0194 0.16524-0.0293 0.24788-0.10324 0.77308-0.21557 1.5447-0.31462 2.3186-0.12122 0.95138-0.21387 1.9067-0.29479 2.863-0.0592 0.71116-0.10197 1.4237-0.13121 2.137-0.10037 2.4478-0.7383 2.417-0.6379-0.0303 0.0298-0.72415 0.0731-1.4476 0.13327-2.1696 0.0818-0.96705 0.17555-1.933 0.29817-2.8951 0.0988-0.77152 0.21058-1.5407 0.31372-2.3115 9e-3 -0.0752 0.0187-0.1516 0.0269-0.22759 6e-3 -0.0534-0.0339-0.15148 0.0151-0.1618 0.78198-0.16423 0.6648-0.074 0.52072 0.27384-0.16998 0.35941-0.36753 0.7022-0.58124 1.033-0.36583 0.55702-0.7512 1.0981-1.1608 1.6185-0.44123 0.56588-0.89044 1.1248-1.3674 1.6558-0.24998 0.27868-0.50047 0.55677-0.75463 0.83097-1.5964 1.7326-2.0479 1.2426-0.45154-0.49002z" style="paint-order:markers fill stroke"/>
   <path d="m15.764-188.64c-0.0826-0.19919-0.13497-0.41456-0.18134-0.63099-0.0853-0.37346-0.10253-0.75423-0.0786-1.1397 0.035-0.44707 0.17993-0.82169 0.41991-1.144 0.28203-0.31988 0.64106-0.43743 1.0035-0.51823 0.39507-0.0751 0.78046 0.0116 1.1538 0.17441 0.34141 0.16211 0.61376 0.45055 0.84443 0.8021 0.19 0.31121 0.2952 0.67525 0.35972 1.0564 0.0464 0.31459 0.0413 0.63437 0.0212 0.95182-0.0155 0.2173-0.0471 0.43192-0.0859 0.64423-0.012 0.0391-0.0147 0.0815-0.0252 0.12135-4e-3 0.0127 9e-3 -0.0254 7e-3 -0.0381-7e-3 -0.0604-2e-3 -0.13056-0.0308-0.17968-0.0906-0.15409-0.11805-0.15016-0.21209-0.16732 0.189-0.0604 0.37955-0.11256 0.57062-0.16128 0.31245-0.0773 0.62771-0.13437 0.94351-0.18412 0.28258-0.0519 0.56605-0.072 0.85042-0.0391 0.36571 0.0572 0.54297 0.27341 0.68886 0.69252 0.12871 0.52913 0.14111 1.0889 0.13882 1.6385-8e-3 0.64358-0.12057 1.2687-0.28939 1.8721-0.17424 0.57805-0.45034 1.0799-0.78212 1.5269-0.30747 0.40122-0.69139 0.6563-1.0983 0.85167-0.32684 0.14794-0.66928 0.20733-1.0142 0.22288-0.26806 0.0106-0.53468-0.0349-0.79967-0.0814-0.23927-0.0317-0.46642-0.11807-0.68411-0.24566-0.20969-0.12781-0.36832-0.32466-0.49245-0.57116-0.0816-0.17843-0.12143-0.37601-0.1456-0.57816-0.27669-2.4459 0.26651-2.5456 0.54318-0.0996 0.0107 0.10661 0.0293 0.21177 0.0681 0.30812 0.0625 0.13565 0.14662 0.23688 0.25844 0.30728 0.1675 0.1017 0.34338 0.16297 0.52843 0.18701 0.23375 0.0413 0.46886 0.0784 0.70537 0.0752 0.28549-0.0106 0.56914-0.0582 0.84022-0.17895 0.32983-0.15546 0.64262-0.356 0.89293-0.67886 0.28149-0.37368 0.51378-0.79628 0.66318-1.2814 0.15017-0.52795 0.24798-1.0765 0.2571-1.6405 3e-3 -0.45743-6e-3 -0.92217-0.0975-1.3673-0.0449-0.16623-0.0815-0.2445-0.2327-0.26311-0.24468-0.0307-0.48864 0-0.73181 0.0371-0.30237 0.0476-0.6042 0.10168-0.90336 0.17598-0.20215 0.0518-0.40283 0.11053-0.60385 0.16836-0.32365 0.0137-0.43416-0.23508-0.34809-0.58745 0.0329-0.17897 0.0599-0.35982 0.0734-0.54302 0.0165-0.2499 0.023-0.502-0.0111-0.75032-0.0433-0.27118-0.11447-0.53167-0.24618-0.75573-0.16272-0.25645-0.35721-0.46611-0.60161-0.58662-0.28394-0.12886-0.57783-0.19834-0.87999-0.1456-0.24793 0.0529-0.50203 0.11776-0.7052 0.31935-0.15906 0.19274-0.23856 0.4348-0.26444 0.71265-0.0218 0.30442-6e-3 0.60345 0.0615 0.89857 0.0345 0.1637 0.0727 0.32719 0.13337 0.47882 0.92912 2.1694 0.44733 2.5042-0.48178 0.33471z" style="paint-order:markers fill stroke"/>
   <path d="m131.7-192.1c-0.13711 0-0.27422 0.58345-0.27422 1.7504v0.99231c-1e-3 0.52682 3e-3 1.0536-3e-3 1.5804-5e-3 0.36972-0.0148 0.74048-0.0643 1.1059h-0.37999c-2e-3 9e-3 -4e-3 0.0142-5e-3 0.0224-0.0102 9e-3 -0.0131 0.0285-0.0122 0.0578-0.12983 0.63527-0.24216 0.52624 0.0461 0.61201 0.0552 0.0184 0.11023 0.0364 0.15624 0.0794 0.16225 0.11129 0.33312 0.13267 0.49061-0.0102 0.0262-0.0316 0.049-0.0651 0.0701-0.0994h0.0418c0.36495 4e-3 0.7299 8e-3 1.0949 0.012 0.30791 4e-3 0.61582 6e-3 0.92373 9e-3 0.23736 0 0.47467 3e-3 0.71204 3e-3 -5.9e-4 0.34263-5e-5 0.68503 0.0144 1.0273 0.01 0.21793 0.0281 0.43523 0.055 0.65105 0.012 0.093 0.0254 0.18562 0.0449 0.27672 5e-3 0.0205 2e-3 0.011 6e-3 0.0294 0.46475 2.2657 0.99713 2.1075 0.53239-0.15826-5e-3 -0.0252-3e-3 -0.0123-8e-3 -0.0392-0.0142-0.0682-0.0242-0.13747-0.0331-0.20695-0.0245-0.19437-0.0404-0.39018-0.0494-0.58645-0.0141-0.33104-0.0148-0.6622-0.0139-0.99352h0.24229 0.58637 0.43279c0.0773 6e-5 0.0392 0 0.11397 0 1.9391-3e-3 1.9387-0.66201-2.5e-4 -0.66008-0.0748-3e-5 -0.0368 0-0.11413 0h-0.43313-0.5862c-0.0806-3e-5 -0.16107 0-0.24162 0v-1.8606c0-2.3337-0.54844-2.3337-0.54844 0v1.8604c-0.23623 0-0.47246 0-0.70868-3e-3 -0.30733-3e-3 -0.61474-5e-3 -0.92208-9e-3 -0.31835-4e-3 -0.63663-7e-3 -0.95498-0.0104 0.0422-0.36542 0.0566-0.73435 0.0602-1.1033 6e-3 -0.52955 2e-3 -1.0591 3e-3 -1.5886v-0.99213c0-1.1669-0.13711-1.7503-0.27421-1.7503z" enable-background="new" style="paint-order:markers fill stroke"/>
  </g>
 </g>
</svg>
