<?xml version="1.0" encoding="UTF-8" standalone="no"?>
<!-- Created with Inkscape (http://www.inkscape.org/) -->

<svg
   xmlns:dc="http://purl.org/dc/elements/1.1/"
   xmlns:cc="http://creativecommons.org/ns#"
   xmlns:rdf="http://www.w3.org/1999/02/22-rdf-syntax-ns#"
   xmlns:svg="http://www.w3.org/2000/svg"
   xmlns="http://www.w3.org/2000/svg"
   xmlns:sodipodi="http://sodipodi.sourceforge.net/DTD/sodipodi-0.dtd"
   xmlns:inkscape="http://www.inkscape.org/namespaces/inkscape"
   width="155.07471mm"
   height="153.96912mm"
   viewBox="0 0 155.07471 153.96912"
   version="1.1"
   id="svg8"
   inkscape:version="0.92.3 (2405546, 2018-03-11)"
   sodipodi:docname="tolerance.svg">
  <defs
     id="defs2">
    <inkscape:path-effect
       effect="spiro"
       id="path-effect849"
       is_visible="true" />
    <inkscape:path-effect
       effect="simplify"
       id="path-effect847"
       is_visible="true"
       steps="1"
       threshold="0.0161538"
       smooth_angles="360"
       helper_size="0"
       simplify_individual_paths="false"
       simplify_just_coalesce="false"
       simplifyindividualpaths="false"
       simplifyJustCoalesce="false" />
    <inkscape:path-effect
       effect="spiro"
       id="path-effect843"
       is_visible="true" />
    <inkscape:path-effect
       effect="simplify"
       id="path-effect841"
       is_visible="true"
       steps="1"
       threshold="0.0161538"
       smooth_angles="360"
       helper_size="0"
       simplify_individual_paths="false"
       simplify_just_coalesce="false"
       simplifyindividualpaths="false"
       simplifyJustCoalesce="false" />
    <inkscape:path-effect
       effect="spiro"
       id="path-effect837"
       is_visible="true" />
    <inkscape:path-effect
       effect="simplify"
       id="path-effect835"
       is_visible="true"
       steps="1"
       threshold="0.0161538"
       smooth_angles="360"
       helper_size="0"
       simplify_individual_paths="false"
       simplify_just_coalesce="false"
       simplifyindividualpaths="false"
       simplifyJustCoalesce="false" />
    <inkscape:path-effect
       effect="spiro"
       id="path-effect831"
       is_visible="true" />
    <inkscape:path-effect
       effect="simplify"
       id="path-effect829"
       is_visible="true"
       steps="1"
       threshold="0.0205479"
       smooth_angles="360"
       helper_size="0"
       simplify_individual_paths="false"
       simplify_just_coalesce="false"
       simplifyindividualpaths="false"
       simplifyJustCoalesce="false" />
    <inkscape:path-effect
       effect="spiro"
       id="path-effect825"
       is_visible="true" />
    <inkscape:path-effect
       effect="simplify"
       id="path-effect823"
       is_visible="true"
       steps="1"
       threshold="0.0205479"
       smooth_angles="360"
       helper_size="0"
       simplify_individual_paths="false"
       simplify_just_coalesce="false"
       simplifyindividualpaths="false"
       simplifyJustCoalesce="false" />
    <inkscape:path-effect
       effect="spiro"
       id="path-effect819"
       is_visible="true" />
    <inkscape:path-effect
       effect="simplify"
       id="path-effect817"
       is_visible="true"
       steps="1"
       threshold="0.0205479"
       smooth_angles="360"
       helper_size="0"
       simplify_individual_paths="false"
       simplify_just_coalesce="false"
       simplifyindividualpaths="false"
       simplifyJustCoalesce="false" />
  </defs>
  <sodipodi:namedview
     id="base"
     pagecolor="#ffffff"
     bordercolor="#666666"
     borderopacity="1.0"
     inkscape:pageopacity="0.0"
     inkscape:pageshadow="2"
     inkscape:zoom="0.69244517"
     inkscape:cx="550.32669"
     inkscape:cy="314.37108"
     inkscape:document-units="mm"
     inkscape:current-layer="layer1"
     showgrid="false"
     inkscape:window-width="1366"
     inkscape:window-height="719"
     inkscape:window-x="0"
     inkscape:window-y="25"
     inkscape:window-maximized="1"
     showguides="true"
     inkscape:guide-bbox="true" />
  <metadata
     id="metadata5">
    <rdf:RDF>
      <cc:Work
         rdf:about="">
        <dc:format>image/svg+xml</dc:format>
        <dc:type
           rdf:resource="http://purl.org/dc/dcmitype/StillImage" />
        <dc:title></dc:title>
      </cc:Work>
    </rdf:RDF>
  </metadata>
  <g
     inkscape:label="Layer 1"
     inkscape:groupmode="layer"
     id="layer1"
     transform="translate(1.6795641,307.98057)">
    <path
       style="fill:#00887a;fill-opacity:1;stroke:#000000;stroke-width:1.16807604;stroke-linecap:butt;stroke-linejoin:miter;stroke-miterlimit:4;stroke-dasharray:none;stroke-opacity:1"
       d="m 15.321611,-178.96322 c 9.731042,-0.81207 19.092314,-5.44433 25.640833,-12.68792 6.812848,-7.53597 10.425737,-17.46598 12.401562,-27.43101 0.971499,-4.89974 1.589227,-9.88063 2.966555,-14.68211 1.377327,-4.80148 3.593353,-9.49995 7.249053,-12.90393 3.419881,-3.1844 8.020079,-5.07129 12.691075,-5.20464 4.670996,-0.13335 9.371655,1.48821 12.966359,4.47386 3.040011,2.52494 5.249931,5.93676 6.823861,9.56164 1.573929,3.62488 2.54655,7.47837 3.433706,11.32934 1.922645,8.34581 3.495335,16.83873 6.797065,24.74112 3.30173,7.90238 8.57308,15.31657 16.12915,19.3483 2.96749,1.58338 6.23045,2.61079 9.56978,3.01324"
       id="path833"
       inkscape:connector-curvature="0"
       inkscape:path-effect="#path-effect835;#path-effect837"
       inkscape:original-d="m 15.321611,-178.96322 c 8.310242,-0.53119 11.523673,-10.87953 19.771376,-11.5359 23.68573,-1.88494 16.004999,-28.77176 19.302021,-35.33135 0.143847,-28.54447 23.108506,-24.25888 34.743606,-21.50532 0.900583,0.0854 -0.638092,-0.25389 0,0 6.574426,2.61604 10.294409,11.38425 10.294409,14.84892 0,13.80696 -0.0487,46.59435 32.557587,53.08154"
       sodipodi:nodetypes="cscccsc" />
    <path
       style="opacity:1;fill:#ffa669;fill-opacity:1;stroke:#ff9243;stroke-width:0.57135338;stroke-linecap:square;stroke-miterlimit:4;stroke-dasharray:none;stroke-dashoffset:0;stroke-opacity:1;paint-order:markers fill stroke;enable-background:new"
       id="path1803"
       d="m 10.993881,-181.96185 v -7.63813 -26.19122 -31.09605 c -0.0092,-7.68893 0.01608,-15.37794 -0.01043,-23.06688 -0.550706,-25.94096 1.735064,-23.93219 1.866823,-0.003 0.02701,7.69038 0.0023,15.38078 0.01043,23.07113 v 31.09604 26.19124 7.63812 c 0,5.31156 -1.866971,5.31156 -1.866971,0 z"
       inkscape:connector-curvature="0"
       sodipodi:nodetypes="cccccccccscc" />
    <path
       style="opacity:1;fill:#ffa669;fill-opacity:1;stroke:#ff9243;stroke-width:0.37793419;stroke-linecap:square;stroke-miterlimit:4;stroke-dasharray:none;stroke-dashoffset:0;stroke-opacity:1;paint-order:markers fill stroke;enable-background:new"
       id="path1838-5-93-6"
       d="m 142.39468,-173.07106 c 0.22489,-0.16628 0.41963,-0.36137 0.62016,-0.54935 0.415,-0.39738 0.82782,-0.79657 1.23572,-1.19958 0.44962,-0.44775 0.91943,-0.87953 1.391,-1.3095 0.41416,-0.37372 0.84485,-0.73289 1.2682,-1.09851 0.29041,-0.25225 0.58848,-0.5023 0.8121,-0.80414 0.12985,-0.18265 0.15806,-0.37017 0.12207,-0.57779 -0.0696,-0.28871 -0.23885,-0.54549 -0.41502,-0.79312 -0.25389,-0.33567 -0.55946,-0.63728 -0.87258,-0.93082 -0.36813,-0.34025 -0.75781,-0.66188 -1.15139,-0.97937 -0.39458,-0.31373 -0.79934,-0.61723 -1.21274,-0.91175 -0.37852,-0.27208 -0.75832,-0.54278 -1.13981,-0.81167 -0.33622,-0.23409 -0.67207,-0.46864 -1.01229,-0.69827 -0.20103,-0.13419 -0.10141,-0.0679 -0.29876,-0.19841 -3.70224,-2.44727 -2.91118,-3.36357 0.79105,-0.91628 v 0 c 0.20409,0.13487 0.10099,0.0663 0.30939,0.20547 0.34744,0.23462 0.6906,0.47411 1.03397,0.71325 0.38323,0.2702 0.76485,0.54217 1.14515,0.8155 0.43414,0.30947 0.85939,0.62819 1.27367,0.95791 0.41787,0.3372 0.83128,0.67902 1.22177,1.04065 0.3715,0.34917 0.73219,0.70938 1.02943,1.11074 0.27648,0.39472 0.52355,0.80836 0.60286,1.2723 0.0496,0.47895 -0.032,0.9292 -0.336,1.3402 -0.28147,0.36143 -0.61928,0.68136 -0.98096,0.98287 -0.41493,0.35833 -0.83698,0.71041 -1.24323,1.07637 -0.45948,0.41894 -0.91739,0.83949 -1.35546,1.27576 -0.41552,0.41045 -0.83583,0.81709 -1.25873,1.22172 -0.24944,0.23385 -0.4933,0.47535 -0.77941,0.67602 -3.67775,2.47542 -4.47787,1.56521 -0.80016,-0.9102 z"
       inkscape:connector-curvature="0" />
    <rect
       style="opacity:0.87300002;vector-effect:none;fill:#ffffff;fill-opacity:0;fill-rule:nonzero;stroke:none;stroke-width:1.18963933;stroke-linecap:round;stroke-linejoin:miter;stroke-miterlimit:4;stroke-dasharray:none;stroke-dashoffset:0;stroke-opacity:0.82745098;paint-order:markers fill stroke"
       id="rect4062"
       width="154.24471"
       height="130.71681"
       x="-1.6795641"
       y="-284.72827" />
    <path
       style="opacity:1;fill:#00887a;fill-opacity:1;stroke:#00887a;stroke-width:0.45451543;stroke-linecap:square;stroke-miterlimit:4;stroke-dasharray:none;stroke-dashoffset:0;stroke-opacity:1;paint-order:markers fill stroke;enable-background:new"
       id="path1803-3"
       d="m 26.179547,-259.70959 h 7.635787 26.18319 31.086488 c 7.686581,-0.008 15.373228,0.0125 23.059798,-0.009 25.93302,-0.4281 23.92483,1.34876 0.004,1.45116 -7.68799,0.021 -15.376037,0.002 -23.064027,0.009 H 59.998069 33.814867 26.1791 c -5.309938,0 -5.309938,-1.45129 0,-1.45129 z"
       inkscape:connector-curvature="0"
       sodipodi:nodetypes="cccccccccscc" />
    <path
       style="opacity:1;fill:#00887a;fill-opacity:1;stroke:#00887a;stroke-width:0.37793419;stroke-linecap:square;stroke-miterlimit:4;stroke-dasharray:none;stroke-dashoffset:0;stroke-opacity:1;paint-order:markers fill stroke;enable-background:new"
       id="path1838-5-93-67"
       d="m 128.96527,-253.41802 c 0.23091,-0.16198 0.43081,-0.35203 0.63666,-0.53514 0.42605,-0.38708 0.84986,-0.77591 1.26861,-1.16847 0.46161,-0.43615 0.94388,-0.85675 1.428,-1.27558 0.42518,-0.36404 0.86733,-0.7139 1.30192,-1.07006 0.29815,-0.24572 0.60416,-0.48929 0.8337,-0.78329 0.13331,-0.17791 0.16226,-0.36059 0.12532,-0.56284 -0.0715,-0.28123 -0.24519,-0.53133 -0.42607,-0.77256 -0.26063,-0.32696 -0.57431,-0.62076 -0.89576,-0.9067 -0.37794,-0.33143 -0.77796,-0.64474 -1.182,-0.95399 -0.40511,-0.3056 -0.82061,-0.60121 -1.24505,-0.8881 -0.38859,-0.26504 -0.77849,-0.52873 -1.17011,-0.79068 -0.34514,-0.22803 -0.68996,-0.45648 -1.03921,-0.68017 -0.20637,-0.1307 -0.10415,-0.0663 -0.30671,-0.19328 -3.80072,-2.38386 -2.98861,-3.27638 0.81211,-0.89253 v 0 c 0.20949,0.13139 0.10363,0.0645 0.31758,0.20019 0.35671,0.22853 0.70898,0.46178 1.06147,0.69474 0.39346,0.26318 0.78522,0.5281 1.17563,0.79437 0.44571,0.30146 0.88225,0.61192 1.30757,0.93311 0.42895,0.32843 0.85339,0.6614 1.25428,1.01367 0.38138,0.34013 0.75164,0.69099 1.05677,1.08194 0.28385,0.3845 0.53747,0.78742 0.61893,1.23936 0.0509,0.46652 -0.0329,0.90508 -0.34496,1.30546 -0.28893,0.35207 -0.63576,0.66372 -1.00706,0.9574 -0.42596,0.34905 -0.85923,0.69201 -1.27629,1.04849 -0.47171,0.40807 -0.94179,0.81773 -1.39151,1.24271 -0.42657,0.39979 -0.85808,0.79592 -1.29222,1.19004 -0.25608,0.22781 -0.50642,0.46306 -0.80015,0.65852 -3.77554,2.41128 -4.59699,1.52467 -0.82145,-0.88661 z"
       inkscape:connector-curvature="0" />
    <path
       style="opacity:1;fill:#00887a;fill-opacity:1;stroke:#00887a;stroke-width:0.37793419;stroke-linecap:square;stroke-miterlimit:4;stroke-dasharray:none;stroke-dashoffset:0;stroke-opacity:1;paint-order:markers fill stroke;enable-background:new"
       id="path1838-5-93-67-5"
       d="m 23.786169,-253.78004 c -0.230902,-0.16199 -0.43081,-0.35204 -0.636658,-0.53515 -0.426058,-0.38707 -0.84987,-0.77593 -1.268604,-1.16848 -0.461607,-0.43615 -0.943885,-0.85674 -1.428014,-1.27557 -0.425167,-0.36404 -0.867323,-0.71391 -1.301919,-1.07005 -0.298135,-0.24572 -0.604148,-0.48929 -0.833697,-0.7833 -0.133298,-0.1779 -0.162254,-0.36058 -0.125319,-0.56284 0.07154,-0.28123 0.245188,-0.53133 0.426078,-0.77258 0.260622,-0.32693 0.574318,-0.62073 0.895754,-0.90667 0.377944,-0.33144 0.777961,-0.64475 1.182,-0.95399 0.405103,-0.30562 0.820614,-0.60122 1.245052,-0.88812 0.388584,-0.26503 0.778489,-0.52871 1.170104,-0.79066 0.345147,-0.22803 0.689963,-0.45649 1.039217,-0.68017 0.206367,-0.1307 0.104121,-0.0663 0.306709,-0.19329 3.800719,-2.38386 2.988602,-3.27639 -0.812116,-0.89253 v 0 c -0.209488,0.1314 -0.103626,0.0646 -0.317578,0.20019 -0.356703,0.22852 -0.708984,0.46177 -1.061471,0.69474 -0.393453,0.26318 -0.785214,0.5281 -1.175632,0.79438 -0.445701,0.30144 -0.882244,0.61191 -1.307558,0.93311 -0.428951,0.32842 -0.853394,0.66139 -1.254287,1.01366 -0.381366,0.34013 -0.751643,0.69099 -1.05676,1.08194 -0.28386,0.38451 -0.537475,0.78742 -0.618934,1.23935 -0.05094,0.46653 0.03283,0.90509 0.344951,1.30546 0.288932,0.35208 0.635766,0.66373 1.007061,0.95741 0.425962,0.34905 0.859234,0.69201 1.276291,1.04849 0.47171,0.40806 0.941785,0.81773 1.391517,1.2427 0.426561,0.39979 0.858082,0.79593 1.292214,1.19005 0.256087,0.2278 0.50641,0.46305 0.800145,0.65853 3.775553,2.41127 4.596993,1.52467 0.821454,-0.88661 z"
       inkscape:connector-curvature="0" />
    <text
       xml:space="preserve"
       style="font-style:normal;font-variant:normal;font-weight:normal;font-stretch:normal;font-size:6.1810689px;line-height:1.25;font-family:Purisa;-inkscape-font-specification:'Purisa, Normal';font-variant-ligatures:normal;font-variant-caps:normal;font-variant-numeric:normal;font-feature-settings:normal;text-align:start;letter-spacing:0px;word-spacing:0px;writing-mode:lr-tb;text-anchor:start;fill:#000000;fill-opacity:1;stroke:#050f0e;stroke-width:0.58403802;stroke-miterlimit:4;stroke-dasharray:none;stroke-opacity:1"
       x="206.73094"
       y="8.1553602"
       id="text2727"
       transform="matrix(0,-1.1601997,0.86192059,0,0,0)"><tspan
         sodipodi:role="line"
         id="tspan2725"
         x="206.73094"
         y="8.1553602"
         style="font-style:normal;font-variant:normal;font-weight:normal;font-stretch:normal;font-size:6.1810689px;font-family:Purisa;-inkscape-font-specification:'Purisa, Normal';font-variant-ligatures:normal;font-variant-caps:normal;font-variant-numeric:normal;font-feature-settings:normal;text-align:start;writing-mode:lr-tb;text-anchor:start;stroke:#050f0e;stroke-width:0.58403802;stroke-miterlimit:4;stroke-dasharray:none;stroke-opacity:1">Gyakoriság</tspan></text>
    <text
       xml:space="preserve"
       style="font-style:normal;font-variant:normal;font-weight:normal;font-stretch:normal;font-size:6.1810689px;line-height:1.25;font-family:Purisa;-inkscape-font-specification:'Purisa, Normal';font-variant-ligatures:normal;font-variant-caps:normal;font-variant-numeric:normal;font-feature-settings:normal;text-align:start;letter-spacing:0px;word-spacing:0px;writing-mode:lr-tb;text-anchor:start;fill:#000000;fill-opacity:1;stroke:#050f0e;stroke-width:0.58403802;stroke-miterlimit:4;stroke-dasharray:none;stroke-opacity:1"
       x="62.803684"
       y="-145.15417"
       id="text2731"
       transform="scale(0.86192059,1.1601997)"><tspan
         sodipodi:role="line"
         id="tspan2729"
         x="62.803684"
         y="-145.15417"
         style="font-style:normal;font-variant:normal;font-weight:normal;font-stretch:normal;font-size:6.1810689px;font-family:Purisa;-inkscape-font-specification:'Purisa, Normal';font-variant-ligatures:normal;font-variant-caps:normal;font-variant-numeric:normal;font-feature-settings:normal;text-align:start;writing-mode:lr-tb;text-anchor:start;stroke:#050f0e;stroke-width:0.58403802;stroke-miterlimit:4;stroke-dasharray:none;stroke-opacity:1">Környezeti tényező mértéke</tspan></text>
    <path
       style="opacity:1;vector-effect:none;fill:#f61b2d;fill-opacity:0.8745098;fill-rule:nonzero;stroke:#000000;stroke-width:0.96950305;stroke-linecap:round;stroke-linejoin:miter;stroke-miterlimit:4;stroke-dasharray:none;stroke-dashoffset:0;stroke-opacity:0.8745098;paint-order:markers fill stroke"
       d="m 65.235927,-192.60339 c -0.0858,-6.8883 -0.179033,-21.61856 -0.329228,-32.73247 l -0.296851,-21.96604 c 8.828036,-5.81672 15.829478,-6.70419 24.996264,0.0627 0,0 0.592198,17.47993 0.652721,24.30468 0.112574,12.69423 -0.05351,28.49323 -0.04342,33.9313 l 0.159059,9.36795 -12.224968,0.42842 -12.750338,-0.29078 z"
       id="path4085"
       inkscape:connector-curvature="0"
       sodipodi:nodetypes="sscccccccs" />
    <path
       style="opacity:1;fill:#ffa669;fill-opacity:1;stroke:#ff9243;stroke-width:0.5142048;stroke-linecap:square;stroke-miterlimit:4;stroke-dasharray:none;stroke-dashoffset:0;stroke-opacity:1;paint-order:markers fill stroke;enable-background:new"
       id="path1801"
       d="m 15.161815,-179.99038 h 7.039798 19.713797 27.125861 25.588739 20.22222 13.7949 c 19.21241,0.34906 19.1465,2.08861 0,2.08861 H 114.85223 94.63001 69.041271 41.91541 22.201613 15.161815 c -5.5082413,0 -5.5082413,-2.08861 0,-2.08861 z"
       inkscape:connector-curvature="0"
       sodipodi:nodetypes="sccccccccccccss" />
    <path
       style="opacity:1;fill:#ffa669;fill-opacity:1;stroke:#ff9243;stroke-width:0.37793419;stroke-linecap:square;stroke-miterlimit:4;stroke-dasharray:none;stroke-dashoffset:0;stroke-opacity:1;paint-order:markers fill stroke;enable-background:new"
       id="path1838-5-93-6-7"
       d="m 16.945224,-287.74463 c -0.160946,-0.23235 -0.349778,-0.43355 -0.531723,-0.64072 -0.384626,-0.42877 -0.770999,-0.85528 -1.16107,-1.27671 -0.433374,-0.46453 -0.851298,-0.94992 -1.267465,-1.43713 -0.36172,-0.42789 -0.709361,-0.87287 -1.063246,-1.31025 -0.244152,-0.30005 -0.486177,-0.60801 -0.778329,-0.83904 -0.176785,-0.13415 -0.358288,-0.1633 -0.559241,-0.12612 -0.279442,0.0719 -0.527985,0.24677 -0.767661,0.42879 -0.324894,0.2623 -0.616825,0.578 -0.9009433,0.90151 -0.329327,0.38034 -0.640635,0.78295 -0.947931,1.18958 -0.303663,0.40766 -0.597416,0.82584 -0.882481,1.25296 -0.26335,0.39107 -0.525363,0.78347 -0.785617,1.17761 -0.226576,0.34736 -0.4535937,0.69436 -0.6758621,1.04586 -0.1298794,0.20769 -0.065714,0.10478 -0.1920336,0.30867 -2.3687182,3.82502 -3.2556013,3.00772 -0.8868727,-0.81728 v 0 c 0.130543,-0.21086 0.064134,-0.10434 0.198879,-0.31965 0.2270916,-0.35897 0.4588906,-0.71351 0.6903526,-1.06827 0.2615281,-0.39594 0.5247623,-0.79021 0.7893238,-1.18312 0.299535,-0.44854 0.608021,-0.8879 0.927164,-1.31592 0.326368,-0.43172 0.657222,-0.85885 1.007243,-1.26229 0.337962,-0.38381 0.686603,-0.75646 1.0750833,-1.06356 0.382046,-0.28565 0.782416,-0.54092 1.23146,-0.62286 0.463577,-0.0512 0.899373,0.0331 1.297183,0.34714 0.349821,0.29081 0.659486,0.63982 0.951312,1.0135 0.34683,0.42869 0.687615,0.86474 1.041827,1.28445 0.405487,0.47472 0.812534,0.94782 1.234808,1.40042 0.397273,0.4293 0.790861,0.86355 1.1825,1.30048 0.226344,0.25771 0.460091,0.50966 0.654316,0.80525 2.395962,3.79972 1.514965,4.62639 -0.880976,0.8267 z"
       inkscape:connector-curvature="0" />
    <text
       xml:space="preserve"
       style="font-style:normal;font-variant:normal;font-weight:bold;font-stretch:normal;font-size:11.32867241px;line-height:1.25;font-family:Purisa;-inkscape-font-specification:'Purisa, Bold';font-variant-ligatures:normal;font-variant-caps:normal;font-variant-numeric:normal;font-feature-settings:normal;text-align:start;letter-spacing:0px;word-spacing:0px;writing-mode:lr-tb;text-anchor:start;fill:#000000;fill-opacity:1;stroke:none;stroke-width:0.2832168"
       x="75.133064"
       y="-257.79974"
       id="text3436"
       transform="scale(0.98381912,1.016447)"><tspan
         sodipodi:role="line"
         id="tspan3434"
         x="75.133064"
         y="-257.79974"
         style="font-style:normal;font-variant:normal;font-weight:bold;font-stretch:normal;font-size:12.69999981px;font-family:Purisa;-inkscape-font-specification:'Purisa, Bold';font-variant-ligatures:normal;font-variant-caps:normal;font-variant-numeric:normal;font-feature-settings:normal;text-align:start;writing-mode:lr-tb;text-anchor:start;stroke-width:0.2832168">1</tspan></text>
    <text
       xml:space="preserve"
       style="font-style:normal;font-variant:normal;font-weight:bold;font-stretch:normal;font-size:11.32867241px;line-height:1.25;font-family:Purisa;-inkscape-font-specification:'Purisa, Bold';font-variant-ligatures:normal;font-variant-caps:normal;font-variant-numeric:normal;font-feature-settings:normal;text-align:start;letter-spacing:0px;word-spacing:0px;writing-mode:lr-tb;text-anchor:start;fill:#000000;fill-opacity:1;stroke:none;stroke-width:0.2832168"
       x="73.276672"
       y="-236.81912"
       id="text3436-0"
       transform="scale(0.98381912,1.016447)"><tspan
         sodipodi:role="line"
         id="tspan3434-9"
         x="73.276672"
         y="-236.81912"
         style="font-style:normal;font-variant:normal;font-weight:bold;font-stretch:normal;font-size:12.69999981px;font-family:Purisa;-inkscape-font-specification:'Purisa, Bold';font-variant-ligatures:normal;font-variant-caps:normal;font-variant-numeric:normal;font-feature-settings:normal;text-align:start;writing-mode:lr-tb;text-anchor:start;stroke-width:0.2832168">2</tspan></text>
    <path
       style="opacity:1;fill:#00000f;fill-opacity:1;stroke:#00000f;stroke-width:0;stroke-linecap:square;stroke-miterlimit:4;stroke-dasharray:none;stroke-dashoffset:0;stroke-opacity:1;paint-order:markers fill stroke;enable-background:new"
       id="path1803-3-1"
       d="m 71.074036,-233.9379 h 0.909557 3.118884 3.702951 c 0.915608,-0.008 1.831226,0.0125 2.746834,-0.009 3.089085,-0.4281 2.849875,1.34876 4.77e-4,1.45116 -0.915777,0.021 -1.83156,0.002 -2.747338,0.009 h -3.702978 -3.118885 -0.909556 c -0.632508,0 -0.632508,-1.45129 0,-1.45129 z"
       inkscape:connector-curvature="0"
       sodipodi:nodetypes="cccccccccscc" />
    <path
       style="opacity:1;fill:#00000f;fill-opacity:1;stroke:#00000f;stroke-width:0.24923095;stroke-linecap:square;stroke-miterlimit:4;stroke-dasharray:none;stroke-dashoffset:0;stroke-opacity:1;paint-order:markers fill stroke;enable-background:new"
       id="path1838-5-93-67-9"
       d="m 83.836617,-228.92645 c 0.148334,-0.10966 0.276748,-0.23831 0.408984,-0.36228 0.273691,-0.26204 0.545943,-0.52527 0.814944,-0.79102 0.296534,-0.29526 0.60634,-0.58 0.917334,-0.86353 0.273132,-0.24645 0.557165,-0.4833 0.836342,-0.72441 0.191529,-0.16634 0.388107,-0.33123 0.535561,-0.53026 0.08564,-0.12045 0.104235,-0.24411 0.0805,-0.38103 -0.04593,-0.19039 -0.157508,-0.3597 -0.273704,-0.52301 -0.167426,-0.22134 -0.368931,-0.42023 -0.575428,-0.61381 -0.242785,-0.22437 -0.499754,-0.43647 -0.759306,-0.64583 -0.260239,-0.20688 -0.527152,-0.407 -0.799809,-0.60122 -0.249627,-0.17942 -0.500095,-0.35793 -0.751668,-0.53527 -0.221715,-0.15437 -0.443224,-0.30902 -0.667579,-0.46045 -0.13257,-0.0885 -0.06691,-0.0449 -0.197028,-0.13085 -2.441548,-1.61381 -1.919856,-2.21802 0.521692,-0.60422 v 0 c 0.134575,0.089 0.06657,0.0437 0.204011,0.13552 0.229147,0.15471 0.455442,0.31262 0.681879,0.47033 0.252755,0.17816 0.504418,0.35751 0.755214,0.53776 0.28632,0.20408 0.566749,0.41426 0.839971,0.63169 0.275553,0.22234 0.54821,0.44776 0.805738,0.68623 0.244995,0.23026 0.482847,0.46779 0.678859,0.73245 0.182343,0.2603 0.345266,0.53306 0.397595,0.83901 0.0327,0.31583 -0.02113,0.61272 -0.221599,0.88377 -0.185606,0.23834 -0.408406,0.44932 -0.646926,0.64813 -0.273633,0.2363 -0.551962,0.46847 -0.819877,0.7098 -0.303022,0.27626 -0.604998,0.55358 -0.893894,0.84129 -0.274024,0.27064 -0.551222,0.53881 -0.83011,0.80562 -0.164503,0.15422 -0.32532,0.31348 -0.514009,0.4458 -2.425373,1.63238 -2.953065,1.03217 -0.527692,-0.60021 z"
       inkscape:connector-curvature="0" />
    <path
       style="opacity:1;fill:#00000f;fill-opacity:1;stroke:#00000f;stroke-width:0.24923095;stroke-linecap:square;stroke-miterlimit:4;stroke-dasharray:none;stroke-dashoffset:0;stroke-opacity:1;paint-order:markers fill stroke;enable-background:new"
       id="path1838-5-93-67-9-4"
       d="m 70.408105,-229.53019 c -0.148334,-0.10966 -0.276748,-0.2383 -0.408984,-0.36227 -0.273691,-0.26204 -0.545943,-0.52527 -0.814944,-0.79102 -0.296534,-0.29526 -0.60634,-0.58 -0.917334,-0.86353 -0.273132,-0.24645 -0.557165,-0.4833 -0.836342,-0.72441 -0.191529,-0.16635 -0.388107,-0.33124 -0.535561,-0.53026 -0.08564,-0.12045 -0.104235,-0.24412 -0.0805,-0.38104 0.04593,-0.19039 0.157508,-0.3597 0.273704,-0.523 0.167426,-0.22134 0.368931,-0.42023 0.575428,-0.61381 0.242785,-0.22438 0.499754,-0.43648 0.759306,-0.64584 0.260239,-0.20687 0.527152,-0.40699 0.799809,-0.60121 0.249627,-0.17943 0.500095,-0.35794 0.751668,-0.53528 0.221715,-0.15437 0.443224,-0.30902 0.667579,-0.46045 0.13257,-0.0885 0.06691,-0.0449 0.197028,-0.13085 2.441548,-1.61381 1.919856,-2.21802 -0.521692,-0.60422 v 0 c -0.134575,0.089 -0.06657,0.0437 -0.204011,0.13552 -0.229147,0.15471 -0.455442,0.31262 -0.681879,0.47033 -0.252755,0.17816 -0.504418,0.35751 -0.755214,0.53776 -0.28632,0.20408 -0.566749,0.41426 -0.839971,0.6317 -0.275553,0.22234 -0.54821,0.44776 -0.805738,0.68623 -0.244995,0.23026 -0.482847,0.46778 -0.678859,0.73245 -0.182343,0.2603 -0.345266,0.53306 -0.397595,0.839 -0.0327,0.31584 0.02113,0.61272 0.221599,0.88377 0.185606,0.23835 0.408406,0.44933 0.646926,0.64814 0.273633,0.2363 0.551962,0.46847 0.819877,0.70979 0.303022,0.27627 0.604998,0.55358 0.893894,0.8413 0.274024,0.27063 0.551222,0.5388 0.83011,0.80562 0.164503,0.15422 0.32532,0.31347 0.514009,0.4458 2.425373,1.63238 2.953065,1.03217 0.527692,-0.60022 z"
       inkscape:connector-curvature="0" />
    <text
       xml:space="preserve"
       style="font-style:normal;font-variant:normal;font-weight:bold;font-stretch:normal;font-size:11.32867241px;line-height:1.25;font-family:Purisa;-inkscape-font-specification:'Purisa, Bold';font-variant-ligatures:normal;font-variant-caps:normal;font-variant-numeric:normal;font-feature-settings:normal;text-align:start;letter-spacing:0px;word-spacing:0px;writing-mode:lr-tb;text-anchor:start;fill:#000000;fill-opacity:1;stroke:none;stroke-width:0.2832168"
       x="14.482142"
       y="-180.13658"
       id="text3436-0-4"
       transform="scale(0.98381912,1.016447)"><tspan
         sodipodi:role="line"
         id="tspan3434-9-6"
         x="14.482142"
         y="-180.13658"
         style="font-style:normal;font-variant:normal;font-weight:bold;font-stretch:normal;font-size:12.69999981px;font-family:Purisa;-inkscape-font-specification:'Purisa, Bold';font-variant-ligatures:normal;font-variant-caps:normal;font-variant-numeric:normal;font-feature-settings:normal;text-align:start;writing-mode:lr-tb;text-anchor:start;stroke-width:0.2832168">3</tspan></text>
    <text
       xml:space="preserve"
       style="font-style:normal;font-variant:normal;font-weight:bold;font-stretch:normal;font-size:11.32867241px;line-height:1.25;font-family:Purisa;-inkscape-font-specification:'Purisa, Bold';font-variant-ligatures:normal;font-variant-caps:normal;font-variant-numeric:normal;font-feature-settings:normal;text-align:start;letter-spacing:0px;word-spacing:0px;writing-mode:lr-tb;text-anchor:start;fill:#000000;fill-opacity:1;stroke:none;stroke-width:0.2832168"
       x="130.22072"
       y="-180.28899"
       id="text3436-0-8"
       transform="scale(0.98381912,1.016447)"><tspan
         sodipodi:role="line"
         id="tspan3434-9-1"
         x="130.22072"
         y="-180.28899"
         style="font-style:normal;font-variant:normal;font-weight:bold;font-stretch:normal;font-size:12.69999981px;font-family:Purisa;-inkscape-font-specification:'Purisa, Bold';font-variant-ligatures:normal;font-variant-caps:normal;font-variant-numeric:normal;font-feature-settings:normal;text-align:start;writing-mode:lr-tb;text-anchor:start;stroke-width:0.2832168">4</tspan></text>
  </g>
</svg>
